M48
; DRILL file {KiCad (5.1.4)-1} date 11/9/2020 8:47:02 PM
; FORMAT={-:-/ absolute / inch / decimal}
; #@! TF.CreationDate,2020-11-09T20:47:02-05:00
; #@! TF.GenerationSoftware,Kicad,Pcbnew,(5.1.4)-1
FMAT,2
INCH
T1C0.0079
T2C0.0098
T3C0.0157
T4C0.0197
T5C0.0236
T6C0.0335
T7C0.0394
T8C0.0984
T9C0.0315
%
G90
G05
T1
X2.1535Y-2.8898
X2.1654Y-2.748
X2.1969Y-2.7953
X2.2283Y-3.1575
X2.2362Y-2.7165
X2.2362Y-2.811
X2.2598Y-2.3858
X2.2598Y-2.4488
X2.2598Y-2.4803
X2.2598Y-2.5433
X2.2598Y-3.0
X2.2598Y-3.063
X2.2598Y-3.0945
X2.2677Y-2.7008
X2.2913Y-2.3543
X2.2992Y-2.7323
X2.3133Y-2.8284
X2.3228Y-2.3543
X2.3228Y-2.3858
X2.3228Y-2.4488
X2.3228Y-2.4803
X2.3228Y-2.5118
X2.3228Y-2.5433
X2.3228Y-2.874
X2.3228Y-2.937
X2.3228Y-3.0
X2.3228Y-3.0315
X2.3228Y-3.063
X2.3448Y-2.8284
X2.3543Y-2.4488
X2.3543Y-2.4803
X2.3543Y-2.5118
X2.3543Y-2.5748
X2.3543Y-2.6378
X2.3543Y-2.9685
X2.3543Y-3.0
X2.3543Y-3.0315
X2.3543Y-3.063
X2.3543Y-3.126
X2.3543Y-3.1575
X2.3622Y-2.7323
X2.378Y-2.685
X2.3858Y-3.1575
X2.4094Y-2.7165
X2.4094Y-2.7795
X2.4173Y-3.0315
X2.4173Y-2.4173
X2.4173Y-2.4488
X2.4173Y-2.5118
X2.4173Y-2.9685
X2.4173Y-3.063
X2.4173Y-3.126
X2.4409Y-2.7638
X2.4488Y-2.3543
X2.4724Y-2.748
X2.5236Y-2.622
X1.5354Y-2.7165
X1.5354Y-2.7559
X1.5354Y-2.7953
X1.5748Y-2.7165
X1.5748Y-2.7559
X1.5748Y-2.7953
X1.6142Y-2.7165
X1.6142Y-2.7559
X1.6142Y-2.7953
T2
X1.4331Y-2.6654
X1.4331Y-2.6929
X1.4331Y-2.7205
X1.4331Y-2.748
X1.4803Y-2.878
X1.5512Y-2.8898
X1.5551Y-2.6181
X1.5906Y-2.6181
X1.7126Y-2.7008
X1.7126Y-2.7283
X1.7126Y-2.7559
X1.7126Y-2.7835
X1.7126Y-2.811
X1.7126Y-2.8386
X1.7559Y-2.7008
X1.7559Y-2.7402
X1.811Y-2.6614
T3
X1.0669Y-3.0472
X1.0669Y-3.0906
X1.0827Y-3.2717
X1.2205Y-3.0472
X1.2283Y-2.8071
X1.2756Y-2.1535
X1.2756Y-2.3661
X1.3189Y-2.9528
X1.3268Y-2.689
X1.3307Y-2.1535
X1.3307Y-2.3661
X1.3583Y-3.2638
X1.3661Y-2.6142
X1.3858Y-2.1535
X1.3858Y-2.3661
X1.4173Y-2.5
X1.4331Y-3.0315
X1.4803Y-2.9331
X1.5157Y-2.3228
X1.5354Y-3.1142
X1.5984Y-2.9764
X1.6142Y-2.5
X1.6339Y-2.3386
X1.6339Y-2.378
X1.6339Y-2.4173
X1.6693Y-2.9449
X1.6732Y-2.5236
X1.6929Y-2.2362
X1.752Y-2.3228
X1.811Y-2.3622
X1.811Y-2.4016
X1.811Y-2.4409
X1.811Y-2.4803
X1.8268Y-3.3425
X1.9291Y-3.2047
X1.9508Y-2.2067
X1.9508Y-2.248
X1.9606Y-2.5197
X2.0Y-2.1181
X2.0787Y-3.3543
X2.1102Y-2.1339
X2.1102Y-2.1732
X2.1102Y-2.2126
X2.1181Y-3.4331
X2.2205Y-2.0748
X2.2205Y-2.1181
X2.2598Y-2.2677
X2.3228Y-3.4331
X2.3543Y-2.0787
X2.4173Y-3.2402
X2.4567Y-3.3937
X2.4567Y-3.437
X2.5591Y-2.0787
X2.5669Y-3.2992
X2.5669Y-3.3386
X2.5669Y-3.378
X2.5984Y-2.1654
X2.6063Y-2.7559
X2.6772Y-3.3937
X2.7283Y-3.2618
X2.7283Y-3.3051
T4
X2.0433Y-2.5039
X2.0433Y-3.0866
X0.9892Y-3.4252
X1.0108Y-3.373
X1.0108Y-3.4774
X1.063Y-3.3514
X1.063Y-3.499
X1.1152Y-3.373
X1.1152Y-3.4774
X1.1368Y-3.4252
X2.6339Y-2.4252
X2.6339Y-2.5039
X2.7608Y-2.0866
X2.7824Y-2.0344
X2.7824Y-2.1388
X2.8346Y-2.0128
X2.8346Y-2.1604
X2.8868Y-2.0344
X2.8868Y-2.1388
X2.9085Y-2.0866
X2.7608Y-3.4252
X2.7824Y-3.373
X2.7824Y-3.4774
X2.8346Y-3.3514
X2.8346Y-3.499
X2.8868Y-3.373
X2.8868Y-3.4774
X2.9085Y-3.4252
X0.9892Y-2.0866
X1.0108Y-2.0344
X1.0108Y-2.1388
X1.063Y-2.0128
X1.063Y-2.1604
X1.1152Y-2.0344
X1.1152Y-2.1388
X1.1368Y-2.0866
X2.0433Y-3.0079
X2.0433Y-2.4252
T6
X1.1678Y-2.6575
X1.1678Y-2.8543
T7
X1.5291Y-3.4055
X1.6291Y-3.4055
X1.7291Y-3.4055
X1.8291Y-3.4055
X1.9291Y-3.4055
X1.2795Y-3.4055
X1.3795Y-3.4055
X1.0827Y-2.3803
X1.0827Y-2.4803
T8
X1.063Y-3.4252
X2.8346Y-2.0866
X2.8346Y-3.4252
X1.063Y-2.0866
T9
X1.3583Y-3.1496
T5
G00X1.0477Y-2.6181
M15
G01X1.0753Y-2.6181
M16
G05
G00X1.0753Y-2.8937
M15
G01X1.0477Y-2.8937
M16
G05
T0
M30
