G04 #@! TF.GenerationSoftware,KiCad,Pcbnew,(5.1.4)-1*
G04 #@! TF.CreationDate,2020-11-09T20:47:03-05:00*
G04 #@! TF.ProjectId,icepool-board,69636570-6f6f-46c2-9d62-6f6172642e6b,2020-04*
G04 #@! TF.SameCoordinates,Original*
G04 #@! TF.FileFunction,Paste,Bot*
G04 #@! TF.FilePolarity,Positive*
%FSLAX46Y46*%
G04 Gerber Fmt 4.6, Leading zero omitted, Abs format (unit mm)*
G04 Created by KiCad (PCBNEW (5.1.4)-1) date 2020-11-09 20:47:03*
%MOMM*%
%LPD*%
G04 APERTURE LIST*
%ADD10C,0.050000*%
%ADD11C,0.150000*%
%ADD12C,0.413000*%
%ADD13C,0.682500*%
G04 APERTURE END LIST*
D10*
X25500000Y-88500000D02*
X25500000Y-51500000D01*
X73500000Y-88500000D02*
X25500000Y-88500000D01*
X73500000Y-51500000D02*
X73500000Y-88500000D01*
X25500000Y-51500000D02*
X73500000Y-51500000D01*
D11*
G04 #@! TO.C,R10*
G36*
X60398370Y-83576497D02*
G01*
X60408393Y-83577984D01*
X60418222Y-83580446D01*
X60427762Y-83583859D01*
X60436922Y-83588192D01*
X60445613Y-83593401D01*
X60453751Y-83599437D01*
X60461259Y-83606241D01*
X60468063Y-83613749D01*
X60474099Y-83621887D01*
X60479308Y-83630578D01*
X60483641Y-83639738D01*
X60487054Y-83649278D01*
X60489516Y-83659107D01*
X60491003Y-83669130D01*
X60491500Y-83679250D01*
X60491500Y-83920750D01*
X60491003Y-83930870D01*
X60489516Y-83940893D01*
X60487054Y-83950722D01*
X60483641Y-83960262D01*
X60479308Y-83969422D01*
X60474099Y-83978113D01*
X60468063Y-83986251D01*
X60461259Y-83993759D01*
X60453751Y-84000563D01*
X60445613Y-84006599D01*
X60436922Y-84011808D01*
X60427762Y-84016141D01*
X60418222Y-84019554D01*
X60408393Y-84022016D01*
X60398370Y-84023503D01*
X60388250Y-84024000D01*
X60181750Y-84024000D01*
X60171630Y-84023503D01*
X60161607Y-84022016D01*
X60151778Y-84019554D01*
X60142238Y-84016141D01*
X60133078Y-84011808D01*
X60124387Y-84006599D01*
X60116249Y-84000563D01*
X60108741Y-83993759D01*
X60101937Y-83986251D01*
X60095901Y-83978113D01*
X60090692Y-83969422D01*
X60086359Y-83960262D01*
X60082946Y-83950722D01*
X60080484Y-83940893D01*
X60078997Y-83930870D01*
X60078500Y-83920750D01*
X60078500Y-83679250D01*
X60078997Y-83669130D01*
X60080484Y-83659107D01*
X60082946Y-83649278D01*
X60086359Y-83639738D01*
X60090692Y-83630578D01*
X60095901Y-83621887D01*
X60101937Y-83613749D01*
X60108741Y-83606241D01*
X60116249Y-83599437D01*
X60124387Y-83593401D01*
X60133078Y-83588192D01*
X60142238Y-83583859D01*
X60151778Y-83580446D01*
X60161607Y-83577984D01*
X60171630Y-83576497D01*
X60181750Y-83576000D01*
X60388250Y-83576000D01*
X60398370Y-83576497D01*
X60398370Y-83576497D01*
G37*
D12*
X60285000Y-83800000D03*
D11*
G36*
X59428370Y-83576497D02*
G01*
X59438393Y-83577984D01*
X59448222Y-83580446D01*
X59457762Y-83583859D01*
X59466922Y-83588192D01*
X59475613Y-83593401D01*
X59483751Y-83599437D01*
X59491259Y-83606241D01*
X59498063Y-83613749D01*
X59504099Y-83621887D01*
X59509308Y-83630578D01*
X59513641Y-83639738D01*
X59517054Y-83649278D01*
X59519516Y-83659107D01*
X59521003Y-83669130D01*
X59521500Y-83679250D01*
X59521500Y-83920750D01*
X59521003Y-83930870D01*
X59519516Y-83940893D01*
X59517054Y-83950722D01*
X59513641Y-83960262D01*
X59509308Y-83969422D01*
X59504099Y-83978113D01*
X59498063Y-83986251D01*
X59491259Y-83993759D01*
X59483751Y-84000563D01*
X59475613Y-84006599D01*
X59466922Y-84011808D01*
X59457762Y-84016141D01*
X59448222Y-84019554D01*
X59438393Y-84022016D01*
X59428370Y-84023503D01*
X59418250Y-84024000D01*
X59211750Y-84024000D01*
X59201630Y-84023503D01*
X59191607Y-84022016D01*
X59181778Y-84019554D01*
X59172238Y-84016141D01*
X59163078Y-84011808D01*
X59154387Y-84006599D01*
X59146249Y-84000563D01*
X59138741Y-83993759D01*
X59131937Y-83986251D01*
X59125901Y-83978113D01*
X59120692Y-83969422D01*
X59116359Y-83960262D01*
X59112946Y-83950722D01*
X59110484Y-83940893D01*
X59108997Y-83930870D01*
X59108500Y-83920750D01*
X59108500Y-83679250D01*
X59108997Y-83669130D01*
X59110484Y-83659107D01*
X59112946Y-83649278D01*
X59116359Y-83639738D01*
X59120692Y-83630578D01*
X59125901Y-83621887D01*
X59131937Y-83613749D01*
X59138741Y-83606241D01*
X59146249Y-83599437D01*
X59154387Y-83593401D01*
X59163078Y-83588192D01*
X59172238Y-83583859D01*
X59181778Y-83580446D01*
X59191607Y-83577984D01*
X59201630Y-83576497D01*
X59211750Y-83576000D01*
X59418250Y-83576000D01*
X59428370Y-83576497D01*
X59428370Y-83576497D01*
G37*
D12*
X59315000Y-83800000D03*
G04 #@! TD*
D11*
G04 #@! TO.C,R9*
G36*
X55330871Y-74878997D02*
G01*
X55340894Y-74880484D01*
X55350723Y-74882946D01*
X55360263Y-74886359D01*
X55369423Y-74890692D01*
X55378114Y-74895901D01*
X55386252Y-74901937D01*
X55393760Y-74908741D01*
X55400564Y-74916249D01*
X55406600Y-74924387D01*
X55411809Y-74933078D01*
X55416142Y-74942238D01*
X55419555Y-74951778D01*
X55422017Y-74961607D01*
X55423504Y-74971630D01*
X55424001Y-74981750D01*
X55424001Y-75188250D01*
X55423504Y-75198370D01*
X55422017Y-75208393D01*
X55419555Y-75218222D01*
X55416142Y-75227762D01*
X55411809Y-75236922D01*
X55406600Y-75245613D01*
X55400564Y-75253751D01*
X55393760Y-75261259D01*
X55386252Y-75268063D01*
X55378114Y-75274099D01*
X55369423Y-75279308D01*
X55360263Y-75283641D01*
X55350723Y-75287054D01*
X55340894Y-75289516D01*
X55330871Y-75291003D01*
X55320751Y-75291500D01*
X55079251Y-75291500D01*
X55069131Y-75291003D01*
X55059108Y-75289516D01*
X55049279Y-75287054D01*
X55039739Y-75283641D01*
X55030579Y-75279308D01*
X55021888Y-75274099D01*
X55013750Y-75268063D01*
X55006242Y-75261259D01*
X54999438Y-75253751D01*
X54993402Y-75245613D01*
X54988193Y-75236922D01*
X54983860Y-75227762D01*
X54980447Y-75218222D01*
X54977985Y-75208393D01*
X54976498Y-75198370D01*
X54976001Y-75188250D01*
X54976001Y-74981750D01*
X54976498Y-74971630D01*
X54977985Y-74961607D01*
X54980447Y-74951778D01*
X54983860Y-74942238D01*
X54988193Y-74933078D01*
X54993402Y-74924387D01*
X54999438Y-74916249D01*
X55006242Y-74908741D01*
X55013750Y-74901937D01*
X55021888Y-74895901D01*
X55030579Y-74890692D01*
X55039739Y-74886359D01*
X55049279Y-74882946D01*
X55059108Y-74880484D01*
X55069131Y-74878997D01*
X55079251Y-74878500D01*
X55320751Y-74878500D01*
X55330871Y-74878997D01*
X55330871Y-74878997D01*
G37*
D12*
X55200001Y-75085000D03*
D11*
G36*
X55330871Y-73908997D02*
G01*
X55340894Y-73910484D01*
X55350723Y-73912946D01*
X55360263Y-73916359D01*
X55369423Y-73920692D01*
X55378114Y-73925901D01*
X55386252Y-73931937D01*
X55393760Y-73938741D01*
X55400564Y-73946249D01*
X55406600Y-73954387D01*
X55411809Y-73963078D01*
X55416142Y-73972238D01*
X55419555Y-73981778D01*
X55422017Y-73991607D01*
X55423504Y-74001630D01*
X55424001Y-74011750D01*
X55424001Y-74218250D01*
X55423504Y-74228370D01*
X55422017Y-74238393D01*
X55419555Y-74248222D01*
X55416142Y-74257762D01*
X55411809Y-74266922D01*
X55406600Y-74275613D01*
X55400564Y-74283751D01*
X55393760Y-74291259D01*
X55386252Y-74298063D01*
X55378114Y-74304099D01*
X55369423Y-74309308D01*
X55360263Y-74313641D01*
X55350723Y-74317054D01*
X55340894Y-74319516D01*
X55330871Y-74321003D01*
X55320751Y-74321500D01*
X55079251Y-74321500D01*
X55069131Y-74321003D01*
X55059108Y-74319516D01*
X55049279Y-74317054D01*
X55039739Y-74313641D01*
X55030579Y-74309308D01*
X55021888Y-74304099D01*
X55013750Y-74298063D01*
X55006242Y-74291259D01*
X54999438Y-74283751D01*
X54993402Y-74275613D01*
X54988193Y-74266922D01*
X54983860Y-74257762D01*
X54980447Y-74248222D01*
X54977985Y-74238393D01*
X54976498Y-74228370D01*
X54976001Y-74218250D01*
X54976001Y-74011750D01*
X54976498Y-74001630D01*
X54977985Y-73991607D01*
X54980447Y-73981778D01*
X54983860Y-73972238D01*
X54988193Y-73963078D01*
X54993402Y-73954387D01*
X54999438Y-73946249D01*
X55006242Y-73938741D01*
X55013750Y-73931937D01*
X55021888Y-73925901D01*
X55030579Y-73920692D01*
X55039739Y-73916359D01*
X55049279Y-73912946D01*
X55059108Y-73910484D01*
X55069131Y-73908997D01*
X55079251Y-73908500D01*
X55320751Y-73908500D01*
X55330871Y-73908997D01*
X55330871Y-73908997D01*
G37*
D12*
X55200001Y-74115000D03*
G04 #@! TD*
D11*
G04 #@! TO.C,R7*
G36*
X58528370Y-55976497D02*
G01*
X58538393Y-55977984D01*
X58548222Y-55980446D01*
X58557762Y-55983859D01*
X58566922Y-55988192D01*
X58575613Y-55993401D01*
X58583751Y-55999437D01*
X58591259Y-56006241D01*
X58598063Y-56013749D01*
X58604099Y-56021887D01*
X58609308Y-56030578D01*
X58613641Y-56039738D01*
X58617054Y-56049278D01*
X58619516Y-56059107D01*
X58621003Y-56069130D01*
X58621500Y-56079250D01*
X58621500Y-56320750D01*
X58621003Y-56330870D01*
X58619516Y-56340893D01*
X58617054Y-56350722D01*
X58613641Y-56360262D01*
X58609308Y-56369422D01*
X58604099Y-56378113D01*
X58598063Y-56386251D01*
X58591259Y-56393759D01*
X58583751Y-56400563D01*
X58575613Y-56406599D01*
X58566922Y-56411808D01*
X58557762Y-56416141D01*
X58548222Y-56419554D01*
X58538393Y-56422016D01*
X58528370Y-56423503D01*
X58518250Y-56424000D01*
X58311750Y-56424000D01*
X58301630Y-56423503D01*
X58291607Y-56422016D01*
X58281778Y-56419554D01*
X58272238Y-56416141D01*
X58263078Y-56411808D01*
X58254387Y-56406599D01*
X58246249Y-56400563D01*
X58238741Y-56393759D01*
X58231937Y-56386251D01*
X58225901Y-56378113D01*
X58220692Y-56369422D01*
X58216359Y-56360262D01*
X58212946Y-56350722D01*
X58210484Y-56340893D01*
X58208997Y-56330870D01*
X58208500Y-56320750D01*
X58208500Y-56079250D01*
X58208997Y-56069130D01*
X58210484Y-56059107D01*
X58212946Y-56049278D01*
X58216359Y-56039738D01*
X58220692Y-56030578D01*
X58225901Y-56021887D01*
X58231937Y-56013749D01*
X58238741Y-56006241D01*
X58246249Y-55999437D01*
X58254387Y-55993401D01*
X58263078Y-55988192D01*
X58272238Y-55983859D01*
X58281778Y-55980446D01*
X58291607Y-55977984D01*
X58301630Y-55976497D01*
X58311750Y-55976000D01*
X58518250Y-55976000D01*
X58528370Y-55976497D01*
X58528370Y-55976497D01*
G37*
D12*
X58415000Y-56200000D03*
D11*
G36*
X59498370Y-55976497D02*
G01*
X59508393Y-55977984D01*
X59518222Y-55980446D01*
X59527762Y-55983859D01*
X59536922Y-55988192D01*
X59545613Y-55993401D01*
X59553751Y-55999437D01*
X59561259Y-56006241D01*
X59568063Y-56013749D01*
X59574099Y-56021887D01*
X59579308Y-56030578D01*
X59583641Y-56039738D01*
X59587054Y-56049278D01*
X59589516Y-56059107D01*
X59591003Y-56069130D01*
X59591500Y-56079250D01*
X59591500Y-56320750D01*
X59591003Y-56330870D01*
X59589516Y-56340893D01*
X59587054Y-56350722D01*
X59583641Y-56360262D01*
X59579308Y-56369422D01*
X59574099Y-56378113D01*
X59568063Y-56386251D01*
X59561259Y-56393759D01*
X59553751Y-56400563D01*
X59545613Y-56406599D01*
X59536922Y-56411808D01*
X59527762Y-56416141D01*
X59518222Y-56419554D01*
X59508393Y-56422016D01*
X59498370Y-56423503D01*
X59488250Y-56424000D01*
X59281750Y-56424000D01*
X59271630Y-56423503D01*
X59261607Y-56422016D01*
X59251778Y-56419554D01*
X59242238Y-56416141D01*
X59233078Y-56411808D01*
X59224387Y-56406599D01*
X59216249Y-56400563D01*
X59208741Y-56393759D01*
X59201937Y-56386251D01*
X59195901Y-56378113D01*
X59190692Y-56369422D01*
X59186359Y-56360262D01*
X59182946Y-56350722D01*
X59180484Y-56340893D01*
X59178997Y-56330870D01*
X59178500Y-56320750D01*
X59178500Y-56079250D01*
X59178997Y-56069130D01*
X59180484Y-56059107D01*
X59182946Y-56049278D01*
X59186359Y-56039738D01*
X59190692Y-56030578D01*
X59195901Y-56021887D01*
X59201937Y-56013749D01*
X59208741Y-56006241D01*
X59216249Y-55999437D01*
X59224387Y-55993401D01*
X59233078Y-55988192D01*
X59242238Y-55983859D01*
X59251778Y-55980446D01*
X59261607Y-55977984D01*
X59271630Y-55976497D01*
X59281750Y-55976000D01*
X59488250Y-55976000D01*
X59498370Y-55976497D01*
X59498370Y-55976497D01*
G37*
D12*
X59385000Y-56200000D03*
G04 #@! TD*
D11*
G04 #@! TO.C,R6*
G36*
X63730870Y-64708997D02*
G01*
X63740893Y-64710484D01*
X63750722Y-64712946D01*
X63760262Y-64716359D01*
X63769422Y-64720692D01*
X63778113Y-64725901D01*
X63786251Y-64731937D01*
X63793759Y-64738741D01*
X63800563Y-64746249D01*
X63806599Y-64754387D01*
X63811808Y-64763078D01*
X63816141Y-64772238D01*
X63819554Y-64781778D01*
X63822016Y-64791607D01*
X63823503Y-64801630D01*
X63824000Y-64811750D01*
X63824000Y-65018250D01*
X63823503Y-65028370D01*
X63822016Y-65038393D01*
X63819554Y-65048222D01*
X63816141Y-65057762D01*
X63811808Y-65066922D01*
X63806599Y-65075613D01*
X63800563Y-65083751D01*
X63793759Y-65091259D01*
X63786251Y-65098063D01*
X63778113Y-65104099D01*
X63769422Y-65109308D01*
X63760262Y-65113641D01*
X63750722Y-65117054D01*
X63740893Y-65119516D01*
X63730870Y-65121003D01*
X63720750Y-65121500D01*
X63479250Y-65121500D01*
X63469130Y-65121003D01*
X63459107Y-65119516D01*
X63449278Y-65117054D01*
X63439738Y-65113641D01*
X63430578Y-65109308D01*
X63421887Y-65104099D01*
X63413749Y-65098063D01*
X63406241Y-65091259D01*
X63399437Y-65083751D01*
X63393401Y-65075613D01*
X63388192Y-65066922D01*
X63383859Y-65057762D01*
X63380446Y-65048222D01*
X63377984Y-65038393D01*
X63376497Y-65028370D01*
X63376000Y-65018250D01*
X63376000Y-64811750D01*
X63376497Y-64801630D01*
X63377984Y-64791607D01*
X63380446Y-64781778D01*
X63383859Y-64772238D01*
X63388192Y-64763078D01*
X63393401Y-64754387D01*
X63399437Y-64746249D01*
X63406241Y-64738741D01*
X63413749Y-64731937D01*
X63421887Y-64725901D01*
X63430578Y-64720692D01*
X63439738Y-64716359D01*
X63449278Y-64712946D01*
X63459107Y-64710484D01*
X63469130Y-64708997D01*
X63479250Y-64708500D01*
X63720750Y-64708500D01*
X63730870Y-64708997D01*
X63730870Y-64708997D01*
G37*
D12*
X63600000Y-64915000D03*
D11*
G36*
X63730870Y-65678997D02*
G01*
X63740893Y-65680484D01*
X63750722Y-65682946D01*
X63760262Y-65686359D01*
X63769422Y-65690692D01*
X63778113Y-65695901D01*
X63786251Y-65701937D01*
X63793759Y-65708741D01*
X63800563Y-65716249D01*
X63806599Y-65724387D01*
X63811808Y-65733078D01*
X63816141Y-65742238D01*
X63819554Y-65751778D01*
X63822016Y-65761607D01*
X63823503Y-65771630D01*
X63824000Y-65781750D01*
X63824000Y-65988250D01*
X63823503Y-65998370D01*
X63822016Y-66008393D01*
X63819554Y-66018222D01*
X63816141Y-66027762D01*
X63811808Y-66036922D01*
X63806599Y-66045613D01*
X63800563Y-66053751D01*
X63793759Y-66061259D01*
X63786251Y-66068063D01*
X63778113Y-66074099D01*
X63769422Y-66079308D01*
X63760262Y-66083641D01*
X63750722Y-66087054D01*
X63740893Y-66089516D01*
X63730870Y-66091003D01*
X63720750Y-66091500D01*
X63479250Y-66091500D01*
X63469130Y-66091003D01*
X63459107Y-66089516D01*
X63449278Y-66087054D01*
X63439738Y-66083641D01*
X63430578Y-66079308D01*
X63421887Y-66074099D01*
X63413749Y-66068063D01*
X63406241Y-66061259D01*
X63399437Y-66053751D01*
X63393401Y-66045613D01*
X63388192Y-66036922D01*
X63383859Y-66027762D01*
X63380446Y-66018222D01*
X63377984Y-66008393D01*
X63376497Y-65998370D01*
X63376000Y-65988250D01*
X63376000Y-65781750D01*
X63376497Y-65771630D01*
X63377984Y-65761607D01*
X63380446Y-65751778D01*
X63383859Y-65742238D01*
X63388192Y-65733078D01*
X63393401Y-65724387D01*
X63399437Y-65716249D01*
X63406241Y-65708741D01*
X63413749Y-65701937D01*
X63421887Y-65695901D01*
X63430578Y-65690692D01*
X63439738Y-65686359D01*
X63449278Y-65682946D01*
X63459107Y-65680484D01*
X63469130Y-65678997D01*
X63479250Y-65678500D01*
X63720750Y-65678500D01*
X63730870Y-65678997D01*
X63730870Y-65678997D01*
G37*
D12*
X63600000Y-65885000D03*
G04 #@! TD*
D11*
G04 #@! TO.C,C50*
G36*
X60398370Y-80576497D02*
G01*
X60408393Y-80577984D01*
X60418222Y-80580446D01*
X60427762Y-80583859D01*
X60436922Y-80588192D01*
X60445613Y-80593401D01*
X60453751Y-80599437D01*
X60461259Y-80606241D01*
X60468063Y-80613749D01*
X60474099Y-80621887D01*
X60479308Y-80630578D01*
X60483641Y-80639738D01*
X60487054Y-80649278D01*
X60489516Y-80659107D01*
X60491003Y-80669130D01*
X60491500Y-80679250D01*
X60491500Y-80920750D01*
X60491003Y-80930870D01*
X60489516Y-80940893D01*
X60487054Y-80950722D01*
X60483641Y-80960262D01*
X60479308Y-80969422D01*
X60474099Y-80978113D01*
X60468063Y-80986251D01*
X60461259Y-80993759D01*
X60453751Y-81000563D01*
X60445613Y-81006599D01*
X60436922Y-81011808D01*
X60427762Y-81016141D01*
X60418222Y-81019554D01*
X60408393Y-81022016D01*
X60398370Y-81023503D01*
X60388250Y-81024000D01*
X60181750Y-81024000D01*
X60171630Y-81023503D01*
X60161607Y-81022016D01*
X60151778Y-81019554D01*
X60142238Y-81016141D01*
X60133078Y-81011808D01*
X60124387Y-81006599D01*
X60116249Y-81000563D01*
X60108741Y-80993759D01*
X60101937Y-80986251D01*
X60095901Y-80978113D01*
X60090692Y-80969422D01*
X60086359Y-80960262D01*
X60082946Y-80950722D01*
X60080484Y-80940893D01*
X60078997Y-80930870D01*
X60078500Y-80920750D01*
X60078500Y-80679250D01*
X60078997Y-80669130D01*
X60080484Y-80659107D01*
X60082946Y-80649278D01*
X60086359Y-80639738D01*
X60090692Y-80630578D01*
X60095901Y-80621887D01*
X60101937Y-80613749D01*
X60108741Y-80606241D01*
X60116249Y-80599437D01*
X60124387Y-80593401D01*
X60133078Y-80588192D01*
X60142238Y-80583859D01*
X60151778Y-80580446D01*
X60161607Y-80577984D01*
X60171630Y-80576497D01*
X60181750Y-80576000D01*
X60388250Y-80576000D01*
X60398370Y-80576497D01*
X60398370Y-80576497D01*
G37*
D12*
X60285000Y-80800000D03*
D11*
G36*
X59428370Y-80576497D02*
G01*
X59438393Y-80577984D01*
X59448222Y-80580446D01*
X59457762Y-80583859D01*
X59466922Y-80588192D01*
X59475613Y-80593401D01*
X59483751Y-80599437D01*
X59491259Y-80606241D01*
X59498063Y-80613749D01*
X59504099Y-80621887D01*
X59509308Y-80630578D01*
X59513641Y-80639738D01*
X59517054Y-80649278D01*
X59519516Y-80659107D01*
X59521003Y-80669130D01*
X59521500Y-80679250D01*
X59521500Y-80920750D01*
X59521003Y-80930870D01*
X59519516Y-80940893D01*
X59517054Y-80950722D01*
X59513641Y-80960262D01*
X59509308Y-80969422D01*
X59504099Y-80978113D01*
X59498063Y-80986251D01*
X59491259Y-80993759D01*
X59483751Y-81000563D01*
X59475613Y-81006599D01*
X59466922Y-81011808D01*
X59457762Y-81016141D01*
X59448222Y-81019554D01*
X59438393Y-81022016D01*
X59428370Y-81023503D01*
X59418250Y-81024000D01*
X59211750Y-81024000D01*
X59201630Y-81023503D01*
X59191607Y-81022016D01*
X59181778Y-81019554D01*
X59172238Y-81016141D01*
X59163078Y-81011808D01*
X59154387Y-81006599D01*
X59146249Y-81000563D01*
X59138741Y-80993759D01*
X59131937Y-80986251D01*
X59125901Y-80978113D01*
X59120692Y-80969422D01*
X59116359Y-80960262D01*
X59112946Y-80950722D01*
X59110484Y-80940893D01*
X59108997Y-80930870D01*
X59108500Y-80920750D01*
X59108500Y-80679250D01*
X59108997Y-80669130D01*
X59110484Y-80659107D01*
X59112946Y-80649278D01*
X59116359Y-80639738D01*
X59120692Y-80630578D01*
X59125901Y-80621887D01*
X59131937Y-80613749D01*
X59138741Y-80606241D01*
X59146249Y-80599437D01*
X59154387Y-80593401D01*
X59163078Y-80588192D01*
X59172238Y-80583859D01*
X59181778Y-80580446D01*
X59191607Y-80577984D01*
X59201630Y-80576497D01*
X59211750Y-80576000D01*
X59418250Y-80576000D01*
X59428370Y-80576497D01*
X59428370Y-80576497D01*
G37*
D12*
X59315000Y-80800000D03*
G04 #@! TD*
D11*
G04 #@! TO.C,C49*
G36*
X58330870Y-72908997D02*
G01*
X58340893Y-72910484D01*
X58350722Y-72912946D01*
X58360262Y-72916359D01*
X58369422Y-72920692D01*
X58378113Y-72925901D01*
X58386251Y-72931937D01*
X58393759Y-72938741D01*
X58400563Y-72946249D01*
X58406599Y-72954387D01*
X58411808Y-72963078D01*
X58416141Y-72972238D01*
X58419554Y-72981778D01*
X58422016Y-72991607D01*
X58423503Y-73001630D01*
X58424000Y-73011750D01*
X58424000Y-73218250D01*
X58423503Y-73228370D01*
X58422016Y-73238393D01*
X58419554Y-73248222D01*
X58416141Y-73257762D01*
X58411808Y-73266922D01*
X58406599Y-73275613D01*
X58400563Y-73283751D01*
X58393759Y-73291259D01*
X58386251Y-73298063D01*
X58378113Y-73304099D01*
X58369422Y-73309308D01*
X58360262Y-73313641D01*
X58350722Y-73317054D01*
X58340893Y-73319516D01*
X58330870Y-73321003D01*
X58320750Y-73321500D01*
X58079250Y-73321500D01*
X58069130Y-73321003D01*
X58059107Y-73319516D01*
X58049278Y-73317054D01*
X58039738Y-73313641D01*
X58030578Y-73309308D01*
X58021887Y-73304099D01*
X58013749Y-73298063D01*
X58006241Y-73291259D01*
X57999437Y-73283751D01*
X57993401Y-73275613D01*
X57988192Y-73266922D01*
X57983859Y-73257762D01*
X57980446Y-73248222D01*
X57977984Y-73238393D01*
X57976497Y-73228370D01*
X57976000Y-73218250D01*
X57976000Y-73011750D01*
X57976497Y-73001630D01*
X57977984Y-72991607D01*
X57980446Y-72981778D01*
X57983859Y-72972238D01*
X57988192Y-72963078D01*
X57993401Y-72954387D01*
X57999437Y-72946249D01*
X58006241Y-72938741D01*
X58013749Y-72931937D01*
X58021887Y-72925901D01*
X58030578Y-72920692D01*
X58039738Y-72916359D01*
X58049278Y-72912946D01*
X58059107Y-72910484D01*
X58069130Y-72908997D01*
X58079250Y-72908500D01*
X58320750Y-72908500D01*
X58330870Y-72908997D01*
X58330870Y-72908997D01*
G37*
D12*
X58200000Y-73115000D03*
D11*
G36*
X58330870Y-73878997D02*
G01*
X58340893Y-73880484D01*
X58350722Y-73882946D01*
X58360262Y-73886359D01*
X58369422Y-73890692D01*
X58378113Y-73895901D01*
X58386251Y-73901937D01*
X58393759Y-73908741D01*
X58400563Y-73916249D01*
X58406599Y-73924387D01*
X58411808Y-73933078D01*
X58416141Y-73942238D01*
X58419554Y-73951778D01*
X58422016Y-73961607D01*
X58423503Y-73971630D01*
X58424000Y-73981750D01*
X58424000Y-74188250D01*
X58423503Y-74198370D01*
X58422016Y-74208393D01*
X58419554Y-74218222D01*
X58416141Y-74227762D01*
X58411808Y-74236922D01*
X58406599Y-74245613D01*
X58400563Y-74253751D01*
X58393759Y-74261259D01*
X58386251Y-74268063D01*
X58378113Y-74274099D01*
X58369422Y-74279308D01*
X58360262Y-74283641D01*
X58350722Y-74287054D01*
X58340893Y-74289516D01*
X58330870Y-74291003D01*
X58320750Y-74291500D01*
X58079250Y-74291500D01*
X58069130Y-74291003D01*
X58059107Y-74289516D01*
X58049278Y-74287054D01*
X58039738Y-74283641D01*
X58030578Y-74279308D01*
X58021887Y-74274099D01*
X58013749Y-74268063D01*
X58006241Y-74261259D01*
X57999437Y-74253751D01*
X57993401Y-74245613D01*
X57988192Y-74236922D01*
X57983859Y-74227762D01*
X57980446Y-74218222D01*
X57977984Y-74208393D01*
X57976497Y-74198370D01*
X57976000Y-74188250D01*
X57976000Y-73981750D01*
X57976497Y-73971630D01*
X57977984Y-73961607D01*
X57980446Y-73951778D01*
X57983859Y-73942238D01*
X57988192Y-73933078D01*
X57993401Y-73924387D01*
X57999437Y-73916249D01*
X58006241Y-73908741D01*
X58013749Y-73901937D01*
X58021887Y-73895901D01*
X58030578Y-73890692D01*
X58039738Y-73886359D01*
X58049278Y-73882946D01*
X58059107Y-73880484D01*
X58069130Y-73878997D01*
X58079250Y-73878500D01*
X58320750Y-73878500D01*
X58330870Y-73878997D01*
X58330870Y-73878997D01*
G37*
D12*
X58200000Y-74085000D03*
G04 #@! TD*
D11*
G04 #@! TO.C,C48*
G36*
X55398370Y-80376497D02*
G01*
X55408393Y-80377984D01*
X55418222Y-80380446D01*
X55427762Y-80383859D01*
X55436922Y-80388192D01*
X55445613Y-80393401D01*
X55453751Y-80399437D01*
X55461259Y-80406241D01*
X55468063Y-80413749D01*
X55474099Y-80421887D01*
X55479308Y-80430578D01*
X55483641Y-80439738D01*
X55487054Y-80449278D01*
X55489516Y-80459107D01*
X55491003Y-80469130D01*
X55491500Y-80479250D01*
X55491500Y-80720750D01*
X55491003Y-80730870D01*
X55489516Y-80740893D01*
X55487054Y-80750722D01*
X55483641Y-80760262D01*
X55479308Y-80769422D01*
X55474099Y-80778113D01*
X55468063Y-80786251D01*
X55461259Y-80793759D01*
X55453751Y-80800563D01*
X55445613Y-80806599D01*
X55436922Y-80811808D01*
X55427762Y-80816141D01*
X55418222Y-80819554D01*
X55408393Y-80822016D01*
X55398370Y-80823503D01*
X55388250Y-80824000D01*
X55181750Y-80824000D01*
X55171630Y-80823503D01*
X55161607Y-80822016D01*
X55151778Y-80819554D01*
X55142238Y-80816141D01*
X55133078Y-80811808D01*
X55124387Y-80806599D01*
X55116249Y-80800563D01*
X55108741Y-80793759D01*
X55101937Y-80786251D01*
X55095901Y-80778113D01*
X55090692Y-80769422D01*
X55086359Y-80760262D01*
X55082946Y-80750722D01*
X55080484Y-80740893D01*
X55078997Y-80730870D01*
X55078500Y-80720750D01*
X55078500Y-80479250D01*
X55078997Y-80469130D01*
X55080484Y-80459107D01*
X55082946Y-80449278D01*
X55086359Y-80439738D01*
X55090692Y-80430578D01*
X55095901Y-80421887D01*
X55101937Y-80413749D01*
X55108741Y-80406241D01*
X55116249Y-80399437D01*
X55124387Y-80393401D01*
X55133078Y-80388192D01*
X55142238Y-80383859D01*
X55151778Y-80380446D01*
X55161607Y-80377984D01*
X55171630Y-80376497D01*
X55181750Y-80376000D01*
X55388250Y-80376000D01*
X55398370Y-80376497D01*
X55398370Y-80376497D01*
G37*
D12*
X55285000Y-80600000D03*
D11*
G36*
X54428370Y-80376497D02*
G01*
X54438393Y-80377984D01*
X54448222Y-80380446D01*
X54457762Y-80383859D01*
X54466922Y-80388192D01*
X54475613Y-80393401D01*
X54483751Y-80399437D01*
X54491259Y-80406241D01*
X54498063Y-80413749D01*
X54504099Y-80421887D01*
X54509308Y-80430578D01*
X54513641Y-80439738D01*
X54517054Y-80449278D01*
X54519516Y-80459107D01*
X54521003Y-80469130D01*
X54521500Y-80479250D01*
X54521500Y-80720750D01*
X54521003Y-80730870D01*
X54519516Y-80740893D01*
X54517054Y-80750722D01*
X54513641Y-80760262D01*
X54509308Y-80769422D01*
X54504099Y-80778113D01*
X54498063Y-80786251D01*
X54491259Y-80793759D01*
X54483751Y-80800563D01*
X54475613Y-80806599D01*
X54466922Y-80811808D01*
X54457762Y-80816141D01*
X54448222Y-80819554D01*
X54438393Y-80822016D01*
X54428370Y-80823503D01*
X54418250Y-80824000D01*
X54211750Y-80824000D01*
X54201630Y-80823503D01*
X54191607Y-80822016D01*
X54181778Y-80819554D01*
X54172238Y-80816141D01*
X54163078Y-80811808D01*
X54154387Y-80806599D01*
X54146249Y-80800563D01*
X54138741Y-80793759D01*
X54131937Y-80786251D01*
X54125901Y-80778113D01*
X54120692Y-80769422D01*
X54116359Y-80760262D01*
X54112946Y-80750722D01*
X54110484Y-80740893D01*
X54108997Y-80730870D01*
X54108500Y-80720750D01*
X54108500Y-80479250D01*
X54108997Y-80469130D01*
X54110484Y-80459107D01*
X54112946Y-80449278D01*
X54116359Y-80439738D01*
X54120692Y-80430578D01*
X54125901Y-80421887D01*
X54131937Y-80413749D01*
X54138741Y-80406241D01*
X54146249Y-80399437D01*
X54154387Y-80393401D01*
X54163078Y-80388192D01*
X54172238Y-80383859D01*
X54181778Y-80380446D01*
X54191607Y-80377984D01*
X54201630Y-80376497D01*
X54211750Y-80376000D01*
X54418250Y-80376000D01*
X54428370Y-80376497D01*
X54428370Y-80376497D01*
G37*
D12*
X54315000Y-80600000D03*
G04 #@! TD*
D11*
G04 #@! TO.C,C47*
G36*
X54330870Y-73908997D02*
G01*
X54340893Y-73910484D01*
X54350722Y-73912946D01*
X54360262Y-73916359D01*
X54369422Y-73920692D01*
X54378113Y-73925901D01*
X54386251Y-73931937D01*
X54393759Y-73938741D01*
X54400563Y-73946249D01*
X54406599Y-73954387D01*
X54411808Y-73963078D01*
X54416141Y-73972238D01*
X54419554Y-73981778D01*
X54422016Y-73991607D01*
X54423503Y-74001630D01*
X54424000Y-74011750D01*
X54424000Y-74218250D01*
X54423503Y-74228370D01*
X54422016Y-74238393D01*
X54419554Y-74248222D01*
X54416141Y-74257762D01*
X54411808Y-74266922D01*
X54406599Y-74275613D01*
X54400563Y-74283751D01*
X54393759Y-74291259D01*
X54386251Y-74298063D01*
X54378113Y-74304099D01*
X54369422Y-74309308D01*
X54360262Y-74313641D01*
X54350722Y-74317054D01*
X54340893Y-74319516D01*
X54330870Y-74321003D01*
X54320750Y-74321500D01*
X54079250Y-74321500D01*
X54069130Y-74321003D01*
X54059107Y-74319516D01*
X54049278Y-74317054D01*
X54039738Y-74313641D01*
X54030578Y-74309308D01*
X54021887Y-74304099D01*
X54013749Y-74298063D01*
X54006241Y-74291259D01*
X53999437Y-74283751D01*
X53993401Y-74275613D01*
X53988192Y-74266922D01*
X53983859Y-74257762D01*
X53980446Y-74248222D01*
X53977984Y-74238393D01*
X53976497Y-74228370D01*
X53976000Y-74218250D01*
X53976000Y-74011750D01*
X53976497Y-74001630D01*
X53977984Y-73991607D01*
X53980446Y-73981778D01*
X53983859Y-73972238D01*
X53988192Y-73963078D01*
X53993401Y-73954387D01*
X53999437Y-73946249D01*
X54006241Y-73938741D01*
X54013749Y-73931937D01*
X54021887Y-73925901D01*
X54030578Y-73920692D01*
X54039738Y-73916359D01*
X54049278Y-73912946D01*
X54059107Y-73910484D01*
X54069130Y-73908997D01*
X54079250Y-73908500D01*
X54320750Y-73908500D01*
X54330870Y-73908997D01*
X54330870Y-73908997D01*
G37*
D12*
X54200000Y-74115000D03*
D11*
G36*
X54330870Y-74878997D02*
G01*
X54340893Y-74880484D01*
X54350722Y-74882946D01*
X54360262Y-74886359D01*
X54369422Y-74890692D01*
X54378113Y-74895901D01*
X54386251Y-74901937D01*
X54393759Y-74908741D01*
X54400563Y-74916249D01*
X54406599Y-74924387D01*
X54411808Y-74933078D01*
X54416141Y-74942238D01*
X54419554Y-74951778D01*
X54422016Y-74961607D01*
X54423503Y-74971630D01*
X54424000Y-74981750D01*
X54424000Y-75188250D01*
X54423503Y-75198370D01*
X54422016Y-75208393D01*
X54419554Y-75218222D01*
X54416141Y-75227762D01*
X54411808Y-75236922D01*
X54406599Y-75245613D01*
X54400563Y-75253751D01*
X54393759Y-75261259D01*
X54386251Y-75268063D01*
X54378113Y-75274099D01*
X54369422Y-75279308D01*
X54360262Y-75283641D01*
X54350722Y-75287054D01*
X54340893Y-75289516D01*
X54330870Y-75291003D01*
X54320750Y-75291500D01*
X54079250Y-75291500D01*
X54069130Y-75291003D01*
X54059107Y-75289516D01*
X54049278Y-75287054D01*
X54039738Y-75283641D01*
X54030578Y-75279308D01*
X54021887Y-75274099D01*
X54013749Y-75268063D01*
X54006241Y-75261259D01*
X53999437Y-75253751D01*
X53993401Y-75245613D01*
X53988192Y-75236922D01*
X53983859Y-75227762D01*
X53980446Y-75218222D01*
X53977984Y-75208393D01*
X53976497Y-75198370D01*
X53976000Y-75188250D01*
X53976000Y-74981750D01*
X53976497Y-74971630D01*
X53977984Y-74961607D01*
X53980446Y-74951778D01*
X53983859Y-74942238D01*
X53988192Y-74933078D01*
X53993401Y-74924387D01*
X53999437Y-74916249D01*
X54006241Y-74908741D01*
X54013749Y-74901937D01*
X54021887Y-74895901D01*
X54030578Y-74890692D01*
X54039738Y-74886359D01*
X54049278Y-74882946D01*
X54059107Y-74880484D01*
X54069130Y-74878997D01*
X54079250Y-74878500D01*
X54320750Y-74878500D01*
X54330870Y-74878997D01*
X54330870Y-74878997D01*
G37*
D12*
X54200000Y-75085000D03*
G04 #@! TD*
D11*
G04 #@! TO.C,C46*
G36*
X60224849Y-81810822D02*
G01*
X60241412Y-81813279D01*
X60257655Y-81817347D01*
X60273420Y-81822988D01*
X60288557Y-81830147D01*
X60302919Y-81838755D01*
X60316368Y-81848730D01*
X60328775Y-81859975D01*
X60340020Y-81872382D01*
X60349995Y-81885831D01*
X60358603Y-81900193D01*
X60365762Y-81915330D01*
X60371403Y-81931095D01*
X60375471Y-81947338D01*
X60377928Y-81963901D01*
X60378750Y-81980625D01*
X60378750Y-82619375D01*
X60377928Y-82636099D01*
X60375471Y-82652662D01*
X60371403Y-82668905D01*
X60365762Y-82684670D01*
X60358603Y-82699807D01*
X60349995Y-82714169D01*
X60340020Y-82727618D01*
X60328775Y-82740025D01*
X60316368Y-82751270D01*
X60302919Y-82761245D01*
X60288557Y-82769853D01*
X60273420Y-82777012D01*
X60257655Y-82782653D01*
X60241412Y-82786721D01*
X60224849Y-82789178D01*
X60208125Y-82790000D01*
X59866875Y-82790000D01*
X59850151Y-82789178D01*
X59833588Y-82786721D01*
X59817345Y-82782653D01*
X59801580Y-82777012D01*
X59786443Y-82769853D01*
X59772081Y-82761245D01*
X59758632Y-82751270D01*
X59746225Y-82740025D01*
X59734980Y-82727618D01*
X59725005Y-82714169D01*
X59716397Y-82699807D01*
X59709238Y-82684670D01*
X59703597Y-82668905D01*
X59699529Y-82652662D01*
X59697072Y-82636099D01*
X59696250Y-82619375D01*
X59696250Y-81980625D01*
X59697072Y-81963901D01*
X59699529Y-81947338D01*
X59703597Y-81931095D01*
X59709238Y-81915330D01*
X59716397Y-81900193D01*
X59725005Y-81885831D01*
X59734980Y-81872382D01*
X59746225Y-81859975D01*
X59758632Y-81848730D01*
X59772081Y-81838755D01*
X59786443Y-81830147D01*
X59801580Y-81822988D01*
X59817345Y-81817347D01*
X59833588Y-81813279D01*
X59850151Y-81810822D01*
X59866875Y-81810000D01*
X60208125Y-81810000D01*
X60224849Y-81810822D01*
X60224849Y-81810822D01*
G37*
D13*
X60037500Y-82300000D03*
D11*
G36*
X58349849Y-81810822D02*
G01*
X58366412Y-81813279D01*
X58382655Y-81817347D01*
X58398420Y-81822988D01*
X58413557Y-81830147D01*
X58427919Y-81838755D01*
X58441368Y-81848730D01*
X58453775Y-81859975D01*
X58465020Y-81872382D01*
X58474995Y-81885831D01*
X58483603Y-81900193D01*
X58490762Y-81915330D01*
X58496403Y-81931095D01*
X58500471Y-81947338D01*
X58502928Y-81963901D01*
X58503750Y-81980625D01*
X58503750Y-82619375D01*
X58502928Y-82636099D01*
X58500471Y-82652662D01*
X58496403Y-82668905D01*
X58490762Y-82684670D01*
X58483603Y-82699807D01*
X58474995Y-82714169D01*
X58465020Y-82727618D01*
X58453775Y-82740025D01*
X58441368Y-82751270D01*
X58427919Y-82761245D01*
X58413557Y-82769853D01*
X58398420Y-82777012D01*
X58382655Y-82782653D01*
X58366412Y-82786721D01*
X58349849Y-82789178D01*
X58333125Y-82790000D01*
X57991875Y-82790000D01*
X57975151Y-82789178D01*
X57958588Y-82786721D01*
X57942345Y-82782653D01*
X57926580Y-82777012D01*
X57911443Y-82769853D01*
X57897081Y-82761245D01*
X57883632Y-82751270D01*
X57871225Y-82740025D01*
X57859980Y-82727618D01*
X57850005Y-82714169D01*
X57841397Y-82699807D01*
X57834238Y-82684670D01*
X57828597Y-82668905D01*
X57824529Y-82652662D01*
X57822072Y-82636099D01*
X57821250Y-82619375D01*
X57821250Y-81980625D01*
X57822072Y-81963901D01*
X57824529Y-81947338D01*
X57828597Y-81931095D01*
X57834238Y-81915330D01*
X57841397Y-81900193D01*
X57850005Y-81885831D01*
X57859980Y-81872382D01*
X57871225Y-81859975D01*
X57883632Y-81848730D01*
X57897081Y-81838755D01*
X57911443Y-81830147D01*
X57926580Y-81822988D01*
X57942345Y-81817347D01*
X57958588Y-81813279D01*
X57975151Y-81810822D01*
X57991875Y-81810000D01*
X58333125Y-81810000D01*
X58349849Y-81810822D01*
X58349849Y-81810822D01*
G37*
D13*
X58162500Y-82300000D03*
G04 #@! TD*
D11*
G04 #@! TO.C,C45*
G36*
X57036099Y-72322072D02*
G01*
X57052662Y-72324529D01*
X57068905Y-72328597D01*
X57084670Y-72334238D01*
X57099807Y-72341397D01*
X57114169Y-72350005D01*
X57127618Y-72359980D01*
X57140025Y-72371225D01*
X57151270Y-72383632D01*
X57161245Y-72397081D01*
X57169853Y-72411443D01*
X57177012Y-72426580D01*
X57182653Y-72442345D01*
X57186721Y-72458588D01*
X57189178Y-72475151D01*
X57190000Y-72491875D01*
X57190000Y-72833125D01*
X57189178Y-72849849D01*
X57186721Y-72866412D01*
X57182653Y-72882655D01*
X57177012Y-72898420D01*
X57169853Y-72913557D01*
X57161245Y-72927919D01*
X57151270Y-72941368D01*
X57140025Y-72953775D01*
X57127618Y-72965020D01*
X57114169Y-72974995D01*
X57099807Y-72983603D01*
X57084670Y-72990762D01*
X57068905Y-72996403D01*
X57052662Y-73000471D01*
X57036099Y-73002928D01*
X57019375Y-73003750D01*
X56380625Y-73003750D01*
X56363901Y-73002928D01*
X56347338Y-73000471D01*
X56331095Y-72996403D01*
X56315330Y-72990762D01*
X56300193Y-72983603D01*
X56285831Y-72974995D01*
X56272382Y-72965020D01*
X56259975Y-72953775D01*
X56248730Y-72941368D01*
X56238755Y-72927919D01*
X56230147Y-72913557D01*
X56222988Y-72898420D01*
X56217347Y-72882655D01*
X56213279Y-72866412D01*
X56210822Y-72849849D01*
X56210000Y-72833125D01*
X56210000Y-72491875D01*
X56210822Y-72475151D01*
X56213279Y-72458588D01*
X56217347Y-72442345D01*
X56222988Y-72426580D01*
X56230147Y-72411443D01*
X56238755Y-72397081D01*
X56248730Y-72383632D01*
X56259975Y-72371225D01*
X56272382Y-72359980D01*
X56285831Y-72350005D01*
X56300193Y-72341397D01*
X56315330Y-72334238D01*
X56331095Y-72328597D01*
X56347338Y-72324529D01*
X56363901Y-72322072D01*
X56380625Y-72321250D01*
X57019375Y-72321250D01*
X57036099Y-72322072D01*
X57036099Y-72322072D01*
G37*
D13*
X56700000Y-72662500D03*
D11*
G36*
X57036099Y-74197072D02*
G01*
X57052662Y-74199529D01*
X57068905Y-74203597D01*
X57084670Y-74209238D01*
X57099807Y-74216397D01*
X57114169Y-74225005D01*
X57127618Y-74234980D01*
X57140025Y-74246225D01*
X57151270Y-74258632D01*
X57161245Y-74272081D01*
X57169853Y-74286443D01*
X57177012Y-74301580D01*
X57182653Y-74317345D01*
X57186721Y-74333588D01*
X57189178Y-74350151D01*
X57190000Y-74366875D01*
X57190000Y-74708125D01*
X57189178Y-74724849D01*
X57186721Y-74741412D01*
X57182653Y-74757655D01*
X57177012Y-74773420D01*
X57169853Y-74788557D01*
X57161245Y-74802919D01*
X57151270Y-74816368D01*
X57140025Y-74828775D01*
X57127618Y-74840020D01*
X57114169Y-74849995D01*
X57099807Y-74858603D01*
X57084670Y-74865762D01*
X57068905Y-74871403D01*
X57052662Y-74875471D01*
X57036099Y-74877928D01*
X57019375Y-74878750D01*
X56380625Y-74878750D01*
X56363901Y-74877928D01*
X56347338Y-74875471D01*
X56331095Y-74871403D01*
X56315330Y-74865762D01*
X56300193Y-74858603D01*
X56285831Y-74849995D01*
X56272382Y-74840020D01*
X56259975Y-74828775D01*
X56248730Y-74816368D01*
X56238755Y-74802919D01*
X56230147Y-74788557D01*
X56222988Y-74773420D01*
X56217347Y-74757655D01*
X56213279Y-74741412D01*
X56210822Y-74724849D01*
X56210000Y-74708125D01*
X56210000Y-74366875D01*
X56210822Y-74350151D01*
X56213279Y-74333588D01*
X56217347Y-74317345D01*
X56222988Y-74301580D01*
X56230147Y-74286443D01*
X56238755Y-74272081D01*
X56248730Y-74258632D01*
X56259975Y-74246225D01*
X56272382Y-74234980D01*
X56285831Y-74225005D01*
X56300193Y-74216397D01*
X56315330Y-74209238D01*
X56331095Y-74203597D01*
X56347338Y-74199529D01*
X56363901Y-74197072D01*
X56380625Y-74196250D01*
X57019375Y-74196250D01*
X57036099Y-74197072D01*
X57036099Y-74197072D01*
G37*
D13*
X56700000Y-74537500D03*
G04 #@! TD*
D11*
G04 #@! TO.C,C42*
G36*
X62028370Y-77576497D02*
G01*
X62038393Y-77577984D01*
X62048222Y-77580446D01*
X62057762Y-77583859D01*
X62066922Y-77588192D01*
X62075613Y-77593401D01*
X62083751Y-77599437D01*
X62091259Y-77606241D01*
X62098063Y-77613749D01*
X62104099Y-77621887D01*
X62109308Y-77630578D01*
X62113641Y-77639738D01*
X62117054Y-77649278D01*
X62119516Y-77659107D01*
X62121003Y-77669130D01*
X62121500Y-77679250D01*
X62121500Y-77920750D01*
X62121003Y-77930870D01*
X62119516Y-77940893D01*
X62117054Y-77950722D01*
X62113641Y-77960262D01*
X62109308Y-77969422D01*
X62104099Y-77978113D01*
X62098063Y-77986251D01*
X62091259Y-77993759D01*
X62083751Y-78000563D01*
X62075613Y-78006599D01*
X62066922Y-78011808D01*
X62057762Y-78016141D01*
X62048222Y-78019554D01*
X62038393Y-78022016D01*
X62028370Y-78023503D01*
X62018250Y-78024000D01*
X61811750Y-78024000D01*
X61801630Y-78023503D01*
X61791607Y-78022016D01*
X61781778Y-78019554D01*
X61772238Y-78016141D01*
X61763078Y-78011808D01*
X61754387Y-78006599D01*
X61746249Y-78000563D01*
X61738741Y-77993759D01*
X61731937Y-77986251D01*
X61725901Y-77978113D01*
X61720692Y-77969422D01*
X61716359Y-77960262D01*
X61712946Y-77950722D01*
X61710484Y-77940893D01*
X61708997Y-77930870D01*
X61708500Y-77920750D01*
X61708500Y-77679250D01*
X61708997Y-77669130D01*
X61710484Y-77659107D01*
X61712946Y-77649278D01*
X61716359Y-77639738D01*
X61720692Y-77630578D01*
X61725901Y-77621887D01*
X61731937Y-77613749D01*
X61738741Y-77606241D01*
X61746249Y-77599437D01*
X61754387Y-77593401D01*
X61763078Y-77588192D01*
X61772238Y-77583859D01*
X61781778Y-77580446D01*
X61791607Y-77577984D01*
X61801630Y-77576497D01*
X61811750Y-77576000D01*
X62018250Y-77576000D01*
X62028370Y-77576497D01*
X62028370Y-77576497D01*
G37*
D12*
X61915000Y-77800000D03*
D11*
G36*
X62998370Y-77576497D02*
G01*
X63008393Y-77577984D01*
X63018222Y-77580446D01*
X63027762Y-77583859D01*
X63036922Y-77588192D01*
X63045613Y-77593401D01*
X63053751Y-77599437D01*
X63061259Y-77606241D01*
X63068063Y-77613749D01*
X63074099Y-77621887D01*
X63079308Y-77630578D01*
X63083641Y-77639738D01*
X63087054Y-77649278D01*
X63089516Y-77659107D01*
X63091003Y-77669130D01*
X63091500Y-77679250D01*
X63091500Y-77920750D01*
X63091003Y-77930870D01*
X63089516Y-77940893D01*
X63087054Y-77950722D01*
X63083641Y-77960262D01*
X63079308Y-77969422D01*
X63074099Y-77978113D01*
X63068063Y-77986251D01*
X63061259Y-77993759D01*
X63053751Y-78000563D01*
X63045613Y-78006599D01*
X63036922Y-78011808D01*
X63027762Y-78016141D01*
X63018222Y-78019554D01*
X63008393Y-78022016D01*
X62998370Y-78023503D01*
X62988250Y-78024000D01*
X62781750Y-78024000D01*
X62771630Y-78023503D01*
X62761607Y-78022016D01*
X62751778Y-78019554D01*
X62742238Y-78016141D01*
X62733078Y-78011808D01*
X62724387Y-78006599D01*
X62716249Y-78000563D01*
X62708741Y-77993759D01*
X62701937Y-77986251D01*
X62695901Y-77978113D01*
X62690692Y-77969422D01*
X62686359Y-77960262D01*
X62682946Y-77950722D01*
X62680484Y-77940893D01*
X62678997Y-77930870D01*
X62678500Y-77920750D01*
X62678500Y-77679250D01*
X62678997Y-77669130D01*
X62680484Y-77659107D01*
X62682946Y-77649278D01*
X62686359Y-77639738D01*
X62690692Y-77630578D01*
X62695901Y-77621887D01*
X62701937Y-77613749D01*
X62708741Y-77606241D01*
X62716249Y-77599437D01*
X62724387Y-77593401D01*
X62733078Y-77588192D01*
X62742238Y-77583859D01*
X62751778Y-77580446D01*
X62761607Y-77577984D01*
X62771630Y-77576497D01*
X62781750Y-77576000D01*
X62988250Y-77576000D01*
X62998370Y-77576497D01*
X62998370Y-77576497D01*
G37*
D12*
X62885000Y-77800000D03*
G04 #@! TD*
D11*
G04 #@! TO.C,C41*
G36*
X62028370Y-74376497D02*
G01*
X62038393Y-74377984D01*
X62048222Y-74380446D01*
X62057762Y-74383859D01*
X62066922Y-74388192D01*
X62075613Y-74393401D01*
X62083751Y-74399437D01*
X62091259Y-74406241D01*
X62098063Y-74413749D01*
X62104099Y-74421887D01*
X62109308Y-74430578D01*
X62113641Y-74439738D01*
X62117054Y-74449278D01*
X62119516Y-74459107D01*
X62121003Y-74469130D01*
X62121500Y-74479250D01*
X62121500Y-74720750D01*
X62121003Y-74730870D01*
X62119516Y-74740893D01*
X62117054Y-74750722D01*
X62113641Y-74760262D01*
X62109308Y-74769422D01*
X62104099Y-74778113D01*
X62098063Y-74786251D01*
X62091259Y-74793759D01*
X62083751Y-74800563D01*
X62075613Y-74806599D01*
X62066922Y-74811808D01*
X62057762Y-74816141D01*
X62048222Y-74819554D01*
X62038393Y-74822016D01*
X62028370Y-74823503D01*
X62018250Y-74824000D01*
X61811750Y-74824000D01*
X61801630Y-74823503D01*
X61791607Y-74822016D01*
X61781778Y-74819554D01*
X61772238Y-74816141D01*
X61763078Y-74811808D01*
X61754387Y-74806599D01*
X61746249Y-74800563D01*
X61738741Y-74793759D01*
X61731937Y-74786251D01*
X61725901Y-74778113D01*
X61720692Y-74769422D01*
X61716359Y-74760262D01*
X61712946Y-74750722D01*
X61710484Y-74740893D01*
X61708997Y-74730870D01*
X61708500Y-74720750D01*
X61708500Y-74479250D01*
X61708997Y-74469130D01*
X61710484Y-74459107D01*
X61712946Y-74449278D01*
X61716359Y-74439738D01*
X61720692Y-74430578D01*
X61725901Y-74421887D01*
X61731937Y-74413749D01*
X61738741Y-74406241D01*
X61746249Y-74399437D01*
X61754387Y-74393401D01*
X61763078Y-74388192D01*
X61772238Y-74383859D01*
X61781778Y-74380446D01*
X61791607Y-74377984D01*
X61801630Y-74376497D01*
X61811750Y-74376000D01*
X62018250Y-74376000D01*
X62028370Y-74376497D01*
X62028370Y-74376497D01*
G37*
D12*
X61915000Y-74600000D03*
D11*
G36*
X62998370Y-74376497D02*
G01*
X63008393Y-74377984D01*
X63018222Y-74380446D01*
X63027762Y-74383859D01*
X63036922Y-74388192D01*
X63045613Y-74393401D01*
X63053751Y-74399437D01*
X63061259Y-74406241D01*
X63068063Y-74413749D01*
X63074099Y-74421887D01*
X63079308Y-74430578D01*
X63083641Y-74439738D01*
X63087054Y-74449278D01*
X63089516Y-74459107D01*
X63091003Y-74469130D01*
X63091500Y-74479250D01*
X63091500Y-74720750D01*
X63091003Y-74730870D01*
X63089516Y-74740893D01*
X63087054Y-74750722D01*
X63083641Y-74760262D01*
X63079308Y-74769422D01*
X63074099Y-74778113D01*
X63068063Y-74786251D01*
X63061259Y-74793759D01*
X63053751Y-74800563D01*
X63045613Y-74806599D01*
X63036922Y-74811808D01*
X63027762Y-74816141D01*
X63018222Y-74819554D01*
X63008393Y-74822016D01*
X62998370Y-74823503D01*
X62988250Y-74824000D01*
X62781750Y-74824000D01*
X62771630Y-74823503D01*
X62761607Y-74822016D01*
X62751778Y-74819554D01*
X62742238Y-74816141D01*
X62733078Y-74811808D01*
X62724387Y-74806599D01*
X62716249Y-74800563D01*
X62708741Y-74793759D01*
X62701937Y-74786251D01*
X62695901Y-74778113D01*
X62690692Y-74769422D01*
X62686359Y-74760262D01*
X62682946Y-74750722D01*
X62680484Y-74740893D01*
X62678997Y-74730870D01*
X62678500Y-74720750D01*
X62678500Y-74479250D01*
X62678997Y-74469130D01*
X62680484Y-74459107D01*
X62682946Y-74449278D01*
X62686359Y-74439738D01*
X62690692Y-74430578D01*
X62695901Y-74421887D01*
X62701937Y-74413749D01*
X62708741Y-74406241D01*
X62716249Y-74399437D01*
X62724387Y-74393401D01*
X62733078Y-74388192D01*
X62742238Y-74383859D01*
X62751778Y-74380446D01*
X62761607Y-74377984D01*
X62771630Y-74376497D01*
X62781750Y-74376000D01*
X62988250Y-74376000D01*
X62998370Y-74376497D01*
X62998370Y-74376497D01*
G37*
D12*
X62885000Y-74600000D03*
G04 #@! TD*
D11*
G04 #@! TO.C,C40*
G36*
X56798370Y-77576497D02*
G01*
X56808393Y-77577984D01*
X56818222Y-77580446D01*
X56827762Y-77583859D01*
X56836922Y-77588192D01*
X56845613Y-77593401D01*
X56853751Y-77599437D01*
X56861259Y-77606241D01*
X56868063Y-77613749D01*
X56874099Y-77621887D01*
X56879308Y-77630578D01*
X56883641Y-77639738D01*
X56887054Y-77649278D01*
X56889516Y-77659107D01*
X56891003Y-77669130D01*
X56891500Y-77679250D01*
X56891500Y-77920750D01*
X56891003Y-77930870D01*
X56889516Y-77940893D01*
X56887054Y-77950722D01*
X56883641Y-77960262D01*
X56879308Y-77969422D01*
X56874099Y-77978113D01*
X56868063Y-77986251D01*
X56861259Y-77993759D01*
X56853751Y-78000563D01*
X56845613Y-78006599D01*
X56836922Y-78011808D01*
X56827762Y-78016141D01*
X56818222Y-78019554D01*
X56808393Y-78022016D01*
X56798370Y-78023503D01*
X56788250Y-78024000D01*
X56581750Y-78024000D01*
X56571630Y-78023503D01*
X56561607Y-78022016D01*
X56551778Y-78019554D01*
X56542238Y-78016141D01*
X56533078Y-78011808D01*
X56524387Y-78006599D01*
X56516249Y-78000563D01*
X56508741Y-77993759D01*
X56501937Y-77986251D01*
X56495901Y-77978113D01*
X56490692Y-77969422D01*
X56486359Y-77960262D01*
X56482946Y-77950722D01*
X56480484Y-77940893D01*
X56478997Y-77930870D01*
X56478500Y-77920750D01*
X56478500Y-77679250D01*
X56478997Y-77669130D01*
X56480484Y-77659107D01*
X56482946Y-77649278D01*
X56486359Y-77639738D01*
X56490692Y-77630578D01*
X56495901Y-77621887D01*
X56501937Y-77613749D01*
X56508741Y-77606241D01*
X56516249Y-77599437D01*
X56524387Y-77593401D01*
X56533078Y-77588192D01*
X56542238Y-77583859D01*
X56551778Y-77580446D01*
X56561607Y-77577984D01*
X56571630Y-77576497D01*
X56581750Y-77576000D01*
X56788250Y-77576000D01*
X56798370Y-77576497D01*
X56798370Y-77576497D01*
G37*
D12*
X56685000Y-77800000D03*
D11*
G36*
X55828370Y-77576497D02*
G01*
X55838393Y-77577984D01*
X55848222Y-77580446D01*
X55857762Y-77583859D01*
X55866922Y-77588192D01*
X55875613Y-77593401D01*
X55883751Y-77599437D01*
X55891259Y-77606241D01*
X55898063Y-77613749D01*
X55904099Y-77621887D01*
X55909308Y-77630578D01*
X55913641Y-77639738D01*
X55917054Y-77649278D01*
X55919516Y-77659107D01*
X55921003Y-77669130D01*
X55921500Y-77679250D01*
X55921500Y-77920750D01*
X55921003Y-77930870D01*
X55919516Y-77940893D01*
X55917054Y-77950722D01*
X55913641Y-77960262D01*
X55909308Y-77969422D01*
X55904099Y-77978113D01*
X55898063Y-77986251D01*
X55891259Y-77993759D01*
X55883751Y-78000563D01*
X55875613Y-78006599D01*
X55866922Y-78011808D01*
X55857762Y-78016141D01*
X55848222Y-78019554D01*
X55838393Y-78022016D01*
X55828370Y-78023503D01*
X55818250Y-78024000D01*
X55611750Y-78024000D01*
X55601630Y-78023503D01*
X55591607Y-78022016D01*
X55581778Y-78019554D01*
X55572238Y-78016141D01*
X55563078Y-78011808D01*
X55554387Y-78006599D01*
X55546249Y-78000563D01*
X55538741Y-77993759D01*
X55531937Y-77986251D01*
X55525901Y-77978113D01*
X55520692Y-77969422D01*
X55516359Y-77960262D01*
X55512946Y-77950722D01*
X55510484Y-77940893D01*
X55508997Y-77930870D01*
X55508500Y-77920750D01*
X55508500Y-77679250D01*
X55508997Y-77669130D01*
X55510484Y-77659107D01*
X55512946Y-77649278D01*
X55516359Y-77639738D01*
X55520692Y-77630578D01*
X55525901Y-77621887D01*
X55531937Y-77613749D01*
X55538741Y-77606241D01*
X55546249Y-77599437D01*
X55554387Y-77593401D01*
X55563078Y-77588192D01*
X55572238Y-77583859D01*
X55581778Y-77580446D01*
X55591607Y-77577984D01*
X55601630Y-77576497D01*
X55611750Y-77576000D01*
X55818250Y-77576000D01*
X55828370Y-77576497D01*
X55828370Y-77576497D01*
G37*
D12*
X55715000Y-77800000D03*
G04 #@! TD*
D11*
G04 #@! TO.C,C39*
G36*
X59198370Y-79176497D02*
G01*
X59208393Y-79177984D01*
X59218222Y-79180446D01*
X59227762Y-79183859D01*
X59236922Y-79188192D01*
X59245613Y-79193401D01*
X59253751Y-79199437D01*
X59261259Y-79206241D01*
X59268063Y-79213749D01*
X59274099Y-79221887D01*
X59279308Y-79230578D01*
X59283641Y-79239738D01*
X59287054Y-79249278D01*
X59289516Y-79259107D01*
X59291003Y-79269130D01*
X59291500Y-79279250D01*
X59291500Y-79520750D01*
X59291003Y-79530870D01*
X59289516Y-79540893D01*
X59287054Y-79550722D01*
X59283641Y-79560262D01*
X59279308Y-79569422D01*
X59274099Y-79578113D01*
X59268063Y-79586251D01*
X59261259Y-79593759D01*
X59253751Y-79600563D01*
X59245613Y-79606599D01*
X59236922Y-79611808D01*
X59227762Y-79616141D01*
X59218222Y-79619554D01*
X59208393Y-79622016D01*
X59198370Y-79623503D01*
X59188250Y-79624000D01*
X58981750Y-79624000D01*
X58971630Y-79623503D01*
X58961607Y-79622016D01*
X58951778Y-79619554D01*
X58942238Y-79616141D01*
X58933078Y-79611808D01*
X58924387Y-79606599D01*
X58916249Y-79600563D01*
X58908741Y-79593759D01*
X58901937Y-79586251D01*
X58895901Y-79578113D01*
X58890692Y-79569422D01*
X58886359Y-79560262D01*
X58882946Y-79550722D01*
X58880484Y-79540893D01*
X58878997Y-79530870D01*
X58878500Y-79520750D01*
X58878500Y-79279250D01*
X58878997Y-79269130D01*
X58880484Y-79259107D01*
X58882946Y-79249278D01*
X58886359Y-79239738D01*
X58890692Y-79230578D01*
X58895901Y-79221887D01*
X58901937Y-79213749D01*
X58908741Y-79206241D01*
X58916249Y-79199437D01*
X58924387Y-79193401D01*
X58933078Y-79188192D01*
X58942238Y-79183859D01*
X58951778Y-79180446D01*
X58961607Y-79177984D01*
X58971630Y-79176497D01*
X58981750Y-79176000D01*
X59188250Y-79176000D01*
X59198370Y-79176497D01*
X59198370Y-79176497D01*
G37*
D12*
X59085000Y-79400000D03*
D11*
G36*
X58228370Y-79176497D02*
G01*
X58238393Y-79177984D01*
X58248222Y-79180446D01*
X58257762Y-79183859D01*
X58266922Y-79188192D01*
X58275613Y-79193401D01*
X58283751Y-79199437D01*
X58291259Y-79206241D01*
X58298063Y-79213749D01*
X58304099Y-79221887D01*
X58309308Y-79230578D01*
X58313641Y-79239738D01*
X58317054Y-79249278D01*
X58319516Y-79259107D01*
X58321003Y-79269130D01*
X58321500Y-79279250D01*
X58321500Y-79520750D01*
X58321003Y-79530870D01*
X58319516Y-79540893D01*
X58317054Y-79550722D01*
X58313641Y-79560262D01*
X58309308Y-79569422D01*
X58304099Y-79578113D01*
X58298063Y-79586251D01*
X58291259Y-79593759D01*
X58283751Y-79600563D01*
X58275613Y-79606599D01*
X58266922Y-79611808D01*
X58257762Y-79616141D01*
X58248222Y-79619554D01*
X58238393Y-79622016D01*
X58228370Y-79623503D01*
X58218250Y-79624000D01*
X58011750Y-79624000D01*
X58001630Y-79623503D01*
X57991607Y-79622016D01*
X57981778Y-79619554D01*
X57972238Y-79616141D01*
X57963078Y-79611808D01*
X57954387Y-79606599D01*
X57946249Y-79600563D01*
X57938741Y-79593759D01*
X57931937Y-79586251D01*
X57925901Y-79578113D01*
X57920692Y-79569422D01*
X57916359Y-79560262D01*
X57912946Y-79550722D01*
X57910484Y-79540893D01*
X57908997Y-79530870D01*
X57908500Y-79520750D01*
X57908500Y-79279250D01*
X57908997Y-79269130D01*
X57910484Y-79259107D01*
X57912946Y-79249278D01*
X57916359Y-79239738D01*
X57920692Y-79230578D01*
X57925901Y-79221887D01*
X57931937Y-79213749D01*
X57938741Y-79206241D01*
X57946249Y-79199437D01*
X57954387Y-79193401D01*
X57963078Y-79188192D01*
X57972238Y-79183859D01*
X57981778Y-79180446D01*
X57991607Y-79177984D01*
X58001630Y-79176497D01*
X58011750Y-79176000D01*
X58218250Y-79176000D01*
X58228370Y-79176497D01*
X58228370Y-79176497D01*
G37*
D12*
X58115000Y-79400000D03*
G04 #@! TD*
D11*
G04 #@! TO.C,C36*
G36*
X62028370Y-75976497D02*
G01*
X62038393Y-75977984D01*
X62048222Y-75980446D01*
X62057762Y-75983859D01*
X62066922Y-75988192D01*
X62075613Y-75993401D01*
X62083751Y-75999437D01*
X62091259Y-76006241D01*
X62098063Y-76013749D01*
X62104099Y-76021887D01*
X62109308Y-76030578D01*
X62113641Y-76039738D01*
X62117054Y-76049278D01*
X62119516Y-76059107D01*
X62121003Y-76069130D01*
X62121500Y-76079250D01*
X62121500Y-76320750D01*
X62121003Y-76330870D01*
X62119516Y-76340893D01*
X62117054Y-76350722D01*
X62113641Y-76360262D01*
X62109308Y-76369422D01*
X62104099Y-76378113D01*
X62098063Y-76386251D01*
X62091259Y-76393759D01*
X62083751Y-76400563D01*
X62075613Y-76406599D01*
X62066922Y-76411808D01*
X62057762Y-76416141D01*
X62048222Y-76419554D01*
X62038393Y-76422016D01*
X62028370Y-76423503D01*
X62018250Y-76424000D01*
X61811750Y-76424000D01*
X61801630Y-76423503D01*
X61791607Y-76422016D01*
X61781778Y-76419554D01*
X61772238Y-76416141D01*
X61763078Y-76411808D01*
X61754387Y-76406599D01*
X61746249Y-76400563D01*
X61738741Y-76393759D01*
X61731937Y-76386251D01*
X61725901Y-76378113D01*
X61720692Y-76369422D01*
X61716359Y-76360262D01*
X61712946Y-76350722D01*
X61710484Y-76340893D01*
X61708997Y-76330870D01*
X61708500Y-76320750D01*
X61708500Y-76079250D01*
X61708997Y-76069130D01*
X61710484Y-76059107D01*
X61712946Y-76049278D01*
X61716359Y-76039738D01*
X61720692Y-76030578D01*
X61725901Y-76021887D01*
X61731937Y-76013749D01*
X61738741Y-76006241D01*
X61746249Y-75999437D01*
X61754387Y-75993401D01*
X61763078Y-75988192D01*
X61772238Y-75983859D01*
X61781778Y-75980446D01*
X61791607Y-75977984D01*
X61801630Y-75976497D01*
X61811750Y-75976000D01*
X62018250Y-75976000D01*
X62028370Y-75976497D01*
X62028370Y-75976497D01*
G37*
D12*
X61915000Y-76200000D03*
D11*
G36*
X62998370Y-75976497D02*
G01*
X63008393Y-75977984D01*
X63018222Y-75980446D01*
X63027762Y-75983859D01*
X63036922Y-75988192D01*
X63045613Y-75993401D01*
X63053751Y-75999437D01*
X63061259Y-76006241D01*
X63068063Y-76013749D01*
X63074099Y-76021887D01*
X63079308Y-76030578D01*
X63083641Y-76039738D01*
X63087054Y-76049278D01*
X63089516Y-76059107D01*
X63091003Y-76069130D01*
X63091500Y-76079250D01*
X63091500Y-76320750D01*
X63091003Y-76330870D01*
X63089516Y-76340893D01*
X63087054Y-76350722D01*
X63083641Y-76360262D01*
X63079308Y-76369422D01*
X63074099Y-76378113D01*
X63068063Y-76386251D01*
X63061259Y-76393759D01*
X63053751Y-76400563D01*
X63045613Y-76406599D01*
X63036922Y-76411808D01*
X63027762Y-76416141D01*
X63018222Y-76419554D01*
X63008393Y-76422016D01*
X62998370Y-76423503D01*
X62988250Y-76424000D01*
X62781750Y-76424000D01*
X62771630Y-76423503D01*
X62761607Y-76422016D01*
X62751778Y-76419554D01*
X62742238Y-76416141D01*
X62733078Y-76411808D01*
X62724387Y-76406599D01*
X62716249Y-76400563D01*
X62708741Y-76393759D01*
X62701937Y-76386251D01*
X62695901Y-76378113D01*
X62690692Y-76369422D01*
X62686359Y-76360262D01*
X62682946Y-76350722D01*
X62680484Y-76340893D01*
X62678997Y-76330870D01*
X62678500Y-76320750D01*
X62678500Y-76079250D01*
X62678997Y-76069130D01*
X62680484Y-76059107D01*
X62682946Y-76049278D01*
X62686359Y-76039738D01*
X62690692Y-76030578D01*
X62695901Y-76021887D01*
X62701937Y-76013749D01*
X62708741Y-76006241D01*
X62716249Y-75999437D01*
X62724387Y-75993401D01*
X62733078Y-75988192D01*
X62742238Y-75983859D01*
X62751778Y-75980446D01*
X62761607Y-75977984D01*
X62771630Y-75976497D01*
X62781750Y-75976000D01*
X62988250Y-75976000D01*
X62998370Y-75976497D01*
X62998370Y-75976497D01*
G37*
D12*
X62885000Y-76200000D03*
G04 #@! TD*
D11*
G04 #@! TO.C,C35*
G36*
X56798370Y-75976497D02*
G01*
X56808393Y-75977984D01*
X56818222Y-75980446D01*
X56827762Y-75983859D01*
X56836922Y-75988192D01*
X56845613Y-75993401D01*
X56853751Y-75999437D01*
X56861259Y-76006241D01*
X56868063Y-76013749D01*
X56874099Y-76021887D01*
X56879308Y-76030578D01*
X56883641Y-76039738D01*
X56887054Y-76049278D01*
X56889516Y-76059107D01*
X56891003Y-76069130D01*
X56891500Y-76079250D01*
X56891500Y-76320750D01*
X56891003Y-76330870D01*
X56889516Y-76340893D01*
X56887054Y-76350722D01*
X56883641Y-76360262D01*
X56879308Y-76369422D01*
X56874099Y-76378113D01*
X56868063Y-76386251D01*
X56861259Y-76393759D01*
X56853751Y-76400563D01*
X56845613Y-76406599D01*
X56836922Y-76411808D01*
X56827762Y-76416141D01*
X56818222Y-76419554D01*
X56808393Y-76422016D01*
X56798370Y-76423503D01*
X56788250Y-76424000D01*
X56581750Y-76424000D01*
X56571630Y-76423503D01*
X56561607Y-76422016D01*
X56551778Y-76419554D01*
X56542238Y-76416141D01*
X56533078Y-76411808D01*
X56524387Y-76406599D01*
X56516249Y-76400563D01*
X56508741Y-76393759D01*
X56501937Y-76386251D01*
X56495901Y-76378113D01*
X56490692Y-76369422D01*
X56486359Y-76360262D01*
X56482946Y-76350722D01*
X56480484Y-76340893D01*
X56478997Y-76330870D01*
X56478500Y-76320750D01*
X56478500Y-76079250D01*
X56478997Y-76069130D01*
X56480484Y-76059107D01*
X56482946Y-76049278D01*
X56486359Y-76039738D01*
X56490692Y-76030578D01*
X56495901Y-76021887D01*
X56501937Y-76013749D01*
X56508741Y-76006241D01*
X56516249Y-75999437D01*
X56524387Y-75993401D01*
X56533078Y-75988192D01*
X56542238Y-75983859D01*
X56551778Y-75980446D01*
X56561607Y-75977984D01*
X56571630Y-75976497D01*
X56581750Y-75976000D01*
X56788250Y-75976000D01*
X56798370Y-75976497D01*
X56798370Y-75976497D01*
G37*
D12*
X56685000Y-76200000D03*
D11*
G36*
X55828370Y-75976497D02*
G01*
X55838393Y-75977984D01*
X55848222Y-75980446D01*
X55857762Y-75983859D01*
X55866922Y-75988192D01*
X55875613Y-75993401D01*
X55883751Y-75999437D01*
X55891259Y-76006241D01*
X55898063Y-76013749D01*
X55904099Y-76021887D01*
X55909308Y-76030578D01*
X55913641Y-76039738D01*
X55917054Y-76049278D01*
X55919516Y-76059107D01*
X55921003Y-76069130D01*
X55921500Y-76079250D01*
X55921500Y-76320750D01*
X55921003Y-76330870D01*
X55919516Y-76340893D01*
X55917054Y-76350722D01*
X55913641Y-76360262D01*
X55909308Y-76369422D01*
X55904099Y-76378113D01*
X55898063Y-76386251D01*
X55891259Y-76393759D01*
X55883751Y-76400563D01*
X55875613Y-76406599D01*
X55866922Y-76411808D01*
X55857762Y-76416141D01*
X55848222Y-76419554D01*
X55838393Y-76422016D01*
X55828370Y-76423503D01*
X55818250Y-76424000D01*
X55611750Y-76424000D01*
X55601630Y-76423503D01*
X55591607Y-76422016D01*
X55581778Y-76419554D01*
X55572238Y-76416141D01*
X55563078Y-76411808D01*
X55554387Y-76406599D01*
X55546249Y-76400563D01*
X55538741Y-76393759D01*
X55531937Y-76386251D01*
X55525901Y-76378113D01*
X55520692Y-76369422D01*
X55516359Y-76360262D01*
X55512946Y-76350722D01*
X55510484Y-76340893D01*
X55508997Y-76330870D01*
X55508500Y-76320750D01*
X55508500Y-76079250D01*
X55508997Y-76069130D01*
X55510484Y-76059107D01*
X55512946Y-76049278D01*
X55516359Y-76039738D01*
X55520692Y-76030578D01*
X55525901Y-76021887D01*
X55531937Y-76013749D01*
X55538741Y-76006241D01*
X55546249Y-75999437D01*
X55554387Y-75993401D01*
X55563078Y-75988192D01*
X55572238Y-75983859D01*
X55581778Y-75980446D01*
X55591607Y-75977984D01*
X55601630Y-75976497D01*
X55611750Y-75976000D01*
X55818250Y-75976000D01*
X55828370Y-75976497D01*
X55828370Y-75976497D01*
G37*
D12*
X55715000Y-76200000D03*
G04 #@! TD*
D11*
G04 #@! TO.C,C34*
G36*
X62028370Y-79176497D02*
G01*
X62038393Y-79177984D01*
X62048222Y-79180446D01*
X62057762Y-79183859D01*
X62066922Y-79188192D01*
X62075613Y-79193401D01*
X62083751Y-79199437D01*
X62091259Y-79206241D01*
X62098063Y-79213749D01*
X62104099Y-79221887D01*
X62109308Y-79230578D01*
X62113641Y-79239738D01*
X62117054Y-79249278D01*
X62119516Y-79259107D01*
X62121003Y-79269130D01*
X62121500Y-79279250D01*
X62121500Y-79520750D01*
X62121003Y-79530870D01*
X62119516Y-79540893D01*
X62117054Y-79550722D01*
X62113641Y-79560262D01*
X62109308Y-79569422D01*
X62104099Y-79578113D01*
X62098063Y-79586251D01*
X62091259Y-79593759D01*
X62083751Y-79600563D01*
X62075613Y-79606599D01*
X62066922Y-79611808D01*
X62057762Y-79616141D01*
X62048222Y-79619554D01*
X62038393Y-79622016D01*
X62028370Y-79623503D01*
X62018250Y-79624000D01*
X61811750Y-79624000D01*
X61801630Y-79623503D01*
X61791607Y-79622016D01*
X61781778Y-79619554D01*
X61772238Y-79616141D01*
X61763078Y-79611808D01*
X61754387Y-79606599D01*
X61746249Y-79600563D01*
X61738741Y-79593759D01*
X61731937Y-79586251D01*
X61725901Y-79578113D01*
X61720692Y-79569422D01*
X61716359Y-79560262D01*
X61712946Y-79550722D01*
X61710484Y-79540893D01*
X61708997Y-79530870D01*
X61708500Y-79520750D01*
X61708500Y-79279250D01*
X61708997Y-79269130D01*
X61710484Y-79259107D01*
X61712946Y-79249278D01*
X61716359Y-79239738D01*
X61720692Y-79230578D01*
X61725901Y-79221887D01*
X61731937Y-79213749D01*
X61738741Y-79206241D01*
X61746249Y-79199437D01*
X61754387Y-79193401D01*
X61763078Y-79188192D01*
X61772238Y-79183859D01*
X61781778Y-79180446D01*
X61791607Y-79177984D01*
X61801630Y-79176497D01*
X61811750Y-79176000D01*
X62018250Y-79176000D01*
X62028370Y-79176497D01*
X62028370Y-79176497D01*
G37*
D12*
X61915000Y-79400000D03*
D11*
G36*
X62998370Y-79176497D02*
G01*
X63008393Y-79177984D01*
X63018222Y-79180446D01*
X63027762Y-79183859D01*
X63036922Y-79188192D01*
X63045613Y-79193401D01*
X63053751Y-79199437D01*
X63061259Y-79206241D01*
X63068063Y-79213749D01*
X63074099Y-79221887D01*
X63079308Y-79230578D01*
X63083641Y-79239738D01*
X63087054Y-79249278D01*
X63089516Y-79259107D01*
X63091003Y-79269130D01*
X63091500Y-79279250D01*
X63091500Y-79520750D01*
X63091003Y-79530870D01*
X63089516Y-79540893D01*
X63087054Y-79550722D01*
X63083641Y-79560262D01*
X63079308Y-79569422D01*
X63074099Y-79578113D01*
X63068063Y-79586251D01*
X63061259Y-79593759D01*
X63053751Y-79600563D01*
X63045613Y-79606599D01*
X63036922Y-79611808D01*
X63027762Y-79616141D01*
X63018222Y-79619554D01*
X63008393Y-79622016D01*
X62998370Y-79623503D01*
X62988250Y-79624000D01*
X62781750Y-79624000D01*
X62771630Y-79623503D01*
X62761607Y-79622016D01*
X62751778Y-79619554D01*
X62742238Y-79616141D01*
X62733078Y-79611808D01*
X62724387Y-79606599D01*
X62716249Y-79600563D01*
X62708741Y-79593759D01*
X62701937Y-79586251D01*
X62695901Y-79578113D01*
X62690692Y-79569422D01*
X62686359Y-79560262D01*
X62682946Y-79550722D01*
X62680484Y-79540893D01*
X62678997Y-79530870D01*
X62678500Y-79520750D01*
X62678500Y-79279250D01*
X62678997Y-79269130D01*
X62680484Y-79259107D01*
X62682946Y-79249278D01*
X62686359Y-79239738D01*
X62690692Y-79230578D01*
X62695901Y-79221887D01*
X62701937Y-79213749D01*
X62708741Y-79206241D01*
X62716249Y-79199437D01*
X62724387Y-79193401D01*
X62733078Y-79188192D01*
X62742238Y-79183859D01*
X62751778Y-79180446D01*
X62761607Y-79177984D01*
X62771630Y-79176497D01*
X62781750Y-79176000D01*
X62988250Y-79176000D01*
X62998370Y-79176497D01*
X62998370Y-79176497D01*
G37*
D12*
X62885000Y-79400000D03*
G04 #@! TD*
D11*
G04 #@! TO.C,C33*
G36*
X56798370Y-79176497D02*
G01*
X56808393Y-79177984D01*
X56818222Y-79180446D01*
X56827762Y-79183859D01*
X56836922Y-79188192D01*
X56845613Y-79193401D01*
X56853751Y-79199437D01*
X56861259Y-79206241D01*
X56868063Y-79213749D01*
X56874099Y-79221887D01*
X56879308Y-79230578D01*
X56883641Y-79239738D01*
X56887054Y-79249278D01*
X56889516Y-79259107D01*
X56891003Y-79269130D01*
X56891500Y-79279250D01*
X56891500Y-79520750D01*
X56891003Y-79530870D01*
X56889516Y-79540893D01*
X56887054Y-79550722D01*
X56883641Y-79560262D01*
X56879308Y-79569422D01*
X56874099Y-79578113D01*
X56868063Y-79586251D01*
X56861259Y-79593759D01*
X56853751Y-79600563D01*
X56845613Y-79606599D01*
X56836922Y-79611808D01*
X56827762Y-79616141D01*
X56818222Y-79619554D01*
X56808393Y-79622016D01*
X56798370Y-79623503D01*
X56788250Y-79624000D01*
X56581750Y-79624000D01*
X56571630Y-79623503D01*
X56561607Y-79622016D01*
X56551778Y-79619554D01*
X56542238Y-79616141D01*
X56533078Y-79611808D01*
X56524387Y-79606599D01*
X56516249Y-79600563D01*
X56508741Y-79593759D01*
X56501937Y-79586251D01*
X56495901Y-79578113D01*
X56490692Y-79569422D01*
X56486359Y-79560262D01*
X56482946Y-79550722D01*
X56480484Y-79540893D01*
X56478997Y-79530870D01*
X56478500Y-79520750D01*
X56478500Y-79279250D01*
X56478997Y-79269130D01*
X56480484Y-79259107D01*
X56482946Y-79249278D01*
X56486359Y-79239738D01*
X56490692Y-79230578D01*
X56495901Y-79221887D01*
X56501937Y-79213749D01*
X56508741Y-79206241D01*
X56516249Y-79199437D01*
X56524387Y-79193401D01*
X56533078Y-79188192D01*
X56542238Y-79183859D01*
X56551778Y-79180446D01*
X56561607Y-79177984D01*
X56571630Y-79176497D01*
X56581750Y-79176000D01*
X56788250Y-79176000D01*
X56798370Y-79176497D01*
X56798370Y-79176497D01*
G37*
D12*
X56685000Y-79400000D03*
D11*
G36*
X55828370Y-79176497D02*
G01*
X55838393Y-79177984D01*
X55848222Y-79180446D01*
X55857762Y-79183859D01*
X55866922Y-79188192D01*
X55875613Y-79193401D01*
X55883751Y-79199437D01*
X55891259Y-79206241D01*
X55898063Y-79213749D01*
X55904099Y-79221887D01*
X55909308Y-79230578D01*
X55913641Y-79239738D01*
X55917054Y-79249278D01*
X55919516Y-79259107D01*
X55921003Y-79269130D01*
X55921500Y-79279250D01*
X55921500Y-79520750D01*
X55921003Y-79530870D01*
X55919516Y-79540893D01*
X55917054Y-79550722D01*
X55913641Y-79560262D01*
X55909308Y-79569422D01*
X55904099Y-79578113D01*
X55898063Y-79586251D01*
X55891259Y-79593759D01*
X55883751Y-79600563D01*
X55875613Y-79606599D01*
X55866922Y-79611808D01*
X55857762Y-79616141D01*
X55848222Y-79619554D01*
X55838393Y-79622016D01*
X55828370Y-79623503D01*
X55818250Y-79624000D01*
X55611750Y-79624000D01*
X55601630Y-79623503D01*
X55591607Y-79622016D01*
X55581778Y-79619554D01*
X55572238Y-79616141D01*
X55563078Y-79611808D01*
X55554387Y-79606599D01*
X55546249Y-79600563D01*
X55538741Y-79593759D01*
X55531937Y-79586251D01*
X55525901Y-79578113D01*
X55520692Y-79569422D01*
X55516359Y-79560262D01*
X55512946Y-79550722D01*
X55510484Y-79540893D01*
X55508997Y-79530870D01*
X55508500Y-79520750D01*
X55508500Y-79279250D01*
X55508997Y-79269130D01*
X55510484Y-79259107D01*
X55512946Y-79249278D01*
X55516359Y-79239738D01*
X55520692Y-79230578D01*
X55525901Y-79221887D01*
X55531937Y-79213749D01*
X55538741Y-79206241D01*
X55546249Y-79199437D01*
X55554387Y-79193401D01*
X55563078Y-79188192D01*
X55572238Y-79183859D01*
X55581778Y-79180446D01*
X55591607Y-79177984D01*
X55601630Y-79176497D01*
X55611750Y-79176000D01*
X55818250Y-79176000D01*
X55828370Y-79176497D01*
X55828370Y-79176497D01*
G37*
D12*
X55715000Y-79400000D03*
G04 #@! TD*
D11*
G04 #@! TO.C,C30*
G36*
X58628370Y-58976497D02*
G01*
X58638393Y-58977984D01*
X58648222Y-58980446D01*
X58657762Y-58983859D01*
X58666922Y-58988192D01*
X58675613Y-58993401D01*
X58683751Y-58999437D01*
X58691259Y-59006241D01*
X58698063Y-59013749D01*
X58704099Y-59021887D01*
X58709308Y-59030578D01*
X58713641Y-59039738D01*
X58717054Y-59049278D01*
X58719516Y-59059107D01*
X58721003Y-59069130D01*
X58721500Y-59079250D01*
X58721500Y-59320750D01*
X58721003Y-59330870D01*
X58719516Y-59340893D01*
X58717054Y-59350722D01*
X58713641Y-59360262D01*
X58709308Y-59369422D01*
X58704099Y-59378113D01*
X58698063Y-59386251D01*
X58691259Y-59393759D01*
X58683751Y-59400563D01*
X58675613Y-59406599D01*
X58666922Y-59411808D01*
X58657762Y-59416141D01*
X58648222Y-59419554D01*
X58638393Y-59422016D01*
X58628370Y-59423503D01*
X58618250Y-59424000D01*
X58411750Y-59424000D01*
X58401630Y-59423503D01*
X58391607Y-59422016D01*
X58381778Y-59419554D01*
X58372238Y-59416141D01*
X58363078Y-59411808D01*
X58354387Y-59406599D01*
X58346249Y-59400563D01*
X58338741Y-59393759D01*
X58331937Y-59386251D01*
X58325901Y-59378113D01*
X58320692Y-59369422D01*
X58316359Y-59360262D01*
X58312946Y-59350722D01*
X58310484Y-59340893D01*
X58308997Y-59330870D01*
X58308500Y-59320750D01*
X58308500Y-59079250D01*
X58308997Y-59069130D01*
X58310484Y-59059107D01*
X58312946Y-59049278D01*
X58316359Y-59039738D01*
X58320692Y-59030578D01*
X58325901Y-59021887D01*
X58331937Y-59013749D01*
X58338741Y-59006241D01*
X58346249Y-58999437D01*
X58354387Y-58993401D01*
X58363078Y-58988192D01*
X58372238Y-58983859D01*
X58381778Y-58980446D01*
X58391607Y-58977984D01*
X58401630Y-58976497D01*
X58411750Y-58976000D01*
X58618250Y-58976000D01*
X58628370Y-58976497D01*
X58628370Y-58976497D01*
G37*
D12*
X58515000Y-59200000D03*
D11*
G36*
X59598370Y-58976497D02*
G01*
X59608393Y-58977984D01*
X59618222Y-58980446D01*
X59627762Y-58983859D01*
X59636922Y-58988192D01*
X59645613Y-58993401D01*
X59653751Y-58999437D01*
X59661259Y-59006241D01*
X59668063Y-59013749D01*
X59674099Y-59021887D01*
X59679308Y-59030578D01*
X59683641Y-59039738D01*
X59687054Y-59049278D01*
X59689516Y-59059107D01*
X59691003Y-59069130D01*
X59691500Y-59079250D01*
X59691500Y-59320750D01*
X59691003Y-59330870D01*
X59689516Y-59340893D01*
X59687054Y-59350722D01*
X59683641Y-59360262D01*
X59679308Y-59369422D01*
X59674099Y-59378113D01*
X59668063Y-59386251D01*
X59661259Y-59393759D01*
X59653751Y-59400563D01*
X59645613Y-59406599D01*
X59636922Y-59411808D01*
X59627762Y-59416141D01*
X59618222Y-59419554D01*
X59608393Y-59422016D01*
X59598370Y-59423503D01*
X59588250Y-59424000D01*
X59381750Y-59424000D01*
X59371630Y-59423503D01*
X59361607Y-59422016D01*
X59351778Y-59419554D01*
X59342238Y-59416141D01*
X59333078Y-59411808D01*
X59324387Y-59406599D01*
X59316249Y-59400563D01*
X59308741Y-59393759D01*
X59301937Y-59386251D01*
X59295901Y-59378113D01*
X59290692Y-59369422D01*
X59286359Y-59360262D01*
X59282946Y-59350722D01*
X59280484Y-59340893D01*
X59278997Y-59330870D01*
X59278500Y-59320750D01*
X59278500Y-59079250D01*
X59278997Y-59069130D01*
X59280484Y-59059107D01*
X59282946Y-59049278D01*
X59286359Y-59039738D01*
X59290692Y-59030578D01*
X59295901Y-59021887D01*
X59301937Y-59013749D01*
X59308741Y-59006241D01*
X59316249Y-58999437D01*
X59324387Y-58993401D01*
X59333078Y-58988192D01*
X59342238Y-58983859D01*
X59351778Y-58980446D01*
X59361607Y-58977984D01*
X59371630Y-58976497D01*
X59381750Y-58976000D01*
X59588250Y-58976000D01*
X59598370Y-58976497D01*
X59598370Y-58976497D01*
G37*
D12*
X59485000Y-59200000D03*
G04 #@! TD*
D11*
G04 #@! TO.C,C29*
G36*
X60730870Y-66678997D02*
G01*
X60740893Y-66680484D01*
X60750722Y-66682946D01*
X60760262Y-66686359D01*
X60769422Y-66690692D01*
X60778113Y-66695901D01*
X60786251Y-66701937D01*
X60793759Y-66708741D01*
X60800563Y-66716249D01*
X60806599Y-66724387D01*
X60811808Y-66733078D01*
X60816141Y-66742238D01*
X60819554Y-66751778D01*
X60822016Y-66761607D01*
X60823503Y-66771630D01*
X60824000Y-66781750D01*
X60824000Y-66988250D01*
X60823503Y-66998370D01*
X60822016Y-67008393D01*
X60819554Y-67018222D01*
X60816141Y-67027762D01*
X60811808Y-67036922D01*
X60806599Y-67045613D01*
X60800563Y-67053751D01*
X60793759Y-67061259D01*
X60786251Y-67068063D01*
X60778113Y-67074099D01*
X60769422Y-67079308D01*
X60760262Y-67083641D01*
X60750722Y-67087054D01*
X60740893Y-67089516D01*
X60730870Y-67091003D01*
X60720750Y-67091500D01*
X60479250Y-67091500D01*
X60469130Y-67091003D01*
X60459107Y-67089516D01*
X60449278Y-67087054D01*
X60439738Y-67083641D01*
X60430578Y-67079308D01*
X60421887Y-67074099D01*
X60413749Y-67068063D01*
X60406241Y-67061259D01*
X60399437Y-67053751D01*
X60393401Y-67045613D01*
X60388192Y-67036922D01*
X60383859Y-67027762D01*
X60380446Y-67018222D01*
X60377984Y-67008393D01*
X60376497Y-66998370D01*
X60376000Y-66988250D01*
X60376000Y-66781750D01*
X60376497Y-66771630D01*
X60377984Y-66761607D01*
X60380446Y-66751778D01*
X60383859Y-66742238D01*
X60388192Y-66733078D01*
X60393401Y-66724387D01*
X60399437Y-66716249D01*
X60406241Y-66708741D01*
X60413749Y-66701937D01*
X60421887Y-66695901D01*
X60430578Y-66690692D01*
X60439738Y-66686359D01*
X60449278Y-66682946D01*
X60459107Y-66680484D01*
X60469130Y-66678997D01*
X60479250Y-66678500D01*
X60720750Y-66678500D01*
X60730870Y-66678997D01*
X60730870Y-66678997D01*
G37*
D12*
X60600000Y-66885000D03*
D11*
G36*
X60730870Y-65708997D02*
G01*
X60740893Y-65710484D01*
X60750722Y-65712946D01*
X60760262Y-65716359D01*
X60769422Y-65720692D01*
X60778113Y-65725901D01*
X60786251Y-65731937D01*
X60793759Y-65738741D01*
X60800563Y-65746249D01*
X60806599Y-65754387D01*
X60811808Y-65763078D01*
X60816141Y-65772238D01*
X60819554Y-65781778D01*
X60822016Y-65791607D01*
X60823503Y-65801630D01*
X60824000Y-65811750D01*
X60824000Y-66018250D01*
X60823503Y-66028370D01*
X60822016Y-66038393D01*
X60819554Y-66048222D01*
X60816141Y-66057762D01*
X60811808Y-66066922D01*
X60806599Y-66075613D01*
X60800563Y-66083751D01*
X60793759Y-66091259D01*
X60786251Y-66098063D01*
X60778113Y-66104099D01*
X60769422Y-66109308D01*
X60760262Y-66113641D01*
X60750722Y-66117054D01*
X60740893Y-66119516D01*
X60730870Y-66121003D01*
X60720750Y-66121500D01*
X60479250Y-66121500D01*
X60469130Y-66121003D01*
X60459107Y-66119516D01*
X60449278Y-66117054D01*
X60439738Y-66113641D01*
X60430578Y-66109308D01*
X60421887Y-66104099D01*
X60413749Y-66098063D01*
X60406241Y-66091259D01*
X60399437Y-66083751D01*
X60393401Y-66075613D01*
X60388192Y-66066922D01*
X60383859Y-66057762D01*
X60380446Y-66048222D01*
X60377984Y-66038393D01*
X60376497Y-66028370D01*
X60376000Y-66018250D01*
X60376000Y-65811750D01*
X60376497Y-65801630D01*
X60377984Y-65791607D01*
X60380446Y-65781778D01*
X60383859Y-65772238D01*
X60388192Y-65763078D01*
X60393401Y-65754387D01*
X60399437Y-65746249D01*
X60406241Y-65738741D01*
X60413749Y-65731937D01*
X60421887Y-65725901D01*
X60430578Y-65720692D01*
X60439738Y-65716359D01*
X60449278Y-65712946D01*
X60459107Y-65710484D01*
X60469130Y-65708997D01*
X60479250Y-65708500D01*
X60720750Y-65708500D01*
X60730870Y-65708997D01*
X60730870Y-65708997D01*
G37*
D12*
X60600000Y-65915000D03*
G04 #@! TD*
D11*
G04 #@! TO.C,C28*
G36*
X63628370Y-59176497D02*
G01*
X63638393Y-59177984D01*
X63648222Y-59180446D01*
X63657762Y-59183859D01*
X63666922Y-59188192D01*
X63675613Y-59193401D01*
X63683751Y-59199437D01*
X63691259Y-59206241D01*
X63698063Y-59213749D01*
X63704099Y-59221887D01*
X63709308Y-59230578D01*
X63713641Y-59239738D01*
X63717054Y-59249278D01*
X63719516Y-59259107D01*
X63721003Y-59269130D01*
X63721500Y-59279250D01*
X63721500Y-59520750D01*
X63721003Y-59530870D01*
X63719516Y-59540893D01*
X63717054Y-59550722D01*
X63713641Y-59560262D01*
X63709308Y-59569422D01*
X63704099Y-59578113D01*
X63698063Y-59586251D01*
X63691259Y-59593759D01*
X63683751Y-59600563D01*
X63675613Y-59606599D01*
X63666922Y-59611808D01*
X63657762Y-59616141D01*
X63648222Y-59619554D01*
X63638393Y-59622016D01*
X63628370Y-59623503D01*
X63618250Y-59624000D01*
X63411750Y-59624000D01*
X63401630Y-59623503D01*
X63391607Y-59622016D01*
X63381778Y-59619554D01*
X63372238Y-59616141D01*
X63363078Y-59611808D01*
X63354387Y-59606599D01*
X63346249Y-59600563D01*
X63338741Y-59593759D01*
X63331937Y-59586251D01*
X63325901Y-59578113D01*
X63320692Y-59569422D01*
X63316359Y-59560262D01*
X63312946Y-59550722D01*
X63310484Y-59540893D01*
X63308997Y-59530870D01*
X63308500Y-59520750D01*
X63308500Y-59279250D01*
X63308997Y-59269130D01*
X63310484Y-59259107D01*
X63312946Y-59249278D01*
X63316359Y-59239738D01*
X63320692Y-59230578D01*
X63325901Y-59221887D01*
X63331937Y-59213749D01*
X63338741Y-59206241D01*
X63346249Y-59199437D01*
X63354387Y-59193401D01*
X63363078Y-59188192D01*
X63372238Y-59183859D01*
X63381778Y-59180446D01*
X63391607Y-59177984D01*
X63401630Y-59176497D01*
X63411750Y-59176000D01*
X63618250Y-59176000D01*
X63628370Y-59176497D01*
X63628370Y-59176497D01*
G37*
D12*
X63515000Y-59400000D03*
D11*
G36*
X64598370Y-59176497D02*
G01*
X64608393Y-59177984D01*
X64618222Y-59180446D01*
X64627762Y-59183859D01*
X64636922Y-59188192D01*
X64645613Y-59193401D01*
X64653751Y-59199437D01*
X64661259Y-59206241D01*
X64668063Y-59213749D01*
X64674099Y-59221887D01*
X64679308Y-59230578D01*
X64683641Y-59239738D01*
X64687054Y-59249278D01*
X64689516Y-59259107D01*
X64691003Y-59269130D01*
X64691500Y-59279250D01*
X64691500Y-59520750D01*
X64691003Y-59530870D01*
X64689516Y-59540893D01*
X64687054Y-59550722D01*
X64683641Y-59560262D01*
X64679308Y-59569422D01*
X64674099Y-59578113D01*
X64668063Y-59586251D01*
X64661259Y-59593759D01*
X64653751Y-59600563D01*
X64645613Y-59606599D01*
X64636922Y-59611808D01*
X64627762Y-59616141D01*
X64618222Y-59619554D01*
X64608393Y-59622016D01*
X64598370Y-59623503D01*
X64588250Y-59624000D01*
X64381750Y-59624000D01*
X64371630Y-59623503D01*
X64361607Y-59622016D01*
X64351778Y-59619554D01*
X64342238Y-59616141D01*
X64333078Y-59611808D01*
X64324387Y-59606599D01*
X64316249Y-59600563D01*
X64308741Y-59593759D01*
X64301937Y-59586251D01*
X64295901Y-59578113D01*
X64290692Y-59569422D01*
X64286359Y-59560262D01*
X64282946Y-59550722D01*
X64280484Y-59540893D01*
X64278997Y-59530870D01*
X64278500Y-59520750D01*
X64278500Y-59279250D01*
X64278997Y-59269130D01*
X64280484Y-59259107D01*
X64282946Y-59249278D01*
X64286359Y-59239738D01*
X64290692Y-59230578D01*
X64295901Y-59221887D01*
X64301937Y-59213749D01*
X64308741Y-59206241D01*
X64316249Y-59199437D01*
X64324387Y-59193401D01*
X64333078Y-59188192D01*
X64342238Y-59183859D01*
X64351778Y-59180446D01*
X64361607Y-59177984D01*
X64371630Y-59176497D01*
X64381750Y-59176000D01*
X64588250Y-59176000D01*
X64598370Y-59176497D01*
X64598370Y-59176497D01*
G37*
D12*
X64485000Y-59400000D03*
G04 #@! TD*
D11*
G04 #@! TO.C,C27*
G36*
X64730870Y-65678997D02*
G01*
X64740893Y-65680484D01*
X64750722Y-65682946D01*
X64760262Y-65686359D01*
X64769422Y-65690692D01*
X64778113Y-65695901D01*
X64786251Y-65701937D01*
X64793759Y-65708741D01*
X64800563Y-65716249D01*
X64806599Y-65724387D01*
X64811808Y-65733078D01*
X64816141Y-65742238D01*
X64819554Y-65751778D01*
X64822016Y-65761607D01*
X64823503Y-65771630D01*
X64824000Y-65781750D01*
X64824000Y-65988250D01*
X64823503Y-65998370D01*
X64822016Y-66008393D01*
X64819554Y-66018222D01*
X64816141Y-66027762D01*
X64811808Y-66036922D01*
X64806599Y-66045613D01*
X64800563Y-66053751D01*
X64793759Y-66061259D01*
X64786251Y-66068063D01*
X64778113Y-66074099D01*
X64769422Y-66079308D01*
X64760262Y-66083641D01*
X64750722Y-66087054D01*
X64740893Y-66089516D01*
X64730870Y-66091003D01*
X64720750Y-66091500D01*
X64479250Y-66091500D01*
X64469130Y-66091003D01*
X64459107Y-66089516D01*
X64449278Y-66087054D01*
X64439738Y-66083641D01*
X64430578Y-66079308D01*
X64421887Y-66074099D01*
X64413749Y-66068063D01*
X64406241Y-66061259D01*
X64399437Y-66053751D01*
X64393401Y-66045613D01*
X64388192Y-66036922D01*
X64383859Y-66027762D01*
X64380446Y-66018222D01*
X64377984Y-66008393D01*
X64376497Y-65998370D01*
X64376000Y-65988250D01*
X64376000Y-65781750D01*
X64376497Y-65771630D01*
X64377984Y-65761607D01*
X64380446Y-65751778D01*
X64383859Y-65742238D01*
X64388192Y-65733078D01*
X64393401Y-65724387D01*
X64399437Y-65716249D01*
X64406241Y-65708741D01*
X64413749Y-65701937D01*
X64421887Y-65695901D01*
X64430578Y-65690692D01*
X64439738Y-65686359D01*
X64449278Y-65682946D01*
X64459107Y-65680484D01*
X64469130Y-65678997D01*
X64479250Y-65678500D01*
X64720750Y-65678500D01*
X64730870Y-65678997D01*
X64730870Y-65678997D01*
G37*
D12*
X64600000Y-65885000D03*
D11*
G36*
X64730870Y-64708997D02*
G01*
X64740893Y-64710484D01*
X64750722Y-64712946D01*
X64760262Y-64716359D01*
X64769422Y-64720692D01*
X64778113Y-64725901D01*
X64786251Y-64731937D01*
X64793759Y-64738741D01*
X64800563Y-64746249D01*
X64806599Y-64754387D01*
X64811808Y-64763078D01*
X64816141Y-64772238D01*
X64819554Y-64781778D01*
X64822016Y-64791607D01*
X64823503Y-64801630D01*
X64824000Y-64811750D01*
X64824000Y-65018250D01*
X64823503Y-65028370D01*
X64822016Y-65038393D01*
X64819554Y-65048222D01*
X64816141Y-65057762D01*
X64811808Y-65066922D01*
X64806599Y-65075613D01*
X64800563Y-65083751D01*
X64793759Y-65091259D01*
X64786251Y-65098063D01*
X64778113Y-65104099D01*
X64769422Y-65109308D01*
X64760262Y-65113641D01*
X64750722Y-65117054D01*
X64740893Y-65119516D01*
X64730870Y-65121003D01*
X64720750Y-65121500D01*
X64479250Y-65121500D01*
X64469130Y-65121003D01*
X64459107Y-65119516D01*
X64449278Y-65117054D01*
X64439738Y-65113641D01*
X64430578Y-65109308D01*
X64421887Y-65104099D01*
X64413749Y-65098063D01*
X64406241Y-65091259D01*
X64399437Y-65083751D01*
X64393401Y-65075613D01*
X64388192Y-65066922D01*
X64383859Y-65057762D01*
X64380446Y-65048222D01*
X64377984Y-65038393D01*
X64376497Y-65028370D01*
X64376000Y-65018250D01*
X64376000Y-64811750D01*
X64376497Y-64801630D01*
X64377984Y-64791607D01*
X64380446Y-64781778D01*
X64383859Y-64772238D01*
X64388192Y-64763078D01*
X64393401Y-64754387D01*
X64399437Y-64746249D01*
X64406241Y-64738741D01*
X64413749Y-64731937D01*
X64421887Y-64725901D01*
X64430578Y-64720692D01*
X64439738Y-64716359D01*
X64449278Y-64712946D01*
X64459107Y-64710484D01*
X64469130Y-64708997D01*
X64479250Y-64708500D01*
X64720750Y-64708500D01*
X64730870Y-64708997D01*
X64730870Y-64708997D01*
G37*
D12*
X64600000Y-64915000D03*
G04 #@! TD*
D11*
G04 #@! TO.C,C26*
G36*
X58949849Y-57210822D02*
G01*
X58966412Y-57213279D01*
X58982655Y-57217347D01*
X58998420Y-57222988D01*
X59013557Y-57230147D01*
X59027919Y-57238755D01*
X59041368Y-57248730D01*
X59053775Y-57259975D01*
X59065020Y-57272382D01*
X59074995Y-57285831D01*
X59083603Y-57300193D01*
X59090762Y-57315330D01*
X59096403Y-57331095D01*
X59100471Y-57347338D01*
X59102928Y-57363901D01*
X59103750Y-57380625D01*
X59103750Y-58019375D01*
X59102928Y-58036099D01*
X59100471Y-58052662D01*
X59096403Y-58068905D01*
X59090762Y-58084670D01*
X59083603Y-58099807D01*
X59074995Y-58114169D01*
X59065020Y-58127618D01*
X59053775Y-58140025D01*
X59041368Y-58151270D01*
X59027919Y-58161245D01*
X59013557Y-58169853D01*
X58998420Y-58177012D01*
X58982655Y-58182653D01*
X58966412Y-58186721D01*
X58949849Y-58189178D01*
X58933125Y-58190000D01*
X58591875Y-58190000D01*
X58575151Y-58189178D01*
X58558588Y-58186721D01*
X58542345Y-58182653D01*
X58526580Y-58177012D01*
X58511443Y-58169853D01*
X58497081Y-58161245D01*
X58483632Y-58151270D01*
X58471225Y-58140025D01*
X58459980Y-58127618D01*
X58450005Y-58114169D01*
X58441397Y-58099807D01*
X58434238Y-58084670D01*
X58428597Y-58068905D01*
X58424529Y-58052662D01*
X58422072Y-58036099D01*
X58421250Y-58019375D01*
X58421250Y-57380625D01*
X58422072Y-57363901D01*
X58424529Y-57347338D01*
X58428597Y-57331095D01*
X58434238Y-57315330D01*
X58441397Y-57300193D01*
X58450005Y-57285831D01*
X58459980Y-57272382D01*
X58471225Y-57259975D01*
X58483632Y-57248730D01*
X58497081Y-57238755D01*
X58511443Y-57230147D01*
X58526580Y-57222988D01*
X58542345Y-57217347D01*
X58558588Y-57213279D01*
X58575151Y-57210822D01*
X58591875Y-57210000D01*
X58933125Y-57210000D01*
X58949849Y-57210822D01*
X58949849Y-57210822D01*
G37*
D13*
X58762500Y-57700000D03*
D11*
G36*
X60824849Y-57210822D02*
G01*
X60841412Y-57213279D01*
X60857655Y-57217347D01*
X60873420Y-57222988D01*
X60888557Y-57230147D01*
X60902919Y-57238755D01*
X60916368Y-57248730D01*
X60928775Y-57259975D01*
X60940020Y-57272382D01*
X60949995Y-57285831D01*
X60958603Y-57300193D01*
X60965762Y-57315330D01*
X60971403Y-57331095D01*
X60975471Y-57347338D01*
X60977928Y-57363901D01*
X60978750Y-57380625D01*
X60978750Y-58019375D01*
X60977928Y-58036099D01*
X60975471Y-58052662D01*
X60971403Y-58068905D01*
X60965762Y-58084670D01*
X60958603Y-58099807D01*
X60949995Y-58114169D01*
X60940020Y-58127618D01*
X60928775Y-58140025D01*
X60916368Y-58151270D01*
X60902919Y-58161245D01*
X60888557Y-58169853D01*
X60873420Y-58177012D01*
X60857655Y-58182653D01*
X60841412Y-58186721D01*
X60824849Y-58189178D01*
X60808125Y-58190000D01*
X60466875Y-58190000D01*
X60450151Y-58189178D01*
X60433588Y-58186721D01*
X60417345Y-58182653D01*
X60401580Y-58177012D01*
X60386443Y-58169853D01*
X60372081Y-58161245D01*
X60358632Y-58151270D01*
X60346225Y-58140025D01*
X60334980Y-58127618D01*
X60325005Y-58114169D01*
X60316397Y-58099807D01*
X60309238Y-58084670D01*
X60303597Y-58068905D01*
X60299529Y-58052662D01*
X60297072Y-58036099D01*
X60296250Y-58019375D01*
X60296250Y-57380625D01*
X60297072Y-57363901D01*
X60299529Y-57347338D01*
X60303597Y-57331095D01*
X60309238Y-57315330D01*
X60316397Y-57300193D01*
X60325005Y-57285831D01*
X60334980Y-57272382D01*
X60346225Y-57259975D01*
X60358632Y-57248730D01*
X60372081Y-57238755D01*
X60386443Y-57230147D01*
X60401580Y-57222988D01*
X60417345Y-57217347D01*
X60433588Y-57213279D01*
X60450151Y-57210822D01*
X60466875Y-57210000D01*
X60808125Y-57210000D01*
X60824849Y-57210822D01*
X60824849Y-57210822D01*
G37*
D13*
X60637500Y-57700000D03*
G04 #@! TD*
D11*
G04 #@! TO.C,C25*
G36*
X62436099Y-66997072D02*
G01*
X62452662Y-66999529D01*
X62468905Y-67003597D01*
X62484670Y-67009238D01*
X62499807Y-67016397D01*
X62514169Y-67025005D01*
X62527618Y-67034980D01*
X62540025Y-67046225D01*
X62551270Y-67058632D01*
X62561245Y-67072081D01*
X62569853Y-67086443D01*
X62577012Y-67101580D01*
X62582653Y-67117345D01*
X62586721Y-67133588D01*
X62589178Y-67150151D01*
X62590000Y-67166875D01*
X62590000Y-67508125D01*
X62589178Y-67524849D01*
X62586721Y-67541412D01*
X62582653Y-67557655D01*
X62577012Y-67573420D01*
X62569853Y-67588557D01*
X62561245Y-67602919D01*
X62551270Y-67616368D01*
X62540025Y-67628775D01*
X62527618Y-67640020D01*
X62514169Y-67649995D01*
X62499807Y-67658603D01*
X62484670Y-67665762D01*
X62468905Y-67671403D01*
X62452662Y-67675471D01*
X62436099Y-67677928D01*
X62419375Y-67678750D01*
X61780625Y-67678750D01*
X61763901Y-67677928D01*
X61747338Y-67675471D01*
X61731095Y-67671403D01*
X61715330Y-67665762D01*
X61700193Y-67658603D01*
X61685831Y-67649995D01*
X61672382Y-67640020D01*
X61659975Y-67628775D01*
X61648730Y-67616368D01*
X61638755Y-67602919D01*
X61630147Y-67588557D01*
X61622988Y-67573420D01*
X61617347Y-67557655D01*
X61613279Y-67541412D01*
X61610822Y-67524849D01*
X61610000Y-67508125D01*
X61610000Y-67166875D01*
X61610822Y-67150151D01*
X61613279Y-67133588D01*
X61617347Y-67117345D01*
X61622988Y-67101580D01*
X61630147Y-67086443D01*
X61638755Y-67072081D01*
X61648730Y-67058632D01*
X61659975Y-67046225D01*
X61672382Y-67034980D01*
X61685831Y-67025005D01*
X61700193Y-67016397D01*
X61715330Y-67009238D01*
X61731095Y-67003597D01*
X61747338Y-66999529D01*
X61763901Y-66997072D01*
X61780625Y-66996250D01*
X62419375Y-66996250D01*
X62436099Y-66997072D01*
X62436099Y-66997072D01*
G37*
D13*
X62100000Y-67337500D03*
D11*
G36*
X62436099Y-65122072D02*
G01*
X62452662Y-65124529D01*
X62468905Y-65128597D01*
X62484670Y-65134238D01*
X62499807Y-65141397D01*
X62514169Y-65150005D01*
X62527618Y-65159980D01*
X62540025Y-65171225D01*
X62551270Y-65183632D01*
X62561245Y-65197081D01*
X62569853Y-65211443D01*
X62577012Y-65226580D01*
X62582653Y-65242345D01*
X62586721Y-65258588D01*
X62589178Y-65275151D01*
X62590000Y-65291875D01*
X62590000Y-65633125D01*
X62589178Y-65649849D01*
X62586721Y-65666412D01*
X62582653Y-65682655D01*
X62577012Y-65698420D01*
X62569853Y-65713557D01*
X62561245Y-65727919D01*
X62551270Y-65741368D01*
X62540025Y-65753775D01*
X62527618Y-65765020D01*
X62514169Y-65774995D01*
X62499807Y-65783603D01*
X62484670Y-65790762D01*
X62468905Y-65796403D01*
X62452662Y-65800471D01*
X62436099Y-65802928D01*
X62419375Y-65803750D01*
X61780625Y-65803750D01*
X61763901Y-65802928D01*
X61747338Y-65800471D01*
X61731095Y-65796403D01*
X61715330Y-65790762D01*
X61700193Y-65783603D01*
X61685831Y-65774995D01*
X61672382Y-65765020D01*
X61659975Y-65753775D01*
X61648730Y-65741368D01*
X61638755Y-65727919D01*
X61630147Y-65713557D01*
X61622988Y-65698420D01*
X61617347Y-65682655D01*
X61613279Y-65666412D01*
X61610822Y-65649849D01*
X61610000Y-65633125D01*
X61610000Y-65291875D01*
X61610822Y-65275151D01*
X61613279Y-65258588D01*
X61617347Y-65242345D01*
X61622988Y-65226580D01*
X61630147Y-65211443D01*
X61638755Y-65197081D01*
X61648730Y-65183632D01*
X61659975Y-65171225D01*
X61672382Y-65159980D01*
X61685831Y-65150005D01*
X61700193Y-65141397D01*
X61715330Y-65134238D01*
X61731095Y-65128597D01*
X61747338Y-65124529D01*
X61763901Y-65122072D01*
X61780625Y-65121250D01*
X62419375Y-65121250D01*
X62436099Y-65122072D01*
X62436099Y-65122072D01*
G37*
D13*
X62100000Y-65462500D03*
G04 #@! TD*
D11*
G04 #@! TO.C,C22*
G36*
X56998370Y-61976497D02*
G01*
X57008393Y-61977984D01*
X57018222Y-61980446D01*
X57027762Y-61983859D01*
X57036922Y-61988192D01*
X57045613Y-61993401D01*
X57053751Y-61999437D01*
X57061259Y-62006241D01*
X57068063Y-62013749D01*
X57074099Y-62021887D01*
X57079308Y-62030578D01*
X57083641Y-62039738D01*
X57087054Y-62049278D01*
X57089516Y-62059107D01*
X57091003Y-62069130D01*
X57091500Y-62079250D01*
X57091500Y-62320750D01*
X57091003Y-62330870D01*
X57089516Y-62340893D01*
X57087054Y-62350722D01*
X57083641Y-62360262D01*
X57079308Y-62369422D01*
X57074099Y-62378113D01*
X57068063Y-62386251D01*
X57061259Y-62393759D01*
X57053751Y-62400563D01*
X57045613Y-62406599D01*
X57036922Y-62411808D01*
X57027762Y-62416141D01*
X57018222Y-62419554D01*
X57008393Y-62422016D01*
X56998370Y-62423503D01*
X56988250Y-62424000D01*
X56781750Y-62424000D01*
X56771630Y-62423503D01*
X56761607Y-62422016D01*
X56751778Y-62419554D01*
X56742238Y-62416141D01*
X56733078Y-62411808D01*
X56724387Y-62406599D01*
X56716249Y-62400563D01*
X56708741Y-62393759D01*
X56701937Y-62386251D01*
X56695901Y-62378113D01*
X56690692Y-62369422D01*
X56686359Y-62360262D01*
X56682946Y-62350722D01*
X56680484Y-62340893D01*
X56678997Y-62330870D01*
X56678500Y-62320750D01*
X56678500Y-62079250D01*
X56678997Y-62069130D01*
X56680484Y-62059107D01*
X56682946Y-62049278D01*
X56686359Y-62039738D01*
X56690692Y-62030578D01*
X56695901Y-62021887D01*
X56701937Y-62013749D01*
X56708741Y-62006241D01*
X56716249Y-61999437D01*
X56724387Y-61993401D01*
X56733078Y-61988192D01*
X56742238Y-61983859D01*
X56751778Y-61980446D01*
X56761607Y-61977984D01*
X56771630Y-61976497D01*
X56781750Y-61976000D01*
X56988250Y-61976000D01*
X56998370Y-61976497D01*
X56998370Y-61976497D01*
G37*
D12*
X56885000Y-62200000D03*
D11*
G36*
X56028370Y-61976497D02*
G01*
X56038393Y-61977984D01*
X56048222Y-61980446D01*
X56057762Y-61983859D01*
X56066922Y-61988192D01*
X56075613Y-61993401D01*
X56083751Y-61999437D01*
X56091259Y-62006241D01*
X56098063Y-62013749D01*
X56104099Y-62021887D01*
X56109308Y-62030578D01*
X56113641Y-62039738D01*
X56117054Y-62049278D01*
X56119516Y-62059107D01*
X56121003Y-62069130D01*
X56121500Y-62079250D01*
X56121500Y-62320750D01*
X56121003Y-62330870D01*
X56119516Y-62340893D01*
X56117054Y-62350722D01*
X56113641Y-62360262D01*
X56109308Y-62369422D01*
X56104099Y-62378113D01*
X56098063Y-62386251D01*
X56091259Y-62393759D01*
X56083751Y-62400563D01*
X56075613Y-62406599D01*
X56066922Y-62411808D01*
X56057762Y-62416141D01*
X56048222Y-62419554D01*
X56038393Y-62422016D01*
X56028370Y-62423503D01*
X56018250Y-62424000D01*
X55811750Y-62424000D01*
X55801630Y-62423503D01*
X55791607Y-62422016D01*
X55781778Y-62419554D01*
X55772238Y-62416141D01*
X55763078Y-62411808D01*
X55754387Y-62406599D01*
X55746249Y-62400563D01*
X55738741Y-62393759D01*
X55731937Y-62386251D01*
X55725901Y-62378113D01*
X55720692Y-62369422D01*
X55716359Y-62360262D01*
X55712946Y-62350722D01*
X55710484Y-62340893D01*
X55708997Y-62330870D01*
X55708500Y-62320750D01*
X55708500Y-62079250D01*
X55708997Y-62069130D01*
X55710484Y-62059107D01*
X55712946Y-62049278D01*
X55716359Y-62039738D01*
X55720692Y-62030578D01*
X55725901Y-62021887D01*
X55731937Y-62013749D01*
X55738741Y-62006241D01*
X55746249Y-61999437D01*
X55754387Y-61993401D01*
X55763078Y-61988192D01*
X55772238Y-61983859D01*
X55781778Y-61980446D01*
X55791607Y-61977984D01*
X55801630Y-61976497D01*
X55811750Y-61976000D01*
X56018250Y-61976000D01*
X56028370Y-61976497D01*
X56028370Y-61976497D01*
G37*
D12*
X55915000Y-62200000D03*
G04 #@! TD*
D11*
G04 #@! TO.C,C21*
G36*
X56998370Y-65176497D02*
G01*
X57008393Y-65177984D01*
X57018222Y-65180446D01*
X57027762Y-65183859D01*
X57036922Y-65188192D01*
X57045613Y-65193401D01*
X57053751Y-65199437D01*
X57061259Y-65206241D01*
X57068063Y-65213749D01*
X57074099Y-65221887D01*
X57079308Y-65230578D01*
X57083641Y-65239738D01*
X57087054Y-65249278D01*
X57089516Y-65259107D01*
X57091003Y-65269130D01*
X57091500Y-65279250D01*
X57091500Y-65520750D01*
X57091003Y-65530870D01*
X57089516Y-65540893D01*
X57087054Y-65550722D01*
X57083641Y-65560262D01*
X57079308Y-65569422D01*
X57074099Y-65578113D01*
X57068063Y-65586251D01*
X57061259Y-65593759D01*
X57053751Y-65600563D01*
X57045613Y-65606599D01*
X57036922Y-65611808D01*
X57027762Y-65616141D01*
X57018222Y-65619554D01*
X57008393Y-65622016D01*
X56998370Y-65623503D01*
X56988250Y-65624000D01*
X56781750Y-65624000D01*
X56771630Y-65623503D01*
X56761607Y-65622016D01*
X56751778Y-65619554D01*
X56742238Y-65616141D01*
X56733078Y-65611808D01*
X56724387Y-65606599D01*
X56716249Y-65600563D01*
X56708741Y-65593759D01*
X56701937Y-65586251D01*
X56695901Y-65578113D01*
X56690692Y-65569422D01*
X56686359Y-65560262D01*
X56682946Y-65550722D01*
X56680484Y-65540893D01*
X56678997Y-65530870D01*
X56678500Y-65520750D01*
X56678500Y-65279250D01*
X56678997Y-65269130D01*
X56680484Y-65259107D01*
X56682946Y-65249278D01*
X56686359Y-65239738D01*
X56690692Y-65230578D01*
X56695901Y-65221887D01*
X56701937Y-65213749D01*
X56708741Y-65206241D01*
X56716249Y-65199437D01*
X56724387Y-65193401D01*
X56733078Y-65188192D01*
X56742238Y-65183859D01*
X56751778Y-65180446D01*
X56761607Y-65177984D01*
X56771630Y-65176497D01*
X56781750Y-65176000D01*
X56988250Y-65176000D01*
X56998370Y-65176497D01*
X56998370Y-65176497D01*
G37*
D12*
X56885000Y-65400000D03*
D11*
G36*
X56028370Y-65176497D02*
G01*
X56038393Y-65177984D01*
X56048222Y-65180446D01*
X56057762Y-65183859D01*
X56066922Y-65188192D01*
X56075613Y-65193401D01*
X56083751Y-65199437D01*
X56091259Y-65206241D01*
X56098063Y-65213749D01*
X56104099Y-65221887D01*
X56109308Y-65230578D01*
X56113641Y-65239738D01*
X56117054Y-65249278D01*
X56119516Y-65259107D01*
X56121003Y-65269130D01*
X56121500Y-65279250D01*
X56121500Y-65520750D01*
X56121003Y-65530870D01*
X56119516Y-65540893D01*
X56117054Y-65550722D01*
X56113641Y-65560262D01*
X56109308Y-65569422D01*
X56104099Y-65578113D01*
X56098063Y-65586251D01*
X56091259Y-65593759D01*
X56083751Y-65600563D01*
X56075613Y-65606599D01*
X56066922Y-65611808D01*
X56057762Y-65616141D01*
X56048222Y-65619554D01*
X56038393Y-65622016D01*
X56028370Y-65623503D01*
X56018250Y-65624000D01*
X55811750Y-65624000D01*
X55801630Y-65623503D01*
X55791607Y-65622016D01*
X55781778Y-65619554D01*
X55772238Y-65616141D01*
X55763078Y-65611808D01*
X55754387Y-65606599D01*
X55746249Y-65600563D01*
X55738741Y-65593759D01*
X55731937Y-65586251D01*
X55725901Y-65578113D01*
X55720692Y-65569422D01*
X55716359Y-65560262D01*
X55712946Y-65550722D01*
X55710484Y-65540893D01*
X55708997Y-65530870D01*
X55708500Y-65520750D01*
X55708500Y-65279250D01*
X55708997Y-65269130D01*
X55710484Y-65259107D01*
X55712946Y-65249278D01*
X55716359Y-65239738D01*
X55720692Y-65230578D01*
X55725901Y-65221887D01*
X55731937Y-65213749D01*
X55738741Y-65206241D01*
X55746249Y-65199437D01*
X55754387Y-65193401D01*
X55763078Y-65188192D01*
X55772238Y-65183859D01*
X55781778Y-65180446D01*
X55791607Y-65177984D01*
X55801630Y-65176497D01*
X55811750Y-65176000D01*
X56018250Y-65176000D01*
X56028370Y-65176497D01*
X56028370Y-65176497D01*
G37*
D12*
X55915000Y-65400000D03*
G04 #@! TD*
D11*
G04 #@! TO.C,C20*
G36*
X62228370Y-61976497D02*
G01*
X62238393Y-61977984D01*
X62248222Y-61980446D01*
X62257762Y-61983859D01*
X62266922Y-61988192D01*
X62275613Y-61993401D01*
X62283751Y-61999437D01*
X62291259Y-62006241D01*
X62298063Y-62013749D01*
X62304099Y-62021887D01*
X62309308Y-62030578D01*
X62313641Y-62039738D01*
X62317054Y-62049278D01*
X62319516Y-62059107D01*
X62321003Y-62069130D01*
X62321500Y-62079250D01*
X62321500Y-62320750D01*
X62321003Y-62330870D01*
X62319516Y-62340893D01*
X62317054Y-62350722D01*
X62313641Y-62360262D01*
X62309308Y-62369422D01*
X62304099Y-62378113D01*
X62298063Y-62386251D01*
X62291259Y-62393759D01*
X62283751Y-62400563D01*
X62275613Y-62406599D01*
X62266922Y-62411808D01*
X62257762Y-62416141D01*
X62248222Y-62419554D01*
X62238393Y-62422016D01*
X62228370Y-62423503D01*
X62218250Y-62424000D01*
X62011750Y-62424000D01*
X62001630Y-62423503D01*
X61991607Y-62422016D01*
X61981778Y-62419554D01*
X61972238Y-62416141D01*
X61963078Y-62411808D01*
X61954387Y-62406599D01*
X61946249Y-62400563D01*
X61938741Y-62393759D01*
X61931937Y-62386251D01*
X61925901Y-62378113D01*
X61920692Y-62369422D01*
X61916359Y-62360262D01*
X61912946Y-62350722D01*
X61910484Y-62340893D01*
X61908997Y-62330870D01*
X61908500Y-62320750D01*
X61908500Y-62079250D01*
X61908997Y-62069130D01*
X61910484Y-62059107D01*
X61912946Y-62049278D01*
X61916359Y-62039738D01*
X61920692Y-62030578D01*
X61925901Y-62021887D01*
X61931937Y-62013749D01*
X61938741Y-62006241D01*
X61946249Y-61999437D01*
X61954387Y-61993401D01*
X61963078Y-61988192D01*
X61972238Y-61983859D01*
X61981778Y-61980446D01*
X61991607Y-61977984D01*
X62001630Y-61976497D01*
X62011750Y-61976000D01*
X62218250Y-61976000D01*
X62228370Y-61976497D01*
X62228370Y-61976497D01*
G37*
D12*
X62115000Y-62200000D03*
D11*
G36*
X63198370Y-61976497D02*
G01*
X63208393Y-61977984D01*
X63218222Y-61980446D01*
X63227762Y-61983859D01*
X63236922Y-61988192D01*
X63245613Y-61993401D01*
X63253751Y-61999437D01*
X63261259Y-62006241D01*
X63268063Y-62013749D01*
X63274099Y-62021887D01*
X63279308Y-62030578D01*
X63283641Y-62039738D01*
X63287054Y-62049278D01*
X63289516Y-62059107D01*
X63291003Y-62069130D01*
X63291500Y-62079250D01*
X63291500Y-62320750D01*
X63291003Y-62330870D01*
X63289516Y-62340893D01*
X63287054Y-62350722D01*
X63283641Y-62360262D01*
X63279308Y-62369422D01*
X63274099Y-62378113D01*
X63268063Y-62386251D01*
X63261259Y-62393759D01*
X63253751Y-62400563D01*
X63245613Y-62406599D01*
X63236922Y-62411808D01*
X63227762Y-62416141D01*
X63218222Y-62419554D01*
X63208393Y-62422016D01*
X63198370Y-62423503D01*
X63188250Y-62424000D01*
X62981750Y-62424000D01*
X62971630Y-62423503D01*
X62961607Y-62422016D01*
X62951778Y-62419554D01*
X62942238Y-62416141D01*
X62933078Y-62411808D01*
X62924387Y-62406599D01*
X62916249Y-62400563D01*
X62908741Y-62393759D01*
X62901937Y-62386251D01*
X62895901Y-62378113D01*
X62890692Y-62369422D01*
X62886359Y-62360262D01*
X62882946Y-62350722D01*
X62880484Y-62340893D01*
X62878997Y-62330870D01*
X62878500Y-62320750D01*
X62878500Y-62079250D01*
X62878997Y-62069130D01*
X62880484Y-62059107D01*
X62882946Y-62049278D01*
X62886359Y-62039738D01*
X62890692Y-62030578D01*
X62895901Y-62021887D01*
X62901937Y-62013749D01*
X62908741Y-62006241D01*
X62916249Y-61999437D01*
X62924387Y-61993401D01*
X62933078Y-61988192D01*
X62942238Y-61983859D01*
X62951778Y-61980446D01*
X62961607Y-61977984D01*
X62971630Y-61976497D01*
X62981750Y-61976000D01*
X63188250Y-61976000D01*
X63198370Y-61976497D01*
X63198370Y-61976497D01*
G37*
D12*
X63085000Y-62200000D03*
G04 #@! TD*
D11*
G04 #@! TO.C,C19*
G36*
X59828370Y-60376497D02*
G01*
X59838393Y-60377984D01*
X59848222Y-60380446D01*
X59857762Y-60383859D01*
X59866922Y-60388192D01*
X59875613Y-60393401D01*
X59883751Y-60399437D01*
X59891259Y-60406241D01*
X59898063Y-60413749D01*
X59904099Y-60421887D01*
X59909308Y-60430578D01*
X59913641Y-60439738D01*
X59917054Y-60449278D01*
X59919516Y-60459107D01*
X59921003Y-60469130D01*
X59921500Y-60479250D01*
X59921500Y-60720750D01*
X59921003Y-60730870D01*
X59919516Y-60740893D01*
X59917054Y-60750722D01*
X59913641Y-60760262D01*
X59909308Y-60769422D01*
X59904099Y-60778113D01*
X59898063Y-60786251D01*
X59891259Y-60793759D01*
X59883751Y-60800563D01*
X59875613Y-60806599D01*
X59866922Y-60811808D01*
X59857762Y-60816141D01*
X59848222Y-60819554D01*
X59838393Y-60822016D01*
X59828370Y-60823503D01*
X59818250Y-60824000D01*
X59611750Y-60824000D01*
X59601630Y-60823503D01*
X59591607Y-60822016D01*
X59581778Y-60819554D01*
X59572238Y-60816141D01*
X59563078Y-60811808D01*
X59554387Y-60806599D01*
X59546249Y-60800563D01*
X59538741Y-60793759D01*
X59531937Y-60786251D01*
X59525901Y-60778113D01*
X59520692Y-60769422D01*
X59516359Y-60760262D01*
X59512946Y-60750722D01*
X59510484Y-60740893D01*
X59508997Y-60730870D01*
X59508500Y-60720750D01*
X59508500Y-60479250D01*
X59508997Y-60469130D01*
X59510484Y-60459107D01*
X59512946Y-60449278D01*
X59516359Y-60439738D01*
X59520692Y-60430578D01*
X59525901Y-60421887D01*
X59531937Y-60413749D01*
X59538741Y-60406241D01*
X59546249Y-60399437D01*
X59554387Y-60393401D01*
X59563078Y-60388192D01*
X59572238Y-60383859D01*
X59581778Y-60380446D01*
X59591607Y-60377984D01*
X59601630Y-60376497D01*
X59611750Y-60376000D01*
X59818250Y-60376000D01*
X59828370Y-60376497D01*
X59828370Y-60376497D01*
G37*
D12*
X59715000Y-60600000D03*
D11*
G36*
X60798370Y-60376497D02*
G01*
X60808393Y-60377984D01*
X60818222Y-60380446D01*
X60827762Y-60383859D01*
X60836922Y-60388192D01*
X60845613Y-60393401D01*
X60853751Y-60399437D01*
X60861259Y-60406241D01*
X60868063Y-60413749D01*
X60874099Y-60421887D01*
X60879308Y-60430578D01*
X60883641Y-60439738D01*
X60887054Y-60449278D01*
X60889516Y-60459107D01*
X60891003Y-60469130D01*
X60891500Y-60479250D01*
X60891500Y-60720750D01*
X60891003Y-60730870D01*
X60889516Y-60740893D01*
X60887054Y-60750722D01*
X60883641Y-60760262D01*
X60879308Y-60769422D01*
X60874099Y-60778113D01*
X60868063Y-60786251D01*
X60861259Y-60793759D01*
X60853751Y-60800563D01*
X60845613Y-60806599D01*
X60836922Y-60811808D01*
X60827762Y-60816141D01*
X60818222Y-60819554D01*
X60808393Y-60822016D01*
X60798370Y-60823503D01*
X60788250Y-60824000D01*
X60581750Y-60824000D01*
X60571630Y-60823503D01*
X60561607Y-60822016D01*
X60551778Y-60819554D01*
X60542238Y-60816141D01*
X60533078Y-60811808D01*
X60524387Y-60806599D01*
X60516249Y-60800563D01*
X60508741Y-60793759D01*
X60501937Y-60786251D01*
X60495901Y-60778113D01*
X60490692Y-60769422D01*
X60486359Y-60760262D01*
X60482946Y-60750722D01*
X60480484Y-60740893D01*
X60478997Y-60730870D01*
X60478500Y-60720750D01*
X60478500Y-60479250D01*
X60478997Y-60469130D01*
X60480484Y-60459107D01*
X60482946Y-60449278D01*
X60486359Y-60439738D01*
X60490692Y-60430578D01*
X60495901Y-60421887D01*
X60501937Y-60413749D01*
X60508741Y-60406241D01*
X60516249Y-60399437D01*
X60524387Y-60393401D01*
X60533078Y-60388192D01*
X60542238Y-60383859D01*
X60551778Y-60380446D01*
X60561607Y-60377984D01*
X60571630Y-60376497D01*
X60581750Y-60376000D01*
X60788250Y-60376000D01*
X60798370Y-60376497D01*
X60798370Y-60376497D01*
G37*
D12*
X60685000Y-60600000D03*
G04 #@! TD*
D11*
G04 #@! TO.C,C16*
G36*
X56998370Y-63576497D02*
G01*
X57008393Y-63577984D01*
X57018222Y-63580446D01*
X57027762Y-63583859D01*
X57036922Y-63588192D01*
X57045613Y-63593401D01*
X57053751Y-63599437D01*
X57061259Y-63606241D01*
X57068063Y-63613749D01*
X57074099Y-63621887D01*
X57079308Y-63630578D01*
X57083641Y-63639738D01*
X57087054Y-63649278D01*
X57089516Y-63659107D01*
X57091003Y-63669130D01*
X57091500Y-63679250D01*
X57091500Y-63920750D01*
X57091003Y-63930870D01*
X57089516Y-63940893D01*
X57087054Y-63950722D01*
X57083641Y-63960262D01*
X57079308Y-63969422D01*
X57074099Y-63978113D01*
X57068063Y-63986251D01*
X57061259Y-63993759D01*
X57053751Y-64000563D01*
X57045613Y-64006599D01*
X57036922Y-64011808D01*
X57027762Y-64016141D01*
X57018222Y-64019554D01*
X57008393Y-64022016D01*
X56998370Y-64023503D01*
X56988250Y-64024000D01*
X56781750Y-64024000D01*
X56771630Y-64023503D01*
X56761607Y-64022016D01*
X56751778Y-64019554D01*
X56742238Y-64016141D01*
X56733078Y-64011808D01*
X56724387Y-64006599D01*
X56716249Y-64000563D01*
X56708741Y-63993759D01*
X56701937Y-63986251D01*
X56695901Y-63978113D01*
X56690692Y-63969422D01*
X56686359Y-63960262D01*
X56682946Y-63950722D01*
X56680484Y-63940893D01*
X56678997Y-63930870D01*
X56678500Y-63920750D01*
X56678500Y-63679250D01*
X56678997Y-63669130D01*
X56680484Y-63659107D01*
X56682946Y-63649278D01*
X56686359Y-63639738D01*
X56690692Y-63630578D01*
X56695901Y-63621887D01*
X56701937Y-63613749D01*
X56708741Y-63606241D01*
X56716249Y-63599437D01*
X56724387Y-63593401D01*
X56733078Y-63588192D01*
X56742238Y-63583859D01*
X56751778Y-63580446D01*
X56761607Y-63577984D01*
X56771630Y-63576497D01*
X56781750Y-63576000D01*
X56988250Y-63576000D01*
X56998370Y-63576497D01*
X56998370Y-63576497D01*
G37*
D12*
X56885000Y-63800000D03*
D11*
G36*
X56028370Y-63576497D02*
G01*
X56038393Y-63577984D01*
X56048222Y-63580446D01*
X56057762Y-63583859D01*
X56066922Y-63588192D01*
X56075613Y-63593401D01*
X56083751Y-63599437D01*
X56091259Y-63606241D01*
X56098063Y-63613749D01*
X56104099Y-63621887D01*
X56109308Y-63630578D01*
X56113641Y-63639738D01*
X56117054Y-63649278D01*
X56119516Y-63659107D01*
X56121003Y-63669130D01*
X56121500Y-63679250D01*
X56121500Y-63920750D01*
X56121003Y-63930870D01*
X56119516Y-63940893D01*
X56117054Y-63950722D01*
X56113641Y-63960262D01*
X56109308Y-63969422D01*
X56104099Y-63978113D01*
X56098063Y-63986251D01*
X56091259Y-63993759D01*
X56083751Y-64000563D01*
X56075613Y-64006599D01*
X56066922Y-64011808D01*
X56057762Y-64016141D01*
X56048222Y-64019554D01*
X56038393Y-64022016D01*
X56028370Y-64023503D01*
X56018250Y-64024000D01*
X55811750Y-64024000D01*
X55801630Y-64023503D01*
X55791607Y-64022016D01*
X55781778Y-64019554D01*
X55772238Y-64016141D01*
X55763078Y-64011808D01*
X55754387Y-64006599D01*
X55746249Y-64000563D01*
X55738741Y-63993759D01*
X55731937Y-63986251D01*
X55725901Y-63978113D01*
X55720692Y-63969422D01*
X55716359Y-63960262D01*
X55712946Y-63950722D01*
X55710484Y-63940893D01*
X55708997Y-63930870D01*
X55708500Y-63920750D01*
X55708500Y-63679250D01*
X55708997Y-63669130D01*
X55710484Y-63659107D01*
X55712946Y-63649278D01*
X55716359Y-63639738D01*
X55720692Y-63630578D01*
X55725901Y-63621887D01*
X55731937Y-63613749D01*
X55738741Y-63606241D01*
X55746249Y-63599437D01*
X55754387Y-63593401D01*
X55763078Y-63588192D01*
X55772238Y-63583859D01*
X55781778Y-63580446D01*
X55791607Y-63577984D01*
X55801630Y-63576497D01*
X55811750Y-63576000D01*
X56018250Y-63576000D01*
X56028370Y-63576497D01*
X56028370Y-63576497D01*
G37*
D12*
X55915000Y-63800000D03*
G04 #@! TD*
D11*
G04 #@! TO.C,C15*
G36*
X62228370Y-63576497D02*
G01*
X62238393Y-63577984D01*
X62248222Y-63580446D01*
X62257762Y-63583859D01*
X62266922Y-63588192D01*
X62275613Y-63593401D01*
X62283751Y-63599437D01*
X62291259Y-63606241D01*
X62298063Y-63613749D01*
X62304099Y-63621887D01*
X62309308Y-63630578D01*
X62313641Y-63639738D01*
X62317054Y-63649278D01*
X62319516Y-63659107D01*
X62321003Y-63669130D01*
X62321500Y-63679250D01*
X62321500Y-63920750D01*
X62321003Y-63930870D01*
X62319516Y-63940893D01*
X62317054Y-63950722D01*
X62313641Y-63960262D01*
X62309308Y-63969422D01*
X62304099Y-63978113D01*
X62298063Y-63986251D01*
X62291259Y-63993759D01*
X62283751Y-64000563D01*
X62275613Y-64006599D01*
X62266922Y-64011808D01*
X62257762Y-64016141D01*
X62248222Y-64019554D01*
X62238393Y-64022016D01*
X62228370Y-64023503D01*
X62218250Y-64024000D01*
X62011750Y-64024000D01*
X62001630Y-64023503D01*
X61991607Y-64022016D01*
X61981778Y-64019554D01*
X61972238Y-64016141D01*
X61963078Y-64011808D01*
X61954387Y-64006599D01*
X61946249Y-64000563D01*
X61938741Y-63993759D01*
X61931937Y-63986251D01*
X61925901Y-63978113D01*
X61920692Y-63969422D01*
X61916359Y-63960262D01*
X61912946Y-63950722D01*
X61910484Y-63940893D01*
X61908997Y-63930870D01*
X61908500Y-63920750D01*
X61908500Y-63679250D01*
X61908997Y-63669130D01*
X61910484Y-63659107D01*
X61912946Y-63649278D01*
X61916359Y-63639738D01*
X61920692Y-63630578D01*
X61925901Y-63621887D01*
X61931937Y-63613749D01*
X61938741Y-63606241D01*
X61946249Y-63599437D01*
X61954387Y-63593401D01*
X61963078Y-63588192D01*
X61972238Y-63583859D01*
X61981778Y-63580446D01*
X61991607Y-63577984D01*
X62001630Y-63576497D01*
X62011750Y-63576000D01*
X62218250Y-63576000D01*
X62228370Y-63576497D01*
X62228370Y-63576497D01*
G37*
D12*
X62115000Y-63800000D03*
D11*
G36*
X63198370Y-63576497D02*
G01*
X63208393Y-63577984D01*
X63218222Y-63580446D01*
X63227762Y-63583859D01*
X63236922Y-63588192D01*
X63245613Y-63593401D01*
X63253751Y-63599437D01*
X63261259Y-63606241D01*
X63268063Y-63613749D01*
X63274099Y-63621887D01*
X63279308Y-63630578D01*
X63283641Y-63639738D01*
X63287054Y-63649278D01*
X63289516Y-63659107D01*
X63291003Y-63669130D01*
X63291500Y-63679250D01*
X63291500Y-63920750D01*
X63291003Y-63930870D01*
X63289516Y-63940893D01*
X63287054Y-63950722D01*
X63283641Y-63960262D01*
X63279308Y-63969422D01*
X63274099Y-63978113D01*
X63268063Y-63986251D01*
X63261259Y-63993759D01*
X63253751Y-64000563D01*
X63245613Y-64006599D01*
X63236922Y-64011808D01*
X63227762Y-64016141D01*
X63218222Y-64019554D01*
X63208393Y-64022016D01*
X63198370Y-64023503D01*
X63188250Y-64024000D01*
X62981750Y-64024000D01*
X62971630Y-64023503D01*
X62961607Y-64022016D01*
X62951778Y-64019554D01*
X62942238Y-64016141D01*
X62933078Y-64011808D01*
X62924387Y-64006599D01*
X62916249Y-64000563D01*
X62908741Y-63993759D01*
X62901937Y-63986251D01*
X62895901Y-63978113D01*
X62890692Y-63969422D01*
X62886359Y-63960262D01*
X62882946Y-63950722D01*
X62880484Y-63940893D01*
X62878997Y-63930870D01*
X62878500Y-63920750D01*
X62878500Y-63679250D01*
X62878997Y-63669130D01*
X62880484Y-63659107D01*
X62882946Y-63649278D01*
X62886359Y-63639738D01*
X62890692Y-63630578D01*
X62895901Y-63621887D01*
X62901937Y-63613749D01*
X62908741Y-63606241D01*
X62916249Y-63599437D01*
X62924387Y-63593401D01*
X62933078Y-63588192D01*
X62942238Y-63583859D01*
X62951778Y-63580446D01*
X62961607Y-63577984D01*
X62971630Y-63576497D01*
X62981750Y-63576000D01*
X63188250Y-63576000D01*
X63198370Y-63576497D01*
X63198370Y-63576497D01*
G37*
D12*
X63085000Y-63800000D03*
G04 #@! TD*
D11*
G04 #@! TO.C,C14*
G36*
X56998370Y-60376497D02*
G01*
X57008393Y-60377984D01*
X57018222Y-60380446D01*
X57027762Y-60383859D01*
X57036922Y-60388192D01*
X57045613Y-60393401D01*
X57053751Y-60399437D01*
X57061259Y-60406241D01*
X57068063Y-60413749D01*
X57074099Y-60421887D01*
X57079308Y-60430578D01*
X57083641Y-60439738D01*
X57087054Y-60449278D01*
X57089516Y-60459107D01*
X57091003Y-60469130D01*
X57091500Y-60479250D01*
X57091500Y-60720750D01*
X57091003Y-60730870D01*
X57089516Y-60740893D01*
X57087054Y-60750722D01*
X57083641Y-60760262D01*
X57079308Y-60769422D01*
X57074099Y-60778113D01*
X57068063Y-60786251D01*
X57061259Y-60793759D01*
X57053751Y-60800563D01*
X57045613Y-60806599D01*
X57036922Y-60811808D01*
X57027762Y-60816141D01*
X57018222Y-60819554D01*
X57008393Y-60822016D01*
X56998370Y-60823503D01*
X56988250Y-60824000D01*
X56781750Y-60824000D01*
X56771630Y-60823503D01*
X56761607Y-60822016D01*
X56751778Y-60819554D01*
X56742238Y-60816141D01*
X56733078Y-60811808D01*
X56724387Y-60806599D01*
X56716249Y-60800563D01*
X56708741Y-60793759D01*
X56701937Y-60786251D01*
X56695901Y-60778113D01*
X56690692Y-60769422D01*
X56686359Y-60760262D01*
X56682946Y-60750722D01*
X56680484Y-60740893D01*
X56678997Y-60730870D01*
X56678500Y-60720750D01*
X56678500Y-60479250D01*
X56678997Y-60469130D01*
X56680484Y-60459107D01*
X56682946Y-60449278D01*
X56686359Y-60439738D01*
X56690692Y-60430578D01*
X56695901Y-60421887D01*
X56701937Y-60413749D01*
X56708741Y-60406241D01*
X56716249Y-60399437D01*
X56724387Y-60393401D01*
X56733078Y-60388192D01*
X56742238Y-60383859D01*
X56751778Y-60380446D01*
X56761607Y-60377984D01*
X56771630Y-60376497D01*
X56781750Y-60376000D01*
X56988250Y-60376000D01*
X56998370Y-60376497D01*
X56998370Y-60376497D01*
G37*
D12*
X56885000Y-60600000D03*
D11*
G36*
X56028370Y-60376497D02*
G01*
X56038393Y-60377984D01*
X56048222Y-60380446D01*
X56057762Y-60383859D01*
X56066922Y-60388192D01*
X56075613Y-60393401D01*
X56083751Y-60399437D01*
X56091259Y-60406241D01*
X56098063Y-60413749D01*
X56104099Y-60421887D01*
X56109308Y-60430578D01*
X56113641Y-60439738D01*
X56117054Y-60449278D01*
X56119516Y-60459107D01*
X56121003Y-60469130D01*
X56121500Y-60479250D01*
X56121500Y-60720750D01*
X56121003Y-60730870D01*
X56119516Y-60740893D01*
X56117054Y-60750722D01*
X56113641Y-60760262D01*
X56109308Y-60769422D01*
X56104099Y-60778113D01*
X56098063Y-60786251D01*
X56091259Y-60793759D01*
X56083751Y-60800563D01*
X56075613Y-60806599D01*
X56066922Y-60811808D01*
X56057762Y-60816141D01*
X56048222Y-60819554D01*
X56038393Y-60822016D01*
X56028370Y-60823503D01*
X56018250Y-60824000D01*
X55811750Y-60824000D01*
X55801630Y-60823503D01*
X55791607Y-60822016D01*
X55781778Y-60819554D01*
X55772238Y-60816141D01*
X55763078Y-60811808D01*
X55754387Y-60806599D01*
X55746249Y-60800563D01*
X55738741Y-60793759D01*
X55731937Y-60786251D01*
X55725901Y-60778113D01*
X55720692Y-60769422D01*
X55716359Y-60760262D01*
X55712946Y-60750722D01*
X55710484Y-60740893D01*
X55708997Y-60730870D01*
X55708500Y-60720750D01*
X55708500Y-60479250D01*
X55708997Y-60469130D01*
X55710484Y-60459107D01*
X55712946Y-60449278D01*
X55716359Y-60439738D01*
X55720692Y-60430578D01*
X55725901Y-60421887D01*
X55731937Y-60413749D01*
X55738741Y-60406241D01*
X55746249Y-60399437D01*
X55754387Y-60393401D01*
X55763078Y-60388192D01*
X55772238Y-60383859D01*
X55781778Y-60380446D01*
X55791607Y-60377984D01*
X55801630Y-60376497D01*
X55811750Y-60376000D01*
X56018250Y-60376000D01*
X56028370Y-60376497D01*
X56028370Y-60376497D01*
G37*
D12*
X55915000Y-60600000D03*
G04 #@! TD*
D11*
G04 #@! TO.C,C13*
G36*
X62228370Y-60376497D02*
G01*
X62238393Y-60377984D01*
X62248222Y-60380446D01*
X62257762Y-60383859D01*
X62266922Y-60388192D01*
X62275613Y-60393401D01*
X62283751Y-60399437D01*
X62291259Y-60406241D01*
X62298063Y-60413749D01*
X62304099Y-60421887D01*
X62309308Y-60430578D01*
X62313641Y-60439738D01*
X62317054Y-60449278D01*
X62319516Y-60459107D01*
X62321003Y-60469130D01*
X62321500Y-60479250D01*
X62321500Y-60720750D01*
X62321003Y-60730870D01*
X62319516Y-60740893D01*
X62317054Y-60750722D01*
X62313641Y-60760262D01*
X62309308Y-60769422D01*
X62304099Y-60778113D01*
X62298063Y-60786251D01*
X62291259Y-60793759D01*
X62283751Y-60800563D01*
X62275613Y-60806599D01*
X62266922Y-60811808D01*
X62257762Y-60816141D01*
X62248222Y-60819554D01*
X62238393Y-60822016D01*
X62228370Y-60823503D01*
X62218250Y-60824000D01*
X62011750Y-60824000D01*
X62001630Y-60823503D01*
X61991607Y-60822016D01*
X61981778Y-60819554D01*
X61972238Y-60816141D01*
X61963078Y-60811808D01*
X61954387Y-60806599D01*
X61946249Y-60800563D01*
X61938741Y-60793759D01*
X61931937Y-60786251D01*
X61925901Y-60778113D01*
X61920692Y-60769422D01*
X61916359Y-60760262D01*
X61912946Y-60750722D01*
X61910484Y-60740893D01*
X61908997Y-60730870D01*
X61908500Y-60720750D01*
X61908500Y-60479250D01*
X61908997Y-60469130D01*
X61910484Y-60459107D01*
X61912946Y-60449278D01*
X61916359Y-60439738D01*
X61920692Y-60430578D01*
X61925901Y-60421887D01*
X61931937Y-60413749D01*
X61938741Y-60406241D01*
X61946249Y-60399437D01*
X61954387Y-60393401D01*
X61963078Y-60388192D01*
X61972238Y-60383859D01*
X61981778Y-60380446D01*
X61991607Y-60377984D01*
X62001630Y-60376497D01*
X62011750Y-60376000D01*
X62218250Y-60376000D01*
X62228370Y-60376497D01*
X62228370Y-60376497D01*
G37*
D12*
X62115000Y-60600000D03*
D11*
G36*
X63198370Y-60376497D02*
G01*
X63208393Y-60377984D01*
X63218222Y-60380446D01*
X63227762Y-60383859D01*
X63236922Y-60388192D01*
X63245613Y-60393401D01*
X63253751Y-60399437D01*
X63261259Y-60406241D01*
X63268063Y-60413749D01*
X63274099Y-60421887D01*
X63279308Y-60430578D01*
X63283641Y-60439738D01*
X63287054Y-60449278D01*
X63289516Y-60459107D01*
X63291003Y-60469130D01*
X63291500Y-60479250D01*
X63291500Y-60720750D01*
X63291003Y-60730870D01*
X63289516Y-60740893D01*
X63287054Y-60750722D01*
X63283641Y-60760262D01*
X63279308Y-60769422D01*
X63274099Y-60778113D01*
X63268063Y-60786251D01*
X63261259Y-60793759D01*
X63253751Y-60800563D01*
X63245613Y-60806599D01*
X63236922Y-60811808D01*
X63227762Y-60816141D01*
X63218222Y-60819554D01*
X63208393Y-60822016D01*
X63198370Y-60823503D01*
X63188250Y-60824000D01*
X62981750Y-60824000D01*
X62971630Y-60823503D01*
X62961607Y-60822016D01*
X62951778Y-60819554D01*
X62942238Y-60816141D01*
X62933078Y-60811808D01*
X62924387Y-60806599D01*
X62916249Y-60800563D01*
X62908741Y-60793759D01*
X62901937Y-60786251D01*
X62895901Y-60778113D01*
X62890692Y-60769422D01*
X62886359Y-60760262D01*
X62882946Y-60750722D01*
X62880484Y-60740893D01*
X62878997Y-60730870D01*
X62878500Y-60720750D01*
X62878500Y-60479250D01*
X62878997Y-60469130D01*
X62880484Y-60459107D01*
X62882946Y-60449278D01*
X62886359Y-60439738D01*
X62890692Y-60430578D01*
X62895901Y-60421887D01*
X62901937Y-60413749D01*
X62908741Y-60406241D01*
X62916249Y-60399437D01*
X62924387Y-60393401D01*
X62933078Y-60388192D01*
X62942238Y-60383859D01*
X62951778Y-60380446D01*
X62961607Y-60377984D01*
X62971630Y-60376497D01*
X62981750Y-60376000D01*
X63188250Y-60376000D01*
X63198370Y-60376497D01*
X63198370Y-60376497D01*
G37*
D12*
X63085000Y-60600000D03*
G04 #@! TD*
M02*
