G04 #@! TF.GenerationSoftware,KiCad,Pcbnew,(5.1.4)-1*
G04 #@! TF.CreationDate,2020-11-09T20:47:03-05:00*
G04 #@! TF.ProjectId,icepool-board,69636570-6f6f-46c2-9d62-6f6172642e6b,2020-04*
G04 #@! TF.SameCoordinates,Original*
G04 #@! TF.FileFunction,Legend,Bot*
G04 #@! TF.FilePolarity,Positive*
%FSLAX46Y46*%
G04 Gerber Fmt 4.6, Leading zero omitted, Abs format (unit mm)*
G04 Created by KiCad (PCBNEW (5.1.4)-1) date 2020-11-09 20:47:03*
%MOMM*%
%LPD*%
G04 APERTURE LIST*
%ADD10C,0.050000*%
%ADD11C,0.120000*%
%ADD12C,0.100000*%
%ADD13R,1.101600X1.101600*%
%ADD14C,0.901600*%
%ADD15C,0.150000*%
%ADD16C,0.691600*%
%ADD17R,1.601600X1.101600*%
%ADD18O,1.801600X1.801600*%
%ADD19R,1.801600X1.801600*%
%ADD20O,2.001600X1.301600*%
%ADD21C,1.551600*%
%ADD22C,5.101600*%
%ADD23C,1.076600*%
G04 APERTURE END LIST*
D10*
X25500000Y-88500000D02*
X25500000Y-51500000D01*
X73500000Y-88500000D02*
X25500000Y-88500000D01*
X73500000Y-51500000D02*
X73500000Y-88500000D01*
X25500000Y-51500000D02*
X73500000Y-51500000D01*
D11*
G04 #@! TO.C,JP2*
X55800000Y-84200000D02*
X55800000Y-81400000D01*
X55800000Y-81400000D02*
X53800000Y-81400000D01*
X53800000Y-81400000D02*
X53800000Y-84200000D01*
X53800000Y-84200000D02*
X55800000Y-84200000D01*
G04 #@! TO.C,JP1*
X63000000Y-55800000D02*
X63000000Y-58600000D01*
X63000000Y-58600000D02*
X65000000Y-58600000D01*
X65000000Y-58600000D02*
X65000000Y-55800000D01*
X65000000Y-55800000D02*
X63000000Y-55800000D01*
G04 #@! TO.C,C46*
X58841422Y-81590000D02*
X59358578Y-81590000D01*
X58841422Y-83010000D02*
X59358578Y-83010000D01*
G04 #@! TO.C,C45*
X55990000Y-73858578D02*
X55990000Y-73341422D01*
X57410000Y-73858578D02*
X57410000Y-73341422D01*
G04 #@! TO.C,C26*
X59958578Y-58410000D02*
X59441422Y-58410000D01*
X59958578Y-56990000D02*
X59441422Y-56990000D01*
G04 #@! TO.C,C25*
X62810000Y-66141422D02*
X62810000Y-66658578D01*
X61390000Y-66141422D02*
X61390000Y-66658578D01*
G04 #@! TD*
%LPC*%
D12*
X45344523Y-54311904D02*
X45344523Y-53778571D01*
X45344523Y-53511904D02*
X45382619Y-53550000D01*
X45344523Y-53588095D01*
X45306428Y-53550000D01*
X45344523Y-53511904D01*
X45344523Y-53588095D01*
X44620714Y-54273809D02*
X44696904Y-54311904D01*
X44849285Y-54311904D01*
X44925476Y-54273809D01*
X44963571Y-54235714D01*
X45001666Y-54159523D01*
X45001666Y-53930952D01*
X44963571Y-53854761D01*
X44925476Y-53816666D01*
X44849285Y-53778571D01*
X44696904Y-53778571D01*
X44620714Y-53816666D01*
X43973095Y-54273809D02*
X44049285Y-54311904D01*
X44201666Y-54311904D01*
X44277857Y-54273809D01*
X44315952Y-54197619D01*
X44315952Y-53892857D01*
X44277857Y-53816666D01*
X44201666Y-53778571D01*
X44049285Y-53778571D01*
X43973095Y-53816666D01*
X43935000Y-53892857D01*
X43935000Y-53969047D01*
X44315952Y-54045238D01*
X43592142Y-53778571D02*
X43592142Y-54578571D01*
X43592142Y-53816666D02*
X43515952Y-53778571D01*
X43363571Y-53778571D01*
X43287380Y-53816666D01*
X43249285Y-53854761D01*
X43211190Y-53930952D01*
X43211190Y-54159523D01*
X43249285Y-54235714D01*
X43287380Y-54273809D01*
X43363571Y-54311904D01*
X43515952Y-54311904D01*
X43592142Y-54273809D01*
X42754047Y-54311904D02*
X42830238Y-54273809D01*
X42868333Y-54235714D01*
X42906428Y-54159523D01*
X42906428Y-53930952D01*
X42868333Y-53854761D01*
X42830238Y-53816666D01*
X42754047Y-53778571D01*
X42639761Y-53778571D01*
X42563571Y-53816666D01*
X42525476Y-53854761D01*
X42487380Y-53930952D01*
X42487380Y-54159523D01*
X42525476Y-54235714D01*
X42563571Y-54273809D01*
X42639761Y-54311904D01*
X42754047Y-54311904D01*
X42030238Y-54311904D02*
X42106428Y-54273809D01*
X42144523Y-54235714D01*
X42182619Y-54159523D01*
X42182619Y-53930952D01*
X42144523Y-53854761D01*
X42106428Y-53816666D01*
X42030238Y-53778571D01*
X41915952Y-53778571D01*
X41839761Y-53816666D01*
X41801666Y-53854761D01*
X41763571Y-53930952D01*
X41763571Y-54159523D01*
X41801666Y-54235714D01*
X41839761Y-54273809D01*
X41915952Y-54311904D01*
X42030238Y-54311904D01*
X41306428Y-54311904D02*
X41382619Y-54273809D01*
X41420714Y-54197619D01*
X41420714Y-53511904D01*
X41001666Y-54007142D02*
X40392142Y-54007142D01*
X40011190Y-54311904D02*
X40011190Y-53511904D01*
X40011190Y-53816666D02*
X39935000Y-53778571D01*
X39782619Y-53778571D01*
X39706428Y-53816666D01*
X39668333Y-53854761D01*
X39630238Y-53930952D01*
X39630238Y-54159523D01*
X39668333Y-54235714D01*
X39706428Y-54273809D01*
X39782619Y-54311904D01*
X39935000Y-54311904D01*
X40011190Y-54273809D01*
X39173095Y-54311904D02*
X39249285Y-54273809D01*
X39287380Y-54235714D01*
X39325476Y-54159523D01*
X39325476Y-53930952D01*
X39287380Y-53854761D01*
X39249285Y-53816666D01*
X39173095Y-53778571D01*
X39058809Y-53778571D01*
X38982619Y-53816666D01*
X38944523Y-53854761D01*
X38906428Y-53930952D01*
X38906428Y-54159523D01*
X38944523Y-54235714D01*
X38982619Y-54273809D01*
X39058809Y-54311904D01*
X39173095Y-54311904D01*
X38220714Y-54311904D02*
X38220714Y-53892857D01*
X38258809Y-53816666D01*
X38335000Y-53778571D01*
X38487380Y-53778571D01*
X38563571Y-53816666D01*
X38220714Y-54273809D02*
X38296904Y-54311904D01*
X38487380Y-54311904D01*
X38563571Y-54273809D01*
X38601666Y-54197619D01*
X38601666Y-54121428D01*
X38563571Y-54045238D01*
X38487380Y-54007142D01*
X38296904Y-54007142D01*
X38220714Y-53969047D01*
X37839761Y-54311904D02*
X37839761Y-53778571D01*
X37839761Y-53930952D02*
X37801666Y-53854761D01*
X37763571Y-53816666D01*
X37687380Y-53778571D01*
X37611190Y-53778571D01*
X37001666Y-54311904D02*
X37001666Y-53511904D01*
X37001666Y-54273809D02*
X37077857Y-54311904D01*
X37230238Y-54311904D01*
X37306428Y-54273809D01*
X37344523Y-54235714D01*
X37382619Y-54159523D01*
X37382619Y-53930952D01*
X37344523Y-53854761D01*
X37306428Y-53816666D01*
X37230238Y-53778571D01*
X37077857Y-53778571D01*
X37001666Y-53816666D01*
X36049285Y-53588095D02*
X36011190Y-53550000D01*
X35935000Y-53511904D01*
X35744523Y-53511904D01*
X35668333Y-53550000D01*
X35630238Y-53588095D01*
X35592142Y-53664285D01*
X35592142Y-53740476D01*
X35630238Y-53854761D01*
X36087380Y-54311904D01*
X35592142Y-54311904D01*
X35096904Y-53511904D02*
X35020714Y-53511904D01*
X34944523Y-53550000D01*
X34906428Y-53588095D01*
X34868333Y-53664285D01*
X34830238Y-53816666D01*
X34830238Y-54007142D01*
X34868333Y-54159523D01*
X34906428Y-54235714D01*
X34944523Y-54273809D01*
X35020714Y-54311904D01*
X35096904Y-54311904D01*
X35173095Y-54273809D01*
X35211190Y-54235714D01*
X35249285Y-54159523D01*
X35287380Y-54007142D01*
X35287380Y-53816666D01*
X35249285Y-53664285D01*
X35211190Y-53588095D01*
X35173095Y-53550000D01*
X35096904Y-53511904D01*
X34525476Y-53588095D02*
X34487380Y-53550000D01*
X34411190Y-53511904D01*
X34220714Y-53511904D01*
X34144523Y-53550000D01*
X34106428Y-53588095D01*
X34068333Y-53664285D01*
X34068333Y-53740476D01*
X34106428Y-53854761D01*
X34563571Y-54311904D01*
X34068333Y-54311904D01*
X33573095Y-53511904D02*
X33496904Y-53511904D01*
X33420714Y-53550000D01*
X33382619Y-53588095D01*
X33344523Y-53664285D01*
X33306428Y-53816666D01*
X33306428Y-54007142D01*
X33344523Y-54159523D01*
X33382619Y-54235714D01*
X33420714Y-54273809D01*
X33496904Y-54311904D01*
X33573095Y-54311904D01*
X33649285Y-54273809D01*
X33687380Y-54235714D01*
X33725476Y-54159523D01*
X33763571Y-54007142D01*
X33763571Y-53816666D01*
X33725476Y-53664285D01*
X33687380Y-53588095D01*
X33649285Y-53550000D01*
X33573095Y-53511904D01*
X32963571Y-54007142D02*
X32354047Y-54007142D01*
X31820714Y-53511904D02*
X31744523Y-53511904D01*
X31668333Y-53550000D01*
X31630238Y-53588095D01*
X31592142Y-53664285D01*
X31554047Y-53816666D01*
X31554047Y-54007142D01*
X31592142Y-54159523D01*
X31630238Y-54235714D01*
X31668333Y-54273809D01*
X31744523Y-54311904D01*
X31820714Y-54311904D01*
X31896904Y-54273809D01*
X31935000Y-54235714D01*
X31973095Y-54159523D01*
X32011190Y-54007142D01*
X32011190Y-53816666D01*
X31973095Y-53664285D01*
X31935000Y-53588095D01*
X31896904Y-53550000D01*
X31820714Y-53511904D01*
X30868333Y-53778571D02*
X30868333Y-54311904D01*
X31058809Y-53473809D02*
X31249285Y-54045238D01*
X30754047Y-54045238D01*
X45458809Y-55078571D02*
X45154047Y-55078571D01*
X45344523Y-55611904D02*
X45344523Y-54926190D01*
X45306428Y-54850000D01*
X45230238Y-54811904D01*
X45154047Y-54811904D01*
X44773095Y-55611904D02*
X44849285Y-55573809D01*
X44887380Y-55535714D01*
X44925476Y-55459523D01*
X44925476Y-55230952D01*
X44887380Y-55154761D01*
X44849285Y-55116666D01*
X44773095Y-55078571D01*
X44658809Y-55078571D01*
X44582619Y-55116666D01*
X44544523Y-55154761D01*
X44506428Y-55230952D01*
X44506428Y-55459523D01*
X44544523Y-55535714D01*
X44582619Y-55573809D01*
X44658809Y-55611904D01*
X44773095Y-55611904D01*
X43820714Y-55078571D02*
X43820714Y-55611904D01*
X44163571Y-55078571D02*
X44163571Y-55497619D01*
X44125476Y-55573809D01*
X44049285Y-55611904D01*
X43935000Y-55611904D01*
X43858809Y-55573809D01*
X43820714Y-55535714D01*
X43439761Y-55611904D02*
X43439761Y-55078571D01*
X43439761Y-55230952D02*
X43401666Y-55154761D01*
X43363571Y-55116666D01*
X43287380Y-55078571D01*
X43211190Y-55078571D01*
X42982619Y-55573809D02*
X42906428Y-55611904D01*
X42754047Y-55611904D01*
X42677857Y-55573809D01*
X42639761Y-55497619D01*
X42639761Y-55459523D01*
X42677857Y-55383333D01*
X42754047Y-55345238D01*
X42868333Y-55345238D01*
X42944523Y-55307142D01*
X42982619Y-55230952D01*
X42982619Y-55192857D01*
X42944523Y-55116666D01*
X42868333Y-55078571D01*
X42754047Y-55078571D01*
X42677857Y-55116666D01*
X42296904Y-55611904D02*
X42296904Y-55078571D01*
X42296904Y-54811904D02*
X42335000Y-54850000D01*
X42296904Y-54888095D01*
X42258809Y-54850000D01*
X42296904Y-54811904D01*
X42296904Y-54888095D01*
X41573095Y-55611904D02*
X41573095Y-54811904D01*
X41573095Y-55573809D02*
X41649285Y-55611904D01*
X41801666Y-55611904D01*
X41877857Y-55573809D01*
X41915952Y-55535714D01*
X41954047Y-55459523D01*
X41954047Y-55230952D01*
X41915952Y-55154761D01*
X41877857Y-55116666D01*
X41801666Y-55078571D01*
X41649285Y-55078571D01*
X41573095Y-55116666D01*
X40887380Y-55573809D02*
X40963571Y-55611904D01*
X41115952Y-55611904D01*
X41192142Y-55573809D01*
X41230238Y-55497619D01*
X41230238Y-55192857D01*
X41192142Y-55116666D01*
X41115952Y-55078571D01*
X40963571Y-55078571D01*
X40887380Y-55116666D01*
X40849285Y-55192857D01*
X40849285Y-55269047D01*
X41230238Y-55345238D01*
X40506428Y-55535714D02*
X40468333Y-55573809D01*
X40506428Y-55611904D01*
X40544523Y-55573809D01*
X40506428Y-55535714D01*
X40506428Y-55611904D01*
X40125476Y-55611904D02*
X40125476Y-55078571D01*
X40125476Y-54811904D02*
X40163571Y-54850000D01*
X40125476Y-54888095D01*
X40087380Y-54850000D01*
X40125476Y-54811904D01*
X40125476Y-54888095D01*
X39630238Y-55611904D02*
X39706428Y-55573809D01*
X39744523Y-55535714D01*
X39782619Y-55459523D01*
X39782619Y-55230952D01*
X39744523Y-55154761D01*
X39706428Y-55116666D01*
X39630238Y-55078571D01*
X39515952Y-55078571D01*
X39439761Y-55116666D01*
X39401666Y-55154761D01*
X39363571Y-55230952D01*
X39363571Y-55459523D01*
X39401666Y-55535714D01*
X39439761Y-55573809D01*
X39515952Y-55611904D01*
X39630238Y-55611904D01*
D13*
G04 #@! TO.C,TP6*
X51900000Y-76400000D03*
G04 #@! TD*
G04 #@! TO.C,TP5*
X66900000Y-63600000D03*
G04 #@! TD*
G04 #@! TO.C,TP4*
X51900000Y-63600000D03*
G04 #@! TD*
G04 #@! TO.C,TP3*
X51900000Y-78400000D03*
G04 #@! TD*
G04 #@! TO.C,TP2*
X66900000Y-61600000D03*
G04 #@! TD*
G04 #@! TO.C,TP1*
X51900000Y-61600000D03*
G04 #@! TD*
D14*
G04 #@! TO.C,SW1*
X34500000Y-80000000D03*
G04 #@! TD*
D15*
G04 #@! TO.C,R10*
G36*
X60474847Y-83430033D02*
G01*
X60491631Y-83432522D01*
X60508090Y-83436645D01*
X60524066Y-83442361D01*
X60539404Y-83449616D01*
X60553958Y-83458339D01*
X60567587Y-83468446D01*
X60580159Y-83479841D01*
X60591554Y-83492413D01*
X60601661Y-83506042D01*
X60610384Y-83520596D01*
X60617639Y-83535934D01*
X60623355Y-83551910D01*
X60627478Y-83568369D01*
X60629967Y-83585153D01*
X60630800Y-83602100D01*
X60630800Y-83997900D01*
X60629967Y-84014847D01*
X60627478Y-84031631D01*
X60623355Y-84048090D01*
X60617639Y-84064066D01*
X60610384Y-84079404D01*
X60601661Y-84093958D01*
X60591554Y-84107587D01*
X60580159Y-84120159D01*
X60567587Y-84131554D01*
X60553958Y-84141661D01*
X60539404Y-84150384D01*
X60524066Y-84157639D01*
X60508090Y-84163355D01*
X60491631Y-84167478D01*
X60474847Y-84169967D01*
X60457900Y-84170800D01*
X60112100Y-84170800D01*
X60095153Y-84169967D01*
X60078369Y-84167478D01*
X60061910Y-84163355D01*
X60045934Y-84157639D01*
X60030596Y-84150384D01*
X60016042Y-84141661D01*
X60002413Y-84131554D01*
X59989841Y-84120159D01*
X59978446Y-84107587D01*
X59968339Y-84093958D01*
X59959616Y-84079404D01*
X59952361Y-84064066D01*
X59946645Y-84048090D01*
X59942522Y-84031631D01*
X59940033Y-84014847D01*
X59939200Y-83997900D01*
X59939200Y-83602100D01*
X59940033Y-83585153D01*
X59942522Y-83568369D01*
X59946645Y-83551910D01*
X59952361Y-83535934D01*
X59959616Y-83520596D01*
X59968339Y-83506042D01*
X59978446Y-83492413D01*
X59989841Y-83479841D01*
X60002413Y-83468446D01*
X60016042Y-83458339D01*
X60030596Y-83449616D01*
X60045934Y-83442361D01*
X60061910Y-83436645D01*
X60078369Y-83432522D01*
X60095153Y-83430033D01*
X60112100Y-83429200D01*
X60457900Y-83429200D01*
X60474847Y-83430033D01*
X60474847Y-83430033D01*
G37*
D16*
X60285000Y-83800000D03*
D15*
G36*
X59504847Y-83430033D02*
G01*
X59521631Y-83432522D01*
X59538090Y-83436645D01*
X59554066Y-83442361D01*
X59569404Y-83449616D01*
X59583958Y-83458339D01*
X59597587Y-83468446D01*
X59610159Y-83479841D01*
X59621554Y-83492413D01*
X59631661Y-83506042D01*
X59640384Y-83520596D01*
X59647639Y-83535934D01*
X59653355Y-83551910D01*
X59657478Y-83568369D01*
X59659967Y-83585153D01*
X59660800Y-83602100D01*
X59660800Y-83997900D01*
X59659967Y-84014847D01*
X59657478Y-84031631D01*
X59653355Y-84048090D01*
X59647639Y-84064066D01*
X59640384Y-84079404D01*
X59631661Y-84093958D01*
X59621554Y-84107587D01*
X59610159Y-84120159D01*
X59597587Y-84131554D01*
X59583958Y-84141661D01*
X59569404Y-84150384D01*
X59554066Y-84157639D01*
X59538090Y-84163355D01*
X59521631Y-84167478D01*
X59504847Y-84169967D01*
X59487900Y-84170800D01*
X59142100Y-84170800D01*
X59125153Y-84169967D01*
X59108369Y-84167478D01*
X59091910Y-84163355D01*
X59075934Y-84157639D01*
X59060596Y-84150384D01*
X59046042Y-84141661D01*
X59032413Y-84131554D01*
X59019841Y-84120159D01*
X59008446Y-84107587D01*
X58998339Y-84093958D01*
X58989616Y-84079404D01*
X58982361Y-84064066D01*
X58976645Y-84048090D01*
X58972522Y-84031631D01*
X58970033Y-84014847D01*
X58969200Y-83997900D01*
X58969200Y-83602100D01*
X58970033Y-83585153D01*
X58972522Y-83568369D01*
X58976645Y-83551910D01*
X58982361Y-83535934D01*
X58989616Y-83520596D01*
X58998339Y-83506042D01*
X59008446Y-83492413D01*
X59019841Y-83479841D01*
X59032413Y-83468446D01*
X59046042Y-83458339D01*
X59060596Y-83449616D01*
X59075934Y-83442361D01*
X59091910Y-83436645D01*
X59108369Y-83432522D01*
X59125153Y-83430033D01*
X59142100Y-83429200D01*
X59487900Y-83429200D01*
X59504847Y-83430033D01*
X59504847Y-83430033D01*
G37*
D16*
X59315000Y-83800000D03*
G04 #@! TD*
D15*
G04 #@! TO.C,R9*
G36*
X55414848Y-74740033D02*
G01*
X55431632Y-74742522D01*
X55448091Y-74746645D01*
X55464067Y-74752361D01*
X55479405Y-74759616D01*
X55493959Y-74768339D01*
X55507588Y-74778446D01*
X55520160Y-74789841D01*
X55531555Y-74802413D01*
X55541662Y-74816042D01*
X55550385Y-74830596D01*
X55557640Y-74845934D01*
X55563356Y-74861910D01*
X55567479Y-74878369D01*
X55569968Y-74895153D01*
X55570801Y-74912100D01*
X55570801Y-75257900D01*
X55569968Y-75274847D01*
X55567479Y-75291631D01*
X55563356Y-75308090D01*
X55557640Y-75324066D01*
X55550385Y-75339404D01*
X55541662Y-75353958D01*
X55531555Y-75367587D01*
X55520160Y-75380159D01*
X55507588Y-75391554D01*
X55493959Y-75401661D01*
X55479405Y-75410384D01*
X55464067Y-75417639D01*
X55448091Y-75423355D01*
X55431632Y-75427478D01*
X55414848Y-75429967D01*
X55397901Y-75430800D01*
X55002101Y-75430800D01*
X54985154Y-75429967D01*
X54968370Y-75427478D01*
X54951911Y-75423355D01*
X54935935Y-75417639D01*
X54920597Y-75410384D01*
X54906043Y-75401661D01*
X54892414Y-75391554D01*
X54879842Y-75380159D01*
X54868447Y-75367587D01*
X54858340Y-75353958D01*
X54849617Y-75339404D01*
X54842362Y-75324066D01*
X54836646Y-75308090D01*
X54832523Y-75291631D01*
X54830034Y-75274847D01*
X54829201Y-75257900D01*
X54829201Y-74912100D01*
X54830034Y-74895153D01*
X54832523Y-74878369D01*
X54836646Y-74861910D01*
X54842362Y-74845934D01*
X54849617Y-74830596D01*
X54858340Y-74816042D01*
X54868447Y-74802413D01*
X54879842Y-74789841D01*
X54892414Y-74778446D01*
X54906043Y-74768339D01*
X54920597Y-74759616D01*
X54935935Y-74752361D01*
X54951911Y-74746645D01*
X54968370Y-74742522D01*
X54985154Y-74740033D01*
X55002101Y-74739200D01*
X55397901Y-74739200D01*
X55414848Y-74740033D01*
X55414848Y-74740033D01*
G37*
D16*
X55200001Y-75085000D03*
D15*
G36*
X55414848Y-73770033D02*
G01*
X55431632Y-73772522D01*
X55448091Y-73776645D01*
X55464067Y-73782361D01*
X55479405Y-73789616D01*
X55493959Y-73798339D01*
X55507588Y-73808446D01*
X55520160Y-73819841D01*
X55531555Y-73832413D01*
X55541662Y-73846042D01*
X55550385Y-73860596D01*
X55557640Y-73875934D01*
X55563356Y-73891910D01*
X55567479Y-73908369D01*
X55569968Y-73925153D01*
X55570801Y-73942100D01*
X55570801Y-74287900D01*
X55569968Y-74304847D01*
X55567479Y-74321631D01*
X55563356Y-74338090D01*
X55557640Y-74354066D01*
X55550385Y-74369404D01*
X55541662Y-74383958D01*
X55531555Y-74397587D01*
X55520160Y-74410159D01*
X55507588Y-74421554D01*
X55493959Y-74431661D01*
X55479405Y-74440384D01*
X55464067Y-74447639D01*
X55448091Y-74453355D01*
X55431632Y-74457478D01*
X55414848Y-74459967D01*
X55397901Y-74460800D01*
X55002101Y-74460800D01*
X54985154Y-74459967D01*
X54968370Y-74457478D01*
X54951911Y-74453355D01*
X54935935Y-74447639D01*
X54920597Y-74440384D01*
X54906043Y-74431661D01*
X54892414Y-74421554D01*
X54879842Y-74410159D01*
X54868447Y-74397587D01*
X54858340Y-74383958D01*
X54849617Y-74369404D01*
X54842362Y-74354066D01*
X54836646Y-74338090D01*
X54832523Y-74321631D01*
X54830034Y-74304847D01*
X54829201Y-74287900D01*
X54829201Y-73942100D01*
X54830034Y-73925153D01*
X54832523Y-73908369D01*
X54836646Y-73891910D01*
X54842362Y-73875934D01*
X54849617Y-73860596D01*
X54858340Y-73846042D01*
X54868447Y-73832413D01*
X54879842Y-73819841D01*
X54892414Y-73808446D01*
X54906043Y-73798339D01*
X54920597Y-73789616D01*
X54935935Y-73782361D01*
X54951911Y-73776645D01*
X54968370Y-73772522D01*
X54985154Y-73770033D01*
X55002101Y-73769200D01*
X55397901Y-73769200D01*
X55414848Y-73770033D01*
X55414848Y-73770033D01*
G37*
D16*
X55200001Y-74115000D03*
G04 #@! TD*
D15*
G04 #@! TO.C,R7*
G36*
X58604847Y-55830033D02*
G01*
X58621631Y-55832522D01*
X58638090Y-55836645D01*
X58654066Y-55842361D01*
X58669404Y-55849616D01*
X58683958Y-55858339D01*
X58697587Y-55868446D01*
X58710159Y-55879841D01*
X58721554Y-55892413D01*
X58731661Y-55906042D01*
X58740384Y-55920596D01*
X58747639Y-55935934D01*
X58753355Y-55951910D01*
X58757478Y-55968369D01*
X58759967Y-55985153D01*
X58760800Y-56002100D01*
X58760800Y-56397900D01*
X58759967Y-56414847D01*
X58757478Y-56431631D01*
X58753355Y-56448090D01*
X58747639Y-56464066D01*
X58740384Y-56479404D01*
X58731661Y-56493958D01*
X58721554Y-56507587D01*
X58710159Y-56520159D01*
X58697587Y-56531554D01*
X58683958Y-56541661D01*
X58669404Y-56550384D01*
X58654066Y-56557639D01*
X58638090Y-56563355D01*
X58621631Y-56567478D01*
X58604847Y-56569967D01*
X58587900Y-56570800D01*
X58242100Y-56570800D01*
X58225153Y-56569967D01*
X58208369Y-56567478D01*
X58191910Y-56563355D01*
X58175934Y-56557639D01*
X58160596Y-56550384D01*
X58146042Y-56541661D01*
X58132413Y-56531554D01*
X58119841Y-56520159D01*
X58108446Y-56507587D01*
X58098339Y-56493958D01*
X58089616Y-56479404D01*
X58082361Y-56464066D01*
X58076645Y-56448090D01*
X58072522Y-56431631D01*
X58070033Y-56414847D01*
X58069200Y-56397900D01*
X58069200Y-56002100D01*
X58070033Y-55985153D01*
X58072522Y-55968369D01*
X58076645Y-55951910D01*
X58082361Y-55935934D01*
X58089616Y-55920596D01*
X58098339Y-55906042D01*
X58108446Y-55892413D01*
X58119841Y-55879841D01*
X58132413Y-55868446D01*
X58146042Y-55858339D01*
X58160596Y-55849616D01*
X58175934Y-55842361D01*
X58191910Y-55836645D01*
X58208369Y-55832522D01*
X58225153Y-55830033D01*
X58242100Y-55829200D01*
X58587900Y-55829200D01*
X58604847Y-55830033D01*
X58604847Y-55830033D01*
G37*
D16*
X58415000Y-56200000D03*
D15*
G36*
X59574847Y-55830033D02*
G01*
X59591631Y-55832522D01*
X59608090Y-55836645D01*
X59624066Y-55842361D01*
X59639404Y-55849616D01*
X59653958Y-55858339D01*
X59667587Y-55868446D01*
X59680159Y-55879841D01*
X59691554Y-55892413D01*
X59701661Y-55906042D01*
X59710384Y-55920596D01*
X59717639Y-55935934D01*
X59723355Y-55951910D01*
X59727478Y-55968369D01*
X59729967Y-55985153D01*
X59730800Y-56002100D01*
X59730800Y-56397900D01*
X59729967Y-56414847D01*
X59727478Y-56431631D01*
X59723355Y-56448090D01*
X59717639Y-56464066D01*
X59710384Y-56479404D01*
X59701661Y-56493958D01*
X59691554Y-56507587D01*
X59680159Y-56520159D01*
X59667587Y-56531554D01*
X59653958Y-56541661D01*
X59639404Y-56550384D01*
X59624066Y-56557639D01*
X59608090Y-56563355D01*
X59591631Y-56567478D01*
X59574847Y-56569967D01*
X59557900Y-56570800D01*
X59212100Y-56570800D01*
X59195153Y-56569967D01*
X59178369Y-56567478D01*
X59161910Y-56563355D01*
X59145934Y-56557639D01*
X59130596Y-56550384D01*
X59116042Y-56541661D01*
X59102413Y-56531554D01*
X59089841Y-56520159D01*
X59078446Y-56507587D01*
X59068339Y-56493958D01*
X59059616Y-56479404D01*
X59052361Y-56464066D01*
X59046645Y-56448090D01*
X59042522Y-56431631D01*
X59040033Y-56414847D01*
X59039200Y-56397900D01*
X59039200Y-56002100D01*
X59040033Y-55985153D01*
X59042522Y-55968369D01*
X59046645Y-55951910D01*
X59052361Y-55935934D01*
X59059616Y-55920596D01*
X59068339Y-55906042D01*
X59078446Y-55892413D01*
X59089841Y-55879841D01*
X59102413Y-55868446D01*
X59116042Y-55858339D01*
X59130596Y-55849616D01*
X59145934Y-55842361D01*
X59161910Y-55836645D01*
X59178369Y-55832522D01*
X59195153Y-55830033D01*
X59212100Y-55829200D01*
X59557900Y-55829200D01*
X59574847Y-55830033D01*
X59574847Y-55830033D01*
G37*
D16*
X59385000Y-56200000D03*
G04 #@! TD*
D15*
G04 #@! TO.C,R6*
G36*
X63814847Y-64570033D02*
G01*
X63831631Y-64572522D01*
X63848090Y-64576645D01*
X63864066Y-64582361D01*
X63879404Y-64589616D01*
X63893958Y-64598339D01*
X63907587Y-64608446D01*
X63920159Y-64619841D01*
X63931554Y-64632413D01*
X63941661Y-64646042D01*
X63950384Y-64660596D01*
X63957639Y-64675934D01*
X63963355Y-64691910D01*
X63967478Y-64708369D01*
X63969967Y-64725153D01*
X63970800Y-64742100D01*
X63970800Y-65087900D01*
X63969967Y-65104847D01*
X63967478Y-65121631D01*
X63963355Y-65138090D01*
X63957639Y-65154066D01*
X63950384Y-65169404D01*
X63941661Y-65183958D01*
X63931554Y-65197587D01*
X63920159Y-65210159D01*
X63907587Y-65221554D01*
X63893958Y-65231661D01*
X63879404Y-65240384D01*
X63864066Y-65247639D01*
X63848090Y-65253355D01*
X63831631Y-65257478D01*
X63814847Y-65259967D01*
X63797900Y-65260800D01*
X63402100Y-65260800D01*
X63385153Y-65259967D01*
X63368369Y-65257478D01*
X63351910Y-65253355D01*
X63335934Y-65247639D01*
X63320596Y-65240384D01*
X63306042Y-65231661D01*
X63292413Y-65221554D01*
X63279841Y-65210159D01*
X63268446Y-65197587D01*
X63258339Y-65183958D01*
X63249616Y-65169404D01*
X63242361Y-65154066D01*
X63236645Y-65138090D01*
X63232522Y-65121631D01*
X63230033Y-65104847D01*
X63229200Y-65087900D01*
X63229200Y-64742100D01*
X63230033Y-64725153D01*
X63232522Y-64708369D01*
X63236645Y-64691910D01*
X63242361Y-64675934D01*
X63249616Y-64660596D01*
X63258339Y-64646042D01*
X63268446Y-64632413D01*
X63279841Y-64619841D01*
X63292413Y-64608446D01*
X63306042Y-64598339D01*
X63320596Y-64589616D01*
X63335934Y-64582361D01*
X63351910Y-64576645D01*
X63368369Y-64572522D01*
X63385153Y-64570033D01*
X63402100Y-64569200D01*
X63797900Y-64569200D01*
X63814847Y-64570033D01*
X63814847Y-64570033D01*
G37*
D16*
X63600000Y-64915000D03*
D15*
G36*
X63814847Y-65540033D02*
G01*
X63831631Y-65542522D01*
X63848090Y-65546645D01*
X63864066Y-65552361D01*
X63879404Y-65559616D01*
X63893958Y-65568339D01*
X63907587Y-65578446D01*
X63920159Y-65589841D01*
X63931554Y-65602413D01*
X63941661Y-65616042D01*
X63950384Y-65630596D01*
X63957639Y-65645934D01*
X63963355Y-65661910D01*
X63967478Y-65678369D01*
X63969967Y-65695153D01*
X63970800Y-65712100D01*
X63970800Y-66057900D01*
X63969967Y-66074847D01*
X63967478Y-66091631D01*
X63963355Y-66108090D01*
X63957639Y-66124066D01*
X63950384Y-66139404D01*
X63941661Y-66153958D01*
X63931554Y-66167587D01*
X63920159Y-66180159D01*
X63907587Y-66191554D01*
X63893958Y-66201661D01*
X63879404Y-66210384D01*
X63864066Y-66217639D01*
X63848090Y-66223355D01*
X63831631Y-66227478D01*
X63814847Y-66229967D01*
X63797900Y-66230800D01*
X63402100Y-66230800D01*
X63385153Y-66229967D01*
X63368369Y-66227478D01*
X63351910Y-66223355D01*
X63335934Y-66217639D01*
X63320596Y-66210384D01*
X63306042Y-66201661D01*
X63292413Y-66191554D01*
X63279841Y-66180159D01*
X63268446Y-66167587D01*
X63258339Y-66153958D01*
X63249616Y-66139404D01*
X63242361Y-66124066D01*
X63236645Y-66108090D01*
X63232522Y-66091631D01*
X63230033Y-66074847D01*
X63229200Y-66057900D01*
X63229200Y-65712100D01*
X63230033Y-65695153D01*
X63232522Y-65678369D01*
X63236645Y-65661910D01*
X63242361Y-65645934D01*
X63249616Y-65630596D01*
X63258339Y-65616042D01*
X63268446Y-65602413D01*
X63279841Y-65589841D01*
X63292413Y-65578446D01*
X63306042Y-65568339D01*
X63320596Y-65559616D01*
X63335934Y-65552361D01*
X63351910Y-65546645D01*
X63368369Y-65542522D01*
X63385153Y-65540033D01*
X63402100Y-65539200D01*
X63797900Y-65539200D01*
X63814847Y-65540033D01*
X63814847Y-65540033D01*
G37*
D16*
X63600000Y-65885000D03*
G04 #@! TD*
D17*
G04 #@! TO.C,JP2*
X54800000Y-82150000D03*
X54800000Y-83450000D03*
G04 #@! TD*
G04 #@! TO.C,JP1*
X64000000Y-57850000D03*
X64000000Y-56550000D03*
G04 #@! TD*
D18*
G04 #@! TO.C,J5*
X38840000Y-86500000D03*
X41380000Y-86500000D03*
X43920000Y-86500000D03*
X46460000Y-86500000D03*
D19*
X49000000Y-86500000D03*
G04 #@! TD*
D18*
G04 #@! TO.C,J3*
X35040000Y-86500000D03*
D19*
X32500000Y-86500000D03*
G04 #@! TD*
D20*
G04 #@! TO.C,J2*
X26962500Y-73500000D03*
X26962500Y-66500000D03*
D21*
X29662500Y-72500000D03*
X29662500Y-67500000D03*
G04 #@! TD*
D18*
G04 #@! TO.C,J1*
X27500000Y-63000000D03*
D19*
X27500000Y-60460000D03*
G04 #@! TD*
D14*
G04 #@! TO.C,H4*
X28325825Y-85674175D03*
X27000000Y-85125000D03*
X25674175Y-85674175D03*
X25125000Y-87000000D03*
X25674175Y-88325825D03*
X27000000Y-88875000D03*
X28325825Y-88325825D03*
X28875000Y-87000000D03*
D22*
X27000000Y-87000000D03*
G04 #@! TD*
D14*
G04 #@! TO.C,H3*
X73325825Y-85674175D03*
X72000000Y-85125000D03*
X70674175Y-85674175D03*
X70125000Y-87000000D03*
X70674175Y-88325825D03*
X72000000Y-88875000D03*
X73325825Y-88325825D03*
X73875000Y-87000000D03*
D22*
X72000000Y-87000000D03*
G04 #@! TD*
D14*
G04 #@! TO.C,H2*
X73325825Y-51674175D03*
X72000000Y-51125000D03*
X70674175Y-51674175D03*
X70125000Y-53000000D03*
X70674175Y-54325825D03*
X72000000Y-54875000D03*
X73325825Y-54325825D03*
X73875000Y-53000000D03*
D22*
X72000000Y-53000000D03*
G04 #@! TD*
D14*
G04 #@! TO.C,H1*
X28325825Y-51674175D03*
X27000000Y-51125000D03*
X25674175Y-51674175D03*
X25125000Y-53000000D03*
X25674175Y-54325825D03*
X27000000Y-54875000D03*
X28325825Y-54325825D03*
X28875000Y-53000000D03*
D22*
X27000000Y-53000000D03*
G04 #@! TD*
D15*
G04 #@! TO.C,C50*
G36*
X60474847Y-80430033D02*
G01*
X60491631Y-80432522D01*
X60508090Y-80436645D01*
X60524066Y-80442361D01*
X60539404Y-80449616D01*
X60553958Y-80458339D01*
X60567587Y-80468446D01*
X60580159Y-80479841D01*
X60591554Y-80492413D01*
X60601661Y-80506042D01*
X60610384Y-80520596D01*
X60617639Y-80535934D01*
X60623355Y-80551910D01*
X60627478Y-80568369D01*
X60629967Y-80585153D01*
X60630800Y-80602100D01*
X60630800Y-80997900D01*
X60629967Y-81014847D01*
X60627478Y-81031631D01*
X60623355Y-81048090D01*
X60617639Y-81064066D01*
X60610384Y-81079404D01*
X60601661Y-81093958D01*
X60591554Y-81107587D01*
X60580159Y-81120159D01*
X60567587Y-81131554D01*
X60553958Y-81141661D01*
X60539404Y-81150384D01*
X60524066Y-81157639D01*
X60508090Y-81163355D01*
X60491631Y-81167478D01*
X60474847Y-81169967D01*
X60457900Y-81170800D01*
X60112100Y-81170800D01*
X60095153Y-81169967D01*
X60078369Y-81167478D01*
X60061910Y-81163355D01*
X60045934Y-81157639D01*
X60030596Y-81150384D01*
X60016042Y-81141661D01*
X60002413Y-81131554D01*
X59989841Y-81120159D01*
X59978446Y-81107587D01*
X59968339Y-81093958D01*
X59959616Y-81079404D01*
X59952361Y-81064066D01*
X59946645Y-81048090D01*
X59942522Y-81031631D01*
X59940033Y-81014847D01*
X59939200Y-80997900D01*
X59939200Y-80602100D01*
X59940033Y-80585153D01*
X59942522Y-80568369D01*
X59946645Y-80551910D01*
X59952361Y-80535934D01*
X59959616Y-80520596D01*
X59968339Y-80506042D01*
X59978446Y-80492413D01*
X59989841Y-80479841D01*
X60002413Y-80468446D01*
X60016042Y-80458339D01*
X60030596Y-80449616D01*
X60045934Y-80442361D01*
X60061910Y-80436645D01*
X60078369Y-80432522D01*
X60095153Y-80430033D01*
X60112100Y-80429200D01*
X60457900Y-80429200D01*
X60474847Y-80430033D01*
X60474847Y-80430033D01*
G37*
D16*
X60285000Y-80800000D03*
D15*
G36*
X59504847Y-80430033D02*
G01*
X59521631Y-80432522D01*
X59538090Y-80436645D01*
X59554066Y-80442361D01*
X59569404Y-80449616D01*
X59583958Y-80458339D01*
X59597587Y-80468446D01*
X59610159Y-80479841D01*
X59621554Y-80492413D01*
X59631661Y-80506042D01*
X59640384Y-80520596D01*
X59647639Y-80535934D01*
X59653355Y-80551910D01*
X59657478Y-80568369D01*
X59659967Y-80585153D01*
X59660800Y-80602100D01*
X59660800Y-80997900D01*
X59659967Y-81014847D01*
X59657478Y-81031631D01*
X59653355Y-81048090D01*
X59647639Y-81064066D01*
X59640384Y-81079404D01*
X59631661Y-81093958D01*
X59621554Y-81107587D01*
X59610159Y-81120159D01*
X59597587Y-81131554D01*
X59583958Y-81141661D01*
X59569404Y-81150384D01*
X59554066Y-81157639D01*
X59538090Y-81163355D01*
X59521631Y-81167478D01*
X59504847Y-81169967D01*
X59487900Y-81170800D01*
X59142100Y-81170800D01*
X59125153Y-81169967D01*
X59108369Y-81167478D01*
X59091910Y-81163355D01*
X59075934Y-81157639D01*
X59060596Y-81150384D01*
X59046042Y-81141661D01*
X59032413Y-81131554D01*
X59019841Y-81120159D01*
X59008446Y-81107587D01*
X58998339Y-81093958D01*
X58989616Y-81079404D01*
X58982361Y-81064066D01*
X58976645Y-81048090D01*
X58972522Y-81031631D01*
X58970033Y-81014847D01*
X58969200Y-80997900D01*
X58969200Y-80602100D01*
X58970033Y-80585153D01*
X58972522Y-80568369D01*
X58976645Y-80551910D01*
X58982361Y-80535934D01*
X58989616Y-80520596D01*
X58998339Y-80506042D01*
X59008446Y-80492413D01*
X59019841Y-80479841D01*
X59032413Y-80468446D01*
X59046042Y-80458339D01*
X59060596Y-80449616D01*
X59075934Y-80442361D01*
X59091910Y-80436645D01*
X59108369Y-80432522D01*
X59125153Y-80430033D01*
X59142100Y-80429200D01*
X59487900Y-80429200D01*
X59504847Y-80430033D01*
X59504847Y-80430033D01*
G37*
D16*
X59315000Y-80800000D03*
G04 #@! TD*
D15*
G04 #@! TO.C,C49*
G36*
X58414847Y-72770033D02*
G01*
X58431631Y-72772522D01*
X58448090Y-72776645D01*
X58464066Y-72782361D01*
X58479404Y-72789616D01*
X58493958Y-72798339D01*
X58507587Y-72808446D01*
X58520159Y-72819841D01*
X58531554Y-72832413D01*
X58541661Y-72846042D01*
X58550384Y-72860596D01*
X58557639Y-72875934D01*
X58563355Y-72891910D01*
X58567478Y-72908369D01*
X58569967Y-72925153D01*
X58570800Y-72942100D01*
X58570800Y-73287900D01*
X58569967Y-73304847D01*
X58567478Y-73321631D01*
X58563355Y-73338090D01*
X58557639Y-73354066D01*
X58550384Y-73369404D01*
X58541661Y-73383958D01*
X58531554Y-73397587D01*
X58520159Y-73410159D01*
X58507587Y-73421554D01*
X58493958Y-73431661D01*
X58479404Y-73440384D01*
X58464066Y-73447639D01*
X58448090Y-73453355D01*
X58431631Y-73457478D01*
X58414847Y-73459967D01*
X58397900Y-73460800D01*
X58002100Y-73460800D01*
X57985153Y-73459967D01*
X57968369Y-73457478D01*
X57951910Y-73453355D01*
X57935934Y-73447639D01*
X57920596Y-73440384D01*
X57906042Y-73431661D01*
X57892413Y-73421554D01*
X57879841Y-73410159D01*
X57868446Y-73397587D01*
X57858339Y-73383958D01*
X57849616Y-73369404D01*
X57842361Y-73354066D01*
X57836645Y-73338090D01*
X57832522Y-73321631D01*
X57830033Y-73304847D01*
X57829200Y-73287900D01*
X57829200Y-72942100D01*
X57830033Y-72925153D01*
X57832522Y-72908369D01*
X57836645Y-72891910D01*
X57842361Y-72875934D01*
X57849616Y-72860596D01*
X57858339Y-72846042D01*
X57868446Y-72832413D01*
X57879841Y-72819841D01*
X57892413Y-72808446D01*
X57906042Y-72798339D01*
X57920596Y-72789616D01*
X57935934Y-72782361D01*
X57951910Y-72776645D01*
X57968369Y-72772522D01*
X57985153Y-72770033D01*
X58002100Y-72769200D01*
X58397900Y-72769200D01*
X58414847Y-72770033D01*
X58414847Y-72770033D01*
G37*
D16*
X58200000Y-73115000D03*
D15*
G36*
X58414847Y-73740033D02*
G01*
X58431631Y-73742522D01*
X58448090Y-73746645D01*
X58464066Y-73752361D01*
X58479404Y-73759616D01*
X58493958Y-73768339D01*
X58507587Y-73778446D01*
X58520159Y-73789841D01*
X58531554Y-73802413D01*
X58541661Y-73816042D01*
X58550384Y-73830596D01*
X58557639Y-73845934D01*
X58563355Y-73861910D01*
X58567478Y-73878369D01*
X58569967Y-73895153D01*
X58570800Y-73912100D01*
X58570800Y-74257900D01*
X58569967Y-74274847D01*
X58567478Y-74291631D01*
X58563355Y-74308090D01*
X58557639Y-74324066D01*
X58550384Y-74339404D01*
X58541661Y-74353958D01*
X58531554Y-74367587D01*
X58520159Y-74380159D01*
X58507587Y-74391554D01*
X58493958Y-74401661D01*
X58479404Y-74410384D01*
X58464066Y-74417639D01*
X58448090Y-74423355D01*
X58431631Y-74427478D01*
X58414847Y-74429967D01*
X58397900Y-74430800D01*
X58002100Y-74430800D01*
X57985153Y-74429967D01*
X57968369Y-74427478D01*
X57951910Y-74423355D01*
X57935934Y-74417639D01*
X57920596Y-74410384D01*
X57906042Y-74401661D01*
X57892413Y-74391554D01*
X57879841Y-74380159D01*
X57868446Y-74367587D01*
X57858339Y-74353958D01*
X57849616Y-74339404D01*
X57842361Y-74324066D01*
X57836645Y-74308090D01*
X57832522Y-74291631D01*
X57830033Y-74274847D01*
X57829200Y-74257900D01*
X57829200Y-73912100D01*
X57830033Y-73895153D01*
X57832522Y-73878369D01*
X57836645Y-73861910D01*
X57842361Y-73845934D01*
X57849616Y-73830596D01*
X57858339Y-73816042D01*
X57868446Y-73802413D01*
X57879841Y-73789841D01*
X57892413Y-73778446D01*
X57906042Y-73768339D01*
X57920596Y-73759616D01*
X57935934Y-73752361D01*
X57951910Y-73746645D01*
X57968369Y-73742522D01*
X57985153Y-73740033D01*
X58002100Y-73739200D01*
X58397900Y-73739200D01*
X58414847Y-73740033D01*
X58414847Y-73740033D01*
G37*
D16*
X58200000Y-74085000D03*
G04 #@! TD*
D15*
G04 #@! TO.C,C48*
G36*
X55474847Y-80230033D02*
G01*
X55491631Y-80232522D01*
X55508090Y-80236645D01*
X55524066Y-80242361D01*
X55539404Y-80249616D01*
X55553958Y-80258339D01*
X55567587Y-80268446D01*
X55580159Y-80279841D01*
X55591554Y-80292413D01*
X55601661Y-80306042D01*
X55610384Y-80320596D01*
X55617639Y-80335934D01*
X55623355Y-80351910D01*
X55627478Y-80368369D01*
X55629967Y-80385153D01*
X55630800Y-80402100D01*
X55630800Y-80797900D01*
X55629967Y-80814847D01*
X55627478Y-80831631D01*
X55623355Y-80848090D01*
X55617639Y-80864066D01*
X55610384Y-80879404D01*
X55601661Y-80893958D01*
X55591554Y-80907587D01*
X55580159Y-80920159D01*
X55567587Y-80931554D01*
X55553958Y-80941661D01*
X55539404Y-80950384D01*
X55524066Y-80957639D01*
X55508090Y-80963355D01*
X55491631Y-80967478D01*
X55474847Y-80969967D01*
X55457900Y-80970800D01*
X55112100Y-80970800D01*
X55095153Y-80969967D01*
X55078369Y-80967478D01*
X55061910Y-80963355D01*
X55045934Y-80957639D01*
X55030596Y-80950384D01*
X55016042Y-80941661D01*
X55002413Y-80931554D01*
X54989841Y-80920159D01*
X54978446Y-80907587D01*
X54968339Y-80893958D01*
X54959616Y-80879404D01*
X54952361Y-80864066D01*
X54946645Y-80848090D01*
X54942522Y-80831631D01*
X54940033Y-80814847D01*
X54939200Y-80797900D01*
X54939200Y-80402100D01*
X54940033Y-80385153D01*
X54942522Y-80368369D01*
X54946645Y-80351910D01*
X54952361Y-80335934D01*
X54959616Y-80320596D01*
X54968339Y-80306042D01*
X54978446Y-80292413D01*
X54989841Y-80279841D01*
X55002413Y-80268446D01*
X55016042Y-80258339D01*
X55030596Y-80249616D01*
X55045934Y-80242361D01*
X55061910Y-80236645D01*
X55078369Y-80232522D01*
X55095153Y-80230033D01*
X55112100Y-80229200D01*
X55457900Y-80229200D01*
X55474847Y-80230033D01*
X55474847Y-80230033D01*
G37*
D16*
X55285000Y-80600000D03*
D15*
G36*
X54504847Y-80230033D02*
G01*
X54521631Y-80232522D01*
X54538090Y-80236645D01*
X54554066Y-80242361D01*
X54569404Y-80249616D01*
X54583958Y-80258339D01*
X54597587Y-80268446D01*
X54610159Y-80279841D01*
X54621554Y-80292413D01*
X54631661Y-80306042D01*
X54640384Y-80320596D01*
X54647639Y-80335934D01*
X54653355Y-80351910D01*
X54657478Y-80368369D01*
X54659967Y-80385153D01*
X54660800Y-80402100D01*
X54660800Y-80797900D01*
X54659967Y-80814847D01*
X54657478Y-80831631D01*
X54653355Y-80848090D01*
X54647639Y-80864066D01*
X54640384Y-80879404D01*
X54631661Y-80893958D01*
X54621554Y-80907587D01*
X54610159Y-80920159D01*
X54597587Y-80931554D01*
X54583958Y-80941661D01*
X54569404Y-80950384D01*
X54554066Y-80957639D01*
X54538090Y-80963355D01*
X54521631Y-80967478D01*
X54504847Y-80969967D01*
X54487900Y-80970800D01*
X54142100Y-80970800D01*
X54125153Y-80969967D01*
X54108369Y-80967478D01*
X54091910Y-80963355D01*
X54075934Y-80957639D01*
X54060596Y-80950384D01*
X54046042Y-80941661D01*
X54032413Y-80931554D01*
X54019841Y-80920159D01*
X54008446Y-80907587D01*
X53998339Y-80893958D01*
X53989616Y-80879404D01*
X53982361Y-80864066D01*
X53976645Y-80848090D01*
X53972522Y-80831631D01*
X53970033Y-80814847D01*
X53969200Y-80797900D01*
X53969200Y-80402100D01*
X53970033Y-80385153D01*
X53972522Y-80368369D01*
X53976645Y-80351910D01*
X53982361Y-80335934D01*
X53989616Y-80320596D01*
X53998339Y-80306042D01*
X54008446Y-80292413D01*
X54019841Y-80279841D01*
X54032413Y-80268446D01*
X54046042Y-80258339D01*
X54060596Y-80249616D01*
X54075934Y-80242361D01*
X54091910Y-80236645D01*
X54108369Y-80232522D01*
X54125153Y-80230033D01*
X54142100Y-80229200D01*
X54487900Y-80229200D01*
X54504847Y-80230033D01*
X54504847Y-80230033D01*
G37*
D16*
X54315000Y-80600000D03*
G04 #@! TD*
D15*
G04 #@! TO.C,C47*
G36*
X54414847Y-73770033D02*
G01*
X54431631Y-73772522D01*
X54448090Y-73776645D01*
X54464066Y-73782361D01*
X54479404Y-73789616D01*
X54493958Y-73798339D01*
X54507587Y-73808446D01*
X54520159Y-73819841D01*
X54531554Y-73832413D01*
X54541661Y-73846042D01*
X54550384Y-73860596D01*
X54557639Y-73875934D01*
X54563355Y-73891910D01*
X54567478Y-73908369D01*
X54569967Y-73925153D01*
X54570800Y-73942100D01*
X54570800Y-74287900D01*
X54569967Y-74304847D01*
X54567478Y-74321631D01*
X54563355Y-74338090D01*
X54557639Y-74354066D01*
X54550384Y-74369404D01*
X54541661Y-74383958D01*
X54531554Y-74397587D01*
X54520159Y-74410159D01*
X54507587Y-74421554D01*
X54493958Y-74431661D01*
X54479404Y-74440384D01*
X54464066Y-74447639D01*
X54448090Y-74453355D01*
X54431631Y-74457478D01*
X54414847Y-74459967D01*
X54397900Y-74460800D01*
X54002100Y-74460800D01*
X53985153Y-74459967D01*
X53968369Y-74457478D01*
X53951910Y-74453355D01*
X53935934Y-74447639D01*
X53920596Y-74440384D01*
X53906042Y-74431661D01*
X53892413Y-74421554D01*
X53879841Y-74410159D01*
X53868446Y-74397587D01*
X53858339Y-74383958D01*
X53849616Y-74369404D01*
X53842361Y-74354066D01*
X53836645Y-74338090D01*
X53832522Y-74321631D01*
X53830033Y-74304847D01*
X53829200Y-74287900D01*
X53829200Y-73942100D01*
X53830033Y-73925153D01*
X53832522Y-73908369D01*
X53836645Y-73891910D01*
X53842361Y-73875934D01*
X53849616Y-73860596D01*
X53858339Y-73846042D01*
X53868446Y-73832413D01*
X53879841Y-73819841D01*
X53892413Y-73808446D01*
X53906042Y-73798339D01*
X53920596Y-73789616D01*
X53935934Y-73782361D01*
X53951910Y-73776645D01*
X53968369Y-73772522D01*
X53985153Y-73770033D01*
X54002100Y-73769200D01*
X54397900Y-73769200D01*
X54414847Y-73770033D01*
X54414847Y-73770033D01*
G37*
D16*
X54200000Y-74115000D03*
D15*
G36*
X54414847Y-74740033D02*
G01*
X54431631Y-74742522D01*
X54448090Y-74746645D01*
X54464066Y-74752361D01*
X54479404Y-74759616D01*
X54493958Y-74768339D01*
X54507587Y-74778446D01*
X54520159Y-74789841D01*
X54531554Y-74802413D01*
X54541661Y-74816042D01*
X54550384Y-74830596D01*
X54557639Y-74845934D01*
X54563355Y-74861910D01*
X54567478Y-74878369D01*
X54569967Y-74895153D01*
X54570800Y-74912100D01*
X54570800Y-75257900D01*
X54569967Y-75274847D01*
X54567478Y-75291631D01*
X54563355Y-75308090D01*
X54557639Y-75324066D01*
X54550384Y-75339404D01*
X54541661Y-75353958D01*
X54531554Y-75367587D01*
X54520159Y-75380159D01*
X54507587Y-75391554D01*
X54493958Y-75401661D01*
X54479404Y-75410384D01*
X54464066Y-75417639D01*
X54448090Y-75423355D01*
X54431631Y-75427478D01*
X54414847Y-75429967D01*
X54397900Y-75430800D01*
X54002100Y-75430800D01*
X53985153Y-75429967D01*
X53968369Y-75427478D01*
X53951910Y-75423355D01*
X53935934Y-75417639D01*
X53920596Y-75410384D01*
X53906042Y-75401661D01*
X53892413Y-75391554D01*
X53879841Y-75380159D01*
X53868446Y-75367587D01*
X53858339Y-75353958D01*
X53849616Y-75339404D01*
X53842361Y-75324066D01*
X53836645Y-75308090D01*
X53832522Y-75291631D01*
X53830033Y-75274847D01*
X53829200Y-75257900D01*
X53829200Y-74912100D01*
X53830033Y-74895153D01*
X53832522Y-74878369D01*
X53836645Y-74861910D01*
X53842361Y-74845934D01*
X53849616Y-74830596D01*
X53858339Y-74816042D01*
X53868446Y-74802413D01*
X53879841Y-74789841D01*
X53892413Y-74778446D01*
X53906042Y-74768339D01*
X53920596Y-74759616D01*
X53935934Y-74752361D01*
X53951910Y-74746645D01*
X53968369Y-74742522D01*
X53985153Y-74740033D01*
X54002100Y-74739200D01*
X54397900Y-74739200D01*
X54414847Y-74740033D01*
X54414847Y-74740033D01*
G37*
D16*
X54200000Y-75085000D03*
G04 #@! TD*
D15*
G04 #@! TO.C,C46*
G36*
X60333031Y-81550496D02*
G01*
X60359159Y-81554372D01*
X60384780Y-81560790D01*
X60409649Y-81569688D01*
X60433526Y-81580981D01*
X60456182Y-81594560D01*
X60477397Y-81610294D01*
X60496968Y-81628032D01*
X60514706Y-81647603D01*
X60530440Y-81668818D01*
X60544019Y-81691474D01*
X60555312Y-81715351D01*
X60564210Y-81740220D01*
X60570628Y-81765841D01*
X60574504Y-81791969D01*
X60575800Y-81818350D01*
X60575800Y-82781650D01*
X60574504Y-82808031D01*
X60570628Y-82834159D01*
X60564210Y-82859780D01*
X60555312Y-82884649D01*
X60544019Y-82908526D01*
X60530440Y-82931182D01*
X60514706Y-82952397D01*
X60496968Y-82971968D01*
X60477397Y-82989706D01*
X60456182Y-83005440D01*
X60433526Y-83019019D01*
X60409649Y-83030312D01*
X60384780Y-83039210D01*
X60359159Y-83045628D01*
X60333031Y-83049504D01*
X60306650Y-83050800D01*
X59768350Y-83050800D01*
X59741969Y-83049504D01*
X59715841Y-83045628D01*
X59690220Y-83039210D01*
X59665351Y-83030312D01*
X59641474Y-83019019D01*
X59618818Y-83005440D01*
X59597603Y-82989706D01*
X59578032Y-82971968D01*
X59560294Y-82952397D01*
X59544560Y-82931182D01*
X59530981Y-82908526D01*
X59519688Y-82884649D01*
X59510790Y-82859780D01*
X59504372Y-82834159D01*
X59500496Y-82808031D01*
X59499200Y-82781650D01*
X59499200Y-81818350D01*
X59500496Y-81791969D01*
X59504372Y-81765841D01*
X59510790Y-81740220D01*
X59519688Y-81715351D01*
X59530981Y-81691474D01*
X59544560Y-81668818D01*
X59560294Y-81647603D01*
X59578032Y-81628032D01*
X59597603Y-81610294D01*
X59618818Y-81594560D01*
X59641474Y-81580981D01*
X59665351Y-81569688D01*
X59690220Y-81560790D01*
X59715841Y-81554372D01*
X59741969Y-81550496D01*
X59768350Y-81549200D01*
X60306650Y-81549200D01*
X60333031Y-81550496D01*
X60333031Y-81550496D01*
G37*
D23*
X60037500Y-82300000D03*
D15*
G36*
X58458031Y-81550496D02*
G01*
X58484159Y-81554372D01*
X58509780Y-81560790D01*
X58534649Y-81569688D01*
X58558526Y-81580981D01*
X58581182Y-81594560D01*
X58602397Y-81610294D01*
X58621968Y-81628032D01*
X58639706Y-81647603D01*
X58655440Y-81668818D01*
X58669019Y-81691474D01*
X58680312Y-81715351D01*
X58689210Y-81740220D01*
X58695628Y-81765841D01*
X58699504Y-81791969D01*
X58700800Y-81818350D01*
X58700800Y-82781650D01*
X58699504Y-82808031D01*
X58695628Y-82834159D01*
X58689210Y-82859780D01*
X58680312Y-82884649D01*
X58669019Y-82908526D01*
X58655440Y-82931182D01*
X58639706Y-82952397D01*
X58621968Y-82971968D01*
X58602397Y-82989706D01*
X58581182Y-83005440D01*
X58558526Y-83019019D01*
X58534649Y-83030312D01*
X58509780Y-83039210D01*
X58484159Y-83045628D01*
X58458031Y-83049504D01*
X58431650Y-83050800D01*
X57893350Y-83050800D01*
X57866969Y-83049504D01*
X57840841Y-83045628D01*
X57815220Y-83039210D01*
X57790351Y-83030312D01*
X57766474Y-83019019D01*
X57743818Y-83005440D01*
X57722603Y-82989706D01*
X57703032Y-82971968D01*
X57685294Y-82952397D01*
X57669560Y-82931182D01*
X57655981Y-82908526D01*
X57644688Y-82884649D01*
X57635790Y-82859780D01*
X57629372Y-82834159D01*
X57625496Y-82808031D01*
X57624200Y-82781650D01*
X57624200Y-81818350D01*
X57625496Y-81791969D01*
X57629372Y-81765841D01*
X57635790Y-81740220D01*
X57644688Y-81715351D01*
X57655981Y-81691474D01*
X57669560Y-81668818D01*
X57685294Y-81647603D01*
X57703032Y-81628032D01*
X57722603Y-81610294D01*
X57743818Y-81594560D01*
X57766474Y-81580981D01*
X57790351Y-81569688D01*
X57815220Y-81560790D01*
X57840841Y-81554372D01*
X57866969Y-81550496D01*
X57893350Y-81549200D01*
X58431650Y-81549200D01*
X58458031Y-81550496D01*
X58458031Y-81550496D01*
G37*
D23*
X58162500Y-82300000D03*
G04 #@! TD*
D15*
G04 #@! TO.C,C45*
G36*
X57208031Y-72125496D02*
G01*
X57234159Y-72129372D01*
X57259780Y-72135790D01*
X57284649Y-72144688D01*
X57308526Y-72155981D01*
X57331182Y-72169560D01*
X57352397Y-72185294D01*
X57371968Y-72203032D01*
X57389706Y-72222603D01*
X57405440Y-72243818D01*
X57419019Y-72266474D01*
X57430312Y-72290351D01*
X57439210Y-72315220D01*
X57445628Y-72340841D01*
X57449504Y-72366969D01*
X57450800Y-72393350D01*
X57450800Y-72931650D01*
X57449504Y-72958031D01*
X57445628Y-72984159D01*
X57439210Y-73009780D01*
X57430312Y-73034649D01*
X57419019Y-73058526D01*
X57405440Y-73081182D01*
X57389706Y-73102397D01*
X57371968Y-73121968D01*
X57352397Y-73139706D01*
X57331182Y-73155440D01*
X57308526Y-73169019D01*
X57284649Y-73180312D01*
X57259780Y-73189210D01*
X57234159Y-73195628D01*
X57208031Y-73199504D01*
X57181650Y-73200800D01*
X56218350Y-73200800D01*
X56191969Y-73199504D01*
X56165841Y-73195628D01*
X56140220Y-73189210D01*
X56115351Y-73180312D01*
X56091474Y-73169019D01*
X56068818Y-73155440D01*
X56047603Y-73139706D01*
X56028032Y-73121968D01*
X56010294Y-73102397D01*
X55994560Y-73081182D01*
X55980981Y-73058526D01*
X55969688Y-73034649D01*
X55960790Y-73009780D01*
X55954372Y-72984159D01*
X55950496Y-72958031D01*
X55949200Y-72931650D01*
X55949200Y-72393350D01*
X55950496Y-72366969D01*
X55954372Y-72340841D01*
X55960790Y-72315220D01*
X55969688Y-72290351D01*
X55980981Y-72266474D01*
X55994560Y-72243818D01*
X56010294Y-72222603D01*
X56028032Y-72203032D01*
X56047603Y-72185294D01*
X56068818Y-72169560D01*
X56091474Y-72155981D01*
X56115351Y-72144688D01*
X56140220Y-72135790D01*
X56165841Y-72129372D01*
X56191969Y-72125496D01*
X56218350Y-72124200D01*
X57181650Y-72124200D01*
X57208031Y-72125496D01*
X57208031Y-72125496D01*
G37*
D23*
X56700000Y-72662500D03*
D15*
G36*
X57208031Y-74000496D02*
G01*
X57234159Y-74004372D01*
X57259780Y-74010790D01*
X57284649Y-74019688D01*
X57308526Y-74030981D01*
X57331182Y-74044560D01*
X57352397Y-74060294D01*
X57371968Y-74078032D01*
X57389706Y-74097603D01*
X57405440Y-74118818D01*
X57419019Y-74141474D01*
X57430312Y-74165351D01*
X57439210Y-74190220D01*
X57445628Y-74215841D01*
X57449504Y-74241969D01*
X57450800Y-74268350D01*
X57450800Y-74806650D01*
X57449504Y-74833031D01*
X57445628Y-74859159D01*
X57439210Y-74884780D01*
X57430312Y-74909649D01*
X57419019Y-74933526D01*
X57405440Y-74956182D01*
X57389706Y-74977397D01*
X57371968Y-74996968D01*
X57352397Y-75014706D01*
X57331182Y-75030440D01*
X57308526Y-75044019D01*
X57284649Y-75055312D01*
X57259780Y-75064210D01*
X57234159Y-75070628D01*
X57208031Y-75074504D01*
X57181650Y-75075800D01*
X56218350Y-75075800D01*
X56191969Y-75074504D01*
X56165841Y-75070628D01*
X56140220Y-75064210D01*
X56115351Y-75055312D01*
X56091474Y-75044019D01*
X56068818Y-75030440D01*
X56047603Y-75014706D01*
X56028032Y-74996968D01*
X56010294Y-74977397D01*
X55994560Y-74956182D01*
X55980981Y-74933526D01*
X55969688Y-74909649D01*
X55960790Y-74884780D01*
X55954372Y-74859159D01*
X55950496Y-74833031D01*
X55949200Y-74806650D01*
X55949200Y-74268350D01*
X55950496Y-74241969D01*
X55954372Y-74215841D01*
X55960790Y-74190220D01*
X55969688Y-74165351D01*
X55980981Y-74141474D01*
X55994560Y-74118818D01*
X56010294Y-74097603D01*
X56028032Y-74078032D01*
X56047603Y-74060294D01*
X56068818Y-74044560D01*
X56091474Y-74030981D01*
X56115351Y-74019688D01*
X56140220Y-74010790D01*
X56165841Y-74004372D01*
X56191969Y-74000496D01*
X56218350Y-73999200D01*
X57181650Y-73999200D01*
X57208031Y-74000496D01*
X57208031Y-74000496D01*
G37*
D23*
X56700000Y-74537500D03*
G04 #@! TD*
D15*
G04 #@! TO.C,C42*
G36*
X62104847Y-77430033D02*
G01*
X62121631Y-77432522D01*
X62138090Y-77436645D01*
X62154066Y-77442361D01*
X62169404Y-77449616D01*
X62183958Y-77458339D01*
X62197587Y-77468446D01*
X62210159Y-77479841D01*
X62221554Y-77492413D01*
X62231661Y-77506042D01*
X62240384Y-77520596D01*
X62247639Y-77535934D01*
X62253355Y-77551910D01*
X62257478Y-77568369D01*
X62259967Y-77585153D01*
X62260800Y-77602100D01*
X62260800Y-77997900D01*
X62259967Y-78014847D01*
X62257478Y-78031631D01*
X62253355Y-78048090D01*
X62247639Y-78064066D01*
X62240384Y-78079404D01*
X62231661Y-78093958D01*
X62221554Y-78107587D01*
X62210159Y-78120159D01*
X62197587Y-78131554D01*
X62183958Y-78141661D01*
X62169404Y-78150384D01*
X62154066Y-78157639D01*
X62138090Y-78163355D01*
X62121631Y-78167478D01*
X62104847Y-78169967D01*
X62087900Y-78170800D01*
X61742100Y-78170800D01*
X61725153Y-78169967D01*
X61708369Y-78167478D01*
X61691910Y-78163355D01*
X61675934Y-78157639D01*
X61660596Y-78150384D01*
X61646042Y-78141661D01*
X61632413Y-78131554D01*
X61619841Y-78120159D01*
X61608446Y-78107587D01*
X61598339Y-78093958D01*
X61589616Y-78079404D01*
X61582361Y-78064066D01*
X61576645Y-78048090D01*
X61572522Y-78031631D01*
X61570033Y-78014847D01*
X61569200Y-77997900D01*
X61569200Y-77602100D01*
X61570033Y-77585153D01*
X61572522Y-77568369D01*
X61576645Y-77551910D01*
X61582361Y-77535934D01*
X61589616Y-77520596D01*
X61598339Y-77506042D01*
X61608446Y-77492413D01*
X61619841Y-77479841D01*
X61632413Y-77468446D01*
X61646042Y-77458339D01*
X61660596Y-77449616D01*
X61675934Y-77442361D01*
X61691910Y-77436645D01*
X61708369Y-77432522D01*
X61725153Y-77430033D01*
X61742100Y-77429200D01*
X62087900Y-77429200D01*
X62104847Y-77430033D01*
X62104847Y-77430033D01*
G37*
D16*
X61915000Y-77800000D03*
D15*
G36*
X63074847Y-77430033D02*
G01*
X63091631Y-77432522D01*
X63108090Y-77436645D01*
X63124066Y-77442361D01*
X63139404Y-77449616D01*
X63153958Y-77458339D01*
X63167587Y-77468446D01*
X63180159Y-77479841D01*
X63191554Y-77492413D01*
X63201661Y-77506042D01*
X63210384Y-77520596D01*
X63217639Y-77535934D01*
X63223355Y-77551910D01*
X63227478Y-77568369D01*
X63229967Y-77585153D01*
X63230800Y-77602100D01*
X63230800Y-77997900D01*
X63229967Y-78014847D01*
X63227478Y-78031631D01*
X63223355Y-78048090D01*
X63217639Y-78064066D01*
X63210384Y-78079404D01*
X63201661Y-78093958D01*
X63191554Y-78107587D01*
X63180159Y-78120159D01*
X63167587Y-78131554D01*
X63153958Y-78141661D01*
X63139404Y-78150384D01*
X63124066Y-78157639D01*
X63108090Y-78163355D01*
X63091631Y-78167478D01*
X63074847Y-78169967D01*
X63057900Y-78170800D01*
X62712100Y-78170800D01*
X62695153Y-78169967D01*
X62678369Y-78167478D01*
X62661910Y-78163355D01*
X62645934Y-78157639D01*
X62630596Y-78150384D01*
X62616042Y-78141661D01*
X62602413Y-78131554D01*
X62589841Y-78120159D01*
X62578446Y-78107587D01*
X62568339Y-78093958D01*
X62559616Y-78079404D01*
X62552361Y-78064066D01*
X62546645Y-78048090D01*
X62542522Y-78031631D01*
X62540033Y-78014847D01*
X62539200Y-77997900D01*
X62539200Y-77602100D01*
X62540033Y-77585153D01*
X62542522Y-77568369D01*
X62546645Y-77551910D01*
X62552361Y-77535934D01*
X62559616Y-77520596D01*
X62568339Y-77506042D01*
X62578446Y-77492413D01*
X62589841Y-77479841D01*
X62602413Y-77468446D01*
X62616042Y-77458339D01*
X62630596Y-77449616D01*
X62645934Y-77442361D01*
X62661910Y-77436645D01*
X62678369Y-77432522D01*
X62695153Y-77430033D01*
X62712100Y-77429200D01*
X63057900Y-77429200D01*
X63074847Y-77430033D01*
X63074847Y-77430033D01*
G37*
D16*
X62885000Y-77800000D03*
G04 #@! TD*
D15*
G04 #@! TO.C,C41*
G36*
X62104847Y-74230033D02*
G01*
X62121631Y-74232522D01*
X62138090Y-74236645D01*
X62154066Y-74242361D01*
X62169404Y-74249616D01*
X62183958Y-74258339D01*
X62197587Y-74268446D01*
X62210159Y-74279841D01*
X62221554Y-74292413D01*
X62231661Y-74306042D01*
X62240384Y-74320596D01*
X62247639Y-74335934D01*
X62253355Y-74351910D01*
X62257478Y-74368369D01*
X62259967Y-74385153D01*
X62260800Y-74402100D01*
X62260800Y-74797900D01*
X62259967Y-74814847D01*
X62257478Y-74831631D01*
X62253355Y-74848090D01*
X62247639Y-74864066D01*
X62240384Y-74879404D01*
X62231661Y-74893958D01*
X62221554Y-74907587D01*
X62210159Y-74920159D01*
X62197587Y-74931554D01*
X62183958Y-74941661D01*
X62169404Y-74950384D01*
X62154066Y-74957639D01*
X62138090Y-74963355D01*
X62121631Y-74967478D01*
X62104847Y-74969967D01*
X62087900Y-74970800D01*
X61742100Y-74970800D01*
X61725153Y-74969967D01*
X61708369Y-74967478D01*
X61691910Y-74963355D01*
X61675934Y-74957639D01*
X61660596Y-74950384D01*
X61646042Y-74941661D01*
X61632413Y-74931554D01*
X61619841Y-74920159D01*
X61608446Y-74907587D01*
X61598339Y-74893958D01*
X61589616Y-74879404D01*
X61582361Y-74864066D01*
X61576645Y-74848090D01*
X61572522Y-74831631D01*
X61570033Y-74814847D01*
X61569200Y-74797900D01*
X61569200Y-74402100D01*
X61570033Y-74385153D01*
X61572522Y-74368369D01*
X61576645Y-74351910D01*
X61582361Y-74335934D01*
X61589616Y-74320596D01*
X61598339Y-74306042D01*
X61608446Y-74292413D01*
X61619841Y-74279841D01*
X61632413Y-74268446D01*
X61646042Y-74258339D01*
X61660596Y-74249616D01*
X61675934Y-74242361D01*
X61691910Y-74236645D01*
X61708369Y-74232522D01*
X61725153Y-74230033D01*
X61742100Y-74229200D01*
X62087900Y-74229200D01*
X62104847Y-74230033D01*
X62104847Y-74230033D01*
G37*
D16*
X61915000Y-74600000D03*
D15*
G36*
X63074847Y-74230033D02*
G01*
X63091631Y-74232522D01*
X63108090Y-74236645D01*
X63124066Y-74242361D01*
X63139404Y-74249616D01*
X63153958Y-74258339D01*
X63167587Y-74268446D01*
X63180159Y-74279841D01*
X63191554Y-74292413D01*
X63201661Y-74306042D01*
X63210384Y-74320596D01*
X63217639Y-74335934D01*
X63223355Y-74351910D01*
X63227478Y-74368369D01*
X63229967Y-74385153D01*
X63230800Y-74402100D01*
X63230800Y-74797900D01*
X63229967Y-74814847D01*
X63227478Y-74831631D01*
X63223355Y-74848090D01*
X63217639Y-74864066D01*
X63210384Y-74879404D01*
X63201661Y-74893958D01*
X63191554Y-74907587D01*
X63180159Y-74920159D01*
X63167587Y-74931554D01*
X63153958Y-74941661D01*
X63139404Y-74950384D01*
X63124066Y-74957639D01*
X63108090Y-74963355D01*
X63091631Y-74967478D01*
X63074847Y-74969967D01*
X63057900Y-74970800D01*
X62712100Y-74970800D01*
X62695153Y-74969967D01*
X62678369Y-74967478D01*
X62661910Y-74963355D01*
X62645934Y-74957639D01*
X62630596Y-74950384D01*
X62616042Y-74941661D01*
X62602413Y-74931554D01*
X62589841Y-74920159D01*
X62578446Y-74907587D01*
X62568339Y-74893958D01*
X62559616Y-74879404D01*
X62552361Y-74864066D01*
X62546645Y-74848090D01*
X62542522Y-74831631D01*
X62540033Y-74814847D01*
X62539200Y-74797900D01*
X62539200Y-74402100D01*
X62540033Y-74385153D01*
X62542522Y-74368369D01*
X62546645Y-74351910D01*
X62552361Y-74335934D01*
X62559616Y-74320596D01*
X62568339Y-74306042D01*
X62578446Y-74292413D01*
X62589841Y-74279841D01*
X62602413Y-74268446D01*
X62616042Y-74258339D01*
X62630596Y-74249616D01*
X62645934Y-74242361D01*
X62661910Y-74236645D01*
X62678369Y-74232522D01*
X62695153Y-74230033D01*
X62712100Y-74229200D01*
X63057900Y-74229200D01*
X63074847Y-74230033D01*
X63074847Y-74230033D01*
G37*
D16*
X62885000Y-74600000D03*
G04 #@! TD*
D15*
G04 #@! TO.C,C40*
G36*
X56874847Y-77430033D02*
G01*
X56891631Y-77432522D01*
X56908090Y-77436645D01*
X56924066Y-77442361D01*
X56939404Y-77449616D01*
X56953958Y-77458339D01*
X56967587Y-77468446D01*
X56980159Y-77479841D01*
X56991554Y-77492413D01*
X57001661Y-77506042D01*
X57010384Y-77520596D01*
X57017639Y-77535934D01*
X57023355Y-77551910D01*
X57027478Y-77568369D01*
X57029967Y-77585153D01*
X57030800Y-77602100D01*
X57030800Y-77997900D01*
X57029967Y-78014847D01*
X57027478Y-78031631D01*
X57023355Y-78048090D01*
X57017639Y-78064066D01*
X57010384Y-78079404D01*
X57001661Y-78093958D01*
X56991554Y-78107587D01*
X56980159Y-78120159D01*
X56967587Y-78131554D01*
X56953958Y-78141661D01*
X56939404Y-78150384D01*
X56924066Y-78157639D01*
X56908090Y-78163355D01*
X56891631Y-78167478D01*
X56874847Y-78169967D01*
X56857900Y-78170800D01*
X56512100Y-78170800D01*
X56495153Y-78169967D01*
X56478369Y-78167478D01*
X56461910Y-78163355D01*
X56445934Y-78157639D01*
X56430596Y-78150384D01*
X56416042Y-78141661D01*
X56402413Y-78131554D01*
X56389841Y-78120159D01*
X56378446Y-78107587D01*
X56368339Y-78093958D01*
X56359616Y-78079404D01*
X56352361Y-78064066D01*
X56346645Y-78048090D01*
X56342522Y-78031631D01*
X56340033Y-78014847D01*
X56339200Y-77997900D01*
X56339200Y-77602100D01*
X56340033Y-77585153D01*
X56342522Y-77568369D01*
X56346645Y-77551910D01*
X56352361Y-77535934D01*
X56359616Y-77520596D01*
X56368339Y-77506042D01*
X56378446Y-77492413D01*
X56389841Y-77479841D01*
X56402413Y-77468446D01*
X56416042Y-77458339D01*
X56430596Y-77449616D01*
X56445934Y-77442361D01*
X56461910Y-77436645D01*
X56478369Y-77432522D01*
X56495153Y-77430033D01*
X56512100Y-77429200D01*
X56857900Y-77429200D01*
X56874847Y-77430033D01*
X56874847Y-77430033D01*
G37*
D16*
X56685000Y-77800000D03*
D15*
G36*
X55904847Y-77430033D02*
G01*
X55921631Y-77432522D01*
X55938090Y-77436645D01*
X55954066Y-77442361D01*
X55969404Y-77449616D01*
X55983958Y-77458339D01*
X55997587Y-77468446D01*
X56010159Y-77479841D01*
X56021554Y-77492413D01*
X56031661Y-77506042D01*
X56040384Y-77520596D01*
X56047639Y-77535934D01*
X56053355Y-77551910D01*
X56057478Y-77568369D01*
X56059967Y-77585153D01*
X56060800Y-77602100D01*
X56060800Y-77997900D01*
X56059967Y-78014847D01*
X56057478Y-78031631D01*
X56053355Y-78048090D01*
X56047639Y-78064066D01*
X56040384Y-78079404D01*
X56031661Y-78093958D01*
X56021554Y-78107587D01*
X56010159Y-78120159D01*
X55997587Y-78131554D01*
X55983958Y-78141661D01*
X55969404Y-78150384D01*
X55954066Y-78157639D01*
X55938090Y-78163355D01*
X55921631Y-78167478D01*
X55904847Y-78169967D01*
X55887900Y-78170800D01*
X55542100Y-78170800D01*
X55525153Y-78169967D01*
X55508369Y-78167478D01*
X55491910Y-78163355D01*
X55475934Y-78157639D01*
X55460596Y-78150384D01*
X55446042Y-78141661D01*
X55432413Y-78131554D01*
X55419841Y-78120159D01*
X55408446Y-78107587D01*
X55398339Y-78093958D01*
X55389616Y-78079404D01*
X55382361Y-78064066D01*
X55376645Y-78048090D01*
X55372522Y-78031631D01*
X55370033Y-78014847D01*
X55369200Y-77997900D01*
X55369200Y-77602100D01*
X55370033Y-77585153D01*
X55372522Y-77568369D01*
X55376645Y-77551910D01*
X55382361Y-77535934D01*
X55389616Y-77520596D01*
X55398339Y-77506042D01*
X55408446Y-77492413D01*
X55419841Y-77479841D01*
X55432413Y-77468446D01*
X55446042Y-77458339D01*
X55460596Y-77449616D01*
X55475934Y-77442361D01*
X55491910Y-77436645D01*
X55508369Y-77432522D01*
X55525153Y-77430033D01*
X55542100Y-77429200D01*
X55887900Y-77429200D01*
X55904847Y-77430033D01*
X55904847Y-77430033D01*
G37*
D16*
X55715000Y-77800000D03*
G04 #@! TD*
D15*
G04 #@! TO.C,C39*
G36*
X59274847Y-79030033D02*
G01*
X59291631Y-79032522D01*
X59308090Y-79036645D01*
X59324066Y-79042361D01*
X59339404Y-79049616D01*
X59353958Y-79058339D01*
X59367587Y-79068446D01*
X59380159Y-79079841D01*
X59391554Y-79092413D01*
X59401661Y-79106042D01*
X59410384Y-79120596D01*
X59417639Y-79135934D01*
X59423355Y-79151910D01*
X59427478Y-79168369D01*
X59429967Y-79185153D01*
X59430800Y-79202100D01*
X59430800Y-79597900D01*
X59429967Y-79614847D01*
X59427478Y-79631631D01*
X59423355Y-79648090D01*
X59417639Y-79664066D01*
X59410384Y-79679404D01*
X59401661Y-79693958D01*
X59391554Y-79707587D01*
X59380159Y-79720159D01*
X59367587Y-79731554D01*
X59353958Y-79741661D01*
X59339404Y-79750384D01*
X59324066Y-79757639D01*
X59308090Y-79763355D01*
X59291631Y-79767478D01*
X59274847Y-79769967D01*
X59257900Y-79770800D01*
X58912100Y-79770800D01*
X58895153Y-79769967D01*
X58878369Y-79767478D01*
X58861910Y-79763355D01*
X58845934Y-79757639D01*
X58830596Y-79750384D01*
X58816042Y-79741661D01*
X58802413Y-79731554D01*
X58789841Y-79720159D01*
X58778446Y-79707587D01*
X58768339Y-79693958D01*
X58759616Y-79679404D01*
X58752361Y-79664066D01*
X58746645Y-79648090D01*
X58742522Y-79631631D01*
X58740033Y-79614847D01*
X58739200Y-79597900D01*
X58739200Y-79202100D01*
X58740033Y-79185153D01*
X58742522Y-79168369D01*
X58746645Y-79151910D01*
X58752361Y-79135934D01*
X58759616Y-79120596D01*
X58768339Y-79106042D01*
X58778446Y-79092413D01*
X58789841Y-79079841D01*
X58802413Y-79068446D01*
X58816042Y-79058339D01*
X58830596Y-79049616D01*
X58845934Y-79042361D01*
X58861910Y-79036645D01*
X58878369Y-79032522D01*
X58895153Y-79030033D01*
X58912100Y-79029200D01*
X59257900Y-79029200D01*
X59274847Y-79030033D01*
X59274847Y-79030033D01*
G37*
D16*
X59085000Y-79400000D03*
D15*
G36*
X58304847Y-79030033D02*
G01*
X58321631Y-79032522D01*
X58338090Y-79036645D01*
X58354066Y-79042361D01*
X58369404Y-79049616D01*
X58383958Y-79058339D01*
X58397587Y-79068446D01*
X58410159Y-79079841D01*
X58421554Y-79092413D01*
X58431661Y-79106042D01*
X58440384Y-79120596D01*
X58447639Y-79135934D01*
X58453355Y-79151910D01*
X58457478Y-79168369D01*
X58459967Y-79185153D01*
X58460800Y-79202100D01*
X58460800Y-79597900D01*
X58459967Y-79614847D01*
X58457478Y-79631631D01*
X58453355Y-79648090D01*
X58447639Y-79664066D01*
X58440384Y-79679404D01*
X58431661Y-79693958D01*
X58421554Y-79707587D01*
X58410159Y-79720159D01*
X58397587Y-79731554D01*
X58383958Y-79741661D01*
X58369404Y-79750384D01*
X58354066Y-79757639D01*
X58338090Y-79763355D01*
X58321631Y-79767478D01*
X58304847Y-79769967D01*
X58287900Y-79770800D01*
X57942100Y-79770800D01*
X57925153Y-79769967D01*
X57908369Y-79767478D01*
X57891910Y-79763355D01*
X57875934Y-79757639D01*
X57860596Y-79750384D01*
X57846042Y-79741661D01*
X57832413Y-79731554D01*
X57819841Y-79720159D01*
X57808446Y-79707587D01*
X57798339Y-79693958D01*
X57789616Y-79679404D01*
X57782361Y-79664066D01*
X57776645Y-79648090D01*
X57772522Y-79631631D01*
X57770033Y-79614847D01*
X57769200Y-79597900D01*
X57769200Y-79202100D01*
X57770033Y-79185153D01*
X57772522Y-79168369D01*
X57776645Y-79151910D01*
X57782361Y-79135934D01*
X57789616Y-79120596D01*
X57798339Y-79106042D01*
X57808446Y-79092413D01*
X57819841Y-79079841D01*
X57832413Y-79068446D01*
X57846042Y-79058339D01*
X57860596Y-79049616D01*
X57875934Y-79042361D01*
X57891910Y-79036645D01*
X57908369Y-79032522D01*
X57925153Y-79030033D01*
X57942100Y-79029200D01*
X58287900Y-79029200D01*
X58304847Y-79030033D01*
X58304847Y-79030033D01*
G37*
D16*
X58115000Y-79400000D03*
G04 #@! TD*
D15*
G04 #@! TO.C,C36*
G36*
X62104847Y-75830033D02*
G01*
X62121631Y-75832522D01*
X62138090Y-75836645D01*
X62154066Y-75842361D01*
X62169404Y-75849616D01*
X62183958Y-75858339D01*
X62197587Y-75868446D01*
X62210159Y-75879841D01*
X62221554Y-75892413D01*
X62231661Y-75906042D01*
X62240384Y-75920596D01*
X62247639Y-75935934D01*
X62253355Y-75951910D01*
X62257478Y-75968369D01*
X62259967Y-75985153D01*
X62260800Y-76002100D01*
X62260800Y-76397900D01*
X62259967Y-76414847D01*
X62257478Y-76431631D01*
X62253355Y-76448090D01*
X62247639Y-76464066D01*
X62240384Y-76479404D01*
X62231661Y-76493958D01*
X62221554Y-76507587D01*
X62210159Y-76520159D01*
X62197587Y-76531554D01*
X62183958Y-76541661D01*
X62169404Y-76550384D01*
X62154066Y-76557639D01*
X62138090Y-76563355D01*
X62121631Y-76567478D01*
X62104847Y-76569967D01*
X62087900Y-76570800D01*
X61742100Y-76570800D01*
X61725153Y-76569967D01*
X61708369Y-76567478D01*
X61691910Y-76563355D01*
X61675934Y-76557639D01*
X61660596Y-76550384D01*
X61646042Y-76541661D01*
X61632413Y-76531554D01*
X61619841Y-76520159D01*
X61608446Y-76507587D01*
X61598339Y-76493958D01*
X61589616Y-76479404D01*
X61582361Y-76464066D01*
X61576645Y-76448090D01*
X61572522Y-76431631D01*
X61570033Y-76414847D01*
X61569200Y-76397900D01*
X61569200Y-76002100D01*
X61570033Y-75985153D01*
X61572522Y-75968369D01*
X61576645Y-75951910D01*
X61582361Y-75935934D01*
X61589616Y-75920596D01*
X61598339Y-75906042D01*
X61608446Y-75892413D01*
X61619841Y-75879841D01*
X61632413Y-75868446D01*
X61646042Y-75858339D01*
X61660596Y-75849616D01*
X61675934Y-75842361D01*
X61691910Y-75836645D01*
X61708369Y-75832522D01*
X61725153Y-75830033D01*
X61742100Y-75829200D01*
X62087900Y-75829200D01*
X62104847Y-75830033D01*
X62104847Y-75830033D01*
G37*
D16*
X61915000Y-76200000D03*
D15*
G36*
X63074847Y-75830033D02*
G01*
X63091631Y-75832522D01*
X63108090Y-75836645D01*
X63124066Y-75842361D01*
X63139404Y-75849616D01*
X63153958Y-75858339D01*
X63167587Y-75868446D01*
X63180159Y-75879841D01*
X63191554Y-75892413D01*
X63201661Y-75906042D01*
X63210384Y-75920596D01*
X63217639Y-75935934D01*
X63223355Y-75951910D01*
X63227478Y-75968369D01*
X63229967Y-75985153D01*
X63230800Y-76002100D01*
X63230800Y-76397900D01*
X63229967Y-76414847D01*
X63227478Y-76431631D01*
X63223355Y-76448090D01*
X63217639Y-76464066D01*
X63210384Y-76479404D01*
X63201661Y-76493958D01*
X63191554Y-76507587D01*
X63180159Y-76520159D01*
X63167587Y-76531554D01*
X63153958Y-76541661D01*
X63139404Y-76550384D01*
X63124066Y-76557639D01*
X63108090Y-76563355D01*
X63091631Y-76567478D01*
X63074847Y-76569967D01*
X63057900Y-76570800D01*
X62712100Y-76570800D01*
X62695153Y-76569967D01*
X62678369Y-76567478D01*
X62661910Y-76563355D01*
X62645934Y-76557639D01*
X62630596Y-76550384D01*
X62616042Y-76541661D01*
X62602413Y-76531554D01*
X62589841Y-76520159D01*
X62578446Y-76507587D01*
X62568339Y-76493958D01*
X62559616Y-76479404D01*
X62552361Y-76464066D01*
X62546645Y-76448090D01*
X62542522Y-76431631D01*
X62540033Y-76414847D01*
X62539200Y-76397900D01*
X62539200Y-76002100D01*
X62540033Y-75985153D01*
X62542522Y-75968369D01*
X62546645Y-75951910D01*
X62552361Y-75935934D01*
X62559616Y-75920596D01*
X62568339Y-75906042D01*
X62578446Y-75892413D01*
X62589841Y-75879841D01*
X62602413Y-75868446D01*
X62616042Y-75858339D01*
X62630596Y-75849616D01*
X62645934Y-75842361D01*
X62661910Y-75836645D01*
X62678369Y-75832522D01*
X62695153Y-75830033D01*
X62712100Y-75829200D01*
X63057900Y-75829200D01*
X63074847Y-75830033D01*
X63074847Y-75830033D01*
G37*
D16*
X62885000Y-76200000D03*
G04 #@! TD*
D15*
G04 #@! TO.C,C35*
G36*
X56874847Y-75830033D02*
G01*
X56891631Y-75832522D01*
X56908090Y-75836645D01*
X56924066Y-75842361D01*
X56939404Y-75849616D01*
X56953958Y-75858339D01*
X56967587Y-75868446D01*
X56980159Y-75879841D01*
X56991554Y-75892413D01*
X57001661Y-75906042D01*
X57010384Y-75920596D01*
X57017639Y-75935934D01*
X57023355Y-75951910D01*
X57027478Y-75968369D01*
X57029967Y-75985153D01*
X57030800Y-76002100D01*
X57030800Y-76397900D01*
X57029967Y-76414847D01*
X57027478Y-76431631D01*
X57023355Y-76448090D01*
X57017639Y-76464066D01*
X57010384Y-76479404D01*
X57001661Y-76493958D01*
X56991554Y-76507587D01*
X56980159Y-76520159D01*
X56967587Y-76531554D01*
X56953958Y-76541661D01*
X56939404Y-76550384D01*
X56924066Y-76557639D01*
X56908090Y-76563355D01*
X56891631Y-76567478D01*
X56874847Y-76569967D01*
X56857900Y-76570800D01*
X56512100Y-76570800D01*
X56495153Y-76569967D01*
X56478369Y-76567478D01*
X56461910Y-76563355D01*
X56445934Y-76557639D01*
X56430596Y-76550384D01*
X56416042Y-76541661D01*
X56402413Y-76531554D01*
X56389841Y-76520159D01*
X56378446Y-76507587D01*
X56368339Y-76493958D01*
X56359616Y-76479404D01*
X56352361Y-76464066D01*
X56346645Y-76448090D01*
X56342522Y-76431631D01*
X56340033Y-76414847D01*
X56339200Y-76397900D01*
X56339200Y-76002100D01*
X56340033Y-75985153D01*
X56342522Y-75968369D01*
X56346645Y-75951910D01*
X56352361Y-75935934D01*
X56359616Y-75920596D01*
X56368339Y-75906042D01*
X56378446Y-75892413D01*
X56389841Y-75879841D01*
X56402413Y-75868446D01*
X56416042Y-75858339D01*
X56430596Y-75849616D01*
X56445934Y-75842361D01*
X56461910Y-75836645D01*
X56478369Y-75832522D01*
X56495153Y-75830033D01*
X56512100Y-75829200D01*
X56857900Y-75829200D01*
X56874847Y-75830033D01*
X56874847Y-75830033D01*
G37*
D16*
X56685000Y-76200000D03*
D15*
G36*
X55904847Y-75830033D02*
G01*
X55921631Y-75832522D01*
X55938090Y-75836645D01*
X55954066Y-75842361D01*
X55969404Y-75849616D01*
X55983958Y-75858339D01*
X55997587Y-75868446D01*
X56010159Y-75879841D01*
X56021554Y-75892413D01*
X56031661Y-75906042D01*
X56040384Y-75920596D01*
X56047639Y-75935934D01*
X56053355Y-75951910D01*
X56057478Y-75968369D01*
X56059967Y-75985153D01*
X56060800Y-76002100D01*
X56060800Y-76397900D01*
X56059967Y-76414847D01*
X56057478Y-76431631D01*
X56053355Y-76448090D01*
X56047639Y-76464066D01*
X56040384Y-76479404D01*
X56031661Y-76493958D01*
X56021554Y-76507587D01*
X56010159Y-76520159D01*
X55997587Y-76531554D01*
X55983958Y-76541661D01*
X55969404Y-76550384D01*
X55954066Y-76557639D01*
X55938090Y-76563355D01*
X55921631Y-76567478D01*
X55904847Y-76569967D01*
X55887900Y-76570800D01*
X55542100Y-76570800D01*
X55525153Y-76569967D01*
X55508369Y-76567478D01*
X55491910Y-76563355D01*
X55475934Y-76557639D01*
X55460596Y-76550384D01*
X55446042Y-76541661D01*
X55432413Y-76531554D01*
X55419841Y-76520159D01*
X55408446Y-76507587D01*
X55398339Y-76493958D01*
X55389616Y-76479404D01*
X55382361Y-76464066D01*
X55376645Y-76448090D01*
X55372522Y-76431631D01*
X55370033Y-76414847D01*
X55369200Y-76397900D01*
X55369200Y-76002100D01*
X55370033Y-75985153D01*
X55372522Y-75968369D01*
X55376645Y-75951910D01*
X55382361Y-75935934D01*
X55389616Y-75920596D01*
X55398339Y-75906042D01*
X55408446Y-75892413D01*
X55419841Y-75879841D01*
X55432413Y-75868446D01*
X55446042Y-75858339D01*
X55460596Y-75849616D01*
X55475934Y-75842361D01*
X55491910Y-75836645D01*
X55508369Y-75832522D01*
X55525153Y-75830033D01*
X55542100Y-75829200D01*
X55887900Y-75829200D01*
X55904847Y-75830033D01*
X55904847Y-75830033D01*
G37*
D16*
X55715000Y-76200000D03*
G04 #@! TD*
D15*
G04 #@! TO.C,C34*
G36*
X62104847Y-79030033D02*
G01*
X62121631Y-79032522D01*
X62138090Y-79036645D01*
X62154066Y-79042361D01*
X62169404Y-79049616D01*
X62183958Y-79058339D01*
X62197587Y-79068446D01*
X62210159Y-79079841D01*
X62221554Y-79092413D01*
X62231661Y-79106042D01*
X62240384Y-79120596D01*
X62247639Y-79135934D01*
X62253355Y-79151910D01*
X62257478Y-79168369D01*
X62259967Y-79185153D01*
X62260800Y-79202100D01*
X62260800Y-79597900D01*
X62259967Y-79614847D01*
X62257478Y-79631631D01*
X62253355Y-79648090D01*
X62247639Y-79664066D01*
X62240384Y-79679404D01*
X62231661Y-79693958D01*
X62221554Y-79707587D01*
X62210159Y-79720159D01*
X62197587Y-79731554D01*
X62183958Y-79741661D01*
X62169404Y-79750384D01*
X62154066Y-79757639D01*
X62138090Y-79763355D01*
X62121631Y-79767478D01*
X62104847Y-79769967D01*
X62087900Y-79770800D01*
X61742100Y-79770800D01*
X61725153Y-79769967D01*
X61708369Y-79767478D01*
X61691910Y-79763355D01*
X61675934Y-79757639D01*
X61660596Y-79750384D01*
X61646042Y-79741661D01*
X61632413Y-79731554D01*
X61619841Y-79720159D01*
X61608446Y-79707587D01*
X61598339Y-79693958D01*
X61589616Y-79679404D01*
X61582361Y-79664066D01*
X61576645Y-79648090D01*
X61572522Y-79631631D01*
X61570033Y-79614847D01*
X61569200Y-79597900D01*
X61569200Y-79202100D01*
X61570033Y-79185153D01*
X61572522Y-79168369D01*
X61576645Y-79151910D01*
X61582361Y-79135934D01*
X61589616Y-79120596D01*
X61598339Y-79106042D01*
X61608446Y-79092413D01*
X61619841Y-79079841D01*
X61632413Y-79068446D01*
X61646042Y-79058339D01*
X61660596Y-79049616D01*
X61675934Y-79042361D01*
X61691910Y-79036645D01*
X61708369Y-79032522D01*
X61725153Y-79030033D01*
X61742100Y-79029200D01*
X62087900Y-79029200D01*
X62104847Y-79030033D01*
X62104847Y-79030033D01*
G37*
D16*
X61915000Y-79400000D03*
D15*
G36*
X63074847Y-79030033D02*
G01*
X63091631Y-79032522D01*
X63108090Y-79036645D01*
X63124066Y-79042361D01*
X63139404Y-79049616D01*
X63153958Y-79058339D01*
X63167587Y-79068446D01*
X63180159Y-79079841D01*
X63191554Y-79092413D01*
X63201661Y-79106042D01*
X63210384Y-79120596D01*
X63217639Y-79135934D01*
X63223355Y-79151910D01*
X63227478Y-79168369D01*
X63229967Y-79185153D01*
X63230800Y-79202100D01*
X63230800Y-79597900D01*
X63229967Y-79614847D01*
X63227478Y-79631631D01*
X63223355Y-79648090D01*
X63217639Y-79664066D01*
X63210384Y-79679404D01*
X63201661Y-79693958D01*
X63191554Y-79707587D01*
X63180159Y-79720159D01*
X63167587Y-79731554D01*
X63153958Y-79741661D01*
X63139404Y-79750384D01*
X63124066Y-79757639D01*
X63108090Y-79763355D01*
X63091631Y-79767478D01*
X63074847Y-79769967D01*
X63057900Y-79770800D01*
X62712100Y-79770800D01*
X62695153Y-79769967D01*
X62678369Y-79767478D01*
X62661910Y-79763355D01*
X62645934Y-79757639D01*
X62630596Y-79750384D01*
X62616042Y-79741661D01*
X62602413Y-79731554D01*
X62589841Y-79720159D01*
X62578446Y-79707587D01*
X62568339Y-79693958D01*
X62559616Y-79679404D01*
X62552361Y-79664066D01*
X62546645Y-79648090D01*
X62542522Y-79631631D01*
X62540033Y-79614847D01*
X62539200Y-79597900D01*
X62539200Y-79202100D01*
X62540033Y-79185153D01*
X62542522Y-79168369D01*
X62546645Y-79151910D01*
X62552361Y-79135934D01*
X62559616Y-79120596D01*
X62568339Y-79106042D01*
X62578446Y-79092413D01*
X62589841Y-79079841D01*
X62602413Y-79068446D01*
X62616042Y-79058339D01*
X62630596Y-79049616D01*
X62645934Y-79042361D01*
X62661910Y-79036645D01*
X62678369Y-79032522D01*
X62695153Y-79030033D01*
X62712100Y-79029200D01*
X63057900Y-79029200D01*
X63074847Y-79030033D01*
X63074847Y-79030033D01*
G37*
D16*
X62885000Y-79400000D03*
G04 #@! TD*
D15*
G04 #@! TO.C,C33*
G36*
X56874847Y-79030033D02*
G01*
X56891631Y-79032522D01*
X56908090Y-79036645D01*
X56924066Y-79042361D01*
X56939404Y-79049616D01*
X56953958Y-79058339D01*
X56967587Y-79068446D01*
X56980159Y-79079841D01*
X56991554Y-79092413D01*
X57001661Y-79106042D01*
X57010384Y-79120596D01*
X57017639Y-79135934D01*
X57023355Y-79151910D01*
X57027478Y-79168369D01*
X57029967Y-79185153D01*
X57030800Y-79202100D01*
X57030800Y-79597900D01*
X57029967Y-79614847D01*
X57027478Y-79631631D01*
X57023355Y-79648090D01*
X57017639Y-79664066D01*
X57010384Y-79679404D01*
X57001661Y-79693958D01*
X56991554Y-79707587D01*
X56980159Y-79720159D01*
X56967587Y-79731554D01*
X56953958Y-79741661D01*
X56939404Y-79750384D01*
X56924066Y-79757639D01*
X56908090Y-79763355D01*
X56891631Y-79767478D01*
X56874847Y-79769967D01*
X56857900Y-79770800D01*
X56512100Y-79770800D01*
X56495153Y-79769967D01*
X56478369Y-79767478D01*
X56461910Y-79763355D01*
X56445934Y-79757639D01*
X56430596Y-79750384D01*
X56416042Y-79741661D01*
X56402413Y-79731554D01*
X56389841Y-79720159D01*
X56378446Y-79707587D01*
X56368339Y-79693958D01*
X56359616Y-79679404D01*
X56352361Y-79664066D01*
X56346645Y-79648090D01*
X56342522Y-79631631D01*
X56340033Y-79614847D01*
X56339200Y-79597900D01*
X56339200Y-79202100D01*
X56340033Y-79185153D01*
X56342522Y-79168369D01*
X56346645Y-79151910D01*
X56352361Y-79135934D01*
X56359616Y-79120596D01*
X56368339Y-79106042D01*
X56378446Y-79092413D01*
X56389841Y-79079841D01*
X56402413Y-79068446D01*
X56416042Y-79058339D01*
X56430596Y-79049616D01*
X56445934Y-79042361D01*
X56461910Y-79036645D01*
X56478369Y-79032522D01*
X56495153Y-79030033D01*
X56512100Y-79029200D01*
X56857900Y-79029200D01*
X56874847Y-79030033D01*
X56874847Y-79030033D01*
G37*
D16*
X56685000Y-79400000D03*
D15*
G36*
X55904847Y-79030033D02*
G01*
X55921631Y-79032522D01*
X55938090Y-79036645D01*
X55954066Y-79042361D01*
X55969404Y-79049616D01*
X55983958Y-79058339D01*
X55997587Y-79068446D01*
X56010159Y-79079841D01*
X56021554Y-79092413D01*
X56031661Y-79106042D01*
X56040384Y-79120596D01*
X56047639Y-79135934D01*
X56053355Y-79151910D01*
X56057478Y-79168369D01*
X56059967Y-79185153D01*
X56060800Y-79202100D01*
X56060800Y-79597900D01*
X56059967Y-79614847D01*
X56057478Y-79631631D01*
X56053355Y-79648090D01*
X56047639Y-79664066D01*
X56040384Y-79679404D01*
X56031661Y-79693958D01*
X56021554Y-79707587D01*
X56010159Y-79720159D01*
X55997587Y-79731554D01*
X55983958Y-79741661D01*
X55969404Y-79750384D01*
X55954066Y-79757639D01*
X55938090Y-79763355D01*
X55921631Y-79767478D01*
X55904847Y-79769967D01*
X55887900Y-79770800D01*
X55542100Y-79770800D01*
X55525153Y-79769967D01*
X55508369Y-79767478D01*
X55491910Y-79763355D01*
X55475934Y-79757639D01*
X55460596Y-79750384D01*
X55446042Y-79741661D01*
X55432413Y-79731554D01*
X55419841Y-79720159D01*
X55408446Y-79707587D01*
X55398339Y-79693958D01*
X55389616Y-79679404D01*
X55382361Y-79664066D01*
X55376645Y-79648090D01*
X55372522Y-79631631D01*
X55370033Y-79614847D01*
X55369200Y-79597900D01*
X55369200Y-79202100D01*
X55370033Y-79185153D01*
X55372522Y-79168369D01*
X55376645Y-79151910D01*
X55382361Y-79135934D01*
X55389616Y-79120596D01*
X55398339Y-79106042D01*
X55408446Y-79092413D01*
X55419841Y-79079841D01*
X55432413Y-79068446D01*
X55446042Y-79058339D01*
X55460596Y-79049616D01*
X55475934Y-79042361D01*
X55491910Y-79036645D01*
X55508369Y-79032522D01*
X55525153Y-79030033D01*
X55542100Y-79029200D01*
X55887900Y-79029200D01*
X55904847Y-79030033D01*
X55904847Y-79030033D01*
G37*
D16*
X55715000Y-79400000D03*
G04 #@! TD*
D15*
G04 #@! TO.C,C30*
G36*
X58704847Y-58830033D02*
G01*
X58721631Y-58832522D01*
X58738090Y-58836645D01*
X58754066Y-58842361D01*
X58769404Y-58849616D01*
X58783958Y-58858339D01*
X58797587Y-58868446D01*
X58810159Y-58879841D01*
X58821554Y-58892413D01*
X58831661Y-58906042D01*
X58840384Y-58920596D01*
X58847639Y-58935934D01*
X58853355Y-58951910D01*
X58857478Y-58968369D01*
X58859967Y-58985153D01*
X58860800Y-59002100D01*
X58860800Y-59397900D01*
X58859967Y-59414847D01*
X58857478Y-59431631D01*
X58853355Y-59448090D01*
X58847639Y-59464066D01*
X58840384Y-59479404D01*
X58831661Y-59493958D01*
X58821554Y-59507587D01*
X58810159Y-59520159D01*
X58797587Y-59531554D01*
X58783958Y-59541661D01*
X58769404Y-59550384D01*
X58754066Y-59557639D01*
X58738090Y-59563355D01*
X58721631Y-59567478D01*
X58704847Y-59569967D01*
X58687900Y-59570800D01*
X58342100Y-59570800D01*
X58325153Y-59569967D01*
X58308369Y-59567478D01*
X58291910Y-59563355D01*
X58275934Y-59557639D01*
X58260596Y-59550384D01*
X58246042Y-59541661D01*
X58232413Y-59531554D01*
X58219841Y-59520159D01*
X58208446Y-59507587D01*
X58198339Y-59493958D01*
X58189616Y-59479404D01*
X58182361Y-59464066D01*
X58176645Y-59448090D01*
X58172522Y-59431631D01*
X58170033Y-59414847D01*
X58169200Y-59397900D01*
X58169200Y-59002100D01*
X58170033Y-58985153D01*
X58172522Y-58968369D01*
X58176645Y-58951910D01*
X58182361Y-58935934D01*
X58189616Y-58920596D01*
X58198339Y-58906042D01*
X58208446Y-58892413D01*
X58219841Y-58879841D01*
X58232413Y-58868446D01*
X58246042Y-58858339D01*
X58260596Y-58849616D01*
X58275934Y-58842361D01*
X58291910Y-58836645D01*
X58308369Y-58832522D01*
X58325153Y-58830033D01*
X58342100Y-58829200D01*
X58687900Y-58829200D01*
X58704847Y-58830033D01*
X58704847Y-58830033D01*
G37*
D16*
X58515000Y-59200000D03*
D15*
G36*
X59674847Y-58830033D02*
G01*
X59691631Y-58832522D01*
X59708090Y-58836645D01*
X59724066Y-58842361D01*
X59739404Y-58849616D01*
X59753958Y-58858339D01*
X59767587Y-58868446D01*
X59780159Y-58879841D01*
X59791554Y-58892413D01*
X59801661Y-58906042D01*
X59810384Y-58920596D01*
X59817639Y-58935934D01*
X59823355Y-58951910D01*
X59827478Y-58968369D01*
X59829967Y-58985153D01*
X59830800Y-59002100D01*
X59830800Y-59397900D01*
X59829967Y-59414847D01*
X59827478Y-59431631D01*
X59823355Y-59448090D01*
X59817639Y-59464066D01*
X59810384Y-59479404D01*
X59801661Y-59493958D01*
X59791554Y-59507587D01*
X59780159Y-59520159D01*
X59767587Y-59531554D01*
X59753958Y-59541661D01*
X59739404Y-59550384D01*
X59724066Y-59557639D01*
X59708090Y-59563355D01*
X59691631Y-59567478D01*
X59674847Y-59569967D01*
X59657900Y-59570800D01*
X59312100Y-59570800D01*
X59295153Y-59569967D01*
X59278369Y-59567478D01*
X59261910Y-59563355D01*
X59245934Y-59557639D01*
X59230596Y-59550384D01*
X59216042Y-59541661D01*
X59202413Y-59531554D01*
X59189841Y-59520159D01*
X59178446Y-59507587D01*
X59168339Y-59493958D01*
X59159616Y-59479404D01*
X59152361Y-59464066D01*
X59146645Y-59448090D01*
X59142522Y-59431631D01*
X59140033Y-59414847D01*
X59139200Y-59397900D01*
X59139200Y-59002100D01*
X59140033Y-58985153D01*
X59142522Y-58968369D01*
X59146645Y-58951910D01*
X59152361Y-58935934D01*
X59159616Y-58920596D01*
X59168339Y-58906042D01*
X59178446Y-58892413D01*
X59189841Y-58879841D01*
X59202413Y-58868446D01*
X59216042Y-58858339D01*
X59230596Y-58849616D01*
X59245934Y-58842361D01*
X59261910Y-58836645D01*
X59278369Y-58832522D01*
X59295153Y-58830033D01*
X59312100Y-58829200D01*
X59657900Y-58829200D01*
X59674847Y-58830033D01*
X59674847Y-58830033D01*
G37*
D16*
X59485000Y-59200000D03*
G04 #@! TD*
D15*
G04 #@! TO.C,C29*
G36*
X60814847Y-66540033D02*
G01*
X60831631Y-66542522D01*
X60848090Y-66546645D01*
X60864066Y-66552361D01*
X60879404Y-66559616D01*
X60893958Y-66568339D01*
X60907587Y-66578446D01*
X60920159Y-66589841D01*
X60931554Y-66602413D01*
X60941661Y-66616042D01*
X60950384Y-66630596D01*
X60957639Y-66645934D01*
X60963355Y-66661910D01*
X60967478Y-66678369D01*
X60969967Y-66695153D01*
X60970800Y-66712100D01*
X60970800Y-67057900D01*
X60969967Y-67074847D01*
X60967478Y-67091631D01*
X60963355Y-67108090D01*
X60957639Y-67124066D01*
X60950384Y-67139404D01*
X60941661Y-67153958D01*
X60931554Y-67167587D01*
X60920159Y-67180159D01*
X60907587Y-67191554D01*
X60893958Y-67201661D01*
X60879404Y-67210384D01*
X60864066Y-67217639D01*
X60848090Y-67223355D01*
X60831631Y-67227478D01*
X60814847Y-67229967D01*
X60797900Y-67230800D01*
X60402100Y-67230800D01*
X60385153Y-67229967D01*
X60368369Y-67227478D01*
X60351910Y-67223355D01*
X60335934Y-67217639D01*
X60320596Y-67210384D01*
X60306042Y-67201661D01*
X60292413Y-67191554D01*
X60279841Y-67180159D01*
X60268446Y-67167587D01*
X60258339Y-67153958D01*
X60249616Y-67139404D01*
X60242361Y-67124066D01*
X60236645Y-67108090D01*
X60232522Y-67091631D01*
X60230033Y-67074847D01*
X60229200Y-67057900D01*
X60229200Y-66712100D01*
X60230033Y-66695153D01*
X60232522Y-66678369D01*
X60236645Y-66661910D01*
X60242361Y-66645934D01*
X60249616Y-66630596D01*
X60258339Y-66616042D01*
X60268446Y-66602413D01*
X60279841Y-66589841D01*
X60292413Y-66578446D01*
X60306042Y-66568339D01*
X60320596Y-66559616D01*
X60335934Y-66552361D01*
X60351910Y-66546645D01*
X60368369Y-66542522D01*
X60385153Y-66540033D01*
X60402100Y-66539200D01*
X60797900Y-66539200D01*
X60814847Y-66540033D01*
X60814847Y-66540033D01*
G37*
D16*
X60600000Y-66885000D03*
D15*
G36*
X60814847Y-65570033D02*
G01*
X60831631Y-65572522D01*
X60848090Y-65576645D01*
X60864066Y-65582361D01*
X60879404Y-65589616D01*
X60893958Y-65598339D01*
X60907587Y-65608446D01*
X60920159Y-65619841D01*
X60931554Y-65632413D01*
X60941661Y-65646042D01*
X60950384Y-65660596D01*
X60957639Y-65675934D01*
X60963355Y-65691910D01*
X60967478Y-65708369D01*
X60969967Y-65725153D01*
X60970800Y-65742100D01*
X60970800Y-66087900D01*
X60969967Y-66104847D01*
X60967478Y-66121631D01*
X60963355Y-66138090D01*
X60957639Y-66154066D01*
X60950384Y-66169404D01*
X60941661Y-66183958D01*
X60931554Y-66197587D01*
X60920159Y-66210159D01*
X60907587Y-66221554D01*
X60893958Y-66231661D01*
X60879404Y-66240384D01*
X60864066Y-66247639D01*
X60848090Y-66253355D01*
X60831631Y-66257478D01*
X60814847Y-66259967D01*
X60797900Y-66260800D01*
X60402100Y-66260800D01*
X60385153Y-66259967D01*
X60368369Y-66257478D01*
X60351910Y-66253355D01*
X60335934Y-66247639D01*
X60320596Y-66240384D01*
X60306042Y-66231661D01*
X60292413Y-66221554D01*
X60279841Y-66210159D01*
X60268446Y-66197587D01*
X60258339Y-66183958D01*
X60249616Y-66169404D01*
X60242361Y-66154066D01*
X60236645Y-66138090D01*
X60232522Y-66121631D01*
X60230033Y-66104847D01*
X60229200Y-66087900D01*
X60229200Y-65742100D01*
X60230033Y-65725153D01*
X60232522Y-65708369D01*
X60236645Y-65691910D01*
X60242361Y-65675934D01*
X60249616Y-65660596D01*
X60258339Y-65646042D01*
X60268446Y-65632413D01*
X60279841Y-65619841D01*
X60292413Y-65608446D01*
X60306042Y-65598339D01*
X60320596Y-65589616D01*
X60335934Y-65582361D01*
X60351910Y-65576645D01*
X60368369Y-65572522D01*
X60385153Y-65570033D01*
X60402100Y-65569200D01*
X60797900Y-65569200D01*
X60814847Y-65570033D01*
X60814847Y-65570033D01*
G37*
D16*
X60600000Y-65915000D03*
G04 #@! TD*
D15*
G04 #@! TO.C,C28*
G36*
X63704847Y-59030033D02*
G01*
X63721631Y-59032522D01*
X63738090Y-59036645D01*
X63754066Y-59042361D01*
X63769404Y-59049616D01*
X63783958Y-59058339D01*
X63797587Y-59068446D01*
X63810159Y-59079841D01*
X63821554Y-59092413D01*
X63831661Y-59106042D01*
X63840384Y-59120596D01*
X63847639Y-59135934D01*
X63853355Y-59151910D01*
X63857478Y-59168369D01*
X63859967Y-59185153D01*
X63860800Y-59202100D01*
X63860800Y-59597900D01*
X63859967Y-59614847D01*
X63857478Y-59631631D01*
X63853355Y-59648090D01*
X63847639Y-59664066D01*
X63840384Y-59679404D01*
X63831661Y-59693958D01*
X63821554Y-59707587D01*
X63810159Y-59720159D01*
X63797587Y-59731554D01*
X63783958Y-59741661D01*
X63769404Y-59750384D01*
X63754066Y-59757639D01*
X63738090Y-59763355D01*
X63721631Y-59767478D01*
X63704847Y-59769967D01*
X63687900Y-59770800D01*
X63342100Y-59770800D01*
X63325153Y-59769967D01*
X63308369Y-59767478D01*
X63291910Y-59763355D01*
X63275934Y-59757639D01*
X63260596Y-59750384D01*
X63246042Y-59741661D01*
X63232413Y-59731554D01*
X63219841Y-59720159D01*
X63208446Y-59707587D01*
X63198339Y-59693958D01*
X63189616Y-59679404D01*
X63182361Y-59664066D01*
X63176645Y-59648090D01*
X63172522Y-59631631D01*
X63170033Y-59614847D01*
X63169200Y-59597900D01*
X63169200Y-59202100D01*
X63170033Y-59185153D01*
X63172522Y-59168369D01*
X63176645Y-59151910D01*
X63182361Y-59135934D01*
X63189616Y-59120596D01*
X63198339Y-59106042D01*
X63208446Y-59092413D01*
X63219841Y-59079841D01*
X63232413Y-59068446D01*
X63246042Y-59058339D01*
X63260596Y-59049616D01*
X63275934Y-59042361D01*
X63291910Y-59036645D01*
X63308369Y-59032522D01*
X63325153Y-59030033D01*
X63342100Y-59029200D01*
X63687900Y-59029200D01*
X63704847Y-59030033D01*
X63704847Y-59030033D01*
G37*
D16*
X63515000Y-59400000D03*
D15*
G36*
X64674847Y-59030033D02*
G01*
X64691631Y-59032522D01*
X64708090Y-59036645D01*
X64724066Y-59042361D01*
X64739404Y-59049616D01*
X64753958Y-59058339D01*
X64767587Y-59068446D01*
X64780159Y-59079841D01*
X64791554Y-59092413D01*
X64801661Y-59106042D01*
X64810384Y-59120596D01*
X64817639Y-59135934D01*
X64823355Y-59151910D01*
X64827478Y-59168369D01*
X64829967Y-59185153D01*
X64830800Y-59202100D01*
X64830800Y-59597900D01*
X64829967Y-59614847D01*
X64827478Y-59631631D01*
X64823355Y-59648090D01*
X64817639Y-59664066D01*
X64810384Y-59679404D01*
X64801661Y-59693958D01*
X64791554Y-59707587D01*
X64780159Y-59720159D01*
X64767587Y-59731554D01*
X64753958Y-59741661D01*
X64739404Y-59750384D01*
X64724066Y-59757639D01*
X64708090Y-59763355D01*
X64691631Y-59767478D01*
X64674847Y-59769967D01*
X64657900Y-59770800D01*
X64312100Y-59770800D01*
X64295153Y-59769967D01*
X64278369Y-59767478D01*
X64261910Y-59763355D01*
X64245934Y-59757639D01*
X64230596Y-59750384D01*
X64216042Y-59741661D01*
X64202413Y-59731554D01*
X64189841Y-59720159D01*
X64178446Y-59707587D01*
X64168339Y-59693958D01*
X64159616Y-59679404D01*
X64152361Y-59664066D01*
X64146645Y-59648090D01*
X64142522Y-59631631D01*
X64140033Y-59614847D01*
X64139200Y-59597900D01*
X64139200Y-59202100D01*
X64140033Y-59185153D01*
X64142522Y-59168369D01*
X64146645Y-59151910D01*
X64152361Y-59135934D01*
X64159616Y-59120596D01*
X64168339Y-59106042D01*
X64178446Y-59092413D01*
X64189841Y-59079841D01*
X64202413Y-59068446D01*
X64216042Y-59058339D01*
X64230596Y-59049616D01*
X64245934Y-59042361D01*
X64261910Y-59036645D01*
X64278369Y-59032522D01*
X64295153Y-59030033D01*
X64312100Y-59029200D01*
X64657900Y-59029200D01*
X64674847Y-59030033D01*
X64674847Y-59030033D01*
G37*
D16*
X64485000Y-59400000D03*
G04 #@! TD*
D15*
G04 #@! TO.C,C27*
G36*
X64814847Y-65540033D02*
G01*
X64831631Y-65542522D01*
X64848090Y-65546645D01*
X64864066Y-65552361D01*
X64879404Y-65559616D01*
X64893958Y-65568339D01*
X64907587Y-65578446D01*
X64920159Y-65589841D01*
X64931554Y-65602413D01*
X64941661Y-65616042D01*
X64950384Y-65630596D01*
X64957639Y-65645934D01*
X64963355Y-65661910D01*
X64967478Y-65678369D01*
X64969967Y-65695153D01*
X64970800Y-65712100D01*
X64970800Y-66057900D01*
X64969967Y-66074847D01*
X64967478Y-66091631D01*
X64963355Y-66108090D01*
X64957639Y-66124066D01*
X64950384Y-66139404D01*
X64941661Y-66153958D01*
X64931554Y-66167587D01*
X64920159Y-66180159D01*
X64907587Y-66191554D01*
X64893958Y-66201661D01*
X64879404Y-66210384D01*
X64864066Y-66217639D01*
X64848090Y-66223355D01*
X64831631Y-66227478D01*
X64814847Y-66229967D01*
X64797900Y-66230800D01*
X64402100Y-66230800D01*
X64385153Y-66229967D01*
X64368369Y-66227478D01*
X64351910Y-66223355D01*
X64335934Y-66217639D01*
X64320596Y-66210384D01*
X64306042Y-66201661D01*
X64292413Y-66191554D01*
X64279841Y-66180159D01*
X64268446Y-66167587D01*
X64258339Y-66153958D01*
X64249616Y-66139404D01*
X64242361Y-66124066D01*
X64236645Y-66108090D01*
X64232522Y-66091631D01*
X64230033Y-66074847D01*
X64229200Y-66057900D01*
X64229200Y-65712100D01*
X64230033Y-65695153D01*
X64232522Y-65678369D01*
X64236645Y-65661910D01*
X64242361Y-65645934D01*
X64249616Y-65630596D01*
X64258339Y-65616042D01*
X64268446Y-65602413D01*
X64279841Y-65589841D01*
X64292413Y-65578446D01*
X64306042Y-65568339D01*
X64320596Y-65559616D01*
X64335934Y-65552361D01*
X64351910Y-65546645D01*
X64368369Y-65542522D01*
X64385153Y-65540033D01*
X64402100Y-65539200D01*
X64797900Y-65539200D01*
X64814847Y-65540033D01*
X64814847Y-65540033D01*
G37*
D16*
X64600000Y-65885000D03*
D15*
G36*
X64814847Y-64570033D02*
G01*
X64831631Y-64572522D01*
X64848090Y-64576645D01*
X64864066Y-64582361D01*
X64879404Y-64589616D01*
X64893958Y-64598339D01*
X64907587Y-64608446D01*
X64920159Y-64619841D01*
X64931554Y-64632413D01*
X64941661Y-64646042D01*
X64950384Y-64660596D01*
X64957639Y-64675934D01*
X64963355Y-64691910D01*
X64967478Y-64708369D01*
X64969967Y-64725153D01*
X64970800Y-64742100D01*
X64970800Y-65087900D01*
X64969967Y-65104847D01*
X64967478Y-65121631D01*
X64963355Y-65138090D01*
X64957639Y-65154066D01*
X64950384Y-65169404D01*
X64941661Y-65183958D01*
X64931554Y-65197587D01*
X64920159Y-65210159D01*
X64907587Y-65221554D01*
X64893958Y-65231661D01*
X64879404Y-65240384D01*
X64864066Y-65247639D01*
X64848090Y-65253355D01*
X64831631Y-65257478D01*
X64814847Y-65259967D01*
X64797900Y-65260800D01*
X64402100Y-65260800D01*
X64385153Y-65259967D01*
X64368369Y-65257478D01*
X64351910Y-65253355D01*
X64335934Y-65247639D01*
X64320596Y-65240384D01*
X64306042Y-65231661D01*
X64292413Y-65221554D01*
X64279841Y-65210159D01*
X64268446Y-65197587D01*
X64258339Y-65183958D01*
X64249616Y-65169404D01*
X64242361Y-65154066D01*
X64236645Y-65138090D01*
X64232522Y-65121631D01*
X64230033Y-65104847D01*
X64229200Y-65087900D01*
X64229200Y-64742100D01*
X64230033Y-64725153D01*
X64232522Y-64708369D01*
X64236645Y-64691910D01*
X64242361Y-64675934D01*
X64249616Y-64660596D01*
X64258339Y-64646042D01*
X64268446Y-64632413D01*
X64279841Y-64619841D01*
X64292413Y-64608446D01*
X64306042Y-64598339D01*
X64320596Y-64589616D01*
X64335934Y-64582361D01*
X64351910Y-64576645D01*
X64368369Y-64572522D01*
X64385153Y-64570033D01*
X64402100Y-64569200D01*
X64797900Y-64569200D01*
X64814847Y-64570033D01*
X64814847Y-64570033D01*
G37*
D16*
X64600000Y-64915000D03*
G04 #@! TD*
D15*
G04 #@! TO.C,C26*
G36*
X59058031Y-56950496D02*
G01*
X59084159Y-56954372D01*
X59109780Y-56960790D01*
X59134649Y-56969688D01*
X59158526Y-56980981D01*
X59181182Y-56994560D01*
X59202397Y-57010294D01*
X59221968Y-57028032D01*
X59239706Y-57047603D01*
X59255440Y-57068818D01*
X59269019Y-57091474D01*
X59280312Y-57115351D01*
X59289210Y-57140220D01*
X59295628Y-57165841D01*
X59299504Y-57191969D01*
X59300800Y-57218350D01*
X59300800Y-58181650D01*
X59299504Y-58208031D01*
X59295628Y-58234159D01*
X59289210Y-58259780D01*
X59280312Y-58284649D01*
X59269019Y-58308526D01*
X59255440Y-58331182D01*
X59239706Y-58352397D01*
X59221968Y-58371968D01*
X59202397Y-58389706D01*
X59181182Y-58405440D01*
X59158526Y-58419019D01*
X59134649Y-58430312D01*
X59109780Y-58439210D01*
X59084159Y-58445628D01*
X59058031Y-58449504D01*
X59031650Y-58450800D01*
X58493350Y-58450800D01*
X58466969Y-58449504D01*
X58440841Y-58445628D01*
X58415220Y-58439210D01*
X58390351Y-58430312D01*
X58366474Y-58419019D01*
X58343818Y-58405440D01*
X58322603Y-58389706D01*
X58303032Y-58371968D01*
X58285294Y-58352397D01*
X58269560Y-58331182D01*
X58255981Y-58308526D01*
X58244688Y-58284649D01*
X58235790Y-58259780D01*
X58229372Y-58234159D01*
X58225496Y-58208031D01*
X58224200Y-58181650D01*
X58224200Y-57218350D01*
X58225496Y-57191969D01*
X58229372Y-57165841D01*
X58235790Y-57140220D01*
X58244688Y-57115351D01*
X58255981Y-57091474D01*
X58269560Y-57068818D01*
X58285294Y-57047603D01*
X58303032Y-57028032D01*
X58322603Y-57010294D01*
X58343818Y-56994560D01*
X58366474Y-56980981D01*
X58390351Y-56969688D01*
X58415220Y-56960790D01*
X58440841Y-56954372D01*
X58466969Y-56950496D01*
X58493350Y-56949200D01*
X59031650Y-56949200D01*
X59058031Y-56950496D01*
X59058031Y-56950496D01*
G37*
D23*
X58762500Y-57700000D03*
D15*
G36*
X60933031Y-56950496D02*
G01*
X60959159Y-56954372D01*
X60984780Y-56960790D01*
X61009649Y-56969688D01*
X61033526Y-56980981D01*
X61056182Y-56994560D01*
X61077397Y-57010294D01*
X61096968Y-57028032D01*
X61114706Y-57047603D01*
X61130440Y-57068818D01*
X61144019Y-57091474D01*
X61155312Y-57115351D01*
X61164210Y-57140220D01*
X61170628Y-57165841D01*
X61174504Y-57191969D01*
X61175800Y-57218350D01*
X61175800Y-58181650D01*
X61174504Y-58208031D01*
X61170628Y-58234159D01*
X61164210Y-58259780D01*
X61155312Y-58284649D01*
X61144019Y-58308526D01*
X61130440Y-58331182D01*
X61114706Y-58352397D01*
X61096968Y-58371968D01*
X61077397Y-58389706D01*
X61056182Y-58405440D01*
X61033526Y-58419019D01*
X61009649Y-58430312D01*
X60984780Y-58439210D01*
X60959159Y-58445628D01*
X60933031Y-58449504D01*
X60906650Y-58450800D01*
X60368350Y-58450800D01*
X60341969Y-58449504D01*
X60315841Y-58445628D01*
X60290220Y-58439210D01*
X60265351Y-58430312D01*
X60241474Y-58419019D01*
X60218818Y-58405440D01*
X60197603Y-58389706D01*
X60178032Y-58371968D01*
X60160294Y-58352397D01*
X60144560Y-58331182D01*
X60130981Y-58308526D01*
X60119688Y-58284649D01*
X60110790Y-58259780D01*
X60104372Y-58234159D01*
X60100496Y-58208031D01*
X60099200Y-58181650D01*
X60099200Y-57218350D01*
X60100496Y-57191969D01*
X60104372Y-57165841D01*
X60110790Y-57140220D01*
X60119688Y-57115351D01*
X60130981Y-57091474D01*
X60144560Y-57068818D01*
X60160294Y-57047603D01*
X60178032Y-57028032D01*
X60197603Y-57010294D01*
X60218818Y-56994560D01*
X60241474Y-56980981D01*
X60265351Y-56969688D01*
X60290220Y-56960790D01*
X60315841Y-56954372D01*
X60341969Y-56950496D01*
X60368350Y-56949200D01*
X60906650Y-56949200D01*
X60933031Y-56950496D01*
X60933031Y-56950496D01*
G37*
D23*
X60637500Y-57700000D03*
G04 #@! TD*
D15*
G04 #@! TO.C,C25*
G36*
X62608031Y-66800496D02*
G01*
X62634159Y-66804372D01*
X62659780Y-66810790D01*
X62684649Y-66819688D01*
X62708526Y-66830981D01*
X62731182Y-66844560D01*
X62752397Y-66860294D01*
X62771968Y-66878032D01*
X62789706Y-66897603D01*
X62805440Y-66918818D01*
X62819019Y-66941474D01*
X62830312Y-66965351D01*
X62839210Y-66990220D01*
X62845628Y-67015841D01*
X62849504Y-67041969D01*
X62850800Y-67068350D01*
X62850800Y-67606650D01*
X62849504Y-67633031D01*
X62845628Y-67659159D01*
X62839210Y-67684780D01*
X62830312Y-67709649D01*
X62819019Y-67733526D01*
X62805440Y-67756182D01*
X62789706Y-67777397D01*
X62771968Y-67796968D01*
X62752397Y-67814706D01*
X62731182Y-67830440D01*
X62708526Y-67844019D01*
X62684649Y-67855312D01*
X62659780Y-67864210D01*
X62634159Y-67870628D01*
X62608031Y-67874504D01*
X62581650Y-67875800D01*
X61618350Y-67875800D01*
X61591969Y-67874504D01*
X61565841Y-67870628D01*
X61540220Y-67864210D01*
X61515351Y-67855312D01*
X61491474Y-67844019D01*
X61468818Y-67830440D01*
X61447603Y-67814706D01*
X61428032Y-67796968D01*
X61410294Y-67777397D01*
X61394560Y-67756182D01*
X61380981Y-67733526D01*
X61369688Y-67709649D01*
X61360790Y-67684780D01*
X61354372Y-67659159D01*
X61350496Y-67633031D01*
X61349200Y-67606650D01*
X61349200Y-67068350D01*
X61350496Y-67041969D01*
X61354372Y-67015841D01*
X61360790Y-66990220D01*
X61369688Y-66965351D01*
X61380981Y-66941474D01*
X61394560Y-66918818D01*
X61410294Y-66897603D01*
X61428032Y-66878032D01*
X61447603Y-66860294D01*
X61468818Y-66844560D01*
X61491474Y-66830981D01*
X61515351Y-66819688D01*
X61540220Y-66810790D01*
X61565841Y-66804372D01*
X61591969Y-66800496D01*
X61618350Y-66799200D01*
X62581650Y-66799200D01*
X62608031Y-66800496D01*
X62608031Y-66800496D01*
G37*
D23*
X62100000Y-67337500D03*
D15*
G36*
X62608031Y-64925496D02*
G01*
X62634159Y-64929372D01*
X62659780Y-64935790D01*
X62684649Y-64944688D01*
X62708526Y-64955981D01*
X62731182Y-64969560D01*
X62752397Y-64985294D01*
X62771968Y-65003032D01*
X62789706Y-65022603D01*
X62805440Y-65043818D01*
X62819019Y-65066474D01*
X62830312Y-65090351D01*
X62839210Y-65115220D01*
X62845628Y-65140841D01*
X62849504Y-65166969D01*
X62850800Y-65193350D01*
X62850800Y-65731650D01*
X62849504Y-65758031D01*
X62845628Y-65784159D01*
X62839210Y-65809780D01*
X62830312Y-65834649D01*
X62819019Y-65858526D01*
X62805440Y-65881182D01*
X62789706Y-65902397D01*
X62771968Y-65921968D01*
X62752397Y-65939706D01*
X62731182Y-65955440D01*
X62708526Y-65969019D01*
X62684649Y-65980312D01*
X62659780Y-65989210D01*
X62634159Y-65995628D01*
X62608031Y-65999504D01*
X62581650Y-66000800D01*
X61618350Y-66000800D01*
X61591969Y-65999504D01*
X61565841Y-65995628D01*
X61540220Y-65989210D01*
X61515351Y-65980312D01*
X61491474Y-65969019D01*
X61468818Y-65955440D01*
X61447603Y-65939706D01*
X61428032Y-65921968D01*
X61410294Y-65902397D01*
X61394560Y-65881182D01*
X61380981Y-65858526D01*
X61369688Y-65834649D01*
X61360790Y-65809780D01*
X61354372Y-65784159D01*
X61350496Y-65758031D01*
X61349200Y-65731650D01*
X61349200Y-65193350D01*
X61350496Y-65166969D01*
X61354372Y-65140841D01*
X61360790Y-65115220D01*
X61369688Y-65090351D01*
X61380981Y-65066474D01*
X61394560Y-65043818D01*
X61410294Y-65022603D01*
X61428032Y-65003032D01*
X61447603Y-64985294D01*
X61468818Y-64969560D01*
X61491474Y-64955981D01*
X61515351Y-64944688D01*
X61540220Y-64935790D01*
X61565841Y-64929372D01*
X61591969Y-64925496D01*
X61618350Y-64924200D01*
X62581650Y-64924200D01*
X62608031Y-64925496D01*
X62608031Y-64925496D01*
G37*
D23*
X62100000Y-65462500D03*
G04 #@! TD*
D15*
G04 #@! TO.C,C22*
G36*
X57074847Y-61830033D02*
G01*
X57091631Y-61832522D01*
X57108090Y-61836645D01*
X57124066Y-61842361D01*
X57139404Y-61849616D01*
X57153958Y-61858339D01*
X57167587Y-61868446D01*
X57180159Y-61879841D01*
X57191554Y-61892413D01*
X57201661Y-61906042D01*
X57210384Y-61920596D01*
X57217639Y-61935934D01*
X57223355Y-61951910D01*
X57227478Y-61968369D01*
X57229967Y-61985153D01*
X57230800Y-62002100D01*
X57230800Y-62397900D01*
X57229967Y-62414847D01*
X57227478Y-62431631D01*
X57223355Y-62448090D01*
X57217639Y-62464066D01*
X57210384Y-62479404D01*
X57201661Y-62493958D01*
X57191554Y-62507587D01*
X57180159Y-62520159D01*
X57167587Y-62531554D01*
X57153958Y-62541661D01*
X57139404Y-62550384D01*
X57124066Y-62557639D01*
X57108090Y-62563355D01*
X57091631Y-62567478D01*
X57074847Y-62569967D01*
X57057900Y-62570800D01*
X56712100Y-62570800D01*
X56695153Y-62569967D01*
X56678369Y-62567478D01*
X56661910Y-62563355D01*
X56645934Y-62557639D01*
X56630596Y-62550384D01*
X56616042Y-62541661D01*
X56602413Y-62531554D01*
X56589841Y-62520159D01*
X56578446Y-62507587D01*
X56568339Y-62493958D01*
X56559616Y-62479404D01*
X56552361Y-62464066D01*
X56546645Y-62448090D01*
X56542522Y-62431631D01*
X56540033Y-62414847D01*
X56539200Y-62397900D01*
X56539200Y-62002100D01*
X56540033Y-61985153D01*
X56542522Y-61968369D01*
X56546645Y-61951910D01*
X56552361Y-61935934D01*
X56559616Y-61920596D01*
X56568339Y-61906042D01*
X56578446Y-61892413D01*
X56589841Y-61879841D01*
X56602413Y-61868446D01*
X56616042Y-61858339D01*
X56630596Y-61849616D01*
X56645934Y-61842361D01*
X56661910Y-61836645D01*
X56678369Y-61832522D01*
X56695153Y-61830033D01*
X56712100Y-61829200D01*
X57057900Y-61829200D01*
X57074847Y-61830033D01*
X57074847Y-61830033D01*
G37*
D16*
X56885000Y-62200000D03*
D15*
G36*
X56104847Y-61830033D02*
G01*
X56121631Y-61832522D01*
X56138090Y-61836645D01*
X56154066Y-61842361D01*
X56169404Y-61849616D01*
X56183958Y-61858339D01*
X56197587Y-61868446D01*
X56210159Y-61879841D01*
X56221554Y-61892413D01*
X56231661Y-61906042D01*
X56240384Y-61920596D01*
X56247639Y-61935934D01*
X56253355Y-61951910D01*
X56257478Y-61968369D01*
X56259967Y-61985153D01*
X56260800Y-62002100D01*
X56260800Y-62397900D01*
X56259967Y-62414847D01*
X56257478Y-62431631D01*
X56253355Y-62448090D01*
X56247639Y-62464066D01*
X56240384Y-62479404D01*
X56231661Y-62493958D01*
X56221554Y-62507587D01*
X56210159Y-62520159D01*
X56197587Y-62531554D01*
X56183958Y-62541661D01*
X56169404Y-62550384D01*
X56154066Y-62557639D01*
X56138090Y-62563355D01*
X56121631Y-62567478D01*
X56104847Y-62569967D01*
X56087900Y-62570800D01*
X55742100Y-62570800D01*
X55725153Y-62569967D01*
X55708369Y-62567478D01*
X55691910Y-62563355D01*
X55675934Y-62557639D01*
X55660596Y-62550384D01*
X55646042Y-62541661D01*
X55632413Y-62531554D01*
X55619841Y-62520159D01*
X55608446Y-62507587D01*
X55598339Y-62493958D01*
X55589616Y-62479404D01*
X55582361Y-62464066D01*
X55576645Y-62448090D01*
X55572522Y-62431631D01*
X55570033Y-62414847D01*
X55569200Y-62397900D01*
X55569200Y-62002100D01*
X55570033Y-61985153D01*
X55572522Y-61968369D01*
X55576645Y-61951910D01*
X55582361Y-61935934D01*
X55589616Y-61920596D01*
X55598339Y-61906042D01*
X55608446Y-61892413D01*
X55619841Y-61879841D01*
X55632413Y-61868446D01*
X55646042Y-61858339D01*
X55660596Y-61849616D01*
X55675934Y-61842361D01*
X55691910Y-61836645D01*
X55708369Y-61832522D01*
X55725153Y-61830033D01*
X55742100Y-61829200D01*
X56087900Y-61829200D01*
X56104847Y-61830033D01*
X56104847Y-61830033D01*
G37*
D16*
X55915000Y-62200000D03*
G04 #@! TD*
D15*
G04 #@! TO.C,C21*
G36*
X57074847Y-65030033D02*
G01*
X57091631Y-65032522D01*
X57108090Y-65036645D01*
X57124066Y-65042361D01*
X57139404Y-65049616D01*
X57153958Y-65058339D01*
X57167587Y-65068446D01*
X57180159Y-65079841D01*
X57191554Y-65092413D01*
X57201661Y-65106042D01*
X57210384Y-65120596D01*
X57217639Y-65135934D01*
X57223355Y-65151910D01*
X57227478Y-65168369D01*
X57229967Y-65185153D01*
X57230800Y-65202100D01*
X57230800Y-65597900D01*
X57229967Y-65614847D01*
X57227478Y-65631631D01*
X57223355Y-65648090D01*
X57217639Y-65664066D01*
X57210384Y-65679404D01*
X57201661Y-65693958D01*
X57191554Y-65707587D01*
X57180159Y-65720159D01*
X57167587Y-65731554D01*
X57153958Y-65741661D01*
X57139404Y-65750384D01*
X57124066Y-65757639D01*
X57108090Y-65763355D01*
X57091631Y-65767478D01*
X57074847Y-65769967D01*
X57057900Y-65770800D01*
X56712100Y-65770800D01*
X56695153Y-65769967D01*
X56678369Y-65767478D01*
X56661910Y-65763355D01*
X56645934Y-65757639D01*
X56630596Y-65750384D01*
X56616042Y-65741661D01*
X56602413Y-65731554D01*
X56589841Y-65720159D01*
X56578446Y-65707587D01*
X56568339Y-65693958D01*
X56559616Y-65679404D01*
X56552361Y-65664066D01*
X56546645Y-65648090D01*
X56542522Y-65631631D01*
X56540033Y-65614847D01*
X56539200Y-65597900D01*
X56539200Y-65202100D01*
X56540033Y-65185153D01*
X56542522Y-65168369D01*
X56546645Y-65151910D01*
X56552361Y-65135934D01*
X56559616Y-65120596D01*
X56568339Y-65106042D01*
X56578446Y-65092413D01*
X56589841Y-65079841D01*
X56602413Y-65068446D01*
X56616042Y-65058339D01*
X56630596Y-65049616D01*
X56645934Y-65042361D01*
X56661910Y-65036645D01*
X56678369Y-65032522D01*
X56695153Y-65030033D01*
X56712100Y-65029200D01*
X57057900Y-65029200D01*
X57074847Y-65030033D01*
X57074847Y-65030033D01*
G37*
D16*
X56885000Y-65400000D03*
D15*
G36*
X56104847Y-65030033D02*
G01*
X56121631Y-65032522D01*
X56138090Y-65036645D01*
X56154066Y-65042361D01*
X56169404Y-65049616D01*
X56183958Y-65058339D01*
X56197587Y-65068446D01*
X56210159Y-65079841D01*
X56221554Y-65092413D01*
X56231661Y-65106042D01*
X56240384Y-65120596D01*
X56247639Y-65135934D01*
X56253355Y-65151910D01*
X56257478Y-65168369D01*
X56259967Y-65185153D01*
X56260800Y-65202100D01*
X56260800Y-65597900D01*
X56259967Y-65614847D01*
X56257478Y-65631631D01*
X56253355Y-65648090D01*
X56247639Y-65664066D01*
X56240384Y-65679404D01*
X56231661Y-65693958D01*
X56221554Y-65707587D01*
X56210159Y-65720159D01*
X56197587Y-65731554D01*
X56183958Y-65741661D01*
X56169404Y-65750384D01*
X56154066Y-65757639D01*
X56138090Y-65763355D01*
X56121631Y-65767478D01*
X56104847Y-65769967D01*
X56087900Y-65770800D01*
X55742100Y-65770800D01*
X55725153Y-65769967D01*
X55708369Y-65767478D01*
X55691910Y-65763355D01*
X55675934Y-65757639D01*
X55660596Y-65750384D01*
X55646042Y-65741661D01*
X55632413Y-65731554D01*
X55619841Y-65720159D01*
X55608446Y-65707587D01*
X55598339Y-65693958D01*
X55589616Y-65679404D01*
X55582361Y-65664066D01*
X55576645Y-65648090D01*
X55572522Y-65631631D01*
X55570033Y-65614847D01*
X55569200Y-65597900D01*
X55569200Y-65202100D01*
X55570033Y-65185153D01*
X55572522Y-65168369D01*
X55576645Y-65151910D01*
X55582361Y-65135934D01*
X55589616Y-65120596D01*
X55598339Y-65106042D01*
X55608446Y-65092413D01*
X55619841Y-65079841D01*
X55632413Y-65068446D01*
X55646042Y-65058339D01*
X55660596Y-65049616D01*
X55675934Y-65042361D01*
X55691910Y-65036645D01*
X55708369Y-65032522D01*
X55725153Y-65030033D01*
X55742100Y-65029200D01*
X56087900Y-65029200D01*
X56104847Y-65030033D01*
X56104847Y-65030033D01*
G37*
D16*
X55915000Y-65400000D03*
G04 #@! TD*
D15*
G04 #@! TO.C,C20*
G36*
X62304847Y-61830033D02*
G01*
X62321631Y-61832522D01*
X62338090Y-61836645D01*
X62354066Y-61842361D01*
X62369404Y-61849616D01*
X62383958Y-61858339D01*
X62397587Y-61868446D01*
X62410159Y-61879841D01*
X62421554Y-61892413D01*
X62431661Y-61906042D01*
X62440384Y-61920596D01*
X62447639Y-61935934D01*
X62453355Y-61951910D01*
X62457478Y-61968369D01*
X62459967Y-61985153D01*
X62460800Y-62002100D01*
X62460800Y-62397900D01*
X62459967Y-62414847D01*
X62457478Y-62431631D01*
X62453355Y-62448090D01*
X62447639Y-62464066D01*
X62440384Y-62479404D01*
X62431661Y-62493958D01*
X62421554Y-62507587D01*
X62410159Y-62520159D01*
X62397587Y-62531554D01*
X62383958Y-62541661D01*
X62369404Y-62550384D01*
X62354066Y-62557639D01*
X62338090Y-62563355D01*
X62321631Y-62567478D01*
X62304847Y-62569967D01*
X62287900Y-62570800D01*
X61942100Y-62570800D01*
X61925153Y-62569967D01*
X61908369Y-62567478D01*
X61891910Y-62563355D01*
X61875934Y-62557639D01*
X61860596Y-62550384D01*
X61846042Y-62541661D01*
X61832413Y-62531554D01*
X61819841Y-62520159D01*
X61808446Y-62507587D01*
X61798339Y-62493958D01*
X61789616Y-62479404D01*
X61782361Y-62464066D01*
X61776645Y-62448090D01*
X61772522Y-62431631D01*
X61770033Y-62414847D01*
X61769200Y-62397900D01*
X61769200Y-62002100D01*
X61770033Y-61985153D01*
X61772522Y-61968369D01*
X61776645Y-61951910D01*
X61782361Y-61935934D01*
X61789616Y-61920596D01*
X61798339Y-61906042D01*
X61808446Y-61892413D01*
X61819841Y-61879841D01*
X61832413Y-61868446D01*
X61846042Y-61858339D01*
X61860596Y-61849616D01*
X61875934Y-61842361D01*
X61891910Y-61836645D01*
X61908369Y-61832522D01*
X61925153Y-61830033D01*
X61942100Y-61829200D01*
X62287900Y-61829200D01*
X62304847Y-61830033D01*
X62304847Y-61830033D01*
G37*
D16*
X62115000Y-62200000D03*
D15*
G36*
X63274847Y-61830033D02*
G01*
X63291631Y-61832522D01*
X63308090Y-61836645D01*
X63324066Y-61842361D01*
X63339404Y-61849616D01*
X63353958Y-61858339D01*
X63367587Y-61868446D01*
X63380159Y-61879841D01*
X63391554Y-61892413D01*
X63401661Y-61906042D01*
X63410384Y-61920596D01*
X63417639Y-61935934D01*
X63423355Y-61951910D01*
X63427478Y-61968369D01*
X63429967Y-61985153D01*
X63430800Y-62002100D01*
X63430800Y-62397900D01*
X63429967Y-62414847D01*
X63427478Y-62431631D01*
X63423355Y-62448090D01*
X63417639Y-62464066D01*
X63410384Y-62479404D01*
X63401661Y-62493958D01*
X63391554Y-62507587D01*
X63380159Y-62520159D01*
X63367587Y-62531554D01*
X63353958Y-62541661D01*
X63339404Y-62550384D01*
X63324066Y-62557639D01*
X63308090Y-62563355D01*
X63291631Y-62567478D01*
X63274847Y-62569967D01*
X63257900Y-62570800D01*
X62912100Y-62570800D01*
X62895153Y-62569967D01*
X62878369Y-62567478D01*
X62861910Y-62563355D01*
X62845934Y-62557639D01*
X62830596Y-62550384D01*
X62816042Y-62541661D01*
X62802413Y-62531554D01*
X62789841Y-62520159D01*
X62778446Y-62507587D01*
X62768339Y-62493958D01*
X62759616Y-62479404D01*
X62752361Y-62464066D01*
X62746645Y-62448090D01*
X62742522Y-62431631D01*
X62740033Y-62414847D01*
X62739200Y-62397900D01*
X62739200Y-62002100D01*
X62740033Y-61985153D01*
X62742522Y-61968369D01*
X62746645Y-61951910D01*
X62752361Y-61935934D01*
X62759616Y-61920596D01*
X62768339Y-61906042D01*
X62778446Y-61892413D01*
X62789841Y-61879841D01*
X62802413Y-61868446D01*
X62816042Y-61858339D01*
X62830596Y-61849616D01*
X62845934Y-61842361D01*
X62861910Y-61836645D01*
X62878369Y-61832522D01*
X62895153Y-61830033D01*
X62912100Y-61829200D01*
X63257900Y-61829200D01*
X63274847Y-61830033D01*
X63274847Y-61830033D01*
G37*
D16*
X63085000Y-62200000D03*
G04 #@! TD*
D15*
G04 #@! TO.C,C19*
G36*
X59904847Y-60230033D02*
G01*
X59921631Y-60232522D01*
X59938090Y-60236645D01*
X59954066Y-60242361D01*
X59969404Y-60249616D01*
X59983958Y-60258339D01*
X59997587Y-60268446D01*
X60010159Y-60279841D01*
X60021554Y-60292413D01*
X60031661Y-60306042D01*
X60040384Y-60320596D01*
X60047639Y-60335934D01*
X60053355Y-60351910D01*
X60057478Y-60368369D01*
X60059967Y-60385153D01*
X60060800Y-60402100D01*
X60060800Y-60797900D01*
X60059967Y-60814847D01*
X60057478Y-60831631D01*
X60053355Y-60848090D01*
X60047639Y-60864066D01*
X60040384Y-60879404D01*
X60031661Y-60893958D01*
X60021554Y-60907587D01*
X60010159Y-60920159D01*
X59997587Y-60931554D01*
X59983958Y-60941661D01*
X59969404Y-60950384D01*
X59954066Y-60957639D01*
X59938090Y-60963355D01*
X59921631Y-60967478D01*
X59904847Y-60969967D01*
X59887900Y-60970800D01*
X59542100Y-60970800D01*
X59525153Y-60969967D01*
X59508369Y-60967478D01*
X59491910Y-60963355D01*
X59475934Y-60957639D01*
X59460596Y-60950384D01*
X59446042Y-60941661D01*
X59432413Y-60931554D01*
X59419841Y-60920159D01*
X59408446Y-60907587D01*
X59398339Y-60893958D01*
X59389616Y-60879404D01*
X59382361Y-60864066D01*
X59376645Y-60848090D01*
X59372522Y-60831631D01*
X59370033Y-60814847D01*
X59369200Y-60797900D01*
X59369200Y-60402100D01*
X59370033Y-60385153D01*
X59372522Y-60368369D01*
X59376645Y-60351910D01*
X59382361Y-60335934D01*
X59389616Y-60320596D01*
X59398339Y-60306042D01*
X59408446Y-60292413D01*
X59419841Y-60279841D01*
X59432413Y-60268446D01*
X59446042Y-60258339D01*
X59460596Y-60249616D01*
X59475934Y-60242361D01*
X59491910Y-60236645D01*
X59508369Y-60232522D01*
X59525153Y-60230033D01*
X59542100Y-60229200D01*
X59887900Y-60229200D01*
X59904847Y-60230033D01*
X59904847Y-60230033D01*
G37*
D16*
X59715000Y-60600000D03*
D15*
G36*
X60874847Y-60230033D02*
G01*
X60891631Y-60232522D01*
X60908090Y-60236645D01*
X60924066Y-60242361D01*
X60939404Y-60249616D01*
X60953958Y-60258339D01*
X60967587Y-60268446D01*
X60980159Y-60279841D01*
X60991554Y-60292413D01*
X61001661Y-60306042D01*
X61010384Y-60320596D01*
X61017639Y-60335934D01*
X61023355Y-60351910D01*
X61027478Y-60368369D01*
X61029967Y-60385153D01*
X61030800Y-60402100D01*
X61030800Y-60797900D01*
X61029967Y-60814847D01*
X61027478Y-60831631D01*
X61023355Y-60848090D01*
X61017639Y-60864066D01*
X61010384Y-60879404D01*
X61001661Y-60893958D01*
X60991554Y-60907587D01*
X60980159Y-60920159D01*
X60967587Y-60931554D01*
X60953958Y-60941661D01*
X60939404Y-60950384D01*
X60924066Y-60957639D01*
X60908090Y-60963355D01*
X60891631Y-60967478D01*
X60874847Y-60969967D01*
X60857900Y-60970800D01*
X60512100Y-60970800D01*
X60495153Y-60969967D01*
X60478369Y-60967478D01*
X60461910Y-60963355D01*
X60445934Y-60957639D01*
X60430596Y-60950384D01*
X60416042Y-60941661D01*
X60402413Y-60931554D01*
X60389841Y-60920159D01*
X60378446Y-60907587D01*
X60368339Y-60893958D01*
X60359616Y-60879404D01*
X60352361Y-60864066D01*
X60346645Y-60848090D01*
X60342522Y-60831631D01*
X60340033Y-60814847D01*
X60339200Y-60797900D01*
X60339200Y-60402100D01*
X60340033Y-60385153D01*
X60342522Y-60368369D01*
X60346645Y-60351910D01*
X60352361Y-60335934D01*
X60359616Y-60320596D01*
X60368339Y-60306042D01*
X60378446Y-60292413D01*
X60389841Y-60279841D01*
X60402413Y-60268446D01*
X60416042Y-60258339D01*
X60430596Y-60249616D01*
X60445934Y-60242361D01*
X60461910Y-60236645D01*
X60478369Y-60232522D01*
X60495153Y-60230033D01*
X60512100Y-60229200D01*
X60857900Y-60229200D01*
X60874847Y-60230033D01*
X60874847Y-60230033D01*
G37*
D16*
X60685000Y-60600000D03*
G04 #@! TD*
D15*
G04 #@! TO.C,C16*
G36*
X57074847Y-63430033D02*
G01*
X57091631Y-63432522D01*
X57108090Y-63436645D01*
X57124066Y-63442361D01*
X57139404Y-63449616D01*
X57153958Y-63458339D01*
X57167587Y-63468446D01*
X57180159Y-63479841D01*
X57191554Y-63492413D01*
X57201661Y-63506042D01*
X57210384Y-63520596D01*
X57217639Y-63535934D01*
X57223355Y-63551910D01*
X57227478Y-63568369D01*
X57229967Y-63585153D01*
X57230800Y-63602100D01*
X57230800Y-63997900D01*
X57229967Y-64014847D01*
X57227478Y-64031631D01*
X57223355Y-64048090D01*
X57217639Y-64064066D01*
X57210384Y-64079404D01*
X57201661Y-64093958D01*
X57191554Y-64107587D01*
X57180159Y-64120159D01*
X57167587Y-64131554D01*
X57153958Y-64141661D01*
X57139404Y-64150384D01*
X57124066Y-64157639D01*
X57108090Y-64163355D01*
X57091631Y-64167478D01*
X57074847Y-64169967D01*
X57057900Y-64170800D01*
X56712100Y-64170800D01*
X56695153Y-64169967D01*
X56678369Y-64167478D01*
X56661910Y-64163355D01*
X56645934Y-64157639D01*
X56630596Y-64150384D01*
X56616042Y-64141661D01*
X56602413Y-64131554D01*
X56589841Y-64120159D01*
X56578446Y-64107587D01*
X56568339Y-64093958D01*
X56559616Y-64079404D01*
X56552361Y-64064066D01*
X56546645Y-64048090D01*
X56542522Y-64031631D01*
X56540033Y-64014847D01*
X56539200Y-63997900D01*
X56539200Y-63602100D01*
X56540033Y-63585153D01*
X56542522Y-63568369D01*
X56546645Y-63551910D01*
X56552361Y-63535934D01*
X56559616Y-63520596D01*
X56568339Y-63506042D01*
X56578446Y-63492413D01*
X56589841Y-63479841D01*
X56602413Y-63468446D01*
X56616042Y-63458339D01*
X56630596Y-63449616D01*
X56645934Y-63442361D01*
X56661910Y-63436645D01*
X56678369Y-63432522D01*
X56695153Y-63430033D01*
X56712100Y-63429200D01*
X57057900Y-63429200D01*
X57074847Y-63430033D01*
X57074847Y-63430033D01*
G37*
D16*
X56885000Y-63800000D03*
D15*
G36*
X56104847Y-63430033D02*
G01*
X56121631Y-63432522D01*
X56138090Y-63436645D01*
X56154066Y-63442361D01*
X56169404Y-63449616D01*
X56183958Y-63458339D01*
X56197587Y-63468446D01*
X56210159Y-63479841D01*
X56221554Y-63492413D01*
X56231661Y-63506042D01*
X56240384Y-63520596D01*
X56247639Y-63535934D01*
X56253355Y-63551910D01*
X56257478Y-63568369D01*
X56259967Y-63585153D01*
X56260800Y-63602100D01*
X56260800Y-63997900D01*
X56259967Y-64014847D01*
X56257478Y-64031631D01*
X56253355Y-64048090D01*
X56247639Y-64064066D01*
X56240384Y-64079404D01*
X56231661Y-64093958D01*
X56221554Y-64107587D01*
X56210159Y-64120159D01*
X56197587Y-64131554D01*
X56183958Y-64141661D01*
X56169404Y-64150384D01*
X56154066Y-64157639D01*
X56138090Y-64163355D01*
X56121631Y-64167478D01*
X56104847Y-64169967D01*
X56087900Y-64170800D01*
X55742100Y-64170800D01*
X55725153Y-64169967D01*
X55708369Y-64167478D01*
X55691910Y-64163355D01*
X55675934Y-64157639D01*
X55660596Y-64150384D01*
X55646042Y-64141661D01*
X55632413Y-64131554D01*
X55619841Y-64120159D01*
X55608446Y-64107587D01*
X55598339Y-64093958D01*
X55589616Y-64079404D01*
X55582361Y-64064066D01*
X55576645Y-64048090D01*
X55572522Y-64031631D01*
X55570033Y-64014847D01*
X55569200Y-63997900D01*
X55569200Y-63602100D01*
X55570033Y-63585153D01*
X55572522Y-63568369D01*
X55576645Y-63551910D01*
X55582361Y-63535934D01*
X55589616Y-63520596D01*
X55598339Y-63506042D01*
X55608446Y-63492413D01*
X55619841Y-63479841D01*
X55632413Y-63468446D01*
X55646042Y-63458339D01*
X55660596Y-63449616D01*
X55675934Y-63442361D01*
X55691910Y-63436645D01*
X55708369Y-63432522D01*
X55725153Y-63430033D01*
X55742100Y-63429200D01*
X56087900Y-63429200D01*
X56104847Y-63430033D01*
X56104847Y-63430033D01*
G37*
D16*
X55915000Y-63800000D03*
G04 #@! TD*
D15*
G04 #@! TO.C,C15*
G36*
X62304847Y-63430033D02*
G01*
X62321631Y-63432522D01*
X62338090Y-63436645D01*
X62354066Y-63442361D01*
X62369404Y-63449616D01*
X62383958Y-63458339D01*
X62397587Y-63468446D01*
X62410159Y-63479841D01*
X62421554Y-63492413D01*
X62431661Y-63506042D01*
X62440384Y-63520596D01*
X62447639Y-63535934D01*
X62453355Y-63551910D01*
X62457478Y-63568369D01*
X62459967Y-63585153D01*
X62460800Y-63602100D01*
X62460800Y-63997900D01*
X62459967Y-64014847D01*
X62457478Y-64031631D01*
X62453355Y-64048090D01*
X62447639Y-64064066D01*
X62440384Y-64079404D01*
X62431661Y-64093958D01*
X62421554Y-64107587D01*
X62410159Y-64120159D01*
X62397587Y-64131554D01*
X62383958Y-64141661D01*
X62369404Y-64150384D01*
X62354066Y-64157639D01*
X62338090Y-64163355D01*
X62321631Y-64167478D01*
X62304847Y-64169967D01*
X62287900Y-64170800D01*
X61942100Y-64170800D01*
X61925153Y-64169967D01*
X61908369Y-64167478D01*
X61891910Y-64163355D01*
X61875934Y-64157639D01*
X61860596Y-64150384D01*
X61846042Y-64141661D01*
X61832413Y-64131554D01*
X61819841Y-64120159D01*
X61808446Y-64107587D01*
X61798339Y-64093958D01*
X61789616Y-64079404D01*
X61782361Y-64064066D01*
X61776645Y-64048090D01*
X61772522Y-64031631D01*
X61770033Y-64014847D01*
X61769200Y-63997900D01*
X61769200Y-63602100D01*
X61770033Y-63585153D01*
X61772522Y-63568369D01*
X61776645Y-63551910D01*
X61782361Y-63535934D01*
X61789616Y-63520596D01*
X61798339Y-63506042D01*
X61808446Y-63492413D01*
X61819841Y-63479841D01*
X61832413Y-63468446D01*
X61846042Y-63458339D01*
X61860596Y-63449616D01*
X61875934Y-63442361D01*
X61891910Y-63436645D01*
X61908369Y-63432522D01*
X61925153Y-63430033D01*
X61942100Y-63429200D01*
X62287900Y-63429200D01*
X62304847Y-63430033D01*
X62304847Y-63430033D01*
G37*
D16*
X62115000Y-63800000D03*
D15*
G36*
X63274847Y-63430033D02*
G01*
X63291631Y-63432522D01*
X63308090Y-63436645D01*
X63324066Y-63442361D01*
X63339404Y-63449616D01*
X63353958Y-63458339D01*
X63367587Y-63468446D01*
X63380159Y-63479841D01*
X63391554Y-63492413D01*
X63401661Y-63506042D01*
X63410384Y-63520596D01*
X63417639Y-63535934D01*
X63423355Y-63551910D01*
X63427478Y-63568369D01*
X63429967Y-63585153D01*
X63430800Y-63602100D01*
X63430800Y-63997900D01*
X63429967Y-64014847D01*
X63427478Y-64031631D01*
X63423355Y-64048090D01*
X63417639Y-64064066D01*
X63410384Y-64079404D01*
X63401661Y-64093958D01*
X63391554Y-64107587D01*
X63380159Y-64120159D01*
X63367587Y-64131554D01*
X63353958Y-64141661D01*
X63339404Y-64150384D01*
X63324066Y-64157639D01*
X63308090Y-64163355D01*
X63291631Y-64167478D01*
X63274847Y-64169967D01*
X63257900Y-64170800D01*
X62912100Y-64170800D01*
X62895153Y-64169967D01*
X62878369Y-64167478D01*
X62861910Y-64163355D01*
X62845934Y-64157639D01*
X62830596Y-64150384D01*
X62816042Y-64141661D01*
X62802413Y-64131554D01*
X62789841Y-64120159D01*
X62778446Y-64107587D01*
X62768339Y-64093958D01*
X62759616Y-64079404D01*
X62752361Y-64064066D01*
X62746645Y-64048090D01*
X62742522Y-64031631D01*
X62740033Y-64014847D01*
X62739200Y-63997900D01*
X62739200Y-63602100D01*
X62740033Y-63585153D01*
X62742522Y-63568369D01*
X62746645Y-63551910D01*
X62752361Y-63535934D01*
X62759616Y-63520596D01*
X62768339Y-63506042D01*
X62778446Y-63492413D01*
X62789841Y-63479841D01*
X62802413Y-63468446D01*
X62816042Y-63458339D01*
X62830596Y-63449616D01*
X62845934Y-63442361D01*
X62861910Y-63436645D01*
X62878369Y-63432522D01*
X62895153Y-63430033D01*
X62912100Y-63429200D01*
X63257900Y-63429200D01*
X63274847Y-63430033D01*
X63274847Y-63430033D01*
G37*
D16*
X63085000Y-63800000D03*
G04 #@! TD*
D15*
G04 #@! TO.C,C14*
G36*
X57074847Y-60230033D02*
G01*
X57091631Y-60232522D01*
X57108090Y-60236645D01*
X57124066Y-60242361D01*
X57139404Y-60249616D01*
X57153958Y-60258339D01*
X57167587Y-60268446D01*
X57180159Y-60279841D01*
X57191554Y-60292413D01*
X57201661Y-60306042D01*
X57210384Y-60320596D01*
X57217639Y-60335934D01*
X57223355Y-60351910D01*
X57227478Y-60368369D01*
X57229967Y-60385153D01*
X57230800Y-60402100D01*
X57230800Y-60797900D01*
X57229967Y-60814847D01*
X57227478Y-60831631D01*
X57223355Y-60848090D01*
X57217639Y-60864066D01*
X57210384Y-60879404D01*
X57201661Y-60893958D01*
X57191554Y-60907587D01*
X57180159Y-60920159D01*
X57167587Y-60931554D01*
X57153958Y-60941661D01*
X57139404Y-60950384D01*
X57124066Y-60957639D01*
X57108090Y-60963355D01*
X57091631Y-60967478D01*
X57074847Y-60969967D01*
X57057900Y-60970800D01*
X56712100Y-60970800D01*
X56695153Y-60969967D01*
X56678369Y-60967478D01*
X56661910Y-60963355D01*
X56645934Y-60957639D01*
X56630596Y-60950384D01*
X56616042Y-60941661D01*
X56602413Y-60931554D01*
X56589841Y-60920159D01*
X56578446Y-60907587D01*
X56568339Y-60893958D01*
X56559616Y-60879404D01*
X56552361Y-60864066D01*
X56546645Y-60848090D01*
X56542522Y-60831631D01*
X56540033Y-60814847D01*
X56539200Y-60797900D01*
X56539200Y-60402100D01*
X56540033Y-60385153D01*
X56542522Y-60368369D01*
X56546645Y-60351910D01*
X56552361Y-60335934D01*
X56559616Y-60320596D01*
X56568339Y-60306042D01*
X56578446Y-60292413D01*
X56589841Y-60279841D01*
X56602413Y-60268446D01*
X56616042Y-60258339D01*
X56630596Y-60249616D01*
X56645934Y-60242361D01*
X56661910Y-60236645D01*
X56678369Y-60232522D01*
X56695153Y-60230033D01*
X56712100Y-60229200D01*
X57057900Y-60229200D01*
X57074847Y-60230033D01*
X57074847Y-60230033D01*
G37*
D16*
X56885000Y-60600000D03*
D15*
G36*
X56104847Y-60230033D02*
G01*
X56121631Y-60232522D01*
X56138090Y-60236645D01*
X56154066Y-60242361D01*
X56169404Y-60249616D01*
X56183958Y-60258339D01*
X56197587Y-60268446D01*
X56210159Y-60279841D01*
X56221554Y-60292413D01*
X56231661Y-60306042D01*
X56240384Y-60320596D01*
X56247639Y-60335934D01*
X56253355Y-60351910D01*
X56257478Y-60368369D01*
X56259967Y-60385153D01*
X56260800Y-60402100D01*
X56260800Y-60797900D01*
X56259967Y-60814847D01*
X56257478Y-60831631D01*
X56253355Y-60848090D01*
X56247639Y-60864066D01*
X56240384Y-60879404D01*
X56231661Y-60893958D01*
X56221554Y-60907587D01*
X56210159Y-60920159D01*
X56197587Y-60931554D01*
X56183958Y-60941661D01*
X56169404Y-60950384D01*
X56154066Y-60957639D01*
X56138090Y-60963355D01*
X56121631Y-60967478D01*
X56104847Y-60969967D01*
X56087900Y-60970800D01*
X55742100Y-60970800D01*
X55725153Y-60969967D01*
X55708369Y-60967478D01*
X55691910Y-60963355D01*
X55675934Y-60957639D01*
X55660596Y-60950384D01*
X55646042Y-60941661D01*
X55632413Y-60931554D01*
X55619841Y-60920159D01*
X55608446Y-60907587D01*
X55598339Y-60893958D01*
X55589616Y-60879404D01*
X55582361Y-60864066D01*
X55576645Y-60848090D01*
X55572522Y-60831631D01*
X55570033Y-60814847D01*
X55569200Y-60797900D01*
X55569200Y-60402100D01*
X55570033Y-60385153D01*
X55572522Y-60368369D01*
X55576645Y-60351910D01*
X55582361Y-60335934D01*
X55589616Y-60320596D01*
X55598339Y-60306042D01*
X55608446Y-60292413D01*
X55619841Y-60279841D01*
X55632413Y-60268446D01*
X55646042Y-60258339D01*
X55660596Y-60249616D01*
X55675934Y-60242361D01*
X55691910Y-60236645D01*
X55708369Y-60232522D01*
X55725153Y-60230033D01*
X55742100Y-60229200D01*
X56087900Y-60229200D01*
X56104847Y-60230033D01*
X56104847Y-60230033D01*
G37*
D16*
X55915000Y-60600000D03*
G04 #@! TD*
D15*
G04 #@! TO.C,C13*
G36*
X62304847Y-60230033D02*
G01*
X62321631Y-60232522D01*
X62338090Y-60236645D01*
X62354066Y-60242361D01*
X62369404Y-60249616D01*
X62383958Y-60258339D01*
X62397587Y-60268446D01*
X62410159Y-60279841D01*
X62421554Y-60292413D01*
X62431661Y-60306042D01*
X62440384Y-60320596D01*
X62447639Y-60335934D01*
X62453355Y-60351910D01*
X62457478Y-60368369D01*
X62459967Y-60385153D01*
X62460800Y-60402100D01*
X62460800Y-60797900D01*
X62459967Y-60814847D01*
X62457478Y-60831631D01*
X62453355Y-60848090D01*
X62447639Y-60864066D01*
X62440384Y-60879404D01*
X62431661Y-60893958D01*
X62421554Y-60907587D01*
X62410159Y-60920159D01*
X62397587Y-60931554D01*
X62383958Y-60941661D01*
X62369404Y-60950384D01*
X62354066Y-60957639D01*
X62338090Y-60963355D01*
X62321631Y-60967478D01*
X62304847Y-60969967D01*
X62287900Y-60970800D01*
X61942100Y-60970800D01*
X61925153Y-60969967D01*
X61908369Y-60967478D01*
X61891910Y-60963355D01*
X61875934Y-60957639D01*
X61860596Y-60950384D01*
X61846042Y-60941661D01*
X61832413Y-60931554D01*
X61819841Y-60920159D01*
X61808446Y-60907587D01*
X61798339Y-60893958D01*
X61789616Y-60879404D01*
X61782361Y-60864066D01*
X61776645Y-60848090D01*
X61772522Y-60831631D01*
X61770033Y-60814847D01*
X61769200Y-60797900D01*
X61769200Y-60402100D01*
X61770033Y-60385153D01*
X61772522Y-60368369D01*
X61776645Y-60351910D01*
X61782361Y-60335934D01*
X61789616Y-60320596D01*
X61798339Y-60306042D01*
X61808446Y-60292413D01*
X61819841Y-60279841D01*
X61832413Y-60268446D01*
X61846042Y-60258339D01*
X61860596Y-60249616D01*
X61875934Y-60242361D01*
X61891910Y-60236645D01*
X61908369Y-60232522D01*
X61925153Y-60230033D01*
X61942100Y-60229200D01*
X62287900Y-60229200D01*
X62304847Y-60230033D01*
X62304847Y-60230033D01*
G37*
D16*
X62115000Y-60600000D03*
D15*
G36*
X63274847Y-60230033D02*
G01*
X63291631Y-60232522D01*
X63308090Y-60236645D01*
X63324066Y-60242361D01*
X63339404Y-60249616D01*
X63353958Y-60258339D01*
X63367587Y-60268446D01*
X63380159Y-60279841D01*
X63391554Y-60292413D01*
X63401661Y-60306042D01*
X63410384Y-60320596D01*
X63417639Y-60335934D01*
X63423355Y-60351910D01*
X63427478Y-60368369D01*
X63429967Y-60385153D01*
X63430800Y-60402100D01*
X63430800Y-60797900D01*
X63429967Y-60814847D01*
X63427478Y-60831631D01*
X63423355Y-60848090D01*
X63417639Y-60864066D01*
X63410384Y-60879404D01*
X63401661Y-60893958D01*
X63391554Y-60907587D01*
X63380159Y-60920159D01*
X63367587Y-60931554D01*
X63353958Y-60941661D01*
X63339404Y-60950384D01*
X63324066Y-60957639D01*
X63308090Y-60963355D01*
X63291631Y-60967478D01*
X63274847Y-60969967D01*
X63257900Y-60970800D01*
X62912100Y-60970800D01*
X62895153Y-60969967D01*
X62878369Y-60967478D01*
X62861910Y-60963355D01*
X62845934Y-60957639D01*
X62830596Y-60950384D01*
X62816042Y-60941661D01*
X62802413Y-60931554D01*
X62789841Y-60920159D01*
X62778446Y-60907587D01*
X62768339Y-60893958D01*
X62759616Y-60879404D01*
X62752361Y-60864066D01*
X62746645Y-60848090D01*
X62742522Y-60831631D01*
X62740033Y-60814847D01*
X62739200Y-60797900D01*
X62739200Y-60402100D01*
X62740033Y-60385153D01*
X62742522Y-60368369D01*
X62746645Y-60351910D01*
X62752361Y-60335934D01*
X62759616Y-60320596D01*
X62768339Y-60306042D01*
X62778446Y-60292413D01*
X62789841Y-60279841D01*
X62802413Y-60268446D01*
X62816042Y-60258339D01*
X62830596Y-60249616D01*
X62845934Y-60242361D01*
X62861910Y-60236645D01*
X62878369Y-60232522D01*
X62895153Y-60230033D01*
X62912100Y-60229200D01*
X63257900Y-60229200D01*
X63274847Y-60230033D01*
X63274847Y-60230033D01*
G37*
D16*
X63085000Y-60600000D03*
G04 #@! TD*
M02*
