G04 #@! TF.GenerationSoftware,KiCad,Pcbnew,(5.1.9)-1*
G04 #@! TF.CreationDate,2021-06-07T22:02:30-04:00*
G04 #@! TF.ProjectId,icepool-board,69636570-6f6f-46c2-9d62-6f6172642e6b,2020-04*
G04 #@! TF.SameCoordinates,Original*
G04 #@! TF.FileFunction,Soldermask,Top*
G04 #@! TF.FilePolarity,Negative*
%FSLAX46Y46*%
G04 Gerber Fmt 4.6, Leading zero omitted, Abs format (unit mm)*
G04 Created by KiCad (PCBNEW (5.1.9)-1) date 2021-06-07 22:02:30*
%MOMM*%
%LPD*%
G01*
G04 APERTURE LIST*
%ADD10O,1.801600X1.801600*%
%ADD11C,0.501600*%
G04 APERTURE END LIST*
G36*
G01*
X41899200Y-83981650D02*
X41899200Y-83018350D01*
G75*
G02*
X42168350Y-82749200I269150J0D01*
G01*
X42706650Y-82749200D01*
G75*
G02*
X42975800Y-83018350I0J-269150D01*
G01*
X42975800Y-83981650D01*
G75*
G02*
X42706650Y-84250800I-269150J0D01*
G01*
X42168350Y-84250800D01*
G75*
G02*
X41899200Y-83981650I0J269150D01*
G01*
G37*
G36*
G01*
X40024200Y-83981650D02*
X40024200Y-83018350D01*
G75*
G02*
X40293350Y-82749200I269150J0D01*
G01*
X40831650Y-82749200D01*
G75*
G02*
X41100800Y-83018350I0J-269150D01*
G01*
X41100800Y-83981650D01*
G75*
G02*
X40831650Y-84250800I-269150J0D01*
G01*
X40293350Y-84250800D01*
G75*
G02*
X40024200Y-83981650I0J269150D01*
G01*
G37*
D10*
X50530000Y-111540000D03*
X50530000Y-109000000D03*
X47990000Y-111540000D03*
X47990000Y-109000000D03*
X45450000Y-111540000D03*
X45450000Y-109000000D03*
X42910000Y-111540000D03*
X42910000Y-109000000D03*
X40370000Y-111540000D03*
X40370000Y-109000000D03*
X37830000Y-111540000D03*
X37830000Y-109000000D03*
X35290000Y-111540000D03*
X35290000Y-109000000D03*
X32750000Y-111540000D03*
G36*
G01*
X33600000Y-109900800D02*
X31900000Y-109900800D01*
G75*
G02*
X31849200Y-109850000I0J50800D01*
G01*
X31849200Y-108150000D01*
G75*
G02*
X31900000Y-108099200I50800J0D01*
G01*
X33600000Y-108099200D01*
G75*
G02*
X33650800Y-108150000I0J-50800D01*
G01*
X33650800Y-109850000D01*
G75*
G02*
X33600000Y-109900800I-50800J0D01*
G01*
G37*
G36*
G01*
X41739200Y-104397900D02*
X41739200Y-104002100D01*
G75*
G02*
X41912100Y-103829200I172900J0D01*
G01*
X42257900Y-103829200D01*
G75*
G02*
X42430800Y-104002100I0J-172900D01*
G01*
X42430800Y-104397900D01*
G75*
G02*
X42257900Y-104570800I-172900J0D01*
G01*
X41912100Y-104570800D01*
G75*
G02*
X41739200Y-104397900I0J172900D01*
G01*
G37*
G36*
G01*
X40769200Y-104397900D02*
X40769200Y-104002100D01*
G75*
G02*
X40942100Y-103829200I172900J0D01*
G01*
X41287900Y-103829200D01*
G75*
G02*
X41460800Y-104002100I0J-172900D01*
G01*
X41460800Y-104397900D01*
G75*
G02*
X41287900Y-104570800I-172900J0D01*
G01*
X40942100Y-104570800D01*
G75*
G02*
X40769200Y-104397900I0J172900D01*
G01*
G37*
G36*
G01*
X39739200Y-103397900D02*
X39739200Y-103002100D01*
G75*
G02*
X39912100Y-102829200I172900J0D01*
G01*
X40257900Y-102829200D01*
G75*
G02*
X40430800Y-103002100I0J-172900D01*
G01*
X40430800Y-103397900D01*
G75*
G02*
X40257900Y-103570800I-172900J0D01*
G01*
X39912100Y-103570800D01*
G75*
G02*
X39739200Y-103397900I0J172900D01*
G01*
G37*
G36*
G01*
X38769200Y-103397900D02*
X38769200Y-103002100D01*
G75*
G02*
X38942100Y-102829200I172900J0D01*
G01*
X39287900Y-102829200D01*
G75*
G02*
X39460800Y-103002100I0J-172900D01*
G01*
X39460800Y-103397900D01*
G75*
G02*
X39287900Y-103570800I-172900J0D01*
G01*
X38942100Y-103570800D01*
G75*
G02*
X38769200Y-103397900I0J172900D01*
G01*
G37*
D11*
X37500000Y-93500000D03*
X37500000Y-94300000D03*
X37500000Y-95100000D03*
X37500000Y-95900000D03*
X37500000Y-96700000D03*
X37500000Y-97500000D03*
X37500000Y-98300000D03*
X37500000Y-99100000D03*
X37500000Y-99900000D03*
X37500000Y-100700000D03*
X37500000Y-101500000D03*
X38300000Y-93500000D03*
X38300000Y-94300000D03*
X38300000Y-95100000D03*
X38300000Y-95900000D03*
X38300000Y-96700000D03*
X38300000Y-97500000D03*
X38300000Y-98300000D03*
X38300000Y-99100000D03*
X38300000Y-99900000D03*
X38300000Y-100700000D03*
X38300000Y-101500000D03*
X39100000Y-93500000D03*
X39100000Y-94300000D03*
X39100000Y-95100000D03*
X39100000Y-95900000D03*
X39100000Y-96700000D03*
X39100000Y-97500000D03*
X39100000Y-98300000D03*
X39100000Y-99100000D03*
X39100000Y-99900000D03*
X39100000Y-100700000D03*
X39100000Y-101500000D03*
X39900000Y-93500000D03*
X39900000Y-94300000D03*
X39900000Y-95100000D03*
X39900000Y-95900000D03*
X39900000Y-96700000D03*
X39900000Y-97500000D03*
X39900000Y-98300000D03*
X39900000Y-99100000D03*
X39900000Y-99900000D03*
X39900000Y-100700000D03*
X39900000Y-101500000D03*
X40700000Y-93500000D03*
X40700000Y-94300000D03*
X40700000Y-95100000D03*
X40700000Y-95900000D03*
X40700000Y-96700000D03*
X40700000Y-97500000D03*
X40700000Y-98300000D03*
X40700000Y-99100000D03*
X40700000Y-99900000D03*
X40700000Y-100700000D03*
X40700000Y-101500000D03*
X41500000Y-93500000D03*
X41500000Y-94300000D03*
X41500000Y-95100000D03*
X41500000Y-95900000D03*
X41500000Y-96700000D03*
X41500000Y-97500000D03*
X41500000Y-98300000D03*
X41500000Y-99100000D03*
X41500000Y-99900000D03*
X41500000Y-100700000D03*
X41500000Y-101500000D03*
X42300000Y-93500000D03*
X42300000Y-94300000D03*
X42300000Y-95100000D03*
X42300000Y-95900000D03*
X42300000Y-96700000D03*
X42300000Y-97500000D03*
X42300000Y-98300000D03*
X42300000Y-99100000D03*
X42300000Y-99900000D03*
X42300000Y-100700000D03*
X42300000Y-101500000D03*
X43100000Y-93500000D03*
X43100000Y-94300000D03*
X43100000Y-95100000D03*
X43100000Y-95900000D03*
X43100000Y-96700000D03*
X43100000Y-97500000D03*
X43100000Y-98300000D03*
X43100000Y-99100000D03*
X43100000Y-99900000D03*
X43100000Y-100700000D03*
X43100000Y-101500000D03*
X43900000Y-93500000D03*
X43900000Y-94300000D03*
X43900000Y-95100000D03*
X43900000Y-95900000D03*
X43900000Y-96700000D03*
X43900000Y-97500000D03*
X43900000Y-98300000D03*
X43900000Y-99100000D03*
X43900000Y-99900000D03*
X43900000Y-100700000D03*
X43900000Y-101500000D03*
X44700000Y-93500000D03*
X44700000Y-94300000D03*
X44700000Y-95100000D03*
X44700000Y-95900000D03*
X44700000Y-96700000D03*
X44700000Y-97500000D03*
X44700000Y-98300000D03*
X44700000Y-99100000D03*
X44700000Y-99900000D03*
X44700000Y-100700000D03*
X44700000Y-101500000D03*
X45500000Y-93500000D03*
X45500000Y-94300000D03*
X45500000Y-95100000D03*
X45500000Y-95900000D03*
X45500000Y-96700000D03*
X45500000Y-97500000D03*
X45500000Y-98300000D03*
X45500000Y-99100000D03*
X45500000Y-99900000D03*
X45500000Y-100700000D03*
X45500000Y-101500000D03*
G36*
G01*
X43602100Y-83639200D02*
X43997900Y-83639200D01*
G75*
G02*
X44170800Y-83812100I0J-172900D01*
G01*
X44170800Y-84157900D01*
G75*
G02*
X43997900Y-84330800I-172900J0D01*
G01*
X43602100Y-84330800D01*
G75*
G02*
X43429200Y-84157900I0J172900D01*
G01*
X43429200Y-83812100D01*
G75*
G02*
X43602100Y-83639200I172900J0D01*
G01*
G37*
G36*
G01*
X43602100Y-82669200D02*
X43997900Y-82669200D01*
G75*
G02*
X44170800Y-82842100I0J-172900D01*
G01*
X44170800Y-83187900D01*
G75*
G02*
X43997900Y-83360800I-172900J0D01*
G01*
X43602100Y-83360800D01*
G75*
G02*
X43429200Y-83187900I0J172900D01*
G01*
X43429200Y-82842100D01*
G75*
G02*
X43602100Y-82669200I172900J0D01*
G01*
G37*
G36*
G01*
X35797900Y-102830800D02*
X35402100Y-102830800D01*
G75*
G02*
X35229200Y-102657900I0J172900D01*
G01*
X35229200Y-102312100D01*
G75*
G02*
X35402100Y-102139200I172900J0D01*
G01*
X35797900Y-102139200D01*
G75*
G02*
X35970800Y-102312100I0J-172900D01*
G01*
X35970800Y-102657900D01*
G75*
G02*
X35797900Y-102830800I-172900J0D01*
G01*
G37*
G36*
G01*
X35797900Y-101860800D02*
X35402100Y-101860800D01*
G75*
G02*
X35229200Y-101687900I0J172900D01*
G01*
X35229200Y-101342100D01*
G75*
G02*
X35402100Y-101169200I172900J0D01*
G01*
X35797900Y-101169200D01*
G75*
G02*
X35970800Y-101342100I0J-172900D01*
G01*
X35970800Y-101687900D01*
G75*
G02*
X35797900Y-101860800I-172900J0D01*
G01*
G37*
G36*
G01*
X39739200Y-104401900D02*
X39739200Y-104006100D01*
G75*
G02*
X39912100Y-103833200I172900J0D01*
G01*
X40257900Y-103833200D01*
G75*
G02*
X40430800Y-104006100I0J-172900D01*
G01*
X40430800Y-104401900D01*
G75*
G02*
X40257900Y-104574800I-172900J0D01*
G01*
X39912100Y-104574800D01*
G75*
G02*
X39739200Y-104401900I0J172900D01*
G01*
G37*
G36*
G01*
X38769200Y-104401900D02*
X38769200Y-104006100D01*
G75*
G02*
X38942100Y-103833200I172900J0D01*
G01*
X39287900Y-103833200D01*
G75*
G02*
X39460800Y-104006100I0J-172900D01*
G01*
X39460800Y-104401900D01*
G75*
G02*
X39287900Y-104574800I-172900J0D01*
G01*
X38942100Y-104574800D01*
G75*
G02*
X38769200Y-104401900I0J172900D01*
G01*
G37*
G36*
G01*
X47860800Y-97302100D02*
X47860800Y-97697900D01*
G75*
G02*
X47687900Y-97870800I-172900J0D01*
G01*
X47342100Y-97870800D01*
G75*
G02*
X47169200Y-97697900I0J172900D01*
G01*
X47169200Y-97302100D01*
G75*
G02*
X47342100Y-97129200I172900J0D01*
G01*
X47687900Y-97129200D01*
G75*
G02*
X47860800Y-97302100I0J-172900D01*
G01*
G37*
G36*
G01*
X48830800Y-97302100D02*
X48830800Y-97697900D01*
G75*
G02*
X48657900Y-97870800I-172900J0D01*
G01*
X48312100Y-97870800D01*
G75*
G02*
X48139200Y-97697900I0J172900D01*
G01*
X48139200Y-97302100D01*
G75*
G02*
X48312100Y-97129200I172900J0D01*
G01*
X48657900Y-97129200D01*
G75*
G02*
X48830800Y-97302100I0J-172900D01*
G01*
G37*
G36*
G01*
X42660800Y-86102100D02*
X42660800Y-86497900D01*
G75*
G02*
X42487900Y-86670800I-172900J0D01*
G01*
X42142100Y-86670800D01*
G75*
G02*
X41969200Y-86497900I0J172900D01*
G01*
X41969200Y-86102100D01*
G75*
G02*
X42142100Y-85929200I172900J0D01*
G01*
X42487900Y-85929200D01*
G75*
G02*
X42660800Y-86102100I0J-172900D01*
G01*
G37*
G36*
G01*
X43630800Y-86102100D02*
X43630800Y-86497900D01*
G75*
G02*
X43457900Y-86670800I-172900J0D01*
G01*
X43112100Y-86670800D01*
G75*
G02*
X42939200Y-86497900I0J172900D01*
G01*
X42939200Y-86102100D01*
G75*
G02*
X43112100Y-85929200I172900J0D01*
G01*
X43457900Y-85929200D01*
G75*
G02*
X43630800Y-86102100I0J-172900D01*
G01*
G37*
G36*
G01*
X48402100Y-87039200D02*
X48797900Y-87039200D01*
G75*
G02*
X48970800Y-87212100I0J-172900D01*
G01*
X48970800Y-87557900D01*
G75*
G02*
X48797900Y-87730800I-172900J0D01*
G01*
X48402100Y-87730800D01*
G75*
G02*
X48229200Y-87557900I0J172900D01*
G01*
X48229200Y-87212100D01*
G75*
G02*
X48402100Y-87039200I172900J0D01*
G01*
G37*
G36*
G01*
X48402100Y-86069200D02*
X48797900Y-86069200D01*
G75*
G02*
X48970800Y-86242100I0J-172900D01*
G01*
X48970800Y-86587900D01*
G75*
G02*
X48797900Y-86760800I-172900J0D01*
G01*
X48402100Y-86760800D01*
G75*
G02*
X48229200Y-86587900I0J172900D01*
G01*
X48229200Y-86242100D01*
G75*
G02*
X48402100Y-86069200I172900J0D01*
G01*
G37*
G36*
G01*
X35797900Y-99860800D02*
X35402100Y-99860800D01*
G75*
G02*
X35229200Y-99687900I0J172900D01*
G01*
X35229200Y-99342100D01*
G75*
G02*
X35402100Y-99169200I172900J0D01*
G01*
X35797900Y-99169200D01*
G75*
G02*
X35970800Y-99342100I0J-172900D01*
G01*
X35970800Y-99687900D01*
G75*
G02*
X35797900Y-99860800I-172900J0D01*
G01*
G37*
G36*
G01*
X35797900Y-100830800D02*
X35402100Y-100830800D01*
G75*
G02*
X35229200Y-100657900I0J172900D01*
G01*
X35229200Y-100312100D01*
G75*
G02*
X35402100Y-100139200I172900J0D01*
G01*
X35797900Y-100139200D01*
G75*
G02*
X35970800Y-100312100I0J-172900D01*
G01*
X35970800Y-100657900D01*
G75*
G02*
X35797900Y-100830800I-172900J0D01*
G01*
G37*
G36*
G01*
X49875000Y-96750800D02*
X48775000Y-96750800D01*
G75*
G02*
X48724200Y-96700000I0J50800D01*
G01*
X48724200Y-95400000D01*
G75*
G02*
X48775000Y-95349200I50800J0D01*
G01*
X49875000Y-95349200D01*
G75*
G02*
X49925800Y-95400000I0J-50800D01*
G01*
X49925800Y-96700000D01*
G75*
G02*
X49875000Y-96750800I-50800J0D01*
G01*
G37*
G36*
G01*
X49875000Y-94650800D02*
X48775000Y-94650800D01*
G75*
G02*
X48724200Y-94600000I0J50800D01*
G01*
X48724200Y-93300000D01*
G75*
G02*
X48775000Y-93249200I50800J0D01*
G01*
X49875000Y-93249200D01*
G75*
G02*
X49925800Y-93300000I0J-50800D01*
G01*
X49925800Y-94600000D01*
G75*
G02*
X49875000Y-94650800I-50800J0D01*
G01*
G37*
G36*
G01*
X48225000Y-94650800D02*
X47125000Y-94650800D01*
G75*
G02*
X47074200Y-94600000I0J50800D01*
G01*
X47074200Y-93300000D01*
G75*
G02*
X47125000Y-93249200I50800J0D01*
G01*
X48225000Y-93249200D01*
G75*
G02*
X48275800Y-93300000I0J-50800D01*
G01*
X48275800Y-94600000D01*
G75*
G02*
X48225000Y-94650800I-50800J0D01*
G01*
G37*
G36*
G01*
X48225000Y-96750800D02*
X47125000Y-96750800D01*
G75*
G02*
X47074200Y-96700000I0J50800D01*
G01*
X47074200Y-95400000D01*
G75*
G02*
X47125000Y-95349200I50800J0D01*
G01*
X48225000Y-95349200D01*
G75*
G02*
X48275800Y-95400000I0J-50800D01*
G01*
X48275800Y-96700000D01*
G75*
G02*
X48225000Y-96750800I-50800J0D01*
G01*
G37*
G36*
G01*
X44984200Y-89092900D02*
X44984200Y-87407100D01*
G75*
G02*
X45492100Y-86899200I507900J0D01*
G01*
X46507900Y-86899200D01*
G75*
G02*
X47015800Y-87407100I0J-507900D01*
G01*
X47015800Y-89092900D01*
G75*
G02*
X46507900Y-89600800I-507900J0D01*
G01*
X45492100Y-89600800D01*
G75*
G02*
X44984200Y-89092900I0J507900D01*
G01*
G37*
G36*
G01*
X47109200Y-87305400D02*
X47109200Y-86394600D01*
G75*
G02*
X47304600Y-86199200I195400J0D01*
G01*
X47695400Y-86199200D01*
G75*
G02*
X47890800Y-86394600I0J-195400D01*
G01*
X47890800Y-87305400D01*
G75*
G02*
X47695400Y-87500800I-195400J0D01*
G01*
X47304600Y-87500800D01*
G75*
G02*
X47109200Y-87305400I0J195400D01*
G01*
G37*
G36*
G01*
X45084200Y-87275400D02*
X45084200Y-86724600D01*
G75*
G02*
X45359600Y-86449200I275400J0D01*
G01*
X46640400Y-86449200D01*
G75*
G02*
X46915800Y-86724600I0J-275400D01*
G01*
X46915800Y-87275400D01*
G75*
G02*
X46640400Y-87550800I-275400J0D01*
G01*
X45359600Y-87550800D01*
G75*
G02*
X45084200Y-87275400I0J275400D01*
G01*
G37*
G36*
G01*
X44109200Y-87305400D02*
X44109200Y-86394600D01*
G75*
G02*
X44304600Y-86199200I195400J0D01*
G01*
X44695400Y-86199200D01*
G75*
G02*
X44890800Y-86394600I0J-195400D01*
G01*
X44890800Y-87305400D01*
G75*
G02*
X44695400Y-87500800I-195400J0D01*
G01*
X44304600Y-87500800D01*
G75*
G02*
X44109200Y-87305400I0J195400D01*
G01*
G37*
G36*
G01*
X44109200Y-90605400D02*
X44109200Y-89694600D01*
G75*
G02*
X44304600Y-89499200I195400J0D01*
G01*
X44695400Y-89499200D01*
G75*
G02*
X44890800Y-89694600I0J-195400D01*
G01*
X44890800Y-90605400D01*
G75*
G02*
X44695400Y-90800800I-195400J0D01*
G01*
X44304600Y-90800800D01*
G75*
G02*
X44109200Y-90605400I0J195400D01*
G01*
G37*
G36*
G01*
X45609200Y-90605400D02*
X45609200Y-89294600D01*
G75*
G02*
X45804600Y-89099200I195400J0D01*
G01*
X46195400Y-89099200D01*
G75*
G02*
X46390800Y-89294600I0J-195400D01*
G01*
X46390800Y-90605400D01*
G75*
G02*
X46195400Y-90800800I-195400J0D01*
G01*
X45804600Y-90800800D01*
G75*
G02*
X45609200Y-90605400I0J195400D01*
G01*
G37*
G36*
G01*
X47109200Y-90605400D02*
X47109200Y-89694600D01*
G75*
G02*
X47304600Y-89499200I195400J0D01*
G01*
X47695400Y-89499200D01*
G75*
G02*
X47890800Y-89694600I0J-195400D01*
G01*
X47890800Y-90605400D01*
G75*
G02*
X47695400Y-90800800I-195400J0D01*
G01*
X47304600Y-90800800D01*
G75*
G02*
X47109200Y-90605400I0J195400D01*
G01*
G37*
G36*
G01*
X47860800Y-92302100D02*
X47860800Y-92697900D01*
G75*
G02*
X47687900Y-92870800I-172900J0D01*
G01*
X47342100Y-92870800D01*
G75*
G02*
X47169200Y-92697900I0J172900D01*
G01*
X47169200Y-92302100D01*
G75*
G02*
X47342100Y-92129200I172900J0D01*
G01*
X47687900Y-92129200D01*
G75*
G02*
X47860800Y-92302100I0J-172900D01*
G01*
G37*
G36*
G01*
X48830800Y-92302100D02*
X48830800Y-92697900D01*
G75*
G02*
X48657900Y-92870800I-172900J0D01*
G01*
X48312100Y-92870800D01*
G75*
G02*
X48139200Y-92697900I0J172900D01*
G01*
X48139200Y-92302100D01*
G75*
G02*
X48312100Y-92129200I172900J0D01*
G01*
X48657900Y-92129200D01*
G75*
G02*
X48830800Y-92302100I0J-172900D01*
G01*
G37*
M02*
