G04 #@! TF.GenerationSoftware,KiCad,Pcbnew,(5.1.9)-1*
G04 #@! TF.CreationDate,2021-06-07T22:02:30-04:00*
G04 #@! TF.ProjectId,icepool-board,69636570-6f6f-46c2-9d62-6f6172642e6b,2020-04*
G04 #@! TF.SameCoordinates,Original*
G04 #@! TF.FileFunction,Legend,Bot*
G04 #@! TF.FilePolarity,Positive*
%FSLAX46Y46*%
G04 Gerber Fmt 4.6, Leading zero omitted, Abs format (unit mm)*
G04 Created by KiCad (PCBNEW (5.1.9)-1) date 2021-06-07 22:02:30*
%MOMM*%
%LPD*%
G01*
G04 APERTURE LIST*
%ADD10C,0.100000*%
%ADD11C,0.120000*%
G04 APERTURE END LIST*
D10*
X45657142Y-96235714D02*
X45276190Y-96235714D01*
X45466666Y-96426190D02*
X45466666Y-96045238D01*
X45061904Y-95973809D02*
X45038095Y-95950000D01*
X44990476Y-95926190D01*
X44871428Y-95926190D01*
X44823809Y-95950000D01*
X44800000Y-95973809D01*
X44776190Y-96021428D01*
X44776190Y-96069047D01*
X44800000Y-96140476D01*
X45085714Y-96426190D01*
X44776190Y-96426190D01*
X44609523Y-96092857D02*
X44490476Y-96426190D01*
X44371428Y-96092857D01*
X43942857Y-95926190D02*
X44180952Y-95926190D01*
X44204761Y-96164285D01*
X44180952Y-96140476D01*
X44133333Y-96116666D01*
X44014285Y-96116666D01*
X43966666Y-96140476D01*
X43942857Y-96164285D01*
X43919047Y-96211904D01*
X43919047Y-96330952D01*
X43942857Y-96378571D01*
X43966666Y-96402380D01*
X44014285Y-96426190D01*
X44133333Y-96426190D01*
X44180952Y-96402380D01*
X44204761Y-96378571D01*
G36*
X51200000Y-106700000D02*
G01*
X47200000Y-106700000D01*
X47199999Y-99300000D01*
X51199999Y-99300000D01*
X51200000Y-106700000D01*
G37*
X51200000Y-106700000D02*
X47200000Y-106700000D01*
X47199999Y-99300000D01*
X51199999Y-99300000D01*
X51200000Y-106700000D01*
D11*
X45600000Y-95700000D02*
X45600000Y-94900000D01*
X43900000Y-95700000D02*
X45600000Y-95700000D01*
X43900000Y-94900000D02*
X43900000Y-95700000D01*
X45600000Y-94900000D02*
X43900000Y-94900000D01*
X39510000Y-101541422D02*
X39510000Y-102058578D01*
X38090000Y-101541422D02*
X38090000Y-102058578D01*
X41758578Y-92090000D02*
X41241422Y-92090000D01*
X41758578Y-93510000D02*
X41241422Y-93510000D01*
M02*
