G04 #@! TF.GenerationSoftware,KiCad,Pcbnew,(5.1.9)-1*
G04 #@! TF.CreationDate,2021-06-07T22:02:30-04:00*
G04 #@! TF.ProjectId,icepool-board,69636570-6f6f-46c2-9d62-6f6172642e6b,2020-04*
G04 #@! TF.SameCoordinates,Original*
G04 #@! TF.FileFunction,Copper,L4,Bot*
G04 #@! TF.FilePolarity,Positive*
%FSLAX46Y46*%
G04 Gerber Fmt 4.6, Leading zero omitted, Abs format (unit mm)*
G04 Created by KiCad (PCBNEW (5.1.9)-1) date 2021-06-07 22:02:30*
%MOMM*%
%LPD*%
G01*
G04 APERTURE LIST*
G04 #@! TA.AperFunction,EtchedComponent*
%ADD10C,0.100000*%
G04 #@! TD*
G04 #@! TA.AperFunction,ComponentPad*
%ADD11O,1.700000X1.700000*%
G04 #@! TD*
G04 #@! TA.AperFunction,ComponentPad*
%ADD12R,1.700000X1.700000*%
G04 #@! TD*
G04 #@! TA.AperFunction,SMDPad,CuDef*
%ADD13R,0.500000X0.500000*%
G04 #@! TD*
G04 #@! TA.AperFunction,ViaPad*
%ADD14C,0.800000*%
G04 #@! TD*
G04 #@! TA.AperFunction,ViaPad*
%ADD15C,0.450000*%
G04 #@! TD*
G04 #@! TA.AperFunction,ViaPad*
%ADD16C,0.500000*%
G04 #@! TD*
G04 #@! TA.AperFunction,Conductor*
%ADD17C,0.250000*%
G04 #@! TD*
G04 #@! TA.AperFunction,Conductor*
%ADD18C,0.304800*%
G04 #@! TD*
G04 #@! TA.AperFunction,Conductor*
%ADD19C,0.228600*%
G04 #@! TD*
G04 #@! TA.AperFunction,Conductor*
%ADD20C,0.101600*%
G04 #@! TD*
G04 #@! TA.AperFunction,Conductor*
%ADD21C,0.100000*%
G04 #@! TD*
G04 APERTURE END LIST*
D10*
G36*
X44950000Y-95100000D02*
G01*
X44450000Y-95100000D01*
X44450000Y-95500000D01*
X44950000Y-95500000D01*
X44950000Y-95100000D01*
G37*
D11*
X50530000Y-111540000D03*
X50530000Y-109000000D03*
X47990000Y-111540000D03*
X47990000Y-109000000D03*
X45450000Y-111540000D03*
X45450000Y-109000000D03*
X42910000Y-111540000D03*
X42910000Y-109000000D03*
X40370000Y-111540000D03*
X40370000Y-109000000D03*
X37830000Y-111540000D03*
X37830000Y-109000000D03*
X35290000Y-111540000D03*
X35290000Y-109000000D03*
X32750000Y-111540000D03*
D12*
X32750000Y-109000000D03*
D13*
X44250000Y-95300000D03*
X45150000Y-95300000D03*
G04 #@! TA.AperFunction,SMDPad,CuDef*
G36*
G01*
X40110000Y-95127500D02*
X40110000Y-95472500D01*
G75*
G02*
X39962500Y-95620000I-147500J0D01*
G01*
X39667500Y-95620000D01*
G75*
G02*
X39520000Y-95472500I0J147500D01*
G01*
X39520000Y-95127500D01*
G75*
G02*
X39667500Y-94980000I147500J0D01*
G01*
X39962500Y-94980000D01*
G75*
G02*
X40110000Y-95127500I0J-147500D01*
G01*
G37*
G04 #@! TD.AperFunction*
G04 #@! TA.AperFunction,SMDPad,CuDef*
G36*
G01*
X41080000Y-95127500D02*
X41080000Y-95472500D01*
G75*
G02*
X40932500Y-95620000I-147500J0D01*
G01*
X40637500Y-95620000D01*
G75*
G02*
X40490000Y-95472500I0J147500D01*
G01*
X40490000Y-95127500D01*
G75*
G02*
X40637500Y-94980000I147500J0D01*
G01*
X40932500Y-94980000D01*
G75*
G02*
X41080000Y-95127500I0J-147500D01*
G01*
G37*
G04 #@! TD.AperFunction*
G04 #@! TA.AperFunction,SMDPad,CuDef*
G36*
G01*
X42890000Y-100672500D02*
X42890000Y-100327500D01*
G75*
G02*
X43037500Y-100180000I147500J0D01*
G01*
X43332500Y-100180000D01*
G75*
G02*
X43480000Y-100327500I0J-147500D01*
G01*
X43480000Y-100672500D01*
G75*
G02*
X43332500Y-100820000I-147500J0D01*
G01*
X43037500Y-100820000D01*
G75*
G02*
X42890000Y-100672500I0J147500D01*
G01*
G37*
G04 #@! TD.AperFunction*
G04 #@! TA.AperFunction,SMDPad,CuDef*
G36*
G01*
X41920000Y-100672500D02*
X41920000Y-100327500D01*
G75*
G02*
X42067500Y-100180000I147500J0D01*
G01*
X42362500Y-100180000D01*
G75*
G02*
X42510000Y-100327500I0J-147500D01*
G01*
X42510000Y-100672500D01*
G75*
G02*
X42362500Y-100820000I-147500J0D01*
G01*
X42067500Y-100820000D01*
G75*
G02*
X41920000Y-100672500I0J147500D01*
G01*
G37*
G04 #@! TD.AperFunction*
G04 #@! TA.AperFunction,SMDPad,CuDef*
G36*
G01*
X38343750Y-100375000D02*
X39256250Y-100375000D01*
G75*
G02*
X39500000Y-100618750I0J-243750D01*
G01*
X39500000Y-101106250D01*
G75*
G02*
X39256250Y-101350000I-243750J0D01*
G01*
X38343750Y-101350000D01*
G75*
G02*
X38100000Y-101106250I0J243750D01*
G01*
X38100000Y-100618750D01*
G75*
G02*
X38343750Y-100375000I243750J0D01*
G01*
G37*
G04 #@! TD.AperFunction*
G04 #@! TA.AperFunction,SMDPad,CuDef*
G36*
G01*
X38343750Y-102250000D02*
X39256250Y-102250000D01*
G75*
G02*
X39500000Y-102493750I0J-243750D01*
G01*
X39500000Y-102981250D01*
G75*
G02*
X39256250Y-103225000I-243750J0D01*
G01*
X38343750Y-103225000D01*
G75*
G02*
X38100000Y-102981250I0J243750D01*
G01*
X38100000Y-102493750D01*
G75*
G02*
X38343750Y-102250000I243750J0D01*
G01*
G37*
G04 #@! TD.AperFunction*
G04 #@! TA.AperFunction,SMDPad,CuDef*
G36*
G01*
X40510000Y-94127500D02*
X40510000Y-94472500D01*
G75*
G02*
X40362500Y-94620000I-147500J0D01*
G01*
X40067500Y-94620000D01*
G75*
G02*
X39920000Y-94472500I0J147500D01*
G01*
X39920000Y-94127500D01*
G75*
G02*
X40067500Y-93980000I147500J0D01*
G01*
X40362500Y-93980000D01*
G75*
G02*
X40510000Y-94127500I0J-147500D01*
G01*
G37*
G04 #@! TD.AperFunction*
G04 #@! TA.AperFunction,SMDPad,CuDef*
G36*
G01*
X41480000Y-94127500D02*
X41480000Y-94472500D01*
G75*
G02*
X41332500Y-94620000I-147500J0D01*
G01*
X41037500Y-94620000D01*
G75*
G02*
X40890000Y-94472500I0J147500D01*
G01*
X40890000Y-94127500D01*
G75*
G02*
X41037500Y-93980000I147500J0D01*
G01*
X41332500Y-93980000D01*
G75*
G02*
X41480000Y-94127500I0J-147500D01*
G01*
G37*
G04 #@! TD.AperFunction*
G04 #@! TA.AperFunction,SMDPad,CuDef*
G36*
G01*
X45327500Y-101290000D02*
X45672500Y-101290000D01*
G75*
G02*
X45820000Y-101437500I0J-147500D01*
G01*
X45820000Y-101732500D01*
G75*
G02*
X45672500Y-101880000I-147500J0D01*
G01*
X45327500Y-101880000D01*
G75*
G02*
X45180000Y-101732500I0J147500D01*
G01*
X45180000Y-101437500D01*
G75*
G02*
X45327500Y-101290000I147500J0D01*
G01*
G37*
G04 #@! TD.AperFunction*
G04 #@! TA.AperFunction,SMDPad,CuDef*
G36*
G01*
X45327500Y-100320000D02*
X45672500Y-100320000D01*
G75*
G02*
X45820000Y-100467500I0J-147500D01*
G01*
X45820000Y-100762500D01*
G75*
G02*
X45672500Y-100910000I-147500J0D01*
G01*
X45327500Y-100910000D01*
G75*
G02*
X45180000Y-100762500I0J147500D01*
G01*
X45180000Y-100467500D01*
G75*
G02*
X45327500Y-100320000I147500J0D01*
G01*
G37*
G04 #@! TD.AperFunction*
G04 #@! TA.AperFunction,SMDPad,CuDef*
G36*
G01*
X40110000Y-96127500D02*
X40110000Y-96472500D01*
G75*
G02*
X39962500Y-96620000I-147500J0D01*
G01*
X39667500Y-96620000D01*
G75*
G02*
X39520000Y-96472500I0J147500D01*
G01*
X39520000Y-96127500D01*
G75*
G02*
X39667500Y-95980000I147500J0D01*
G01*
X39962500Y-95980000D01*
G75*
G02*
X40110000Y-96127500I0J-147500D01*
G01*
G37*
G04 #@! TD.AperFunction*
G04 #@! TA.AperFunction,SMDPad,CuDef*
G36*
G01*
X41080000Y-96127500D02*
X41080000Y-96472500D01*
G75*
G02*
X40932500Y-96620000I-147500J0D01*
G01*
X40637500Y-96620000D01*
G75*
G02*
X40490000Y-96472500I0J147500D01*
G01*
X40490000Y-96127500D01*
G75*
G02*
X40637500Y-95980000I147500J0D01*
G01*
X40932500Y-95980000D01*
G75*
G02*
X41080000Y-96127500I0J-147500D01*
G01*
G37*
G04 #@! TD.AperFunction*
G04 #@! TA.AperFunction,SMDPad,CuDef*
G36*
G01*
X42890000Y-99672500D02*
X42890000Y-99327500D01*
G75*
G02*
X43037500Y-99180000I147500J0D01*
G01*
X43332500Y-99180000D01*
G75*
G02*
X43480000Y-99327500I0J-147500D01*
G01*
X43480000Y-99672500D01*
G75*
G02*
X43332500Y-99820000I-147500J0D01*
G01*
X43037500Y-99820000D01*
G75*
G02*
X42890000Y-99672500I0J147500D01*
G01*
G37*
G04 #@! TD.AperFunction*
G04 #@! TA.AperFunction,SMDPad,CuDef*
G36*
G01*
X41920000Y-99672500D02*
X41920000Y-99327500D01*
G75*
G02*
X42067500Y-99180000I147500J0D01*
G01*
X42362500Y-99180000D01*
G75*
G02*
X42510000Y-99327500I0J-147500D01*
G01*
X42510000Y-99672500D01*
G75*
G02*
X42362500Y-99820000I-147500J0D01*
G01*
X42067500Y-99820000D01*
G75*
G02*
X41920000Y-99672500I0J147500D01*
G01*
G37*
G04 #@! TD.AperFunction*
G04 #@! TA.AperFunction,SMDPad,CuDef*
G36*
G01*
X42890000Y-97672500D02*
X42890000Y-97327500D01*
G75*
G02*
X43037500Y-97180000I147500J0D01*
G01*
X43332500Y-97180000D01*
G75*
G02*
X43480000Y-97327500I0J-147500D01*
G01*
X43480000Y-97672500D01*
G75*
G02*
X43332500Y-97820000I-147500J0D01*
G01*
X43037500Y-97820000D01*
G75*
G02*
X42890000Y-97672500I0J147500D01*
G01*
G37*
G04 #@! TD.AperFunction*
G04 #@! TA.AperFunction,SMDPad,CuDef*
G36*
G01*
X41920000Y-97672500D02*
X41920000Y-97327500D01*
G75*
G02*
X42067500Y-97180000I147500J0D01*
G01*
X42362500Y-97180000D01*
G75*
G02*
X42510000Y-97327500I0J-147500D01*
G01*
X42510000Y-97672500D01*
G75*
G02*
X42362500Y-97820000I-147500J0D01*
G01*
X42067500Y-97820000D01*
G75*
G02*
X41920000Y-97672500I0J147500D01*
G01*
G37*
G04 #@! TD.AperFunction*
G04 #@! TA.AperFunction,SMDPad,CuDef*
G36*
G01*
X42890000Y-94472500D02*
X42890000Y-94127500D01*
G75*
G02*
X43037500Y-93980000I147500J0D01*
G01*
X43332500Y-93980000D01*
G75*
G02*
X43480000Y-94127500I0J-147500D01*
G01*
X43480000Y-94472500D01*
G75*
G02*
X43332500Y-94620000I-147500J0D01*
G01*
X43037500Y-94620000D01*
G75*
G02*
X42890000Y-94472500I0J147500D01*
G01*
G37*
G04 #@! TD.AperFunction*
G04 #@! TA.AperFunction,SMDPad,CuDef*
G36*
G01*
X41920000Y-94472500D02*
X41920000Y-94127500D01*
G75*
G02*
X42067500Y-93980000I147500J0D01*
G01*
X42362500Y-93980000D01*
G75*
G02*
X42510000Y-94127500I0J-147500D01*
G01*
X42510000Y-94472500D01*
G75*
G02*
X42362500Y-94620000I-147500J0D01*
G01*
X42067500Y-94620000D01*
G75*
G02*
X41920000Y-94472500I0J147500D01*
G01*
G37*
G04 #@! TD.AperFunction*
G04 #@! TA.AperFunction,SMDPad,CuDef*
G36*
G01*
X42495000Y-95127500D02*
X42495000Y-95472500D01*
G75*
G02*
X42347500Y-95620000I-147500J0D01*
G01*
X42052500Y-95620000D01*
G75*
G02*
X41905000Y-95472500I0J147500D01*
G01*
X41905000Y-95127500D01*
G75*
G02*
X42052500Y-94980000I147500J0D01*
G01*
X42347500Y-94980000D01*
G75*
G02*
X42495000Y-95127500I0J-147500D01*
G01*
G37*
G04 #@! TD.AperFunction*
G04 #@! TA.AperFunction,SMDPad,CuDef*
G36*
G01*
X43465000Y-95127500D02*
X43465000Y-95472500D01*
G75*
G02*
X43317500Y-95620000I-147500J0D01*
G01*
X43022500Y-95620000D01*
G75*
G02*
X42875000Y-95472500I0J147500D01*
G01*
X42875000Y-95127500D01*
G75*
G02*
X43022500Y-94980000I147500J0D01*
G01*
X43317500Y-94980000D01*
G75*
G02*
X43465000Y-95127500I0J-147500D01*
G01*
G37*
G04 #@! TD.AperFunction*
G04 #@! TA.AperFunction,SMDPad,CuDef*
G36*
G01*
X42510000Y-98327500D02*
X42510000Y-98672500D01*
G75*
G02*
X42362500Y-98820000I-147500J0D01*
G01*
X42067500Y-98820000D01*
G75*
G02*
X41920000Y-98672500I0J147500D01*
G01*
X41920000Y-98327500D01*
G75*
G02*
X42067500Y-98180000I147500J0D01*
G01*
X42362500Y-98180000D01*
G75*
G02*
X42510000Y-98327500I0J-147500D01*
G01*
G37*
G04 #@! TD.AperFunction*
G04 #@! TA.AperFunction,SMDPad,CuDef*
G36*
G01*
X43480000Y-98327500D02*
X43480000Y-98672500D01*
G75*
G02*
X43332500Y-98820000I-147500J0D01*
G01*
X43037500Y-98820000D01*
G75*
G02*
X42890000Y-98672500I0J147500D01*
G01*
X42890000Y-98327500D01*
G75*
G02*
X43037500Y-98180000I147500J0D01*
G01*
X43332500Y-98180000D01*
G75*
G02*
X43480000Y-98327500I0J-147500D01*
G01*
G37*
G04 #@! TD.AperFunction*
G04 #@! TA.AperFunction,SMDPad,CuDef*
G36*
G01*
X40110000Y-99327500D02*
X40110000Y-99672500D01*
G75*
G02*
X39962500Y-99820000I-147500J0D01*
G01*
X39667500Y-99820000D01*
G75*
G02*
X39520000Y-99672500I0J147500D01*
G01*
X39520000Y-99327500D01*
G75*
G02*
X39667500Y-99180000I147500J0D01*
G01*
X39962500Y-99180000D01*
G75*
G02*
X40110000Y-99327500I0J-147500D01*
G01*
G37*
G04 #@! TD.AperFunction*
G04 #@! TA.AperFunction,SMDPad,CuDef*
G36*
G01*
X41080000Y-99327500D02*
X41080000Y-99672500D01*
G75*
G02*
X40932500Y-99820000I-147500J0D01*
G01*
X40637500Y-99820000D01*
G75*
G02*
X40490000Y-99672500I0J147500D01*
G01*
X40490000Y-99327500D01*
G75*
G02*
X40637500Y-99180000I147500J0D01*
G01*
X40932500Y-99180000D01*
G75*
G02*
X41080000Y-99327500I0J-147500D01*
G01*
G37*
G04 #@! TD.AperFunction*
G04 #@! TA.AperFunction,SMDPad,CuDef*
G36*
G01*
X41050000Y-92343750D02*
X41050000Y-93256250D01*
G75*
G02*
X40806250Y-93500000I-243750J0D01*
G01*
X40318750Y-93500000D01*
G75*
G02*
X40075000Y-93256250I0J243750D01*
G01*
X40075000Y-92343750D01*
G75*
G02*
X40318750Y-92100000I243750J0D01*
G01*
X40806250Y-92100000D01*
G75*
G02*
X41050000Y-92343750I0J-243750D01*
G01*
G37*
G04 #@! TD.AperFunction*
G04 #@! TA.AperFunction,SMDPad,CuDef*
G36*
G01*
X42925000Y-92343750D02*
X42925000Y-93256250D01*
G75*
G02*
X42681250Y-93500000I-243750J0D01*
G01*
X42193750Y-93500000D01*
G75*
G02*
X41950000Y-93256250I0J243750D01*
G01*
X41950000Y-92343750D01*
G75*
G02*
X42193750Y-92100000I243750J0D01*
G01*
X42681250Y-92100000D01*
G75*
G02*
X42925000Y-92343750I0J-243750D01*
G01*
G37*
G04 #@! TD.AperFunction*
G04 #@! TA.AperFunction,SMDPad,CuDef*
G36*
G01*
X40110000Y-97327500D02*
X40110000Y-97672500D01*
G75*
G02*
X39962500Y-97820000I-147500J0D01*
G01*
X39667500Y-97820000D01*
G75*
G02*
X39520000Y-97672500I0J147500D01*
G01*
X39520000Y-97327500D01*
G75*
G02*
X39667500Y-97180000I147500J0D01*
G01*
X39962500Y-97180000D01*
G75*
G02*
X40110000Y-97327500I0J-147500D01*
G01*
G37*
G04 #@! TD.AperFunction*
G04 #@! TA.AperFunction,SMDPad,CuDef*
G36*
G01*
X41080000Y-97327500D02*
X41080000Y-97672500D01*
G75*
G02*
X40932500Y-97820000I-147500J0D01*
G01*
X40637500Y-97820000D01*
G75*
G02*
X40490000Y-97672500I0J147500D01*
G01*
X40490000Y-97327500D01*
G75*
G02*
X40637500Y-97180000I147500J0D01*
G01*
X40932500Y-97180000D01*
G75*
G02*
X41080000Y-97327500I0J-147500D01*
G01*
G37*
G04 #@! TD.AperFunction*
G04 #@! TA.AperFunction,SMDPad,CuDef*
G36*
G01*
X40127500Y-101290000D02*
X40472500Y-101290000D01*
G75*
G02*
X40620000Y-101437500I0J-147500D01*
G01*
X40620000Y-101732500D01*
G75*
G02*
X40472500Y-101880000I-147500J0D01*
G01*
X40127500Y-101880000D01*
G75*
G02*
X39980000Y-101732500I0J147500D01*
G01*
X39980000Y-101437500D01*
G75*
G02*
X40127500Y-101290000I147500J0D01*
G01*
G37*
G04 #@! TD.AperFunction*
G04 #@! TA.AperFunction,SMDPad,CuDef*
G36*
G01*
X40127500Y-100320000D02*
X40472500Y-100320000D01*
G75*
G02*
X40620000Y-100467500I0J-147500D01*
G01*
X40620000Y-100762500D01*
G75*
G02*
X40472500Y-100910000I-147500J0D01*
G01*
X40127500Y-100910000D01*
G75*
G02*
X39980000Y-100762500I0J147500D01*
G01*
X39980000Y-100467500D01*
G75*
G02*
X40127500Y-100320000I147500J0D01*
G01*
G37*
G04 #@! TD.AperFunction*
G04 #@! TA.AperFunction,SMDPad,CuDef*
G36*
G01*
X42890000Y-96472500D02*
X42890000Y-96127500D01*
G75*
G02*
X43037500Y-95980000I147500J0D01*
G01*
X43332500Y-95980000D01*
G75*
G02*
X43480000Y-96127500I0J-147500D01*
G01*
X43480000Y-96472500D01*
G75*
G02*
X43332500Y-96620000I-147500J0D01*
G01*
X43037500Y-96620000D01*
G75*
G02*
X42890000Y-96472500I0J147500D01*
G01*
G37*
G04 #@! TD.AperFunction*
G04 #@! TA.AperFunction,SMDPad,CuDef*
G36*
G01*
X41920000Y-96472500D02*
X41920000Y-96127500D01*
G75*
G02*
X42067500Y-95980000I147500J0D01*
G01*
X42362500Y-95980000D01*
G75*
G02*
X42510000Y-96127500I0J-147500D01*
G01*
X42510000Y-96472500D01*
G75*
G02*
X42362500Y-96620000I-147500J0D01*
G01*
X42067500Y-96620000D01*
G75*
G02*
X41920000Y-96472500I0J147500D01*
G01*
G37*
G04 #@! TD.AperFunction*
D14*
X46736000Y-110300000D03*
X46736000Y-107760000D03*
D15*
X43500000Y-95500000D03*
D14*
X49276000Y-112840000D03*
D15*
X46200000Y-100800000D03*
D14*
X49276000Y-107760000D03*
X44400000Y-85400000D03*
X49200000Y-97500000D03*
D15*
X40300000Y-98700000D03*
X41900000Y-97100000D03*
X41100000Y-96300000D03*
D16*
X41100000Y-104800000D03*
X46000000Y-88200000D03*
D15*
X41100000Y-98700000D03*
X41100000Y-97900000D03*
D14*
X46736000Y-112840000D03*
X49276000Y-110300000D03*
X48600000Y-88300000D03*
D16*
X46000000Y-89200000D03*
D14*
X49279090Y-92500000D03*
D16*
X46000000Y-87200000D03*
D15*
X41900000Y-99500000D03*
X41100000Y-97100000D03*
X41900000Y-96300000D03*
X41100000Y-99500000D03*
D16*
X44600000Y-84000000D03*
X35000000Y-100500000D03*
D15*
X41900000Y-98700000D03*
D14*
X47500000Y-98400000D03*
D16*
X49300000Y-85500000D03*
X48600000Y-85500000D03*
D15*
X39500000Y-97100000D03*
D16*
X38400000Y-104200000D03*
X35000000Y-102500000D03*
D15*
X41900000Y-95500000D03*
X46200000Y-101600000D03*
X43500000Y-97100000D03*
D16*
X47900000Y-85500000D03*
D15*
X46000000Y-94900000D03*
D16*
X44500000Y-91400000D03*
D15*
X39500000Y-98700000D03*
D16*
X43400000Y-88600000D03*
X42700000Y-88600000D03*
X43400000Y-87900000D03*
X42700000Y-87900000D03*
X42000000Y-88600000D03*
X42000000Y-87900000D03*
X42000000Y-87200000D03*
X42700000Y-87200000D03*
D15*
X43500000Y-99500000D03*
X43500000Y-96300000D03*
X39500000Y-99500000D03*
X39500000Y-96300000D03*
D16*
X43400000Y-87200000D03*
D15*
X44300000Y-94700000D03*
X41100000Y-100300000D03*
X41100000Y-101100000D03*
X40300000Y-94700000D03*
X41100000Y-94700000D03*
D16*
X35300000Y-104500000D03*
X36576000Y-107264200D03*
X43000000Y-103800000D03*
X43200000Y-106300000D03*
X39500000Y-106400000D03*
X37500004Y-102600000D03*
X36399998Y-99100000D03*
X42200000Y-103000000D03*
X42200000Y-107100000D03*
X44196000Y-105195998D03*
X42800000Y-102380013D03*
X36900000Y-102600000D03*
X38600000Y-106400000D03*
X36400000Y-99900000D03*
D17*
X45500000Y-100615000D02*
X46015000Y-100615000D01*
X46015000Y-100615000D02*
X46200000Y-100800000D01*
D18*
X39500000Y-97100000D02*
X39500000Y-97185000D01*
X39500000Y-97185000D02*
X39815000Y-97500000D01*
X42100000Y-95300000D02*
X41900000Y-95500000D01*
X42015000Y-98700000D02*
X42215000Y-98500000D01*
X45500000Y-101585000D02*
X46185000Y-101585000D01*
X45150000Y-95300000D02*
X45600000Y-95300000D01*
X43500000Y-97100000D02*
X43500000Y-97185000D01*
X42200000Y-95300000D02*
X42100000Y-95300000D01*
X45600000Y-95300000D02*
X46000000Y-94900000D01*
X46185000Y-101585000D02*
X46200000Y-101600000D01*
X43500000Y-97185000D02*
X43185000Y-97500000D01*
X41900000Y-98700000D02*
X42015000Y-98700000D01*
X43185000Y-100500000D02*
X43185000Y-99500000D01*
X43185000Y-99500000D02*
X43500000Y-99500000D01*
X39500000Y-96300000D02*
X39815000Y-96300000D01*
X39815000Y-96300000D02*
X39815000Y-95300000D01*
X39500000Y-99500000D02*
X39815000Y-99500000D01*
X43500000Y-96300000D02*
X43185000Y-96300000D01*
X44185000Y-95300000D02*
X43185000Y-94300000D01*
X43900000Y-94300000D02*
X44300000Y-94700000D01*
X43185000Y-94300000D02*
X43900000Y-94300000D01*
X44250000Y-95300000D02*
X44185000Y-95300000D01*
X39632500Y-100862500D02*
X38800000Y-100862500D01*
X40300000Y-100615000D02*
X40785000Y-100615000D01*
X42215000Y-100500000D02*
X41300000Y-100500000D01*
X40785000Y-100615000D02*
X41100000Y-100300000D01*
X41300000Y-100500000D02*
X41100000Y-100300000D01*
X40300000Y-100615000D02*
X39880000Y-100615000D01*
X39880000Y-100615000D02*
X39632500Y-100862500D01*
X40815000Y-101585000D02*
X40300000Y-101585000D01*
X39762500Y-102737500D02*
X38800000Y-102737500D01*
X41100000Y-101100000D02*
X41100000Y-101300000D01*
X41100000Y-101300000D02*
X40815000Y-101585000D01*
X40300000Y-102200000D02*
X39762500Y-102737500D01*
X40300000Y-101585000D02*
X40300000Y-102200000D01*
X40215000Y-93147500D02*
X40562500Y-92800000D01*
X40215000Y-94300000D02*
X40215000Y-94615000D01*
X40215000Y-94300000D02*
X40215000Y-93147500D01*
X40215000Y-94615000D02*
X40300000Y-94700000D01*
X40900000Y-95300000D02*
X41100000Y-95100000D01*
X40785000Y-95300000D02*
X40900000Y-95300000D01*
X41185000Y-94300000D02*
X41185000Y-94052500D01*
X41185000Y-94052500D02*
X42437500Y-92800000D01*
X41100000Y-94700000D02*
X41100000Y-94385000D01*
X41100000Y-94385000D02*
X41185000Y-94300000D01*
X41100000Y-95100000D02*
X41100000Y-94700000D01*
D19*
X37830000Y-109000000D02*
X37830000Y-107030000D01*
X37830000Y-107030000D02*
X36700000Y-105900000D01*
X36700000Y-105900000D02*
X35300000Y-104500000D01*
X36576000Y-110286000D02*
X36576000Y-107264200D01*
X37830000Y-111540000D02*
X36576000Y-110286000D01*
X43200000Y-104000000D02*
X43200000Y-106300000D01*
X42910000Y-103890000D02*
X43000000Y-103800000D01*
X43000000Y-103800000D02*
X43200000Y-104000000D01*
X37500004Y-100200006D02*
X37500004Y-102600000D01*
X44150000Y-107700000D02*
X45450000Y-109000000D01*
X40800000Y-107700000D02*
X44150000Y-107700000D01*
X36399998Y-99100000D02*
X37500004Y-100200006D01*
X39500000Y-106400000D02*
X40800000Y-107700000D01*
X42200000Y-103000000D02*
X42200000Y-106899992D01*
X42200000Y-106899992D02*
X42200000Y-107100000D01*
X44196000Y-103876026D02*
X44196000Y-105195998D01*
X42699987Y-102380013D02*
X44196000Y-103876026D01*
X40370000Y-111540000D02*
X39116000Y-110286000D01*
X39116000Y-107116000D02*
X39116000Y-106916000D01*
X39116000Y-106916000D02*
X38600000Y-106400000D01*
X36900000Y-100400000D02*
X36400000Y-99900000D01*
X36900000Y-102600000D02*
X36900000Y-100400000D01*
X39116000Y-110286000D02*
X39116000Y-107116000D01*
D20*
X51159608Y-82193900D02*
X51313146Y-82240256D01*
X51454750Y-82315548D01*
X51579032Y-82416910D01*
X51681261Y-82540484D01*
X51757541Y-82681561D01*
X51804965Y-82834762D01*
X51822600Y-83002544D01*
X51822601Y-112991317D01*
X51806099Y-113159612D01*
X51759744Y-113313146D01*
X51684452Y-113454750D01*
X51583092Y-113579030D01*
X51459518Y-113681260D01*
X51318440Y-113757541D01*
X51165238Y-113804965D01*
X50997456Y-113822600D01*
X32008673Y-113822600D01*
X31840388Y-113806099D01*
X31686854Y-113759744D01*
X31545250Y-113684452D01*
X31420970Y-113583092D01*
X31318740Y-113459518D01*
X31242459Y-113318440D01*
X31195035Y-113165238D01*
X31177400Y-112997456D01*
X31177400Y-111441272D01*
X31747600Y-111441272D01*
X31747600Y-111638728D01*
X31786122Y-111832389D01*
X31861685Y-112014814D01*
X31971385Y-112178993D01*
X32111007Y-112318615D01*
X32275186Y-112428315D01*
X32457611Y-112503878D01*
X32651272Y-112542400D01*
X32848728Y-112542400D01*
X33042389Y-112503878D01*
X33224814Y-112428315D01*
X33388993Y-112318615D01*
X33528615Y-112178993D01*
X33638315Y-112014814D01*
X33713878Y-111832389D01*
X33752400Y-111638728D01*
X33752400Y-111441272D01*
X34287600Y-111441272D01*
X34287600Y-111638728D01*
X34326122Y-111832389D01*
X34401685Y-112014814D01*
X34511385Y-112178993D01*
X34651007Y-112318615D01*
X34815186Y-112428315D01*
X34997611Y-112503878D01*
X35191272Y-112542400D01*
X35388728Y-112542400D01*
X35582389Y-112503878D01*
X35764814Y-112428315D01*
X35928993Y-112318615D01*
X36068615Y-112178993D01*
X36178315Y-112014814D01*
X36253878Y-111832389D01*
X36292400Y-111638728D01*
X36292400Y-111441272D01*
X36253878Y-111247611D01*
X36178315Y-111065186D01*
X36068615Y-110901007D01*
X35928993Y-110761385D01*
X35764814Y-110651685D01*
X35582389Y-110576122D01*
X35388728Y-110537600D01*
X35191272Y-110537600D01*
X34997611Y-110576122D01*
X34815186Y-110651685D01*
X34651007Y-110761385D01*
X34511385Y-110901007D01*
X34401685Y-111065186D01*
X34326122Y-111247611D01*
X34287600Y-111441272D01*
X33752400Y-111441272D01*
X33713878Y-111247611D01*
X33638315Y-111065186D01*
X33528615Y-110901007D01*
X33388993Y-110761385D01*
X33224814Y-110651685D01*
X33042389Y-110576122D01*
X32848728Y-110537600D01*
X32651272Y-110537600D01*
X32457611Y-110576122D01*
X32275186Y-110651685D01*
X32111007Y-110761385D01*
X31971385Y-110901007D01*
X31861685Y-111065186D01*
X31786122Y-111247611D01*
X31747600Y-111441272D01*
X31177400Y-111441272D01*
X31177400Y-108150000D01*
X31746863Y-108150000D01*
X31746863Y-109850000D01*
X31749805Y-109879876D01*
X31758520Y-109908603D01*
X31772671Y-109935078D01*
X31791716Y-109958284D01*
X31814922Y-109977329D01*
X31841397Y-109991480D01*
X31870124Y-110000195D01*
X31900000Y-110003137D01*
X33600000Y-110003137D01*
X33629876Y-110000195D01*
X33658603Y-109991480D01*
X33685078Y-109977329D01*
X33708284Y-109958284D01*
X33727329Y-109935078D01*
X33741480Y-109908603D01*
X33750195Y-109879876D01*
X33753137Y-109850000D01*
X33753137Y-108901272D01*
X34287600Y-108901272D01*
X34287600Y-109098728D01*
X34326122Y-109292389D01*
X34401685Y-109474814D01*
X34511385Y-109638993D01*
X34651007Y-109778615D01*
X34815186Y-109888315D01*
X34997611Y-109963878D01*
X35191272Y-110002400D01*
X35388728Y-110002400D01*
X35582389Y-109963878D01*
X35764814Y-109888315D01*
X35928993Y-109778615D01*
X36068615Y-109638993D01*
X36178315Y-109474814D01*
X36253878Y-109292389D01*
X36292400Y-109098728D01*
X36292400Y-108901272D01*
X36253878Y-108707611D01*
X36178315Y-108525186D01*
X36068615Y-108361007D01*
X35928993Y-108221385D01*
X35764814Y-108111685D01*
X35582389Y-108036122D01*
X35388728Y-107997600D01*
X35191272Y-107997600D01*
X34997611Y-108036122D01*
X34815186Y-108111685D01*
X34651007Y-108221385D01*
X34511385Y-108361007D01*
X34401685Y-108525186D01*
X34326122Y-108707611D01*
X34287600Y-108901272D01*
X33753137Y-108901272D01*
X33753137Y-108150000D01*
X33750195Y-108120124D01*
X33741480Y-108091397D01*
X33727329Y-108064922D01*
X33708284Y-108041716D01*
X33685078Y-108022671D01*
X33658603Y-108008520D01*
X33629876Y-107999805D01*
X33600000Y-107996863D01*
X31900000Y-107996863D01*
X31870124Y-107999805D01*
X31841397Y-108008520D01*
X31814922Y-108022671D01*
X31791716Y-108041716D01*
X31772671Y-108064922D01*
X31758520Y-108091397D01*
X31749805Y-108120124D01*
X31746863Y-108150000D01*
X31177400Y-108150000D01*
X31177400Y-104460367D01*
X34897600Y-104460367D01*
X34897600Y-104539633D01*
X34913064Y-104617376D01*
X34943398Y-104690608D01*
X34987436Y-104756515D01*
X35043485Y-104812564D01*
X35109392Y-104856602D01*
X35182624Y-104886936D01*
X35260367Y-104902400D01*
X35325230Y-104902400D01*
X36520676Y-106097847D01*
X36520682Y-106097852D01*
X37563301Y-107140471D01*
X37563300Y-108031012D01*
X37537611Y-108036122D01*
X37355186Y-108111685D01*
X37191007Y-108221385D01*
X37051385Y-108361007D01*
X36941685Y-108525186D01*
X36866122Y-108707611D01*
X36842700Y-108825360D01*
X36842700Y-107566579D01*
X36888564Y-107520715D01*
X36932602Y-107454808D01*
X36962936Y-107381576D01*
X36978400Y-107303833D01*
X36978400Y-107224567D01*
X36962936Y-107146824D01*
X36932602Y-107073592D01*
X36888564Y-107007685D01*
X36832515Y-106951636D01*
X36766608Y-106907598D01*
X36693376Y-106877264D01*
X36615633Y-106861800D01*
X36536367Y-106861800D01*
X36458624Y-106877264D01*
X36385392Y-106907598D01*
X36319485Y-106951636D01*
X36263436Y-107007685D01*
X36219398Y-107073592D01*
X36189064Y-107146824D01*
X36173600Y-107224567D01*
X36173600Y-107303833D01*
X36189064Y-107381576D01*
X36219398Y-107454808D01*
X36263436Y-107520715D01*
X36309301Y-107566580D01*
X36309300Y-110272904D01*
X36308010Y-110286000D01*
X36309300Y-110299096D01*
X36309300Y-110299097D01*
X36313159Y-110338281D01*
X36328410Y-110388554D01*
X36353174Y-110434887D01*
X36386502Y-110475498D01*
X36396684Y-110483854D01*
X36956237Y-111043407D01*
X36941685Y-111065186D01*
X36866122Y-111247611D01*
X36827600Y-111441272D01*
X36827600Y-111638728D01*
X36866122Y-111832389D01*
X36941685Y-112014814D01*
X37051385Y-112178993D01*
X37191007Y-112318615D01*
X37355186Y-112428315D01*
X37537611Y-112503878D01*
X37731272Y-112542400D01*
X37928728Y-112542400D01*
X38122389Y-112503878D01*
X38304814Y-112428315D01*
X38468993Y-112318615D01*
X38608615Y-112178993D01*
X38718315Y-112014814D01*
X38793878Y-111832389D01*
X38832400Y-111638728D01*
X38832400Y-111441272D01*
X38793878Y-111247611D01*
X38718315Y-111065186D01*
X38608615Y-110901007D01*
X38468993Y-110761385D01*
X38304814Y-110651685D01*
X38122389Y-110576122D01*
X37928728Y-110537600D01*
X37731272Y-110537600D01*
X37537611Y-110576122D01*
X37355186Y-110651685D01*
X37333407Y-110666237D01*
X36842700Y-110175530D01*
X36842700Y-109174640D01*
X36866122Y-109292389D01*
X36941685Y-109474814D01*
X37051385Y-109638993D01*
X37191007Y-109778615D01*
X37355186Y-109888315D01*
X37537611Y-109963878D01*
X37731272Y-110002400D01*
X37928728Y-110002400D01*
X38122389Y-109963878D01*
X38304814Y-109888315D01*
X38468993Y-109778615D01*
X38608615Y-109638993D01*
X38718315Y-109474814D01*
X38793878Y-109292389D01*
X38832400Y-109098728D01*
X38832400Y-108901272D01*
X38793878Y-108707611D01*
X38718315Y-108525186D01*
X38608615Y-108361007D01*
X38468993Y-108221385D01*
X38304814Y-108111685D01*
X38122389Y-108036122D01*
X38096700Y-108031012D01*
X38096700Y-107043095D01*
X38097990Y-107029999D01*
X38096671Y-107016610D01*
X38092841Y-106977718D01*
X38077590Y-106927445D01*
X38052826Y-106881113D01*
X38019498Y-106840502D01*
X38009316Y-106832146D01*
X37537537Y-106360367D01*
X38197600Y-106360367D01*
X38197600Y-106439633D01*
X38213064Y-106517376D01*
X38243398Y-106590608D01*
X38287436Y-106656515D01*
X38343485Y-106712564D01*
X38409392Y-106756602D01*
X38482624Y-106786936D01*
X38560367Y-106802400D01*
X38625230Y-106802400D01*
X38849300Y-107026470D01*
X38849300Y-107129097D01*
X38849301Y-107129107D01*
X38849300Y-110272904D01*
X38848010Y-110286000D01*
X38849300Y-110299096D01*
X38849300Y-110299097D01*
X38853159Y-110338281D01*
X38868410Y-110388554D01*
X38893174Y-110434887D01*
X38926502Y-110475498D01*
X38936684Y-110483854D01*
X39496237Y-111043407D01*
X39481685Y-111065186D01*
X39406122Y-111247611D01*
X39367600Y-111441272D01*
X39367600Y-111638728D01*
X39406122Y-111832389D01*
X39481685Y-112014814D01*
X39591385Y-112178993D01*
X39731007Y-112318615D01*
X39895186Y-112428315D01*
X40077611Y-112503878D01*
X40271272Y-112542400D01*
X40468728Y-112542400D01*
X40662389Y-112503878D01*
X40844814Y-112428315D01*
X41008993Y-112318615D01*
X41148615Y-112178993D01*
X41258315Y-112014814D01*
X41333878Y-111832389D01*
X41372400Y-111638728D01*
X41372400Y-111441272D01*
X41907600Y-111441272D01*
X41907600Y-111638728D01*
X41946122Y-111832389D01*
X42021685Y-112014814D01*
X42131385Y-112178993D01*
X42271007Y-112318615D01*
X42435186Y-112428315D01*
X42617611Y-112503878D01*
X42811272Y-112542400D01*
X43008728Y-112542400D01*
X43202389Y-112503878D01*
X43384814Y-112428315D01*
X43548993Y-112318615D01*
X43688615Y-112178993D01*
X43798315Y-112014814D01*
X43873878Y-111832389D01*
X43912400Y-111638728D01*
X43912400Y-111441272D01*
X44447600Y-111441272D01*
X44447600Y-111638728D01*
X44486122Y-111832389D01*
X44561685Y-112014814D01*
X44671385Y-112178993D01*
X44811007Y-112318615D01*
X44975186Y-112428315D01*
X45157611Y-112503878D01*
X45351272Y-112542400D01*
X45548728Y-112542400D01*
X45742389Y-112503878D01*
X45924814Y-112428315D01*
X46088993Y-112318615D01*
X46228615Y-112178993D01*
X46338315Y-112014814D01*
X46413878Y-111832389D01*
X46430906Y-111746783D01*
X47009157Y-111746783D01*
X47068345Y-111934163D01*
X47162952Y-112106395D01*
X47289342Y-112256861D01*
X47442658Y-112379778D01*
X47617008Y-112470423D01*
X47783217Y-112520840D01*
X47939200Y-112502961D01*
X47939200Y-111590800D01*
X48040800Y-111590800D01*
X48040800Y-112502961D01*
X48196783Y-112520840D01*
X48362992Y-112470423D01*
X48537342Y-112379778D01*
X48690658Y-112256861D01*
X48817048Y-112106395D01*
X48911655Y-111934163D01*
X48970843Y-111746783D01*
X48953015Y-111590800D01*
X48040800Y-111590800D01*
X47939200Y-111590800D01*
X47026985Y-111590800D01*
X47009157Y-111746783D01*
X46430906Y-111746783D01*
X46452400Y-111638728D01*
X46452400Y-111441272D01*
X46430907Y-111333217D01*
X47009157Y-111333217D01*
X47026985Y-111489200D01*
X47939200Y-111489200D01*
X47939200Y-110577039D01*
X48040800Y-110577039D01*
X48040800Y-111489200D01*
X48953015Y-111489200D01*
X48958492Y-111441272D01*
X49527600Y-111441272D01*
X49527600Y-111638728D01*
X49566122Y-111832389D01*
X49641685Y-112014814D01*
X49751385Y-112178993D01*
X49891007Y-112318615D01*
X50055186Y-112428315D01*
X50237611Y-112503878D01*
X50431272Y-112542400D01*
X50628728Y-112542400D01*
X50822389Y-112503878D01*
X51004814Y-112428315D01*
X51168993Y-112318615D01*
X51308615Y-112178993D01*
X51418315Y-112014814D01*
X51493878Y-111832389D01*
X51532400Y-111638728D01*
X51532400Y-111441272D01*
X51493878Y-111247611D01*
X51418315Y-111065186D01*
X51308615Y-110901007D01*
X51168993Y-110761385D01*
X51004814Y-110651685D01*
X50822389Y-110576122D01*
X50628728Y-110537600D01*
X50431272Y-110537600D01*
X50237611Y-110576122D01*
X50055186Y-110651685D01*
X49891007Y-110761385D01*
X49751385Y-110901007D01*
X49641685Y-111065186D01*
X49566122Y-111247611D01*
X49527600Y-111441272D01*
X48958492Y-111441272D01*
X48970843Y-111333217D01*
X48911655Y-111145837D01*
X48817048Y-110973605D01*
X48690658Y-110823139D01*
X48537342Y-110700222D01*
X48362992Y-110609577D01*
X48196783Y-110559160D01*
X48040800Y-110577039D01*
X47939200Y-110577039D01*
X47783217Y-110559160D01*
X47617008Y-110609577D01*
X47442658Y-110700222D01*
X47289342Y-110823139D01*
X47162952Y-110973605D01*
X47068345Y-111145837D01*
X47009157Y-111333217D01*
X46430907Y-111333217D01*
X46413878Y-111247611D01*
X46338315Y-111065186D01*
X46228615Y-110901007D01*
X46088993Y-110761385D01*
X45924814Y-110651685D01*
X45742389Y-110576122D01*
X45548728Y-110537600D01*
X45351272Y-110537600D01*
X45157611Y-110576122D01*
X44975186Y-110651685D01*
X44811007Y-110761385D01*
X44671385Y-110901007D01*
X44561685Y-111065186D01*
X44486122Y-111247611D01*
X44447600Y-111441272D01*
X43912400Y-111441272D01*
X43873878Y-111247611D01*
X43798315Y-111065186D01*
X43688615Y-110901007D01*
X43548993Y-110761385D01*
X43384814Y-110651685D01*
X43202389Y-110576122D01*
X43008728Y-110537600D01*
X42811272Y-110537600D01*
X42617611Y-110576122D01*
X42435186Y-110651685D01*
X42271007Y-110761385D01*
X42131385Y-110901007D01*
X42021685Y-111065186D01*
X41946122Y-111247611D01*
X41907600Y-111441272D01*
X41372400Y-111441272D01*
X41333878Y-111247611D01*
X41258315Y-111065186D01*
X41148615Y-110901007D01*
X41008993Y-110761385D01*
X40844814Y-110651685D01*
X40662389Y-110576122D01*
X40468728Y-110537600D01*
X40271272Y-110537600D01*
X40077611Y-110576122D01*
X39895186Y-110651685D01*
X39873407Y-110666237D01*
X39382700Y-110175530D01*
X39382700Y-109174640D01*
X39406122Y-109292389D01*
X39481685Y-109474814D01*
X39591385Y-109638993D01*
X39731007Y-109778615D01*
X39895186Y-109888315D01*
X40077611Y-109963878D01*
X40271272Y-110002400D01*
X40468728Y-110002400D01*
X40662389Y-109963878D01*
X40844814Y-109888315D01*
X41008993Y-109778615D01*
X41148615Y-109638993D01*
X41258315Y-109474814D01*
X41333878Y-109292389D01*
X41372400Y-109098728D01*
X41372400Y-108901272D01*
X41907600Y-108901272D01*
X41907600Y-109098728D01*
X41946122Y-109292389D01*
X42021685Y-109474814D01*
X42131385Y-109638993D01*
X42271007Y-109778615D01*
X42435186Y-109888315D01*
X42617611Y-109963878D01*
X42811272Y-110002400D01*
X43008728Y-110002400D01*
X43202389Y-109963878D01*
X43384814Y-109888315D01*
X43548993Y-109778615D01*
X43688615Y-109638993D01*
X43798315Y-109474814D01*
X43873878Y-109292389D01*
X43912400Y-109098728D01*
X43912400Y-108901272D01*
X43873878Y-108707611D01*
X43798315Y-108525186D01*
X43688615Y-108361007D01*
X43548993Y-108221385D01*
X43384814Y-108111685D01*
X43202389Y-108036122D01*
X43008728Y-107997600D01*
X42811272Y-107997600D01*
X42617611Y-108036122D01*
X42435186Y-108111685D01*
X42271007Y-108221385D01*
X42131385Y-108361007D01*
X42021685Y-108525186D01*
X41946122Y-108707611D01*
X41907600Y-108901272D01*
X41372400Y-108901272D01*
X41333878Y-108707611D01*
X41258315Y-108525186D01*
X41148615Y-108361007D01*
X41008993Y-108221385D01*
X40844814Y-108111685D01*
X40662389Y-108036122D01*
X40468728Y-107997600D01*
X40271272Y-107997600D01*
X40077611Y-108036122D01*
X39895186Y-108111685D01*
X39731007Y-108221385D01*
X39591385Y-108361007D01*
X39481685Y-108525186D01*
X39406122Y-108707611D01*
X39382700Y-108825360D01*
X39382700Y-106929095D01*
X39383990Y-106915999D01*
X39380554Y-106881113D01*
X39378841Y-106863719D01*
X39363590Y-106813445D01*
X39339980Y-106769272D01*
X39382624Y-106786936D01*
X39460367Y-106802400D01*
X39525230Y-106802400D01*
X40602150Y-107879321D01*
X40610502Y-107889498D01*
X40651113Y-107922826D01*
X40697445Y-107947590D01*
X40747717Y-107962841D01*
X40800000Y-107967990D01*
X40813099Y-107966700D01*
X44039530Y-107966700D01*
X44576237Y-108503407D01*
X44561685Y-108525186D01*
X44486122Y-108707611D01*
X44447600Y-108901272D01*
X44447600Y-109098728D01*
X44486122Y-109292389D01*
X44561685Y-109474814D01*
X44671385Y-109638993D01*
X44811007Y-109778615D01*
X44975186Y-109888315D01*
X45157611Y-109963878D01*
X45351272Y-110002400D01*
X45548728Y-110002400D01*
X45742389Y-109963878D01*
X45924814Y-109888315D01*
X46088993Y-109778615D01*
X46228615Y-109638993D01*
X46338315Y-109474814D01*
X46413878Y-109292389D01*
X46430906Y-109206783D01*
X47009157Y-109206783D01*
X47068345Y-109394163D01*
X47162952Y-109566395D01*
X47289342Y-109716861D01*
X47442658Y-109839778D01*
X47617008Y-109930423D01*
X47783217Y-109980840D01*
X47939200Y-109962961D01*
X47939200Y-109050800D01*
X48040800Y-109050800D01*
X48040800Y-109962961D01*
X48196783Y-109980840D01*
X48362992Y-109930423D01*
X48537342Y-109839778D01*
X48690658Y-109716861D01*
X48817048Y-109566395D01*
X48911655Y-109394163D01*
X48970843Y-109206783D01*
X48953015Y-109050800D01*
X48040800Y-109050800D01*
X47939200Y-109050800D01*
X47026985Y-109050800D01*
X47009157Y-109206783D01*
X46430906Y-109206783D01*
X46452400Y-109098728D01*
X46452400Y-108901272D01*
X46430907Y-108793217D01*
X47009157Y-108793217D01*
X47026985Y-108949200D01*
X47939200Y-108949200D01*
X47939200Y-108037039D01*
X48040800Y-108037039D01*
X48040800Y-108949200D01*
X48953015Y-108949200D01*
X48958492Y-108901272D01*
X49527600Y-108901272D01*
X49527600Y-109098728D01*
X49566122Y-109292389D01*
X49641685Y-109474814D01*
X49751385Y-109638993D01*
X49891007Y-109778615D01*
X50055186Y-109888315D01*
X50237611Y-109963878D01*
X50431272Y-110002400D01*
X50628728Y-110002400D01*
X50822389Y-109963878D01*
X51004814Y-109888315D01*
X51168993Y-109778615D01*
X51308615Y-109638993D01*
X51418315Y-109474814D01*
X51493878Y-109292389D01*
X51532400Y-109098728D01*
X51532400Y-108901272D01*
X51493878Y-108707611D01*
X51418315Y-108525186D01*
X51308615Y-108361007D01*
X51168993Y-108221385D01*
X51004814Y-108111685D01*
X50822389Y-108036122D01*
X50628728Y-107997600D01*
X50431272Y-107997600D01*
X50237611Y-108036122D01*
X50055186Y-108111685D01*
X49891007Y-108221385D01*
X49751385Y-108361007D01*
X49641685Y-108525186D01*
X49566122Y-108707611D01*
X49527600Y-108901272D01*
X48958492Y-108901272D01*
X48970843Y-108793217D01*
X48911655Y-108605837D01*
X48817048Y-108433605D01*
X48690658Y-108283139D01*
X48537342Y-108160222D01*
X48362992Y-108069577D01*
X48196783Y-108019160D01*
X48040800Y-108037039D01*
X47939200Y-108037039D01*
X47783217Y-108019160D01*
X47617008Y-108069577D01*
X47442658Y-108160222D01*
X47289342Y-108283139D01*
X47162952Y-108433605D01*
X47068345Y-108605837D01*
X47009157Y-108793217D01*
X46430907Y-108793217D01*
X46413878Y-108707611D01*
X46338315Y-108525186D01*
X46228615Y-108361007D01*
X46088993Y-108221385D01*
X45924814Y-108111685D01*
X45742389Y-108036122D01*
X45548728Y-107997600D01*
X45351272Y-107997600D01*
X45157611Y-108036122D01*
X44975186Y-108111685D01*
X44953407Y-108126237D01*
X44347854Y-107520684D01*
X44339498Y-107510502D01*
X44298887Y-107477174D01*
X44252555Y-107452410D01*
X44202282Y-107437159D01*
X44163098Y-107433300D01*
X44163096Y-107433300D01*
X44150000Y-107432010D01*
X44136904Y-107433300D01*
X42425482Y-107433300D01*
X42456515Y-107412564D01*
X42512564Y-107356515D01*
X42556602Y-107290608D01*
X42586936Y-107217376D01*
X42602400Y-107139633D01*
X42602400Y-107060367D01*
X42586936Y-106982624D01*
X42556602Y-106909392D01*
X42512564Y-106843485D01*
X42466700Y-106797621D01*
X42466700Y-103760367D01*
X42597600Y-103760367D01*
X42597600Y-103839633D01*
X42613064Y-103917376D01*
X42643398Y-103990608D01*
X42687436Y-104056515D01*
X42743485Y-104112564D01*
X42809392Y-104156602D01*
X42882624Y-104186936D01*
X42933300Y-104197016D01*
X42933301Y-105997620D01*
X42887436Y-106043485D01*
X42843398Y-106109392D01*
X42813064Y-106182624D01*
X42797600Y-106260367D01*
X42797600Y-106339633D01*
X42813064Y-106417376D01*
X42843398Y-106490608D01*
X42887436Y-106556515D01*
X42943485Y-106612564D01*
X43009392Y-106656602D01*
X43082624Y-106686936D01*
X43160367Y-106702400D01*
X43239633Y-106702400D01*
X43317376Y-106686936D01*
X43390608Y-106656602D01*
X43456515Y-106612564D01*
X43512564Y-106556515D01*
X43556602Y-106490608D01*
X43586936Y-106417376D01*
X43602400Y-106339633D01*
X43602400Y-106260367D01*
X43586936Y-106182624D01*
X43556602Y-106109392D01*
X43512564Y-106043485D01*
X43466700Y-105997621D01*
X43466700Y-104013096D01*
X43467990Y-104000000D01*
X43466700Y-103986902D01*
X43462841Y-103947718D01*
X43449140Y-103902555D01*
X43447590Y-103897444D01*
X43434353Y-103872680D01*
X43422826Y-103851113D01*
X43402400Y-103826223D01*
X43402400Y-103760367D01*
X43386936Y-103682624D01*
X43356602Y-103609392D01*
X43312564Y-103543485D01*
X43256515Y-103487436D01*
X43190608Y-103443398D01*
X43117376Y-103413064D01*
X43039633Y-103397600D01*
X42960367Y-103397600D01*
X42882624Y-103413064D01*
X42809392Y-103443398D01*
X42743485Y-103487436D01*
X42687436Y-103543485D01*
X42643398Y-103609392D01*
X42613064Y-103682624D01*
X42597600Y-103760367D01*
X42466700Y-103760367D01*
X42466700Y-103302379D01*
X42512564Y-103256515D01*
X42556602Y-103190608D01*
X42586936Y-103117376D01*
X42602400Y-103039633D01*
X42602400Y-102960367D01*
X42586936Y-102882624D01*
X42556602Y-102809392D01*
X42512564Y-102743485D01*
X42456515Y-102687436D01*
X42390608Y-102643398D01*
X42317376Y-102613064D01*
X42239633Y-102597600D01*
X42160367Y-102597600D01*
X42082624Y-102613064D01*
X42009392Y-102643398D01*
X41943485Y-102687436D01*
X41887436Y-102743485D01*
X41843398Y-102809392D01*
X41813064Y-102882624D01*
X41797600Y-102960367D01*
X41797600Y-103039633D01*
X41813064Y-103117376D01*
X41843398Y-103190608D01*
X41887436Y-103256515D01*
X41933300Y-103302379D01*
X41933301Y-106797620D01*
X41887436Y-106843485D01*
X41843398Y-106909392D01*
X41813064Y-106982624D01*
X41797600Y-107060367D01*
X41797600Y-107139633D01*
X41813064Y-107217376D01*
X41843398Y-107290608D01*
X41887436Y-107356515D01*
X41943485Y-107412564D01*
X41974518Y-107433300D01*
X40910471Y-107433300D01*
X39902400Y-106425230D01*
X39902400Y-106360367D01*
X39886936Y-106282624D01*
X39856602Y-106209392D01*
X39812564Y-106143485D01*
X39756515Y-106087436D01*
X39690608Y-106043398D01*
X39617376Y-106013064D01*
X39539633Y-105997600D01*
X39460367Y-105997600D01*
X39382624Y-106013064D01*
X39309392Y-106043398D01*
X39243485Y-106087436D01*
X39187436Y-106143485D01*
X39143398Y-106209392D01*
X39113064Y-106282624D01*
X39097600Y-106360367D01*
X39097600Y-106439633D01*
X39113064Y-106517376D01*
X39126158Y-106548988D01*
X39002400Y-106425230D01*
X39002400Y-106360367D01*
X38986936Y-106282624D01*
X38956602Y-106209392D01*
X38912564Y-106143485D01*
X38856515Y-106087436D01*
X38790608Y-106043398D01*
X38717376Y-106013064D01*
X38639633Y-105997600D01*
X38560367Y-105997600D01*
X38482624Y-106013064D01*
X38409392Y-106043398D01*
X38343485Y-106087436D01*
X38287436Y-106143485D01*
X38243398Y-106209392D01*
X38213064Y-106282624D01*
X38197600Y-106360367D01*
X37537537Y-106360367D01*
X36897852Y-105720682D01*
X36897847Y-105720676D01*
X35702400Y-104525230D01*
X35702400Y-104460367D01*
X35686936Y-104382624D01*
X35656602Y-104309392D01*
X35612564Y-104243485D01*
X35556515Y-104187436D01*
X35516004Y-104160367D01*
X37997600Y-104160367D01*
X37997600Y-104239633D01*
X38013064Y-104317376D01*
X38043398Y-104390608D01*
X38087436Y-104456515D01*
X38143485Y-104512564D01*
X38209392Y-104556602D01*
X38282624Y-104586936D01*
X38360367Y-104602400D01*
X38439633Y-104602400D01*
X38517376Y-104586936D01*
X38590608Y-104556602D01*
X38656515Y-104512564D01*
X38712564Y-104456515D01*
X38756602Y-104390608D01*
X38786936Y-104317376D01*
X38802400Y-104239633D01*
X38802400Y-104160367D01*
X38786936Y-104082624D01*
X38756602Y-104009392D01*
X38712564Y-103943485D01*
X38656515Y-103887436D01*
X38590608Y-103843398D01*
X38517376Y-103813064D01*
X38439633Y-103797600D01*
X38360367Y-103797600D01*
X38282624Y-103813064D01*
X38209392Y-103843398D01*
X38143485Y-103887436D01*
X38087436Y-103943485D01*
X38043398Y-104009392D01*
X38013064Y-104082624D01*
X37997600Y-104160367D01*
X35516004Y-104160367D01*
X35490608Y-104143398D01*
X35417376Y-104113064D01*
X35339633Y-104097600D01*
X35260367Y-104097600D01*
X35182624Y-104113064D01*
X35109392Y-104143398D01*
X35043485Y-104187436D01*
X34987436Y-104243485D01*
X34943398Y-104309392D01*
X34913064Y-104382624D01*
X34897600Y-104460367D01*
X31177400Y-104460367D01*
X31177400Y-102460367D01*
X34597600Y-102460367D01*
X34597600Y-102539633D01*
X34613064Y-102617376D01*
X34643398Y-102690608D01*
X34687436Y-102756515D01*
X34743485Y-102812564D01*
X34809392Y-102856602D01*
X34882624Y-102886936D01*
X34960367Y-102902400D01*
X35039633Y-102902400D01*
X35117376Y-102886936D01*
X35190608Y-102856602D01*
X35256515Y-102812564D01*
X35312564Y-102756515D01*
X35356602Y-102690608D01*
X35386936Y-102617376D01*
X35402400Y-102539633D01*
X35402400Y-102460367D01*
X35386936Y-102382624D01*
X35356602Y-102309392D01*
X35312564Y-102243485D01*
X35256515Y-102187436D01*
X35190608Y-102143398D01*
X35117376Y-102113064D01*
X35039633Y-102097600D01*
X34960367Y-102097600D01*
X34882624Y-102113064D01*
X34809392Y-102143398D01*
X34743485Y-102187436D01*
X34687436Y-102243485D01*
X34643398Y-102309392D01*
X34613064Y-102382624D01*
X34597600Y-102460367D01*
X31177400Y-102460367D01*
X31177400Y-100460367D01*
X34597600Y-100460367D01*
X34597600Y-100539633D01*
X34613064Y-100617376D01*
X34643398Y-100690608D01*
X34687436Y-100756515D01*
X34743485Y-100812564D01*
X34809392Y-100856602D01*
X34882624Y-100886936D01*
X34960367Y-100902400D01*
X35039633Y-100902400D01*
X35117376Y-100886936D01*
X35190608Y-100856602D01*
X35256515Y-100812564D01*
X35312564Y-100756515D01*
X35356602Y-100690608D01*
X35386936Y-100617376D01*
X35402400Y-100539633D01*
X35402400Y-100460367D01*
X35386936Y-100382624D01*
X35356602Y-100309392D01*
X35312564Y-100243485D01*
X35256515Y-100187436D01*
X35190608Y-100143398D01*
X35117376Y-100113064D01*
X35039633Y-100097600D01*
X34960367Y-100097600D01*
X34882624Y-100113064D01*
X34809392Y-100143398D01*
X34743485Y-100187436D01*
X34687436Y-100243485D01*
X34643398Y-100309392D01*
X34613064Y-100382624D01*
X34597600Y-100460367D01*
X31177400Y-100460367D01*
X31177400Y-99060367D01*
X35997598Y-99060367D01*
X35997598Y-99139633D01*
X36013062Y-99217376D01*
X36043396Y-99290608D01*
X36087434Y-99356515D01*
X36143483Y-99412564D01*
X36209390Y-99456602D01*
X36282622Y-99486936D01*
X36348300Y-99500000D01*
X36282624Y-99513064D01*
X36209392Y-99543398D01*
X36143485Y-99587436D01*
X36087436Y-99643485D01*
X36043398Y-99709392D01*
X36013064Y-99782624D01*
X35997600Y-99860367D01*
X35997600Y-99939633D01*
X36013064Y-100017376D01*
X36043398Y-100090608D01*
X36087436Y-100156515D01*
X36143485Y-100212564D01*
X36209392Y-100256602D01*
X36282624Y-100286936D01*
X36360367Y-100302400D01*
X36425230Y-100302400D01*
X36633301Y-100510472D01*
X36633300Y-102297621D01*
X36587436Y-102343485D01*
X36543398Y-102409392D01*
X36513064Y-102482624D01*
X36497600Y-102560367D01*
X36497600Y-102639633D01*
X36513064Y-102717376D01*
X36543398Y-102790608D01*
X36587436Y-102856515D01*
X36643485Y-102912564D01*
X36709392Y-102956602D01*
X36782624Y-102986936D01*
X36860367Y-103002400D01*
X36939633Y-103002400D01*
X37017376Y-102986936D01*
X37090608Y-102956602D01*
X37156515Y-102912564D01*
X37200002Y-102869077D01*
X37243489Y-102912564D01*
X37309396Y-102956602D01*
X37382628Y-102986936D01*
X37460371Y-103002400D01*
X37539637Y-103002400D01*
X37617380Y-102986936D01*
X37690612Y-102956602D01*
X37756519Y-102912564D01*
X37812568Y-102856515D01*
X37856606Y-102790608D01*
X37886940Y-102717376D01*
X37902404Y-102639633D01*
X37902404Y-102560367D01*
X37886940Y-102482624D01*
X37856606Y-102409392D01*
X37812568Y-102343485D01*
X37766704Y-102297621D01*
X37766704Y-100618750D01*
X37946863Y-100618750D01*
X37946863Y-101106250D01*
X37954489Y-101183679D01*
X37977074Y-101258132D01*
X38013751Y-101326749D01*
X38063109Y-101386891D01*
X38123251Y-101436249D01*
X38191868Y-101472926D01*
X38266321Y-101495511D01*
X38343750Y-101503137D01*
X39256250Y-101503137D01*
X39333679Y-101495511D01*
X39408132Y-101472926D01*
X39476749Y-101436249D01*
X39536891Y-101386891D01*
X39586249Y-101326749D01*
X39622926Y-101258132D01*
X39645511Y-101183679D01*
X39647121Y-101167333D01*
X39647458Y-101167300D01*
X39647466Y-101167300D01*
X39692251Y-101162889D01*
X39749706Y-101145460D01*
X39802657Y-101117158D01*
X39849068Y-101079068D01*
X39858612Y-101067439D01*
X39934719Y-100991333D01*
X39960475Y-101012471D01*
X40012451Y-101040252D01*
X40068849Y-101057360D01*
X40127500Y-101063137D01*
X40472500Y-101063137D01*
X40531151Y-101057360D01*
X40587549Y-101040252D01*
X40639525Y-101012471D01*
X40685082Y-100975082D01*
X40722471Y-100929525D01*
X40727669Y-100919800D01*
X40766511Y-100919800D01*
X40765553Y-100921234D01*
X40737103Y-100989917D01*
X40722600Y-101062829D01*
X40722600Y-101137171D01*
X40737103Y-101210083D01*
X40743477Y-101225471D01*
X40711654Y-101257295D01*
X40685082Y-101224918D01*
X40639525Y-101187529D01*
X40587549Y-101159748D01*
X40531151Y-101142640D01*
X40472500Y-101136863D01*
X40127500Y-101136863D01*
X40068849Y-101142640D01*
X40012451Y-101159748D01*
X39960475Y-101187529D01*
X39914918Y-101224918D01*
X39877529Y-101270475D01*
X39849748Y-101322451D01*
X39832640Y-101378849D01*
X39826863Y-101437500D01*
X39826863Y-101732500D01*
X39832640Y-101791151D01*
X39849748Y-101847549D01*
X39877529Y-101899525D01*
X39914918Y-101945082D01*
X39960475Y-101982471D01*
X39995201Y-102001032D01*
X39995201Y-102073747D01*
X39646149Y-102422800D01*
X39645511Y-102416321D01*
X39622926Y-102341868D01*
X39586249Y-102273251D01*
X39536891Y-102213109D01*
X39476749Y-102163751D01*
X39408132Y-102127074D01*
X39333679Y-102104489D01*
X39256250Y-102096863D01*
X38343750Y-102096863D01*
X38266321Y-102104489D01*
X38191868Y-102127074D01*
X38123251Y-102163751D01*
X38063109Y-102213109D01*
X38013751Y-102273251D01*
X37977074Y-102341868D01*
X37954489Y-102416321D01*
X37946863Y-102493750D01*
X37946863Y-102981250D01*
X37954489Y-103058679D01*
X37977074Y-103133132D01*
X38013751Y-103201749D01*
X38063109Y-103261891D01*
X38123251Y-103311249D01*
X38191868Y-103347926D01*
X38266321Y-103370511D01*
X38343750Y-103378137D01*
X39256250Y-103378137D01*
X39333679Y-103370511D01*
X39408132Y-103347926D01*
X39476749Y-103311249D01*
X39536891Y-103261891D01*
X39586249Y-103201749D01*
X39622926Y-103133132D01*
X39645511Y-103058679D01*
X39647124Y-103042300D01*
X39747542Y-103042300D01*
X39762500Y-103043773D01*
X39777458Y-103042300D01*
X39777466Y-103042300D01*
X39822251Y-103037889D01*
X39879706Y-103020460D01*
X39932657Y-102992158D01*
X39979068Y-102954068D01*
X39988612Y-102942439D01*
X40504944Y-102426108D01*
X40516568Y-102416568D01*
X40554658Y-102370157D01*
X40570573Y-102340380D01*
X42397600Y-102340380D01*
X42397600Y-102419646D01*
X42413064Y-102497389D01*
X42443398Y-102570621D01*
X42487436Y-102636528D01*
X42543485Y-102692577D01*
X42609392Y-102736615D01*
X42682624Y-102766949D01*
X42716489Y-102773685D01*
X43929300Y-103986497D01*
X43929301Y-104893618D01*
X43883436Y-104939483D01*
X43839398Y-105005390D01*
X43809064Y-105078622D01*
X43793600Y-105156365D01*
X43793600Y-105235631D01*
X43809064Y-105313374D01*
X43839398Y-105386606D01*
X43883436Y-105452513D01*
X43939485Y-105508562D01*
X44005392Y-105552600D01*
X44078624Y-105582934D01*
X44156367Y-105598398D01*
X44235633Y-105598398D01*
X44313376Y-105582934D01*
X44386608Y-105552600D01*
X44452515Y-105508562D01*
X44508564Y-105452513D01*
X44552602Y-105386606D01*
X44582936Y-105313374D01*
X44598400Y-105235631D01*
X44598400Y-105156365D01*
X44582936Y-105078622D01*
X44552602Y-105005390D01*
X44508564Y-104939483D01*
X44462700Y-104893619D01*
X44462700Y-103889122D01*
X44463990Y-103876026D01*
X44462700Y-103862928D01*
X44458841Y-103823744D01*
X44443590Y-103773471D01*
X44418826Y-103727139D01*
X44385498Y-103686528D01*
X44375321Y-103678176D01*
X43188196Y-102491052D01*
X43202400Y-102419646D01*
X43202400Y-102340380D01*
X43186936Y-102262637D01*
X43156602Y-102189405D01*
X43112564Y-102123498D01*
X43056515Y-102067449D01*
X42990608Y-102023411D01*
X42917376Y-101993077D01*
X42839633Y-101977613D01*
X42760367Y-101977613D01*
X42682624Y-101993077D01*
X42609392Y-102023411D01*
X42543485Y-102067449D01*
X42487436Y-102123498D01*
X42443398Y-102189405D01*
X42413064Y-102262637D01*
X42397600Y-102340380D01*
X40570573Y-102340380D01*
X40582960Y-102317206D01*
X40600389Y-102259751D01*
X40604800Y-102214966D01*
X40604800Y-102214958D01*
X40606273Y-102200000D01*
X40604800Y-102185042D01*
X40604800Y-102001031D01*
X40639525Y-101982471D01*
X40685082Y-101945082D01*
X40722471Y-101899525D01*
X40727669Y-101889800D01*
X40800042Y-101889800D01*
X40815000Y-101891273D01*
X40829958Y-101889800D01*
X40829966Y-101889800D01*
X40874751Y-101885389D01*
X40932206Y-101867960D01*
X40985157Y-101839658D01*
X41031568Y-101801568D01*
X41041112Y-101789939D01*
X41304944Y-101526108D01*
X41316568Y-101516568D01*
X41354658Y-101470157D01*
X41372112Y-101437500D01*
X45026863Y-101437500D01*
X45026863Y-101732500D01*
X45032640Y-101791151D01*
X45049748Y-101847549D01*
X45077529Y-101899525D01*
X45114918Y-101945082D01*
X45160475Y-101982471D01*
X45212451Y-102010252D01*
X45268849Y-102027360D01*
X45327500Y-102033137D01*
X45672500Y-102033137D01*
X45731151Y-102027360D01*
X45787549Y-102010252D01*
X45839525Y-101982471D01*
X45885082Y-101945082D01*
X45922471Y-101899525D01*
X45927669Y-101889800D01*
X45956076Y-101889800D01*
X45959422Y-101893146D01*
X46021234Y-101934447D01*
X46089917Y-101962897D01*
X46162829Y-101977400D01*
X46237171Y-101977400D01*
X46310083Y-101962897D01*
X46378766Y-101934447D01*
X46440578Y-101893146D01*
X46493146Y-101840578D01*
X46534447Y-101778766D01*
X46562897Y-101710083D01*
X46577400Y-101637171D01*
X46577400Y-101562829D01*
X46562897Y-101489917D01*
X46534447Y-101421234D01*
X46493146Y-101359422D01*
X46440578Y-101306854D01*
X46378766Y-101265553D01*
X46310083Y-101237103D01*
X46237171Y-101222600D01*
X46162829Y-101222600D01*
X46089917Y-101237103D01*
X46021234Y-101265553D01*
X45999313Y-101280200D01*
X45927669Y-101280200D01*
X45922471Y-101270475D01*
X45885082Y-101224918D01*
X45839525Y-101187529D01*
X45787549Y-101159748D01*
X45731151Y-101142640D01*
X45672500Y-101136863D01*
X45327500Y-101136863D01*
X45268849Y-101142640D01*
X45212451Y-101159748D01*
X45160475Y-101187529D01*
X45114918Y-101224918D01*
X45077529Y-101270475D01*
X45049748Y-101322451D01*
X45032640Y-101378849D01*
X45026863Y-101437500D01*
X41372112Y-101437500D01*
X41382960Y-101417206D01*
X41389679Y-101395057D01*
X41400389Y-101359752D01*
X41403639Y-101326749D01*
X41403856Y-101324549D01*
X41434447Y-101278766D01*
X41462897Y-101210083D01*
X41477400Y-101137171D01*
X41477400Y-101062829D01*
X41462897Y-100989917D01*
X41434447Y-100921234D01*
X41393146Y-100859422D01*
X41340578Y-100806854D01*
X41337504Y-100804800D01*
X41798969Y-100804800D01*
X41817529Y-100839525D01*
X41854918Y-100885082D01*
X41900475Y-100922471D01*
X41952451Y-100950252D01*
X42008849Y-100967360D01*
X42067500Y-100973137D01*
X42362500Y-100973137D01*
X42421151Y-100967360D01*
X42477549Y-100950252D01*
X42529525Y-100922471D01*
X42575082Y-100885082D01*
X42612471Y-100839525D01*
X42640252Y-100787549D01*
X42657360Y-100731151D01*
X42663137Y-100672500D01*
X42663137Y-100327500D01*
X42657360Y-100268849D01*
X42640252Y-100212451D01*
X42612471Y-100160475D01*
X42575082Y-100114918D01*
X42529525Y-100077529D01*
X42477549Y-100049748D01*
X42421151Y-100032640D01*
X42362500Y-100026863D01*
X42067500Y-100026863D01*
X42008849Y-100032640D01*
X41952451Y-100049748D01*
X41900475Y-100077529D01*
X41854918Y-100114918D01*
X41817529Y-100160475D01*
X41798969Y-100195200D01*
X41463948Y-100195200D01*
X41462897Y-100189917D01*
X41434447Y-100121234D01*
X41393146Y-100059422D01*
X41340578Y-100006854D01*
X41278766Y-99965553D01*
X41210083Y-99937103D01*
X41183887Y-99931892D01*
X41188284Y-99928284D01*
X41207329Y-99905078D01*
X41221480Y-99878603D01*
X41230195Y-99849876D01*
X41233137Y-99820000D01*
X41766863Y-99820000D01*
X41769805Y-99849876D01*
X41778520Y-99878603D01*
X41792671Y-99905078D01*
X41811716Y-99928284D01*
X41834922Y-99947329D01*
X41861397Y-99961480D01*
X41890124Y-99970195D01*
X41920000Y-99973137D01*
X42126100Y-99972400D01*
X42164200Y-99934300D01*
X42164200Y-99550800D01*
X42265800Y-99550800D01*
X42265800Y-99934300D01*
X42303900Y-99972400D01*
X42510000Y-99973137D01*
X42539876Y-99970195D01*
X42568603Y-99961480D01*
X42595078Y-99947329D01*
X42618284Y-99928284D01*
X42637329Y-99905078D01*
X42651480Y-99878603D01*
X42660195Y-99849876D01*
X42663137Y-99820000D01*
X42662400Y-99588900D01*
X42624300Y-99550800D01*
X42265800Y-99550800D01*
X42164200Y-99550800D01*
X41805700Y-99550800D01*
X41767600Y-99588900D01*
X41766863Y-99820000D01*
X41233137Y-99820000D01*
X41232400Y-99588900D01*
X41194300Y-99550800D01*
X40835800Y-99550800D01*
X40835800Y-99934300D01*
X40873900Y-99972400D01*
X40910789Y-99972532D01*
X40859422Y-100006854D01*
X40806854Y-100059422D01*
X40765553Y-100121234D01*
X40737103Y-100189917D01*
X40726692Y-100242256D01*
X40698131Y-100270818D01*
X40685082Y-100254918D01*
X40639525Y-100217529D01*
X40587549Y-100189748D01*
X40531151Y-100172640D01*
X40472500Y-100166863D01*
X40127500Y-100166863D01*
X40068849Y-100172640D01*
X40012451Y-100189748D01*
X39960475Y-100217529D01*
X39914918Y-100254918D01*
X39877529Y-100300475D01*
X39872736Y-100309442D01*
X39865042Y-100310200D01*
X39865034Y-100310200D01*
X39825403Y-100314103D01*
X39820248Y-100314611D01*
X39777760Y-100327500D01*
X39762794Y-100332040D01*
X39709843Y-100360342D01*
X39663432Y-100398432D01*
X39653892Y-100410056D01*
X39613923Y-100450025D01*
X39586249Y-100398251D01*
X39536891Y-100338109D01*
X39476749Y-100288751D01*
X39408132Y-100252074D01*
X39333679Y-100229489D01*
X39256250Y-100221863D01*
X38343750Y-100221863D01*
X38266321Y-100229489D01*
X38191868Y-100252074D01*
X38123251Y-100288751D01*
X38063109Y-100338109D01*
X38013751Y-100398251D01*
X37977074Y-100466868D01*
X37954489Y-100541321D01*
X37946863Y-100618750D01*
X37766704Y-100618750D01*
X37766704Y-100213101D01*
X37767994Y-100200005D01*
X37765745Y-100177174D01*
X37762845Y-100147724D01*
X37747594Y-100097451D01*
X37722830Y-100051119D01*
X37689502Y-100010508D01*
X37679320Y-100002152D01*
X36802398Y-99125230D01*
X36802398Y-99060367D01*
X36786934Y-98982624D01*
X36756600Y-98909392D01*
X36712562Y-98843485D01*
X36656513Y-98787436D01*
X36590606Y-98743398D01*
X36517374Y-98713064D01*
X36439631Y-98697600D01*
X36360365Y-98697600D01*
X36282622Y-98713064D01*
X36209390Y-98743398D01*
X36143483Y-98787436D01*
X36087434Y-98843485D01*
X36043396Y-98909392D01*
X36013062Y-98982624D01*
X35997598Y-99060367D01*
X31177400Y-99060367D01*
X31177400Y-98662829D01*
X39122600Y-98662829D01*
X39122600Y-98737171D01*
X39137103Y-98810083D01*
X39165553Y-98878766D01*
X39206854Y-98940578D01*
X39259422Y-98993146D01*
X39321234Y-99034447D01*
X39389917Y-99062897D01*
X39462829Y-99077400D01*
X39500716Y-99077400D01*
X39500475Y-99077529D01*
X39454918Y-99114918D01*
X39445840Y-99125979D01*
X39389917Y-99137103D01*
X39321234Y-99165553D01*
X39259422Y-99206854D01*
X39206854Y-99259422D01*
X39165553Y-99321234D01*
X39137103Y-99389917D01*
X39122600Y-99462829D01*
X39122600Y-99537171D01*
X39137103Y-99610083D01*
X39165553Y-99678766D01*
X39206854Y-99740578D01*
X39259422Y-99793146D01*
X39321234Y-99834447D01*
X39389917Y-99862897D01*
X39445840Y-99874021D01*
X39454918Y-99885082D01*
X39500475Y-99922471D01*
X39552451Y-99950252D01*
X39608849Y-99967360D01*
X39667500Y-99973137D01*
X39962500Y-99973137D01*
X40021151Y-99967360D01*
X40077549Y-99950252D01*
X40129525Y-99922471D01*
X40175082Y-99885082D01*
X40212471Y-99839525D01*
X40222907Y-99820000D01*
X40336863Y-99820000D01*
X40339805Y-99849876D01*
X40348520Y-99878603D01*
X40362671Y-99905078D01*
X40381716Y-99928284D01*
X40404922Y-99947329D01*
X40431397Y-99961480D01*
X40460124Y-99970195D01*
X40490000Y-99973137D01*
X40696100Y-99972400D01*
X40734200Y-99934300D01*
X40734200Y-99550800D01*
X40375700Y-99550800D01*
X40337600Y-99588900D01*
X40336863Y-99820000D01*
X40222907Y-99820000D01*
X40240252Y-99787549D01*
X40257360Y-99731151D01*
X40263137Y-99672500D01*
X40263137Y-99327500D01*
X40257360Y-99268849D01*
X40240252Y-99212451D01*
X40222908Y-99180000D01*
X40336863Y-99180000D01*
X40337600Y-99411100D01*
X40375700Y-99449200D01*
X40734200Y-99449200D01*
X40734200Y-99065700D01*
X40835800Y-99065700D01*
X40835800Y-99449200D01*
X41194300Y-99449200D01*
X41232400Y-99411100D01*
X41233137Y-99180000D01*
X41230195Y-99150124D01*
X41221480Y-99121397D01*
X41207329Y-99094922D01*
X41188284Y-99071716D01*
X41165078Y-99052671D01*
X41138603Y-99038520D01*
X41109876Y-99029805D01*
X41080000Y-99026863D01*
X40873900Y-99027600D01*
X40835800Y-99065700D01*
X40734200Y-99065700D01*
X40696100Y-99027600D01*
X40490000Y-99026863D01*
X40460124Y-99029805D01*
X40431397Y-99038520D01*
X40404922Y-99052671D01*
X40381716Y-99071716D01*
X40362671Y-99094922D01*
X40348520Y-99121397D01*
X40339805Y-99150124D01*
X40336863Y-99180000D01*
X40222908Y-99180000D01*
X40212471Y-99160475D01*
X40175082Y-99114918D01*
X40129525Y-99077529D01*
X40077549Y-99049748D01*
X40021151Y-99032640D01*
X39962500Y-99026863D01*
X39690116Y-99026863D01*
X39740578Y-98993146D01*
X39793146Y-98940578D01*
X39834447Y-98878766D01*
X39862897Y-98810083D01*
X39877400Y-98737171D01*
X39877400Y-98662829D01*
X41522600Y-98662829D01*
X41522600Y-98737171D01*
X41537103Y-98810083D01*
X41565553Y-98878766D01*
X41606854Y-98940578D01*
X41659422Y-98993146D01*
X41721234Y-99034447D01*
X41789917Y-99062897D01*
X41816113Y-99068108D01*
X41811716Y-99071716D01*
X41792671Y-99094922D01*
X41778520Y-99121397D01*
X41769805Y-99150124D01*
X41766863Y-99180000D01*
X41767600Y-99411100D01*
X41805700Y-99449200D01*
X42164200Y-99449200D01*
X42164200Y-99065700D01*
X42265800Y-99065700D01*
X42265800Y-99449200D01*
X42624300Y-99449200D01*
X42662400Y-99411100D01*
X42662666Y-99327500D01*
X42736863Y-99327500D01*
X42736863Y-99672500D01*
X42742640Y-99731151D01*
X42759748Y-99787549D01*
X42787529Y-99839525D01*
X42824918Y-99885082D01*
X42870475Y-99922471D01*
X42880201Y-99927669D01*
X42880200Y-100072331D01*
X42870475Y-100077529D01*
X42824918Y-100114918D01*
X42787529Y-100160475D01*
X42759748Y-100212451D01*
X42742640Y-100268849D01*
X42736863Y-100327500D01*
X42736863Y-100672500D01*
X42742640Y-100731151D01*
X42759748Y-100787549D01*
X42787529Y-100839525D01*
X42824918Y-100885082D01*
X42870475Y-100922471D01*
X42922451Y-100950252D01*
X42978849Y-100967360D01*
X43037500Y-100973137D01*
X43332500Y-100973137D01*
X43391151Y-100967360D01*
X43447549Y-100950252D01*
X43499525Y-100922471D01*
X43514720Y-100910000D01*
X45026863Y-100910000D01*
X45029805Y-100939876D01*
X45038520Y-100968603D01*
X45052671Y-100995078D01*
X45071716Y-101018284D01*
X45094922Y-101037329D01*
X45121397Y-101051480D01*
X45150124Y-101060195D01*
X45180000Y-101063137D01*
X45411100Y-101062400D01*
X45449200Y-101024300D01*
X45449200Y-100665800D01*
X45550800Y-100665800D01*
X45550800Y-101024300D01*
X45588900Y-101062400D01*
X45820000Y-101063137D01*
X45849876Y-101060195D01*
X45878603Y-101051480D01*
X45905078Y-101037329D01*
X45928284Y-101018284D01*
X45947329Y-100995078D01*
X45961480Y-100968603D01*
X45970195Y-100939876D01*
X45973137Y-100910000D01*
X45972400Y-100703900D01*
X45934300Y-100665800D01*
X45550800Y-100665800D01*
X45449200Y-100665800D01*
X45065700Y-100665800D01*
X45027600Y-100703900D01*
X45026863Y-100910000D01*
X43514720Y-100910000D01*
X43545082Y-100885082D01*
X43582471Y-100839525D01*
X43610252Y-100787549D01*
X43627360Y-100731151D01*
X43633137Y-100672500D01*
X43633137Y-100327500D01*
X43632399Y-100320000D01*
X45026863Y-100320000D01*
X45027600Y-100526100D01*
X45065700Y-100564200D01*
X45449200Y-100564200D01*
X45449200Y-100205700D01*
X45550800Y-100205700D01*
X45550800Y-100564200D01*
X45934300Y-100564200D01*
X45972400Y-100526100D01*
X45973137Y-100320000D01*
X45970195Y-100290124D01*
X45961480Y-100261397D01*
X45947329Y-100234922D01*
X45928284Y-100211716D01*
X45905078Y-100192671D01*
X45878603Y-100178520D01*
X45849876Y-100169805D01*
X45820000Y-100166863D01*
X45588900Y-100167600D01*
X45550800Y-100205700D01*
X45449200Y-100205700D01*
X45411100Y-100167600D01*
X45180000Y-100166863D01*
X45150124Y-100169805D01*
X45121397Y-100178520D01*
X45094922Y-100192671D01*
X45071716Y-100211716D01*
X45052671Y-100234922D01*
X45038520Y-100261397D01*
X45029805Y-100290124D01*
X45026863Y-100320000D01*
X43632399Y-100320000D01*
X43627360Y-100268849D01*
X43610252Y-100212451D01*
X43582471Y-100160475D01*
X43545082Y-100114918D01*
X43499525Y-100077529D01*
X43489800Y-100072331D01*
X43489800Y-99927669D01*
X43499525Y-99922471D01*
X43545082Y-99885082D01*
X43554160Y-99874021D01*
X43610083Y-99862897D01*
X43678766Y-99834447D01*
X43740578Y-99793146D01*
X43793146Y-99740578D01*
X43834447Y-99678766D01*
X43862897Y-99610083D01*
X43877400Y-99537171D01*
X43877400Y-99462829D01*
X43862897Y-99389917D01*
X43834447Y-99321234D01*
X43793146Y-99259422D01*
X43740578Y-99206854D01*
X43678766Y-99165553D01*
X43610083Y-99137103D01*
X43554160Y-99125979D01*
X43545082Y-99114918D01*
X43499525Y-99077529D01*
X43447549Y-99049748D01*
X43391151Y-99032640D01*
X43332500Y-99026863D01*
X43037500Y-99026863D01*
X42978849Y-99032640D01*
X42922451Y-99049748D01*
X42870475Y-99077529D01*
X42824918Y-99114918D01*
X42787529Y-99160475D01*
X42759748Y-99212451D01*
X42742640Y-99268849D01*
X42736863Y-99327500D01*
X42662666Y-99327500D01*
X42663137Y-99180000D01*
X42660195Y-99150124D01*
X42651480Y-99121397D01*
X42637329Y-99094922D01*
X42618284Y-99071716D01*
X42595078Y-99052671D01*
X42568603Y-99038520D01*
X42539876Y-99029805D01*
X42510000Y-99026863D01*
X42303900Y-99027600D01*
X42265800Y-99065700D01*
X42164200Y-99065700D01*
X42126100Y-99027600D01*
X42089211Y-99027468D01*
X42140578Y-98993146D01*
X42160587Y-98973137D01*
X42362500Y-98973137D01*
X42421151Y-98967360D01*
X42477549Y-98950252D01*
X42529525Y-98922471D01*
X42575082Y-98885082D01*
X42612471Y-98839525D01*
X42622907Y-98820000D01*
X42736863Y-98820000D01*
X42739805Y-98849876D01*
X42748520Y-98878603D01*
X42762671Y-98905078D01*
X42781716Y-98928284D01*
X42804922Y-98947329D01*
X42831397Y-98961480D01*
X42860124Y-98970195D01*
X42890000Y-98973137D01*
X43096100Y-98972400D01*
X43134200Y-98934300D01*
X43134200Y-98550800D01*
X43235800Y-98550800D01*
X43235800Y-98934300D01*
X43273900Y-98972400D01*
X43480000Y-98973137D01*
X43509876Y-98970195D01*
X43538603Y-98961480D01*
X43565078Y-98947329D01*
X43588284Y-98928284D01*
X43607329Y-98905078D01*
X43621480Y-98878603D01*
X43630195Y-98849876D01*
X43633137Y-98820000D01*
X43632400Y-98588900D01*
X43594300Y-98550800D01*
X43235800Y-98550800D01*
X43134200Y-98550800D01*
X42775700Y-98550800D01*
X42737600Y-98588900D01*
X42736863Y-98820000D01*
X42622907Y-98820000D01*
X42640252Y-98787549D01*
X42657360Y-98731151D01*
X42663137Y-98672500D01*
X42663137Y-98327500D01*
X42657360Y-98268849D01*
X42640252Y-98212451D01*
X42622908Y-98180000D01*
X42736863Y-98180000D01*
X42737600Y-98411100D01*
X42775700Y-98449200D01*
X43134200Y-98449200D01*
X43134200Y-98065700D01*
X43235800Y-98065700D01*
X43235800Y-98449200D01*
X43594300Y-98449200D01*
X43632400Y-98411100D01*
X43632608Y-98345593D01*
X46947600Y-98345593D01*
X46947600Y-98454407D01*
X46968828Y-98561129D01*
X47010469Y-98661660D01*
X47070923Y-98752135D01*
X47147865Y-98829077D01*
X47238340Y-98889531D01*
X47338871Y-98931172D01*
X47445593Y-98952400D01*
X47554407Y-98952400D01*
X47661129Y-98931172D01*
X47761660Y-98889531D01*
X47852135Y-98829077D01*
X47929077Y-98752135D01*
X47989531Y-98661660D01*
X48031172Y-98561129D01*
X48052400Y-98454407D01*
X48052400Y-98345593D01*
X48031172Y-98238871D01*
X47989531Y-98138340D01*
X47929077Y-98047865D01*
X47852135Y-97970923D01*
X47761660Y-97910469D01*
X47661129Y-97868828D01*
X47554407Y-97847600D01*
X47445593Y-97847600D01*
X47338871Y-97868828D01*
X47238340Y-97910469D01*
X47147865Y-97970923D01*
X47070923Y-98047865D01*
X47010469Y-98138340D01*
X46968828Y-98238871D01*
X46947600Y-98345593D01*
X43632608Y-98345593D01*
X43633137Y-98180000D01*
X43630195Y-98150124D01*
X43621480Y-98121397D01*
X43607329Y-98094922D01*
X43588284Y-98071716D01*
X43565078Y-98052671D01*
X43538603Y-98038520D01*
X43509876Y-98029805D01*
X43480000Y-98026863D01*
X43273900Y-98027600D01*
X43235800Y-98065700D01*
X43134200Y-98065700D01*
X43096100Y-98027600D01*
X42890000Y-98026863D01*
X42860124Y-98029805D01*
X42831397Y-98038520D01*
X42804922Y-98052671D01*
X42781716Y-98071716D01*
X42762671Y-98094922D01*
X42748520Y-98121397D01*
X42739805Y-98150124D01*
X42736863Y-98180000D01*
X42622908Y-98180000D01*
X42612471Y-98160475D01*
X42575082Y-98114918D01*
X42529525Y-98077529D01*
X42477549Y-98049748D01*
X42421151Y-98032640D01*
X42362500Y-98026863D01*
X42067500Y-98026863D01*
X42008849Y-98032640D01*
X41952451Y-98049748D01*
X41900475Y-98077529D01*
X41854918Y-98114918D01*
X41817529Y-98160475D01*
X41789748Y-98212451D01*
X41772640Y-98268849D01*
X41766863Y-98327500D01*
X41766863Y-98346652D01*
X41721234Y-98365553D01*
X41659422Y-98406854D01*
X41606854Y-98459422D01*
X41565553Y-98521234D01*
X41537103Y-98589917D01*
X41522600Y-98662829D01*
X39877400Y-98662829D01*
X39862897Y-98589917D01*
X39834447Y-98521234D01*
X39793146Y-98459422D01*
X39740578Y-98406854D01*
X39678766Y-98365553D01*
X39610083Y-98337103D01*
X39537171Y-98322600D01*
X39462829Y-98322600D01*
X39389917Y-98337103D01*
X39321234Y-98365553D01*
X39259422Y-98406854D01*
X39206854Y-98459422D01*
X39165553Y-98521234D01*
X39137103Y-98589917D01*
X39122600Y-98662829D01*
X31177400Y-98662829D01*
X31177400Y-96262829D01*
X39122600Y-96262829D01*
X39122600Y-96337171D01*
X39137103Y-96410083D01*
X39165553Y-96478766D01*
X39206854Y-96540578D01*
X39259422Y-96593146D01*
X39321234Y-96634447D01*
X39389917Y-96662897D01*
X39445840Y-96674021D01*
X39454918Y-96685082D01*
X39500475Y-96722471D01*
X39500716Y-96722600D01*
X39462829Y-96722600D01*
X39389917Y-96737103D01*
X39321234Y-96765553D01*
X39259422Y-96806854D01*
X39206854Y-96859422D01*
X39165553Y-96921234D01*
X39137103Y-96989917D01*
X39122600Y-97062829D01*
X39122600Y-97137171D01*
X39137103Y-97210083D01*
X39165553Y-97278766D01*
X39206854Y-97340578D01*
X39259422Y-97393146D01*
X39312681Y-97428732D01*
X39366863Y-97482914D01*
X39366863Y-97672500D01*
X39372640Y-97731151D01*
X39389748Y-97787549D01*
X39417529Y-97839525D01*
X39454918Y-97885082D01*
X39500475Y-97922471D01*
X39552451Y-97950252D01*
X39608849Y-97967360D01*
X39667500Y-97973137D01*
X39962500Y-97973137D01*
X40021151Y-97967360D01*
X40077549Y-97950252D01*
X40129525Y-97922471D01*
X40175082Y-97885082D01*
X40212471Y-97839525D01*
X40222907Y-97820000D01*
X40336863Y-97820000D01*
X40339805Y-97849876D01*
X40348520Y-97878603D01*
X40362671Y-97905078D01*
X40381716Y-97928284D01*
X40404922Y-97947329D01*
X40431397Y-97961480D01*
X40460124Y-97970195D01*
X40490000Y-97973137D01*
X40696100Y-97972400D01*
X40734200Y-97934300D01*
X40734200Y-97550800D01*
X40835800Y-97550800D01*
X40835800Y-97934300D01*
X40873900Y-97972400D01*
X41080000Y-97973137D01*
X41109876Y-97970195D01*
X41138603Y-97961480D01*
X41165078Y-97947329D01*
X41188284Y-97928284D01*
X41207329Y-97905078D01*
X41221480Y-97878603D01*
X41230195Y-97849876D01*
X41233137Y-97820000D01*
X41766863Y-97820000D01*
X41769805Y-97849876D01*
X41778520Y-97878603D01*
X41792671Y-97905078D01*
X41811716Y-97928284D01*
X41834922Y-97947329D01*
X41861397Y-97961480D01*
X41890124Y-97970195D01*
X41920000Y-97973137D01*
X42126100Y-97972400D01*
X42164200Y-97934300D01*
X42164200Y-97550800D01*
X42265800Y-97550800D01*
X42265800Y-97934300D01*
X42303900Y-97972400D01*
X42510000Y-97973137D01*
X42539876Y-97970195D01*
X42568603Y-97961480D01*
X42595078Y-97947329D01*
X42618284Y-97928284D01*
X42637329Y-97905078D01*
X42651480Y-97878603D01*
X42660195Y-97849876D01*
X42663137Y-97820000D01*
X42662400Y-97588900D01*
X42624300Y-97550800D01*
X42265800Y-97550800D01*
X42164200Y-97550800D01*
X41805700Y-97550800D01*
X41767600Y-97588900D01*
X41766863Y-97820000D01*
X41233137Y-97820000D01*
X41232400Y-97588900D01*
X41194300Y-97550800D01*
X40835800Y-97550800D01*
X40734200Y-97550800D01*
X40375700Y-97550800D01*
X40337600Y-97588900D01*
X40336863Y-97820000D01*
X40222907Y-97820000D01*
X40240252Y-97787549D01*
X40257360Y-97731151D01*
X40263137Y-97672500D01*
X40263137Y-97327500D01*
X40257360Y-97268849D01*
X40240252Y-97212451D01*
X40222908Y-97180000D01*
X40336863Y-97180000D01*
X40337600Y-97411100D01*
X40375700Y-97449200D01*
X40734200Y-97449200D01*
X40734200Y-97065700D01*
X40835800Y-97065700D01*
X40835800Y-97449200D01*
X41194300Y-97449200D01*
X41232400Y-97411100D01*
X41233137Y-97180000D01*
X41766863Y-97180000D01*
X41767600Y-97411100D01*
X41805700Y-97449200D01*
X42164200Y-97449200D01*
X42164200Y-97065700D01*
X42265800Y-97065700D01*
X42265800Y-97449200D01*
X42624300Y-97449200D01*
X42662400Y-97411100D01*
X42663137Y-97180000D01*
X42660195Y-97150124D01*
X42651480Y-97121397D01*
X42637329Y-97094922D01*
X42618284Y-97071716D01*
X42595078Y-97052671D01*
X42568603Y-97038520D01*
X42539876Y-97029805D01*
X42510000Y-97026863D01*
X42303900Y-97027600D01*
X42265800Y-97065700D01*
X42164200Y-97065700D01*
X42126100Y-97027600D01*
X41920000Y-97026863D01*
X41890124Y-97029805D01*
X41861397Y-97038520D01*
X41834922Y-97052671D01*
X41811716Y-97071716D01*
X41792671Y-97094922D01*
X41778520Y-97121397D01*
X41769805Y-97150124D01*
X41766863Y-97180000D01*
X41233137Y-97180000D01*
X41230195Y-97150124D01*
X41221480Y-97121397D01*
X41207329Y-97094922D01*
X41188284Y-97071716D01*
X41165078Y-97052671D01*
X41138603Y-97038520D01*
X41109876Y-97029805D01*
X41080000Y-97026863D01*
X40873900Y-97027600D01*
X40835800Y-97065700D01*
X40734200Y-97065700D01*
X40696100Y-97027600D01*
X40490000Y-97026863D01*
X40460124Y-97029805D01*
X40431397Y-97038520D01*
X40404922Y-97052671D01*
X40381716Y-97071716D01*
X40362671Y-97094922D01*
X40348520Y-97121397D01*
X40339805Y-97150124D01*
X40336863Y-97180000D01*
X40222908Y-97180000D01*
X40212471Y-97160475D01*
X40175082Y-97114918D01*
X40129525Y-97077529D01*
X40077549Y-97049748D01*
X40021151Y-97032640D01*
X39962500Y-97026863D01*
X39870246Y-97026863D01*
X39862897Y-96989917D01*
X39834447Y-96921234D01*
X39793146Y-96859422D01*
X39740578Y-96806854D01*
X39690116Y-96773137D01*
X39962500Y-96773137D01*
X40021151Y-96767360D01*
X40077549Y-96750252D01*
X40129525Y-96722471D01*
X40175082Y-96685082D01*
X40212471Y-96639525D01*
X40222907Y-96620000D01*
X40336863Y-96620000D01*
X40339805Y-96649876D01*
X40348520Y-96678603D01*
X40362671Y-96705078D01*
X40381716Y-96728284D01*
X40404922Y-96747329D01*
X40431397Y-96761480D01*
X40460124Y-96770195D01*
X40490000Y-96773137D01*
X40696100Y-96772400D01*
X40734200Y-96734300D01*
X40734200Y-96350800D01*
X40835800Y-96350800D01*
X40835800Y-96734300D01*
X40873900Y-96772400D01*
X41080000Y-96773137D01*
X41109876Y-96770195D01*
X41138603Y-96761480D01*
X41165078Y-96747329D01*
X41188284Y-96728284D01*
X41207329Y-96705078D01*
X41221480Y-96678603D01*
X41230195Y-96649876D01*
X41233137Y-96620000D01*
X41766863Y-96620000D01*
X41769805Y-96649876D01*
X41778520Y-96678603D01*
X41792671Y-96705078D01*
X41811716Y-96728284D01*
X41834922Y-96747329D01*
X41861397Y-96761480D01*
X41890124Y-96770195D01*
X41920000Y-96773137D01*
X42126100Y-96772400D01*
X42164200Y-96734300D01*
X42164200Y-96350800D01*
X42265800Y-96350800D01*
X42265800Y-96734300D01*
X42303900Y-96772400D01*
X42510000Y-96773137D01*
X42539876Y-96770195D01*
X42568603Y-96761480D01*
X42595078Y-96747329D01*
X42618284Y-96728284D01*
X42637329Y-96705078D01*
X42651480Y-96678603D01*
X42660195Y-96649876D01*
X42663137Y-96620000D01*
X42662400Y-96388900D01*
X42624300Y-96350800D01*
X42265800Y-96350800D01*
X42164200Y-96350800D01*
X41805700Y-96350800D01*
X41767600Y-96388900D01*
X41766863Y-96620000D01*
X41233137Y-96620000D01*
X41232400Y-96388900D01*
X41194300Y-96350800D01*
X40835800Y-96350800D01*
X40734200Y-96350800D01*
X40375700Y-96350800D01*
X40337600Y-96388900D01*
X40336863Y-96620000D01*
X40222907Y-96620000D01*
X40240252Y-96587549D01*
X40257360Y-96531151D01*
X40263137Y-96472500D01*
X40263137Y-96127500D01*
X40257360Y-96068849D01*
X40240252Y-96012451D01*
X40222908Y-95980000D01*
X40336863Y-95980000D01*
X40337600Y-96211100D01*
X40375700Y-96249200D01*
X40734200Y-96249200D01*
X40734200Y-95865700D01*
X40835800Y-95865700D01*
X40835800Y-96249200D01*
X41194300Y-96249200D01*
X41232400Y-96211100D01*
X41233137Y-95980000D01*
X41230195Y-95950124D01*
X41221480Y-95921397D01*
X41207329Y-95894922D01*
X41188284Y-95871716D01*
X41165078Y-95852671D01*
X41138603Y-95838520D01*
X41109876Y-95829805D01*
X41080000Y-95826863D01*
X40873900Y-95827600D01*
X40835800Y-95865700D01*
X40734200Y-95865700D01*
X40696100Y-95827600D01*
X40490000Y-95826863D01*
X40460124Y-95829805D01*
X40431397Y-95838520D01*
X40404922Y-95852671D01*
X40381716Y-95871716D01*
X40362671Y-95894922D01*
X40348520Y-95921397D01*
X40339805Y-95950124D01*
X40336863Y-95980000D01*
X40222908Y-95980000D01*
X40212471Y-95960475D01*
X40175082Y-95914918D01*
X40129525Y-95877529D01*
X40119800Y-95872331D01*
X40119800Y-95727669D01*
X40129525Y-95722471D01*
X40175082Y-95685082D01*
X40212471Y-95639525D01*
X40240252Y-95587549D01*
X40257360Y-95531151D01*
X40263137Y-95472500D01*
X40263137Y-95127500D01*
X40258110Y-95076461D01*
X40262829Y-95077400D01*
X40337171Y-95077400D01*
X40341890Y-95076461D01*
X40336863Y-95127500D01*
X40336863Y-95472500D01*
X40342640Y-95531151D01*
X40359748Y-95587549D01*
X40387529Y-95639525D01*
X40424918Y-95685082D01*
X40470475Y-95722471D01*
X40522451Y-95750252D01*
X40578849Y-95767360D01*
X40637500Y-95773137D01*
X40932500Y-95773137D01*
X40991151Y-95767360D01*
X41047549Y-95750252D01*
X41099525Y-95722471D01*
X41145082Y-95685082D01*
X41182471Y-95639525D01*
X41210252Y-95587549D01*
X41227360Y-95531151D01*
X41233137Y-95472500D01*
X41233137Y-95462829D01*
X41522600Y-95462829D01*
X41522600Y-95537171D01*
X41537103Y-95610083D01*
X41565553Y-95678766D01*
X41606854Y-95740578D01*
X41659422Y-95793146D01*
X41721234Y-95834447D01*
X41789917Y-95862897D01*
X41816113Y-95868108D01*
X41811716Y-95871716D01*
X41792671Y-95894922D01*
X41778520Y-95921397D01*
X41769805Y-95950124D01*
X41766863Y-95980000D01*
X41767600Y-96211100D01*
X41805700Y-96249200D01*
X42164200Y-96249200D01*
X42164200Y-95865700D01*
X42265800Y-95865700D01*
X42265800Y-96249200D01*
X42624300Y-96249200D01*
X42662400Y-96211100D01*
X42662666Y-96127500D01*
X42736863Y-96127500D01*
X42736863Y-96472500D01*
X42742640Y-96531151D01*
X42759748Y-96587549D01*
X42787529Y-96639525D01*
X42824918Y-96685082D01*
X42870475Y-96722471D01*
X42922451Y-96750252D01*
X42978849Y-96767360D01*
X43037500Y-96773137D01*
X43309884Y-96773137D01*
X43259422Y-96806854D01*
X43206854Y-96859422D01*
X43165553Y-96921234D01*
X43137103Y-96989917D01*
X43129754Y-97026863D01*
X43037500Y-97026863D01*
X42978849Y-97032640D01*
X42922451Y-97049748D01*
X42870475Y-97077529D01*
X42824918Y-97114918D01*
X42787529Y-97160475D01*
X42759748Y-97212451D01*
X42742640Y-97268849D01*
X42736863Y-97327500D01*
X42736863Y-97672500D01*
X42742640Y-97731151D01*
X42759748Y-97787549D01*
X42787529Y-97839525D01*
X42824918Y-97885082D01*
X42870475Y-97922471D01*
X42922451Y-97950252D01*
X42978849Y-97967360D01*
X43037500Y-97973137D01*
X43332500Y-97973137D01*
X43391151Y-97967360D01*
X43447549Y-97950252D01*
X43499525Y-97922471D01*
X43545082Y-97885082D01*
X43582471Y-97839525D01*
X43610252Y-97787549D01*
X43627360Y-97731151D01*
X43633137Y-97672500D01*
X43633137Y-97482915D01*
X43687321Y-97428731D01*
X43740578Y-97393146D01*
X43793146Y-97340578D01*
X43834447Y-97278766D01*
X43862897Y-97210083D01*
X43877400Y-97137171D01*
X43877400Y-97062829D01*
X43862897Y-96989917D01*
X43834447Y-96921234D01*
X43793146Y-96859422D01*
X43740578Y-96806854D01*
X43678766Y-96765553D01*
X43610083Y-96737103D01*
X43537171Y-96722600D01*
X43499284Y-96722600D01*
X43499525Y-96722471D01*
X43545082Y-96685082D01*
X43554160Y-96674021D01*
X43610083Y-96662897D01*
X43678766Y-96634447D01*
X43740578Y-96593146D01*
X43793146Y-96540578D01*
X43834447Y-96478766D01*
X43862897Y-96410083D01*
X43877400Y-96337171D01*
X43877400Y-96262829D01*
X43862897Y-96189917D01*
X43834447Y-96121234D01*
X43793146Y-96059422D01*
X43740578Y-96006854D01*
X43678766Y-95965553D01*
X43610083Y-95937103D01*
X43554160Y-95925979D01*
X43545082Y-95914918D01*
X43499525Y-95877529D01*
X43447549Y-95849748D01*
X43391151Y-95832640D01*
X43332500Y-95826863D01*
X43037500Y-95826863D01*
X42978849Y-95832640D01*
X42922451Y-95849748D01*
X42870475Y-95877529D01*
X42824918Y-95914918D01*
X42787529Y-95960475D01*
X42759748Y-96012451D01*
X42742640Y-96068849D01*
X42736863Y-96127500D01*
X42662666Y-96127500D01*
X42663137Y-95980000D01*
X42660195Y-95950124D01*
X42651480Y-95921397D01*
X42637329Y-95894922D01*
X42618284Y-95871716D01*
X42595078Y-95852671D01*
X42568603Y-95838520D01*
X42539876Y-95829805D01*
X42510000Y-95826863D01*
X42303900Y-95827600D01*
X42265800Y-95865700D01*
X42164200Y-95865700D01*
X42126100Y-95827600D01*
X42089211Y-95827468D01*
X42140578Y-95793146D01*
X42160587Y-95773137D01*
X42347500Y-95773137D01*
X42406151Y-95767360D01*
X42462549Y-95750252D01*
X42514525Y-95722471D01*
X42560082Y-95685082D01*
X42597471Y-95639525D01*
X42607907Y-95620000D01*
X42721863Y-95620000D01*
X42724805Y-95649876D01*
X42733520Y-95678603D01*
X42747671Y-95705078D01*
X42766716Y-95728284D01*
X42789922Y-95747329D01*
X42816397Y-95761480D01*
X42845124Y-95770195D01*
X42875000Y-95773137D01*
X43081100Y-95772400D01*
X43119200Y-95734300D01*
X43119200Y-95350800D01*
X43220800Y-95350800D01*
X43220800Y-95734300D01*
X43258900Y-95772400D01*
X43465000Y-95773137D01*
X43494876Y-95770195D01*
X43523603Y-95761480D01*
X43550078Y-95747329D01*
X43573284Y-95728284D01*
X43592329Y-95705078D01*
X43606480Y-95678603D01*
X43615195Y-95649876D01*
X43618137Y-95620000D01*
X43617400Y-95388900D01*
X43579300Y-95350800D01*
X43220800Y-95350800D01*
X43119200Y-95350800D01*
X42760700Y-95350800D01*
X42722600Y-95388900D01*
X42721863Y-95620000D01*
X42607907Y-95620000D01*
X42625252Y-95587549D01*
X42642360Y-95531151D01*
X42648137Y-95472500D01*
X42648137Y-95127500D01*
X42642360Y-95068849D01*
X42625252Y-95012451D01*
X42607908Y-94980000D01*
X42721863Y-94980000D01*
X42722600Y-95211100D01*
X42760700Y-95249200D01*
X43119200Y-95249200D01*
X43119200Y-94865700D01*
X43081100Y-94827600D01*
X42875000Y-94826863D01*
X42845124Y-94829805D01*
X42816397Y-94838520D01*
X42789922Y-94852671D01*
X42766716Y-94871716D01*
X42747671Y-94894922D01*
X42733520Y-94921397D01*
X42724805Y-94950124D01*
X42721863Y-94980000D01*
X42607908Y-94980000D01*
X42597471Y-94960475D01*
X42560082Y-94914918D01*
X42514525Y-94877529D01*
X42462549Y-94849748D01*
X42406151Y-94832640D01*
X42347500Y-94826863D01*
X42052500Y-94826863D01*
X41993849Y-94832640D01*
X41937451Y-94849748D01*
X41885475Y-94877529D01*
X41839918Y-94914918D01*
X41802529Y-94960475D01*
X41774748Y-95012451D01*
X41757640Y-95068849D01*
X41751863Y-95127500D01*
X41751863Y-95152866D01*
X41721234Y-95165553D01*
X41659422Y-95206854D01*
X41606854Y-95259422D01*
X41565553Y-95321234D01*
X41537103Y-95389917D01*
X41522600Y-95462829D01*
X41233137Y-95462829D01*
X41233137Y-95397914D01*
X41304940Y-95326111D01*
X41316568Y-95316568D01*
X41354658Y-95270157D01*
X41382960Y-95217206D01*
X41384812Y-95211100D01*
X41400389Y-95159752D01*
X41402277Y-95140578D01*
X41404800Y-95114966D01*
X41404800Y-95114958D01*
X41406273Y-95100000D01*
X41404800Y-95085042D01*
X41404800Y-94923136D01*
X41434447Y-94878766D01*
X41462897Y-94810083D01*
X41477400Y-94737171D01*
X41477400Y-94734297D01*
X41499525Y-94722471D01*
X41545082Y-94685082D01*
X41582471Y-94639525D01*
X41592907Y-94620000D01*
X41766863Y-94620000D01*
X41769805Y-94649876D01*
X41778520Y-94678603D01*
X41792671Y-94705078D01*
X41811716Y-94728284D01*
X41834922Y-94747329D01*
X41861397Y-94761480D01*
X41890124Y-94770195D01*
X41920000Y-94773137D01*
X42126100Y-94772400D01*
X42164200Y-94734300D01*
X42164200Y-94350800D01*
X42265800Y-94350800D01*
X42265800Y-94734300D01*
X42303900Y-94772400D01*
X42510000Y-94773137D01*
X42539876Y-94770195D01*
X42568603Y-94761480D01*
X42595078Y-94747329D01*
X42618284Y-94728284D01*
X42637329Y-94705078D01*
X42651480Y-94678603D01*
X42660195Y-94649876D01*
X42663137Y-94620000D01*
X42662400Y-94388900D01*
X42624300Y-94350800D01*
X42265800Y-94350800D01*
X42164200Y-94350800D01*
X41805700Y-94350800D01*
X41767600Y-94388900D01*
X41766863Y-94620000D01*
X41592907Y-94620000D01*
X41610252Y-94587549D01*
X41627360Y-94531151D01*
X41633137Y-94472500D01*
X41633137Y-94127500D01*
X41627360Y-94068849D01*
X41620923Y-94047628D01*
X41688551Y-93980000D01*
X41766863Y-93980000D01*
X41767600Y-94211100D01*
X41805700Y-94249200D01*
X42164200Y-94249200D01*
X42164200Y-93865700D01*
X42265800Y-93865700D01*
X42265800Y-94249200D01*
X42624300Y-94249200D01*
X42662400Y-94211100D01*
X42662666Y-94127500D01*
X42736863Y-94127500D01*
X42736863Y-94472500D01*
X42742640Y-94531151D01*
X42759748Y-94587549D01*
X42787529Y-94639525D01*
X42824918Y-94685082D01*
X42870475Y-94722471D01*
X42922451Y-94750252D01*
X42978849Y-94767360D01*
X43037500Y-94773137D01*
X43227085Y-94773137D01*
X43281468Y-94827519D01*
X43258900Y-94827600D01*
X43220800Y-94865700D01*
X43220800Y-95249200D01*
X43579300Y-95249200D01*
X43617400Y-95211100D01*
X43617551Y-95163604D01*
X43846863Y-95392916D01*
X43846863Y-95550000D01*
X43849805Y-95579876D01*
X43858520Y-95608603D01*
X43872671Y-95635078D01*
X43891716Y-95658284D01*
X43914922Y-95677329D01*
X43941397Y-95691480D01*
X43970124Y-95700195D01*
X44000000Y-95703137D01*
X44500000Y-95703137D01*
X44529876Y-95700195D01*
X44558603Y-95691480D01*
X44585078Y-95677329D01*
X44608284Y-95658284D01*
X44613113Y-95652400D01*
X44786887Y-95652400D01*
X44791716Y-95658284D01*
X44814922Y-95677329D01*
X44841397Y-95691480D01*
X44870124Y-95700195D01*
X44900000Y-95703137D01*
X45400000Y-95703137D01*
X45429876Y-95700195D01*
X45458603Y-95691480D01*
X45485078Y-95677329D01*
X45508284Y-95658284D01*
X45527329Y-95635078D01*
X45541480Y-95608603D01*
X45542634Y-95604800D01*
X45585042Y-95604800D01*
X45600000Y-95606273D01*
X45614958Y-95604800D01*
X45614966Y-95604800D01*
X45659751Y-95600389D01*
X45717206Y-95582960D01*
X45770157Y-95554658D01*
X45816568Y-95516568D01*
X45826112Y-95504939D01*
X46057744Y-95273308D01*
X46110083Y-95262897D01*
X46178766Y-95234447D01*
X46240578Y-95193146D01*
X46293146Y-95140578D01*
X46334447Y-95078766D01*
X46362897Y-95010083D01*
X46377400Y-94937171D01*
X46377400Y-94862829D01*
X46362897Y-94789917D01*
X46334447Y-94721234D01*
X46293146Y-94659422D01*
X46240578Y-94606854D01*
X46178766Y-94565553D01*
X46110083Y-94537103D01*
X46037171Y-94522600D01*
X45962829Y-94522600D01*
X45889917Y-94537103D01*
X45821234Y-94565553D01*
X45759422Y-94606854D01*
X45706854Y-94659422D01*
X45665553Y-94721234D01*
X45637103Y-94789917D01*
X45626692Y-94842256D01*
X45516825Y-94952123D01*
X45508284Y-94941716D01*
X45485078Y-94922671D01*
X45458603Y-94908520D01*
X45429876Y-94899805D01*
X45400000Y-94896863D01*
X44900000Y-94896863D01*
X44870124Y-94899805D01*
X44841397Y-94908520D01*
X44814922Y-94922671D01*
X44791716Y-94941716D01*
X44786887Y-94947600D01*
X44613113Y-94947600D01*
X44608284Y-94941716D01*
X44598016Y-94933289D01*
X44634447Y-94878766D01*
X44662897Y-94810083D01*
X44677400Y-94737171D01*
X44677400Y-94662829D01*
X44662897Y-94589917D01*
X44634447Y-94521234D01*
X44593146Y-94459422D01*
X44540578Y-94406854D01*
X44478766Y-94365553D01*
X44410083Y-94337103D01*
X44357744Y-94326692D01*
X44126112Y-94095061D01*
X44116568Y-94083432D01*
X44070157Y-94045342D01*
X44017206Y-94017040D01*
X43959751Y-93999611D01*
X43914966Y-93995200D01*
X43914958Y-93995200D01*
X43900000Y-93993727D01*
X43885042Y-93995200D01*
X43601031Y-93995200D01*
X43582471Y-93960475D01*
X43545082Y-93914918D01*
X43499525Y-93877529D01*
X43447549Y-93849748D01*
X43391151Y-93832640D01*
X43332500Y-93826863D01*
X43037500Y-93826863D01*
X42978849Y-93832640D01*
X42922451Y-93849748D01*
X42870475Y-93877529D01*
X42824918Y-93914918D01*
X42787529Y-93960475D01*
X42759748Y-94012451D01*
X42742640Y-94068849D01*
X42736863Y-94127500D01*
X42662666Y-94127500D01*
X42663137Y-93980000D01*
X42660195Y-93950124D01*
X42651480Y-93921397D01*
X42637329Y-93894922D01*
X42618284Y-93871716D01*
X42595078Y-93852671D01*
X42568603Y-93838520D01*
X42539876Y-93829805D01*
X42510000Y-93826863D01*
X42303900Y-93827600D01*
X42265800Y-93865700D01*
X42164200Y-93865700D01*
X42126100Y-93827600D01*
X41920000Y-93826863D01*
X41890124Y-93829805D01*
X41861397Y-93838520D01*
X41834922Y-93852671D01*
X41811716Y-93871716D01*
X41792671Y-93894922D01*
X41778520Y-93921397D01*
X41769805Y-93950124D01*
X41766863Y-93980000D01*
X41688551Y-93980000D01*
X42044751Y-93623801D01*
X42116321Y-93645511D01*
X42193750Y-93653137D01*
X42681250Y-93653137D01*
X42758679Y-93645511D01*
X42833132Y-93622926D01*
X42901749Y-93586249D01*
X42961891Y-93536891D01*
X43011249Y-93476749D01*
X43047926Y-93408132D01*
X43070511Y-93333679D01*
X43078137Y-93256250D01*
X43078137Y-92343750D01*
X43070511Y-92266321D01*
X43047926Y-92191868D01*
X43011249Y-92123251D01*
X42961891Y-92063109D01*
X42901749Y-92013751D01*
X42833132Y-91977074D01*
X42758679Y-91954489D01*
X42681250Y-91946863D01*
X42193750Y-91946863D01*
X42116321Y-91954489D01*
X42041868Y-91977074D01*
X41973251Y-92013751D01*
X41913109Y-92063109D01*
X41863751Y-92123251D01*
X41827074Y-92191868D01*
X41804489Y-92266321D01*
X41796863Y-92343750D01*
X41796863Y-93009585D01*
X40980057Y-93826392D01*
X40968689Y-93835722D01*
X40922451Y-93849748D01*
X40870475Y-93877529D01*
X40824918Y-93914918D01*
X40787529Y-93960475D01*
X40759748Y-94012451D01*
X40742640Y-94068849D01*
X40736863Y-94127500D01*
X40736863Y-94472500D01*
X40742640Y-94531151D01*
X40750590Y-94557358D01*
X40737103Y-94589917D01*
X40722600Y-94662829D01*
X40722600Y-94737171D01*
X40737103Y-94810083D01*
X40744054Y-94826863D01*
X40655946Y-94826863D01*
X40662897Y-94810083D01*
X40677400Y-94737171D01*
X40677400Y-94662829D01*
X40662897Y-94589917D01*
X40649410Y-94557358D01*
X40657360Y-94531151D01*
X40663137Y-94472500D01*
X40663137Y-94127500D01*
X40657360Y-94068849D01*
X40640252Y-94012451D01*
X40612471Y-93960475D01*
X40575082Y-93914918D01*
X40529525Y-93877529D01*
X40519800Y-93872331D01*
X40519800Y-93653137D01*
X40806250Y-93653137D01*
X40883679Y-93645511D01*
X40958132Y-93622926D01*
X41026749Y-93586249D01*
X41086891Y-93536891D01*
X41136249Y-93476749D01*
X41172926Y-93408132D01*
X41195511Y-93333679D01*
X41203137Y-93256250D01*
X41203137Y-92343750D01*
X41195511Y-92266321D01*
X41172926Y-92191868D01*
X41136249Y-92123251D01*
X41086891Y-92063109D01*
X41026749Y-92013751D01*
X40958132Y-91977074D01*
X40883679Y-91954489D01*
X40806250Y-91946863D01*
X40318750Y-91946863D01*
X40241321Y-91954489D01*
X40166868Y-91977074D01*
X40098251Y-92013751D01*
X40038109Y-92063109D01*
X39988751Y-92123251D01*
X39952074Y-92191868D01*
X39929489Y-92266321D01*
X39921863Y-92343750D01*
X39921863Y-93063843D01*
X39914611Y-93087749D01*
X39908727Y-93147500D01*
X39910201Y-93162468D01*
X39910200Y-93872331D01*
X39900475Y-93877529D01*
X39854918Y-93914918D01*
X39817529Y-93960475D01*
X39789748Y-94012451D01*
X39772640Y-94068849D01*
X39766863Y-94127500D01*
X39766863Y-94472500D01*
X39772640Y-94531151D01*
X39789748Y-94587549D01*
X39817529Y-94639525D01*
X39854918Y-94685082D01*
X39900475Y-94722471D01*
X39922600Y-94734297D01*
X39922600Y-94737171D01*
X39937103Y-94810083D01*
X39944054Y-94826863D01*
X39667500Y-94826863D01*
X39608849Y-94832640D01*
X39552451Y-94849748D01*
X39500475Y-94877529D01*
X39454918Y-94914918D01*
X39417529Y-94960475D01*
X39389748Y-95012451D01*
X39372640Y-95068849D01*
X39366863Y-95127500D01*
X39366863Y-95472500D01*
X39372640Y-95531151D01*
X39389748Y-95587549D01*
X39417529Y-95639525D01*
X39454918Y-95685082D01*
X39500475Y-95722471D01*
X39510201Y-95727669D01*
X39510200Y-95872331D01*
X39500475Y-95877529D01*
X39454918Y-95914918D01*
X39445840Y-95925979D01*
X39389917Y-95937103D01*
X39321234Y-95965553D01*
X39259422Y-96006854D01*
X39206854Y-96059422D01*
X39165553Y-96121234D01*
X39137103Y-96189917D01*
X39122600Y-96262829D01*
X31177400Y-96262829D01*
X31177400Y-91360367D01*
X44097600Y-91360367D01*
X44097600Y-91439633D01*
X44113064Y-91517376D01*
X44143398Y-91590608D01*
X44187436Y-91656515D01*
X44243485Y-91712564D01*
X44309392Y-91756602D01*
X44382624Y-91786936D01*
X44460367Y-91802400D01*
X44539633Y-91802400D01*
X44617376Y-91786936D01*
X44690608Y-91756602D01*
X44756515Y-91712564D01*
X44812564Y-91656515D01*
X44856602Y-91590608D01*
X44886936Y-91517376D01*
X44902400Y-91439633D01*
X44902400Y-91360367D01*
X44886936Y-91282624D01*
X44856602Y-91209392D01*
X44812564Y-91143485D01*
X44756515Y-91087436D01*
X44690608Y-91043398D01*
X44617376Y-91013064D01*
X44539633Y-90997600D01*
X44460367Y-90997600D01*
X44382624Y-91013064D01*
X44309392Y-91043398D01*
X44243485Y-91087436D01*
X44187436Y-91143485D01*
X44143398Y-91209392D01*
X44113064Y-91282624D01*
X44097600Y-91360367D01*
X31177400Y-91360367D01*
X31177400Y-87160367D01*
X41597600Y-87160367D01*
X41597600Y-87239633D01*
X41613064Y-87317376D01*
X41643398Y-87390608D01*
X41687436Y-87456515D01*
X41743485Y-87512564D01*
X41799511Y-87550000D01*
X41743485Y-87587436D01*
X41687436Y-87643485D01*
X41643398Y-87709392D01*
X41613064Y-87782624D01*
X41597600Y-87860367D01*
X41597600Y-87939633D01*
X41613064Y-88017376D01*
X41643398Y-88090608D01*
X41687436Y-88156515D01*
X41743485Y-88212564D01*
X41799511Y-88250000D01*
X41743485Y-88287436D01*
X41687436Y-88343485D01*
X41643398Y-88409392D01*
X41613064Y-88482624D01*
X41597600Y-88560367D01*
X41597600Y-88639633D01*
X41613064Y-88717376D01*
X41643398Y-88790608D01*
X41687436Y-88856515D01*
X41743485Y-88912564D01*
X41809392Y-88956602D01*
X41882624Y-88986936D01*
X41960367Y-89002400D01*
X42039633Y-89002400D01*
X42117376Y-88986936D01*
X42190608Y-88956602D01*
X42256515Y-88912564D01*
X42312564Y-88856515D01*
X42350000Y-88800489D01*
X42387436Y-88856515D01*
X42443485Y-88912564D01*
X42509392Y-88956602D01*
X42582624Y-88986936D01*
X42660367Y-89002400D01*
X42739633Y-89002400D01*
X42817376Y-88986936D01*
X42890608Y-88956602D01*
X42956515Y-88912564D01*
X43012564Y-88856515D01*
X43050000Y-88800489D01*
X43087436Y-88856515D01*
X43143485Y-88912564D01*
X43209392Y-88956602D01*
X43282624Y-88986936D01*
X43360367Y-89002400D01*
X43439633Y-89002400D01*
X43517376Y-88986936D01*
X43590608Y-88956602D01*
X43656515Y-88912564D01*
X43712564Y-88856515D01*
X43756602Y-88790608D01*
X43786936Y-88717376D01*
X43802400Y-88639633D01*
X43802400Y-88560367D01*
X43786936Y-88482624D01*
X43756602Y-88409392D01*
X43712564Y-88343485D01*
X43656515Y-88287436D01*
X43600489Y-88250000D01*
X43656515Y-88212564D01*
X43712564Y-88156515D01*
X43756602Y-88090608D01*
X43786936Y-88017376D01*
X43802400Y-87939633D01*
X43802400Y-87860367D01*
X43786936Y-87782624D01*
X43756602Y-87709392D01*
X43712564Y-87643485D01*
X43656515Y-87587436D01*
X43600489Y-87550000D01*
X43656515Y-87512564D01*
X43712564Y-87456515D01*
X43756602Y-87390608D01*
X43786936Y-87317376D01*
X43802400Y-87239633D01*
X43802400Y-87160367D01*
X43786936Y-87082624D01*
X43756602Y-87009392D01*
X43712564Y-86943485D01*
X43656515Y-86887436D01*
X43590608Y-86843398D01*
X43517376Y-86813064D01*
X43439633Y-86797600D01*
X43360367Y-86797600D01*
X43282624Y-86813064D01*
X43209392Y-86843398D01*
X43143485Y-86887436D01*
X43087436Y-86943485D01*
X43050000Y-86999511D01*
X43012564Y-86943485D01*
X42956515Y-86887436D01*
X42890608Y-86843398D01*
X42817376Y-86813064D01*
X42739633Y-86797600D01*
X42660367Y-86797600D01*
X42582624Y-86813064D01*
X42509392Y-86843398D01*
X42443485Y-86887436D01*
X42387436Y-86943485D01*
X42350000Y-86999511D01*
X42312564Y-86943485D01*
X42256515Y-86887436D01*
X42190608Y-86843398D01*
X42117376Y-86813064D01*
X42039633Y-86797600D01*
X41960367Y-86797600D01*
X41882624Y-86813064D01*
X41809392Y-86843398D01*
X41743485Y-86887436D01*
X41687436Y-86943485D01*
X41643398Y-87009392D01*
X41613064Y-87082624D01*
X41597600Y-87160367D01*
X31177400Y-87160367D01*
X31177400Y-85460367D01*
X47497600Y-85460367D01*
X47497600Y-85539633D01*
X47513064Y-85617376D01*
X47543398Y-85690608D01*
X47587436Y-85756515D01*
X47643485Y-85812564D01*
X47709392Y-85856602D01*
X47782624Y-85886936D01*
X47860367Y-85902400D01*
X47939633Y-85902400D01*
X48017376Y-85886936D01*
X48090608Y-85856602D01*
X48156515Y-85812564D01*
X48212564Y-85756515D01*
X48250000Y-85700489D01*
X48287436Y-85756515D01*
X48343485Y-85812564D01*
X48409392Y-85856602D01*
X48482624Y-85886936D01*
X48560367Y-85902400D01*
X48639633Y-85902400D01*
X48717376Y-85886936D01*
X48790608Y-85856602D01*
X48856515Y-85812564D01*
X48912564Y-85756515D01*
X48950000Y-85700489D01*
X48987436Y-85756515D01*
X49043485Y-85812564D01*
X49109392Y-85856602D01*
X49182624Y-85886936D01*
X49260367Y-85902400D01*
X49339633Y-85902400D01*
X49417376Y-85886936D01*
X49490608Y-85856602D01*
X49556515Y-85812564D01*
X49612564Y-85756515D01*
X49656602Y-85690608D01*
X49686936Y-85617376D01*
X49702400Y-85539633D01*
X49702400Y-85460367D01*
X49686936Y-85382624D01*
X49656602Y-85309392D01*
X49612564Y-85243485D01*
X49556515Y-85187436D01*
X49490608Y-85143398D01*
X49417376Y-85113064D01*
X49339633Y-85097600D01*
X49260367Y-85097600D01*
X49182624Y-85113064D01*
X49109392Y-85143398D01*
X49043485Y-85187436D01*
X48987436Y-85243485D01*
X48950000Y-85299511D01*
X48912564Y-85243485D01*
X48856515Y-85187436D01*
X48790608Y-85143398D01*
X48717376Y-85113064D01*
X48639633Y-85097600D01*
X48560367Y-85097600D01*
X48482624Y-85113064D01*
X48409392Y-85143398D01*
X48343485Y-85187436D01*
X48287436Y-85243485D01*
X48250000Y-85299511D01*
X48212564Y-85243485D01*
X48156515Y-85187436D01*
X48090608Y-85143398D01*
X48017376Y-85113064D01*
X47939633Y-85097600D01*
X47860367Y-85097600D01*
X47782624Y-85113064D01*
X47709392Y-85143398D01*
X47643485Y-85187436D01*
X47587436Y-85243485D01*
X47543398Y-85309392D01*
X47513064Y-85382624D01*
X47497600Y-85460367D01*
X31177400Y-85460367D01*
X31177400Y-83960367D01*
X44197600Y-83960367D01*
X44197600Y-84039633D01*
X44213064Y-84117376D01*
X44243398Y-84190608D01*
X44287436Y-84256515D01*
X44343485Y-84312564D01*
X44409392Y-84356602D01*
X44482624Y-84386936D01*
X44560367Y-84402400D01*
X44639633Y-84402400D01*
X44717376Y-84386936D01*
X44790608Y-84356602D01*
X44856515Y-84312564D01*
X44912564Y-84256515D01*
X44956602Y-84190608D01*
X44986936Y-84117376D01*
X45002400Y-84039633D01*
X45002400Y-83960367D01*
X44986936Y-83882624D01*
X44956602Y-83809392D01*
X44912564Y-83743485D01*
X44856515Y-83687436D01*
X44790608Y-83643398D01*
X44717376Y-83613064D01*
X44639633Y-83597600D01*
X44560367Y-83597600D01*
X44482624Y-83613064D01*
X44409392Y-83643398D01*
X44343485Y-83687436D01*
X44287436Y-83743485D01*
X44243398Y-83809392D01*
X44213064Y-83882624D01*
X44197600Y-83960367D01*
X31177400Y-83960367D01*
X31177400Y-83008673D01*
X31193900Y-82840392D01*
X31240256Y-82686854D01*
X31315548Y-82545250D01*
X31416910Y-82420968D01*
X31540484Y-82318739D01*
X31681561Y-82242459D01*
X31834762Y-82195035D01*
X32002544Y-82177400D01*
X50991327Y-82177400D01*
X51159608Y-82193900D01*
G04 #@! TA.AperFunction,Conductor*
D21*
G36*
X51159608Y-82193900D02*
G01*
X51313146Y-82240256D01*
X51454750Y-82315548D01*
X51579032Y-82416910D01*
X51681261Y-82540484D01*
X51757541Y-82681561D01*
X51804965Y-82834762D01*
X51822600Y-83002544D01*
X51822601Y-112991317D01*
X51806099Y-113159612D01*
X51759744Y-113313146D01*
X51684452Y-113454750D01*
X51583092Y-113579030D01*
X51459518Y-113681260D01*
X51318440Y-113757541D01*
X51165238Y-113804965D01*
X50997456Y-113822600D01*
X32008673Y-113822600D01*
X31840388Y-113806099D01*
X31686854Y-113759744D01*
X31545250Y-113684452D01*
X31420970Y-113583092D01*
X31318740Y-113459518D01*
X31242459Y-113318440D01*
X31195035Y-113165238D01*
X31177400Y-112997456D01*
X31177400Y-111441272D01*
X31747600Y-111441272D01*
X31747600Y-111638728D01*
X31786122Y-111832389D01*
X31861685Y-112014814D01*
X31971385Y-112178993D01*
X32111007Y-112318615D01*
X32275186Y-112428315D01*
X32457611Y-112503878D01*
X32651272Y-112542400D01*
X32848728Y-112542400D01*
X33042389Y-112503878D01*
X33224814Y-112428315D01*
X33388993Y-112318615D01*
X33528615Y-112178993D01*
X33638315Y-112014814D01*
X33713878Y-111832389D01*
X33752400Y-111638728D01*
X33752400Y-111441272D01*
X34287600Y-111441272D01*
X34287600Y-111638728D01*
X34326122Y-111832389D01*
X34401685Y-112014814D01*
X34511385Y-112178993D01*
X34651007Y-112318615D01*
X34815186Y-112428315D01*
X34997611Y-112503878D01*
X35191272Y-112542400D01*
X35388728Y-112542400D01*
X35582389Y-112503878D01*
X35764814Y-112428315D01*
X35928993Y-112318615D01*
X36068615Y-112178993D01*
X36178315Y-112014814D01*
X36253878Y-111832389D01*
X36292400Y-111638728D01*
X36292400Y-111441272D01*
X36253878Y-111247611D01*
X36178315Y-111065186D01*
X36068615Y-110901007D01*
X35928993Y-110761385D01*
X35764814Y-110651685D01*
X35582389Y-110576122D01*
X35388728Y-110537600D01*
X35191272Y-110537600D01*
X34997611Y-110576122D01*
X34815186Y-110651685D01*
X34651007Y-110761385D01*
X34511385Y-110901007D01*
X34401685Y-111065186D01*
X34326122Y-111247611D01*
X34287600Y-111441272D01*
X33752400Y-111441272D01*
X33713878Y-111247611D01*
X33638315Y-111065186D01*
X33528615Y-110901007D01*
X33388993Y-110761385D01*
X33224814Y-110651685D01*
X33042389Y-110576122D01*
X32848728Y-110537600D01*
X32651272Y-110537600D01*
X32457611Y-110576122D01*
X32275186Y-110651685D01*
X32111007Y-110761385D01*
X31971385Y-110901007D01*
X31861685Y-111065186D01*
X31786122Y-111247611D01*
X31747600Y-111441272D01*
X31177400Y-111441272D01*
X31177400Y-108150000D01*
X31746863Y-108150000D01*
X31746863Y-109850000D01*
X31749805Y-109879876D01*
X31758520Y-109908603D01*
X31772671Y-109935078D01*
X31791716Y-109958284D01*
X31814922Y-109977329D01*
X31841397Y-109991480D01*
X31870124Y-110000195D01*
X31900000Y-110003137D01*
X33600000Y-110003137D01*
X33629876Y-110000195D01*
X33658603Y-109991480D01*
X33685078Y-109977329D01*
X33708284Y-109958284D01*
X33727329Y-109935078D01*
X33741480Y-109908603D01*
X33750195Y-109879876D01*
X33753137Y-109850000D01*
X33753137Y-108901272D01*
X34287600Y-108901272D01*
X34287600Y-109098728D01*
X34326122Y-109292389D01*
X34401685Y-109474814D01*
X34511385Y-109638993D01*
X34651007Y-109778615D01*
X34815186Y-109888315D01*
X34997611Y-109963878D01*
X35191272Y-110002400D01*
X35388728Y-110002400D01*
X35582389Y-109963878D01*
X35764814Y-109888315D01*
X35928993Y-109778615D01*
X36068615Y-109638993D01*
X36178315Y-109474814D01*
X36253878Y-109292389D01*
X36292400Y-109098728D01*
X36292400Y-108901272D01*
X36253878Y-108707611D01*
X36178315Y-108525186D01*
X36068615Y-108361007D01*
X35928993Y-108221385D01*
X35764814Y-108111685D01*
X35582389Y-108036122D01*
X35388728Y-107997600D01*
X35191272Y-107997600D01*
X34997611Y-108036122D01*
X34815186Y-108111685D01*
X34651007Y-108221385D01*
X34511385Y-108361007D01*
X34401685Y-108525186D01*
X34326122Y-108707611D01*
X34287600Y-108901272D01*
X33753137Y-108901272D01*
X33753137Y-108150000D01*
X33750195Y-108120124D01*
X33741480Y-108091397D01*
X33727329Y-108064922D01*
X33708284Y-108041716D01*
X33685078Y-108022671D01*
X33658603Y-108008520D01*
X33629876Y-107999805D01*
X33600000Y-107996863D01*
X31900000Y-107996863D01*
X31870124Y-107999805D01*
X31841397Y-108008520D01*
X31814922Y-108022671D01*
X31791716Y-108041716D01*
X31772671Y-108064922D01*
X31758520Y-108091397D01*
X31749805Y-108120124D01*
X31746863Y-108150000D01*
X31177400Y-108150000D01*
X31177400Y-104460367D01*
X34897600Y-104460367D01*
X34897600Y-104539633D01*
X34913064Y-104617376D01*
X34943398Y-104690608D01*
X34987436Y-104756515D01*
X35043485Y-104812564D01*
X35109392Y-104856602D01*
X35182624Y-104886936D01*
X35260367Y-104902400D01*
X35325230Y-104902400D01*
X36520676Y-106097847D01*
X36520682Y-106097852D01*
X37563301Y-107140471D01*
X37563300Y-108031012D01*
X37537611Y-108036122D01*
X37355186Y-108111685D01*
X37191007Y-108221385D01*
X37051385Y-108361007D01*
X36941685Y-108525186D01*
X36866122Y-108707611D01*
X36842700Y-108825360D01*
X36842700Y-107566579D01*
X36888564Y-107520715D01*
X36932602Y-107454808D01*
X36962936Y-107381576D01*
X36978400Y-107303833D01*
X36978400Y-107224567D01*
X36962936Y-107146824D01*
X36932602Y-107073592D01*
X36888564Y-107007685D01*
X36832515Y-106951636D01*
X36766608Y-106907598D01*
X36693376Y-106877264D01*
X36615633Y-106861800D01*
X36536367Y-106861800D01*
X36458624Y-106877264D01*
X36385392Y-106907598D01*
X36319485Y-106951636D01*
X36263436Y-107007685D01*
X36219398Y-107073592D01*
X36189064Y-107146824D01*
X36173600Y-107224567D01*
X36173600Y-107303833D01*
X36189064Y-107381576D01*
X36219398Y-107454808D01*
X36263436Y-107520715D01*
X36309301Y-107566580D01*
X36309300Y-110272904D01*
X36308010Y-110286000D01*
X36309300Y-110299096D01*
X36309300Y-110299097D01*
X36313159Y-110338281D01*
X36328410Y-110388554D01*
X36353174Y-110434887D01*
X36386502Y-110475498D01*
X36396684Y-110483854D01*
X36956237Y-111043407D01*
X36941685Y-111065186D01*
X36866122Y-111247611D01*
X36827600Y-111441272D01*
X36827600Y-111638728D01*
X36866122Y-111832389D01*
X36941685Y-112014814D01*
X37051385Y-112178993D01*
X37191007Y-112318615D01*
X37355186Y-112428315D01*
X37537611Y-112503878D01*
X37731272Y-112542400D01*
X37928728Y-112542400D01*
X38122389Y-112503878D01*
X38304814Y-112428315D01*
X38468993Y-112318615D01*
X38608615Y-112178993D01*
X38718315Y-112014814D01*
X38793878Y-111832389D01*
X38832400Y-111638728D01*
X38832400Y-111441272D01*
X38793878Y-111247611D01*
X38718315Y-111065186D01*
X38608615Y-110901007D01*
X38468993Y-110761385D01*
X38304814Y-110651685D01*
X38122389Y-110576122D01*
X37928728Y-110537600D01*
X37731272Y-110537600D01*
X37537611Y-110576122D01*
X37355186Y-110651685D01*
X37333407Y-110666237D01*
X36842700Y-110175530D01*
X36842700Y-109174640D01*
X36866122Y-109292389D01*
X36941685Y-109474814D01*
X37051385Y-109638993D01*
X37191007Y-109778615D01*
X37355186Y-109888315D01*
X37537611Y-109963878D01*
X37731272Y-110002400D01*
X37928728Y-110002400D01*
X38122389Y-109963878D01*
X38304814Y-109888315D01*
X38468993Y-109778615D01*
X38608615Y-109638993D01*
X38718315Y-109474814D01*
X38793878Y-109292389D01*
X38832400Y-109098728D01*
X38832400Y-108901272D01*
X38793878Y-108707611D01*
X38718315Y-108525186D01*
X38608615Y-108361007D01*
X38468993Y-108221385D01*
X38304814Y-108111685D01*
X38122389Y-108036122D01*
X38096700Y-108031012D01*
X38096700Y-107043095D01*
X38097990Y-107029999D01*
X38096671Y-107016610D01*
X38092841Y-106977718D01*
X38077590Y-106927445D01*
X38052826Y-106881113D01*
X38019498Y-106840502D01*
X38009316Y-106832146D01*
X37537537Y-106360367D01*
X38197600Y-106360367D01*
X38197600Y-106439633D01*
X38213064Y-106517376D01*
X38243398Y-106590608D01*
X38287436Y-106656515D01*
X38343485Y-106712564D01*
X38409392Y-106756602D01*
X38482624Y-106786936D01*
X38560367Y-106802400D01*
X38625230Y-106802400D01*
X38849300Y-107026470D01*
X38849300Y-107129097D01*
X38849301Y-107129107D01*
X38849300Y-110272904D01*
X38848010Y-110286000D01*
X38849300Y-110299096D01*
X38849300Y-110299097D01*
X38853159Y-110338281D01*
X38868410Y-110388554D01*
X38893174Y-110434887D01*
X38926502Y-110475498D01*
X38936684Y-110483854D01*
X39496237Y-111043407D01*
X39481685Y-111065186D01*
X39406122Y-111247611D01*
X39367600Y-111441272D01*
X39367600Y-111638728D01*
X39406122Y-111832389D01*
X39481685Y-112014814D01*
X39591385Y-112178993D01*
X39731007Y-112318615D01*
X39895186Y-112428315D01*
X40077611Y-112503878D01*
X40271272Y-112542400D01*
X40468728Y-112542400D01*
X40662389Y-112503878D01*
X40844814Y-112428315D01*
X41008993Y-112318615D01*
X41148615Y-112178993D01*
X41258315Y-112014814D01*
X41333878Y-111832389D01*
X41372400Y-111638728D01*
X41372400Y-111441272D01*
X41907600Y-111441272D01*
X41907600Y-111638728D01*
X41946122Y-111832389D01*
X42021685Y-112014814D01*
X42131385Y-112178993D01*
X42271007Y-112318615D01*
X42435186Y-112428315D01*
X42617611Y-112503878D01*
X42811272Y-112542400D01*
X43008728Y-112542400D01*
X43202389Y-112503878D01*
X43384814Y-112428315D01*
X43548993Y-112318615D01*
X43688615Y-112178993D01*
X43798315Y-112014814D01*
X43873878Y-111832389D01*
X43912400Y-111638728D01*
X43912400Y-111441272D01*
X44447600Y-111441272D01*
X44447600Y-111638728D01*
X44486122Y-111832389D01*
X44561685Y-112014814D01*
X44671385Y-112178993D01*
X44811007Y-112318615D01*
X44975186Y-112428315D01*
X45157611Y-112503878D01*
X45351272Y-112542400D01*
X45548728Y-112542400D01*
X45742389Y-112503878D01*
X45924814Y-112428315D01*
X46088993Y-112318615D01*
X46228615Y-112178993D01*
X46338315Y-112014814D01*
X46413878Y-111832389D01*
X46430906Y-111746783D01*
X47009157Y-111746783D01*
X47068345Y-111934163D01*
X47162952Y-112106395D01*
X47289342Y-112256861D01*
X47442658Y-112379778D01*
X47617008Y-112470423D01*
X47783217Y-112520840D01*
X47939200Y-112502961D01*
X47939200Y-111590800D01*
X48040800Y-111590800D01*
X48040800Y-112502961D01*
X48196783Y-112520840D01*
X48362992Y-112470423D01*
X48537342Y-112379778D01*
X48690658Y-112256861D01*
X48817048Y-112106395D01*
X48911655Y-111934163D01*
X48970843Y-111746783D01*
X48953015Y-111590800D01*
X48040800Y-111590800D01*
X47939200Y-111590800D01*
X47026985Y-111590800D01*
X47009157Y-111746783D01*
X46430906Y-111746783D01*
X46452400Y-111638728D01*
X46452400Y-111441272D01*
X46430907Y-111333217D01*
X47009157Y-111333217D01*
X47026985Y-111489200D01*
X47939200Y-111489200D01*
X47939200Y-110577039D01*
X48040800Y-110577039D01*
X48040800Y-111489200D01*
X48953015Y-111489200D01*
X48958492Y-111441272D01*
X49527600Y-111441272D01*
X49527600Y-111638728D01*
X49566122Y-111832389D01*
X49641685Y-112014814D01*
X49751385Y-112178993D01*
X49891007Y-112318615D01*
X50055186Y-112428315D01*
X50237611Y-112503878D01*
X50431272Y-112542400D01*
X50628728Y-112542400D01*
X50822389Y-112503878D01*
X51004814Y-112428315D01*
X51168993Y-112318615D01*
X51308615Y-112178993D01*
X51418315Y-112014814D01*
X51493878Y-111832389D01*
X51532400Y-111638728D01*
X51532400Y-111441272D01*
X51493878Y-111247611D01*
X51418315Y-111065186D01*
X51308615Y-110901007D01*
X51168993Y-110761385D01*
X51004814Y-110651685D01*
X50822389Y-110576122D01*
X50628728Y-110537600D01*
X50431272Y-110537600D01*
X50237611Y-110576122D01*
X50055186Y-110651685D01*
X49891007Y-110761385D01*
X49751385Y-110901007D01*
X49641685Y-111065186D01*
X49566122Y-111247611D01*
X49527600Y-111441272D01*
X48958492Y-111441272D01*
X48970843Y-111333217D01*
X48911655Y-111145837D01*
X48817048Y-110973605D01*
X48690658Y-110823139D01*
X48537342Y-110700222D01*
X48362992Y-110609577D01*
X48196783Y-110559160D01*
X48040800Y-110577039D01*
X47939200Y-110577039D01*
X47783217Y-110559160D01*
X47617008Y-110609577D01*
X47442658Y-110700222D01*
X47289342Y-110823139D01*
X47162952Y-110973605D01*
X47068345Y-111145837D01*
X47009157Y-111333217D01*
X46430907Y-111333217D01*
X46413878Y-111247611D01*
X46338315Y-111065186D01*
X46228615Y-110901007D01*
X46088993Y-110761385D01*
X45924814Y-110651685D01*
X45742389Y-110576122D01*
X45548728Y-110537600D01*
X45351272Y-110537600D01*
X45157611Y-110576122D01*
X44975186Y-110651685D01*
X44811007Y-110761385D01*
X44671385Y-110901007D01*
X44561685Y-111065186D01*
X44486122Y-111247611D01*
X44447600Y-111441272D01*
X43912400Y-111441272D01*
X43873878Y-111247611D01*
X43798315Y-111065186D01*
X43688615Y-110901007D01*
X43548993Y-110761385D01*
X43384814Y-110651685D01*
X43202389Y-110576122D01*
X43008728Y-110537600D01*
X42811272Y-110537600D01*
X42617611Y-110576122D01*
X42435186Y-110651685D01*
X42271007Y-110761385D01*
X42131385Y-110901007D01*
X42021685Y-111065186D01*
X41946122Y-111247611D01*
X41907600Y-111441272D01*
X41372400Y-111441272D01*
X41333878Y-111247611D01*
X41258315Y-111065186D01*
X41148615Y-110901007D01*
X41008993Y-110761385D01*
X40844814Y-110651685D01*
X40662389Y-110576122D01*
X40468728Y-110537600D01*
X40271272Y-110537600D01*
X40077611Y-110576122D01*
X39895186Y-110651685D01*
X39873407Y-110666237D01*
X39382700Y-110175530D01*
X39382700Y-109174640D01*
X39406122Y-109292389D01*
X39481685Y-109474814D01*
X39591385Y-109638993D01*
X39731007Y-109778615D01*
X39895186Y-109888315D01*
X40077611Y-109963878D01*
X40271272Y-110002400D01*
X40468728Y-110002400D01*
X40662389Y-109963878D01*
X40844814Y-109888315D01*
X41008993Y-109778615D01*
X41148615Y-109638993D01*
X41258315Y-109474814D01*
X41333878Y-109292389D01*
X41372400Y-109098728D01*
X41372400Y-108901272D01*
X41907600Y-108901272D01*
X41907600Y-109098728D01*
X41946122Y-109292389D01*
X42021685Y-109474814D01*
X42131385Y-109638993D01*
X42271007Y-109778615D01*
X42435186Y-109888315D01*
X42617611Y-109963878D01*
X42811272Y-110002400D01*
X43008728Y-110002400D01*
X43202389Y-109963878D01*
X43384814Y-109888315D01*
X43548993Y-109778615D01*
X43688615Y-109638993D01*
X43798315Y-109474814D01*
X43873878Y-109292389D01*
X43912400Y-109098728D01*
X43912400Y-108901272D01*
X43873878Y-108707611D01*
X43798315Y-108525186D01*
X43688615Y-108361007D01*
X43548993Y-108221385D01*
X43384814Y-108111685D01*
X43202389Y-108036122D01*
X43008728Y-107997600D01*
X42811272Y-107997600D01*
X42617611Y-108036122D01*
X42435186Y-108111685D01*
X42271007Y-108221385D01*
X42131385Y-108361007D01*
X42021685Y-108525186D01*
X41946122Y-108707611D01*
X41907600Y-108901272D01*
X41372400Y-108901272D01*
X41333878Y-108707611D01*
X41258315Y-108525186D01*
X41148615Y-108361007D01*
X41008993Y-108221385D01*
X40844814Y-108111685D01*
X40662389Y-108036122D01*
X40468728Y-107997600D01*
X40271272Y-107997600D01*
X40077611Y-108036122D01*
X39895186Y-108111685D01*
X39731007Y-108221385D01*
X39591385Y-108361007D01*
X39481685Y-108525186D01*
X39406122Y-108707611D01*
X39382700Y-108825360D01*
X39382700Y-106929095D01*
X39383990Y-106915999D01*
X39380554Y-106881113D01*
X39378841Y-106863719D01*
X39363590Y-106813445D01*
X39339980Y-106769272D01*
X39382624Y-106786936D01*
X39460367Y-106802400D01*
X39525230Y-106802400D01*
X40602150Y-107879321D01*
X40610502Y-107889498D01*
X40651113Y-107922826D01*
X40697445Y-107947590D01*
X40747717Y-107962841D01*
X40800000Y-107967990D01*
X40813099Y-107966700D01*
X44039530Y-107966700D01*
X44576237Y-108503407D01*
X44561685Y-108525186D01*
X44486122Y-108707611D01*
X44447600Y-108901272D01*
X44447600Y-109098728D01*
X44486122Y-109292389D01*
X44561685Y-109474814D01*
X44671385Y-109638993D01*
X44811007Y-109778615D01*
X44975186Y-109888315D01*
X45157611Y-109963878D01*
X45351272Y-110002400D01*
X45548728Y-110002400D01*
X45742389Y-109963878D01*
X45924814Y-109888315D01*
X46088993Y-109778615D01*
X46228615Y-109638993D01*
X46338315Y-109474814D01*
X46413878Y-109292389D01*
X46430906Y-109206783D01*
X47009157Y-109206783D01*
X47068345Y-109394163D01*
X47162952Y-109566395D01*
X47289342Y-109716861D01*
X47442658Y-109839778D01*
X47617008Y-109930423D01*
X47783217Y-109980840D01*
X47939200Y-109962961D01*
X47939200Y-109050800D01*
X48040800Y-109050800D01*
X48040800Y-109962961D01*
X48196783Y-109980840D01*
X48362992Y-109930423D01*
X48537342Y-109839778D01*
X48690658Y-109716861D01*
X48817048Y-109566395D01*
X48911655Y-109394163D01*
X48970843Y-109206783D01*
X48953015Y-109050800D01*
X48040800Y-109050800D01*
X47939200Y-109050800D01*
X47026985Y-109050800D01*
X47009157Y-109206783D01*
X46430906Y-109206783D01*
X46452400Y-109098728D01*
X46452400Y-108901272D01*
X46430907Y-108793217D01*
X47009157Y-108793217D01*
X47026985Y-108949200D01*
X47939200Y-108949200D01*
X47939200Y-108037039D01*
X48040800Y-108037039D01*
X48040800Y-108949200D01*
X48953015Y-108949200D01*
X48958492Y-108901272D01*
X49527600Y-108901272D01*
X49527600Y-109098728D01*
X49566122Y-109292389D01*
X49641685Y-109474814D01*
X49751385Y-109638993D01*
X49891007Y-109778615D01*
X50055186Y-109888315D01*
X50237611Y-109963878D01*
X50431272Y-110002400D01*
X50628728Y-110002400D01*
X50822389Y-109963878D01*
X51004814Y-109888315D01*
X51168993Y-109778615D01*
X51308615Y-109638993D01*
X51418315Y-109474814D01*
X51493878Y-109292389D01*
X51532400Y-109098728D01*
X51532400Y-108901272D01*
X51493878Y-108707611D01*
X51418315Y-108525186D01*
X51308615Y-108361007D01*
X51168993Y-108221385D01*
X51004814Y-108111685D01*
X50822389Y-108036122D01*
X50628728Y-107997600D01*
X50431272Y-107997600D01*
X50237611Y-108036122D01*
X50055186Y-108111685D01*
X49891007Y-108221385D01*
X49751385Y-108361007D01*
X49641685Y-108525186D01*
X49566122Y-108707611D01*
X49527600Y-108901272D01*
X48958492Y-108901272D01*
X48970843Y-108793217D01*
X48911655Y-108605837D01*
X48817048Y-108433605D01*
X48690658Y-108283139D01*
X48537342Y-108160222D01*
X48362992Y-108069577D01*
X48196783Y-108019160D01*
X48040800Y-108037039D01*
X47939200Y-108037039D01*
X47783217Y-108019160D01*
X47617008Y-108069577D01*
X47442658Y-108160222D01*
X47289342Y-108283139D01*
X47162952Y-108433605D01*
X47068345Y-108605837D01*
X47009157Y-108793217D01*
X46430907Y-108793217D01*
X46413878Y-108707611D01*
X46338315Y-108525186D01*
X46228615Y-108361007D01*
X46088993Y-108221385D01*
X45924814Y-108111685D01*
X45742389Y-108036122D01*
X45548728Y-107997600D01*
X45351272Y-107997600D01*
X45157611Y-108036122D01*
X44975186Y-108111685D01*
X44953407Y-108126237D01*
X44347854Y-107520684D01*
X44339498Y-107510502D01*
X44298887Y-107477174D01*
X44252555Y-107452410D01*
X44202282Y-107437159D01*
X44163098Y-107433300D01*
X44163096Y-107433300D01*
X44150000Y-107432010D01*
X44136904Y-107433300D01*
X42425482Y-107433300D01*
X42456515Y-107412564D01*
X42512564Y-107356515D01*
X42556602Y-107290608D01*
X42586936Y-107217376D01*
X42602400Y-107139633D01*
X42602400Y-107060367D01*
X42586936Y-106982624D01*
X42556602Y-106909392D01*
X42512564Y-106843485D01*
X42466700Y-106797621D01*
X42466700Y-103760367D01*
X42597600Y-103760367D01*
X42597600Y-103839633D01*
X42613064Y-103917376D01*
X42643398Y-103990608D01*
X42687436Y-104056515D01*
X42743485Y-104112564D01*
X42809392Y-104156602D01*
X42882624Y-104186936D01*
X42933300Y-104197016D01*
X42933301Y-105997620D01*
X42887436Y-106043485D01*
X42843398Y-106109392D01*
X42813064Y-106182624D01*
X42797600Y-106260367D01*
X42797600Y-106339633D01*
X42813064Y-106417376D01*
X42843398Y-106490608D01*
X42887436Y-106556515D01*
X42943485Y-106612564D01*
X43009392Y-106656602D01*
X43082624Y-106686936D01*
X43160367Y-106702400D01*
X43239633Y-106702400D01*
X43317376Y-106686936D01*
X43390608Y-106656602D01*
X43456515Y-106612564D01*
X43512564Y-106556515D01*
X43556602Y-106490608D01*
X43586936Y-106417376D01*
X43602400Y-106339633D01*
X43602400Y-106260367D01*
X43586936Y-106182624D01*
X43556602Y-106109392D01*
X43512564Y-106043485D01*
X43466700Y-105997621D01*
X43466700Y-104013096D01*
X43467990Y-104000000D01*
X43466700Y-103986902D01*
X43462841Y-103947718D01*
X43449140Y-103902555D01*
X43447590Y-103897444D01*
X43434353Y-103872680D01*
X43422826Y-103851113D01*
X43402400Y-103826223D01*
X43402400Y-103760367D01*
X43386936Y-103682624D01*
X43356602Y-103609392D01*
X43312564Y-103543485D01*
X43256515Y-103487436D01*
X43190608Y-103443398D01*
X43117376Y-103413064D01*
X43039633Y-103397600D01*
X42960367Y-103397600D01*
X42882624Y-103413064D01*
X42809392Y-103443398D01*
X42743485Y-103487436D01*
X42687436Y-103543485D01*
X42643398Y-103609392D01*
X42613064Y-103682624D01*
X42597600Y-103760367D01*
X42466700Y-103760367D01*
X42466700Y-103302379D01*
X42512564Y-103256515D01*
X42556602Y-103190608D01*
X42586936Y-103117376D01*
X42602400Y-103039633D01*
X42602400Y-102960367D01*
X42586936Y-102882624D01*
X42556602Y-102809392D01*
X42512564Y-102743485D01*
X42456515Y-102687436D01*
X42390608Y-102643398D01*
X42317376Y-102613064D01*
X42239633Y-102597600D01*
X42160367Y-102597600D01*
X42082624Y-102613064D01*
X42009392Y-102643398D01*
X41943485Y-102687436D01*
X41887436Y-102743485D01*
X41843398Y-102809392D01*
X41813064Y-102882624D01*
X41797600Y-102960367D01*
X41797600Y-103039633D01*
X41813064Y-103117376D01*
X41843398Y-103190608D01*
X41887436Y-103256515D01*
X41933300Y-103302379D01*
X41933301Y-106797620D01*
X41887436Y-106843485D01*
X41843398Y-106909392D01*
X41813064Y-106982624D01*
X41797600Y-107060367D01*
X41797600Y-107139633D01*
X41813064Y-107217376D01*
X41843398Y-107290608D01*
X41887436Y-107356515D01*
X41943485Y-107412564D01*
X41974518Y-107433300D01*
X40910471Y-107433300D01*
X39902400Y-106425230D01*
X39902400Y-106360367D01*
X39886936Y-106282624D01*
X39856602Y-106209392D01*
X39812564Y-106143485D01*
X39756515Y-106087436D01*
X39690608Y-106043398D01*
X39617376Y-106013064D01*
X39539633Y-105997600D01*
X39460367Y-105997600D01*
X39382624Y-106013064D01*
X39309392Y-106043398D01*
X39243485Y-106087436D01*
X39187436Y-106143485D01*
X39143398Y-106209392D01*
X39113064Y-106282624D01*
X39097600Y-106360367D01*
X39097600Y-106439633D01*
X39113064Y-106517376D01*
X39126158Y-106548988D01*
X39002400Y-106425230D01*
X39002400Y-106360367D01*
X38986936Y-106282624D01*
X38956602Y-106209392D01*
X38912564Y-106143485D01*
X38856515Y-106087436D01*
X38790608Y-106043398D01*
X38717376Y-106013064D01*
X38639633Y-105997600D01*
X38560367Y-105997600D01*
X38482624Y-106013064D01*
X38409392Y-106043398D01*
X38343485Y-106087436D01*
X38287436Y-106143485D01*
X38243398Y-106209392D01*
X38213064Y-106282624D01*
X38197600Y-106360367D01*
X37537537Y-106360367D01*
X36897852Y-105720682D01*
X36897847Y-105720676D01*
X35702400Y-104525230D01*
X35702400Y-104460367D01*
X35686936Y-104382624D01*
X35656602Y-104309392D01*
X35612564Y-104243485D01*
X35556515Y-104187436D01*
X35516004Y-104160367D01*
X37997600Y-104160367D01*
X37997600Y-104239633D01*
X38013064Y-104317376D01*
X38043398Y-104390608D01*
X38087436Y-104456515D01*
X38143485Y-104512564D01*
X38209392Y-104556602D01*
X38282624Y-104586936D01*
X38360367Y-104602400D01*
X38439633Y-104602400D01*
X38517376Y-104586936D01*
X38590608Y-104556602D01*
X38656515Y-104512564D01*
X38712564Y-104456515D01*
X38756602Y-104390608D01*
X38786936Y-104317376D01*
X38802400Y-104239633D01*
X38802400Y-104160367D01*
X38786936Y-104082624D01*
X38756602Y-104009392D01*
X38712564Y-103943485D01*
X38656515Y-103887436D01*
X38590608Y-103843398D01*
X38517376Y-103813064D01*
X38439633Y-103797600D01*
X38360367Y-103797600D01*
X38282624Y-103813064D01*
X38209392Y-103843398D01*
X38143485Y-103887436D01*
X38087436Y-103943485D01*
X38043398Y-104009392D01*
X38013064Y-104082624D01*
X37997600Y-104160367D01*
X35516004Y-104160367D01*
X35490608Y-104143398D01*
X35417376Y-104113064D01*
X35339633Y-104097600D01*
X35260367Y-104097600D01*
X35182624Y-104113064D01*
X35109392Y-104143398D01*
X35043485Y-104187436D01*
X34987436Y-104243485D01*
X34943398Y-104309392D01*
X34913064Y-104382624D01*
X34897600Y-104460367D01*
X31177400Y-104460367D01*
X31177400Y-102460367D01*
X34597600Y-102460367D01*
X34597600Y-102539633D01*
X34613064Y-102617376D01*
X34643398Y-102690608D01*
X34687436Y-102756515D01*
X34743485Y-102812564D01*
X34809392Y-102856602D01*
X34882624Y-102886936D01*
X34960367Y-102902400D01*
X35039633Y-102902400D01*
X35117376Y-102886936D01*
X35190608Y-102856602D01*
X35256515Y-102812564D01*
X35312564Y-102756515D01*
X35356602Y-102690608D01*
X35386936Y-102617376D01*
X35402400Y-102539633D01*
X35402400Y-102460367D01*
X35386936Y-102382624D01*
X35356602Y-102309392D01*
X35312564Y-102243485D01*
X35256515Y-102187436D01*
X35190608Y-102143398D01*
X35117376Y-102113064D01*
X35039633Y-102097600D01*
X34960367Y-102097600D01*
X34882624Y-102113064D01*
X34809392Y-102143398D01*
X34743485Y-102187436D01*
X34687436Y-102243485D01*
X34643398Y-102309392D01*
X34613064Y-102382624D01*
X34597600Y-102460367D01*
X31177400Y-102460367D01*
X31177400Y-100460367D01*
X34597600Y-100460367D01*
X34597600Y-100539633D01*
X34613064Y-100617376D01*
X34643398Y-100690608D01*
X34687436Y-100756515D01*
X34743485Y-100812564D01*
X34809392Y-100856602D01*
X34882624Y-100886936D01*
X34960367Y-100902400D01*
X35039633Y-100902400D01*
X35117376Y-100886936D01*
X35190608Y-100856602D01*
X35256515Y-100812564D01*
X35312564Y-100756515D01*
X35356602Y-100690608D01*
X35386936Y-100617376D01*
X35402400Y-100539633D01*
X35402400Y-100460367D01*
X35386936Y-100382624D01*
X35356602Y-100309392D01*
X35312564Y-100243485D01*
X35256515Y-100187436D01*
X35190608Y-100143398D01*
X35117376Y-100113064D01*
X35039633Y-100097600D01*
X34960367Y-100097600D01*
X34882624Y-100113064D01*
X34809392Y-100143398D01*
X34743485Y-100187436D01*
X34687436Y-100243485D01*
X34643398Y-100309392D01*
X34613064Y-100382624D01*
X34597600Y-100460367D01*
X31177400Y-100460367D01*
X31177400Y-99060367D01*
X35997598Y-99060367D01*
X35997598Y-99139633D01*
X36013062Y-99217376D01*
X36043396Y-99290608D01*
X36087434Y-99356515D01*
X36143483Y-99412564D01*
X36209390Y-99456602D01*
X36282622Y-99486936D01*
X36348300Y-99500000D01*
X36282624Y-99513064D01*
X36209392Y-99543398D01*
X36143485Y-99587436D01*
X36087436Y-99643485D01*
X36043398Y-99709392D01*
X36013064Y-99782624D01*
X35997600Y-99860367D01*
X35997600Y-99939633D01*
X36013064Y-100017376D01*
X36043398Y-100090608D01*
X36087436Y-100156515D01*
X36143485Y-100212564D01*
X36209392Y-100256602D01*
X36282624Y-100286936D01*
X36360367Y-100302400D01*
X36425230Y-100302400D01*
X36633301Y-100510472D01*
X36633300Y-102297621D01*
X36587436Y-102343485D01*
X36543398Y-102409392D01*
X36513064Y-102482624D01*
X36497600Y-102560367D01*
X36497600Y-102639633D01*
X36513064Y-102717376D01*
X36543398Y-102790608D01*
X36587436Y-102856515D01*
X36643485Y-102912564D01*
X36709392Y-102956602D01*
X36782624Y-102986936D01*
X36860367Y-103002400D01*
X36939633Y-103002400D01*
X37017376Y-102986936D01*
X37090608Y-102956602D01*
X37156515Y-102912564D01*
X37200002Y-102869077D01*
X37243489Y-102912564D01*
X37309396Y-102956602D01*
X37382628Y-102986936D01*
X37460371Y-103002400D01*
X37539637Y-103002400D01*
X37617380Y-102986936D01*
X37690612Y-102956602D01*
X37756519Y-102912564D01*
X37812568Y-102856515D01*
X37856606Y-102790608D01*
X37886940Y-102717376D01*
X37902404Y-102639633D01*
X37902404Y-102560367D01*
X37886940Y-102482624D01*
X37856606Y-102409392D01*
X37812568Y-102343485D01*
X37766704Y-102297621D01*
X37766704Y-100618750D01*
X37946863Y-100618750D01*
X37946863Y-101106250D01*
X37954489Y-101183679D01*
X37977074Y-101258132D01*
X38013751Y-101326749D01*
X38063109Y-101386891D01*
X38123251Y-101436249D01*
X38191868Y-101472926D01*
X38266321Y-101495511D01*
X38343750Y-101503137D01*
X39256250Y-101503137D01*
X39333679Y-101495511D01*
X39408132Y-101472926D01*
X39476749Y-101436249D01*
X39536891Y-101386891D01*
X39586249Y-101326749D01*
X39622926Y-101258132D01*
X39645511Y-101183679D01*
X39647121Y-101167333D01*
X39647458Y-101167300D01*
X39647466Y-101167300D01*
X39692251Y-101162889D01*
X39749706Y-101145460D01*
X39802657Y-101117158D01*
X39849068Y-101079068D01*
X39858612Y-101067439D01*
X39934719Y-100991333D01*
X39960475Y-101012471D01*
X40012451Y-101040252D01*
X40068849Y-101057360D01*
X40127500Y-101063137D01*
X40472500Y-101063137D01*
X40531151Y-101057360D01*
X40587549Y-101040252D01*
X40639525Y-101012471D01*
X40685082Y-100975082D01*
X40722471Y-100929525D01*
X40727669Y-100919800D01*
X40766511Y-100919800D01*
X40765553Y-100921234D01*
X40737103Y-100989917D01*
X40722600Y-101062829D01*
X40722600Y-101137171D01*
X40737103Y-101210083D01*
X40743477Y-101225471D01*
X40711654Y-101257295D01*
X40685082Y-101224918D01*
X40639525Y-101187529D01*
X40587549Y-101159748D01*
X40531151Y-101142640D01*
X40472500Y-101136863D01*
X40127500Y-101136863D01*
X40068849Y-101142640D01*
X40012451Y-101159748D01*
X39960475Y-101187529D01*
X39914918Y-101224918D01*
X39877529Y-101270475D01*
X39849748Y-101322451D01*
X39832640Y-101378849D01*
X39826863Y-101437500D01*
X39826863Y-101732500D01*
X39832640Y-101791151D01*
X39849748Y-101847549D01*
X39877529Y-101899525D01*
X39914918Y-101945082D01*
X39960475Y-101982471D01*
X39995201Y-102001032D01*
X39995201Y-102073747D01*
X39646149Y-102422800D01*
X39645511Y-102416321D01*
X39622926Y-102341868D01*
X39586249Y-102273251D01*
X39536891Y-102213109D01*
X39476749Y-102163751D01*
X39408132Y-102127074D01*
X39333679Y-102104489D01*
X39256250Y-102096863D01*
X38343750Y-102096863D01*
X38266321Y-102104489D01*
X38191868Y-102127074D01*
X38123251Y-102163751D01*
X38063109Y-102213109D01*
X38013751Y-102273251D01*
X37977074Y-102341868D01*
X37954489Y-102416321D01*
X37946863Y-102493750D01*
X37946863Y-102981250D01*
X37954489Y-103058679D01*
X37977074Y-103133132D01*
X38013751Y-103201749D01*
X38063109Y-103261891D01*
X38123251Y-103311249D01*
X38191868Y-103347926D01*
X38266321Y-103370511D01*
X38343750Y-103378137D01*
X39256250Y-103378137D01*
X39333679Y-103370511D01*
X39408132Y-103347926D01*
X39476749Y-103311249D01*
X39536891Y-103261891D01*
X39586249Y-103201749D01*
X39622926Y-103133132D01*
X39645511Y-103058679D01*
X39647124Y-103042300D01*
X39747542Y-103042300D01*
X39762500Y-103043773D01*
X39777458Y-103042300D01*
X39777466Y-103042300D01*
X39822251Y-103037889D01*
X39879706Y-103020460D01*
X39932657Y-102992158D01*
X39979068Y-102954068D01*
X39988612Y-102942439D01*
X40504944Y-102426108D01*
X40516568Y-102416568D01*
X40554658Y-102370157D01*
X40570573Y-102340380D01*
X42397600Y-102340380D01*
X42397600Y-102419646D01*
X42413064Y-102497389D01*
X42443398Y-102570621D01*
X42487436Y-102636528D01*
X42543485Y-102692577D01*
X42609392Y-102736615D01*
X42682624Y-102766949D01*
X42716489Y-102773685D01*
X43929300Y-103986497D01*
X43929301Y-104893618D01*
X43883436Y-104939483D01*
X43839398Y-105005390D01*
X43809064Y-105078622D01*
X43793600Y-105156365D01*
X43793600Y-105235631D01*
X43809064Y-105313374D01*
X43839398Y-105386606D01*
X43883436Y-105452513D01*
X43939485Y-105508562D01*
X44005392Y-105552600D01*
X44078624Y-105582934D01*
X44156367Y-105598398D01*
X44235633Y-105598398D01*
X44313376Y-105582934D01*
X44386608Y-105552600D01*
X44452515Y-105508562D01*
X44508564Y-105452513D01*
X44552602Y-105386606D01*
X44582936Y-105313374D01*
X44598400Y-105235631D01*
X44598400Y-105156365D01*
X44582936Y-105078622D01*
X44552602Y-105005390D01*
X44508564Y-104939483D01*
X44462700Y-104893619D01*
X44462700Y-103889122D01*
X44463990Y-103876026D01*
X44462700Y-103862928D01*
X44458841Y-103823744D01*
X44443590Y-103773471D01*
X44418826Y-103727139D01*
X44385498Y-103686528D01*
X44375321Y-103678176D01*
X43188196Y-102491052D01*
X43202400Y-102419646D01*
X43202400Y-102340380D01*
X43186936Y-102262637D01*
X43156602Y-102189405D01*
X43112564Y-102123498D01*
X43056515Y-102067449D01*
X42990608Y-102023411D01*
X42917376Y-101993077D01*
X42839633Y-101977613D01*
X42760367Y-101977613D01*
X42682624Y-101993077D01*
X42609392Y-102023411D01*
X42543485Y-102067449D01*
X42487436Y-102123498D01*
X42443398Y-102189405D01*
X42413064Y-102262637D01*
X42397600Y-102340380D01*
X40570573Y-102340380D01*
X40582960Y-102317206D01*
X40600389Y-102259751D01*
X40604800Y-102214966D01*
X40604800Y-102214958D01*
X40606273Y-102200000D01*
X40604800Y-102185042D01*
X40604800Y-102001031D01*
X40639525Y-101982471D01*
X40685082Y-101945082D01*
X40722471Y-101899525D01*
X40727669Y-101889800D01*
X40800042Y-101889800D01*
X40815000Y-101891273D01*
X40829958Y-101889800D01*
X40829966Y-101889800D01*
X40874751Y-101885389D01*
X40932206Y-101867960D01*
X40985157Y-101839658D01*
X41031568Y-101801568D01*
X41041112Y-101789939D01*
X41304944Y-101526108D01*
X41316568Y-101516568D01*
X41354658Y-101470157D01*
X41372112Y-101437500D01*
X45026863Y-101437500D01*
X45026863Y-101732500D01*
X45032640Y-101791151D01*
X45049748Y-101847549D01*
X45077529Y-101899525D01*
X45114918Y-101945082D01*
X45160475Y-101982471D01*
X45212451Y-102010252D01*
X45268849Y-102027360D01*
X45327500Y-102033137D01*
X45672500Y-102033137D01*
X45731151Y-102027360D01*
X45787549Y-102010252D01*
X45839525Y-101982471D01*
X45885082Y-101945082D01*
X45922471Y-101899525D01*
X45927669Y-101889800D01*
X45956076Y-101889800D01*
X45959422Y-101893146D01*
X46021234Y-101934447D01*
X46089917Y-101962897D01*
X46162829Y-101977400D01*
X46237171Y-101977400D01*
X46310083Y-101962897D01*
X46378766Y-101934447D01*
X46440578Y-101893146D01*
X46493146Y-101840578D01*
X46534447Y-101778766D01*
X46562897Y-101710083D01*
X46577400Y-101637171D01*
X46577400Y-101562829D01*
X46562897Y-101489917D01*
X46534447Y-101421234D01*
X46493146Y-101359422D01*
X46440578Y-101306854D01*
X46378766Y-101265553D01*
X46310083Y-101237103D01*
X46237171Y-101222600D01*
X46162829Y-101222600D01*
X46089917Y-101237103D01*
X46021234Y-101265553D01*
X45999313Y-101280200D01*
X45927669Y-101280200D01*
X45922471Y-101270475D01*
X45885082Y-101224918D01*
X45839525Y-101187529D01*
X45787549Y-101159748D01*
X45731151Y-101142640D01*
X45672500Y-101136863D01*
X45327500Y-101136863D01*
X45268849Y-101142640D01*
X45212451Y-101159748D01*
X45160475Y-101187529D01*
X45114918Y-101224918D01*
X45077529Y-101270475D01*
X45049748Y-101322451D01*
X45032640Y-101378849D01*
X45026863Y-101437500D01*
X41372112Y-101437500D01*
X41382960Y-101417206D01*
X41389679Y-101395057D01*
X41400389Y-101359752D01*
X41403639Y-101326749D01*
X41403856Y-101324549D01*
X41434447Y-101278766D01*
X41462897Y-101210083D01*
X41477400Y-101137171D01*
X41477400Y-101062829D01*
X41462897Y-100989917D01*
X41434447Y-100921234D01*
X41393146Y-100859422D01*
X41340578Y-100806854D01*
X41337504Y-100804800D01*
X41798969Y-100804800D01*
X41817529Y-100839525D01*
X41854918Y-100885082D01*
X41900475Y-100922471D01*
X41952451Y-100950252D01*
X42008849Y-100967360D01*
X42067500Y-100973137D01*
X42362500Y-100973137D01*
X42421151Y-100967360D01*
X42477549Y-100950252D01*
X42529525Y-100922471D01*
X42575082Y-100885082D01*
X42612471Y-100839525D01*
X42640252Y-100787549D01*
X42657360Y-100731151D01*
X42663137Y-100672500D01*
X42663137Y-100327500D01*
X42657360Y-100268849D01*
X42640252Y-100212451D01*
X42612471Y-100160475D01*
X42575082Y-100114918D01*
X42529525Y-100077529D01*
X42477549Y-100049748D01*
X42421151Y-100032640D01*
X42362500Y-100026863D01*
X42067500Y-100026863D01*
X42008849Y-100032640D01*
X41952451Y-100049748D01*
X41900475Y-100077529D01*
X41854918Y-100114918D01*
X41817529Y-100160475D01*
X41798969Y-100195200D01*
X41463948Y-100195200D01*
X41462897Y-100189917D01*
X41434447Y-100121234D01*
X41393146Y-100059422D01*
X41340578Y-100006854D01*
X41278766Y-99965553D01*
X41210083Y-99937103D01*
X41183887Y-99931892D01*
X41188284Y-99928284D01*
X41207329Y-99905078D01*
X41221480Y-99878603D01*
X41230195Y-99849876D01*
X41233137Y-99820000D01*
X41766863Y-99820000D01*
X41769805Y-99849876D01*
X41778520Y-99878603D01*
X41792671Y-99905078D01*
X41811716Y-99928284D01*
X41834922Y-99947329D01*
X41861397Y-99961480D01*
X41890124Y-99970195D01*
X41920000Y-99973137D01*
X42126100Y-99972400D01*
X42164200Y-99934300D01*
X42164200Y-99550800D01*
X42265800Y-99550800D01*
X42265800Y-99934300D01*
X42303900Y-99972400D01*
X42510000Y-99973137D01*
X42539876Y-99970195D01*
X42568603Y-99961480D01*
X42595078Y-99947329D01*
X42618284Y-99928284D01*
X42637329Y-99905078D01*
X42651480Y-99878603D01*
X42660195Y-99849876D01*
X42663137Y-99820000D01*
X42662400Y-99588900D01*
X42624300Y-99550800D01*
X42265800Y-99550800D01*
X42164200Y-99550800D01*
X41805700Y-99550800D01*
X41767600Y-99588900D01*
X41766863Y-99820000D01*
X41233137Y-99820000D01*
X41232400Y-99588900D01*
X41194300Y-99550800D01*
X40835800Y-99550800D01*
X40835800Y-99934300D01*
X40873900Y-99972400D01*
X40910789Y-99972532D01*
X40859422Y-100006854D01*
X40806854Y-100059422D01*
X40765553Y-100121234D01*
X40737103Y-100189917D01*
X40726692Y-100242256D01*
X40698131Y-100270818D01*
X40685082Y-100254918D01*
X40639525Y-100217529D01*
X40587549Y-100189748D01*
X40531151Y-100172640D01*
X40472500Y-100166863D01*
X40127500Y-100166863D01*
X40068849Y-100172640D01*
X40012451Y-100189748D01*
X39960475Y-100217529D01*
X39914918Y-100254918D01*
X39877529Y-100300475D01*
X39872736Y-100309442D01*
X39865042Y-100310200D01*
X39865034Y-100310200D01*
X39825403Y-100314103D01*
X39820248Y-100314611D01*
X39777760Y-100327500D01*
X39762794Y-100332040D01*
X39709843Y-100360342D01*
X39663432Y-100398432D01*
X39653892Y-100410056D01*
X39613923Y-100450025D01*
X39586249Y-100398251D01*
X39536891Y-100338109D01*
X39476749Y-100288751D01*
X39408132Y-100252074D01*
X39333679Y-100229489D01*
X39256250Y-100221863D01*
X38343750Y-100221863D01*
X38266321Y-100229489D01*
X38191868Y-100252074D01*
X38123251Y-100288751D01*
X38063109Y-100338109D01*
X38013751Y-100398251D01*
X37977074Y-100466868D01*
X37954489Y-100541321D01*
X37946863Y-100618750D01*
X37766704Y-100618750D01*
X37766704Y-100213101D01*
X37767994Y-100200005D01*
X37765745Y-100177174D01*
X37762845Y-100147724D01*
X37747594Y-100097451D01*
X37722830Y-100051119D01*
X37689502Y-100010508D01*
X37679320Y-100002152D01*
X36802398Y-99125230D01*
X36802398Y-99060367D01*
X36786934Y-98982624D01*
X36756600Y-98909392D01*
X36712562Y-98843485D01*
X36656513Y-98787436D01*
X36590606Y-98743398D01*
X36517374Y-98713064D01*
X36439631Y-98697600D01*
X36360365Y-98697600D01*
X36282622Y-98713064D01*
X36209390Y-98743398D01*
X36143483Y-98787436D01*
X36087434Y-98843485D01*
X36043396Y-98909392D01*
X36013062Y-98982624D01*
X35997598Y-99060367D01*
X31177400Y-99060367D01*
X31177400Y-98662829D01*
X39122600Y-98662829D01*
X39122600Y-98737171D01*
X39137103Y-98810083D01*
X39165553Y-98878766D01*
X39206854Y-98940578D01*
X39259422Y-98993146D01*
X39321234Y-99034447D01*
X39389917Y-99062897D01*
X39462829Y-99077400D01*
X39500716Y-99077400D01*
X39500475Y-99077529D01*
X39454918Y-99114918D01*
X39445840Y-99125979D01*
X39389917Y-99137103D01*
X39321234Y-99165553D01*
X39259422Y-99206854D01*
X39206854Y-99259422D01*
X39165553Y-99321234D01*
X39137103Y-99389917D01*
X39122600Y-99462829D01*
X39122600Y-99537171D01*
X39137103Y-99610083D01*
X39165553Y-99678766D01*
X39206854Y-99740578D01*
X39259422Y-99793146D01*
X39321234Y-99834447D01*
X39389917Y-99862897D01*
X39445840Y-99874021D01*
X39454918Y-99885082D01*
X39500475Y-99922471D01*
X39552451Y-99950252D01*
X39608849Y-99967360D01*
X39667500Y-99973137D01*
X39962500Y-99973137D01*
X40021151Y-99967360D01*
X40077549Y-99950252D01*
X40129525Y-99922471D01*
X40175082Y-99885082D01*
X40212471Y-99839525D01*
X40222907Y-99820000D01*
X40336863Y-99820000D01*
X40339805Y-99849876D01*
X40348520Y-99878603D01*
X40362671Y-99905078D01*
X40381716Y-99928284D01*
X40404922Y-99947329D01*
X40431397Y-99961480D01*
X40460124Y-99970195D01*
X40490000Y-99973137D01*
X40696100Y-99972400D01*
X40734200Y-99934300D01*
X40734200Y-99550800D01*
X40375700Y-99550800D01*
X40337600Y-99588900D01*
X40336863Y-99820000D01*
X40222907Y-99820000D01*
X40240252Y-99787549D01*
X40257360Y-99731151D01*
X40263137Y-99672500D01*
X40263137Y-99327500D01*
X40257360Y-99268849D01*
X40240252Y-99212451D01*
X40222908Y-99180000D01*
X40336863Y-99180000D01*
X40337600Y-99411100D01*
X40375700Y-99449200D01*
X40734200Y-99449200D01*
X40734200Y-99065700D01*
X40835800Y-99065700D01*
X40835800Y-99449200D01*
X41194300Y-99449200D01*
X41232400Y-99411100D01*
X41233137Y-99180000D01*
X41230195Y-99150124D01*
X41221480Y-99121397D01*
X41207329Y-99094922D01*
X41188284Y-99071716D01*
X41165078Y-99052671D01*
X41138603Y-99038520D01*
X41109876Y-99029805D01*
X41080000Y-99026863D01*
X40873900Y-99027600D01*
X40835800Y-99065700D01*
X40734200Y-99065700D01*
X40696100Y-99027600D01*
X40490000Y-99026863D01*
X40460124Y-99029805D01*
X40431397Y-99038520D01*
X40404922Y-99052671D01*
X40381716Y-99071716D01*
X40362671Y-99094922D01*
X40348520Y-99121397D01*
X40339805Y-99150124D01*
X40336863Y-99180000D01*
X40222908Y-99180000D01*
X40212471Y-99160475D01*
X40175082Y-99114918D01*
X40129525Y-99077529D01*
X40077549Y-99049748D01*
X40021151Y-99032640D01*
X39962500Y-99026863D01*
X39690116Y-99026863D01*
X39740578Y-98993146D01*
X39793146Y-98940578D01*
X39834447Y-98878766D01*
X39862897Y-98810083D01*
X39877400Y-98737171D01*
X39877400Y-98662829D01*
X41522600Y-98662829D01*
X41522600Y-98737171D01*
X41537103Y-98810083D01*
X41565553Y-98878766D01*
X41606854Y-98940578D01*
X41659422Y-98993146D01*
X41721234Y-99034447D01*
X41789917Y-99062897D01*
X41816113Y-99068108D01*
X41811716Y-99071716D01*
X41792671Y-99094922D01*
X41778520Y-99121397D01*
X41769805Y-99150124D01*
X41766863Y-99180000D01*
X41767600Y-99411100D01*
X41805700Y-99449200D01*
X42164200Y-99449200D01*
X42164200Y-99065700D01*
X42265800Y-99065700D01*
X42265800Y-99449200D01*
X42624300Y-99449200D01*
X42662400Y-99411100D01*
X42662666Y-99327500D01*
X42736863Y-99327500D01*
X42736863Y-99672500D01*
X42742640Y-99731151D01*
X42759748Y-99787549D01*
X42787529Y-99839525D01*
X42824918Y-99885082D01*
X42870475Y-99922471D01*
X42880201Y-99927669D01*
X42880200Y-100072331D01*
X42870475Y-100077529D01*
X42824918Y-100114918D01*
X42787529Y-100160475D01*
X42759748Y-100212451D01*
X42742640Y-100268849D01*
X42736863Y-100327500D01*
X42736863Y-100672500D01*
X42742640Y-100731151D01*
X42759748Y-100787549D01*
X42787529Y-100839525D01*
X42824918Y-100885082D01*
X42870475Y-100922471D01*
X42922451Y-100950252D01*
X42978849Y-100967360D01*
X43037500Y-100973137D01*
X43332500Y-100973137D01*
X43391151Y-100967360D01*
X43447549Y-100950252D01*
X43499525Y-100922471D01*
X43514720Y-100910000D01*
X45026863Y-100910000D01*
X45029805Y-100939876D01*
X45038520Y-100968603D01*
X45052671Y-100995078D01*
X45071716Y-101018284D01*
X45094922Y-101037329D01*
X45121397Y-101051480D01*
X45150124Y-101060195D01*
X45180000Y-101063137D01*
X45411100Y-101062400D01*
X45449200Y-101024300D01*
X45449200Y-100665800D01*
X45550800Y-100665800D01*
X45550800Y-101024300D01*
X45588900Y-101062400D01*
X45820000Y-101063137D01*
X45849876Y-101060195D01*
X45878603Y-101051480D01*
X45905078Y-101037329D01*
X45928284Y-101018284D01*
X45947329Y-100995078D01*
X45961480Y-100968603D01*
X45970195Y-100939876D01*
X45973137Y-100910000D01*
X45972400Y-100703900D01*
X45934300Y-100665800D01*
X45550800Y-100665800D01*
X45449200Y-100665800D01*
X45065700Y-100665800D01*
X45027600Y-100703900D01*
X45026863Y-100910000D01*
X43514720Y-100910000D01*
X43545082Y-100885082D01*
X43582471Y-100839525D01*
X43610252Y-100787549D01*
X43627360Y-100731151D01*
X43633137Y-100672500D01*
X43633137Y-100327500D01*
X43632399Y-100320000D01*
X45026863Y-100320000D01*
X45027600Y-100526100D01*
X45065700Y-100564200D01*
X45449200Y-100564200D01*
X45449200Y-100205700D01*
X45550800Y-100205700D01*
X45550800Y-100564200D01*
X45934300Y-100564200D01*
X45972400Y-100526100D01*
X45973137Y-100320000D01*
X45970195Y-100290124D01*
X45961480Y-100261397D01*
X45947329Y-100234922D01*
X45928284Y-100211716D01*
X45905078Y-100192671D01*
X45878603Y-100178520D01*
X45849876Y-100169805D01*
X45820000Y-100166863D01*
X45588900Y-100167600D01*
X45550800Y-100205700D01*
X45449200Y-100205700D01*
X45411100Y-100167600D01*
X45180000Y-100166863D01*
X45150124Y-100169805D01*
X45121397Y-100178520D01*
X45094922Y-100192671D01*
X45071716Y-100211716D01*
X45052671Y-100234922D01*
X45038520Y-100261397D01*
X45029805Y-100290124D01*
X45026863Y-100320000D01*
X43632399Y-100320000D01*
X43627360Y-100268849D01*
X43610252Y-100212451D01*
X43582471Y-100160475D01*
X43545082Y-100114918D01*
X43499525Y-100077529D01*
X43489800Y-100072331D01*
X43489800Y-99927669D01*
X43499525Y-99922471D01*
X43545082Y-99885082D01*
X43554160Y-99874021D01*
X43610083Y-99862897D01*
X43678766Y-99834447D01*
X43740578Y-99793146D01*
X43793146Y-99740578D01*
X43834447Y-99678766D01*
X43862897Y-99610083D01*
X43877400Y-99537171D01*
X43877400Y-99462829D01*
X43862897Y-99389917D01*
X43834447Y-99321234D01*
X43793146Y-99259422D01*
X43740578Y-99206854D01*
X43678766Y-99165553D01*
X43610083Y-99137103D01*
X43554160Y-99125979D01*
X43545082Y-99114918D01*
X43499525Y-99077529D01*
X43447549Y-99049748D01*
X43391151Y-99032640D01*
X43332500Y-99026863D01*
X43037500Y-99026863D01*
X42978849Y-99032640D01*
X42922451Y-99049748D01*
X42870475Y-99077529D01*
X42824918Y-99114918D01*
X42787529Y-99160475D01*
X42759748Y-99212451D01*
X42742640Y-99268849D01*
X42736863Y-99327500D01*
X42662666Y-99327500D01*
X42663137Y-99180000D01*
X42660195Y-99150124D01*
X42651480Y-99121397D01*
X42637329Y-99094922D01*
X42618284Y-99071716D01*
X42595078Y-99052671D01*
X42568603Y-99038520D01*
X42539876Y-99029805D01*
X42510000Y-99026863D01*
X42303900Y-99027600D01*
X42265800Y-99065700D01*
X42164200Y-99065700D01*
X42126100Y-99027600D01*
X42089211Y-99027468D01*
X42140578Y-98993146D01*
X42160587Y-98973137D01*
X42362500Y-98973137D01*
X42421151Y-98967360D01*
X42477549Y-98950252D01*
X42529525Y-98922471D01*
X42575082Y-98885082D01*
X42612471Y-98839525D01*
X42622907Y-98820000D01*
X42736863Y-98820000D01*
X42739805Y-98849876D01*
X42748520Y-98878603D01*
X42762671Y-98905078D01*
X42781716Y-98928284D01*
X42804922Y-98947329D01*
X42831397Y-98961480D01*
X42860124Y-98970195D01*
X42890000Y-98973137D01*
X43096100Y-98972400D01*
X43134200Y-98934300D01*
X43134200Y-98550800D01*
X43235800Y-98550800D01*
X43235800Y-98934300D01*
X43273900Y-98972400D01*
X43480000Y-98973137D01*
X43509876Y-98970195D01*
X43538603Y-98961480D01*
X43565078Y-98947329D01*
X43588284Y-98928284D01*
X43607329Y-98905078D01*
X43621480Y-98878603D01*
X43630195Y-98849876D01*
X43633137Y-98820000D01*
X43632400Y-98588900D01*
X43594300Y-98550800D01*
X43235800Y-98550800D01*
X43134200Y-98550800D01*
X42775700Y-98550800D01*
X42737600Y-98588900D01*
X42736863Y-98820000D01*
X42622907Y-98820000D01*
X42640252Y-98787549D01*
X42657360Y-98731151D01*
X42663137Y-98672500D01*
X42663137Y-98327500D01*
X42657360Y-98268849D01*
X42640252Y-98212451D01*
X42622908Y-98180000D01*
X42736863Y-98180000D01*
X42737600Y-98411100D01*
X42775700Y-98449200D01*
X43134200Y-98449200D01*
X43134200Y-98065700D01*
X43235800Y-98065700D01*
X43235800Y-98449200D01*
X43594300Y-98449200D01*
X43632400Y-98411100D01*
X43632608Y-98345593D01*
X46947600Y-98345593D01*
X46947600Y-98454407D01*
X46968828Y-98561129D01*
X47010469Y-98661660D01*
X47070923Y-98752135D01*
X47147865Y-98829077D01*
X47238340Y-98889531D01*
X47338871Y-98931172D01*
X47445593Y-98952400D01*
X47554407Y-98952400D01*
X47661129Y-98931172D01*
X47761660Y-98889531D01*
X47852135Y-98829077D01*
X47929077Y-98752135D01*
X47989531Y-98661660D01*
X48031172Y-98561129D01*
X48052400Y-98454407D01*
X48052400Y-98345593D01*
X48031172Y-98238871D01*
X47989531Y-98138340D01*
X47929077Y-98047865D01*
X47852135Y-97970923D01*
X47761660Y-97910469D01*
X47661129Y-97868828D01*
X47554407Y-97847600D01*
X47445593Y-97847600D01*
X47338871Y-97868828D01*
X47238340Y-97910469D01*
X47147865Y-97970923D01*
X47070923Y-98047865D01*
X47010469Y-98138340D01*
X46968828Y-98238871D01*
X46947600Y-98345593D01*
X43632608Y-98345593D01*
X43633137Y-98180000D01*
X43630195Y-98150124D01*
X43621480Y-98121397D01*
X43607329Y-98094922D01*
X43588284Y-98071716D01*
X43565078Y-98052671D01*
X43538603Y-98038520D01*
X43509876Y-98029805D01*
X43480000Y-98026863D01*
X43273900Y-98027600D01*
X43235800Y-98065700D01*
X43134200Y-98065700D01*
X43096100Y-98027600D01*
X42890000Y-98026863D01*
X42860124Y-98029805D01*
X42831397Y-98038520D01*
X42804922Y-98052671D01*
X42781716Y-98071716D01*
X42762671Y-98094922D01*
X42748520Y-98121397D01*
X42739805Y-98150124D01*
X42736863Y-98180000D01*
X42622908Y-98180000D01*
X42612471Y-98160475D01*
X42575082Y-98114918D01*
X42529525Y-98077529D01*
X42477549Y-98049748D01*
X42421151Y-98032640D01*
X42362500Y-98026863D01*
X42067500Y-98026863D01*
X42008849Y-98032640D01*
X41952451Y-98049748D01*
X41900475Y-98077529D01*
X41854918Y-98114918D01*
X41817529Y-98160475D01*
X41789748Y-98212451D01*
X41772640Y-98268849D01*
X41766863Y-98327500D01*
X41766863Y-98346652D01*
X41721234Y-98365553D01*
X41659422Y-98406854D01*
X41606854Y-98459422D01*
X41565553Y-98521234D01*
X41537103Y-98589917D01*
X41522600Y-98662829D01*
X39877400Y-98662829D01*
X39862897Y-98589917D01*
X39834447Y-98521234D01*
X39793146Y-98459422D01*
X39740578Y-98406854D01*
X39678766Y-98365553D01*
X39610083Y-98337103D01*
X39537171Y-98322600D01*
X39462829Y-98322600D01*
X39389917Y-98337103D01*
X39321234Y-98365553D01*
X39259422Y-98406854D01*
X39206854Y-98459422D01*
X39165553Y-98521234D01*
X39137103Y-98589917D01*
X39122600Y-98662829D01*
X31177400Y-98662829D01*
X31177400Y-96262829D01*
X39122600Y-96262829D01*
X39122600Y-96337171D01*
X39137103Y-96410083D01*
X39165553Y-96478766D01*
X39206854Y-96540578D01*
X39259422Y-96593146D01*
X39321234Y-96634447D01*
X39389917Y-96662897D01*
X39445840Y-96674021D01*
X39454918Y-96685082D01*
X39500475Y-96722471D01*
X39500716Y-96722600D01*
X39462829Y-96722600D01*
X39389917Y-96737103D01*
X39321234Y-96765553D01*
X39259422Y-96806854D01*
X39206854Y-96859422D01*
X39165553Y-96921234D01*
X39137103Y-96989917D01*
X39122600Y-97062829D01*
X39122600Y-97137171D01*
X39137103Y-97210083D01*
X39165553Y-97278766D01*
X39206854Y-97340578D01*
X39259422Y-97393146D01*
X39312681Y-97428732D01*
X39366863Y-97482914D01*
X39366863Y-97672500D01*
X39372640Y-97731151D01*
X39389748Y-97787549D01*
X39417529Y-97839525D01*
X39454918Y-97885082D01*
X39500475Y-97922471D01*
X39552451Y-97950252D01*
X39608849Y-97967360D01*
X39667500Y-97973137D01*
X39962500Y-97973137D01*
X40021151Y-97967360D01*
X40077549Y-97950252D01*
X40129525Y-97922471D01*
X40175082Y-97885082D01*
X40212471Y-97839525D01*
X40222907Y-97820000D01*
X40336863Y-97820000D01*
X40339805Y-97849876D01*
X40348520Y-97878603D01*
X40362671Y-97905078D01*
X40381716Y-97928284D01*
X40404922Y-97947329D01*
X40431397Y-97961480D01*
X40460124Y-97970195D01*
X40490000Y-97973137D01*
X40696100Y-97972400D01*
X40734200Y-97934300D01*
X40734200Y-97550800D01*
X40835800Y-97550800D01*
X40835800Y-97934300D01*
X40873900Y-97972400D01*
X41080000Y-97973137D01*
X41109876Y-97970195D01*
X41138603Y-97961480D01*
X41165078Y-97947329D01*
X41188284Y-97928284D01*
X41207329Y-97905078D01*
X41221480Y-97878603D01*
X41230195Y-97849876D01*
X41233137Y-97820000D01*
X41766863Y-97820000D01*
X41769805Y-97849876D01*
X41778520Y-97878603D01*
X41792671Y-97905078D01*
X41811716Y-97928284D01*
X41834922Y-97947329D01*
X41861397Y-97961480D01*
X41890124Y-97970195D01*
X41920000Y-97973137D01*
X42126100Y-97972400D01*
X42164200Y-97934300D01*
X42164200Y-97550800D01*
X42265800Y-97550800D01*
X42265800Y-97934300D01*
X42303900Y-97972400D01*
X42510000Y-97973137D01*
X42539876Y-97970195D01*
X42568603Y-97961480D01*
X42595078Y-97947329D01*
X42618284Y-97928284D01*
X42637329Y-97905078D01*
X42651480Y-97878603D01*
X42660195Y-97849876D01*
X42663137Y-97820000D01*
X42662400Y-97588900D01*
X42624300Y-97550800D01*
X42265800Y-97550800D01*
X42164200Y-97550800D01*
X41805700Y-97550800D01*
X41767600Y-97588900D01*
X41766863Y-97820000D01*
X41233137Y-97820000D01*
X41232400Y-97588900D01*
X41194300Y-97550800D01*
X40835800Y-97550800D01*
X40734200Y-97550800D01*
X40375700Y-97550800D01*
X40337600Y-97588900D01*
X40336863Y-97820000D01*
X40222907Y-97820000D01*
X40240252Y-97787549D01*
X40257360Y-97731151D01*
X40263137Y-97672500D01*
X40263137Y-97327500D01*
X40257360Y-97268849D01*
X40240252Y-97212451D01*
X40222908Y-97180000D01*
X40336863Y-97180000D01*
X40337600Y-97411100D01*
X40375700Y-97449200D01*
X40734200Y-97449200D01*
X40734200Y-97065700D01*
X40835800Y-97065700D01*
X40835800Y-97449200D01*
X41194300Y-97449200D01*
X41232400Y-97411100D01*
X41233137Y-97180000D01*
X41766863Y-97180000D01*
X41767600Y-97411100D01*
X41805700Y-97449200D01*
X42164200Y-97449200D01*
X42164200Y-97065700D01*
X42265800Y-97065700D01*
X42265800Y-97449200D01*
X42624300Y-97449200D01*
X42662400Y-97411100D01*
X42663137Y-97180000D01*
X42660195Y-97150124D01*
X42651480Y-97121397D01*
X42637329Y-97094922D01*
X42618284Y-97071716D01*
X42595078Y-97052671D01*
X42568603Y-97038520D01*
X42539876Y-97029805D01*
X42510000Y-97026863D01*
X42303900Y-97027600D01*
X42265800Y-97065700D01*
X42164200Y-97065700D01*
X42126100Y-97027600D01*
X41920000Y-97026863D01*
X41890124Y-97029805D01*
X41861397Y-97038520D01*
X41834922Y-97052671D01*
X41811716Y-97071716D01*
X41792671Y-97094922D01*
X41778520Y-97121397D01*
X41769805Y-97150124D01*
X41766863Y-97180000D01*
X41233137Y-97180000D01*
X41230195Y-97150124D01*
X41221480Y-97121397D01*
X41207329Y-97094922D01*
X41188284Y-97071716D01*
X41165078Y-97052671D01*
X41138603Y-97038520D01*
X41109876Y-97029805D01*
X41080000Y-97026863D01*
X40873900Y-97027600D01*
X40835800Y-97065700D01*
X40734200Y-97065700D01*
X40696100Y-97027600D01*
X40490000Y-97026863D01*
X40460124Y-97029805D01*
X40431397Y-97038520D01*
X40404922Y-97052671D01*
X40381716Y-97071716D01*
X40362671Y-97094922D01*
X40348520Y-97121397D01*
X40339805Y-97150124D01*
X40336863Y-97180000D01*
X40222908Y-97180000D01*
X40212471Y-97160475D01*
X40175082Y-97114918D01*
X40129525Y-97077529D01*
X40077549Y-97049748D01*
X40021151Y-97032640D01*
X39962500Y-97026863D01*
X39870246Y-97026863D01*
X39862897Y-96989917D01*
X39834447Y-96921234D01*
X39793146Y-96859422D01*
X39740578Y-96806854D01*
X39690116Y-96773137D01*
X39962500Y-96773137D01*
X40021151Y-96767360D01*
X40077549Y-96750252D01*
X40129525Y-96722471D01*
X40175082Y-96685082D01*
X40212471Y-96639525D01*
X40222907Y-96620000D01*
X40336863Y-96620000D01*
X40339805Y-96649876D01*
X40348520Y-96678603D01*
X40362671Y-96705078D01*
X40381716Y-96728284D01*
X40404922Y-96747329D01*
X40431397Y-96761480D01*
X40460124Y-96770195D01*
X40490000Y-96773137D01*
X40696100Y-96772400D01*
X40734200Y-96734300D01*
X40734200Y-96350800D01*
X40835800Y-96350800D01*
X40835800Y-96734300D01*
X40873900Y-96772400D01*
X41080000Y-96773137D01*
X41109876Y-96770195D01*
X41138603Y-96761480D01*
X41165078Y-96747329D01*
X41188284Y-96728284D01*
X41207329Y-96705078D01*
X41221480Y-96678603D01*
X41230195Y-96649876D01*
X41233137Y-96620000D01*
X41766863Y-96620000D01*
X41769805Y-96649876D01*
X41778520Y-96678603D01*
X41792671Y-96705078D01*
X41811716Y-96728284D01*
X41834922Y-96747329D01*
X41861397Y-96761480D01*
X41890124Y-96770195D01*
X41920000Y-96773137D01*
X42126100Y-96772400D01*
X42164200Y-96734300D01*
X42164200Y-96350800D01*
X42265800Y-96350800D01*
X42265800Y-96734300D01*
X42303900Y-96772400D01*
X42510000Y-96773137D01*
X42539876Y-96770195D01*
X42568603Y-96761480D01*
X42595078Y-96747329D01*
X42618284Y-96728284D01*
X42637329Y-96705078D01*
X42651480Y-96678603D01*
X42660195Y-96649876D01*
X42663137Y-96620000D01*
X42662400Y-96388900D01*
X42624300Y-96350800D01*
X42265800Y-96350800D01*
X42164200Y-96350800D01*
X41805700Y-96350800D01*
X41767600Y-96388900D01*
X41766863Y-96620000D01*
X41233137Y-96620000D01*
X41232400Y-96388900D01*
X41194300Y-96350800D01*
X40835800Y-96350800D01*
X40734200Y-96350800D01*
X40375700Y-96350800D01*
X40337600Y-96388900D01*
X40336863Y-96620000D01*
X40222907Y-96620000D01*
X40240252Y-96587549D01*
X40257360Y-96531151D01*
X40263137Y-96472500D01*
X40263137Y-96127500D01*
X40257360Y-96068849D01*
X40240252Y-96012451D01*
X40222908Y-95980000D01*
X40336863Y-95980000D01*
X40337600Y-96211100D01*
X40375700Y-96249200D01*
X40734200Y-96249200D01*
X40734200Y-95865700D01*
X40835800Y-95865700D01*
X40835800Y-96249200D01*
X41194300Y-96249200D01*
X41232400Y-96211100D01*
X41233137Y-95980000D01*
X41230195Y-95950124D01*
X41221480Y-95921397D01*
X41207329Y-95894922D01*
X41188284Y-95871716D01*
X41165078Y-95852671D01*
X41138603Y-95838520D01*
X41109876Y-95829805D01*
X41080000Y-95826863D01*
X40873900Y-95827600D01*
X40835800Y-95865700D01*
X40734200Y-95865700D01*
X40696100Y-95827600D01*
X40490000Y-95826863D01*
X40460124Y-95829805D01*
X40431397Y-95838520D01*
X40404922Y-95852671D01*
X40381716Y-95871716D01*
X40362671Y-95894922D01*
X40348520Y-95921397D01*
X40339805Y-95950124D01*
X40336863Y-95980000D01*
X40222908Y-95980000D01*
X40212471Y-95960475D01*
X40175082Y-95914918D01*
X40129525Y-95877529D01*
X40119800Y-95872331D01*
X40119800Y-95727669D01*
X40129525Y-95722471D01*
X40175082Y-95685082D01*
X40212471Y-95639525D01*
X40240252Y-95587549D01*
X40257360Y-95531151D01*
X40263137Y-95472500D01*
X40263137Y-95127500D01*
X40258110Y-95076461D01*
X40262829Y-95077400D01*
X40337171Y-95077400D01*
X40341890Y-95076461D01*
X40336863Y-95127500D01*
X40336863Y-95472500D01*
X40342640Y-95531151D01*
X40359748Y-95587549D01*
X40387529Y-95639525D01*
X40424918Y-95685082D01*
X40470475Y-95722471D01*
X40522451Y-95750252D01*
X40578849Y-95767360D01*
X40637500Y-95773137D01*
X40932500Y-95773137D01*
X40991151Y-95767360D01*
X41047549Y-95750252D01*
X41099525Y-95722471D01*
X41145082Y-95685082D01*
X41182471Y-95639525D01*
X41210252Y-95587549D01*
X41227360Y-95531151D01*
X41233137Y-95472500D01*
X41233137Y-95462829D01*
X41522600Y-95462829D01*
X41522600Y-95537171D01*
X41537103Y-95610083D01*
X41565553Y-95678766D01*
X41606854Y-95740578D01*
X41659422Y-95793146D01*
X41721234Y-95834447D01*
X41789917Y-95862897D01*
X41816113Y-95868108D01*
X41811716Y-95871716D01*
X41792671Y-95894922D01*
X41778520Y-95921397D01*
X41769805Y-95950124D01*
X41766863Y-95980000D01*
X41767600Y-96211100D01*
X41805700Y-96249200D01*
X42164200Y-96249200D01*
X42164200Y-95865700D01*
X42265800Y-95865700D01*
X42265800Y-96249200D01*
X42624300Y-96249200D01*
X42662400Y-96211100D01*
X42662666Y-96127500D01*
X42736863Y-96127500D01*
X42736863Y-96472500D01*
X42742640Y-96531151D01*
X42759748Y-96587549D01*
X42787529Y-96639525D01*
X42824918Y-96685082D01*
X42870475Y-96722471D01*
X42922451Y-96750252D01*
X42978849Y-96767360D01*
X43037500Y-96773137D01*
X43309884Y-96773137D01*
X43259422Y-96806854D01*
X43206854Y-96859422D01*
X43165553Y-96921234D01*
X43137103Y-96989917D01*
X43129754Y-97026863D01*
X43037500Y-97026863D01*
X42978849Y-97032640D01*
X42922451Y-97049748D01*
X42870475Y-97077529D01*
X42824918Y-97114918D01*
X42787529Y-97160475D01*
X42759748Y-97212451D01*
X42742640Y-97268849D01*
X42736863Y-97327500D01*
X42736863Y-97672500D01*
X42742640Y-97731151D01*
X42759748Y-97787549D01*
X42787529Y-97839525D01*
X42824918Y-97885082D01*
X42870475Y-97922471D01*
X42922451Y-97950252D01*
X42978849Y-97967360D01*
X43037500Y-97973137D01*
X43332500Y-97973137D01*
X43391151Y-97967360D01*
X43447549Y-97950252D01*
X43499525Y-97922471D01*
X43545082Y-97885082D01*
X43582471Y-97839525D01*
X43610252Y-97787549D01*
X43627360Y-97731151D01*
X43633137Y-97672500D01*
X43633137Y-97482915D01*
X43687321Y-97428731D01*
X43740578Y-97393146D01*
X43793146Y-97340578D01*
X43834447Y-97278766D01*
X43862897Y-97210083D01*
X43877400Y-97137171D01*
X43877400Y-97062829D01*
X43862897Y-96989917D01*
X43834447Y-96921234D01*
X43793146Y-96859422D01*
X43740578Y-96806854D01*
X43678766Y-96765553D01*
X43610083Y-96737103D01*
X43537171Y-96722600D01*
X43499284Y-96722600D01*
X43499525Y-96722471D01*
X43545082Y-96685082D01*
X43554160Y-96674021D01*
X43610083Y-96662897D01*
X43678766Y-96634447D01*
X43740578Y-96593146D01*
X43793146Y-96540578D01*
X43834447Y-96478766D01*
X43862897Y-96410083D01*
X43877400Y-96337171D01*
X43877400Y-96262829D01*
X43862897Y-96189917D01*
X43834447Y-96121234D01*
X43793146Y-96059422D01*
X43740578Y-96006854D01*
X43678766Y-95965553D01*
X43610083Y-95937103D01*
X43554160Y-95925979D01*
X43545082Y-95914918D01*
X43499525Y-95877529D01*
X43447549Y-95849748D01*
X43391151Y-95832640D01*
X43332500Y-95826863D01*
X43037500Y-95826863D01*
X42978849Y-95832640D01*
X42922451Y-95849748D01*
X42870475Y-95877529D01*
X42824918Y-95914918D01*
X42787529Y-95960475D01*
X42759748Y-96012451D01*
X42742640Y-96068849D01*
X42736863Y-96127500D01*
X42662666Y-96127500D01*
X42663137Y-95980000D01*
X42660195Y-95950124D01*
X42651480Y-95921397D01*
X42637329Y-95894922D01*
X42618284Y-95871716D01*
X42595078Y-95852671D01*
X42568603Y-95838520D01*
X42539876Y-95829805D01*
X42510000Y-95826863D01*
X42303900Y-95827600D01*
X42265800Y-95865700D01*
X42164200Y-95865700D01*
X42126100Y-95827600D01*
X42089211Y-95827468D01*
X42140578Y-95793146D01*
X42160587Y-95773137D01*
X42347500Y-95773137D01*
X42406151Y-95767360D01*
X42462549Y-95750252D01*
X42514525Y-95722471D01*
X42560082Y-95685082D01*
X42597471Y-95639525D01*
X42607907Y-95620000D01*
X42721863Y-95620000D01*
X42724805Y-95649876D01*
X42733520Y-95678603D01*
X42747671Y-95705078D01*
X42766716Y-95728284D01*
X42789922Y-95747329D01*
X42816397Y-95761480D01*
X42845124Y-95770195D01*
X42875000Y-95773137D01*
X43081100Y-95772400D01*
X43119200Y-95734300D01*
X43119200Y-95350800D01*
X43220800Y-95350800D01*
X43220800Y-95734300D01*
X43258900Y-95772400D01*
X43465000Y-95773137D01*
X43494876Y-95770195D01*
X43523603Y-95761480D01*
X43550078Y-95747329D01*
X43573284Y-95728284D01*
X43592329Y-95705078D01*
X43606480Y-95678603D01*
X43615195Y-95649876D01*
X43618137Y-95620000D01*
X43617400Y-95388900D01*
X43579300Y-95350800D01*
X43220800Y-95350800D01*
X43119200Y-95350800D01*
X42760700Y-95350800D01*
X42722600Y-95388900D01*
X42721863Y-95620000D01*
X42607907Y-95620000D01*
X42625252Y-95587549D01*
X42642360Y-95531151D01*
X42648137Y-95472500D01*
X42648137Y-95127500D01*
X42642360Y-95068849D01*
X42625252Y-95012451D01*
X42607908Y-94980000D01*
X42721863Y-94980000D01*
X42722600Y-95211100D01*
X42760700Y-95249200D01*
X43119200Y-95249200D01*
X43119200Y-94865700D01*
X43081100Y-94827600D01*
X42875000Y-94826863D01*
X42845124Y-94829805D01*
X42816397Y-94838520D01*
X42789922Y-94852671D01*
X42766716Y-94871716D01*
X42747671Y-94894922D01*
X42733520Y-94921397D01*
X42724805Y-94950124D01*
X42721863Y-94980000D01*
X42607908Y-94980000D01*
X42597471Y-94960475D01*
X42560082Y-94914918D01*
X42514525Y-94877529D01*
X42462549Y-94849748D01*
X42406151Y-94832640D01*
X42347500Y-94826863D01*
X42052500Y-94826863D01*
X41993849Y-94832640D01*
X41937451Y-94849748D01*
X41885475Y-94877529D01*
X41839918Y-94914918D01*
X41802529Y-94960475D01*
X41774748Y-95012451D01*
X41757640Y-95068849D01*
X41751863Y-95127500D01*
X41751863Y-95152866D01*
X41721234Y-95165553D01*
X41659422Y-95206854D01*
X41606854Y-95259422D01*
X41565553Y-95321234D01*
X41537103Y-95389917D01*
X41522600Y-95462829D01*
X41233137Y-95462829D01*
X41233137Y-95397914D01*
X41304940Y-95326111D01*
X41316568Y-95316568D01*
X41354658Y-95270157D01*
X41382960Y-95217206D01*
X41384812Y-95211100D01*
X41400389Y-95159752D01*
X41402277Y-95140578D01*
X41404800Y-95114966D01*
X41404800Y-95114958D01*
X41406273Y-95100000D01*
X41404800Y-95085042D01*
X41404800Y-94923136D01*
X41434447Y-94878766D01*
X41462897Y-94810083D01*
X41477400Y-94737171D01*
X41477400Y-94734297D01*
X41499525Y-94722471D01*
X41545082Y-94685082D01*
X41582471Y-94639525D01*
X41592907Y-94620000D01*
X41766863Y-94620000D01*
X41769805Y-94649876D01*
X41778520Y-94678603D01*
X41792671Y-94705078D01*
X41811716Y-94728284D01*
X41834922Y-94747329D01*
X41861397Y-94761480D01*
X41890124Y-94770195D01*
X41920000Y-94773137D01*
X42126100Y-94772400D01*
X42164200Y-94734300D01*
X42164200Y-94350800D01*
X42265800Y-94350800D01*
X42265800Y-94734300D01*
X42303900Y-94772400D01*
X42510000Y-94773137D01*
X42539876Y-94770195D01*
X42568603Y-94761480D01*
X42595078Y-94747329D01*
X42618284Y-94728284D01*
X42637329Y-94705078D01*
X42651480Y-94678603D01*
X42660195Y-94649876D01*
X42663137Y-94620000D01*
X42662400Y-94388900D01*
X42624300Y-94350800D01*
X42265800Y-94350800D01*
X42164200Y-94350800D01*
X41805700Y-94350800D01*
X41767600Y-94388900D01*
X41766863Y-94620000D01*
X41592907Y-94620000D01*
X41610252Y-94587549D01*
X41627360Y-94531151D01*
X41633137Y-94472500D01*
X41633137Y-94127500D01*
X41627360Y-94068849D01*
X41620923Y-94047628D01*
X41688551Y-93980000D01*
X41766863Y-93980000D01*
X41767600Y-94211100D01*
X41805700Y-94249200D01*
X42164200Y-94249200D01*
X42164200Y-93865700D01*
X42265800Y-93865700D01*
X42265800Y-94249200D01*
X42624300Y-94249200D01*
X42662400Y-94211100D01*
X42662666Y-94127500D01*
X42736863Y-94127500D01*
X42736863Y-94472500D01*
X42742640Y-94531151D01*
X42759748Y-94587549D01*
X42787529Y-94639525D01*
X42824918Y-94685082D01*
X42870475Y-94722471D01*
X42922451Y-94750252D01*
X42978849Y-94767360D01*
X43037500Y-94773137D01*
X43227085Y-94773137D01*
X43281468Y-94827519D01*
X43258900Y-94827600D01*
X43220800Y-94865700D01*
X43220800Y-95249200D01*
X43579300Y-95249200D01*
X43617400Y-95211100D01*
X43617551Y-95163604D01*
X43846863Y-95392916D01*
X43846863Y-95550000D01*
X43849805Y-95579876D01*
X43858520Y-95608603D01*
X43872671Y-95635078D01*
X43891716Y-95658284D01*
X43914922Y-95677329D01*
X43941397Y-95691480D01*
X43970124Y-95700195D01*
X44000000Y-95703137D01*
X44500000Y-95703137D01*
X44529876Y-95700195D01*
X44558603Y-95691480D01*
X44585078Y-95677329D01*
X44608284Y-95658284D01*
X44613113Y-95652400D01*
X44786887Y-95652400D01*
X44791716Y-95658284D01*
X44814922Y-95677329D01*
X44841397Y-95691480D01*
X44870124Y-95700195D01*
X44900000Y-95703137D01*
X45400000Y-95703137D01*
X45429876Y-95700195D01*
X45458603Y-95691480D01*
X45485078Y-95677329D01*
X45508284Y-95658284D01*
X45527329Y-95635078D01*
X45541480Y-95608603D01*
X45542634Y-95604800D01*
X45585042Y-95604800D01*
X45600000Y-95606273D01*
X45614958Y-95604800D01*
X45614966Y-95604800D01*
X45659751Y-95600389D01*
X45717206Y-95582960D01*
X45770157Y-95554658D01*
X45816568Y-95516568D01*
X45826112Y-95504939D01*
X46057744Y-95273308D01*
X46110083Y-95262897D01*
X46178766Y-95234447D01*
X46240578Y-95193146D01*
X46293146Y-95140578D01*
X46334447Y-95078766D01*
X46362897Y-95010083D01*
X46377400Y-94937171D01*
X46377400Y-94862829D01*
X46362897Y-94789917D01*
X46334447Y-94721234D01*
X46293146Y-94659422D01*
X46240578Y-94606854D01*
X46178766Y-94565553D01*
X46110083Y-94537103D01*
X46037171Y-94522600D01*
X45962829Y-94522600D01*
X45889917Y-94537103D01*
X45821234Y-94565553D01*
X45759422Y-94606854D01*
X45706854Y-94659422D01*
X45665553Y-94721234D01*
X45637103Y-94789917D01*
X45626692Y-94842256D01*
X45516825Y-94952123D01*
X45508284Y-94941716D01*
X45485078Y-94922671D01*
X45458603Y-94908520D01*
X45429876Y-94899805D01*
X45400000Y-94896863D01*
X44900000Y-94896863D01*
X44870124Y-94899805D01*
X44841397Y-94908520D01*
X44814922Y-94922671D01*
X44791716Y-94941716D01*
X44786887Y-94947600D01*
X44613113Y-94947600D01*
X44608284Y-94941716D01*
X44598016Y-94933289D01*
X44634447Y-94878766D01*
X44662897Y-94810083D01*
X44677400Y-94737171D01*
X44677400Y-94662829D01*
X44662897Y-94589917D01*
X44634447Y-94521234D01*
X44593146Y-94459422D01*
X44540578Y-94406854D01*
X44478766Y-94365553D01*
X44410083Y-94337103D01*
X44357744Y-94326692D01*
X44126112Y-94095061D01*
X44116568Y-94083432D01*
X44070157Y-94045342D01*
X44017206Y-94017040D01*
X43959751Y-93999611D01*
X43914966Y-93995200D01*
X43914958Y-93995200D01*
X43900000Y-93993727D01*
X43885042Y-93995200D01*
X43601031Y-93995200D01*
X43582471Y-93960475D01*
X43545082Y-93914918D01*
X43499525Y-93877529D01*
X43447549Y-93849748D01*
X43391151Y-93832640D01*
X43332500Y-93826863D01*
X43037500Y-93826863D01*
X42978849Y-93832640D01*
X42922451Y-93849748D01*
X42870475Y-93877529D01*
X42824918Y-93914918D01*
X42787529Y-93960475D01*
X42759748Y-94012451D01*
X42742640Y-94068849D01*
X42736863Y-94127500D01*
X42662666Y-94127500D01*
X42663137Y-93980000D01*
X42660195Y-93950124D01*
X42651480Y-93921397D01*
X42637329Y-93894922D01*
X42618284Y-93871716D01*
X42595078Y-93852671D01*
X42568603Y-93838520D01*
X42539876Y-93829805D01*
X42510000Y-93826863D01*
X42303900Y-93827600D01*
X42265800Y-93865700D01*
X42164200Y-93865700D01*
X42126100Y-93827600D01*
X41920000Y-93826863D01*
X41890124Y-93829805D01*
X41861397Y-93838520D01*
X41834922Y-93852671D01*
X41811716Y-93871716D01*
X41792671Y-93894922D01*
X41778520Y-93921397D01*
X41769805Y-93950124D01*
X41766863Y-93980000D01*
X41688551Y-93980000D01*
X42044751Y-93623801D01*
X42116321Y-93645511D01*
X42193750Y-93653137D01*
X42681250Y-93653137D01*
X42758679Y-93645511D01*
X42833132Y-93622926D01*
X42901749Y-93586249D01*
X42961891Y-93536891D01*
X43011249Y-93476749D01*
X43047926Y-93408132D01*
X43070511Y-93333679D01*
X43078137Y-93256250D01*
X43078137Y-92343750D01*
X43070511Y-92266321D01*
X43047926Y-92191868D01*
X43011249Y-92123251D01*
X42961891Y-92063109D01*
X42901749Y-92013751D01*
X42833132Y-91977074D01*
X42758679Y-91954489D01*
X42681250Y-91946863D01*
X42193750Y-91946863D01*
X42116321Y-91954489D01*
X42041868Y-91977074D01*
X41973251Y-92013751D01*
X41913109Y-92063109D01*
X41863751Y-92123251D01*
X41827074Y-92191868D01*
X41804489Y-92266321D01*
X41796863Y-92343750D01*
X41796863Y-93009585D01*
X40980057Y-93826392D01*
X40968689Y-93835722D01*
X40922451Y-93849748D01*
X40870475Y-93877529D01*
X40824918Y-93914918D01*
X40787529Y-93960475D01*
X40759748Y-94012451D01*
X40742640Y-94068849D01*
X40736863Y-94127500D01*
X40736863Y-94472500D01*
X40742640Y-94531151D01*
X40750590Y-94557358D01*
X40737103Y-94589917D01*
X40722600Y-94662829D01*
X40722600Y-94737171D01*
X40737103Y-94810083D01*
X40744054Y-94826863D01*
X40655946Y-94826863D01*
X40662897Y-94810083D01*
X40677400Y-94737171D01*
X40677400Y-94662829D01*
X40662897Y-94589917D01*
X40649410Y-94557358D01*
X40657360Y-94531151D01*
X40663137Y-94472500D01*
X40663137Y-94127500D01*
X40657360Y-94068849D01*
X40640252Y-94012451D01*
X40612471Y-93960475D01*
X40575082Y-93914918D01*
X40529525Y-93877529D01*
X40519800Y-93872331D01*
X40519800Y-93653137D01*
X40806250Y-93653137D01*
X40883679Y-93645511D01*
X40958132Y-93622926D01*
X41026749Y-93586249D01*
X41086891Y-93536891D01*
X41136249Y-93476749D01*
X41172926Y-93408132D01*
X41195511Y-93333679D01*
X41203137Y-93256250D01*
X41203137Y-92343750D01*
X41195511Y-92266321D01*
X41172926Y-92191868D01*
X41136249Y-92123251D01*
X41086891Y-92063109D01*
X41026749Y-92013751D01*
X40958132Y-91977074D01*
X40883679Y-91954489D01*
X40806250Y-91946863D01*
X40318750Y-91946863D01*
X40241321Y-91954489D01*
X40166868Y-91977074D01*
X40098251Y-92013751D01*
X40038109Y-92063109D01*
X39988751Y-92123251D01*
X39952074Y-92191868D01*
X39929489Y-92266321D01*
X39921863Y-92343750D01*
X39921863Y-93063843D01*
X39914611Y-93087749D01*
X39908727Y-93147500D01*
X39910201Y-93162468D01*
X39910200Y-93872331D01*
X39900475Y-93877529D01*
X39854918Y-93914918D01*
X39817529Y-93960475D01*
X39789748Y-94012451D01*
X39772640Y-94068849D01*
X39766863Y-94127500D01*
X39766863Y-94472500D01*
X39772640Y-94531151D01*
X39789748Y-94587549D01*
X39817529Y-94639525D01*
X39854918Y-94685082D01*
X39900475Y-94722471D01*
X39922600Y-94734297D01*
X39922600Y-94737171D01*
X39937103Y-94810083D01*
X39944054Y-94826863D01*
X39667500Y-94826863D01*
X39608849Y-94832640D01*
X39552451Y-94849748D01*
X39500475Y-94877529D01*
X39454918Y-94914918D01*
X39417529Y-94960475D01*
X39389748Y-95012451D01*
X39372640Y-95068849D01*
X39366863Y-95127500D01*
X39366863Y-95472500D01*
X39372640Y-95531151D01*
X39389748Y-95587549D01*
X39417529Y-95639525D01*
X39454918Y-95685082D01*
X39500475Y-95722471D01*
X39510201Y-95727669D01*
X39510200Y-95872331D01*
X39500475Y-95877529D01*
X39454918Y-95914918D01*
X39445840Y-95925979D01*
X39389917Y-95937103D01*
X39321234Y-95965553D01*
X39259422Y-96006854D01*
X39206854Y-96059422D01*
X39165553Y-96121234D01*
X39137103Y-96189917D01*
X39122600Y-96262829D01*
X31177400Y-96262829D01*
X31177400Y-91360367D01*
X44097600Y-91360367D01*
X44097600Y-91439633D01*
X44113064Y-91517376D01*
X44143398Y-91590608D01*
X44187436Y-91656515D01*
X44243485Y-91712564D01*
X44309392Y-91756602D01*
X44382624Y-91786936D01*
X44460367Y-91802400D01*
X44539633Y-91802400D01*
X44617376Y-91786936D01*
X44690608Y-91756602D01*
X44756515Y-91712564D01*
X44812564Y-91656515D01*
X44856602Y-91590608D01*
X44886936Y-91517376D01*
X44902400Y-91439633D01*
X44902400Y-91360367D01*
X44886936Y-91282624D01*
X44856602Y-91209392D01*
X44812564Y-91143485D01*
X44756515Y-91087436D01*
X44690608Y-91043398D01*
X44617376Y-91013064D01*
X44539633Y-90997600D01*
X44460367Y-90997600D01*
X44382624Y-91013064D01*
X44309392Y-91043398D01*
X44243485Y-91087436D01*
X44187436Y-91143485D01*
X44143398Y-91209392D01*
X44113064Y-91282624D01*
X44097600Y-91360367D01*
X31177400Y-91360367D01*
X31177400Y-87160367D01*
X41597600Y-87160367D01*
X41597600Y-87239633D01*
X41613064Y-87317376D01*
X41643398Y-87390608D01*
X41687436Y-87456515D01*
X41743485Y-87512564D01*
X41799511Y-87550000D01*
X41743485Y-87587436D01*
X41687436Y-87643485D01*
X41643398Y-87709392D01*
X41613064Y-87782624D01*
X41597600Y-87860367D01*
X41597600Y-87939633D01*
X41613064Y-88017376D01*
X41643398Y-88090608D01*
X41687436Y-88156515D01*
X41743485Y-88212564D01*
X41799511Y-88250000D01*
X41743485Y-88287436D01*
X41687436Y-88343485D01*
X41643398Y-88409392D01*
X41613064Y-88482624D01*
X41597600Y-88560367D01*
X41597600Y-88639633D01*
X41613064Y-88717376D01*
X41643398Y-88790608D01*
X41687436Y-88856515D01*
X41743485Y-88912564D01*
X41809392Y-88956602D01*
X41882624Y-88986936D01*
X41960367Y-89002400D01*
X42039633Y-89002400D01*
X42117376Y-88986936D01*
X42190608Y-88956602D01*
X42256515Y-88912564D01*
X42312564Y-88856515D01*
X42350000Y-88800489D01*
X42387436Y-88856515D01*
X42443485Y-88912564D01*
X42509392Y-88956602D01*
X42582624Y-88986936D01*
X42660367Y-89002400D01*
X42739633Y-89002400D01*
X42817376Y-88986936D01*
X42890608Y-88956602D01*
X42956515Y-88912564D01*
X43012564Y-88856515D01*
X43050000Y-88800489D01*
X43087436Y-88856515D01*
X43143485Y-88912564D01*
X43209392Y-88956602D01*
X43282624Y-88986936D01*
X43360367Y-89002400D01*
X43439633Y-89002400D01*
X43517376Y-88986936D01*
X43590608Y-88956602D01*
X43656515Y-88912564D01*
X43712564Y-88856515D01*
X43756602Y-88790608D01*
X43786936Y-88717376D01*
X43802400Y-88639633D01*
X43802400Y-88560367D01*
X43786936Y-88482624D01*
X43756602Y-88409392D01*
X43712564Y-88343485D01*
X43656515Y-88287436D01*
X43600489Y-88250000D01*
X43656515Y-88212564D01*
X43712564Y-88156515D01*
X43756602Y-88090608D01*
X43786936Y-88017376D01*
X43802400Y-87939633D01*
X43802400Y-87860367D01*
X43786936Y-87782624D01*
X43756602Y-87709392D01*
X43712564Y-87643485D01*
X43656515Y-87587436D01*
X43600489Y-87550000D01*
X43656515Y-87512564D01*
X43712564Y-87456515D01*
X43756602Y-87390608D01*
X43786936Y-87317376D01*
X43802400Y-87239633D01*
X43802400Y-87160367D01*
X43786936Y-87082624D01*
X43756602Y-87009392D01*
X43712564Y-86943485D01*
X43656515Y-86887436D01*
X43590608Y-86843398D01*
X43517376Y-86813064D01*
X43439633Y-86797600D01*
X43360367Y-86797600D01*
X43282624Y-86813064D01*
X43209392Y-86843398D01*
X43143485Y-86887436D01*
X43087436Y-86943485D01*
X43050000Y-86999511D01*
X43012564Y-86943485D01*
X42956515Y-86887436D01*
X42890608Y-86843398D01*
X42817376Y-86813064D01*
X42739633Y-86797600D01*
X42660367Y-86797600D01*
X42582624Y-86813064D01*
X42509392Y-86843398D01*
X42443485Y-86887436D01*
X42387436Y-86943485D01*
X42350000Y-86999511D01*
X42312564Y-86943485D01*
X42256515Y-86887436D01*
X42190608Y-86843398D01*
X42117376Y-86813064D01*
X42039633Y-86797600D01*
X41960367Y-86797600D01*
X41882624Y-86813064D01*
X41809392Y-86843398D01*
X41743485Y-86887436D01*
X41687436Y-86943485D01*
X41643398Y-87009392D01*
X41613064Y-87082624D01*
X41597600Y-87160367D01*
X31177400Y-87160367D01*
X31177400Y-85460367D01*
X47497600Y-85460367D01*
X47497600Y-85539633D01*
X47513064Y-85617376D01*
X47543398Y-85690608D01*
X47587436Y-85756515D01*
X47643485Y-85812564D01*
X47709392Y-85856602D01*
X47782624Y-85886936D01*
X47860367Y-85902400D01*
X47939633Y-85902400D01*
X48017376Y-85886936D01*
X48090608Y-85856602D01*
X48156515Y-85812564D01*
X48212564Y-85756515D01*
X48250000Y-85700489D01*
X48287436Y-85756515D01*
X48343485Y-85812564D01*
X48409392Y-85856602D01*
X48482624Y-85886936D01*
X48560367Y-85902400D01*
X48639633Y-85902400D01*
X48717376Y-85886936D01*
X48790608Y-85856602D01*
X48856515Y-85812564D01*
X48912564Y-85756515D01*
X48950000Y-85700489D01*
X48987436Y-85756515D01*
X49043485Y-85812564D01*
X49109392Y-85856602D01*
X49182624Y-85886936D01*
X49260367Y-85902400D01*
X49339633Y-85902400D01*
X49417376Y-85886936D01*
X49490608Y-85856602D01*
X49556515Y-85812564D01*
X49612564Y-85756515D01*
X49656602Y-85690608D01*
X49686936Y-85617376D01*
X49702400Y-85539633D01*
X49702400Y-85460367D01*
X49686936Y-85382624D01*
X49656602Y-85309392D01*
X49612564Y-85243485D01*
X49556515Y-85187436D01*
X49490608Y-85143398D01*
X49417376Y-85113064D01*
X49339633Y-85097600D01*
X49260367Y-85097600D01*
X49182624Y-85113064D01*
X49109392Y-85143398D01*
X49043485Y-85187436D01*
X48987436Y-85243485D01*
X48950000Y-85299511D01*
X48912564Y-85243485D01*
X48856515Y-85187436D01*
X48790608Y-85143398D01*
X48717376Y-85113064D01*
X48639633Y-85097600D01*
X48560367Y-85097600D01*
X48482624Y-85113064D01*
X48409392Y-85143398D01*
X48343485Y-85187436D01*
X48287436Y-85243485D01*
X48250000Y-85299511D01*
X48212564Y-85243485D01*
X48156515Y-85187436D01*
X48090608Y-85143398D01*
X48017376Y-85113064D01*
X47939633Y-85097600D01*
X47860367Y-85097600D01*
X47782624Y-85113064D01*
X47709392Y-85143398D01*
X47643485Y-85187436D01*
X47587436Y-85243485D01*
X47543398Y-85309392D01*
X47513064Y-85382624D01*
X47497600Y-85460367D01*
X31177400Y-85460367D01*
X31177400Y-83960367D01*
X44197600Y-83960367D01*
X44197600Y-84039633D01*
X44213064Y-84117376D01*
X44243398Y-84190608D01*
X44287436Y-84256515D01*
X44343485Y-84312564D01*
X44409392Y-84356602D01*
X44482624Y-84386936D01*
X44560367Y-84402400D01*
X44639633Y-84402400D01*
X44717376Y-84386936D01*
X44790608Y-84356602D01*
X44856515Y-84312564D01*
X44912564Y-84256515D01*
X44956602Y-84190608D01*
X44986936Y-84117376D01*
X45002400Y-84039633D01*
X45002400Y-83960367D01*
X44986936Y-83882624D01*
X44956602Y-83809392D01*
X44912564Y-83743485D01*
X44856515Y-83687436D01*
X44790608Y-83643398D01*
X44717376Y-83613064D01*
X44639633Y-83597600D01*
X44560367Y-83597600D01*
X44482624Y-83613064D01*
X44409392Y-83643398D01*
X44343485Y-83687436D01*
X44287436Y-83743485D01*
X44243398Y-83809392D01*
X44213064Y-83882624D01*
X44197600Y-83960367D01*
X31177400Y-83960367D01*
X31177400Y-83008673D01*
X31193900Y-82840392D01*
X31240256Y-82686854D01*
X31315548Y-82545250D01*
X31416910Y-82420968D01*
X31540484Y-82318739D01*
X31681561Y-82242459D01*
X31834762Y-82195035D01*
X32002544Y-82177400D01*
X50991327Y-82177400D01*
X51159608Y-82193900D01*
G37*
G04 #@! TD.AperFunction*
M02*
