G04 #@! TF.GenerationSoftware,KiCad,Pcbnew,(5.1.9)-1*
G04 #@! TF.CreationDate,2021-06-07T22:02:30-04:00*
G04 #@! TF.ProjectId,icepool-board,69636570-6f6f-46c2-9d62-6f6172642e6b,2020-04*
G04 #@! TF.SameCoordinates,Original*
G04 #@! TF.FileFunction,Copper,L3,Inr*
G04 #@! TF.FilePolarity,Positive*
%FSLAX46Y46*%
G04 Gerber Fmt 4.6, Leading zero omitted, Abs format (unit mm)*
G04 Created by KiCad (PCBNEW (5.1.9)-1) date 2021-06-07 22:02:30*
%MOMM*%
%LPD*%
G01*
G04 APERTURE LIST*
G04 #@! TA.AperFunction,ComponentPad*
%ADD10O,1.700000X1.700000*%
G04 #@! TD*
G04 #@! TA.AperFunction,ComponentPad*
%ADD11R,1.700000X1.700000*%
G04 #@! TD*
G04 #@! TA.AperFunction,ViaPad*
%ADD12C,0.800000*%
G04 #@! TD*
G04 #@! TA.AperFunction,ViaPad*
%ADD13C,0.450000*%
G04 #@! TD*
G04 #@! TA.AperFunction,ViaPad*
%ADD14C,0.500000*%
G04 #@! TD*
G04 #@! TA.AperFunction,Conductor*
%ADD15C,1.524000*%
G04 #@! TD*
G04 #@! TA.AperFunction,Conductor*
%ADD16C,0.762000*%
G04 #@! TD*
G04 #@! TA.AperFunction,Conductor*
%ADD17C,1.016000*%
G04 #@! TD*
G04 #@! TA.AperFunction,Conductor*
%ADD18C,0.088900*%
G04 #@! TD*
G04 #@! TA.AperFunction,Conductor*
%ADD19C,0.100000*%
G04 #@! TD*
G04 #@! TA.AperFunction,Conductor*
%ADD20C,0.101600*%
G04 #@! TD*
G04 APERTURE END LIST*
D10*
X50530000Y-111540000D03*
X50530000Y-109000000D03*
X47990000Y-111540000D03*
X47990000Y-109000000D03*
X45450000Y-111540000D03*
X45450000Y-109000000D03*
X42910000Y-111540000D03*
X42910000Y-109000000D03*
X40370000Y-111540000D03*
X40370000Y-109000000D03*
X37830000Y-111540000D03*
X37830000Y-109000000D03*
X35290000Y-111540000D03*
X35290000Y-109000000D03*
X32750000Y-111540000D03*
D11*
X32750000Y-109000000D03*
D12*
X46736000Y-110300000D03*
X46736000Y-107760000D03*
D13*
X43500000Y-95500000D03*
D12*
X49276000Y-112840000D03*
D13*
X46200000Y-100800000D03*
D12*
X49276000Y-107760000D03*
X44400000Y-85400000D03*
X49200000Y-97500000D03*
D13*
X40300000Y-98700000D03*
X41900000Y-97100000D03*
X41100000Y-96300000D03*
D14*
X41100000Y-104800000D03*
X46000000Y-88200000D03*
D13*
X41100000Y-98700000D03*
X41100000Y-97900000D03*
D12*
X46736000Y-112840000D03*
X49276000Y-110300000D03*
X48600000Y-88300000D03*
D14*
X46000000Y-89200000D03*
D12*
X49279090Y-92500000D03*
D14*
X46000000Y-87200000D03*
D13*
X41900000Y-99500000D03*
X41100000Y-97100000D03*
X41900000Y-96300000D03*
X41100000Y-99500000D03*
D14*
X44600000Y-84000000D03*
X35000000Y-100500000D03*
D13*
X41900000Y-98700000D03*
D12*
X47500000Y-98400000D03*
D14*
X49300000Y-85500000D03*
X48600000Y-85500000D03*
D13*
X39500000Y-97100000D03*
D14*
X38400000Y-104200000D03*
X35000000Y-102500000D03*
D13*
X41900000Y-95500000D03*
X46200000Y-101600000D03*
X43500000Y-97100000D03*
D14*
X47900000Y-85500000D03*
D13*
X46000000Y-94900000D03*
D14*
X44500000Y-91400000D03*
D13*
X39500000Y-98700000D03*
D14*
X43400000Y-88600000D03*
X42700000Y-88600000D03*
X43400000Y-87900000D03*
X42700000Y-87900000D03*
X42000000Y-88600000D03*
X42000000Y-87900000D03*
X42000000Y-87200000D03*
X42700000Y-87200000D03*
D13*
X43500000Y-99500000D03*
X43500000Y-96300000D03*
X39500000Y-99500000D03*
X39500000Y-96300000D03*
D14*
X43400000Y-87200000D03*
D13*
X44300000Y-94700000D03*
X41100000Y-100300000D03*
X41100000Y-101100000D03*
X40300000Y-94700000D03*
X41100000Y-94700000D03*
D14*
X35300000Y-104500000D03*
X36576000Y-107264200D03*
X43000000Y-103800000D03*
X43200000Y-106300000D03*
X39500000Y-106400000D03*
X37500004Y-102600000D03*
X36399998Y-99100000D03*
X42200000Y-103000000D03*
X42200000Y-107100000D03*
X44196000Y-105195998D03*
X42800000Y-102380013D03*
X36900000Y-102600000D03*
X38600000Y-106400000D03*
X36400000Y-99900000D03*
D15*
X42700000Y-87600000D02*
X42400000Y-87900000D01*
X43000000Y-87900000D02*
X42700000Y-87600000D01*
X43200000Y-91800000D02*
X43000000Y-91600000D01*
X42400000Y-90400000D02*
X41000000Y-91800000D01*
X43000000Y-91600000D02*
X43000000Y-87900000D01*
D16*
X44500000Y-96300000D02*
X45100000Y-95700000D01*
D15*
X41000000Y-91800000D02*
X38300000Y-94500000D01*
X42400000Y-87900000D02*
X42400000Y-90400000D01*
X38300000Y-94500000D02*
X38300000Y-97000000D01*
D16*
X39500000Y-96300000D02*
X39181802Y-96300000D01*
X43500000Y-96300000D02*
X44500000Y-96300000D01*
D15*
X43200000Y-91800000D02*
X41000000Y-91800000D01*
D16*
X39100000Y-96300000D02*
X38300000Y-95500000D01*
X39181802Y-99500000D02*
X38300000Y-98618198D01*
D15*
X44575901Y-93175901D02*
X43200000Y-91800000D01*
D16*
X44575901Y-98424099D02*
X43500000Y-99500000D01*
D17*
X44575901Y-93175901D02*
X45121901Y-93721901D01*
D16*
X38300000Y-98618198D02*
X38300000Y-95500000D01*
X39500000Y-96300000D02*
X39100000Y-96300000D01*
X39500000Y-99500000D02*
X39181802Y-99500000D01*
D17*
X45121901Y-93721901D02*
X45121901Y-97878099D01*
X45121901Y-97878099D02*
X44575901Y-98424099D01*
D18*
X43686690Y-86863310D02*
X43705550Y-86908843D01*
X43705550Y-88891157D01*
X43686690Y-88936690D01*
X43641157Y-88955550D01*
X41758843Y-88955550D01*
X41713310Y-88936690D01*
X41694450Y-88891157D01*
X41694450Y-86908843D01*
X41713310Y-86863310D01*
X41758843Y-86844450D01*
X43641157Y-86844450D01*
X43686690Y-86863310D01*
G04 #@! TA.AperFunction,Conductor*
D19*
G36*
X43686690Y-86863310D02*
G01*
X43705550Y-86908843D01*
X43705550Y-88891157D01*
X43686690Y-88936690D01*
X43641157Y-88955550D01*
X41758843Y-88955550D01*
X41713310Y-88936690D01*
X41694450Y-88891157D01*
X41694450Y-86908843D01*
X41713310Y-86863310D01*
X41758843Y-86844450D01*
X43641157Y-86844450D01*
X43686690Y-86863310D01*
G37*
G04 #@! TD.AperFunction*
D20*
X50931830Y-83068170D02*
X50949200Y-83110104D01*
X50949200Y-108094543D01*
X50879252Y-108060404D01*
X50761618Y-108024726D01*
X50606200Y-108038715D01*
X50606200Y-108923800D01*
X50626200Y-108923800D01*
X50626200Y-109076200D01*
X50606200Y-109076200D01*
X50606200Y-109961285D01*
X50761618Y-109975274D01*
X50879252Y-109939596D01*
X50949200Y-109905457D01*
X50949200Y-110634543D01*
X50879252Y-110600404D01*
X50761618Y-110564726D01*
X50606200Y-110578715D01*
X50606200Y-111463800D01*
X50626200Y-111463800D01*
X50626200Y-111616200D01*
X50606200Y-111616200D01*
X50606200Y-112501285D01*
X50761618Y-112515274D01*
X50879252Y-112479596D01*
X50949200Y-112445457D01*
X50949200Y-112889896D01*
X50931830Y-112931830D01*
X50889896Y-112949200D01*
X49817501Y-112949200D01*
X49828400Y-112894407D01*
X49828400Y-112785593D01*
X49807172Y-112678871D01*
X49765531Y-112578340D01*
X49705077Y-112487865D01*
X49628135Y-112410923D01*
X49537660Y-112350469D01*
X49437129Y-112308828D01*
X49330407Y-112287600D01*
X49221593Y-112287600D01*
X49114871Y-112308828D01*
X49014340Y-112350469D01*
X48923865Y-112410923D01*
X48846923Y-112487865D01*
X48786469Y-112578340D01*
X48744828Y-112678871D01*
X48723600Y-112785593D01*
X48723600Y-112894407D01*
X48734499Y-112949200D01*
X47277501Y-112949200D01*
X47288400Y-112894407D01*
X47288400Y-112785593D01*
X47267172Y-112678871D01*
X47225531Y-112578340D01*
X47165077Y-112487865D01*
X47088135Y-112410923D01*
X46997660Y-112350469D01*
X46897129Y-112308828D01*
X46790407Y-112287600D01*
X46681593Y-112287600D01*
X46574871Y-112308828D01*
X46474340Y-112350469D01*
X46383865Y-112410923D01*
X46306923Y-112487865D01*
X46246469Y-112578340D01*
X46204828Y-112678871D01*
X46183600Y-112785593D01*
X46183600Y-112894407D01*
X46194499Y-112949200D01*
X32110104Y-112949200D01*
X32068170Y-112931830D01*
X32050800Y-112889896D01*
X32050800Y-112258408D01*
X32111007Y-112318615D01*
X32275186Y-112428315D01*
X32457611Y-112503878D01*
X32651272Y-112542400D01*
X32848728Y-112542400D01*
X33042389Y-112503878D01*
X33224814Y-112428315D01*
X33388993Y-112318615D01*
X33528615Y-112178993D01*
X33638315Y-112014814D01*
X33713878Y-111832389D01*
X33752400Y-111638728D01*
X33752400Y-111441272D01*
X34287600Y-111441272D01*
X34287600Y-111638728D01*
X34326122Y-111832389D01*
X34401685Y-112014814D01*
X34511385Y-112178993D01*
X34651007Y-112318615D01*
X34815186Y-112428315D01*
X34997611Y-112503878D01*
X35191272Y-112542400D01*
X35388728Y-112542400D01*
X35582389Y-112503878D01*
X35764814Y-112428315D01*
X35928993Y-112318615D01*
X36068615Y-112178993D01*
X36178315Y-112014814D01*
X36253878Y-111832389D01*
X36292400Y-111638728D01*
X36292400Y-111441272D01*
X36827600Y-111441272D01*
X36827600Y-111638728D01*
X36866122Y-111832389D01*
X36941685Y-112014814D01*
X37051385Y-112178993D01*
X37191007Y-112318615D01*
X37355186Y-112428315D01*
X37537611Y-112503878D01*
X37731272Y-112542400D01*
X37928728Y-112542400D01*
X38122389Y-112503878D01*
X38304814Y-112428315D01*
X38468993Y-112318615D01*
X38608615Y-112178993D01*
X38718315Y-112014814D01*
X38793878Y-111832389D01*
X38832400Y-111638728D01*
X38832400Y-111441272D01*
X39367600Y-111441272D01*
X39367600Y-111638728D01*
X39406122Y-111832389D01*
X39481685Y-112014814D01*
X39591385Y-112178993D01*
X39731007Y-112318615D01*
X39895186Y-112428315D01*
X40077611Y-112503878D01*
X40271272Y-112542400D01*
X40468728Y-112542400D01*
X40662389Y-112503878D01*
X40844814Y-112428315D01*
X41008993Y-112318615D01*
X41148615Y-112178993D01*
X41258315Y-112014814D01*
X41333878Y-111832389D01*
X41372400Y-111638728D01*
X41372400Y-111441272D01*
X41907600Y-111441272D01*
X41907600Y-111638728D01*
X41946122Y-111832389D01*
X42021685Y-112014814D01*
X42131385Y-112178993D01*
X42271007Y-112318615D01*
X42435186Y-112428315D01*
X42617611Y-112503878D01*
X42811272Y-112542400D01*
X43008728Y-112542400D01*
X43202389Y-112503878D01*
X43384814Y-112428315D01*
X43548993Y-112318615D01*
X43688615Y-112178993D01*
X43798315Y-112014814D01*
X43873878Y-111832389D01*
X43912400Y-111638728D01*
X43912400Y-111441272D01*
X44447600Y-111441272D01*
X44447600Y-111638728D01*
X44486122Y-111832389D01*
X44561685Y-112014814D01*
X44671385Y-112178993D01*
X44811007Y-112318615D01*
X44975186Y-112428315D01*
X45157611Y-112503878D01*
X45351272Y-112542400D01*
X45548728Y-112542400D01*
X45742389Y-112503878D01*
X45924814Y-112428315D01*
X46088993Y-112318615D01*
X46228615Y-112178993D01*
X46338315Y-112014814D01*
X46413878Y-111832389D01*
X46452400Y-111638728D01*
X46452400Y-111441272D01*
X46987600Y-111441272D01*
X46987600Y-111638728D01*
X47026122Y-111832389D01*
X47101685Y-112014814D01*
X47211385Y-112178993D01*
X47351007Y-112318615D01*
X47515186Y-112428315D01*
X47697611Y-112503878D01*
X47891272Y-112542400D01*
X48088728Y-112542400D01*
X48282389Y-112503878D01*
X48464814Y-112428315D01*
X48628993Y-112318615D01*
X48768615Y-112178993D01*
X48878315Y-112014814D01*
X48953878Y-111832389D01*
X48965966Y-111771619D01*
X49554722Y-111771619D01*
X49618648Y-111957436D01*
X49717597Y-112127211D01*
X49847766Y-112274420D01*
X50004153Y-112393406D01*
X50180748Y-112479596D01*
X50298382Y-112515274D01*
X50453800Y-112501285D01*
X50453800Y-111616200D01*
X49568596Y-111616200D01*
X49554722Y-111771619D01*
X48965966Y-111771619D01*
X48992400Y-111638728D01*
X48992400Y-111441272D01*
X48965967Y-111308381D01*
X49554722Y-111308381D01*
X49568596Y-111463800D01*
X50453800Y-111463800D01*
X50453800Y-110578715D01*
X50298382Y-110564726D01*
X50180748Y-110600404D01*
X50004153Y-110686594D01*
X49847766Y-110805580D01*
X49717597Y-110952789D01*
X49618648Y-111122564D01*
X49554722Y-111308381D01*
X48965967Y-111308381D01*
X48953878Y-111247611D01*
X48878315Y-111065186D01*
X48768615Y-110901007D01*
X48628993Y-110761385D01*
X48464814Y-110651685D01*
X48282389Y-110576122D01*
X48088728Y-110537600D01*
X47891272Y-110537600D01*
X47697611Y-110576122D01*
X47515186Y-110651685D01*
X47351007Y-110761385D01*
X47211385Y-110901007D01*
X47101685Y-111065186D01*
X47026122Y-111247611D01*
X46987600Y-111441272D01*
X46452400Y-111441272D01*
X46413878Y-111247611D01*
X46338315Y-111065186D01*
X46228615Y-110901007D01*
X46088993Y-110761385D01*
X45924814Y-110651685D01*
X45742389Y-110576122D01*
X45548728Y-110537600D01*
X45351272Y-110537600D01*
X45157611Y-110576122D01*
X44975186Y-110651685D01*
X44811007Y-110761385D01*
X44671385Y-110901007D01*
X44561685Y-111065186D01*
X44486122Y-111247611D01*
X44447600Y-111441272D01*
X43912400Y-111441272D01*
X43873878Y-111247611D01*
X43798315Y-111065186D01*
X43688615Y-110901007D01*
X43548993Y-110761385D01*
X43384814Y-110651685D01*
X43202389Y-110576122D01*
X43008728Y-110537600D01*
X42811272Y-110537600D01*
X42617611Y-110576122D01*
X42435186Y-110651685D01*
X42271007Y-110761385D01*
X42131385Y-110901007D01*
X42021685Y-111065186D01*
X41946122Y-111247611D01*
X41907600Y-111441272D01*
X41372400Y-111441272D01*
X41333878Y-111247611D01*
X41258315Y-111065186D01*
X41148615Y-110901007D01*
X41008993Y-110761385D01*
X40844814Y-110651685D01*
X40662389Y-110576122D01*
X40468728Y-110537600D01*
X40271272Y-110537600D01*
X40077611Y-110576122D01*
X39895186Y-110651685D01*
X39731007Y-110761385D01*
X39591385Y-110901007D01*
X39481685Y-111065186D01*
X39406122Y-111247611D01*
X39367600Y-111441272D01*
X38832400Y-111441272D01*
X38793878Y-111247611D01*
X38718315Y-111065186D01*
X38608615Y-110901007D01*
X38468993Y-110761385D01*
X38304814Y-110651685D01*
X38122389Y-110576122D01*
X37928728Y-110537600D01*
X37731272Y-110537600D01*
X37537611Y-110576122D01*
X37355186Y-110651685D01*
X37191007Y-110761385D01*
X37051385Y-110901007D01*
X36941685Y-111065186D01*
X36866122Y-111247611D01*
X36827600Y-111441272D01*
X36292400Y-111441272D01*
X36253878Y-111247611D01*
X36178315Y-111065186D01*
X36068615Y-110901007D01*
X35928993Y-110761385D01*
X35764814Y-110651685D01*
X35582389Y-110576122D01*
X35388728Y-110537600D01*
X35191272Y-110537600D01*
X34997611Y-110576122D01*
X34815186Y-110651685D01*
X34651007Y-110761385D01*
X34511385Y-110901007D01*
X34401685Y-111065186D01*
X34326122Y-111247611D01*
X34287600Y-111441272D01*
X33752400Y-111441272D01*
X33713878Y-111247611D01*
X33638315Y-111065186D01*
X33528615Y-110901007D01*
X33388993Y-110761385D01*
X33224814Y-110651685D01*
X33042389Y-110576122D01*
X32848728Y-110537600D01*
X32651272Y-110537600D01*
X32457611Y-110576122D01*
X32275186Y-110651685D01*
X32111007Y-110761385D01*
X32050800Y-110821592D01*
X32050800Y-110245593D01*
X46183600Y-110245593D01*
X46183600Y-110354407D01*
X46204828Y-110461129D01*
X46246469Y-110561660D01*
X46306923Y-110652135D01*
X46383865Y-110729077D01*
X46474340Y-110789531D01*
X46574871Y-110831172D01*
X46681593Y-110852400D01*
X46790407Y-110852400D01*
X46897129Y-110831172D01*
X46997660Y-110789531D01*
X47088135Y-110729077D01*
X47165077Y-110652135D01*
X47225531Y-110561660D01*
X47267172Y-110461129D01*
X47288400Y-110354407D01*
X47288400Y-110245593D01*
X48723600Y-110245593D01*
X48723600Y-110354407D01*
X48744828Y-110461129D01*
X48786469Y-110561660D01*
X48846923Y-110652135D01*
X48923865Y-110729077D01*
X49014340Y-110789531D01*
X49114871Y-110831172D01*
X49221593Y-110852400D01*
X49330407Y-110852400D01*
X49437129Y-110831172D01*
X49537660Y-110789531D01*
X49628135Y-110729077D01*
X49705077Y-110652135D01*
X49765531Y-110561660D01*
X49807172Y-110461129D01*
X49828400Y-110354407D01*
X49828400Y-110245593D01*
X49807172Y-110138871D01*
X49765531Y-110038340D01*
X49705077Y-109947865D01*
X49628135Y-109870923D01*
X49537660Y-109810469D01*
X49437129Y-109768828D01*
X49330407Y-109747600D01*
X49221593Y-109747600D01*
X49114871Y-109768828D01*
X49014340Y-109810469D01*
X48923865Y-109870923D01*
X48846923Y-109947865D01*
X48786469Y-110038340D01*
X48744828Y-110138871D01*
X48723600Y-110245593D01*
X47288400Y-110245593D01*
X47267172Y-110138871D01*
X47225531Y-110038340D01*
X47165077Y-109947865D01*
X47088135Y-109870923D01*
X46997660Y-109810469D01*
X46897129Y-109768828D01*
X46790407Y-109747600D01*
X46681593Y-109747600D01*
X46574871Y-109768828D01*
X46474340Y-109810469D01*
X46383865Y-109870923D01*
X46306923Y-109947865D01*
X46246469Y-110038340D01*
X46204828Y-110138871D01*
X46183600Y-110245593D01*
X32050800Y-110245593D01*
X32050800Y-110003137D01*
X33600000Y-110003137D01*
X33629876Y-110000195D01*
X33658603Y-109991480D01*
X33685078Y-109977329D01*
X33708284Y-109958284D01*
X33727329Y-109935078D01*
X33741480Y-109908603D01*
X33750195Y-109879876D01*
X33753137Y-109850000D01*
X33753137Y-108901272D01*
X34287600Y-108901272D01*
X34287600Y-109098728D01*
X34326122Y-109292389D01*
X34401685Y-109474814D01*
X34511385Y-109638993D01*
X34651007Y-109778615D01*
X34815186Y-109888315D01*
X34997611Y-109963878D01*
X35191272Y-110002400D01*
X35388728Y-110002400D01*
X35582389Y-109963878D01*
X35764814Y-109888315D01*
X35928993Y-109778615D01*
X36068615Y-109638993D01*
X36178315Y-109474814D01*
X36253878Y-109292389D01*
X36292400Y-109098728D01*
X36292400Y-108901272D01*
X36827600Y-108901272D01*
X36827600Y-109098728D01*
X36866122Y-109292389D01*
X36941685Y-109474814D01*
X37051385Y-109638993D01*
X37191007Y-109778615D01*
X37355186Y-109888315D01*
X37537611Y-109963878D01*
X37731272Y-110002400D01*
X37928728Y-110002400D01*
X38122389Y-109963878D01*
X38304814Y-109888315D01*
X38468993Y-109778615D01*
X38608615Y-109638993D01*
X38718315Y-109474814D01*
X38793878Y-109292389D01*
X38832400Y-109098728D01*
X38832400Y-108901272D01*
X39367600Y-108901272D01*
X39367600Y-109098728D01*
X39406122Y-109292389D01*
X39481685Y-109474814D01*
X39591385Y-109638993D01*
X39731007Y-109778615D01*
X39895186Y-109888315D01*
X40077611Y-109963878D01*
X40271272Y-110002400D01*
X40468728Y-110002400D01*
X40662389Y-109963878D01*
X40844814Y-109888315D01*
X41008993Y-109778615D01*
X41148615Y-109638993D01*
X41258315Y-109474814D01*
X41333878Y-109292389D01*
X41372400Y-109098728D01*
X41372400Y-108901272D01*
X41907600Y-108901272D01*
X41907600Y-109098728D01*
X41946122Y-109292389D01*
X42021685Y-109474814D01*
X42131385Y-109638993D01*
X42271007Y-109778615D01*
X42435186Y-109888315D01*
X42617611Y-109963878D01*
X42811272Y-110002400D01*
X43008728Y-110002400D01*
X43202389Y-109963878D01*
X43384814Y-109888315D01*
X43548993Y-109778615D01*
X43688615Y-109638993D01*
X43798315Y-109474814D01*
X43873878Y-109292389D01*
X43912400Y-109098728D01*
X43912400Y-108901272D01*
X44447600Y-108901272D01*
X44447600Y-109098728D01*
X44486122Y-109292389D01*
X44561685Y-109474814D01*
X44671385Y-109638993D01*
X44811007Y-109778615D01*
X44975186Y-109888315D01*
X45157611Y-109963878D01*
X45351272Y-110002400D01*
X45548728Y-110002400D01*
X45742389Y-109963878D01*
X45924814Y-109888315D01*
X46088993Y-109778615D01*
X46228615Y-109638993D01*
X46338315Y-109474814D01*
X46413878Y-109292389D01*
X46452400Y-109098728D01*
X46452400Y-108901272D01*
X46987600Y-108901272D01*
X46987600Y-109098728D01*
X47026122Y-109292389D01*
X47101685Y-109474814D01*
X47211385Y-109638993D01*
X47351007Y-109778615D01*
X47515186Y-109888315D01*
X47697611Y-109963878D01*
X47891272Y-110002400D01*
X48088728Y-110002400D01*
X48282389Y-109963878D01*
X48464814Y-109888315D01*
X48628993Y-109778615D01*
X48768615Y-109638993D01*
X48878315Y-109474814D01*
X48953878Y-109292389D01*
X48965966Y-109231619D01*
X49554722Y-109231619D01*
X49618648Y-109417436D01*
X49717597Y-109587211D01*
X49847766Y-109734420D01*
X50004153Y-109853406D01*
X50180748Y-109939596D01*
X50298382Y-109975274D01*
X50453800Y-109961285D01*
X50453800Y-109076200D01*
X49568596Y-109076200D01*
X49554722Y-109231619D01*
X48965966Y-109231619D01*
X48992400Y-109098728D01*
X48992400Y-108901272D01*
X48965967Y-108768381D01*
X49554722Y-108768381D01*
X49568596Y-108923800D01*
X50453800Y-108923800D01*
X50453800Y-108038715D01*
X50298382Y-108024726D01*
X50180748Y-108060404D01*
X50004153Y-108146594D01*
X49847766Y-108265580D01*
X49717597Y-108412789D01*
X49618648Y-108582564D01*
X49554722Y-108768381D01*
X48965967Y-108768381D01*
X48953878Y-108707611D01*
X48878315Y-108525186D01*
X48768615Y-108361007D01*
X48628993Y-108221385D01*
X48464814Y-108111685D01*
X48282389Y-108036122D01*
X48088728Y-107997600D01*
X47891272Y-107997600D01*
X47697611Y-108036122D01*
X47515186Y-108111685D01*
X47351007Y-108221385D01*
X47211385Y-108361007D01*
X47101685Y-108525186D01*
X47026122Y-108707611D01*
X46987600Y-108901272D01*
X46452400Y-108901272D01*
X46413878Y-108707611D01*
X46338315Y-108525186D01*
X46228615Y-108361007D01*
X46088993Y-108221385D01*
X45924814Y-108111685D01*
X45742389Y-108036122D01*
X45548728Y-107997600D01*
X45351272Y-107997600D01*
X45157611Y-108036122D01*
X44975186Y-108111685D01*
X44811007Y-108221385D01*
X44671385Y-108361007D01*
X44561685Y-108525186D01*
X44486122Y-108707611D01*
X44447600Y-108901272D01*
X43912400Y-108901272D01*
X43873878Y-108707611D01*
X43798315Y-108525186D01*
X43688615Y-108361007D01*
X43548993Y-108221385D01*
X43384814Y-108111685D01*
X43202389Y-108036122D01*
X43008728Y-107997600D01*
X42811272Y-107997600D01*
X42617611Y-108036122D01*
X42435186Y-108111685D01*
X42271007Y-108221385D01*
X42131385Y-108361007D01*
X42021685Y-108525186D01*
X41946122Y-108707611D01*
X41907600Y-108901272D01*
X41372400Y-108901272D01*
X41333878Y-108707611D01*
X41258315Y-108525186D01*
X41148615Y-108361007D01*
X41008993Y-108221385D01*
X40844814Y-108111685D01*
X40662389Y-108036122D01*
X40468728Y-107997600D01*
X40271272Y-107997600D01*
X40077611Y-108036122D01*
X39895186Y-108111685D01*
X39731007Y-108221385D01*
X39591385Y-108361007D01*
X39481685Y-108525186D01*
X39406122Y-108707611D01*
X39367600Y-108901272D01*
X38832400Y-108901272D01*
X38793878Y-108707611D01*
X38718315Y-108525186D01*
X38608615Y-108361007D01*
X38468993Y-108221385D01*
X38304814Y-108111685D01*
X38122389Y-108036122D01*
X37928728Y-107997600D01*
X37731272Y-107997600D01*
X37537611Y-108036122D01*
X37355186Y-108111685D01*
X37191007Y-108221385D01*
X37051385Y-108361007D01*
X36941685Y-108525186D01*
X36866122Y-108707611D01*
X36827600Y-108901272D01*
X36292400Y-108901272D01*
X36253878Y-108707611D01*
X36178315Y-108525186D01*
X36068615Y-108361007D01*
X35928993Y-108221385D01*
X35764814Y-108111685D01*
X35582389Y-108036122D01*
X35388728Y-107997600D01*
X35191272Y-107997600D01*
X34997611Y-108036122D01*
X34815186Y-108111685D01*
X34651007Y-108221385D01*
X34511385Y-108361007D01*
X34401685Y-108525186D01*
X34326122Y-108707611D01*
X34287600Y-108901272D01*
X33753137Y-108901272D01*
X33753137Y-108150000D01*
X33750195Y-108120124D01*
X33741480Y-108091397D01*
X33727329Y-108064922D01*
X33708284Y-108041716D01*
X33685078Y-108022671D01*
X33658603Y-108008520D01*
X33629876Y-107999805D01*
X33600000Y-107996863D01*
X32050800Y-107996863D01*
X32050800Y-107705593D01*
X46183600Y-107705593D01*
X46183600Y-107814407D01*
X46204828Y-107921129D01*
X46246469Y-108021660D01*
X46306923Y-108112135D01*
X46383865Y-108189077D01*
X46474340Y-108249531D01*
X46574871Y-108291172D01*
X46681593Y-108312400D01*
X46790407Y-108312400D01*
X46897129Y-108291172D01*
X46997660Y-108249531D01*
X47088135Y-108189077D01*
X47165077Y-108112135D01*
X47225531Y-108021660D01*
X47267172Y-107921129D01*
X47288400Y-107814407D01*
X47288400Y-107705593D01*
X48723600Y-107705593D01*
X48723600Y-107814407D01*
X48744828Y-107921129D01*
X48786469Y-108021660D01*
X48846923Y-108112135D01*
X48923865Y-108189077D01*
X49014340Y-108249531D01*
X49114871Y-108291172D01*
X49221593Y-108312400D01*
X49330407Y-108312400D01*
X49437129Y-108291172D01*
X49537660Y-108249531D01*
X49628135Y-108189077D01*
X49705077Y-108112135D01*
X49765531Y-108021660D01*
X49807172Y-107921129D01*
X49828400Y-107814407D01*
X49828400Y-107705593D01*
X49807172Y-107598871D01*
X49765531Y-107498340D01*
X49705077Y-107407865D01*
X49628135Y-107330923D01*
X49537660Y-107270469D01*
X49437129Y-107228828D01*
X49330407Y-107207600D01*
X49221593Y-107207600D01*
X49114871Y-107228828D01*
X49014340Y-107270469D01*
X48923865Y-107330923D01*
X48846923Y-107407865D01*
X48786469Y-107498340D01*
X48744828Y-107598871D01*
X48723600Y-107705593D01*
X47288400Y-107705593D01*
X47267172Y-107598871D01*
X47225531Y-107498340D01*
X47165077Y-107407865D01*
X47088135Y-107330923D01*
X46997660Y-107270469D01*
X46897129Y-107228828D01*
X46790407Y-107207600D01*
X46681593Y-107207600D01*
X46574871Y-107228828D01*
X46474340Y-107270469D01*
X46383865Y-107330923D01*
X46306923Y-107407865D01*
X46246469Y-107498340D01*
X46204828Y-107598871D01*
X46183600Y-107705593D01*
X32050800Y-107705593D01*
X32050800Y-107224567D01*
X36173600Y-107224567D01*
X36173600Y-107303833D01*
X36189064Y-107381576D01*
X36219398Y-107454808D01*
X36263436Y-107520715D01*
X36319485Y-107576764D01*
X36385392Y-107620802D01*
X36458624Y-107651136D01*
X36536367Y-107666600D01*
X36615633Y-107666600D01*
X36693376Y-107651136D01*
X36766608Y-107620802D01*
X36832515Y-107576764D01*
X36888564Y-107520715D01*
X36932602Y-107454808D01*
X36962936Y-107381576D01*
X36978400Y-107303833D01*
X36978400Y-107224567D01*
X36962936Y-107146824D01*
X36932602Y-107073592D01*
X36923766Y-107060367D01*
X41797600Y-107060367D01*
X41797600Y-107139633D01*
X41813064Y-107217376D01*
X41843398Y-107290608D01*
X41887436Y-107356515D01*
X41943485Y-107412564D01*
X42009392Y-107456602D01*
X42082624Y-107486936D01*
X42160367Y-107502400D01*
X42239633Y-107502400D01*
X42317376Y-107486936D01*
X42390608Y-107456602D01*
X42456515Y-107412564D01*
X42512564Y-107356515D01*
X42556602Y-107290608D01*
X42586936Y-107217376D01*
X42602400Y-107139633D01*
X42602400Y-107060367D01*
X42586936Y-106982624D01*
X42556602Y-106909392D01*
X42512564Y-106843485D01*
X42456515Y-106787436D01*
X42390608Y-106743398D01*
X42317376Y-106713064D01*
X42239633Y-106697600D01*
X42160367Y-106697600D01*
X42082624Y-106713064D01*
X42009392Y-106743398D01*
X41943485Y-106787436D01*
X41887436Y-106843485D01*
X41843398Y-106909392D01*
X41813064Y-106982624D01*
X41797600Y-107060367D01*
X36923766Y-107060367D01*
X36888564Y-107007685D01*
X36832515Y-106951636D01*
X36766608Y-106907598D01*
X36693376Y-106877264D01*
X36615633Y-106861800D01*
X36536367Y-106861800D01*
X36458624Y-106877264D01*
X36385392Y-106907598D01*
X36319485Y-106951636D01*
X36263436Y-107007685D01*
X36219398Y-107073592D01*
X36189064Y-107146824D01*
X36173600Y-107224567D01*
X32050800Y-107224567D01*
X32050800Y-106360367D01*
X38197600Y-106360367D01*
X38197600Y-106439633D01*
X38213064Y-106517376D01*
X38243398Y-106590608D01*
X38287436Y-106656515D01*
X38343485Y-106712564D01*
X38409392Y-106756602D01*
X38482624Y-106786936D01*
X38560367Y-106802400D01*
X38639633Y-106802400D01*
X38717376Y-106786936D01*
X38790608Y-106756602D01*
X38856515Y-106712564D01*
X38912564Y-106656515D01*
X38956602Y-106590608D01*
X38986936Y-106517376D01*
X39002400Y-106439633D01*
X39002400Y-106360367D01*
X39097600Y-106360367D01*
X39097600Y-106439633D01*
X39113064Y-106517376D01*
X39143398Y-106590608D01*
X39187436Y-106656515D01*
X39243485Y-106712564D01*
X39309392Y-106756602D01*
X39382624Y-106786936D01*
X39460367Y-106802400D01*
X39539633Y-106802400D01*
X39617376Y-106786936D01*
X39690608Y-106756602D01*
X39756515Y-106712564D01*
X39812564Y-106656515D01*
X39856602Y-106590608D01*
X39886936Y-106517376D01*
X39902400Y-106439633D01*
X39902400Y-106360367D01*
X39886936Y-106282624D01*
X39877717Y-106260367D01*
X42797600Y-106260367D01*
X42797600Y-106339633D01*
X42813064Y-106417376D01*
X42843398Y-106490608D01*
X42887436Y-106556515D01*
X42943485Y-106612564D01*
X43009392Y-106656602D01*
X43082624Y-106686936D01*
X43160367Y-106702400D01*
X43239633Y-106702400D01*
X43317376Y-106686936D01*
X43390608Y-106656602D01*
X43456515Y-106612564D01*
X43512564Y-106556515D01*
X43556602Y-106490608D01*
X43586936Y-106417376D01*
X43602400Y-106339633D01*
X43602400Y-106260367D01*
X43586936Y-106182624D01*
X43556602Y-106109392D01*
X43512564Y-106043485D01*
X43456515Y-105987436D01*
X43390608Y-105943398D01*
X43317376Y-105913064D01*
X43239633Y-105897600D01*
X43160367Y-105897600D01*
X43082624Y-105913064D01*
X43009392Y-105943398D01*
X42943485Y-105987436D01*
X42887436Y-106043485D01*
X42843398Y-106109392D01*
X42813064Y-106182624D01*
X42797600Y-106260367D01*
X39877717Y-106260367D01*
X39856602Y-106209392D01*
X39812564Y-106143485D01*
X39756515Y-106087436D01*
X39690608Y-106043398D01*
X39617376Y-106013064D01*
X39539633Y-105997600D01*
X39460367Y-105997600D01*
X39382624Y-106013064D01*
X39309392Y-106043398D01*
X39243485Y-106087436D01*
X39187436Y-106143485D01*
X39143398Y-106209392D01*
X39113064Y-106282624D01*
X39097600Y-106360367D01*
X39002400Y-106360367D01*
X38986936Y-106282624D01*
X38956602Y-106209392D01*
X38912564Y-106143485D01*
X38856515Y-106087436D01*
X38790608Y-106043398D01*
X38717376Y-106013064D01*
X38639633Y-105997600D01*
X38560367Y-105997600D01*
X38482624Y-106013064D01*
X38409392Y-106043398D01*
X38343485Y-106087436D01*
X38287436Y-106143485D01*
X38243398Y-106209392D01*
X38213064Y-106282624D01*
X38197600Y-106360367D01*
X32050800Y-106360367D01*
X32050800Y-104460367D01*
X34897600Y-104460367D01*
X34897600Y-104539633D01*
X34913064Y-104617376D01*
X34943398Y-104690608D01*
X34987436Y-104756515D01*
X35043485Y-104812564D01*
X35109392Y-104856602D01*
X35182624Y-104886936D01*
X35260367Y-104902400D01*
X35339633Y-104902400D01*
X35417376Y-104886936D01*
X35490608Y-104856602D01*
X35556515Y-104812564D01*
X35608712Y-104760367D01*
X40697600Y-104760367D01*
X40697600Y-104839633D01*
X40713064Y-104917376D01*
X40743398Y-104990608D01*
X40787436Y-105056515D01*
X40843485Y-105112564D01*
X40909392Y-105156602D01*
X40982624Y-105186936D01*
X41060367Y-105202400D01*
X41139633Y-105202400D01*
X41217376Y-105186936D01*
X41290608Y-105156602D01*
X41290962Y-105156365D01*
X43793600Y-105156365D01*
X43793600Y-105235631D01*
X43809064Y-105313374D01*
X43839398Y-105386606D01*
X43883436Y-105452513D01*
X43939485Y-105508562D01*
X44005392Y-105552600D01*
X44078624Y-105582934D01*
X44156367Y-105598398D01*
X44235633Y-105598398D01*
X44313376Y-105582934D01*
X44386608Y-105552600D01*
X44452515Y-105508562D01*
X44508564Y-105452513D01*
X44552602Y-105386606D01*
X44582936Y-105313374D01*
X44598400Y-105235631D01*
X44598400Y-105156365D01*
X44582936Y-105078622D01*
X44552602Y-105005390D01*
X44508564Y-104939483D01*
X44452515Y-104883434D01*
X44386608Y-104839396D01*
X44313376Y-104809062D01*
X44235633Y-104793598D01*
X44156367Y-104793598D01*
X44078624Y-104809062D01*
X44005392Y-104839396D01*
X43939485Y-104883434D01*
X43883436Y-104939483D01*
X43839398Y-105005390D01*
X43809064Y-105078622D01*
X43793600Y-105156365D01*
X41290962Y-105156365D01*
X41356515Y-105112564D01*
X41412564Y-105056515D01*
X41456602Y-104990608D01*
X41486936Y-104917376D01*
X41502400Y-104839633D01*
X41502400Y-104760367D01*
X41486936Y-104682624D01*
X41456602Y-104609392D01*
X41412564Y-104543485D01*
X41356515Y-104487436D01*
X41290608Y-104443398D01*
X41217376Y-104413064D01*
X41139633Y-104397600D01*
X41060367Y-104397600D01*
X40982624Y-104413064D01*
X40909392Y-104443398D01*
X40843485Y-104487436D01*
X40787436Y-104543485D01*
X40743398Y-104609392D01*
X40713064Y-104682624D01*
X40697600Y-104760367D01*
X35608712Y-104760367D01*
X35612564Y-104756515D01*
X35656602Y-104690608D01*
X35686936Y-104617376D01*
X35702400Y-104539633D01*
X35702400Y-104460367D01*
X35686936Y-104382624D01*
X35656602Y-104309392D01*
X35612564Y-104243485D01*
X35556515Y-104187436D01*
X35490608Y-104143398D01*
X35417376Y-104113064D01*
X35339633Y-104097600D01*
X35260367Y-104097600D01*
X35182624Y-104113064D01*
X35109392Y-104143398D01*
X35043485Y-104187436D01*
X34987436Y-104243485D01*
X34943398Y-104309392D01*
X34913064Y-104382624D01*
X34897600Y-104460367D01*
X32050800Y-104460367D01*
X32050800Y-103760367D01*
X42597600Y-103760367D01*
X42597600Y-103839633D01*
X42613064Y-103917376D01*
X42643398Y-103990608D01*
X42687436Y-104056515D01*
X42743485Y-104112564D01*
X42809392Y-104156602D01*
X42882624Y-104186936D01*
X42960367Y-104202400D01*
X43039633Y-104202400D01*
X43117376Y-104186936D01*
X43190608Y-104156602D01*
X43256515Y-104112564D01*
X43312564Y-104056515D01*
X43356602Y-103990608D01*
X43386936Y-103917376D01*
X43402400Y-103839633D01*
X43402400Y-103760367D01*
X43386936Y-103682624D01*
X43356602Y-103609392D01*
X43312564Y-103543485D01*
X43256515Y-103487436D01*
X43190608Y-103443398D01*
X43117376Y-103413064D01*
X43039633Y-103397600D01*
X42960367Y-103397600D01*
X42882624Y-103413064D01*
X42809392Y-103443398D01*
X42743485Y-103487436D01*
X42687436Y-103543485D01*
X42643398Y-103609392D01*
X42613064Y-103682624D01*
X42597600Y-103760367D01*
X32050800Y-103760367D01*
X32050800Y-102560367D01*
X36497600Y-102560367D01*
X36497600Y-102639633D01*
X36513064Y-102717376D01*
X36543398Y-102790608D01*
X36587436Y-102856515D01*
X36643485Y-102912564D01*
X36709392Y-102956602D01*
X36782624Y-102986936D01*
X36860367Y-103002400D01*
X36939633Y-103002400D01*
X37017376Y-102986936D01*
X37090608Y-102956602D01*
X37156515Y-102912564D01*
X37200002Y-102869077D01*
X37243489Y-102912564D01*
X37309396Y-102956602D01*
X37382628Y-102986936D01*
X37460371Y-103002400D01*
X37539637Y-103002400D01*
X37617380Y-102986936D01*
X37681522Y-102960367D01*
X41797600Y-102960367D01*
X41797600Y-103039633D01*
X41813064Y-103117376D01*
X41843398Y-103190608D01*
X41887436Y-103256515D01*
X41943485Y-103312564D01*
X42009392Y-103356602D01*
X42082624Y-103386936D01*
X42160367Y-103402400D01*
X42239633Y-103402400D01*
X42317376Y-103386936D01*
X42390608Y-103356602D01*
X42456515Y-103312564D01*
X42512564Y-103256515D01*
X42556602Y-103190608D01*
X42586936Y-103117376D01*
X42602400Y-103039633D01*
X42602400Y-102960367D01*
X42586936Y-102882624D01*
X42556602Y-102809392D01*
X42512564Y-102743485D01*
X42456515Y-102687436D01*
X42390608Y-102643398D01*
X42317376Y-102613064D01*
X42239633Y-102597600D01*
X42160367Y-102597600D01*
X42082624Y-102613064D01*
X42009392Y-102643398D01*
X41943485Y-102687436D01*
X41887436Y-102743485D01*
X41843398Y-102809392D01*
X41813064Y-102882624D01*
X41797600Y-102960367D01*
X37681522Y-102960367D01*
X37690612Y-102956602D01*
X37756519Y-102912564D01*
X37812568Y-102856515D01*
X37856606Y-102790608D01*
X37886940Y-102717376D01*
X37902404Y-102639633D01*
X37902404Y-102560367D01*
X37886940Y-102482624D01*
X37856606Y-102409392D01*
X37812568Y-102343485D01*
X37809463Y-102340380D01*
X42397600Y-102340380D01*
X42397600Y-102419646D01*
X42413064Y-102497389D01*
X42443398Y-102570621D01*
X42487436Y-102636528D01*
X42543485Y-102692577D01*
X42609392Y-102736615D01*
X42682624Y-102766949D01*
X42760367Y-102782413D01*
X42839633Y-102782413D01*
X42917376Y-102766949D01*
X42990608Y-102736615D01*
X43056515Y-102692577D01*
X43112564Y-102636528D01*
X43156602Y-102570621D01*
X43186936Y-102497389D01*
X43202400Y-102419646D01*
X43202400Y-102340380D01*
X43186936Y-102262637D01*
X43156602Y-102189405D01*
X43112564Y-102123498D01*
X43056515Y-102067449D01*
X42990608Y-102023411D01*
X42917376Y-101993077D01*
X42839633Y-101977613D01*
X42760367Y-101977613D01*
X42682624Y-101993077D01*
X42609392Y-102023411D01*
X42543485Y-102067449D01*
X42487436Y-102123498D01*
X42443398Y-102189405D01*
X42413064Y-102262637D01*
X42397600Y-102340380D01*
X37809463Y-102340380D01*
X37756519Y-102287436D01*
X37690612Y-102243398D01*
X37617380Y-102213064D01*
X37539637Y-102197600D01*
X37460371Y-102197600D01*
X37382628Y-102213064D01*
X37309396Y-102243398D01*
X37243489Y-102287436D01*
X37200002Y-102330923D01*
X37156515Y-102287436D01*
X37090608Y-102243398D01*
X37017376Y-102213064D01*
X36939633Y-102197600D01*
X36860367Y-102197600D01*
X36782624Y-102213064D01*
X36709392Y-102243398D01*
X36643485Y-102287436D01*
X36587436Y-102343485D01*
X36543398Y-102409392D01*
X36513064Y-102482624D01*
X36497600Y-102560367D01*
X32050800Y-102560367D01*
X32050800Y-101062829D01*
X40722600Y-101062829D01*
X40722600Y-101137171D01*
X40737103Y-101210083D01*
X40765553Y-101278766D01*
X40806854Y-101340578D01*
X40859422Y-101393146D01*
X40921234Y-101434447D01*
X40989917Y-101462897D01*
X41062829Y-101477400D01*
X41137171Y-101477400D01*
X41210083Y-101462897D01*
X41278766Y-101434447D01*
X41340578Y-101393146D01*
X41393146Y-101340578D01*
X41434447Y-101278766D01*
X41462897Y-101210083D01*
X41477400Y-101137171D01*
X41477400Y-101062829D01*
X41462897Y-100989917D01*
X41434447Y-100921234D01*
X41393146Y-100859422D01*
X41340578Y-100806854D01*
X41278766Y-100765553D01*
X41272190Y-100762829D01*
X45822600Y-100762829D01*
X45822600Y-100837171D01*
X45837103Y-100910083D01*
X45865553Y-100978766D01*
X45906854Y-101040578D01*
X45959422Y-101093146D01*
X46021234Y-101134447D01*
X46089917Y-101162897D01*
X46162829Y-101177400D01*
X46237171Y-101177400D01*
X46310083Y-101162897D01*
X46378766Y-101134447D01*
X46440578Y-101093146D01*
X46493146Y-101040578D01*
X46534447Y-100978766D01*
X46562897Y-100910083D01*
X46577400Y-100837171D01*
X46577400Y-100762829D01*
X46562897Y-100689917D01*
X46534447Y-100621234D01*
X46493146Y-100559422D01*
X46440578Y-100506854D01*
X46378766Y-100465553D01*
X46310083Y-100437103D01*
X46237171Y-100422600D01*
X46162829Y-100422600D01*
X46089917Y-100437103D01*
X46021234Y-100465553D01*
X45959422Y-100506854D01*
X45906854Y-100559422D01*
X45865553Y-100621234D01*
X45837103Y-100689917D01*
X45822600Y-100762829D01*
X41272190Y-100762829D01*
X41210083Y-100737103D01*
X41137171Y-100722600D01*
X41062829Y-100722600D01*
X40989917Y-100737103D01*
X40921234Y-100765553D01*
X40859422Y-100806854D01*
X40806854Y-100859422D01*
X40765553Y-100921234D01*
X40737103Y-100989917D01*
X40722600Y-101062829D01*
X32050800Y-101062829D01*
X32050800Y-99060367D01*
X35997598Y-99060367D01*
X35997598Y-99139633D01*
X36013062Y-99217376D01*
X36043396Y-99290608D01*
X36087434Y-99356515D01*
X36143483Y-99412564D01*
X36209390Y-99456602D01*
X36282622Y-99486936D01*
X36348300Y-99500000D01*
X36282624Y-99513064D01*
X36209392Y-99543398D01*
X36143485Y-99587436D01*
X36087436Y-99643485D01*
X36043398Y-99709392D01*
X36013064Y-99782624D01*
X35997600Y-99860367D01*
X35997600Y-99939633D01*
X36013064Y-100017376D01*
X36043398Y-100090608D01*
X36087436Y-100156515D01*
X36143485Y-100212564D01*
X36209392Y-100256602D01*
X36282624Y-100286936D01*
X36360367Y-100302400D01*
X36439633Y-100302400D01*
X36517376Y-100286936D01*
X36575574Y-100262829D01*
X40722600Y-100262829D01*
X40722600Y-100337171D01*
X40737103Y-100410083D01*
X40765553Y-100478766D01*
X40806854Y-100540578D01*
X40859422Y-100593146D01*
X40921234Y-100634447D01*
X40989917Y-100662897D01*
X41062829Y-100677400D01*
X41137171Y-100677400D01*
X41210083Y-100662897D01*
X41278766Y-100634447D01*
X41340578Y-100593146D01*
X41393146Y-100540578D01*
X41434447Y-100478766D01*
X41462897Y-100410083D01*
X41477400Y-100337171D01*
X41477400Y-100262829D01*
X41462897Y-100189917D01*
X41434447Y-100121234D01*
X41393146Y-100059422D01*
X41340578Y-100006854D01*
X41278766Y-99965553D01*
X41210083Y-99937103D01*
X41137171Y-99922600D01*
X41062829Y-99922600D01*
X40989917Y-99937103D01*
X40921234Y-99965553D01*
X40859422Y-100006854D01*
X40806854Y-100059422D01*
X40765553Y-100121234D01*
X40737103Y-100189917D01*
X40722600Y-100262829D01*
X36575574Y-100262829D01*
X36590608Y-100256602D01*
X36656515Y-100212564D01*
X36712564Y-100156515D01*
X36756602Y-100090608D01*
X36786936Y-100017376D01*
X36802400Y-99939633D01*
X36802400Y-99860367D01*
X36786936Y-99782624D01*
X36756602Y-99709392D01*
X36712564Y-99643485D01*
X36656515Y-99587436D01*
X36590608Y-99543398D01*
X36517376Y-99513064D01*
X36451698Y-99500000D01*
X36517374Y-99486936D01*
X36590606Y-99456602D01*
X36656513Y-99412564D01*
X36712562Y-99356515D01*
X36756600Y-99290608D01*
X36786934Y-99217376D01*
X36802398Y-99139633D01*
X36802398Y-99060367D01*
X36786934Y-98982624D01*
X36756600Y-98909392D01*
X36712562Y-98843485D01*
X36656513Y-98787436D01*
X36590606Y-98743398D01*
X36517374Y-98713064D01*
X36439631Y-98697600D01*
X36360365Y-98697600D01*
X36282622Y-98713064D01*
X36209390Y-98743398D01*
X36143483Y-98787436D01*
X36087434Y-98843485D01*
X36043396Y-98909392D01*
X36013062Y-98982624D01*
X35997598Y-99060367D01*
X32050800Y-99060367D01*
X32050800Y-94500000D01*
X37381176Y-94500000D01*
X37385600Y-94544915D01*
X37385601Y-97044918D01*
X37398832Y-97179254D01*
X37451118Y-97351619D01*
X37536027Y-97510471D01*
X37650294Y-97649707D01*
X37766600Y-97745156D01*
X37766600Y-98592011D01*
X37764021Y-98618198D01*
X37766600Y-98644385D01*
X37766600Y-98644392D01*
X37774319Y-98722762D01*
X37804819Y-98823308D01*
X37854349Y-98915973D01*
X37921005Y-98997193D01*
X37941354Y-99013893D01*
X38786111Y-99858651D01*
X38802807Y-99878995D01*
X38884027Y-99945651D01*
X38976691Y-99995181D01*
X39077237Y-100025681D01*
X39155607Y-100033400D01*
X39155614Y-100033400D01*
X39181801Y-100035979D01*
X39207988Y-100033400D01*
X39526195Y-100033400D01*
X39604565Y-100025681D01*
X39705111Y-99995181D01*
X39797775Y-99945651D01*
X39878995Y-99878995D01*
X39945651Y-99797775D01*
X39995181Y-99705111D01*
X40025681Y-99604565D01*
X40035980Y-99500000D01*
X40032319Y-99462829D01*
X40722600Y-99462829D01*
X40722600Y-99537171D01*
X40737103Y-99610083D01*
X40765553Y-99678766D01*
X40806854Y-99740578D01*
X40859422Y-99793146D01*
X40921234Y-99834447D01*
X40989917Y-99862897D01*
X41062829Y-99877400D01*
X41137171Y-99877400D01*
X41210083Y-99862897D01*
X41278766Y-99834447D01*
X41340578Y-99793146D01*
X41393146Y-99740578D01*
X41434447Y-99678766D01*
X41462897Y-99610083D01*
X41477400Y-99537171D01*
X41477400Y-99462829D01*
X41522600Y-99462829D01*
X41522600Y-99537171D01*
X41537103Y-99610083D01*
X41565553Y-99678766D01*
X41606854Y-99740578D01*
X41659422Y-99793146D01*
X41721234Y-99834447D01*
X41789917Y-99862897D01*
X41862829Y-99877400D01*
X41937171Y-99877400D01*
X42010083Y-99862897D01*
X42078766Y-99834447D01*
X42140578Y-99793146D01*
X42193146Y-99740578D01*
X42234447Y-99678766D01*
X42262897Y-99610083D01*
X42277400Y-99537171D01*
X42277400Y-99462829D01*
X42262897Y-99389917D01*
X42234447Y-99321234D01*
X42193146Y-99259422D01*
X42140578Y-99206854D01*
X42078766Y-99165553D01*
X42010083Y-99137103D01*
X41937171Y-99122600D01*
X41862829Y-99122600D01*
X41789917Y-99137103D01*
X41721234Y-99165553D01*
X41659422Y-99206854D01*
X41606854Y-99259422D01*
X41565553Y-99321234D01*
X41537103Y-99389917D01*
X41522600Y-99462829D01*
X41477400Y-99462829D01*
X41462897Y-99389917D01*
X41434447Y-99321234D01*
X41393146Y-99259422D01*
X41340578Y-99206854D01*
X41278766Y-99165553D01*
X41210083Y-99137103D01*
X41137171Y-99122600D01*
X41062829Y-99122600D01*
X40989917Y-99137103D01*
X40921234Y-99165553D01*
X40859422Y-99206854D01*
X40806854Y-99259422D01*
X40765553Y-99321234D01*
X40737103Y-99389917D01*
X40722600Y-99462829D01*
X40032319Y-99462829D01*
X40025681Y-99395435D01*
X39995181Y-99294889D01*
X39945651Y-99202225D01*
X39878995Y-99121005D01*
X39797775Y-99054349D01*
X39705111Y-99004819D01*
X39604565Y-98974319D01*
X39526195Y-98966600D01*
X39402744Y-98966600D01*
X39098973Y-98662829D01*
X39922600Y-98662829D01*
X39922600Y-98737171D01*
X39937103Y-98810083D01*
X39965553Y-98878766D01*
X40006854Y-98940578D01*
X40059422Y-98993146D01*
X40121234Y-99034447D01*
X40189917Y-99062897D01*
X40262829Y-99077400D01*
X40337171Y-99077400D01*
X40410083Y-99062897D01*
X40478766Y-99034447D01*
X40540578Y-98993146D01*
X40593146Y-98940578D01*
X40634447Y-98878766D01*
X40662897Y-98810083D01*
X40677400Y-98737171D01*
X40677400Y-98662829D01*
X40722600Y-98662829D01*
X40722600Y-98737171D01*
X40737103Y-98810083D01*
X40765553Y-98878766D01*
X40806854Y-98940578D01*
X40859422Y-98993146D01*
X40921234Y-99034447D01*
X40989917Y-99062897D01*
X41062829Y-99077400D01*
X41137171Y-99077400D01*
X41210083Y-99062897D01*
X41278766Y-99034447D01*
X41340578Y-98993146D01*
X41393146Y-98940578D01*
X41434447Y-98878766D01*
X41462897Y-98810083D01*
X41477400Y-98737171D01*
X41477400Y-98662829D01*
X41462897Y-98589917D01*
X41434447Y-98521234D01*
X41393146Y-98459422D01*
X41340578Y-98406854D01*
X41278766Y-98365553D01*
X41210083Y-98337103D01*
X41137171Y-98322600D01*
X41062829Y-98322600D01*
X40989917Y-98337103D01*
X40921234Y-98365553D01*
X40859422Y-98406854D01*
X40806854Y-98459422D01*
X40765553Y-98521234D01*
X40737103Y-98589917D01*
X40722600Y-98662829D01*
X40677400Y-98662829D01*
X40662897Y-98589917D01*
X40634447Y-98521234D01*
X40593146Y-98459422D01*
X40540578Y-98406854D01*
X40478766Y-98365553D01*
X40410083Y-98337103D01*
X40337171Y-98322600D01*
X40262829Y-98322600D01*
X40189917Y-98337103D01*
X40121234Y-98365553D01*
X40059422Y-98406854D01*
X40006854Y-98459422D01*
X39965553Y-98521234D01*
X39937103Y-98589917D01*
X39922600Y-98662829D01*
X39098973Y-98662829D01*
X38833400Y-98397257D01*
X38833400Y-97862829D01*
X40722600Y-97862829D01*
X40722600Y-97937171D01*
X40737103Y-98010083D01*
X40765553Y-98078766D01*
X40806854Y-98140578D01*
X40859422Y-98193146D01*
X40921234Y-98234447D01*
X40989917Y-98262897D01*
X41062829Y-98277400D01*
X41137171Y-98277400D01*
X41210083Y-98262897D01*
X41278766Y-98234447D01*
X41340578Y-98193146D01*
X41393146Y-98140578D01*
X41434447Y-98078766D01*
X41462897Y-98010083D01*
X41477400Y-97937171D01*
X41477400Y-97862829D01*
X41462897Y-97789917D01*
X41434447Y-97721234D01*
X41393146Y-97659422D01*
X41340578Y-97606854D01*
X41278766Y-97565553D01*
X41210083Y-97537103D01*
X41137171Y-97522600D01*
X41062829Y-97522600D01*
X40989917Y-97537103D01*
X40921234Y-97565553D01*
X40859422Y-97606854D01*
X40806854Y-97659422D01*
X40765553Y-97721234D01*
X40737103Y-97789917D01*
X40722600Y-97862829D01*
X38833400Y-97862829D01*
X38833400Y-97745157D01*
X38949707Y-97649707D01*
X39063974Y-97510471D01*
X39148883Y-97351619D01*
X39201169Y-97179254D01*
X39212635Y-97062829D01*
X40722600Y-97062829D01*
X40722600Y-97137171D01*
X40737103Y-97210083D01*
X40765553Y-97278766D01*
X40806854Y-97340578D01*
X40859422Y-97393146D01*
X40921234Y-97434447D01*
X40989917Y-97462897D01*
X41062829Y-97477400D01*
X41137171Y-97477400D01*
X41210083Y-97462897D01*
X41278766Y-97434447D01*
X41340578Y-97393146D01*
X41393146Y-97340578D01*
X41434447Y-97278766D01*
X41462897Y-97210083D01*
X41477400Y-97137171D01*
X41477400Y-97062829D01*
X41522600Y-97062829D01*
X41522600Y-97137171D01*
X41537103Y-97210083D01*
X41565553Y-97278766D01*
X41606854Y-97340578D01*
X41659422Y-97393146D01*
X41721234Y-97434447D01*
X41789917Y-97462897D01*
X41862829Y-97477400D01*
X41937171Y-97477400D01*
X42010083Y-97462897D01*
X42078766Y-97434447D01*
X42140578Y-97393146D01*
X42193146Y-97340578D01*
X42234447Y-97278766D01*
X42262897Y-97210083D01*
X42277400Y-97137171D01*
X42277400Y-97062829D01*
X42262897Y-96989917D01*
X42234447Y-96921234D01*
X42193146Y-96859422D01*
X42140578Y-96806854D01*
X42078766Y-96765553D01*
X42010083Y-96737103D01*
X41937171Y-96722600D01*
X41862829Y-96722600D01*
X41789917Y-96737103D01*
X41721234Y-96765553D01*
X41659422Y-96806854D01*
X41606854Y-96859422D01*
X41565553Y-96921234D01*
X41537103Y-96989917D01*
X41522600Y-97062829D01*
X41477400Y-97062829D01*
X41462897Y-96989917D01*
X41434447Y-96921234D01*
X41393146Y-96859422D01*
X41340578Y-96806854D01*
X41278766Y-96765553D01*
X41210083Y-96737103D01*
X41137171Y-96722600D01*
X41062829Y-96722600D01*
X40989917Y-96737103D01*
X40921234Y-96765553D01*
X40859422Y-96806854D01*
X40806854Y-96859422D01*
X40765553Y-96921234D01*
X40737103Y-96989917D01*
X40722600Y-97062829D01*
X39212635Y-97062829D01*
X39214400Y-97044918D01*
X39214400Y-96833400D01*
X39526195Y-96833400D01*
X39604565Y-96825681D01*
X39705111Y-96795181D01*
X39797775Y-96745651D01*
X39878995Y-96678995D01*
X39945651Y-96597775D01*
X39995181Y-96505111D01*
X40025681Y-96404565D01*
X40035980Y-96300000D01*
X40032319Y-96262829D01*
X40722600Y-96262829D01*
X40722600Y-96337171D01*
X40737103Y-96410083D01*
X40765553Y-96478766D01*
X40806854Y-96540578D01*
X40859422Y-96593146D01*
X40921234Y-96634447D01*
X40989917Y-96662897D01*
X41062829Y-96677400D01*
X41137171Y-96677400D01*
X41210083Y-96662897D01*
X41278766Y-96634447D01*
X41340578Y-96593146D01*
X41393146Y-96540578D01*
X41434447Y-96478766D01*
X41462897Y-96410083D01*
X41477400Y-96337171D01*
X41477400Y-96262829D01*
X41522600Y-96262829D01*
X41522600Y-96337171D01*
X41537103Y-96410083D01*
X41565553Y-96478766D01*
X41606854Y-96540578D01*
X41659422Y-96593146D01*
X41721234Y-96634447D01*
X41789917Y-96662897D01*
X41862829Y-96677400D01*
X41937171Y-96677400D01*
X42010083Y-96662897D01*
X42078766Y-96634447D01*
X42140578Y-96593146D01*
X42193146Y-96540578D01*
X42234447Y-96478766D01*
X42262897Y-96410083D01*
X42277400Y-96337171D01*
X42277400Y-96262829D01*
X42262897Y-96189917D01*
X42234447Y-96121234D01*
X42193146Y-96059422D01*
X42140578Y-96006854D01*
X42078766Y-95965553D01*
X42010083Y-95937103D01*
X41937171Y-95922600D01*
X41862829Y-95922600D01*
X41789917Y-95937103D01*
X41721234Y-95965553D01*
X41659422Y-96006854D01*
X41606854Y-96059422D01*
X41565553Y-96121234D01*
X41537103Y-96189917D01*
X41522600Y-96262829D01*
X41477400Y-96262829D01*
X41462897Y-96189917D01*
X41434447Y-96121234D01*
X41393146Y-96059422D01*
X41340578Y-96006854D01*
X41278766Y-95965553D01*
X41210083Y-95937103D01*
X41137171Y-95922600D01*
X41062829Y-95922600D01*
X40989917Y-95937103D01*
X40921234Y-95965553D01*
X40859422Y-96006854D01*
X40806854Y-96059422D01*
X40765553Y-96121234D01*
X40737103Y-96189917D01*
X40722600Y-96262829D01*
X40032319Y-96262829D01*
X40025681Y-96195435D01*
X39995181Y-96094889D01*
X39945651Y-96002225D01*
X39878995Y-95921005D01*
X39797775Y-95854349D01*
X39705111Y-95804819D01*
X39604565Y-95774319D01*
X39526195Y-95766600D01*
X39320941Y-95766600D01*
X39214400Y-95660059D01*
X39214400Y-94878756D01*
X39430327Y-94662829D01*
X39922600Y-94662829D01*
X39922600Y-94737171D01*
X39937103Y-94810083D01*
X39965553Y-94878766D01*
X40006854Y-94940578D01*
X40059422Y-94993146D01*
X40121234Y-95034447D01*
X40189917Y-95062897D01*
X40262829Y-95077400D01*
X40337171Y-95077400D01*
X40410083Y-95062897D01*
X40478766Y-95034447D01*
X40540578Y-94993146D01*
X40593146Y-94940578D01*
X40634447Y-94878766D01*
X40662897Y-94810083D01*
X40677400Y-94737171D01*
X40677400Y-94662829D01*
X40722600Y-94662829D01*
X40722600Y-94737171D01*
X40737103Y-94810083D01*
X40765553Y-94878766D01*
X40806854Y-94940578D01*
X40859422Y-94993146D01*
X40921234Y-95034447D01*
X40989917Y-95062897D01*
X41062829Y-95077400D01*
X41137171Y-95077400D01*
X41210083Y-95062897D01*
X41278766Y-95034447D01*
X41340578Y-94993146D01*
X41393146Y-94940578D01*
X41434447Y-94878766D01*
X41462897Y-94810083D01*
X41477400Y-94737171D01*
X41477400Y-94662829D01*
X41462897Y-94589917D01*
X41434447Y-94521234D01*
X41393146Y-94459422D01*
X41340578Y-94406854D01*
X41278766Y-94365553D01*
X41210083Y-94337103D01*
X41137171Y-94322600D01*
X41062829Y-94322600D01*
X40989917Y-94337103D01*
X40921234Y-94365553D01*
X40859422Y-94406854D01*
X40806854Y-94459422D01*
X40765553Y-94521234D01*
X40737103Y-94589917D01*
X40722600Y-94662829D01*
X40677400Y-94662829D01*
X40662897Y-94589917D01*
X40634447Y-94521234D01*
X40593146Y-94459422D01*
X40540578Y-94406854D01*
X40478766Y-94365553D01*
X40410083Y-94337103D01*
X40337171Y-94322600D01*
X40262829Y-94322600D01*
X40189917Y-94337103D01*
X40121234Y-94365553D01*
X40059422Y-94406854D01*
X40006854Y-94459422D01*
X39965553Y-94521234D01*
X39937103Y-94589917D01*
X39922600Y-94662829D01*
X39430327Y-94662829D01*
X41378757Y-92714400D01*
X42821244Y-92714400D01*
X43961084Y-93854241D01*
X44065430Y-93939875D01*
X44224282Y-94024784D01*
X44396647Y-94077069D01*
X44461501Y-94083457D01*
X44461501Y-94358402D01*
X44410083Y-94337103D01*
X44337171Y-94322600D01*
X44262829Y-94322600D01*
X44189917Y-94337103D01*
X44121234Y-94365553D01*
X44059422Y-94406854D01*
X44006854Y-94459422D01*
X43965553Y-94521234D01*
X43937103Y-94589917D01*
X43922600Y-94662829D01*
X43922600Y-94737171D01*
X43937103Y-94810083D01*
X43965553Y-94878766D01*
X44006854Y-94940578D01*
X44059422Y-94993146D01*
X44121234Y-95034447D01*
X44189917Y-95062897D01*
X44262829Y-95077400D01*
X44337171Y-95077400D01*
X44410083Y-95062897D01*
X44461501Y-95041598D01*
X44461501Y-95584157D01*
X44279059Y-95766600D01*
X43767124Y-95766600D01*
X43793146Y-95740578D01*
X43834447Y-95678766D01*
X43862897Y-95610083D01*
X43877400Y-95537171D01*
X43877400Y-95462829D01*
X43862897Y-95389917D01*
X43834447Y-95321234D01*
X43793146Y-95259422D01*
X43740578Y-95206854D01*
X43678766Y-95165553D01*
X43610083Y-95137103D01*
X43537171Y-95122600D01*
X43462829Y-95122600D01*
X43389917Y-95137103D01*
X43321234Y-95165553D01*
X43259422Y-95206854D01*
X43206854Y-95259422D01*
X43165553Y-95321234D01*
X43137103Y-95389917D01*
X43122600Y-95462829D01*
X43122600Y-95537171D01*
X43137103Y-95610083D01*
X43165553Y-95678766D01*
X43206854Y-95740578D01*
X43259422Y-95793146D01*
X43284890Y-95810163D01*
X43202225Y-95854349D01*
X43121005Y-95921005D01*
X43054349Y-96002225D01*
X43004819Y-96094889D01*
X42974319Y-96195435D01*
X42964020Y-96300000D01*
X42974319Y-96404565D01*
X43004819Y-96505111D01*
X43054349Y-96597775D01*
X43121005Y-96678995D01*
X43202225Y-96745651D01*
X43294889Y-96795181D01*
X43395435Y-96825681D01*
X43473805Y-96833400D01*
X44461502Y-96833400D01*
X44461502Y-97604551D01*
X44085990Y-97980064D01*
X44024143Y-98055426D01*
X43962819Y-98170153D01*
X43925057Y-98294639D01*
X43922220Y-98323439D01*
X43104307Y-99141352D01*
X43054349Y-99202227D01*
X43004819Y-99294890D01*
X42974319Y-99395436D01*
X42964021Y-99500000D01*
X42974319Y-99604564D01*
X43004819Y-99705110D01*
X43054349Y-99797773D01*
X43121005Y-99878995D01*
X43202227Y-99945651D01*
X43294890Y-99995181D01*
X43395436Y-100025681D01*
X43500000Y-100035979D01*
X43604564Y-100025681D01*
X43705110Y-99995181D01*
X43797773Y-99945651D01*
X43858648Y-99895693D01*
X44676561Y-99077780D01*
X44705361Y-99074943D01*
X44829847Y-99037181D01*
X44944574Y-98975857D01*
X45019936Y-98914010D01*
X45565934Y-98368013D01*
X45591134Y-98347332D01*
X45673660Y-98246773D01*
X45734983Y-98132046D01*
X45772745Y-98007560D01*
X45782301Y-97910538D01*
X45785496Y-97878099D01*
X45782301Y-97845660D01*
X45782301Y-97445593D01*
X48647600Y-97445593D01*
X48647600Y-97554407D01*
X48668828Y-97661129D01*
X48710469Y-97761660D01*
X48770923Y-97852135D01*
X48847865Y-97929077D01*
X48938340Y-97989531D01*
X49038871Y-98031172D01*
X49145593Y-98052400D01*
X49254407Y-98052400D01*
X49361129Y-98031172D01*
X49461660Y-97989531D01*
X49552135Y-97929077D01*
X49629077Y-97852135D01*
X49689531Y-97761660D01*
X49731172Y-97661129D01*
X49752400Y-97554407D01*
X49752400Y-97445593D01*
X49731172Y-97338871D01*
X49689531Y-97238340D01*
X49629077Y-97147865D01*
X49552135Y-97070923D01*
X49461660Y-97010469D01*
X49361129Y-96968828D01*
X49254407Y-96947600D01*
X49145593Y-96947600D01*
X49038871Y-96968828D01*
X48938340Y-97010469D01*
X48847865Y-97070923D01*
X48770923Y-97147865D01*
X48710469Y-97238340D01*
X48668828Y-97338871D01*
X48647600Y-97445593D01*
X45782301Y-97445593D01*
X45782301Y-93754340D01*
X45785496Y-93721901D01*
X45772745Y-93592440D01*
X45734983Y-93467954D01*
X45673660Y-93353227D01*
X45591134Y-93252668D01*
X45565935Y-93231988D01*
X45493073Y-93159126D01*
X45477069Y-92996647D01*
X45424784Y-92824282D01*
X45339875Y-92665430D01*
X45254241Y-92561084D01*
X45138750Y-92445593D01*
X48726690Y-92445593D01*
X48726690Y-92554407D01*
X48747918Y-92661129D01*
X48789559Y-92761660D01*
X48850013Y-92852135D01*
X48926955Y-92929077D01*
X49017430Y-92989531D01*
X49117961Y-93031172D01*
X49224683Y-93052400D01*
X49333497Y-93052400D01*
X49440219Y-93031172D01*
X49540750Y-92989531D01*
X49631225Y-92929077D01*
X49708167Y-92852135D01*
X49768621Y-92761660D01*
X49810262Y-92661129D01*
X49831490Y-92554407D01*
X49831490Y-92445593D01*
X49810262Y-92338871D01*
X49768621Y-92238340D01*
X49708167Y-92147865D01*
X49631225Y-92070923D01*
X49540750Y-92010469D01*
X49440219Y-91968828D01*
X49333497Y-91947600D01*
X49224683Y-91947600D01*
X49117961Y-91968828D01*
X49017430Y-92010469D01*
X48926955Y-92070923D01*
X48850013Y-92147865D01*
X48789559Y-92238340D01*
X48747918Y-92338871D01*
X48726690Y-92445593D01*
X45138750Y-92445593D01*
X43914400Y-91221244D01*
X43914400Y-89160367D01*
X45597600Y-89160367D01*
X45597600Y-89239633D01*
X45613064Y-89317376D01*
X45643398Y-89390608D01*
X45687436Y-89456515D01*
X45743485Y-89512564D01*
X45809392Y-89556602D01*
X45882624Y-89586936D01*
X45960367Y-89602400D01*
X46039633Y-89602400D01*
X46117376Y-89586936D01*
X46190608Y-89556602D01*
X46256515Y-89512564D01*
X46312564Y-89456515D01*
X46356602Y-89390608D01*
X46386936Y-89317376D01*
X46402400Y-89239633D01*
X46402400Y-89160367D01*
X46386936Y-89082624D01*
X46356602Y-89009392D01*
X46312564Y-88943485D01*
X46256515Y-88887436D01*
X46190608Y-88843398D01*
X46117376Y-88813064D01*
X46039633Y-88797600D01*
X45960367Y-88797600D01*
X45882624Y-88813064D01*
X45809392Y-88843398D01*
X45743485Y-88887436D01*
X45687436Y-88943485D01*
X45643398Y-89009392D01*
X45613064Y-89082624D01*
X45597600Y-89160367D01*
X43914400Y-89160367D01*
X43914400Y-88967598D01*
X43924384Y-88934687D01*
X43927800Y-88900000D01*
X43927800Y-88160367D01*
X45597600Y-88160367D01*
X45597600Y-88239633D01*
X45613064Y-88317376D01*
X45643398Y-88390608D01*
X45687436Y-88456515D01*
X45743485Y-88512564D01*
X45809392Y-88556602D01*
X45882624Y-88586936D01*
X45960367Y-88602400D01*
X46039633Y-88602400D01*
X46117376Y-88586936D01*
X46190608Y-88556602D01*
X46256515Y-88512564D01*
X46312564Y-88456515D01*
X46356602Y-88390608D01*
X46386936Y-88317376D01*
X46401214Y-88245593D01*
X48047600Y-88245593D01*
X48047600Y-88354407D01*
X48068828Y-88461129D01*
X48110469Y-88561660D01*
X48170923Y-88652135D01*
X48247865Y-88729077D01*
X48338340Y-88789531D01*
X48438871Y-88831172D01*
X48545593Y-88852400D01*
X48654407Y-88852400D01*
X48761129Y-88831172D01*
X48861660Y-88789531D01*
X48952135Y-88729077D01*
X49029077Y-88652135D01*
X49089531Y-88561660D01*
X49131172Y-88461129D01*
X49152400Y-88354407D01*
X49152400Y-88245593D01*
X49131172Y-88138871D01*
X49089531Y-88038340D01*
X49029077Y-87947865D01*
X48952135Y-87870923D01*
X48861660Y-87810469D01*
X48761129Y-87768828D01*
X48654407Y-87747600D01*
X48545593Y-87747600D01*
X48438871Y-87768828D01*
X48338340Y-87810469D01*
X48247865Y-87870923D01*
X48170923Y-87947865D01*
X48110469Y-88038340D01*
X48068828Y-88138871D01*
X48047600Y-88245593D01*
X46401214Y-88245593D01*
X46402400Y-88239633D01*
X46402400Y-88160367D01*
X46386936Y-88082624D01*
X46356602Y-88009392D01*
X46312564Y-87943485D01*
X46256515Y-87887436D01*
X46190608Y-87843398D01*
X46117376Y-87813064D01*
X46039633Y-87797600D01*
X45960367Y-87797600D01*
X45882624Y-87813064D01*
X45809392Y-87843398D01*
X45743485Y-87887436D01*
X45687436Y-87943485D01*
X45643398Y-88009392D01*
X45613064Y-88082624D01*
X45597600Y-88160367D01*
X43927800Y-88160367D01*
X43927800Y-87160367D01*
X45597600Y-87160367D01*
X45597600Y-87239633D01*
X45613064Y-87317376D01*
X45643398Y-87390608D01*
X45687436Y-87456515D01*
X45743485Y-87512564D01*
X45809392Y-87556602D01*
X45882624Y-87586936D01*
X45960367Y-87602400D01*
X46039633Y-87602400D01*
X46117376Y-87586936D01*
X46190608Y-87556602D01*
X46256515Y-87512564D01*
X46312564Y-87456515D01*
X46356602Y-87390608D01*
X46386936Y-87317376D01*
X46402400Y-87239633D01*
X46402400Y-87160367D01*
X46386936Y-87082624D01*
X46356602Y-87009392D01*
X46312564Y-86943485D01*
X46256515Y-86887436D01*
X46190608Y-86843398D01*
X46117376Y-86813064D01*
X46039633Y-86797600D01*
X45960367Y-86797600D01*
X45882624Y-86813064D01*
X45809392Y-86843398D01*
X45743485Y-86887436D01*
X45687436Y-86943485D01*
X45643398Y-87009392D01*
X45613064Y-87082624D01*
X45597600Y-87160367D01*
X43927800Y-87160367D01*
X43927800Y-86900000D01*
X43924384Y-86865314D01*
X43914266Y-86831960D01*
X43884977Y-86761249D01*
X43868546Y-86730508D01*
X43846434Y-86703565D01*
X43819491Y-86681453D01*
X43788751Y-86665023D01*
X43718040Y-86635734D01*
X43684687Y-86625616D01*
X43650000Y-86622200D01*
X41750000Y-86622200D01*
X41715314Y-86625616D01*
X41681960Y-86635734D01*
X41611249Y-86665023D01*
X41580508Y-86681454D01*
X41553565Y-86703566D01*
X41531453Y-86730509D01*
X41515023Y-86761249D01*
X41485734Y-86831960D01*
X41475616Y-86865313D01*
X41472200Y-86900000D01*
X41472200Y-88900000D01*
X41475616Y-88934686D01*
X41485600Y-88967600D01*
X41485601Y-90021242D01*
X40385190Y-91121654D01*
X40350293Y-91150293D01*
X40321659Y-91185184D01*
X37685190Y-93821654D01*
X37650293Y-93850293D01*
X37536026Y-93989530D01*
X37451117Y-94148382D01*
X37398831Y-94320747D01*
X37385600Y-94455082D01*
X37381176Y-94500000D01*
X32050800Y-94500000D01*
X32050800Y-85345593D01*
X43847600Y-85345593D01*
X43847600Y-85454407D01*
X43868828Y-85561129D01*
X43910469Y-85661660D01*
X43970923Y-85752135D01*
X44047865Y-85829077D01*
X44138340Y-85889531D01*
X44238871Y-85931172D01*
X44345593Y-85952400D01*
X44454407Y-85952400D01*
X44561129Y-85931172D01*
X44661660Y-85889531D01*
X44752135Y-85829077D01*
X44829077Y-85752135D01*
X44889531Y-85661660D01*
X44931172Y-85561129D01*
X44952400Y-85454407D01*
X44952400Y-85345593D01*
X44931172Y-85238871D01*
X44889531Y-85138340D01*
X44829077Y-85047865D01*
X44752135Y-84970923D01*
X44661660Y-84910469D01*
X44561129Y-84868828D01*
X44454407Y-84847600D01*
X44345593Y-84847600D01*
X44238871Y-84868828D01*
X44138340Y-84910469D01*
X44047865Y-84970923D01*
X43970923Y-85047865D01*
X43910469Y-85138340D01*
X43868828Y-85238871D01*
X43847600Y-85345593D01*
X32050800Y-85345593D01*
X32050800Y-83110104D01*
X32068170Y-83068170D01*
X32110104Y-83050800D01*
X50889896Y-83050800D01*
X50931830Y-83068170D01*
G04 #@! TA.AperFunction,Conductor*
D19*
G36*
X50931830Y-83068170D02*
G01*
X50949200Y-83110104D01*
X50949200Y-108094543D01*
X50879252Y-108060404D01*
X50761618Y-108024726D01*
X50606200Y-108038715D01*
X50606200Y-108923800D01*
X50626200Y-108923800D01*
X50626200Y-109076200D01*
X50606200Y-109076200D01*
X50606200Y-109961285D01*
X50761618Y-109975274D01*
X50879252Y-109939596D01*
X50949200Y-109905457D01*
X50949200Y-110634543D01*
X50879252Y-110600404D01*
X50761618Y-110564726D01*
X50606200Y-110578715D01*
X50606200Y-111463800D01*
X50626200Y-111463800D01*
X50626200Y-111616200D01*
X50606200Y-111616200D01*
X50606200Y-112501285D01*
X50761618Y-112515274D01*
X50879252Y-112479596D01*
X50949200Y-112445457D01*
X50949200Y-112889896D01*
X50931830Y-112931830D01*
X50889896Y-112949200D01*
X49817501Y-112949200D01*
X49828400Y-112894407D01*
X49828400Y-112785593D01*
X49807172Y-112678871D01*
X49765531Y-112578340D01*
X49705077Y-112487865D01*
X49628135Y-112410923D01*
X49537660Y-112350469D01*
X49437129Y-112308828D01*
X49330407Y-112287600D01*
X49221593Y-112287600D01*
X49114871Y-112308828D01*
X49014340Y-112350469D01*
X48923865Y-112410923D01*
X48846923Y-112487865D01*
X48786469Y-112578340D01*
X48744828Y-112678871D01*
X48723600Y-112785593D01*
X48723600Y-112894407D01*
X48734499Y-112949200D01*
X47277501Y-112949200D01*
X47288400Y-112894407D01*
X47288400Y-112785593D01*
X47267172Y-112678871D01*
X47225531Y-112578340D01*
X47165077Y-112487865D01*
X47088135Y-112410923D01*
X46997660Y-112350469D01*
X46897129Y-112308828D01*
X46790407Y-112287600D01*
X46681593Y-112287600D01*
X46574871Y-112308828D01*
X46474340Y-112350469D01*
X46383865Y-112410923D01*
X46306923Y-112487865D01*
X46246469Y-112578340D01*
X46204828Y-112678871D01*
X46183600Y-112785593D01*
X46183600Y-112894407D01*
X46194499Y-112949200D01*
X32110104Y-112949200D01*
X32068170Y-112931830D01*
X32050800Y-112889896D01*
X32050800Y-112258408D01*
X32111007Y-112318615D01*
X32275186Y-112428315D01*
X32457611Y-112503878D01*
X32651272Y-112542400D01*
X32848728Y-112542400D01*
X33042389Y-112503878D01*
X33224814Y-112428315D01*
X33388993Y-112318615D01*
X33528615Y-112178993D01*
X33638315Y-112014814D01*
X33713878Y-111832389D01*
X33752400Y-111638728D01*
X33752400Y-111441272D01*
X34287600Y-111441272D01*
X34287600Y-111638728D01*
X34326122Y-111832389D01*
X34401685Y-112014814D01*
X34511385Y-112178993D01*
X34651007Y-112318615D01*
X34815186Y-112428315D01*
X34997611Y-112503878D01*
X35191272Y-112542400D01*
X35388728Y-112542400D01*
X35582389Y-112503878D01*
X35764814Y-112428315D01*
X35928993Y-112318615D01*
X36068615Y-112178993D01*
X36178315Y-112014814D01*
X36253878Y-111832389D01*
X36292400Y-111638728D01*
X36292400Y-111441272D01*
X36827600Y-111441272D01*
X36827600Y-111638728D01*
X36866122Y-111832389D01*
X36941685Y-112014814D01*
X37051385Y-112178993D01*
X37191007Y-112318615D01*
X37355186Y-112428315D01*
X37537611Y-112503878D01*
X37731272Y-112542400D01*
X37928728Y-112542400D01*
X38122389Y-112503878D01*
X38304814Y-112428315D01*
X38468993Y-112318615D01*
X38608615Y-112178993D01*
X38718315Y-112014814D01*
X38793878Y-111832389D01*
X38832400Y-111638728D01*
X38832400Y-111441272D01*
X39367600Y-111441272D01*
X39367600Y-111638728D01*
X39406122Y-111832389D01*
X39481685Y-112014814D01*
X39591385Y-112178993D01*
X39731007Y-112318615D01*
X39895186Y-112428315D01*
X40077611Y-112503878D01*
X40271272Y-112542400D01*
X40468728Y-112542400D01*
X40662389Y-112503878D01*
X40844814Y-112428315D01*
X41008993Y-112318615D01*
X41148615Y-112178993D01*
X41258315Y-112014814D01*
X41333878Y-111832389D01*
X41372400Y-111638728D01*
X41372400Y-111441272D01*
X41907600Y-111441272D01*
X41907600Y-111638728D01*
X41946122Y-111832389D01*
X42021685Y-112014814D01*
X42131385Y-112178993D01*
X42271007Y-112318615D01*
X42435186Y-112428315D01*
X42617611Y-112503878D01*
X42811272Y-112542400D01*
X43008728Y-112542400D01*
X43202389Y-112503878D01*
X43384814Y-112428315D01*
X43548993Y-112318615D01*
X43688615Y-112178993D01*
X43798315Y-112014814D01*
X43873878Y-111832389D01*
X43912400Y-111638728D01*
X43912400Y-111441272D01*
X44447600Y-111441272D01*
X44447600Y-111638728D01*
X44486122Y-111832389D01*
X44561685Y-112014814D01*
X44671385Y-112178993D01*
X44811007Y-112318615D01*
X44975186Y-112428315D01*
X45157611Y-112503878D01*
X45351272Y-112542400D01*
X45548728Y-112542400D01*
X45742389Y-112503878D01*
X45924814Y-112428315D01*
X46088993Y-112318615D01*
X46228615Y-112178993D01*
X46338315Y-112014814D01*
X46413878Y-111832389D01*
X46452400Y-111638728D01*
X46452400Y-111441272D01*
X46987600Y-111441272D01*
X46987600Y-111638728D01*
X47026122Y-111832389D01*
X47101685Y-112014814D01*
X47211385Y-112178993D01*
X47351007Y-112318615D01*
X47515186Y-112428315D01*
X47697611Y-112503878D01*
X47891272Y-112542400D01*
X48088728Y-112542400D01*
X48282389Y-112503878D01*
X48464814Y-112428315D01*
X48628993Y-112318615D01*
X48768615Y-112178993D01*
X48878315Y-112014814D01*
X48953878Y-111832389D01*
X48965966Y-111771619D01*
X49554722Y-111771619D01*
X49618648Y-111957436D01*
X49717597Y-112127211D01*
X49847766Y-112274420D01*
X50004153Y-112393406D01*
X50180748Y-112479596D01*
X50298382Y-112515274D01*
X50453800Y-112501285D01*
X50453800Y-111616200D01*
X49568596Y-111616200D01*
X49554722Y-111771619D01*
X48965966Y-111771619D01*
X48992400Y-111638728D01*
X48992400Y-111441272D01*
X48965967Y-111308381D01*
X49554722Y-111308381D01*
X49568596Y-111463800D01*
X50453800Y-111463800D01*
X50453800Y-110578715D01*
X50298382Y-110564726D01*
X50180748Y-110600404D01*
X50004153Y-110686594D01*
X49847766Y-110805580D01*
X49717597Y-110952789D01*
X49618648Y-111122564D01*
X49554722Y-111308381D01*
X48965967Y-111308381D01*
X48953878Y-111247611D01*
X48878315Y-111065186D01*
X48768615Y-110901007D01*
X48628993Y-110761385D01*
X48464814Y-110651685D01*
X48282389Y-110576122D01*
X48088728Y-110537600D01*
X47891272Y-110537600D01*
X47697611Y-110576122D01*
X47515186Y-110651685D01*
X47351007Y-110761385D01*
X47211385Y-110901007D01*
X47101685Y-111065186D01*
X47026122Y-111247611D01*
X46987600Y-111441272D01*
X46452400Y-111441272D01*
X46413878Y-111247611D01*
X46338315Y-111065186D01*
X46228615Y-110901007D01*
X46088993Y-110761385D01*
X45924814Y-110651685D01*
X45742389Y-110576122D01*
X45548728Y-110537600D01*
X45351272Y-110537600D01*
X45157611Y-110576122D01*
X44975186Y-110651685D01*
X44811007Y-110761385D01*
X44671385Y-110901007D01*
X44561685Y-111065186D01*
X44486122Y-111247611D01*
X44447600Y-111441272D01*
X43912400Y-111441272D01*
X43873878Y-111247611D01*
X43798315Y-111065186D01*
X43688615Y-110901007D01*
X43548993Y-110761385D01*
X43384814Y-110651685D01*
X43202389Y-110576122D01*
X43008728Y-110537600D01*
X42811272Y-110537600D01*
X42617611Y-110576122D01*
X42435186Y-110651685D01*
X42271007Y-110761385D01*
X42131385Y-110901007D01*
X42021685Y-111065186D01*
X41946122Y-111247611D01*
X41907600Y-111441272D01*
X41372400Y-111441272D01*
X41333878Y-111247611D01*
X41258315Y-111065186D01*
X41148615Y-110901007D01*
X41008993Y-110761385D01*
X40844814Y-110651685D01*
X40662389Y-110576122D01*
X40468728Y-110537600D01*
X40271272Y-110537600D01*
X40077611Y-110576122D01*
X39895186Y-110651685D01*
X39731007Y-110761385D01*
X39591385Y-110901007D01*
X39481685Y-111065186D01*
X39406122Y-111247611D01*
X39367600Y-111441272D01*
X38832400Y-111441272D01*
X38793878Y-111247611D01*
X38718315Y-111065186D01*
X38608615Y-110901007D01*
X38468993Y-110761385D01*
X38304814Y-110651685D01*
X38122389Y-110576122D01*
X37928728Y-110537600D01*
X37731272Y-110537600D01*
X37537611Y-110576122D01*
X37355186Y-110651685D01*
X37191007Y-110761385D01*
X37051385Y-110901007D01*
X36941685Y-111065186D01*
X36866122Y-111247611D01*
X36827600Y-111441272D01*
X36292400Y-111441272D01*
X36253878Y-111247611D01*
X36178315Y-111065186D01*
X36068615Y-110901007D01*
X35928993Y-110761385D01*
X35764814Y-110651685D01*
X35582389Y-110576122D01*
X35388728Y-110537600D01*
X35191272Y-110537600D01*
X34997611Y-110576122D01*
X34815186Y-110651685D01*
X34651007Y-110761385D01*
X34511385Y-110901007D01*
X34401685Y-111065186D01*
X34326122Y-111247611D01*
X34287600Y-111441272D01*
X33752400Y-111441272D01*
X33713878Y-111247611D01*
X33638315Y-111065186D01*
X33528615Y-110901007D01*
X33388993Y-110761385D01*
X33224814Y-110651685D01*
X33042389Y-110576122D01*
X32848728Y-110537600D01*
X32651272Y-110537600D01*
X32457611Y-110576122D01*
X32275186Y-110651685D01*
X32111007Y-110761385D01*
X32050800Y-110821592D01*
X32050800Y-110245593D01*
X46183600Y-110245593D01*
X46183600Y-110354407D01*
X46204828Y-110461129D01*
X46246469Y-110561660D01*
X46306923Y-110652135D01*
X46383865Y-110729077D01*
X46474340Y-110789531D01*
X46574871Y-110831172D01*
X46681593Y-110852400D01*
X46790407Y-110852400D01*
X46897129Y-110831172D01*
X46997660Y-110789531D01*
X47088135Y-110729077D01*
X47165077Y-110652135D01*
X47225531Y-110561660D01*
X47267172Y-110461129D01*
X47288400Y-110354407D01*
X47288400Y-110245593D01*
X48723600Y-110245593D01*
X48723600Y-110354407D01*
X48744828Y-110461129D01*
X48786469Y-110561660D01*
X48846923Y-110652135D01*
X48923865Y-110729077D01*
X49014340Y-110789531D01*
X49114871Y-110831172D01*
X49221593Y-110852400D01*
X49330407Y-110852400D01*
X49437129Y-110831172D01*
X49537660Y-110789531D01*
X49628135Y-110729077D01*
X49705077Y-110652135D01*
X49765531Y-110561660D01*
X49807172Y-110461129D01*
X49828400Y-110354407D01*
X49828400Y-110245593D01*
X49807172Y-110138871D01*
X49765531Y-110038340D01*
X49705077Y-109947865D01*
X49628135Y-109870923D01*
X49537660Y-109810469D01*
X49437129Y-109768828D01*
X49330407Y-109747600D01*
X49221593Y-109747600D01*
X49114871Y-109768828D01*
X49014340Y-109810469D01*
X48923865Y-109870923D01*
X48846923Y-109947865D01*
X48786469Y-110038340D01*
X48744828Y-110138871D01*
X48723600Y-110245593D01*
X47288400Y-110245593D01*
X47267172Y-110138871D01*
X47225531Y-110038340D01*
X47165077Y-109947865D01*
X47088135Y-109870923D01*
X46997660Y-109810469D01*
X46897129Y-109768828D01*
X46790407Y-109747600D01*
X46681593Y-109747600D01*
X46574871Y-109768828D01*
X46474340Y-109810469D01*
X46383865Y-109870923D01*
X46306923Y-109947865D01*
X46246469Y-110038340D01*
X46204828Y-110138871D01*
X46183600Y-110245593D01*
X32050800Y-110245593D01*
X32050800Y-110003137D01*
X33600000Y-110003137D01*
X33629876Y-110000195D01*
X33658603Y-109991480D01*
X33685078Y-109977329D01*
X33708284Y-109958284D01*
X33727329Y-109935078D01*
X33741480Y-109908603D01*
X33750195Y-109879876D01*
X33753137Y-109850000D01*
X33753137Y-108901272D01*
X34287600Y-108901272D01*
X34287600Y-109098728D01*
X34326122Y-109292389D01*
X34401685Y-109474814D01*
X34511385Y-109638993D01*
X34651007Y-109778615D01*
X34815186Y-109888315D01*
X34997611Y-109963878D01*
X35191272Y-110002400D01*
X35388728Y-110002400D01*
X35582389Y-109963878D01*
X35764814Y-109888315D01*
X35928993Y-109778615D01*
X36068615Y-109638993D01*
X36178315Y-109474814D01*
X36253878Y-109292389D01*
X36292400Y-109098728D01*
X36292400Y-108901272D01*
X36827600Y-108901272D01*
X36827600Y-109098728D01*
X36866122Y-109292389D01*
X36941685Y-109474814D01*
X37051385Y-109638993D01*
X37191007Y-109778615D01*
X37355186Y-109888315D01*
X37537611Y-109963878D01*
X37731272Y-110002400D01*
X37928728Y-110002400D01*
X38122389Y-109963878D01*
X38304814Y-109888315D01*
X38468993Y-109778615D01*
X38608615Y-109638993D01*
X38718315Y-109474814D01*
X38793878Y-109292389D01*
X38832400Y-109098728D01*
X38832400Y-108901272D01*
X39367600Y-108901272D01*
X39367600Y-109098728D01*
X39406122Y-109292389D01*
X39481685Y-109474814D01*
X39591385Y-109638993D01*
X39731007Y-109778615D01*
X39895186Y-109888315D01*
X40077611Y-109963878D01*
X40271272Y-110002400D01*
X40468728Y-110002400D01*
X40662389Y-109963878D01*
X40844814Y-109888315D01*
X41008993Y-109778615D01*
X41148615Y-109638993D01*
X41258315Y-109474814D01*
X41333878Y-109292389D01*
X41372400Y-109098728D01*
X41372400Y-108901272D01*
X41907600Y-108901272D01*
X41907600Y-109098728D01*
X41946122Y-109292389D01*
X42021685Y-109474814D01*
X42131385Y-109638993D01*
X42271007Y-109778615D01*
X42435186Y-109888315D01*
X42617611Y-109963878D01*
X42811272Y-110002400D01*
X43008728Y-110002400D01*
X43202389Y-109963878D01*
X43384814Y-109888315D01*
X43548993Y-109778615D01*
X43688615Y-109638993D01*
X43798315Y-109474814D01*
X43873878Y-109292389D01*
X43912400Y-109098728D01*
X43912400Y-108901272D01*
X44447600Y-108901272D01*
X44447600Y-109098728D01*
X44486122Y-109292389D01*
X44561685Y-109474814D01*
X44671385Y-109638993D01*
X44811007Y-109778615D01*
X44975186Y-109888315D01*
X45157611Y-109963878D01*
X45351272Y-110002400D01*
X45548728Y-110002400D01*
X45742389Y-109963878D01*
X45924814Y-109888315D01*
X46088993Y-109778615D01*
X46228615Y-109638993D01*
X46338315Y-109474814D01*
X46413878Y-109292389D01*
X46452400Y-109098728D01*
X46452400Y-108901272D01*
X46987600Y-108901272D01*
X46987600Y-109098728D01*
X47026122Y-109292389D01*
X47101685Y-109474814D01*
X47211385Y-109638993D01*
X47351007Y-109778615D01*
X47515186Y-109888315D01*
X47697611Y-109963878D01*
X47891272Y-110002400D01*
X48088728Y-110002400D01*
X48282389Y-109963878D01*
X48464814Y-109888315D01*
X48628993Y-109778615D01*
X48768615Y-109638993D01*
X48878315Y-109474814D01*
X48953878Y-109292389D01*
X48965966Y-109231619D01*
X49554722Y-109231619D01*
X49618648Y-109417436D01*
X49717597Y-109587211D01*
X49847766Y-109734420D01*
X50004153Y-109853406D01*
X50180748Y-109939596D01*
X50298382Y-109975274D01*
X50453800Y-109961285D01*
X50453800Y-109076200D01*
X49568596Y-109076200D01*
X49554722Y-109231619D01*
X48965966Y-109231619D01*
X48992400Y-109098728D01*
X48992400Y-108901272D01*
X48965967Y-108768381D01*
X49554722Y-108768381D01*
X49568596Y-108923800D01*
X50453800Y-108923800D01*
X50453800Y-108038715D01*
X50298382Y-108024726D01*
X50180748Y-108060404D01*
X50004153Y-108146594D01*
X49847766Y-108265580D01*
X49717597Y-108412789D01*
X49618648Y-108582564D01*
X49554722Y-108768381D01*
X48965967Y-108768381D01*
X48953878Y-108707611D01*
X48878315Y-108525186D01*
X48768615Y-108361007D01*
X48628993Y-108221385D01*
X48464814Y-108111685D01*
X48282389Y-108036122D01*
X48088728Y-107997600D01*
X47891272Y-107997600D01*
X47697611Y-108036122D01*
X47515186Y-108111685D01*
X47351007Y-108221385D01*
X47211385Y-108361007D01*
X47101685Y-108525186D01*
X47026122Y-108707611D01*
X46987600Y-108901272D01*
X46452400Y-108901272D01*
X46413878Y-108707611D01*
X46338315Y-108525186D01*
X46228615Y-108361007D01*
X46088993Y-108221385D01*
X45924814Y-108111685D01*
X45742389Y-108036122D01*
X45548728Y-107997600D01*
X45351272Y-107997600D01*
X45157611Y-108036122D01*
X44975186Y-108111685D01*
X44811007Y-108221385D01*
X44671385Y-108361007D01*
X44561685Y-108525186D01*
X44486122Y-108707611D01*
X44447600Y-108901272D01*
X43912400Y-108901272D01*
X43873878Y-108707611D01*
X43798315Y-108525186D01*
X43688615Y-108361007D01*
X43548993Y-108221385D01*
X43384814Y-108111685D01*
X43202389Y-108036122D01*
X43008728Y-107997600D01*
X42811272Y-107997600D01*
X42617611Y-108036122D01*
X42435186Y-108111685D01*
X42271007Y-108221385D01*
X42131385Y-108361007D01*
X42021685Y-108525186D01*
X41946122Y-108707611D01*
X41907600Y-108901272D01*
X41372400Y-108901272D01*
X41333878Y-108707611D01*
X41258315Y-108525186D01*
X41148615Y-108361007D01*
X41008993Y-108221385D01*
X40844814Y-108111685D01*
X40662389Y-108036122D01*
X40468728Y-107997600D01*
X40271272Y-107997600D01*
X40077611Y-108036122D01*
X39895186Y-108111685D01*
X39731007Y-108221385D01*
X39591385Y-108361007D01*
X39481685Y-108525186D01*
X39406122Y-108707611D01*
X39367600Y-108901272D01*
X38832400Y-108901272D01*
X38793878Y-108707611D01*
X38718315Y-108525186D01*
X38608615Y-108361007D01*
X38468993Y-108221385D01*
X38304814Y-108111685D01*
X38122389Y-108036122D01*
X37928728Y-107997600D01*
X37731272Y-107997600D01*
X37537611Y-108036122D01*
X37355186Y-108111685D01*
X37191007Y-108221385D01*
X37051385Y-108361007D01*
X36941685Y-108525186D01*
X36866122Y-108707611D01*
X36827600Y-108901272D01*
X36292400Y-108901272D01*
X36253878Y-108707611D01*
X36178315Y-108525186D01*
X36068615Y-108361007D01*
X35928993Y-108221385D01*
X35764814Y-108111685D01*
X35582389Y-108036122D01*
X35388728Y-107997600D01*
X35191272Y-107997600D01*
X34997611Y-108036122D01*
X34815186Y-108111685D01*
X34651007Y-108221385D01*
X34511385Y-108361007D01*
X34401685Y-108525186D01*
X34326122Y-108707611D01*
X34287600Y-108901272D01*
X33753137Y-108901272D01*
X33753137Y-108150000D01*
X33750195Y-108120124D01*
X33741480Y-108091397D01*
X33727329Y-108064922D01*
X33708284Y-108041716D01*
X33685078Y-108022671D01*
X33658603Y-108008520D01*
X33629876Y-107999805D01*
X33600000Y-107996863D01*
X32050800Y-107996863D01*
X32050800Y-107705593D01*
X46183600Y-107705593D01*
X46183600Y-107814407D01*
X46204828Y-107921129D01*
X46246469Y-108021660D01*
X46306923Y-108112135D01*
X46383865Y-108189077D01*
X46474340Y-108249531D01*
X46574871Y-108291172D01*
X46681593Y-108312400D01*
X46790407Y-108312400D01*
X46897129Y-108291172D01*
X46997660Y-108249531D01*
X47088135Y-108189077D01*
X47165077Y-108112135D01*
X47225531Y-108021660D01*
X47267172Y-107921129D01*
X47288400Y-107814407D01*
X47288400Y-107705593D01*
X48723600Y-107705593D01*
X48723600Y-107814407D01*
X48744828Y-107921129D01*
X48786469Y-108021660D01*
X48846923Y-108112135D01*
X48923865Y-108189077D01*
X49014340Y-108249531D01*
X49114871Y-108291172D01*
X49221593Y-108312400D01*
X49330407Y-108312400D01*
X49437129Y-108291172D01*
X49537660Y-108249531D01*
X49628135Y-108189077D01*
X49705077Y-108112135D01*
X49765531Y-108021660D01*
X49807172Y-107921129D01*
X49828400Y-107814407D01*
X49828400Y-107705593D01*
X49807172Y-107598871D01*
X49765531Y-107498340D01*
X49705077Y-107407865D01*
X49628135Y-107330923D01*
X49537660Y-107270469D01*
X49437129Y-107228828D01*
X49330407Y-107207600D01*
X49221593Y-107207600D01*
X49114871Y-107228828D01*
X49014340Y-107270469D01*
X48923865Y-107330923D01*
X48846923Y-107407865D01*
X48786469Y-107498340D01*
X48744828Y-107598871D01*
X48723600Y-107705593D01*
X47288400Y-107705593D01*
X47267172Y-107598871D01*
X47225531Y-107498340D01*
X47165077Y-107407865D01*
X47088135Y-107330923D01*
X46997660Y-107270469D01*
X46897129Y-107228828D01*
X46790407Y-107207600D01*
X46681593Y-107207600D01*
X46574871Y-107228828D01*
X46474340Y-107270469D01*
X46383865Y-107330923D01*
X46306923Y-107407865D01*
X46246469Y-107498340D01*
X46204828Y-107598871D01*
X46183600Y-107705593D01*
X32050800Y-107705593D01*
X32050800Y-107224567D01*
X36173600Y-107224567D01*
X36173600Y-107303833D01*
X36189064Y-107381576D01*
X36219398Y-107454808D01*
X36263436Y-107520715D01*
X36319485Y-107576764D01*
X36385392Y-107620802D01*
X36458624Y-107651136D01*
X36536367Y-107666600D01*
X36615633Y-107666600D01*
X36693376Y-107651136D01*
X36766608Y-107620802D01*
X36832515Y-107576764D01*
X36888564Y-107520715D01*
X36932602Y-107454808D01*
X36962936Y-107381576D01*
X36978400Y-107303833D01*
X36978400Y-107224567D01*
X36962936Y-107146824D01*
X36932602Y-107073592D01*
X36923766Y-107060367D01*
X41797600Y-107060367D01*
X41797600Y-107139633D01*
X41813064Y-107217376D01*
X41843398Y-107290608D01*
X41887436Y-107356515D01*
X41943485Y-107412564D01*
X42009392Y-107456602D01*
X42082624Y-107486936D01*
X42160367Y-107502400D01*
X42239633Y-107502400D01*
X42317376Y-107486936D01*
X42390608Y-107456602D01*
X42456515Y-107412564D01*
X42512564Y-107356515D01*
X42556602Y-107290608D01*
X42586936Y-107217376D01*
X42602400Y-107139633D01*
X42602400Y-107060367D01*
X42586936Y-106982624D01*
X42556602Y-106909392D01*
X42512564Y-106843485D01*
X42456515Y-106787436D01*
X42390608Y-106743398D01*
X42317376Y-106713064D01*
X42239633Y-106697600D01*
X42160367Y-106697600D01*
X42082624Y-106713064D01*
X42009392Y-106743398D01*
X41943485Y-106787436D01*
X41887436Y-106843485D01*
X41843398Y-106909392D01*
X41813064Y-106982624D01*
X41797600Y-107060367D01*
X36923766Y-107060367D01*
X36888564Y-107007685D01*
X36832515Y-106951636D01*
X36766608Y-106907598D01*
X36693376Y-106877264D01*
X36615633Y-106861800D01*
X36536367Y-106861800D01*
X36458624Y-106877264D01*
X36385392Y-106907598D01*
X36319485Y-106951636D01*
X36263436Y-107007685D01*
X36219398Y-107073592D01*
X36189064Y-107146824D01*
X36173600Y-107224567D01*
X32050800Y-107224567D01*
X32050800Y-106360367D01*
X38197600Y-106360367D01*
X38197600Y-106439633D01*
X38213064Y-106517376D01*
X38243398Y-106590608D01*
X38287436Y-106656515D01*
X38343485Y-106712564D01*
X38409392Y-106756602D01*
X38482624Y-106786936D01*
X38560367Y-106802400D01*
X38639633Y-106802400D01*
X38717376Y-106786936D01*
X38790608Y-106756602D01*
X38856515Y-106712564D01*
X38912564Y-106656515D01*
X38956602Y-106590608D01*
X38986936Y-106517376D01*
X39002400Y-106439633D01*
X39002400Y-106360367D01*
X39097600Y-106360367D01*
X39097600Y-106439633D01*
X39113064Y-106517376D01*
X39143398Y-106590608D01*
X39187436Y-106656515D01*
X39243485Y-106712564D01*
X39309392Y-106756602D01*
X39382624Y-106786936D01*
X39460367Y-106802400D01*
X39539633Y-106802400D01*
X39617376Y-106786936D01*
X39690608Y-106756602D01*
X39756515Y-106712564D01*
X39812564Y-106656515D01*
X39856602Y-106590608D01*
X39886936Y-106517376D01*
X39902400Y-106439633D01*
X39902400Y-106360367D01*
X39886936Y-106282624D01*
X39877717Y-106260367D01*
X42797600Y-106260367D01*
X42797600Y-106339633D01*
X42813064Y-106417376D01*
X42843398Y-106490608D01*
X42887436Y-106556515D01*
X42943485Y-106612564D01*
X43009392Y-106656602D01*
X43082624Y-106686936D01*
X43160367Y-106702400D01*
X43239633Y-106702400D01*
X43317376Y-106686936D01*
X43390608Y-106656602D01*
X43456515Y-106612564D01*
X43512564Y-106556515D01*
X43556602Y-106490608D01*
X43586936Y-106417376D01*
X43602400Y-106339633D01*
X43602400Y-106260367D01*
X43586936Y-106182624D01*
X43556602Y-106109392D01*
X43512564Y-106043485D01*
X43456515Y-105987436D01*
X43390608Y-105943398D01*
X43317376Y-105913064D01*
X43239633Y-105897600D01*
X43160367Y-105897600D01*
X43082624Y-105913064D01*
X43009392Y-105943398D01*
X42943485Y-105987436D01*
X42887436Y-106043485D01*
X42843398Y-106109392D01*
X42813064Y-106182624D01*
X42797600Y-106260367D01*
X39877717Y-106260367D01*
X39856602Y-106209392D01*
X39812564Y-106143485D01*
X39756515Y-106087436D01*
X39690608Y-106043398D01*
X39617376Y-106013064D01*
X39539633Y-105997600D01*
X39460367Y-105997600D01*
X39382624Y-106013064D01*
X39309392Y-106043398D01*
X39243485Y-106087436D01*
X39187436Y-106143485D01*
X39143398Y-106209392D01*
X39113064Y-106282624D01*
X39097600Y-106360367D01*
X39002400Y-106360367D01*
X38986936Y-106282624D01*
X38956602Y-106209392D01*
X38912564Y-106143485D01*
X38856515Y-106087436D01*
X38790608Y-106043398D01*
X38717376Y-106013064D01*
X38639633Y-105997600D01*
X38560367Y-105997600D01*
X38482624Y-106013064D01*
X38409392Y-106043398D01*
X38343485Y-106087436D01*
X38287436Y-106143485D01*
X38243398Y-106209392D01*
X38213064Y-106282624D01*
X38197600Y-106360367D01*
X32050800Y-106360367D01*
X32050800Y-104460367D01*
X34897600Y-104460367D01*
X34897600Y-104539633D01*
X34913064Y-104617376D01*
X34943398Y-104690608D01*
X34987436Y-104756515D01*
X35043485Y-104812564D01*
X35109392Y-104856602D01*
X35182624Y-104886936D01*
X35260367Y-104902400D01*
X35339633Y-104902400D01*
X35417376Y-104886936D01*
X35490608Y-104856602D01*
X35556515Y-104812564D01*
X35608712Y-104760367D01*
X40697600Y-104760367D01*
X40697600Y-104839633D01*
X40713064Y-104917376D01*
X40743398Y-104990608D01*
X40787436Y-105056515D01*
X40843485Y-105112564D01*
X40909392Y-105156602D01*
X40982624Y-105186936D01*
X41060367Y-105202400D01*
X41139633Y-105202400D01*
X41217376Y-105186936D01*
X41290608Y-105156602D01*
X41290962Y-105156365D01*
X43793600Y-105156365D01*
X43793600Y-105235631D01*
X43809064Y-105313374D01*
X43839398Y-105386606D01*
X43883436Y-105452513D01*
X43939485Y-105508562D01*
X44005392Y-105552600D01*
X44078624Y-105582934D01*
X44156367Y-105598398D01*
X44235633Y-105598398D01*
X44313376Y-105582934D01*
X44386608Y-105552600D01*
X44452515Y-105508562D01*
X44508564Y-105452513D01*
X44552602Y-105386606D01*
X44582936Y-105313374D01*
X44598400Y-105235631D01*
X44598400Y-105156365D01*
X44582936Y-105078622D01*
X44552602Y-105005390D01*
X44508564Y-104939483D01*
X44452515Y-104883434D01*
X44386608Y-104839396D01*
X44313376Y-104809062D01*
X44235633Y-104793598D01*
X44156367Y-104793598D01*
X44078624Y-104809062D01*
X44005392Y-104839396D01*
X43939485Y-104883434D01*
X43883436Y-104939483D01*
X43839398Y-105005390D01*
X43809064Y-105078622D01*
X43793600Y-105156365D01*
X41290962Y-105156365D01*
X41356515Y-105112564D01*
X41412564Y-105056515D01*
X41456602Y-104990608D01*
X41486936Y-104917376D01*
X41502400Y-104839633D01*
X41502400Y-104760367D01*
X41486936Y-104682624D01*
X41456602Y-104609392D01*
X41412564Y-104543485D01*
X41356515Y-104487436D01*
X41290608Y-104443398D01*
X41217376Y-104413064D01*
X41139633Y-104397600D01*
X41060367Y-104397600D01*
X40982624Y-104413064D01*
X40909392Y-104443398D01*
X40843485Y-104487436D01*
X40787436Y-104543485D01*
X40743398Y-104609392D01*
X40713064Y-104682624D01*
X40697600Y-104760367D01*
X35608712Y-104760367D01*
X35612564Y-104756515D01*
X35656602Y-104690608D01*
X35686936Y-104617376D01*
X35702400Y-104539633D01*
X35702400Y-104460367D01*
X35686936Y-104382624D01*
X35656602Y-104309392D01*
X35612564Y-104243485D01*
X35556515Y-104187436D01*
X35490608Y-104143398D01*
X35417376Y-104113064D01*
X35339633Y-104097600D01*
X35260367Y-104097600D01*
X35182624Y-104113064D01*
X35109392Y-104143398D01*
X35043485Y-104187436D01*
X34987436Y-104243485D01*
X34943398Y-104309392D01*
X34913064Y-104382624D01*
X34897600Y-104460367D01*
X32050800Y-104460367D01*
X32050800Y-103760367D01*
X42597600Y-103760367D01*
X42597600Y-103839633D01*
X42613064Y-103917376D01*
X42643398Y-103990608D01*
X42687436Y-104056515D01*
X42743485Y-104112564D01*
X42809392Y-104156602D01*
X42882624Y-104186936D01*
X42960367Y-104202400D01*
X43039633Y-104202400D01*
X43117376Y-104186936D01*
X43190608Y-104156602D01*
X43256515Y-104112564D01*
X43312564Y-104056515D01*
X43356602Y-103990608D01*
X43386936Y-103917376D01*
X43402400Y-103839633D01*
X43402400Y-103760367D01*
X43386936Y-103682624D01*
X43356602Y-103609392D01*
X43312564Y-103543485D01*
X43256515Y-103487436D01*
X43190608Y-103443398D01*
X43117376Y-103413064D01*
X43039633Y-103397600D01*
X42960367Y-103397600D01*
X42882624Y-103413064D01*
X42809392Y-103443398D01*
X42743485Y-103487436D01*
X42687436Y-103543485D01*
X42643398Y-103609392D01*
X42613064Y-103682624D01*
X42597600Y-103760367D01*
X32050800Y-103760367D01*
X32050800Y-102560367D01*
X36497600Y-102560367D01*
X36497600Y-102639633D01*
X36513064Y-102717376D01*
X36543398Y-102790608D01*
X36587436Y-102856515D01*
X36643485Y-102912564D01*
X36709392Y-102956602D01*
X36782624Y-102986936D01*
X36860367Y-103002400D01*
X36939633Y-103002400D01*
X37017376Y-102986936D01*
X37090608Y-102956602D01*
X37156515Y-102912564D01*
X37200002Y-102869077D01*
X37243489Y-102912564D01*
X37309396Y-102956602D01*
X37382628Y-102986936D01*
X37460371Y-103002400D01*
X37539637Y-103002400D01*
X37617380Y-102986936D01*
X37681522Y-102960367D01*
X41797600Y-102960367D01*
X41797600Y-103039633D01*
X41813064Y-103117376D01*
X41843398Y-103190608D01*
X41887436Y-103256515D01*
X41943485Y-103312564D01*
X42009392Y-103356602D01*
X42082624Y-103386936D01*
X42160367Y-103402400D01*
X42239633Y-103402400D01*
X42317376Y-103386936D01*
X42390608Y-103356602D01*
X42456515Y-103312564D01*
X42512564Y-103256515D01*
X42556602Y-103190608D01*
X42586936Y-103117376D01*
X42602400Y-103039633D01*
X42602400Y-102960367D01*
X42586936Y-102882624D01*
X42556602Y-102809392D01*
X42512564Y-102743485D01*
X42456515Y-102687436D01*
X42390608Y-102643398D01*
X42317376Y-102613064D01*
X42239633Y-102597600D01*
X42160367Y-102597600D01*
X42082624Y-102613064D01*
X42009392Y-102643398D01*
X41943485Y-102687436D01*
X41887436Y-102743485D01*
X41843398Y-102809392D01*
X41813064Y-102882624D01*
X41797600Y-102960367D01*
X37681522Y-102960367D01*
X37690612Y-102956602D01*
X37756519Y-102912564D01*
X37812568Y-102856515D01*
X37856606Y-102790608D01*
X37886940Y-102717376D01*
X37902404Y-102639633D01*
X37902404Y-102560367D01*
X37886940Y-102482624D01*
X37856606Y-102409392D01*
X37812568Y-102343485D01*
X37809463Y-102340380D01*
X42397600Y-102340380D01*
X42397600Y-102419646D01*
X42413064Y-102497389D01*
X42443398Y-102570621D01*
X42487436Y-102636528D01*
X42543485Y-102692577D01*
X42609392Y-102736615D01*
X42682624Y-102766949D01*
X42760367Y-102782413D01*
X42839633Y-102782413D01*
X42917376Y-102766949D01*
X42990608Y-102736615D01*
X43056515Y-102692577D01*
X43112564Y-102636528D01*
X43156602Y-102570621D01*
X43186936Y-102497389D01*
X43202400Y-102419646D01*
X43202400Y-102340380D01*
X43186936Y-102262637D01*
X43156602Y-102189405D01*
X43112564Y-102123498D01*
X43056515Y-102067449D01*
X42990608Y-102023411D01*
X42917376Y-101993077D01*
X42839633Y-101977613D01*
X42760367Y-101977613D01*
X42682624Y-101993077D01*
X42609392Y-102023411D01*
X42543485Y-102067449D01*
X42487436Y-102123498D01*
X42443398Y-102189405D01*
X42413064Y-102262637D01*
X42397600Y-102340380D01*
X37809463Y-102340380D01*
X37756519Y-102287436D01*
X37690612Y-102243398D01*
X37617380Y-102213064D01*
X37539637Y-102197600D01*
X37460371Y-102197600D01*
X37382628Y-102213064D01*
X37309396Y-102243398D01*
X37243489Y-102287436D01*
X37200002Y-102330923D01*
X37156515Y-102287436D01*
X37090608Y-102243398D01*
X37017376Y-102213064D01*
X36939633Y-102197600D01*
X36860367Y-102197600D01*
X36782624Y-102213064D01*
X36709392Y-102243398D01*
X36643485Y-102287436D01*
X36587436Y-102343485D01*
X36543398Y-102409392D01*
X36513064Y-102482624D01*
X36497600Y-102560367D01*
X32050800Y-102560367D01*
X32050800Y-101062829D01*
X40722600Y-101062829D01*
X40722600Y-101137171D01*
X40737103Y-101210083D01*
X40765553Y-101278766D01*
X40806854Y-101340578D01*
X40859422Y-101393146D01*
X40921234Y-101434447D01*
X40989917Y-101462897D01*
X41062829Y-101477400D01*
X41137171Y-101477400D01*
X41210083Y-101462897D01*
X41278766Y-101434447D01*
X41340578Y-101393146D01*
X41393146Y-101340578D01*
X41434447Y-101278766D01*
X41462897Y-101210083D01*
X41477400Y-101137171D01*
X41477400Y-101062829D01*
X41462897Y-100989917D01*
X41434447Y-100921234D01*
X41393146Y-100859422D01*
X41340578Y-100806854D01*
X41278766Y-100765553D01*
X41272190Y-100762829D01*
X45822600Y-100762829D01*
X45822600Y-100837171D01*
X45837103Y-100910083D01*
X45865553Y-100978766D01*
X45906854Y-101040578D01*
X45959422Y-101093146D01*
X46021234Y-101134447D01*
X46089917Y-101162897D01*
X46162829Y-101177400D01*
X46237171Y-101177400D01*
X46310083Y-101162897D01*
X46378766Y-101134447D01*
X46440578Y-101093146D01*
X46493146Y-101040578D01*
X46534447Y-100978766D01*
X46562897Y-100910083D01*
X46577400Y-100837171D01*
X46577400Y-100762829D01*
X46562897Y-100689917D01*
X46534447Y-100621234D01*
X46493146Y-100559422D01*
X46440578Y-100506854D01*
X46378766Y-100465553D01*
X46310083Y-100437103D01*
X46237171Y-100422600D01*
X46162829Y-100422600D01*
X46089917Y-100437103D01*
X46021234Y-100465553D01*
X45959422Y-100506854D01*
X45906854Y-100559422D01*
X45865553Y-100621234D01*
X45837103Y-100689917D01*
X45822600Y-100762829D01*
X41272190Y-100762829D01*
X41210083Y-100737103D01*
X41137171Y-100722600D01*
X41062829Y-100722600D01*
X40989917Y-100737103D01*
X40921234Y-100765553D01*
X40859422Y-100806854D01*
X40806854Y-100859422D01*
X40765553Y-100921234D01*
X40737103Y-100989917D01*
X40722600Y-101062829D01*
X32050800Y-101062829D01*
X32050800Y-99060367D01*
X35997598Y-99060367D01*
X35997598Y-99139633D01*
X36013062Y-99217376D01*
X36043396Y-99290608D01*
X36087434Y-99356515D01*
X36143483Y-99412564D01*
X36209390Y-99456602D01*
X36282622Y-99486936D01*
X36348300Y-99500000D01*
X36282624Y-99513064D01*
X36209392Y-99543398D01*
X36143485Y-99587436D01*
X36087436Y-99643485D01*
X36043398Y-99709392D01*
X36013064Y-99782624D01*
X35997600Y-99860367D01*
X35997600Y-99939633D01*
X36013064Y-100017376D01*
X36043398Y-100090608D01*
X36087436Y-100156515D01*
X36143485Y-100212564D01*
X36209392Y-100256602D01*
X36282624Y-100286936D01*
X36360367Y-100302400D01*
X36439633Y-100302400D01*
X36517376Y-100286936D01*
X36575574Y-100262829D01*
X40722600Y-100262829D01*
X40722600Y-100337171D01*
X40737103Y-100410083D01*
X40765553Y-100478766D01*
X40806854Y-100540578D01*
X40859422Y-100593146D01*
X40921234Y-100634447D01*
X40989917Y-100662897D01*
X41062829Y-100677400D01*
X41137171Y-100677400D01*
X41210083Y-100662897D01*
X41278766Y-100634447D01*
X41340578Y-100593146D01*
X41393146Y-100540578D01*
X41434447Y-100478766D01*
X41462897Y-100410083D01*
X41477400Y-100337171D01*
X41477400Y-100262829D01*
X41462897Y-100189917D01*
X41434447Y-100121234D01*
X41393146Y-100059422D01*
X41340578Y-100006854D01*
X41278766Y-99965553D01*
X41210083Y-99937103D01*
X41137171Y-99922600D01*
X41062829Y-99922600D01*
X40989917Y-99937103D01*
X40921234Y-99965553D01*
X40859422Y-100006854D01*
X40806854Y-100059422D01*
X40765553Y-100121234D01*
X40737103Y-100189917D01*
X40722600Y-100262829D01*
X36575574Y-100262829D01*
X36590608Y-100256602D01*
X36656515Y-100212564D01*
X36712564Y-100156515D01*
X36756602Y-100090608D01*
X36786936Y-100017376D01*
X36802400Y-99939633D01*
X36802400Y-99860367D01*
X36786936Y-99782624D01*
X36756602Y-99709392D01*
X36712564Y-99643485D01*
X36656515Y-99587436D01*
X36590608Y-99543398D01*
X36517376Y-99513064D01*
X36451698Y-99500000D01*
X36517374Y-99486936D01*
X36590606Y-99456602D01*
X36656513Y-99412564D01*
X36712562Y-99356515D01*
X36756600Y-99290608D01*
X36786934Y-99217376D01*
X36802398Y-99139633D01*
X36802398Y-99060367D01*
X36786934Y-98982624D01*
X36756600Y-98909392D01*
X36712562Y-98843485D01*
X36656513Y-98787436D01*
X36590606Y-98743398D01*
X36517374Y-98713064D01*
X36439631Y-98697600D01*
X36360365Y-98697600D01*
X36282622Y-98713064D01*
X36209390Y-98743398D01*
X36143483Y-98787436D01*
X36087434Y-98843485D01*
X36043396Y-98909392D01*
X36013062Y-98982624D01*
X35997598Y-99060367D01*
X32050800Y-99060367D01*
X32050800Y-94500000D01*
X37381176Y-94500000D01*
X37385600Y-94544915D01*
X37385601Y-97044918D01*
X37398832Y-97179254D01*
X37451118Y-97351619D01*
X37536027Y-97510471D01*
X37650294Y-97649707D01*
X37766600Y-97745156D01*
X37766600Y-98592011D01*
X37764021Y-98618198D01*
X37766600Y-98644385D01*
X37766600Y-98644392D01*
X37774319Y-98722762D01*
X37804819Y-98823308D01*
X37854349Y-98915973D01*
X37921005Y-98997193D01*
X37941354Y-99013893D01*
X38786111Y-99858651D01*
X38802807Y-99878995D01*
X38884027Y-99945651D01*
X38976691Y-99995181D01*
X39077237Y-100025681D01*
X39155607Y-100033400D01*
X39155614Y-100033400D01*
X39181801Y-100035979D01*
X39207988Y-100033400D01*
X39526195Y-100033400D01*
X39604565Y-100025681D01*
X39705111Y-99995181D01*
X39797775Y-99945651D01*
X39878995Y-99878995D01*
X39945651Y-99797775D01*
X39995181Y-99705111D01*
X40025681Y-99604565D01*
X40035980Y-99500000D01*
X40032319Y-99462829D01*
X40722600Y-99462829D01*
X40722600Y-99537171D01*
X40737103Y-99610083D01*
X40765553Y-99678766D01*
X40806854Y-99740578D01*
X40859422Y-99793146D01*
X40921234Y-99834447D01*
X40989917Y-99862897D01*
X41062829Y-99877400D01*
X41137171Y-99877400D01*
X41210083Y-99862897D01*
X41278766Y-99834447D01*
X41340578Y-99793146D01*
X41393146Y-99740578D01*
X41434447Y-99678766D01*
X41462897Y-99610083D01*
X41477400Y-99537171D01*
X41477400Y-99462829D01*
X41522600Y-99462829D01*
X41522600Y-99537171D01*
X41537103Y-99610083D01*
X41565553Y-99678766D01*
X41606854Y-99740578D01*
X41659422Y-99793146D01*
X41721234Y-99834447D01*
X41789917Y-99862897D01*
X41862829Y-99877400D01*
X41937171Y-99877400D01*
X42010083Y-99862897D01*
X42078766Y-99834447D01*
X42140578Y-99793146D01*
X42193146Y-99740578D01*
X42234447Y-99678766D01*
X42262897Y-99610083D01*
X42277400Y-99537171D01*
X42277400Y-99462829D01*
X42262897Y-99389917D01*
X42234447Y-99321234D01*
X42193146Y-99259422D01*
X42140578Y-99206854D01*
X42078766Y-99165553D01*
X42010083Y-99137103D01*
X41937171Y-99122600D01*
X41862829Y-99122600D01*
X41789917Y-99137103D01*
X41721234Y-99165553D01*
X41659422Y-99206854D01*
X41606854Y-99259422D01*
X41565553Y-99321234D01*
X41537103Y-99389917D01*
X41522600Y-99462829D01*
X41477400Y-99462829D01*
X41462897Y-99389917D01*
X41434447Y-99321234D01*
X41393146Y-99259422D01*
X41340578Y-99206854D01*
X41278766Y-99165553D01*
X41210083Y-99137103D01*
X41137171Y-99122600D01*
X41062829Y-99122600D01*
X40989917Y-99137103D01*
X40921234Y-99165553D01*
X40859422Y-99206854D01*
X40806854Y-99259422D01*
X40765553Y-99321234D01*
X40737103Y-99389917D01*
X40722600Y-99462829D01*
X40032319Y-99462829D01*
X40025681Y-99395435D01*
X39995181Y-99294889D01*
X39945651Y-99202225D01*
X39878995Y-99121005D01*
X39797775Y-99054349D01*
X39705111Y-99004819D01*
X39604565Y-98974319D01*
X39526195Y-98966600D01*
X39402744Y-98966600D01*
X39098973Y-98662829D01*
X39922600Y-98662829D01*
X39922600Y-98737171D01*
X39937103Y-98810083D01*
X39965553Y-98878766D01*
X40006854Y-98940578D01*
X40059422Y-98993146D01*
X40121234Y-99034447D01*
X40189917Y-99062897D01*
X40262829Y-99077400D01*
X40337171Y-99077400D01*
X40410083Y-99062897D01*
X40478766Y-99034447D01*
X40540578Y-98993146D01*
X40593146Y-98940578D01*
X40634447Y-98878766D01*
X40662897Y-98810083D01*
X40677400Y-98737171D01*
X40677400Y-98662829D01*
X40722600Y-98662829D01*
X40722600Y-98737171D01*
X40737103Y-98810083D01*
X40765553Y-98878766D01*
X40806854Y-98940578D01*
X40859422Y-98993146D01*
X40921234Y-99034447D01*
X40989917Y-99062897D01*
X41062829Y-99077400D01*
X41137171Y-99077400D01*
X41210083Y-99062897D01*
X41278766Y-99034447D01*
X41340578Y-98993146D01*
X41393146Y-98940578D01*
X41434447Y-98878766D01*
X41462897Y-98810083D01*
X41477400Y-98737171D01*
X41477400Y-98662829D01*
X41462897Y-98589917D01*
X41434447Y-98521234D01*
X41393146Y-98459422D01*
X41340578Y-98406854D01*
X41278766Y-98365553D01*
X41210083Y-98337103D01*
X41137171Y-98322600D01*
X41062829Y-98322600D01*
X40989917Y-98337103D01*
X40921234Y-98365553D01*
X40859422Y-98406854D01*
X40806854Y-98459422D01*
X40765553Y-98521234D01*
X40737103Y-98589917D01*
X40722600Y-98662829D01*
X40677400Y-98662829D01*
X40662897Y-98589917D01*
X40634447Y-98521234D01*
X40593146Y-98459422D01*
X40540578Y-98406854D01*
X40478766Y-98365553D01*
X40410083Y-98337103D01*
X40337171Y-98322600D01*
X40262829Y-98322600D01*
X40189917Y-98337103D01*
X40121234Y-98365553D01*
X40059422Y-98406854D01*
X40006854Y-98459422D01*
X39965553Y-98521234D01*
X39937103Y-98589917D01*
X39922600Y-98662829D01*
X39098973Y-98662829D01*
X38833400Y-98397257D01*
X38833400Y-97862829D01*
X40722600Y-97862829D01*
X40722600Y-97937171D01*
X40737103Y-98010083D01*
X40765553Y-98078766D01*
X40806854Y-98140578D01*
X40859422Y-98193146D01*
X40921234Y-98234447D01*
X40989917Y-98262897D01*
X41062829Y-98277400D01*
X41137171Y-98277400D01*
X41210083Y-98262897D01*
X41278766Y-98234447D01*
X41340578Y-98193146D01*
X41393146Y-98140578D01*
X41434447Y-98078766D01*
X41462897Y-98010083D01*
X41477400Y-97937171D01*
X41477400Y-97862829D01*
X41462897Y-97789917D01*
X41434447Y-97721234D01*
X41393146Y-97659422D01*
X41340578Y-97606854D01*
X41278766Y-97565553D01*
X41210083Y-97537103D01*
X41137171Y-97522600D01*
X41062829Y-97522600D01*
X40989917Y-97537103D01*
X40921234Y-97565553D01*
X40859422Y-97606854D01*
X40806854Y-97659422D01*
X40765553Y-97721234D01*
X40737103Y-97789917D01*
X40722600Y-97862829D01*
X38833400Y-97862829D01*
X38833400Y-97745157D01*
X38949707Y-97649707D01*
X39063974Y-97510471D01*
X39148883Y-97351619D01*
X39201169Y-97179254D01*
X39212635Y-97062829D01*
X40722600Y-97062829D01*
X40722600Y-97137171D01*
X40737103Y-97210083D01*
X40765553Y-97278766D01*
X40806854Y-97340578D01*
X40859422Y-97393146D01*
X40921234Y-97434447D01*
X40989917Y-97462897D01*
X41062829Y-97477400D01*
X41137171Y-97477400D01*
X41210083Y-97462897D01*
X41278766Y-97434447D01*
X41340578Y-97393146D01*
X41393146Y-97340578D01*
X41434447Y-97278766D01*
X41462897Y-97210083D01*
X41477400Y-97137171D01*
X41477400Y-97062829D01*
X41522600Y-97062829D01*
X41522600Y-97137171D01*
X41537103Y-97210083D01*
X41565553Y-97278766D01*
X41606854Y-97340578D01*
X41659422Y-97393146D01*
X41721234Y-97434447D01*
X41789917Y-97462897D01*
X41862829Y-97477400D01*
X41937171Y-97477400D01*
X42010083Y-97462897D01*
X42078766Y-97434447D01*
X42140578Y-97393146D01*
X42193146Y-97340578D01*
X42234447Y-97278766D01*
X42262897Y-97210083D01*
X42277400Y-97137171D01*
X42277400Y-97062829D01*
X42262897Y-96989917D01*
X42234447Y-96921234D01*
X42193146Y-96859422D01*
X42140578Y-96806854D01*
X42078766Y-96765553D01*
X42010083Y-96737103D01*
X41937171Y-96722600D01*
X41862829Y-96722600D01*
X41789917Y-96737103D01*
X41721234Y-96765553D01*
X41659422Y-96806854D01*
X41606854Y-96859422D01*
X41565553Y-96921234D01*
X41537103Y-96989917D01*
X41522600Y-97062829D01*
X41477400Y-97062829D01*
X41462897Y-96989917D01*
X41434447Y-96921234D01*
X41393146Y-96859422D01*
X41340578Y-96806854D01*
X41278766Y-96765553D01*
X41210083Y-96737103D01*
X41137171Y-96722600D01*
X41062829Y-96722600D01*
X40989917Y-96737103D01*
X40921234Y-96765553D01*
X40859422Y-96806854D01*
X40806854Y-96859422D01*
X40765553Y-96921234D01*
X40737103Y-96989917D01*
X40722600Y-97062829D01*
X39212635Y-97062829D01*
X39214400Y-97044918D01*
X39214400Y-96833400D01*
X39526195Y-96833400D01*
X39604565Y-96825681D01*
X39705111Y-96795181D01*
X39797775Y-96745651D01*
X39878995Y-96678995D01*
X39945651Y-96597775D01*
X39995181Y-96505111D01*
X40025681Y-96404565D01*
X40035980Y-96300000D01*
X40032319Y-96262829D01*
X40722600Y-96262829D01*
X40722600Y-96337171D01*
X40737103Y-96410083D01*
X40765553Y-96478766D01*
X40806854Y-96540578D01*
X40859422Y-96593146D01*
X40921234Y-96634447D01*
X40989917Y-96662897D01*
X41062829Y-96677400D01*
X41137171Y-96677400D01*
X41210083Y-96662897D01*
X41278766Y-96634447D01*
X41340578Y-96593146D01*
X41393146Y-96540578D01*
X41434447Y-96478766D01*
X41462897Y-96410083D01*
X41477400Y-96337171D01*
X41477400Y-96262829D01*
X41522600Y-96262829D01*
X41522600Y-96337171D01*
X41537103Y-96410083D01*
X41565553Y-96478766D01*
X41606854Y-96540578D01*
X41659422Y-96593146D01*
X41721234Y-96634447D01*
X41789917Y-96662897D01*
X41862829Y-96677400D01*
X41937171Y-96677400D01*
X42010083Y-96662897D01*
X42078766Y-96634447D01*
X42140578Y-96593146D01*
X42193146Y-96540578D01*
X42234447Y-96478766D01*
X42262897Y-96410083D01*
X42277400Y-96337171D01*
X42277400Y-96262829D01*
X42262897Y-96189917D01*
X42234447Y-96121234D01*
X42193146Y-96059422D01*
X42140578Y-96006854D01*
X42078766Y-95965553D01*
X42010083Y-95937103D01*
X41937171Y-95922600D01*
X41862829Y-95922600D01*
X41789917Y-95937103D01*
X41721234Y-95965553D01*
X41659422Y-96006854D01*
X41606854Y-96059422D01*
X41565553Y-96121234D01*
X41537103Y-96189917D01*
X41522600Y-96262829D01*
X41477400Y-96262829D01*
X41462897Y-96189917D01*
X41434447Y-96121234D01*
X41393146Y-96059422D01*
X41340578Y-96006854D01*
X41278766Y-95965553D01*
X41210083Y-95937103D01*
X41137171Y-95922600D01*
X41062829Y-95922600D01*
X40989917Y-95937103D01*
X40921234Y-95965553D01*
X40859422Y-96006854D01*
X40806854Y-96059422D01*
X40765553Y-96121234D01*
X40737103Y-96189917D01*
X40722600Y-96262829D01*
X40032319Y-96262829D01*
X40025681Y-96195435D01*
X39995181Y-96094889D01*
X39945651Y-96002225D01*
X39878995Y-95921005D01*
X39797775Y-95854349D01*
X39705111Y-95804819D01*
X39604565Y-95774319D01*
X39526195Y-95766600D01*
X39320941Y-95766600D01*
X39214400Y-95660059D01*
X39214400Y-94878756D01*
X39430327Y-94662829D01*
X39922600Y-94662829D01*
X39922600Y-94737171D01*
X39937103Y-94810083D01*
X39965553Y-94878766D01*
X40006854Y-94940578D01*
X40059422Y-94993146D01*
X40121234Y-95034447D01*
X40189917Y-95062897D01*
X40262829Y-95077400D01*
X40337171Y-95077400D01*
X40410083Y-95062897D01*
X40478766Y-95034447D01*
X40540578Y-94993146D01*
X40593146Y-94940578D01*
X40634447Y-94878766D01*
X40662897Y-94810083D01*
X40677400Y-94737171D01*
X40677400Y-94662829D01*
X40722600Y-94662829D01*
X40722600Y-94737171D01*
X40737103Y-94810083D01*
X40765553Y-94878766D01*
X40806854Y-94940578D01*
X40859422Y-94993146D01*
X40921234Y-95034447D01*
X40989917Y-95062897D01*
X41062829Y-95077400D01*
X41137171Y-95077400D01*
X41210083Y-95062897D01*
X41278766Y-95034447D01*
X41340578Y-94993146D01*
X41393146Y-94940578D01*
X41434447Y-94878766D01*
X41462897Y-94810083D01*
X41477400Y-94737171D01*
X41477400Y-94662829D01*
X41462897Y-94589917D01*
X41434447Y-94521234D01*
X41393146Y-94459422D01*
X41340578Y-94406854D01*
X41278766Y-94365553D01*
X41210083Y-94337103D01*
X41137171Y-94322600D01*
X41062829Y-94322600D01*
X40989917Y-94337103D01*
X40921234Y-94365553D01*
X40859422Y-94406854D01*
X40806854Y-94459422D01*
X40765553Y-94521234D01*
X40737103Y-94589917D01*
X40722600Y-94662829D01*
X40677400Y-94662829D01*
X40662897Y-94589917D01*
X40634447Y-94521234D01*
X40593146Y-94459422D01*
X40540578Y-94406854D01*
X40478766Y-94365553D01*
X40410083Y-94337103D01*
X40337171Y-94322600D01*
X40262829Y-94322600D01*
X40189917Y-94337103D01*
X40121234Y-94365553D01*
X40059422Y-94406854D01*
X40006854Y-94459422D01*
X39965553Y-94521234D01*
X39937103Y-94589917D01*
X39922600Y-94662829D01*
X39430327Y-94662829D01*
X41378757Y-92714400D01*
X42821244Y-92714400D01*
X43961084Y-93854241D01*
X44065430Y-93939875D01*
X44224282Y-94024784D01*
X44396647Y-94077069D01*
X44461501Y-94083457D01*
X44461501Y-94358402D01*
X44410083Y-94337103D01*
X44337171Y-94322600D01*
X44262829Y-94322600D01*
X44189917Y-94337103D01*
X44121234Y-94365553D01*
X44059422Y-94406854D01*
X44006854Y-94459422D01*
X43965553Y-94521234D01*
X43937103Y-94589917D01*
X43922600Y-94662829D01*
X43922600Y-94737171D01*
X43937103Y-94810083D01*
X43965553Y-94878766D01*
X44006854Y-94940578D01*
X44059422Y-94993146D01*
X44121234Y-95034447D01*
X44189917Y-95062897D01*
X44262829Y-95077400D01*
X44337171Y-95077400D01*
X44410083Y-95062897D01*
X44461501Y-95041598D01*
X44461501Y-95584157D01*
X44279059Y-95766600D01*
X43767124Y-95766600D01*
X43793146Y-95740578D01*
X43834447Y-95678766D01*
X43862897Y-95610083D01*
X43877400Y-95537171D01*
X43877400Y-95462829D01*
X43862897Y-95389917D01*
X43834447Y-95321234D01*
X43793146Y-95259422D01*
X43740578Y-95206854D01*
X43678766Y-95165553D01*
X43610083Y-95137103D01*
X43537171Y-95122600D01*
X43462829Y-95122600D01*
X43389917Y-95137103D01*
X43321234Y-95165553D01*
X43259422Y-95206854D01*
X43206854Y-95259422D01*
X43165553Y-95321234D01*
X43137103Y-95389917D01*
X43122600Y-95462829D01*
X43122600Y-95537171D01*
X43137103Y-95610083D01*
X43165553Y-95678766D01*
X43206854Y-95740578D01*
X43259422Y-95793146D01*
X43284890Y-95810163D01*
X43202225Y-95854349D01*
X43121005Y-95921005D01*
X43054349Y-96002225D01*
X43004819Y-96094889D01*
X42974319Y-96195435D01*
X42964020Y-96300000D01*
X42974319Y-96404565D01*
X43004819Y-96505111D01*
X43054349Y-96597775D01*
X43121005Y-96678995D01*
X43202225Y-96745651D01*
X43294889Y-96795181D01*
X43395435Y-96825681D01*
X43473805Y-96833400D01*
X44461502Y-96833400D01*
X44461502Y-97604551D01*
X44085990Y-97980064D01*
X44024143Y-98055426D01*
X43962819Y-98170153D01*
X43925057Y-98294639D01*
X43922220Y-98323439D01*
X43104307Y-99141352D01*
X43054349Y-99202227D01*
X43004819Y-99294890D01*
X42974319Y-99395436D01*
X42964021Y-99500000D01*
X42974319Y-99604564D01*
X43004819Y-99705110D01*
X43054349Y-99797773D01*
X43121005Y-99878995D01*
X43202227Y-99945651D01*
X43294890Y-99995181D01*
X43395436Y-100025681D01*
X43500000Y-100035979D01*
X43604564Y-100025681D01*
X43705110Y-99995181D01*
X43797773Y-99945651D01*
X43858648Y-99895693D01*
X44676561Y-99077780D01*
X44705361Y-99074943D01*
X44829847Y-99037181D01*
X44944574Y-98975857D01*
X45019936Y-98914010D01*
X45565934Y-98368013D01*
X45591134Y-98347332D01*
X45673660Y-98246773D01*
X45734983Y-98132046D01*
X45772745Y-98007560D01*
X45782301Y-97910538D01*
X45785496Y-97878099D01*
X45782301Y-97845660D01*
X45782301Y-97445593D01*
X48647600Y-97445593D01*
X48647600Y-97554407D01*
X48668828Y-97661129D01*
X48710469Y-97761660D01*
X48770923Y-97852135D01*
X48847865Y-97929077D01*
X48938340Y-97989531D01*
X49038871Y-98031172D01*
X49145593Y-98052400D01*
X49254407Y-98052400D01*
X49361129Y-98031172D01*
X49461660Y-97989531D01*
X49552135Y-97929077D01*
X49629077Y-97852135D01*
X49689531Y-97761660D01*
X49731172Y-97661129D01*
X49752400Y-97554407D01*
X49752400Y-97445593D01*
X49731172Y-97338871D01*
X49689531Y-97238340D01*
X49629077Y-97147865D01*
X49552135Y-97070923D01*
X49461660Y-97010469D01*
X49361129Y-96968828D01*
X49254407Y-96947600D01*
X49145593Y-96947600D01*
X49038871Y-96968828D01*
X48938340Y-97010469D01*
X48847865Y-97070923D01*
X48770923Y-97147865D01*
X48710469Y-97238340D01*
X48668828Y-97338871D01*
X48647600Y-97445593D01*
X45782301Y-97445593D01*
X45782301Y-93754340D01*
X45785496Y-93721901D01*
X45772745Y-93592440D01*
X45734983Y-93467954D01*
X45673660Y-93353227D01*
X45591134Y-93252668D01*
X45565935Y-93231988D01*
X45493073Y-93159126D01*
X45477069Y-92996647D01*
X45424784Y-92824282D01*
X45339875Y-92665430D01*
X45254241Y-92561084D01*
X45138750Y-92445593D01*
X48726690Y-92445593D01*
X48726690Y-92554407D01*
X48747918Y-92661129D01*
X48789559Y-92761660D01*
X48850013Y-92852135D01*
X48926955Y-92929077D01*
X49017430Y-92989531D01*
X49117961Y-93031172D01*
X49224683Y-93052400D01*
X49333497Y-93052400D01*
X49440219Y-93031172D01*
X49540750Y-92989531D01*
X49631225Y-92929077D01*
X49708167Y-92852135D01*
X49768621Y-92761660D01*
X49810262Y-92661129D01*
X49831490Y-92554407D01*
X49831490Y-92445593D01*
X49810262Y-92338871D01*
X49768621Y-92238340D01*
X49708167Y-92147865D01*
X49631225Y-92070923D01*
X49540750Y-92010469D01*
X49440219Y-91968828D01*
X49333497Y-91947600D01*
X49224683Y-91947600D01*
X49117961Y-91968828D01*
X49017430Y-92010469D01*
X48926955Y-92070923D01*
X48850013Y-92147865D01*
X48789559Y-92238340D01*
X48747918Y-92338871D01*
X48726690Y-92445593D01*
X45138750Y-92445593D01*
X43914400Y-91221244D01*
X43914400Y-89160367D01*
X45597600Y-89160367D01*
X45597600Y-89239633D01*
X45613064Y-89317376D01*
X45643398Y-89390608D01*
X45687436Y-89456515D01*
X45743485Y-89512564D01*
X45809392Y-89556602D01*
X45882624Y-89586936D01*
X45960367Y-89602400D01*
X46039633Y-89602400D01*
X46117376Y-89586936D01*
X46190608Y-89556602D01*
X46256515Y-89512564D01*
X46312564Y-89456515D01*
X46356602Y-89390608D01*
X46386936Y-89317376D01*
X46402400Y-89239633D01*
X46402400Y-89160367D01*
X46386936Y-89082624D01*
X46356602Y-89009392D01*
X46312564Y-88943485D01*
X46256515Y-88887436D01*
X46190608Y-88843398D01*
X46117376Y-88813064D01*
X46039633Y-88797600D01*
X45960367Y-88797600D01*
X45882624Y-88813064D01*
X45809392Y-88843398D01*
X45743485Y-88887436D01*
X45687436Y-88943485D01*
X45643398Y-89009392D01*
X45613064Y-89082624D01*
X45597600Y-89160367D01*
X43914400Y-89160367D01*
X43914400Y-88967598D01*
X43924384Y-88934687D01*
X43927800Y-88900000D01*
X43927800Y-88160367D01*
X45597600Y-88160367D01*
X45597600Y-88239633D01*
X45613064Y-88317376D01*
X45643398Y-88390608D01*
X45687436Y-88456515D01*
X45743485Y-88512564D01*
X45809392Y-88556602D01*
X45882624Y-88586936D01*
X45960367Y-88602400D01*
X46039633Y-88602400D01*
X46117376Y-88586936D01*
X46190608Y-88556602D01*
X46256515Y-88512564D01*
X46312564Y-88456515D01*
X46356602Y-88390608D01*
X46386936Y-88317376D01*
X46401214Y-88245593D01*
X48047600Y-88245593D01*
X48047600Y-88354407D01*
X48068828Y-88461129D01*
X48110469Y-88561660D01*
X48170923Y-88652135D01*
X48247865Y-88729077D01*
X48338340Y-88789531D01*
X48438871Y-88831172D01*
X48545593Y-88852400D01*
X48654407Y-88852400D01*
X48761129Y-88831172D01*
X48861660Y-88789531D01*
X48952135Y-88729077D01*
X49029077Y-88652135D01*
X49089531Y-88561660D01*
X49131172Y-88461129D01*
X49152400Y-88354407D01*
X49152400Y-88245593D01*
X49131172Y-88138871D01*
X49089531Y-88038340D01*
X49029077Y-87947865D01*
X48952135Y-87870923D01*
X48861660Y-87810469D01*
X48761129Y-87768828D01*
X48654407Y-87747600D01*
X48545593Y-87747600D01*
X48438871Y-87768828D01*
X48338340Y-87810469D01*
X48247865Y-87870923D01*
X48170923Y-87947865D01*
X48110469Y-88038340D01*
X48068828Y-88138871D01*
X48047600Y-88245593D01*
X46401214Y-88245593D01*
X46402400Y-88239633D01*
X46402400Y-88160367D01*
X46386936Y-88082624D01*
X46356602Y-88009392D01*
X46312564Y-87943485D01*
X46256515Y-87887436D01*
X46190608Y-87843398D01*
X46117376Y-87813064D01*
X46039633Y-87797600D01*
X45960367Y-87797600D01*
X45882624Y-87813064D01*
X45809392Y-87843398D01*
X45743485Y-87887436D01*
X45687436Y-87943485D01*
X45643398Y-88009392D01*
X45613064Y-88082624D01*
X45597600Y-88160367D01*
X43927800Y-88160367D01*
X43927800Y-87160367D01*
X45597600Y-87160367D01*
X45597600Y-87239633D01*
X45613064Y-87317376D01*
X45643398Y-87390608D01*
X45687436Y-87456515D01*
X45743485Y-87512564D01*
X45809392Y-87556602D01*
X45882624Y-87586936D01*
X45960367Y-87602400D01*
X46039633Y-87602400D01*
X46117376Y-87586936D01*
X46190608Y-87556602D01*
X46256515Y-87512564D01*
X46312564Y-87456515D01*
X46356602Y-87390608D01*
X46386936Y-87317376D01*
X46402400Y-87239633D01*
X46402400Y-87160367D01*
X46386936Y-87082624D01*
X46356602Y-87009392D01*
X46312564Y-86943485D01*
X46256515Y-86887436D01*
X46190608Y-86843398D01*
X46117376Y-86813064D01*
X46039633Y-86797600D01*
X45960367Y-86797600D01*
X45882624Y-86813064D01*
X45809392Y-86843398D01*
X45743485Y-86887436D01*
X45687436Y-86943485D01*
X45643398Y-87009392D01*
X45613064Y-87082624D01*
X45597600Y-87160367D01*
X43927800Y-87160367D01*
X43927800Y-86900000D01*
X43924384Y-86865314D01*
X43914266Y-86831960D01*
X43884977Y-86761249D01*
X43868546Y-86730508D01*
X43846434Y-86703565D01*
X43819491Y-86681453D01*
X43788751Y-86665023D01*
X43718040Y-86635734D01*
X43684687Y-86625616D01*
X43650000Y-86622200D01*
X41750000Y-86622200D01*
X41715314Y-86625616D01*
X41681960Y-86635734D01*
X41611249Y-86665023D01*
X41580508Y-86681454D01*
X41553565Y-86703566D01*
X41531453Y-86730509D01*
X41515023Y-86761249D01*
X41485734Y-86831960D01*
X41475616Y-86865313D01*
X41472200Y-86900000D01*
X41472200Y-88900000D01*
X41475616Y-88934686D01*
X41485600Y-88967600D01*
X41485601Y-90021242D01*
X40385190Y-91121654D01*
X40350293Y-91150293D01*
X40321659Y-91185184D01*
X37685190Y-93821654D01*
X37650293Y-93850293D01*
X37536026Y-93989530D01*
X37451117Y-94148382D01*
X37398831Y-94320747D01*
X37385600Y-94455082D01*
X37381176Y-94500000D01*
X32050800Y-94500000D01*
X32050800Y-85345593D01*
X43847600Y-85345593D01*
X43847600Y-85454407D01*
X43868828Y-85561129D01*
X43910469Y-85661660D01*
X43970923Y-85752135D01*
X44047865Y-85829077D01*
X44138340Y-85889531D01*
X44238871Y-85931172D01*
X44345593Y-85952400D01*
X44454407Y-85952400D01*
X44561129Y-85931172D01*
X44661660Y-85889531D01*
X44752135Y-85829077D01*
X44829077Y-85752135D01*
X44889531Y-85661660D01*
X44931172Y-85561129D01*
X44952400Y-85454407D01*
X44952400Y-85345593D01*
X44931172Y-85238871D01*
X44889531Y-85138340D01*
X44829077Y-85047865D01*
X44752135Y-84970923D01*
X44661660Y-84910469D01*
X44561129Y-84868828D01*
X44454407Y-84847600D01*
X44345593Y-84847600D01*
X44238871Y-84868828D01*
X44138340Y-84910469D01*
X44047865Y-84970923D01*
X43970923Y-85047865D01*
X43910469Y-85138340D01*
X43868828Y-85238871D01*
X43847600Y-85345593D01*
X32050800Y-85345593D01*
X32050800Y-83110104D01*
X32068170Y-83068170D01*
X32110104Y-83050800D01*
X50889896Y-83050800D01*
X50931830Y-83068170D01*
G37*
G04 #@! TD.AperFunction*
M02*
