M48
; DRILL file {KiCad (5.1.9)-1} date 06/07/21 22:02:34
; FORMAT={-:-/ absolute / inch / decimal}
; #@! TF.CreationDate,2021-06-07T22:02:34-04:00
; #@! TF.GenerationSoftware,Kicad,Pcbnew,(5.1.9)-1
FMAT,2
INCH
T1C0.0079
T2C0.0098
T3C0.0100
T4C0.0157
T5C0.0394
%
G90
G05
T1
X1.5551Y-3.7913
X1.5551Y-3.8228
X1.5551Y-3.8858
X1.5551Y-3.9173
X1.5866Y-3.7283
X1.5866Y-3.8858
X1.6181Y-3.7283
X1.6181Y-3.7913
X1.6181Y-3.8228
X1.6181Y-3.8543
X1.6181Y-3.8858
X1.6181Y-3.9173
X1.6181Y-3.9488
X1.6181Y-3.9803
X1.6496Y-3.7598
X1.6496Y-3.7913
X1.6496Y-3.8228
X1.6496Y-3.8858
X1.6496Y-3.9173
X1.7126Y-3.7598
X1.7126Y-3.7913
X1.7126Y-3.8228
X1.7126Y-3.9173
X1.7441Y-3.7283
X1.811Y-3.7362
X1.8189Y-3.9685
X1.8189Y-4.0
T2
X1.6535Y-3.4331
X1.6535Y-3.4606
X1.6535Y-3.4882
X1.6811Y-3.4331
X1.6811Y-3.4606
X1.6811Y-3.4882
X1.7087Y-3.4331
X1.7087Y-3.4606
X1.7087Y-3.4882
X1.752Y-3.5984
X1.811Y-3.4331
X1.811Y-3.4724
X1.811Y-3.5118
X1.8858Y-3.3661
X1.9134Y-3.3661
X1.9409Y-3.3661
T3
X1.378Y-3.9567
X1.378Y-4.0354
X1.3898Y-4.1142
X1.4331Y-3.9016
X1.4331Y-3.9331
X1.44Y-4.223
X1.4528Y-4.0394
X1.4764Y-4.0394
X1.5118Y-4.1024
X1.5197Y-4.189
X1.5551Y-4.189
X1.6181Y-4.126
X1.6614Y-4.0551
X1.6614Y-4.2165
X1.685Y-4.0307
X1.6929Y-4.0866
X1.7008Y-4.185
X1.74Y-4.1416
X1.7559Y-3.3071
T4
X1.748Y-3.3622
X1.84Y-4.2425
X1.84Y-4.3425
X1.84Y-4.4425
X1.8701Y-3.874
X1.9134Y-3.4764
X1.937Y-3.8386
X1.94Y-4.2425
X1.94Y-4.3425
X1.94Y-4.4425
X1.9401Y-3.6417
T5
X1.2894Y-4.2913
X1.2894Y-4.3913
X1.3894Y-4.2913
X1.3894Y-4.3913
X1.4894Y-4.2913
X1.4894Y-4.3913
X1.5894Y-4.2913
X1.5894Y-4.3913
X1.6894Y-4.2913
X1.6894Y-4.3913
X1.7894Y-4.2913
X1.7894Y-4.3913
X1.8894Y-4.2913
X1.8894Y-4.3913
X1.9894Y-4.2913
X1.9894Y-4.3913
T0
M30
