G04 #@! TF.GenerationSoftware,KiCad,Pcbnew,(5.1.9)-1*
G04 #@! TF.CreationDate,2021-06-07T22:02:30-04:00*
G04 #@! TF.ProjectId,icepool-board,69636570-6f6f-46c2-9d62-6f6172642e6b,2020-04*
G04 #@! TF.SameCoordinates,Original*
G04 #@! TF.FileFunction,Soldermask,Bot*
G04 #@! TF.FilePolarity,Negative*
%FSLAX46Y46*%
G04 Gerber Fmt 4.6, Leading zero omitted, Abs format (unit mm)*
G04 Created by KiCad (PCBNEW (5.1.9)-1) date 2021-06-07 22:02:30*
%MOMM*%
%LPD*%
G01*
G04 APERTURE LIST*
%ADD10C,0.150000*%
%ADD11O,1.801600X1.801600*%
G04 APERTURE END LIST*
D10*
X33599999Y-84264166D02*
X33133333Y-84264166D01*
X32899999Y-84264166D02*
X32933333Y-84230833D01*
X32966666Y-84264166D01*
X32933333Y-84297500D01*
X32899999Y-84264166D01*
X32966666Y-84264166D01*
X33566666Y-84897500D02*
X33599999Y-84830833D01*
X33599999Y-84697500D01*
X33566666Y-84630833D01*
X33533333Y-84597500D01*
X33466666Y-84564166D01*
X33266666Y-84564166D01*
X33199999Y-84597500D01*
X33166666Y-84630833D01*
X33133333Y-84697500D01*
X33133333Y-84830833D01*
X33166666Y-84897500D01*
X33566666Y-85464166D02*
X33599999Y-85397500D01*
X33599999Y-85264166D01*
X33566666Y-85197500D01*
X33499999Y-85164166D01*
X33233333Y-85164166D01*
X33166666Y-85197500D01*
X33133333Y-85264166D01*
X33133333Y-85397500D01*
X33166666Y-85464166D01*
X33233333Y-85497500D01*
X33299999Y-85497500D01*
X33366666Y-85164166D01*
X33133333Y-85797500D02*
X33833333Y-85797500D01*
X33166666Y-85797500D02*
X33133333Y-85864166D01*
X33133333Y-85997500D01*
X33166666Y-86064166D01*
X33199999Y-86097500D01*
X33266666Y-86130833D01*
X33466666Y-86130833D01*
X33533333Y-86097500D01*
X33566666Y-86064166D01*
X33599999Y-85997500D01*
X33599999Y-85864166D01*
X33566666Y-85797500D01*
X33599999Y-86530833D02*
X33566666Y-86464166D01*
X33533333Y-86430833D01*
X33466666Y-86397500D01*
X33266666Y-86397500D01*
X33199999Y-86430833D01*
X33166666Y-86464166D01*
X33133333Y-86530833D01*
X33133333Y-86630833D01*
X33166666Y-86697500D01*
X33199999Y-86730833D01*
X33266666Y-86764166D01*
X33466666Y-86764166D01*
X33533333Y-86730833D01*
X33566666Y-86697500D01*
X33599999Y-86630833D01*
X33599999Y-86530833D01*
X33599999Y-87164166D02*
X33566666Y-87097500D01*
X33533333Y-87064166D01*
X33466666Y-87030833D01*
X33266666Y-87030833D01*
X33199999Y-87064166D01*
X33166666Y-87097500D01*
X33133333Y-87164166D01*
X33133333Y-87264166D01*
X33166666Y-87330833D01*
X33199999Y-87364166D01*
X33266666Y-87397500D01*
X33466666Y-87397500D01*
X33533333Y-87364166D01*
X33566666Y-87330833D01*
X33599999Y-87264166D01*
X33599999Y-87164166D01*
X33599999Y-87797500D02*
X33566666Y-87730833D01*
X33499999Y-87697500D01*
X32899999Y-87697500D01*
X32966666Y-88564166D02*
X32933333Y-88597500D01*
X32899999Y-88664166D01*
X32899999Y-88830833D01*
X32933333Y-88897500D01*
X32966666Y-88930833D01*
X33033333Y-88964166D01*
X33099999Y-88964166D01*
X33199999Y-88930833D01*
X33599999Y-88530833D01*
X33599999Y-88964166D01*
X32899999Y-89397500D02*
X32899999Y-89464166D01*
X32933333Y-89530833D01*
X32966666Y-89564166D01*
X33033333Y-89597500D01*
X33166666Y-89630833D01*
X33333333Y-89630833D01*
X33466666Y-89597500D01*
X33533333Y-89564166D01*
X33566666Y-89530833D01*
X33599999Y-89464166D01*
X33599999Y-89397500D01*
X33566666Y-89330833D01*
X33533333Y-89297500D01*
X33466666Y-89264166D01*
X33333333Y-89230833D01*
X33166666Y-89230833D01*
X33033333Y-89264166D01*
X32966666Y-89297500D01*
X32933333Y-89330833D01*
X32899999Y-89397500D01*
X32966666Y-89897500D02*
X32933333Y-89930833D01*
X32899999Y-89997500D01*
X32899999Y-90164166D01*
X32933333Y-90230833D01*
X32966666Y-90264166D01*
X33033333Y-90297500D01*
X33099999Y-90297500D01*
X33199999Y-90264166D01*
X33599999Y-89864166D01*
X33599999Y-90297500D01*
X33599999Y-90964166D02*
X33599999Y-90564166D01*
X33599999Y-90764166D02*
X32899999Y-90764166D01*
X32999999Y-90697500D01*
X33066666Y-90630833D01*
X33099999Y-90564166D01*
X33533333Y-91264166D02*
X33566666Y-91297500D01*
X33599999Y-91264166D01*
X33566666Y-91230833D01*
X33533333Y-91264166D01*
X33599999Y-91264166D01*
X32899999Y-91730833D02*
X32899999Y-91797500D01*
X32933333Y-91864166D01*
X32966666Y-91897500D01*
X33033333Y-91930833D01*
X33166666Y-91964166D01*
X33333333Y-91964166D01*
X33466666Y-91930833D01*
X33533333Y-91897500D01*
X33566666Y-91864166D01*
X33599999Y-91797500D01*
X33599999Y-91730833D01*
X33566666Y-91664166D01*
X33533333Y-91630833D01*
X33466666Y-91597500D01*
X33333333Y-91564166D01*
X33166666Y-91564166D01*
X33033333Y-91597500D01*
X32966666Y-91630833D01*
X32933333Y-91664166D01*
X32899999Y-91730833D01*
X32966666Y-92230833D02*
X32933333Y-92264166D01*
X32899999Y-92330833D01*
X32899999Y-92497500D01*
X32933333Y-92564166D01*
X32966666Y-92597500D01*
X33033333Y-92630833D01*
X33099999Y-92630833D01*
X33199999Y-92597500D01*
X33599999Y-92197500D01*
X33599999Y-92630833D01*
X34799999Y-84264166D02*
X34333333Y-84264166D01*
X34099999Y-84264166D02*
X34133333Y-84230833D01*
X34166666Y-84264166D01*
X34133333Y-84297500D01*
X34099999Y-84264166D01*
X34166666Y-84264166D01*
X34766666Y-84897500D02*
X34799999Y-84830833D01*
X34799999Y-84697500D01*
X34766666Y-84630833D01*
X34733333Y-84597500D01*
X34666666Y-84564166D01*
X34466666Y-84564166D01*
X34399999Y-84597500D01*
X34366666Y-84630833D01*
X34333333Y-84697500D01*
X34333333Y-84830833D01*
X34366666Y-84897500D01*
X34766666Y-85464166D02*
X34799999Y-85397500D01*
X34799999Y-85264166D01*
X34766666Y-85197500D01*
X34699999Y-85164166D01*
X34433333Y-85164166D01*
X34366666Y-85197500D01*
X34333333Y-85264166D01*
X34333333Y-85397500D01*
X34366666Y-85464166D01*
X34433333Y-85497500D01*
X34499999Y-85497500D01*
X34566666Y-85164166D01*
X34333333Y-86097500D02*
X34799999Y-86097500D01*
X34066666Y-85930833D02*
X34566666Y-85764166D01*
X34566666Y-86197500D01*
X34099999Y-86597500D02*
X34099999Y-86664166D01*
X34133333Y-86730833D01*
X34166666Y-86764166D01*
X34233333Y-86797500D01*
X34366666Y-86830833D01*
X34533333Y-86830833D01*
X34666666Y-86797500D01*
X34733333Y-86764166D01*
X34766666Y-86730833D01*
X34799999Y-86664166D01*
X34799999Y-86597500D01*
X34766666Y-86530833D01*
X34733333Y-86497500D01*
X34666666Y-86464166D01*
X34533333Y-86430833D01*
X34366666Y-86430833D01*
X34233333Y-86464166D01*
X34166666Y-86497500D01*
X34133333Y-86530833D01*
X34099999Y-86597500D01*
X34799999Y-87130833D02*
X34099999Y-87130833D01*
X34799999Y-87430833D02*
X34433333Y-87430833D01*
X34366666Y-87397500D01*
X34333333Y-87330833D01*
X34333333Y-87230833D01*
X34366666Y-87164166D01*
X34399999Y-87130833D01*
X34799999Y-87697500D02*
X34333333Y-88064166D01*
X34333333Y-87697500D02*
X34799999Y-88064166D01*
X34399999Y-88430833D02*
X34366666Y-88364166D01*
X34333333Y-88330833D01*
X34266666Y-88297500D01*
X34233333Y-88297500D01*
X34166666Y-88330833D01*
X34133333Y-88364166D01*
X34099999Y-88430833D01*
X34099999Y-88564166D01*
X34133333Y-88630833D01*
X34166666Y-88664166D01*
X34233333Y-88697500D01*
X34266666Y-88697500D01*
X34333333Y-88664166D01*
X34366666Y-88630833D01*
X34399999Y-88564166D01*
X34399999Y-88430833D01*
X34433333Y-88364166D01*
X34466666Y-88330833D01*
X34533333Y-88297500D01*
X34666666Y-88297500D01*
X34733333Y-88330833D01*
X34766666Y-88364166D01*
X34799999Y-88430833D01*
X34799999Y-88564166D01*
X34766666Y-88630833D01*
X34733333Y-88664166D01*
X34666666Y-88697500D01*
X34533333Y-88697500D01*
X34466666Y-88664166D01*
X34433333Y-88630833D01*
X34399999Y-88564166D01*
X34799999Y-88997500D02*
X34099999Y-88997500D01*
X34533333Y-89064166D02*
X34799999Y-89264166D01*
X34333333Y-89264166D02*
X34599999Y-88997500D01*
X35533333Y-84164166D02*
X35533333Y-84430833D01*
X35999999Y-84264166D02*
X35399999Y-84264166D01*
X35333333Y-84297500D01*
X35299999Y-84364166D01*
X35299999Y-84430833D01*
X35999999Y-84764166D02*
X35966666Y-84697500D01*
X35933333Y-84664166D01*
X35866666Y-84630833D01*
X35666666Y-84630833D01*
X35599999Y-84664166D01*
X35566666Y-84697500D01*
X35533333Y-84764166D01*
X35533333Y-84864166D01*
X35566666Y-84930833D01*
X35599999Y-84964166D01*
X35666666Y-84997500D01*
X35866666Y-84997500D01*
X35933333Y-84964166D01*
X35966666Y-84930833D01*
X35999999Y-84864166D01*
X35999999Y-84764166D01*
X35533333Y-85597500D02*
X35999999Y-85597500D01*
X35533333Y-85297500D02*
X35899999Y-85297500D01*
X35966666Y-85330833D01*
X35999999Y-85397500D01*
X35999999Y-85497500D01*
X35966666Y-85564166D01*
X35933333Y-85597500D01*
X35999999Y-85930833D02*
X35533333Y-85930833D01*
X35666666Y-85930833D02*
X35599999Y-85964166D01*
X35566666Y-85997500D01*
X35533333Y-86064166D01*
X35533333Y-86130833D01*
X35966666Y-86330833D02*
X35999999Y-86397500D01*
X35999999Y-86530833D01*
X35966666Y-86597500D01*
X35899999Y-86630833D01*
X35866666Y-86630833D01*
X35799999Y-86597500D01*
X35766666Y-86530833D01*
X35766666Y-86430833D01*
X35733333Y-86364166D01*
X35666666Y-86330833D01*
X35633333Y-86330833D01*
X35566666Y-86364166D01*
X35533333Y-86430833D01*
X35533333Y-86530833D01*
X35566666Y-86597500D01*
X35999999Y-86930833D02*
X35533333Y-86930833D01*
X35299999Y-86930833D02*
X35333333Y-86897500D01*
X35366666Y-86930833D01*
X35333333Y-86964166D01*
X35299999Y-86930833D01*
X35366666Y-86930833D01*
X35999999Y-87564166D02*
X35299999Y-87564166D01*
X35966666Y-87564166D02*
X35999999Y-87497500D01*
X35999999Y-87364166D01*
X35966666Y-87297500D01*
X35933333Y-87264166D01*
X35866666Y-87230833D01*
X35666666Y-87230833D01*
X35599999Y-87264166D01*
X35566666Y-87297500D01*
X35533333Y-87364166D01*
X35533333Y-87497500D01*
X35566666Y-87564166D01*
X35966666Y-88164166D02*
X35999999Y-88097500D01*
X35999999Y-87964166D01*
X35966666Y-87897500D01*
X35899999Y-87864166D01*
X35633333Y-87864166D01*
X35566666Y-87897500D01*
X35533333Y-87964166D01*
X35533333Y-88097500D01*
X35566666Y-88164166D01*
X35633333Y-88197500D01*
X35699999Y-88197500D01*
X35766666Y-87864166D01*
X35933333Y-88497500D02*
X35966666Y-88530833D01*
X35999999Y-88497500D01*
X35966666Y-88464166D01*
X35933333Y-88497500D01*
X35999999Y-88497500D01*
X35999999Y-88830833D02*
X35533333Y-88830833D01*
X35299999Y-88830833D02*
X35333333Y-88797500D01*
X35366666Y-88830833D01*
X35333333Y-88864166D01*
X35299999Y-88830833D01*
X35366666Y-88830833D01*
X35999999Y-89264166D02*
X35966666Y-89197500D01*
X35933333Y-89164166D01*
X35866666Y-89130833D01*
X35666666Y-89130833D01*
X35599999Y-89164166D01*
X35566666Y-89197500D01*
X35533333Y-89264166D01*
X35533333Y-89364166D01*
X35566666Y-89430833D01*
X35599999Y-89464166D01*
X35666666Y-89497500D01*
X35866666Y-89497500D01*
X35933333Y-89464166D01*
X35966666Y-89430833D01*
X35999999Y-89364166D01*
X35999999Y-89264166D01*
X33599999Y-84264166D02*
X33133333Y-84264166D01*
X32899999Y-84264166D02*
X32933333Y-84230833D01*
X32966666Y-84264166D01*
X32933333Y-84297500D01*
X32899999Y-84264166D01*
X32966666Y-84264166D01*
X33566666Y-84897500D02*
X33599999Y-84830833D01*
X33599999Y-84697500D01*
X33566666Y-84630833D01*
X33533333Y-84597500D01*
X33466666Y-84564166D01*
X33266666Y-84564166D01*
X33199999Y-84597500D01*
X33166666Y-84630833D01*
X33133333Y-84697500D01*
X33133333Y-84830833D01*
X33166666Y-84897500D01*
X33566666Y-85464166D02*
X33599999Y-85397500D01*
X33599999Y-85264166D01*
X33566666Y-85197500D01*
X33499999Y-85164166D01*
X33233333Y-85164166D01*
X33166666Y-85197500D01*
X33133333Y-85264166D01*
X33133333Y-85397500D01*
X33166666Y-85464166D01*
X33233333Y-85497500D01*
X33299999Y-85497500D01*
X33366666Y-85164166D01*
X33133333Y-85797500D02*
X33833333Y-85797500D01*
X33166666Y-85797500D02*
X33133333Y-85864166D01*
X33133333Y-85997500D01*
X33166666Y-86064166D01*
X33199999Y-86097500D01*
X33266666Y-86130833D01*
X33466666Y-86130833D01*
X33533333Y-86097500D01*
X33566666Y-86064166D01*
X33599999Y-85997500D01*
X33599999Y-85864166D01*
X33566666Y-85797500D01*
X33599999Y-86530833D02*
X33566666Y-86464166D01*
X33533333Y-86430833D01*
X33466666Y-86397500D01*
X33266666Y-86397500D01*
X33199999Y-86430833D01*
X33166666Y-86464166D01*
X33133333Y-86530833D01*
X33133333Y-86630833D01*
X33166666Y-86697500D01*
X33199999Y-86730833D01*
X33266666Y-86764166D01*
X33466666Y-86764166D01*
X33533333Y-86730833D01*
X33566666Y-86697500D01*
X33599999Y-86630833D01*
X33599999Y-86530833D01*
X33599999Y-87164166D02*
X33566666Y-87097500D01*
X33533333Y-87064166D01*
X33466666Y-87030833D01*
X33266666Y-87030833D01*
X33199999Y-87064166D01*
X33166666Y-87097500D01*
X33133333Y-87164166D01*
X33133333Y-87264166D01*
X33166666Y-87330833D01*
X33199999Y-87364166D01*
X33266666Y-87397500D01*
X33466666Y-87397500D01*
X33533333Y-87364166D01*
X33566666Y-87330833D01*
X33599999Y-87264166D01*
X33599999Y-87164166D01*
X33599999Y-87797500D02*
X33566666Y-87730833D01*
X33499999Y-87697500D01*
X32899999Y-87697500D01*
X32966666Y-88564166D02*
X32933333Y-88597500D01*
X32899999Y-88664166D01*
X32899999Y-88830833D01*
X32933333Y-88897500D01*
X32966666Y-88930833D01*
X33033333Y-88964166D01*
X33099999Y-88964166D01*
X33199999Y-88930833D01*
X33599999Y-88530833D01*
X33599999Y-88964166D01*
X32899999Y-89397500D02*
X32899999Y-89464166D01*
X32933333Y-89530833D01*
X32966666Y-89564166D01*
X33033333Y-89597500D01*
X33166666Y-89630833D01*
X33333333Y-89630833D01*
X33466666Y-89597500D01*
X33533333Y-89564166D01*
X33566666Y-89530833D01*
X33599999Y-89464166D01*
X33599999Y-89397500D01*
X33566666Y-89330833D01*
X33533333Y-89297500D01*
X33466666Y-89264166D01*
X33333333Y-89230833D01*
X33166666Y-89230833D01*
X33033333Y-89264166D01*
X32966666Y-89297500D01*
X32933333Y-89330833D01*
X32899999Y-89397500D01*
X32966666Y-89897500D02*
X32933333Y-89930833D01*
X32899999Y-89997500D01*
X32899999Y-90164166D01*
X32933333Y-90230833D01*
X32966666Y-90264166D01*
X33033333Y-90297500D01*
X33099999Y-90297500D01*
X33199999Y-90264166D01*
X33599999Y-89864166D01*
X33599999Y-90297500D01*
X33599999Y-90964166D02*
X33599999Y-90564166D01*
X33599999Y-90764166D02*
X32899999Y-90764166D01*
X32999999Y-90697500D01*
X33066666Y-90630833D01*
X33099999Y-90564166D01*
X33533333Y-91264166D02*
X33566666Y-91297500D01*
X33599999Y-91264166D01*
X33566666Y-91230833D01*
X33533333Y-91264166D01*
X33599999Y-91264166D01*
X32899999Y-91730833D02*
X32899999Y-91797500D01*
X32933333Y-91864166D01*
X32966666Y-91897500D01*
X33033333Y-91930833D01*
X33166666Y-91964166D01*
X33333333Y-91964166D01*
X33466666Y-91930833D01*
X33533333Y-91897500D01*
X33566666Y-91864166D01*
X33599999Y-91797500D01*
X33599999Y-91730833D01*
X33566666Y-91664166D01*
X33533333Y-91630833D01*
X33466666Y-91597500D01*
X33333333Y-91564166D01*
X33166666Y-91564166D01*
X33033333Y-91597500D01*
X32966666Y-91630833D01*
X32933333Y-91664166D01*
X32899999Y-91730833D01*
X32966666Y-92230833D02*
X32933333Y-92264166D01*
X32899999Y-92330833D01*
X32899999Y-92497500D01*
X32933333Y-92564166D01*
X32966666Y-92597500D01*
X33033333Y-92630833D01*
X33099999Y-92630833D01*
X33199999Y-92597500D01*
X33599999Y-92197500D01*
X33599999Y-92630833D01*
X34799999Y-84264166D02*
X34333333Y-84264166D01*
X34099999Y-84264166D02*
X34133333Y-84230833D01*
X34166666Y-84264166D01*
X34133333Y-84297500D01*
X34099999Y-84264166D01*
X34166666Y-84264166D01*
X34766666Y-84897500D02*
X34799999Y-84830833D01*
X34799999Y-84697500D01*
X34766666Y-84630833D01*
X34733333Y-84597500D01*
X34666666Y-84564166D01*
X34466666Y-84564166D01*
X34399999Y-84597500D01*
X34366666Y-84630833D01*
X34333333Y-84697500D01*
X34333333Y-84830833D01*
X34366666Y-84897500D01*
X34766666Y-85464166D02*
X34799999Y-85397500D01*
X34799999Y-85264166D01*
X34766666Y-85197500D01*
X34699999Y-85164166D01*
X34433333Y-85164166D01*
X34366666Y-85197500D01*
X34333333Y-85264166D01*
X34333333Y-85397500D01*
X34366666Y-85464166D01*
X34433333Y-85497500D01*
X34499999Y-85497500D01*
X34566666Y-85164166D01*
X34333333Y-86097500D02*
X34799999Y-86097500D01*
X34066666Y-85930833D02*
X34566666Y-85764166D01*
X34566666Y-86197500D01*
X34099999Y-86597500D02*
X34099999Y-86664166D01*
X34133333Y-86730833D01*
X34166666Y-86764166D01*
X34233333Y-86797500D01*
X34366666Y-86830833D01*
X34533333Y-86830833D01*
X34666666Y-86797500D01*
X34733333Y-86764166D01*
X34766666Y-86730833D01*
X34799999Y-86664166D01*
X34799999Y-86597500D01*
X34766666Y-86530833D01*
X34733333Y-86497500D01*
X34666666Y-86464166D01*
X34533333Y-86430833D01*
X34366666Y-86430833D01*
X34233333Y-86464166D01*
X34166666Y-86497500D01*
X34133333Y-86530833D01*
X34099999Y-86597500D01*
X34799999Y-87130833D02*
X34099999Y-87130833D01*
X34799999Y-87430833D02*
X34433333Y-87430833D01*
X34366666Y-87397500D01*
X34333333Y-87330833D01*
X34333333Y-87230833D01*
X34366666Y-87164166D01*
X34399999Y-87130833D01*
X34799999Y-87697500D02*
X34333333Y-88064166D01*
X34333333Y-87697500D02*
X34799999Y-88064166D01*
X34399999Y-88430833D02*
X34366666Y-88364166D01*
X34333333Y-88330833D01*
X34266666Y-88297500D01*
X34233333Y-88297500D01*
X34166666Y-88330833D01*
X34133333Y-88364166D01*
X34099999Y-88430833D01*
X34099999Y-88564166D01*
X34133333Y-88630833D01*
X34166666Y-88664166D01*
X34233333Y-88697500D01*
X34266666Y-88697500D01*
X34333333Y-88664166D01*
X34366666Y-88630833D01*
X34399999Y-88564166D01*
X34399999Y-88430833D01*
X34433333Y-88364166D01*
X34466666Y-88330833D01*
X34533333Y-88297500D01*
X34666666Y-88297500D01*
X34733333Y-88330833D01*
X34766666Y-88364166D01*
X34799999Y-88430833D01*
X34799999Y-88564166D01*
X34766666Y-88630833D01*
X34733333Y-88664166D01*
X34666666Y-88697500D01*
X34533333Y-88697500D01*
X34466666Y-88664166D01*
X34433333Y-88630833D01*
X34399999Y-88564166D01*
X34799999Y-88997500D02*
X34099999Y-88997500D01*
X34533333Y-89064166D02*
X34799999Y-89264166D01*
X34333333Y-89264166D02*
X34599999Y-88997500D01*
X35533333Y-84164166D02*
X35533333Y-84430833D01*
X35999999Y-84264166D02*
X35399999Y-84264166D01*
X35333333Y-84297500D01*
X35299999Y-84364166D01*
X35299999Y-84430833D01*
X35999999Y-84764166D02*
X35966666Y-84697500D01*
X35933333Y-84664166D01*
X35866666Y-84630833D01*
X35666666Y-84630833D01*
X35599999Y-84664166D01*
X35566666Y-84697500D01*
X35533333Y-84764166D01*
X35533333Y-84864166D01*
X35566666Y-84930833D01*
X35599999Y-84964166D01*
X35666666Y-84997500D01*
X35866666Y-84997500D01*
X35933333Y-84964166D01*
X35966666Y-84930833D01*
X35999999Y-84864166D01*
X35999999Y-84764166D01*
X35533333Y-85597500D02*
X35999999Y-85597500D01*
X35533333Y-85297500D02*
X35899999Y-85297500D01*
X35966666Y-85330833D01*
X35999999Y-85397500D01*
X35999999Y-85497500D01*
X35966666Y-85564166D01*
X35933333Y-85597500D01*
X35999999Y-85930833D02*
X35533333Y-85930833D01*
X35666666Y-85930833D02*
X35599999Y-85964166D01*
X35566666Y-85997500D01*
X35533333Y-86064166D01*
X35533333Y-86130833D01*
X35966666Y-86330833D02*
X35999999Y-86397500D01*
X35999999Y-86530833D01*
X35966666Y-86597500D01*
X35899999Y-86630833D01*
X35866666Y-86630833D01*
X35799999Y-86597500D01*
X35766666Y-86530833D01*
X35766666Y-86430833D01*
X35733333Y-86364166D01*
X35666666Y-86330833D01*
X35633333Y-86330833D01*
X35566666Y-86364166D01*
X35533333Y-86430833D01*
X35533333Y-86530833D01*
X35566666Y-86597500D01*
X35999999Y-86930833D02*
X35533333Y-86930833D01*
X35299999Y-86930833D02*
X35333333Y-86897500D01*
X35366666Y-86930833D01*
X35333333Y-86964166D01*
X35299999Y-86930833D01*
X35366666Y-86930833D01*
X35999999Y-87564166D02*
X35299999Y-87564166D01*
X35966666Y-87564166D02*
X35999999Y-87497500D01*
X35999999Y-87364166D01*
X35966666Y-87297500D01*
X35933333Y-87264166D01*
X35866666Y-87230833D01*
X35666666Y-87230833D01*
X35599999Y-87264166D01*
X35566666Y-87297500D01*
X35533333Y-87364166D01*
X35533333Y-87497500D01*
X35566666Y-87564166D01*
X35966666Y-88164166D02*
X35999999Y-88097500D01*
X35999999Y-87964166D01*
X35966666Y-87897500D01*
X35899999Y-87864166D01*
X35633333Y-87864166D01*
X35566666Y-87897500D01*
X35533333Y-87964166D01*
X35533333Y-88097500D01*
X35566666Y-88164166D01*
X35633333Y-88197500D01*
X35699999Y-88197500D01*
X35766666Y-87864166D01*
X35933333Y-88497500D02*
X35966666Y-88530833D01*
X35999999Y-88497500D01*
X35966666Y-88464166D01*
X35933333Y-88497500D01*
X35999999Y-88497500D01*
X35999999Y-88830833D02*
X35533333Y-88830833D01*
X35299999Y-88830833D02*
X35333333Y-88797500D01*
X35366666Y-88830833D01*
X35333333Y-88864166D01*
X35299999Y-88830833D01*
X35366666Y-88830833D01*
X35999999Y-89264166D02*
X35966666Y-89197500D01*
X35933333Y-89164166D01*
X35866666Y-89130833D01*
X35666666Y-89130833D01*
X35599999Y-89164166D01*
X35566666Y-89197500D01*
X35533333Y-89264166D01*
X35533333Y-89364166D01*
X35566666Y-89430833D01*
X35599999Y-89464166D01*
X35666666Y-89497500D01*
X35866666Y-89497500D01*
X35933333Y-89464166D01*
X35966666Y-89430833D01*
X35999999Y-89364166D01*
X35999999Y-89264166D01*
D11*
X50530000Y-111540000D03*
X50530000Y-109000000D03*
X47990000Y-111540000D03*
X47990000Y-109000000D03*
X45450000Y-111540000D03*
X45450000Y-109000000D03*
X42910000Y-111540000D03*
X42910000Y-109000000D03*
X40370000Y-111540000D03*
X40370000Y-109000000D03*
X37830000Y-111540000D03*
X37830000Y-109000000D03*
X35290000Y-111540000D03*
X35290000Y-109000000D03*
X32750000Y-111540000D03*
G36*
G01*
X33600000Y-109900800D02*
X31900000Y-109900800D01*
G75*
G02*
X31849200Y-109850000I0J50800D01*
G01*
X31849200Y-108150000D01*
G75*
G02*
X31900000Y-108099200I50800J0D01*
G01*
X33600000Y-108099200D01*
G75*
G02*
X33650800Y-108150000I0J-50800D01*
G01*
X33650800Y-109850000D01*
G75*
G02*
X33600000Y-109900800I-50800J0D01*
G01*
G37*
G36*
G01*
X44550800Y-95049999D02*
X44550800Y-95550001D01*
G75*
G02*
X44500001Y-95600800I-50799J0D01*
G01*
X43999999Y-95600800D01*
G75*
G02*
X43949200Y-95550001I0J50799D01*
G01*
X43949200Y-95049999D01*
G75*
G02*
X43999999Y-94999200I50799J0D01*
G01*
X44500001Y-94999200D01*
G75*
G02*
X44550800Y-95049999I0J-50799D01*
G01*
G37*
G36*
G01*
X45450800Y-95049999D02*
X45450800Y-95550001D01*
G75*
G02*
X45400001Y-95600800I-50799J0D01*
G01*
X44899999Y-95600800D01*
G75*
G02*
X44849200Y-95550001I0J50799D01*
G01*
X44849200Y-95049999D01*
G75*
G02*
X44899999Y-94999200I50799J0D01*
G01*
X45400001Y-94999200D01*
G75*
G02*
X45450800Y-95049999I0J-50799D01*
G01*
G37*
G36*
G01*
X40160800Y-95102100D02*
X40160800Y-95497900D01*
G75*
G02*
X39987900Y-95670800I-172900J0D01*
G01*
X39642100Y-95670800D01*
G75*
G02*
X39469200Y-95497900I0J172900D01*
G01*
X39469200Y-95102100D01*
G75*
G02*
X39642100Y-94929200I172900J0D01*
G01*
X39987900Y-94929200D01*
G75*
G02*
X40160800Y-95102100I0J-172900D01*
G01*
G37*
G36*
G01*
X41130800Y-95102100D02*
X41130800Y-95497900D01*
G75*
G02*
X40957900Y-95670800I-172900J0D01*
G01*
X40612100Y-95670800D01*
G75*
G02*
X40439200Y-95497900I0J172900D01*
G01*
X40439200Y-95102100D01*
G75*
G02*
X40612100Y-94929200I172900J0D01*
G01*
X40957900Y-94929200D01*
G75*
G02*
X41130800Y-95102100I0J-172900D01*
G01*
G37*
G36*
G01*
X42839200Y-100697900D02*
X42839200Y-100302100D01*
G75*
G02*
X43012100Y-100129200I172900J0D01*
G01*
X43357900Y-100129200D01*
G75*
G02*
X43530800Y-100302100I0J-172900D01*
G01*
X43530800Y-100697900D01*
G75*
G02*
X43357900Y-100870800I-172900J0D01*
G01*
X43012100Y-100870800D01*
G75*
G02*
X42839200Y-100697900I0J172900D01*
G01*
G37*
G36*
G01*
X41869200Y-100697900D02*
X41869200Y-100302100D01*
G75*
G02*
X42042100Y-100129200I172900J0D01*
G01*
X42387900Y-100129200D01*
G75*
G02*
X42560800Y-100302100I0J-172900D01*
G01*
X42560800Y-100697900D01*
G75*
G02*
X42387900Y-100870800I-172900J0D01*
G01*
X42042100Y-100870800D01*
G75*
G02*
X41869200Y-100697900I0J172900D01*
G01*
G37*
G36*
G01*
X38318350Y-100324200D02*
X39281650Y-100324200D01*
G75*
G02*
X39550800Y-100593350I0J-269150D01*
G01*
X39550800Y-101131650D01*
G75*
G02*
X39281650Y-101400800I-269150J0D01*
G01*
X38318350Y-101400800D01*
G75*
G02*
X38049200Y-101131650I0J269150D01*
G01*
X38049200Y-100593350D01*
G75*
G02*
X38318350Y-100324200I269150J0D01*
G01*
G37*
G36*
G01*
X38318350Y-102199200D02*
X39281650Y-102199200D01*
G75*
G02*
X39550800Y-102468350I0J-269150D01*
G01*
X39550800Y-103006650D01*
G75*
G02*
X39281650Y-103275800I-269150J0D01*
G01*
X38318350Y-103275800D01*
G75*
G02*
X38049200Y-103006650I0J269150D01*
G01*
X38049200Y-102468350D01*
G75*
G02*
X38318350Y-102199200I269150J0D01*
G01*
G37*
G36*
G01*
X40560800Y-94102100D02*
X40560800Y-94497900D01*
G75*
G02*
X40387900Y-94670800I-172900J0D01*
G01*
X40042100Y-94670800D01*
G75*
G02*
X39869200Y-94497900I0J172900D01*
G01*
X39869200Y-94102100D01*
G75*
G02*
X40042100Y-93929200I172900J0D01*
G01*
X40387900Y-93929200D01*
G75*
G02*
X40560800Y-94102100I0J-172900D01*
G01*
G37*
G36*
G01*
X41530800Y-94102100D02*
X41530800Y-94497900D01*
G75*
G02*
X41357900Y-94670800I-172900J0D01*
G01*
X41012100Y-94670800D01*
G75*
G02*
X40839200Y-94497900I0J172900D01*
G01*
X40839200Y-94102100D01*
G75*
G02*
X41012100Y-93929200I172900J0D01*
G01*
X41357900Y-93929200D01*
G75*
G02*
X41530800Y-94102100I0J-172900D01*
G01*
G37*
G36*
G01*
X45302100Y-101239200D02*
X45697900Y-101239200D01*
G75*
G02*
X45870800Y-101412100I0J-172900D01*
G01*
X45870800Y-101757900D01*
G75*
G02*
X45697900Y-101930800I-172900J0D01*
G01*
X45302100Y-101930800D01*
G75*
G02*
X45129200Y-101757900I0J172900D01*
G01*
X45129200Y-101412100D01*
G75*
G02*
X45302100Y-101239200I172900J0D01*
G01*
G37*
G36*
G01*
X45302100Y-100269200D02*
X45697900Y-100269200D01*
G75*
G02*
X45870800Y-100442100I0J-172900D01*
G01*
X45870800Y-100787900D01*
G75*
G02*
X45697900Y-100960800I-172900J0D01*
G01*
X45302100Y-100960800D01*
G75*
G02*
X45129200Y-100787900I0J172900D01*
G01*
X45129200Y-100442100D01*
G75*
G02*
X45302100Y-100269200I172900J0D01*
G01*
G37*
G36*
G01*
X40160800Y-96102100D02*
X40160800Y-96497900D01*
G75*
G02*
X39987900Y-96670800I-172900J0D01*
G01*
X39642100Y-96670800D01*
G75*
G02*
X39469200Y-96497900I0J172900D01*
G01*
X39469200Y-96102100D01*
G75*
G02*
X39642100Y-95929200I172900J0D01*
G01*
X39987900Y-95929200D01*
G75*
G02*
X40160800Y-96102100I0J-172900D01*
G01*
G37*
G36*
G01*
X41130800Y-96102100D02*
X41130800Y-96497900D01*
G75*
G02*
X40957900Y-96670800I-172900J0D01*
G01*
X40612100Y-96670800D01*
G75*
G02*
X40439200Y-96497900I0J172900D01*
G01*
X40439200Y-96102100D01*
G75*
G02*
X40612100Y-95929200I172900J0D01*
G01*
X40957900Y-95929200D01*
G75*
G02*
X41130800Y-96102100I0J-172900D01*
G01*
G37*
G36*
G01*
X42839200Y-99697900D02*
X42839200Y-99302100D01*
G75*
G02*
X43012100Y-99129200I172900J0D01*
G01*
X43357900Y-99129200D01*
G75*
G02*
X43530800Y-99302100I0J-172900D01*
G01*
X43530800Y-99697900D01*
G75*
G02*
X43357900Y-99870800I-172900J0D01*
G01*
X43012100Y-99870800D01*
G75*
G02*
X42839200Y-99697900I0J172900D01*
G01*
G37*
G36*
G01*
X41869200Y-99697900D02*
X41869200Y-99302100D01*
G75*
G02*
X42042100Y-99129200I172900J0D01*
G01*
X42387900Y-99129200D01*
G75*
G02*
X42560800Y-99302100I0J-172900D01*
G01*
X42560800Y-99697900D01*
G75*
G02*
X42387900Y-99870800I-172900J0D01*
G01*
X42042100Y-99870800D01*
G75*
G02*
X41869200Y-99697900I0J172900D01*
G01*
G37*
G36*
G01*
X42839200Y-97697900D02*
X42839200Y-97302100D01*
G75*
G02*
X43012100Y-97129200I172900J0D01*
G01*
X43357900Y-97129200D01*
G75*
G02*
X43530800Y-97302100I0J-172900D01*
G01*
X43530800Y-97697900D01*
G75*
G02*
X43357900Y-97870800I-172900J0D01*
G01*
X43012100Y-97870800D01*
G75*
G02*
X42839200Y-97697900I0J172900D01*
G01*
G37*
G36*
G01*
X41869200Y-97697900D02*
X41869200Y-97302100D01*
G75*
G02*
X42042100Y-97129200I172900J0D01*
G01*
X42387900Y-97129200D01*
G75*
G02*
X42560800Y-97302100I0J-172900D01*
G01*
X42560800Y-97697900D01*
G75*
G02*
X42387900Y-97870800I-172900J0D01*
G01*
X42042100Y-97870800D01*
G75*
G02*
X41869200Y-97697900I0J172900D01*
G01*
G37*
G36*
G01*
X42839200Y-94497900D02*
X42839200Y-94102100D01*
G75*
G02*
X43012100Y-93929200I172900J0D01*
G01*
X43357900Y-93929200D01*
G75*
G02*
X43530800Y-94102100I0J-172900D01*
G01*
X43530800Y-94497900D01*
G75*
G02*
X43357900Y-94670800I-172900J0D01*
G01*
X43012100Y-94670800D01*
G75*
G02*
X42839200Y-94497900I0J172900D01*
G01*
G37*
G36*
G01*
X41869200Y-94497900D02*
X41869200Y-94102100D01*
G75*
G02*
X42042100Y-93929200I172900J0D01*
G01*
X42387900Y-93929200D01*
G75*
G02*
X42560800Y-94102100I0J-172900D01*
G01*
X42560800Y-94497900D01*
G75*
G02*
X42387900Y-94670800I-172900J0D01*
G01*
X42042100Y-94670800D01*
G75*
G02*
X41869200Y-94497900I0J172900D01*
G01*
G37*
G36*
G01*
X42545800Y-95102100D02*
X42545800Y-95497900D01*
G75*
G02*
X42372900Y-95670800I-172900J0D01*
G01*
X42027100Y-95670800D01*
G75*
G02*
X41854200Y-95497900I0J172900D01*
G01*
X41854200Y-95102100D01*
G75*
G02*
X42027100Y-94929200I172900J0D01*
G01*
X42372900Y-94929200D01*
G75*
G02*
X42545800Y-95102100I0J-172900D01*
G01*
G37*
G36*
G01*
X43515800Y-95102100D02*
X43515800Y-95497900D01*
G75*
G02*
X43342900Y-95670800I-172900J0D01*
G01*
X42997100Y-95670800D01*
G75*
G02*
X42824200Y-95497900I0J172900D01*
G01*
X42824200Y-95102100D01*
G75*
G02*
X42997100Y-94929200I172900J0D01*
G01*
X43342900Y-94929200D01*
G75*
G02*
X43515800Y-95102100I0J-172900D01*
G01*
G37*
G36*
G01*
X42560800Y-98302100D02*
X42560800Y-98697900D01*
G75*
G02*
X42387900Y-98870800I-172900J0D01*
G01*
X42042100Y-98870800D01*
G75*
G02*
X41869200Y-98697900I0J172900D01*
G01*
X41869200Y-98302100D01*
G75*
G02*
X42042100Y-98129200I172900J0D01*
G01*
X42387900Y-98129200D01*
G75*
G02*
X42560800Y-98302100I0J-172900D01*
G01*
G37*
G36*
G01*
X43530800Y-98302100D02*
X43530800Y-98697900D01*
G75*
G02*
X43357900Y-98870800I-172900J0D01*
G01*
X43012100Y-98870800D01*
G75*
G02*
X42839200Y-98697900I0J172900D01*
G01*
X42839200Y-98302100D01*
G75*
G02*
X43012100Y-98129200I172900J0D01*
G01*
X43357900Y-98129200D01*
G75*
G02*
X43530800Y-98302100I0J-172900D01*
G01*
G37*
G36*
G01*
X40160800Y-99302100D02*
X40160800Y-99697900D01*
G75*
G02*
X39987900Y-99870800I-172900J0D01*
G01*
X39642100Y-99870800D01*
G75*
G02*
X39469200Y-99697900I0J172900D01*
G01*
X39469200Y-99302100D01*
G75*
G02*
X39642100Y-99129200I172900J0D01*
G01*
X39987900Y-99129200D01*
G75*
G02*
X40160800Y-99302100I0J-172900D01*
G01*
G37*
G36*
G01*
X41130800Y-99302100D02*
X41130800Y-99697900D01*
G75*
G02*
X40957900Y-99870800I-172900J0D01*
G01*
X40612100Y-99870800D01*
G75*
G02*
X40439200Y-99697900I0J172900D01*
G01*
X40439200Y-99302100D01*
G75*
G02*
X40612100Y-99129200I172900J0D01*
G01*
X40957900Y-99129200D01*
G75*
G02*
X41130800Y-99302100I0J-172900D01*
G01*
G37*
G36*
G01*
X41100800Y-92318350D02*
X41100800Y-93281650D01*
G75*
G02*
X40831650Y-93550800I-269150J0D01*
G01*
X40293350Y-93550800D01*
G75*
G02*
X40024200Y-93281650I0J269150D01*
G01*
X40024200Y-92318350D01*
G75*
G02*
X40293350Y-92049200I269150J0D01*
G01*
X40831650Y-92049200D01*
G75*
G02*
X41100800Y-92318350I0J-269150D01*
G01*
G37*
G36*
G01*
X42975800Y-92318350D02*
X42975800Y-93281650D01*
G75*
G02*
X42706650Y-93550800I-269150J0D01*
G01*
X42168350Y-93550800D01*
G75*
G02*
X41899200Y-93281650I0J269150D01*
G01*
X41899200Y-92318350D01*
G75*
G02*
X42168350Y-92049200I269150J0D01*
G01*
X42706650Y-92049200D01*
G75*
G02*
X42975800Y-92318350I0J-269150D01*
G01*
G37*
G36*
G01*
X40160800Y-97302100D02*
X40160800Y-97697900D01*
G75*
G02*
X39987900Y-97870800I-172900J0D01*
G01*
X39642100Y-97870800D01*
G75*
G02*
X39469200Y-97697900I0J172900D01*
G01*
X39469200Y-97302100D01*
G75*
G02*
X39642100Y-97129200I172900J0D01*
G01*
X39987900Y-97129200D01*
G75*
G02*
X40160800Y-97302100I0J-172900D01*
G01*
G37*
G36*
G01*
X41130800Y-97302100D02*
X41130800Y-97697900D01*
G75*
G02*
X40957900Y-97870800I-172900J0D01*
G01*
X40612100Y-97870800D01*
G75*
G02*
X40439200Y-97697900I0J172900D01*
G01*
X40439200Y-97302100D01*
G75*
G02*
X40612100Y-97129200I172900J0D01*
G01*
X40957900Y-97129200D01*
G75*
G02*
X41130800Y-97302100I0J-172900D01*
G01*
G37*
G36*
G01*
X40102100Y-101239200D02*
X40497900Y-101239200D01*
G75*
G02*
X40670800Y-101412100I0J-172900D01*
G01*
X40670800Y-101757900D01*
G75*
G02*
X40497900Y-101930800I-172900J0D01*
G01*
X40102100Y-101930800D01*
G75*
G02*
X39929200Y-101757900I0J172900D01*
G01*
X39929200Y-101412100D01*
G75*
G02*
X40102100Y-101239200I172900J0D01*
G01*
G37*
G36*
G01*
X40102100Y-100269200D02*
X40497900Y-100269200D01*
G75*
G02*
X40670800Y-100442100I0J-172900D01*
G01*
X40670800Y-100787900D01*
G75*
G02*
X40497900Y-100960800I-172900J0D01*
G01*
X40102100Y-100960800D01*
G75*
G02*
X39929200Y-100787900I0J172900D01*
G01*
X39929200Y-100442100D01*
G75*
G02*
X40102100Y-100269200I172900J0D01*
G01*
G37*
G36*
G01*
X42839200Y-96497900D02*
X42839200Y-96102100D01*
G75*
G02*
X43012100Y-95929200I172900J0D01*
G01*
X43357900Y-95929200D01*
G75*
G02*
X43530800Y-96102100I0J-172900D01*
G01*
X43530800Y-96497900D01*
G75*
G02*
X43357900Y-96670800I-172900J0D01*
G01*
X43012100Y-96670800D01*
G75*
G02*
X42839200Y-96497900I0J172900D01*
G01*
G37*
G36*
G01*
X41869200Y-96497900D02*
X41869200Y-96102100D01*
G75*
G02*
X42042100Y-95929200I172900J0D01*
G01*
X42387900Y-95929200D01*
G75*
G02*
X42560800Y-96102100I0J-172900D01*
G01*
X42560800Y-96497900D01*
G75*
G02*
X42387900Y-96670800I-172900J0D01*
G01*
X42042100Y-96670800D01*
G75*
G02*
X41869200Y-96497900I0J172900D01*
G01*
G37*
M02*
