G04 #@! TF.GenerationSoftware,KiCad,Pcbnew,(5.1.9)-1*
G04 #@! TF.CreationDate,2021-06-07T22:02:30-04:00*
G04 #@! TF.ProjectId,icepool-board,69636570-6f6f-46c2-9d62-6f6172642e6b,2020-04*
G04 #@! TF.SameCoordinates,Original*
G04 #@! TF.FileFunction,Copper,L2,Inr*
G04 #@! TF.FilePolarity,Positive*
%FSLAX46Y46*%
G04 Gerber Fmt 4.6, Leading zero omitted, Abs format (unit mm)*
G04 Created by KiCad (PCBNEW (5.1.9)-1) date 2021-06-07 22:02:30*
%MOMM*%
%LPD*%
G01*
G04 APERTURE LIST*
G04 #@! TA.AperFunction,ComponentPad*
%ADD10O,1.700000X1.700000*%
G04 #@! TD*
G04 #@! TA.AperFunction,ComponentPad*
%ADD11R,1.700000X1.700000*%
G04 #@! TD*
G04 #@! TA.AperFunction,ViaPad*
%ADD12C,0.800000*%
G04 #@! TD*
G04 #@! TA.AperFunction,ViaPad*
%ADD13C,0.450000*%
G04 #@! TD*
G04 #@! TA.AperFunction,ViaPad*
%ADD14C,0.500000*%
G04 #@! TD*
G04 #@! TA.AperFunction,Conductor*
%ADD15C,0.101600*%
G04 #@! TD*
G04 #@! TA.AperFunction,Conductor*
%ADD16C,0.100000*%
G04 #@! TD*
G04 APERTURE END LIST*
D10*
X50530000Y-111540000D03*
X50530000Y-109000000D03*
X47990000Y-111540000D03*
X47990000Y-109000000D03*
X45450000Y-111540000D03*
X45450000Y-109000000D03*
X42910000Y-111540000D03*
X42910000Y-109000000D03*
X40370000Y-111540000D03*
X40370000Y-109000000D03*
X37830000Y-111540000D03*
X37830000Y-109000000D03*
X35290000Y-111540000D03*
X35290000Y-109000000D03*
X32750000Y-111540000D03*
D11*
X32750000Y-109000000D03*
D12*
X46736000Y-110300000D03*
X46736000Y-107760000D03*
D13*
X43500000Y-95500000D03*
D12*
X49276000Y-112840000D03*
D13*
X46200000Y-100800000D03*
D12*
X49276000Y-107760000D03*
X44400000Y-85400000D03*
X49200000Y-97500000D03*
D13*
X40300000Y-98700000D03*
X41900000Y-97100000D03*
X41100000Y-96300000D03*
D14*
X41100000Y-104800000D03*
X46000000Y-88200000D03*
D13*
X41100000Y-98700000D03*
X41100000Y-97900000D03*
D12*
X46736000Y-112840000D03*
X49276000Y-110300000D03*
X48600000Y-88300000D03*
D14*
X46000000Y-89200000D03*
D12*
X49279090Y-92500000D03*
D14*
X46000000Y-87200000D03*
D13*
X41900000Y-99500000D03*
X41100000Y-97100000D03*
X41900000Y-96300000D03*
X41100000Y-99500000D03*
D14*
X44600000Y-84000000D03*
X35000000Y-100500000D03*
D13*
X41900000Y-98700000D03*
D12*
X47500000Y-98400000D03*
D14*
X49300000Y-85500000D03*
X48600000Y-85500000D03*
D13*
X39500000Y-97100000D03*
D14*
X38400000Y-104200000D03*
X35000000Y-102500000D03*
D13*
X41900000Y-95500000D03*
X46200000Y-101600000D03*
X43500000Y-97100000D03*
D14*
X47900000Y-85500000D03*
D13*
X46000000Y-94900000D03*
D14*
X44500000Y-91400000D03*
D13*
X39500000Y-98700000D03*
D14*
X43400000Y-88600000D03*
X42700000Y-88600000D03*
X43400000Y-87900000D03*
X42700000Y-87900000D03*
X42000000Y-88600000D03*
X42000000Y-87900000D03*
X42000000Y-87200000D03*
X42700000Y-87200000D03*
D13*
X43500000Y-99500000D03*
X43500000Y-96300000D03*
X39500000Y-99500000D03*
X39500000Y-96300000D03*
D14*
X43400000Y-87200000D03*
D13*
X44300000Y-94700000D03*
X41100000Y-100300000D03*
X41100000Y-101100000D03*
X40300000Y-94700000D03*
X41100000Y-94700000D03*
D14*
X35300000Y-104500000D03*
X36576000Y-107264200D03*
X43000000Y-103800000D03*
X43200000Y-106300000D03*
X39500000Y-106400000D03*
X37500004Y-102600000D03*
X36399998Y-99100000D03*
X42200000Y-103000000D03*
X42200000Y-107100000D03*
X44196000Y-105195998D03*
X42800000Y-102380013D03*
X36900000Y-102600000D03*
X38600000Y-106400000D03*
X36400000Y-99900000D03*
D15*
X51159608Y-82193900D02*
X51313146Y-82240256D01*
X51454750Y-82315548D01*
X51579032Y-82416910D01*
X51681261Y-82540484D01*
X51757541Y-82681561D01*
X51804965Y-82834762D01*
X51822600Y-83002544D01*
X51822601Y-112991317D01*
X51806099Y-113159612D01*
X51759744Y-113313146D01*
X51684452Y-113454750D01*
X51583092Y-113579030D01*
X51459518Y-113681260D01*
X51318440Y-113757541D01*
X51165238Y-113804965D01*
X50997456Y-113822600D01*
X32008673Y-113822600D01*
X31840388Y-113806099D01*
X31686854Y-113759744D01*
X31545250Y-113684452D01*
X31420970Y-113583092D01*
X31318740Y-113459518D01*
X31242459Y-113318440D01*
X31195035Y-113165238D01*
X31177400Y-112997456D01*
X31177400Y-111441272D01*
X31747600Y-111441272D01*
X31747600Y-111638728D01*
X31786122Y-111832389D01*
X31861685Y-112014814D01*
X31971385Y-112178993D01*
X32111007Y-112318615D01*
X32275186Y-112428315D01*
X32457611Y-112503878D01*
X32651272Y-112542400D01*
X32848728Y-112542400D01*
X33042389Y-112503878D01*
X33224814Y-112428315D01*
X33388993Y-112318615D01*
X33528615Y-112178993D01*
X33638315Y-112014814D01*
X33713878Y-111832389D01*
X33752400Y-111638728D01*
X33752400Y-111441272D01*
X34287600Y-111441272D01*
X34287600Y-111638728D01*
X34326122Y-111832389D01*
X34401685Y-112014814D01*
X34511385Y-112178993D01*
X34651007Y-112318615D01*
X34815186Y-112428315D01*
X34997611Y-112503878D01*
X35191272Y-112542400D01*
X35388728Y-112542400D01*
X35582389Y-112503878D01*
X35764814Y-112428315D01*
X35928993Y-112318615D01*
X36068615Y-112178993D01*
X36178315Y-112014814D01*
X36253878Y-111832389D01*
X36292400Y-111638728D01*
X36292400Y-111441272D01*
X36827600Y-111441272D01*
X36827600Y-111638728D01*
X36866122Y-111832389D01*
X36941685Y-112014814D01*
X37051385Y-112178993D01*
X37191007Y-112318615D01*
X37355186Y-112428315D01*
X37537611Y-112503878D01*
X37731272Y-112542400D01*
X37928728Y-112542400D01*
X38122389Y-112503878D01*
X38304814Y-112428315D01*
X38468993Y-112318615D01*
X38608615Y-112178993D01*
X38718315Y-112014814D01*
X38793878Y-111832389D01*
X38832400Y-111638728D01*
X38832400Y-111441272D01*
X39367600Y-111441272D01*
X39367600Y-111638728D01*
X39406122Y-111832389D01*
X39481685Y-112014814D01*
X39591385Y-112178993D01*
X39731007Y-112318615D01*
X39895186Y-112428315D01*
X40077611Y-112503878D01*
X40271272Y-112542400D01*
X40468728Y-112542400D01*
X40662389Y-112503878D01*
X40844814Y-112428315D01*
X41008993Y-112318615D01*
X41148615Y-112178993D01*
X41258315Y-112014814D01*
X41333878Y-111832389D01*
X41372400Y-111638728D01*
X41372400Y-111441272D01*
X41907600Y-111441272D01*
X41907600Y-111638728D01*
X41946122Y-111832389D01*
X42021685Y-112014814D01*
X42131385Y-112178993D01*
X42271007Y-112318615D01*
X42435186Y-112428315D01*
X42617611Y-112503878D01*
X42811272Y-112542400D01*
X43008728Y-112542400D01*
X43202389Y-112503878D01*
X43384814Y-112428315D01*
X43548993Y-112318615D01*
X43688615Y-112178993D01*
X43798315Y-112014814D01*
X43873878Y-111832389D01*
X43912400Y-111638728D01*
X43912400Y-111441272D01*
X44447600Y-111441272D01*
X44447600Y-111638728D01*
X44486122Y-111832389D01*
X44561685Y-112014814D01*
X44671385Y-112178993D01*
X44811007Y-112318615D01*
X44975186Y-112428315D01*
X45157611Y-112503878D01*
X45351272Y-112542400D01*
X45548728Y-112542400D01*
X45742389Y-112503878D01*
X45924814Y-112428315D01*
X46088993Y-112318615D01*
X46228615Y-112178993D01*
X46338315Y-112014814D01*
X46413878Y-111832389D01*
X46425966Y-111771619D01*
X47014722Y-111771619D01*
X47078648Y-111957436D01*
X47177597Y-112127211D01*
X47307766Y-112274420D01*
X47464153Y-112393406D01*
X47640748Y-112479596D01*
X47758382Y-112515274D01*
X47913800Y-112501285D01*
X47913800Y-111616200D01*
X48066200Y-111616200D01*
X48066200Y-112501285D01*
X48221618Y-112515274D01*
X48339252Y-112479596D01*
X48515847Y-112393406D01*
X48672234Y-112274420D01*
X48802403Y-112127211D01*
X48901352Y-111957436D01*
X48965278Y-111771619D01*
X48951404Y-111616200D01*
X48066200Y-111616200D01*
X47913800Y-111616200D01*
X47028596Y-111616200D01*
X47014722Y-111771619D01*
X46425966Y-111771619D01*
X46452400Y-111638728D01*
X46452400Y-111441272D01*
X46425967Y-111308381D01*
X47014722Y-111308381D01*
X47028596Y-111463800D01*
X47913800Y-111463800D01*
X47913800Y-110578715D01*
X48066200Y-110578715D01*
X48066200Y-111463800D01*
X48951404Y-111463800D01*
X48953415Y-111441272D01*
X49527600Y-111441272D01*
X49527600Y-111638728D01*
X49566122Y-111832389D01*
X49641685Y-112014814D01*
X49751385Y-112178993D01*
X49891007Y-112318615D01*
X50055186Y-112428315D01*
X50237611Y-112503878D01*
X50431272Y-112542400D01*
X50628728Y-112542400D01*
X50822389Y-112503878D01*
X51004814Y-112428315D01*
X51168993Y-112318615D01*
X51308615Y-112178993D01*
X51418315Y-112014814D01*
X51493878Y-111832389D01*
X51532400Y-111638728D01*
X51532400Y-111441272D01*
X51493878Y-111247611D01*
X51418315Y-111065186D01*
X51308615Y-110901007D01*
X51168993Y-110761385D01*
X51004814Y-110651685D01*
X50822389Y-110576122D01*
X50628728Y-110537600D01*
X50431272Y-110537600D01*
X50237611Y-110576122D01*
X50055186Y-110651685D01*
X49891007Y-110761385D01*
X49751385Y-110901007D01*
X49641685Y-111065186D01*
X49566122Y-111247611D01*
X49527600Y-111441272D01*
X48953415Y-111441272D01*
X48965278Y-111308381D01*
X48901352Y-111122564D01*
X48802403Y-110952789D01*
X48672234Y-110805580D01*
X48515847Y-110686594D01*
X48339252Y-110600404D01*
X48221618Y-110564726D01*
X48066200Y-110578715D01*
X47913800Y-110578715D01*
X47758382Y-110564726D01*
X47640748Y-110600404D01*
X47464153Y-110686594D01*
X47307766Y-110805580D01*
X47177597Y-110952789D01*
X47078648Y-111122564D01*
X47014722Y-111308381D01*
X46425967Y-111308381D01*
X46413878Y-111247611D01*
X46338315Y-111065186D01*
X46228615Y-110901007D01*
X46088993Y-110761385D01*
X45924814Y-110651685D01*
X45742389Y-110576122D01*
X45548728Y-110537600D01*
X45351272Y-110537600D01*
X45157611Y-110576122D01*
X44975186Y-110651685D01*
X44811007Y-110761385D01*
X44671385Y-110901007D01*
X44561685Y-111065186D01*
X44486122Y-111247611D01*
X44447600Y-111441272D01*
X43912400Y-111441272D01*
X43873878Y-111247611D01*
X43798315Y-111065186D01*
X43688615Y-110901007D01*
X43548993Y-110761385D01*
X43384814Y-110651685D01*
X43202389Y-110576122D01*
X43008728Y-110537600D01*
X42811272Y-110537600D01*
X42617611Y-110576122D01*
X42435186Y-110651685D01*
X42271007Y-110761385D01*
X42131385Y-110901007D01*
X42021685Y-111065186D01*
X41946122Y-111247611D01*
X41907600Y-111441272D01*
X41372400Y-111441272D01*
X41333878Y-111247611D01*
X41258315Y-111065186D01*
X41148615Y-110901007D01*
X41008993Y-110761385D01*
X40844814Y-110651685D01*
X40662389Y-110576122D01*
X40468728Y-110537600D01*
X40271272Y-110537600D01*
X40077611Y-110576122D01*
X39895186Y-110651685D01*
X39731007Y-110761385D01*
X39591385Y-110901007D01*
X39481685Y-111065186D01*
X39406122Y-111247611D01*
X39367600Y-111441272D01*
X38832400Y-111441272D01*
X38793878Y-111247611D01*
X38718315Y-111065186D01*
X38608615Y-110901007D01*
X38468993Y-110761385D01*
X38304814Y-110651685D01*
X38122389Y-110576122D01*
X37928728Y-110537600D01*
X37731272Y-110537600D01*
X37537611Y-110576122D01*
X37355186Y-110651685D01*
X37191007Y-110761385D01*
X37051385Y-110901007D01*
X36941685Y-111065186D01*
X36866122Y-111247611D01*
X36827600Y-111441272D01*
X36292400Y-111441272D01*
X36253878Y-111247611D01*
X36178315Y-111065186D01*
X36068615Y-110901007D01*
X35928993Y-110761385D01*
X35764814Y-110651685D01*
X35582389Y-110576122D01*
X35388728Y-110537600D01*
X35191272Y-110537600D01*
X34997611Y-110576122D01*
X34815186Y-110651685D01*
X34651007Y-110761385D01*
X34511385Y-110901007D01*
X34401685Y-111065186D01*
X34326122Y-111247611D01*
X34287600Y-111441272D01*
X33752400Y-111441272D01*
X33713878Y-111247611D01*
X33638315Y-111065186D01*
X33528615Y-110901007D01*
X33388993Y-110761385D01*
X33224814Y-110651685D01*
X33042389Y-110576122D01*
X32848728Y-110537600D01*
X32651272Y-110537600D01*
X32457611Y-110576122D01*
X32275186Y-110651685D01*
X32111007Y-110761385D01*
X31971385Y-110901007D01*
X31861685Y-111065186D01*
X31786122Y-111247611D01*
X31747600Y-111441272D01*
X31177400Y-111441272D01*
X31177400Y-108150000D01*
X31746863Y-108150000D01*
X31746863Y-109850000D01*
X31749805Y-109879876D01*
X31758520Y-109908603D01*
X31772671Y-109935078D01*
X31791716Y-109958284D01*
X31814922Y-109977329D01*
X31841397Y-109991480D01*
X31870124Y-110000195D01*
X31900000Y-110003137D01*
X33600000Y-110003137D01*
X33629876Y-110000195D01*
X33658603Y-109991480D01*
X33685078Y-109977329D01*
X33708284Y-109958284D01*
X33727329Y-109935078D01*
X33741480Y-109908603D01*
X33750195Y-109879876D01*
X33753137Y-109850000D01*
X33753137Y-108901272D01*
X34287600Y-108901272D01*
X34287600Y-109098728D01*
X34326122Y-109292389D01*
X34401685Y-109474814D01*
X34511385Y-109638993D01*
X34651007Y-109778615D01*
X34815186Y-109888315D01*
X34997611Y-109963878D01*
X35191272Y-110002400D01*
X35388728Y-110002400D01*
X35582389Y-109963878D01*
X35764814Y-109888315D01*
X35928993Y-109778615D01*
X36068615Y-109638993D01*
X36178315Y-109474814D01*
X36253878Y-109292389D01*
X36292400Y-109098728D01*
X36292400Y-108901272D01*
X36827600Y-108901272D01*
X36827600Y-109098728D01*
X36866122Y-109292389D01*
X36941685Y-109474814D01*
X37051385Y-109638993D01*
X37191007Y-109778615D01*
X37355186Y-109888315D01*
X37537611Y-109963878D01*
X37731272Y-110002400D01*
X37928728Y-110002400D01*
X38122389Y-109963878D01*
X38304814Y-109888315D01*
X38468993Y-109778615D01*
X38608615Y-109638993D01*
X38718315Y-109474814D01*
X38793878Y-109292389D01*
X38832400Y-109098728D01*
X38832400Y-108901272D01*
X39367600Y-108901272D01*
X39367600Y-109098728D01*
X39406122Y-109292389D01*
X39481685Y-109474814D01*
X39591385Y-109638993D01*
X39731007Y-109778615D01*
X39895186Y-109888315D01*
X40077611Y-109963878D01*
X40271272Y-110002400D01*
X40468728Y-110002400D01*
X40662389Y-109963878D01*
X40844814Y-109888315D01*
X41008993Y-109778615D01*
X41148615Y-109638993D01*
X41258315Y-109474814D01*
X41333878Y-109292389D01*
X41372400Y-109098728D01*
X41372400Y-108901272D01*
X41907600Y-108901272D01*
X41907600Y-109098728D01*
X41946122Y-109292389D01*
X42021685Y-109474814D01*
X42131385Y-109638993D01*
X42271007Y-109778615D01*
X42435186Y-109888315D01*
X42617611Y-109963878D01*
X42811272Y-110002400D01*
X43008728Y-110002400D01*
X43202389Y-109963878D01*
X43384814Y-109888315D01*
X43548993Y-109778615D01*
X43688615Y-109638993D01*
X43798315Y-109474814D01*
X43873878Y-109292389D01*
X43912400Y-109098728D01*
X43912400Y-108901272D01*
X44447600Y-108901272D01*
X44447600Y-109098728D01*
X44486122Y-109292389D01*
X44561685Y-109474814D01*
X44671385Y-109638993D01*
X44811007Y-109778615D01*
X44975186Y-109888315D01*
X45157611Y-109963878D01*
X45351272Y-110002400D01*
X45548728Y-110002400D01*
X45742389Y-109963878D01*
X45924814Y-109888315D01*
X46088993Y-109778615D01*
X46228615Y-109638993D01*
X46338315Y-109474814D01*
X46413878Y-109292389D01*
X46425966Y-109231619D01*
X47014722Y-109231619D01*
X47078648Y-109417436D01*
X47177597Y-109587211D01*
X47307766Y-109734420D01*
X47464153Y-109853406D01*
X47640748Y-109939596D01*
X47758382Y-109975274D01*
X47913800Y-109961285D01*
X47913800Y-109076200D01*
X48066200Y-109076200D01*
X48066200Y-109961285D01*
X48221618Y-109975274D01*
X48339252Y-109939596D01*
X48515847Y-109853406D01*
X48672234Y-109734420D01*
X48802403Y-109587211D01*
X48901352Y-109417436D01*
X48965278Y-109231619D01*
X48951404Y-109076200D01*
X48066200Y-109076200D01*
X47913800Y-109076200D01*
X47028596Y-109076200D01*
X47014722Y-109231619D01*
X46425966Y-109231619D01*
X46452400Y-109098728D01*
X46452400Y-108901272D01*
X46425967Y-108768381D01*
X47014722Y-108768381D01*
X47028596Y-108923800D01*
X47913800Y-108923800D01*
X47913800Y-108038715D01*
X48066200Y-108038715D01*
X48066200Y-108923800D01*
X48951404Y-108923800D01*
X48953415Y-108901272D01*
X49527600Y-108901272D01*
X49527600Y-109098728D01*
X49566122Y-109292389D01*
X49641685Y-109474814D01*
X49751385Y-109638993D01*
X49891007Y-109778615D01*
X50055186Y-109888315D01*
X50237611Y-109963878D01*
X50431272Y-110002400D01*
X50628728Y-110002400D01*
X50822389Y-109963878D01*
X51004814Y-109888315D01*
X51168993Y-109778615D01*
X51308615Y-109638993D01*
X51418315Y-109474814D01*
X51493878Y-109292389D01*
X51532400Y-109098728D01*
X51532400Y-108901272D01*
X51493878Y-108707611D01*
X51418315Y-108525186D01*
X51308615Y-108361007D01*
X51168993Y-108221385D01*
X51004814Y-108111685D01*
X50822389Y-108036122D01*
X50628728Y-107997600D01*
X50431272Y-107997600D01*
X50237611Y-108036122D01*
X50055186Y-108111685D01*
X49891007Y-108221385D01*
X49751385Y-108361007D01*
X49641685Y-108525186D01*
X49566122Y-108707611D01*
X49527600Y-108901272D01*
X48953415Y-108901272D01*
X48965278Y-108768381D01*
X48901352Y-108582564D01*
X48802403Y-108412789D01*
X48672234Y-108265580D01*
X48515847Y-108146594D01*
X48339252Y-108060404D01*
X48221618Y-108024726D01*
X48066200Y-108038715D01*
X47913800Y-108038715D01*
X47758382Y-108024726D01*
X47640748Y-108060404D01*
X47464153Y-108146594D01*
X47307766Y-108265580D01*
X47177597Y-108412789D01*
X47078648Y-108582564D01*
X47014722Y-108768381D01*
X46425967Y-108768381D01*
X46413878Y-108707611D01*
X46338315Y-108525186D01*
X46228615Y-108361007D01*
X46088993Y-108221385D01*
X45924814Y-108111685D01*
X45742389Y-108036122D01*
X45548728Y-107997600D01*
X45351272Y-107997600D01*
X45157611Y-108036122D01*
X44975186Y-108111685D01*
X44811007Y-108221385D01*
X44671385Y-108361007D01*
X44561685Y-108525186D01*
X44486122Y-108707611D01*
X44447600Y-108901272D01*
X43912400Y-108901272D01*
X43873878Y-108707611D01*
X43798315Y-108525186D01*
X43688615Y-108361007D01*
X43548993Y-108221385D01*
X43384814Y-108111685D01*
X43202389Y-108036122D01*
X43008728Y-107997600D01*
X42811272Y-107997600D01*
X42617611Y-108036122D01*
X42435186Y-108111685D01*
X42271007Y-108221385D01*
X42131385Y-108361007D01*
X42021685Y-108525186D01*
X41946122Y-108707611D01*
X41907600Y-108901272D01*
X41372400Y-108901272D01*
X41333878Y-108707611D01*
X41258315Y-108525186D01*
X41148615Y-108361007D01*
X41008993Y-108221385D01*
X40844814Y-108111685D01*
X40662389Y-108036122D01*
X40468728Y-107997600D01*
X40271272Y-107997600D01*
X40077611Y-108036122D01*
X39895186Y-108111685D01*
X39731007Y-108221385D01*
X39591385Y-108361007D01*
X39481685Y-108525186D01*
X39406122Y-108707611D01*
X39367600Y-108901272D01*
X38832400Y-108901272D01*
X38793878Y-108707611D01*
X38718315Y-108525186D01*
X38608615Y-108361007D01*
X38468993Y-108221385D01*
X38304814Y-108111685D01*
X38122389Y-108036122D01*
X37928728Y-107997600D01*
X37731272Y-107997600D01*
X37537611Y-108036122D01*
X37355186Y-108111685D01*
X37191007Y-108221385D01*
X37051385Y-108361007D01*
X36941685Y-108525186D01*
X36866122Y-108707611D01*
X36827600Y-108901272D01*
X36292400Y-108901272D01*
X36253878Y-108707611D01*
X36178315Y-108525186D01*
X36068615Y-108361007D01*
X35928993Y-108221385D01*
X35764814Y-108111685D01*
X35582389Y-108036122D01*
X35388728Y-107997600D01*
X35191272Y-107997600D01*
X34997611Y-108036122D01*
X34815186Y-108111685D01*
X34651007Y-108221385D01*
X34511385Y-108361007D01*
X34401685Y-108525186D01*
X34326122Y-108707611D01*
X34287600Y-108901272D01*
X33753137Y-108901272D01*
X33753137Y-108150000D01*
X33750195Y-108120124D01*
X33741480Y-108091397D01*
X33727329Y-108064922D01*
X33708284Y-108041716D01*
X33685078Y-108022671D01*
X33658603Y-108008520D01*
X33629876Y-107999805D01*
X33600000Y-107996863D01*
X31900000Y-107996863D01*
X31870124Y-107999805D01*
X31841397Y-108008520D01*
X31814922Y-108022671D01*
X31791716Y-108041716D01*
X31772671Y-108064922D01*
X31758520Y-108091397D01*
X31749805Y-108120124D01*
X31746863Y-108150000D01*
X31177400Y-108150000D01*
X31177400Y-107224567D01*
X36173600Y-107224567D01*
X36173600Y-107303833D01*
X36189064Y-107381576D01*
X36219398Y-107454808D01*
X36263436Y-107520715D01*
X36319485Y-107576764D01*
X36385392Y-107620802D01*
X36458624Y-107651136D01*
X36536367Y-107666600D01*
X36615633Y-107666600D01*
X36693376Y-107651136D01*
X36766608Y-107620802D01*
X36832515Y-107576764D01*
X36888564Y-107520715D01*
X36932602Y-107454808D01*
X36962936Y-107381576D01*
X36978400Y-107303833D01*
X36978400Y-107224567D01*
X36962936Y-107146824D01*
X36932602Y-107073592D01*
X36923766Y-107060367D01*
X41797600Y-107060367D01*
X41797600Y-107139633D01*
X41813064Y-107217376D01*
X41843398Y-107290608D01*
X41887436Y-107356515D01*
X41943485Y-107412564D01*
X42009392Y-107456602D01*
X42082624Y-107486936D01*
X42160367Y-107502400D01*
X42239633Y-107502400D01*
X42317376Y-107486936D01*
X42390608Y-107456602D01*
X42456515Y-107412564D01*
X42512564Y-107356515D01*
X42556602Y-107290608D01*
X42586936Y-107217376D01*
X42602400Y-107139633D01*
X42602400Y-107060367D01*
X42586936Y-106982624D01*
X42556602Y-106909392D01*
X42512564Y-106843485D01*
X42456515Y-106787436D01*
X42390608Y-106743398D01*
X42317376Y-106713064D01*
X42239633Y-106697600D01*
X42160367Y-106697600D01*
X42082624Y-106713064D01*
X42009392Y-106743398D01*
X41943485Y-106787436D01*
X41887436Y-106843485D01*
X41843398Y-106909392D01*
X41813064Y-106982624D01*
X41797600Y-107060367D01*
X36923766Y-107060367D01*
X36888564Y-107007685D01*
X36832515Y-106951636D01*
X36766608Y-106907598D01*
X36693376Y-106877264D01*
X36615633Y-106861800D01*
X36536367Y-106861800D01*
X36458624Y-106877264D01*
X36385392Y-106907598D01*
X36319485Y-106951636D01*
X36263436Y-107007685D01*
X36219398Y-107073592D01*
X36189064Y-107146824D01*
X36173600Y-107224567D01*
X31177400Y-107224567D01*
X31177400Y-106360367D01*
X38197600Y-106360367D01*
X38197600Y-106439633D01*
X38213064Y-106517376D01*
X38243398Y-106590608D01*
X38287436Y-106656515D01*
X38343485Y-106712564D01*
X38409392Y-106756602D01*
X38482624Y-106786936D01*
X38560367Y-106802400D01*
X38639633Y-106802400D01*
X38717376Y-106786936D01*
X38790608Y-106756602D01*
X38856515Y-106712564D01*
X38912564Y-106656515D01*
X38956602Y-106590608D01*
X38986936Y-106517376D01*
X39002400Y-106439633D01*
X39002400Y-106360367D01*
X39097600Y-106360367D01*
X39097600Y-106439633D01*
X39113064Y-106517376D01*
X39143398Y-106590608D01*
X39187436Y-106656515D01*
X39243485Y-106712564D01*
X39309392Y-106756602D01*
X39382624Y-106786936D01*
X39460367Y-106802400D01*
X39539633Y-106802400D01*
X39617376Y-106786936D01*
X39690608Y-106756602D01*
X39756515Y-106712564D01*
X39812564Y-106656515D01*
X39856602Y-106590608D01*
X39886936Y-106517376D01*
X39902400Y-106439633D01*
X39902400Y-106360367D01*
X39886936Y-106282624D01*
X39877717Y-106260367D01*
X42797600Y-106260367D01*
X42797600Y-106339633D01*
X42813064Y-106417376D01*
X42843398Y-106490608D01*
X42887436Y-106556515D01*
X42943485Y-106612564D01*
X43009392Y-106656602D01*
X43082624Y-106686936D01*
X43160367Y-106702400D01*
X43239633Y-106702400D01*
X43317376Y-106686936D01*
X43390608Y-106656602D01*
X43456515Y-106612564D01*
X43512564Y-106556515D01*
X43556602Y-106490608D01*
X43586936Y-106417376D01*
X43602400Y-106339633D01*
X43602400Y-106260367D01*
X43586936Y-106182624D01*
X43556602Y-106109392D01*
X43512564Y-106043485D01*
X43456515Y-105987436D01*
X43390608Y-105943398D01*
X43317376Y-105913064D01*
X43239633Y-105897600D01*
X43160367Y-105897600D01*
X43082624Y-105913064D01*
X43009392Y-105943398D01*
X42943485Y-105987436D01*
X42887436Y-106043485D01*
X42843398Y-106109392D01*
X42813064Y-106182624D01*
X42797600Y-106260367D01*
X39877717Y-106260367D01*
X39856602Y-106209392D01*
X39812564Y-106143485D01*
X39756515Y-106087436D01*
X39690608Y-106043398D01*
X39617376Y-106013064D01*
X39539633Y-105997600D01*
X39460367Y-105997600D01*
X39382624Y-106013064D01*
X39309392Y-106043398D01*
X39243485Y-106087436D01*
X39187436Y-106143485D01*
X39143398Y-106209392D01*
X39113064Y-106282624D01*
X39097600Y-106360367D01*
X39002400Y-106360367D01*
X38986936Y-106282624D01*
X38956602Y-106209392D01*
X38912564Y-106143485D01*
X38856515Y-106087436D01*
X38790608Y-106043398D01*
X38717376Y-106013064D01*
X38639633Y-105997600D01*
X38560367Y-105997600D01*
X38482624Y-106013064D01*
X38409392Y-106043398D01*
X38343485Y-106087436D01*
X38287436Y-106143485D01*
X38243398Y-106209392D01*
X38213064Y-106282624D01*
X38197600Y-106360367D01*
X31177400Y-106360367D01*
X31177400Y-105156365D01*
X43793600Y-105156365D01*
X43793600Y-105235631D01*
X43809064Y-105313374D01*
X43839398Y-105386606D01*
X43883436Y-105452513D01*
X43939485Y-105508562D01*
X44005392Y-105552600D01*
X44078624Y-105582934D01*
X44156367Y-105598398D01*
X44235633Y-105598398D01*
X44313376Y-105582934D01*
X44386608Y-105552600D01*
X44452515Y-105508562D01*
X44508564Y-105452513D01*
X44552602Y-105386606D01*
X44582936Y-105313374D01*
X44598400Y-105235631D01*
X44598400Y-105156365D01*
X44582936Y-105078622D01*
X44552602Y-105005390D01*
X44508564Y-104939483D01*
X44452515Y-104883434D01*
X44386608Y-104839396D01*
X44313376Y-104809062D01*
X44235633Y-104793598D01*
X44156367Y-104793598D01*
X44078624Y-104809062D01*
X44005392Y-104839396D01*
X43939485Y-104883434D01*
X43883436Y-104939483D01*
X43839398Y-105005390D01*
X43809064Y-105078622D01*
X43793600Y-105156365D01*
X31177400Y-105156365D01*
X31177400Y-104460367D01*
X34897600Y-104460367D01*
X34897600Y-104539633D01*
X34913064Y-104617376D01*
X34943398Y-104690608D01*
X34987436Y-104756515D01*
X35043485Y-104812564D01*
X35109392Y-104856602D01*
X35182624Y-104886936D01*
X35260367Y-104902400D01*
X35339633Y-104902400D01*
X35417376Y-104886936D01*
X35490608Y-104856602D01*
X35556515Y-104812564D01*
X35612564Y-104756515D01*
X35656602Y-104690608D01*
X35686936Y-104617376D01*
X35702400Y-104539633D01*
X35702400Y-104460367D01*
X35686936Y-104382624D01*
X35656602Y-104309392D01*
X35612564Y-104243485D01*
X35556515Y-104187436D01*
X35516004Y-104160367D01*
X37997600Y-104160367D01*
X37997600Y-104239633D01*
X38013064Y-104317376D01*
X38043398Y-104390608D01*
X38087436Y-104456515D01*
X38143485Y-104512564D01*
X38209392Y-104556602D01*
X38282624Y-104586936D01*
X38360367Y-104602400D01*
X38439633Y-104602400D01*
X38517376Y-104586936D01*
X38590608Y-104556602D01*
X38656515Y-104512564D01*
X38712564Y-104456515D01*
X38756602Y-104390608D01*
X38786936Y-104317376D01*
X38802400Y-104239633D01*
X38802400Y-104160367D01*
X38786936Y-104082624D01*
X38756602Y-104009392D01*
X38712564Y-103943485D01*
X38656515Y-103887436D01*
X38590608Y-103843398D01*
X38517376Y-103813064D01*
X38439633Y-103797600D01*
X38360367Y-103797600D01*
X38282624Y-103813064D01*
X38209392Y-103843398D01*
X38143485Y-103887436D01*
X38087436Y-103943485D01*
X38043398Y-104009392D01*
X38013064Y-104082624D01*
X37997600Y-104160367D01*
X35516004Y-104160367D01*
X35490608Y-104143398D01*
X35417376Y-104113064D01*
X35339633Y-104097600D01*
X35260367Y-104097600D01*
X35182624Y-104113064D01*
X35109392Y-104143398D01*
X35043485Y-104187436D01*
X34987436Y-104243485D01*
X34943398Y-104309392D01*
X34913064Y-104382624D01*
X34897600Y-104460367D01*
X31177400Y-104460367D01*
X31177400Y-103760367D01*
X42597600Y-103760367D01*
X42597600Y-103839633D01*
X42613064Y-103917376D01*
X42643398Y-103990608D01*
X42687436Y-104056515D01*
X42743485Y-104112564D01*
X42809392Y-104156602D01*
X42882624Y-104186936D01*
X42960367Y-104202400D01*
X43039633Y-104202400D01*
X43117376Y-104186936D01*
X43190608Y-104156602D01*
X43256515Y-104112564D01*
X43312564Y-104056515D01*
X43356602Y-103990608D01*
X43386936Y-103917376D01*
X43402400Y-103839633D01*
X43402400Y-103760367D01*
X43386936Y-103682624D01*
X43356602Y-103609392D01*
X43312564Y-103543485D01*
X43256515Y-103487436D01*
X43190608Y-103443398D01*
X43117376Y-103413064D01*
X43039633Y-103397600D01*
X42960367Y-103397600D01*
X42882624Y-103413064D01*
X42809392Y-103443398D01*
X42743485Y-103487436D01*
X42687436Y-103543485D01*
X42643398Y-103609392D01*
X42613064Y-103682624D01*
X42597600Y-103760367D01*
X31177400Y-103760367D01*
X31177400Y-102460367D01*
X34597600Y-102460367D01*
X34597600Y-102539633D01*
X34613064Y-102617376D01*
X34643398Y-102690608D01*
X34687436Y-102756515D01*
X34743485Y-102812564D01*
X34809392Y-102856602D01*
X34882624Y-102886936D01*
X34960367Y-102902400D01*
X35039633Y-102902400D01*
X35117376Y-102886936D01*
X35190608Y-102856602D01*
X35256515Y-102812564D01*
X35312564Y-102756515D01*
X35356602Y-102690608D01*
X35386936Y-102617376D01*
X35398275Y-102560367D01*
X36497600Y-102560367D01*
X36497600Y-102639633D01*
X36513064Y-102717376D01*
X36543398Y-102790608D01*
X36587436Y-102856515D01*
X36643485Y-102912564D01*
X36709392Y-102956602D01*
X36782624Y-102986936D01*
X36860367Y-103002400D01*
X36939633Y-103002400D01*
X37017376Y-102986936D01*
X37090608Y-102956602D01*
X37156515Y-102912564D01*
X37200002Y-102869077D01*
X37243489Y-102912564D01*
X37309396Y-102956602D01*
X37382628Y-102986936D01*
X37460371Y-103002400D01*
X37539637Y-103002400D01*
X37617380Y-102986936D01*
X37681522Y-102960367D01*
X41797600Y-102960367D01*
X41797600Y-103039633D01*
X41813064Y-103117376D01*
X41843398Y-103190608D01*
X41887436Y-103256515D01*
X41943485Y-103312564D01*
X42009392Y-103356602D01*
X42082624Y-103386936D01*
X42160367Y-103402400D01*
X42239633Y-103402400D01*
X42317376Y-103386936D01*
X42390608Y-103356602D01*
X42456515Y-103312564D01*
X42512564Y-103256515D01*
X42556602Y-103190608D01*
X42586936Y-103117376D01*
X42602400Y-103039633D01*
X42602400Y-102960367D01*
X42586936Y-102882624D01*
X42556602Y-102809392D01*
X42512564Y-102743485D01*
X42456515Y-102687436D01*
X42390608Y-102643398D01*
X42317376Y-102613064D01*
X42239633Y-102597600D01*
X42160367Y-102597600D01*
X42082624Y-102613064D01*
X42009392Y-102643398D01*
X41943485Y-102687436D01*
X41887436Y-102743485D01*
X41843398Y-102809392D01*
X41813064Y-102882624D01*
X41797600Y-102960367D01*
X37681522Y-102960367D01*
X37690612Y-102956602D01*
X37756519Y-102912564D01*
X37812568Y-102856515D01*
X37856606Y-102790608D01*
X37886940Y-102717376D01*
X37902404Y-102639633D01*
X37902404Y-102560367D01*
X37886940Y-102482624D01*
X37856606Y-102409392D01*
X37812568Y-102343485D01*
X37809463Y-102340380D01*
X42397600Y-102340380D01*
X42397600Y-102419646D01*
X42413064Y-102497389D01*
X42443398Y-102570621D01*
X42487436Y-102636528D01*
X42543485Y-102692577D01*
X42609392Y-102736615D01*
X42682624Y-102766949D01*
X42760367Y-102782413D01*
X42839633Y-102782413D01*
X42917376Y-102766949D01*
X42990608Y-102736615D01*
X43056515Y-102692577D01*
X43112564Y-102636528D01*
X43156602Y-102570621D01*
X43186936Y-102497389D01*
X43202400Y-102419646D01*
X43202400Y-102340380D01*
X43186936Y-102262637D01*
X43156602Y-102189405D01*
X43112564Y-102123498D01*
X43056515Y-102067449D01*
X42990608Y-102023411D01*
X42917376Y-101993077D01*
X42839633Y-101977613D01*
X42760367Y-101977613D01*
X42682624Y-101993077D01*
X42609392Y-102023411D01*
X42543485Y-102067449D01*
X42487436Y-102123498D01*
X42443398Y-102189405D01*
X42413064Y-102262637D01*
X42397600Y-102340380D01*
X37809463Y-102340380D01*
X37756519Y-102287436D01*
X37690612Y-102243398D01*
X37617380Y-102213064D01*
X37539637Y-102197600D01*
X37460371Y-102197600D01*
X37382628Y-102213064D01*
X37309396Y-102243398D01*
X37243489Y-102287436D01*
X37200002Y-102330923D01*
X37156515Y-102287436D01*
X37090608Y-102243398D01*
X37017376Y-102213064D01*
X36939633Y-102197600D01*
X36860367Y-102197600D01*
X36782624Y-102213064D01*
X36709392Y-102243398D01*
X36643485Y-102287436D01*
X36587436Y-102343485D01*
X36543398Y-102409392D01*
X36513064Y-102482624D01*
X36497600Y-102560367D01*
X35398275Y-102560367D01*
X35402400Y-102539633D01*
X35402400Y-102460367D01*
X35386936Y-102382624D01*
X35356602Y-102309392D01*
X35312564Y-102243485D01*
X35256515Y-102187436D01*
X35190608Y-102143398D01*
X35117376Y-102113064D01*
X35039633Y-102097600D01*
X34960367Y-102097600D01*
X34882624Y-102113064D01*
X34809392Y-102143398D01*
X34743485Y-102187436D01*
X34687436Y-102243485D01*
X34643398Y-102309392D01*
X34613064Y-102382624D01*
X34597600Y-102460367D01*
X31177400Y-102460367D01*
X31177400Y-101562829D01*
X45822600Y-101562829D01*
X45822600Y-101637171D01*
X45837103Y-101710083D01*
X45865553Y-101778766D01*
X45906854Y-101840578D01*
X45959422Y-101893146D01*
X46021234Y-101934447D01*
X46089917Y-101962897D01*
X46162829Y-101977400D01*
X46237171Y-101977400D01*
X46310083Y-101962897D01*
X46378766Y-101934447D01*
X46440578Y-101893146D01*
X46493146Y-101840578D01*
X46534447Y-101778766D01*
X46562897Y-101710083D01*
X46577400Y-101637171D01*
X46577400Y-101562829D01*
X46562897Y-101489917D01*
X46534447Y-101421234D01*
X46493146Y-101359422D01*
X46440578Y-101306854D01*
X46378766Y-101265553D01*
X46310083Y-101237103D01*
X46237171Y-101222600D01*
X46162829Y-101222600D01*
X46089917Y-101237103D01*
X46021234Y-101265553D01*
X45959422Y-101306854D01*
X45906854Y-101359422D01*
X45865553Y-101421234D01*
X45837103Y-101489917D01*
X45822600Y-101562829D01*
X31177400Y-101562829D01*
X31177400Y-101062829D01*
X40722600Y-101062829D01*
X40722600Y-101137171D01*
X40737103Y-101210083D01*
X40765553Y-101278766D01*
X40806854Y-101340578D01*
X40859422Y-101393146D01*
X40921234Y-101434447D01*
X40989917Y-101462897D01*
X41062829Y-101477400D01*
X41137171Y-101477400D01*
X41210083Y-101462897D01*
X41278766Y-101434447D01*
X41340578Y-101393146D01*
X41393146Y-101340578D01*
X41434447Y-101278766D01*
X41462897Y-101210083D01*
X41477400Y-101137171D01*
X41477400Y-101062829D01*
X41462897Y-100989917D01*
X41434447Y-100921234D01*
X41393146Y-100859422D01*
X41340578Y-100806854D01*
X41278766Y-100765553D01*
X41210083Y-100737103D01*
X41137171Y-100722600D01*
X41062829Y-100722600D01*
X40989917Y-100737103D01*
X40921234Y-100765553D01*
X40859422Y-100806854D01*
X40806854Y-100859422D01*
X40765553Y-100921234D01*
X40737103Y-100989917D01*
X40722600Y-101062829D01*
X31177400Y-101062829D01*
X31177400Y-100460367D01*
X34597600Y-100460367D01*
X34597600Y-100539633D01*
X34613064Y-100617376D01*
X34643398Y-100690608D01*
X34687436Y-100756515D01*
X34743485Y-100812564D01*
X34809392Y-100856602D01*
X34882624Y-100886936D01*
X34960367Y-100902400D01*
X35039633Y-100902400D01*
X35117376Y-100886936D01*
X35190608Y-100856602D01*
X35256515Y-100812564D01*
X35312564Y-100756515D01*
X35356602Y-100690608D01*
X35386936Y-100617376D01*
X35402400Y-100539633D01*
X35402400Y-100460367D01*
X35386936Y-100382624D01*
X35356602Y-100309392D01*
X35312564Y-100243485D01*
X35256515Y-100187436D01*
X35190608Y-100143398D01*
X35117376Y-100113064D01*
X35039633Y-100097600D01*
X34960367Y-100097600D01*
X34882624Y-100113064D01*
X34809392Y-100143398D01*
X34743485Y-100187436D01*
X34687436Y-100243485D01*
X34643398Y-100309392D01*
X34613064Y-100382624D01*
X34597600Y-100460367D01*
X31177400Y-100460367D01*
X31177400Y-99060367D01*
X35997598Y-99060367D01*
X35997598Y-99139633D01*
X36013062Y-99217376D01*
X36043396Y-99290608D01*
X36087434Y-99356515D01*
X36143483Y-99412564D01*
X36209390Y-99456602D01*
X36282622Y-99486936D01*
X36348300Y-99500000D01*
X36282624Y-99513064D01*
X36209392Y-99543398D01*
X36143485Y-99587436D01*
X36087436Y-99643485D01*
X36043398Y-99709392D01*
X36013064Y-99782624D01*
X35997600Y-99860367D01*
X35997600Y-99939633D01*
X36013064Y-100017376D01*
X36043398Y-100090608D01*
X36087436Y-100156515D01*
X36143485Y-100212564D01*
X36209392Y-100256602D01*
X36282624Y-100286936D01*
X36360367Y-100302400D01*
X36439633Y-100302400D01*
X36517376Y-100286936D01*
X36575574Y-100262829D01*
X40722600Y-100262829D01*
X40722600Y-100337171D01*
X40737103Y-100410083D01*
X40765553Y-100478766D01*
X40806854Y-100540578D01*
X40859422Y-100593146D01*
X40921234Y-100634447D01*
X40989917Y-100662897D01*
X41062829Y-100677400D01*
X41137171Y-100677400D01*
X41210083Y-100662897D01*
X41278766Y-100634447D01*
X41340578Y-100593146D01*
X41393146Y-100540578D01*
X41434447Y-100478766D01*
X41462897Y-100410083D01*
X41477400Y-100337171D01*
X41477400Y-100262829D01*
X41462897Y-100189917D01*
X41434447Y-100121234D01*
X41393146Y-100059422D01*
X41340578Y-100006854D01*
X41278766Y-99965553D01*
X41210083Y-99937103D01*
X41137171Y-99922600D01*
X41062829Y-99922600D01*
X40989917Y-99937103D01*
X40921234Y-99965553D01*
X40859422Y-100006854D01*
X40806854Y-100059422D01*
X40765553Y-100121234D01*
X40737103Y-100189917D01*
X40722600Y-100262829D01*
X36575574Y-100262829D01*
X36590608Y-100256602D01*
X36656515Y-100212564D01*
X36712564Y-100156515D01*
X36756602Y-100090608D01*
X36786936Y-100017376D01*
X36802400Y-99939633D01*
X36802400Y-99860367D01*
X36786936Y-99782624D01*
X36756602Y-99709392D01*
X36712564Y-99643485D01*
X36656515Y-99587436D01*
X36590608Y-99543398D01*
X36517376Y-99513064D01*
X36451698Y-99500000D01*
X36517374Y-99486936D01*
X36575572Y-99462829D01*
X39122600Y-99462829D01*
X39122600Y-99537171D01*
X39137103Y-99610083D01*
X39165553Y-99678766D01*
X39206854Y-99740578D01*
X39259422Y-99793146D01*
X39321234Y-99834447D01*
X39389917Y-99862897D01*
X39462829Y-99877400D01*
X39537171Y-99877400D01*
X39610083Y-99862897D01*
X39678766Y-99834447D01*
X39740578Y-99793146D01*
X39793146Y-99740578D01*
X39834447Y-99678766D01*
X39862897Y-99610083D01*
X39877400Y-99537171D01*
X39877400Y-99462829D01*
X43122600Y-99462829D01*
X43122600Y-99537171D01*
X43137103Y-99610083D01*
X43165553Y-99678766D01*
X43206854Y-99740578D01*
X43259422Y-99793146D01*
X43321234Y-99834447D01*
X43389917Y-99862897D01*
X43462829Y-99877400D01*
X43537171Y-99877400D01*
X43610083Y-99862897D01*
X43678766Y-99834447D01*
X43740578Y-99793146D01*
X43793146Y-99740578D01*
X43834447Y-99678766D01*
X43862897Y-99610083D01*
X43877400Y-99537171D01*
X43877400Y-99462829D01*
X43862897Y-99389917D01*
X43834447Y-99321234D01*
X43793146Y-99259422D01*
X43740578Y-99206854D01*
X43678766Y-99165553D01*
X43610083Y-99137103D01*
X43537171Y-99122600D01*
X43462829Y-99122600D01*
X43389917Y-99137103D01*
X43321234Y-99165553D01*
X43259422Y-99206854D01*
X43206854Y-99259422D01*
X43165553Y-99321234D01*
X43137103Y-99389917D01*
X43122600Y-99462829D01*
X39877400Y-99462829D01*
X39862897Y-99389917D01*
X39834447Y-99321234D01*
X39793146Y-99259422D01*
X39740578Y-99206854D01*
X39678766Y-99165553D01*
X39610083Y-99137103D01*
X39537171Y-99122600D01*
X39462829Y-99122600D01*
X39389917Y-99137103D01*
X39321234Y-99165553D01*
X39259422Y-99206854D01*
X39206854Y-99259422D01*
X39165553Y-99321234D01*
X39137103Y-99389917D01*
X39122600Y-99462829D01*
X36575572Y-99462829D01*
X36590606Y-99456602D01*
X36656513Y-99412564D01*
X36712562Y-99356515D01*
X36756600Y-99290608D01*
X36786934Y-99217376D01*
X36802398Y-99139633D01*
X36802398Y-99060367D01*
X36786934Y-98982624D01*
X36756600Y-98909392D01*
X36712562Y-98843485D01*
X36656513Y-98787436D01*
X36590606Y-98743398D01*
X36517374Y-98713064D01*
X36439631Y-98697600D01*
X36360365Y-98697600D01*
X36282622Y-98713064D01*
X36209390Y-98743398D01*
X36143483Y-98787436D01*
X36087434Y-98843485D01*
X36043396Y-98909392D01*
X36013062Y-98982624D01*
X35997598Y-99060367D01*
X31177400Y-99060367D01*
X31177400Y-98662829D01*
X39122600Y-98662829D01*
X39122600Y-98737171D01*
X39137103Y-98810083D01*
X39165553Y-98878766D01*
X39206854Y-98940578D01*
X39259422Y-98993146D01*
X39321234Y-99034447D01*
X39389917Y-99062897D01*
X39462829Y-99077400D01*
X39537171Y-99077400D01*
X39610083Y-99062897D01*
X39678766Y-99034447D01*
X39740578Y-98993146D01*
X39793146Y-98940578D01*
X39834447Y-98878766D01*
X39862897Y-98810083D01*
X39877400Y-98737171D01*
X39877400Y-98662829D01*
X41522600Y-98662829D01*
X41522600Y-98737171D01*
X41537103Y-98810083D01*
X41565553Y-98878766D01*
X41606854Y-98940578D01*
X41659422Y-98993146D01*
X41721234Y-99034447D01*
X41789917Y-99062897D01*
X41862829Y-99077400D01*
X41937171Y-99077400D01*
X42010083Y-99062897D01*
X42078766Y-99034447D01*
X42140578Y-98993146D01*
X42193146Y-98940578D01*
X42234447Y-98878766D01*
X42262897Y-98810083D01*
X42277400Y-98737171D01*
X42277400Y-98662829D01*
X42262897Y-98589917D01*
X42234447Y-98521234D01*
X42193146Y-98459422D01*
X42140578Y-98406854D01*
X42078766Y-98365553D01*
X42030580Y-98345593D01*
X46947600Y-98345593D01*
X46947600Y-98454407D01*
X46968828Y-98561129D01*
X47010469Y-98661660D01*
X47070923Y-98752135D01*
X47147865Y-98829077D01*
X47238340Y-98889531D01*
X47338871Y-98931172D01*
X47445593Y-98952400D01*
X47554407Y-98952400D01*
X47661129Y-98931172D01*
X47761660Y-98889531D01*
X47852135Y-98829077D01*
X47929077Y-98752135D01*
X47989531Y-98661660D01*
X48031172Y-98561129D01*
X48052400Y-98454407D01*
X48052400Y-98345593D01*
X48031172Y-98238871D01*
X47989531Y-98138340D01*
X47929077Y-98047865D01*
X47852135Y-97970923D01*
X47761660Y-97910469D01*
X47661129Y-97868828D01*
X47554407Y-97847600D01*
X47445593Y-97847600D01*
X47338871Y-97868828D01*
X47238340Y-97910469D01*
X47147865Y-97970923D01*
X47070923Y-98047865D01*
X47010469Y-98138340D01*
X46968828Y-98238871D01*
X46947600Y-98345593D01*
X42030580Y-98345593D01*
X42010083Y-98337103D01*
X41937171Y-98322600D01*
X41862829Y-98322600D01*
X41789917Y-98337103D01*
X41721234Y-98365553D01*
X41659422Y-98406854D01*
X41606854Y-98459422D01*
X41565553Y-98521234D01*
X41537103Y-98589917D01*
X41522600Y-98662829D01*
X39877400Y-98662829D01*
X39862897Y-98589917D01*
X39834447Y-98521234D01*
X39793146Y-98459422D01*
X39740578Y-98406854D01*
X39678766Y-98365553D01*
X39610083Y-98337103D01*
X39537171Y-98322600D01*
X39462829Y-98322600D01*
X39389917Y-98337103D01*
X39321234Y-98365553D01*
X39259422Y-98406854D01*
X39206854Y-98459422D01*
X39165553Y-98521234D01*
X39137103Y-98589917D01*
X39122600Y-98662829D01*
X31177400Y-98662829D01*
X31177400Y-97062829D01*
X39122600Y-97062829D01*
X39122600Y-97137171D01*
X39137103Y-97210083D01*
X39165553Y-97278766D01*
X39206854Y-97340578D01*
X39259422Y-97393146D01*
X39321234Y-97434447D01*
X39389917Y-97462897D01*
X39462829Y-97477400D01*
X39537171Y-97477400D01*
X39610083Y-97462897D01*
X39678766Y-97434447D01*
X39740578Y-97393146D01*
X39793146Y-97340578D01*
X39834447Y-97278766D01*
X39862897Y-97210083D01*
X39877400Y-97137171D01*
X39877400Y-97062829D01*
X43122600Y-97062829D01*
X43122600Y-97137171D01*
X43137103Y-97210083D01*
X43165553Y-97278766D01*
X43206854Y-97340578D01*
X43259422Y-97393146D01*
X43321234Y-97434447D01*
X43389917Y-97462897D01*
X43462829Y-97477400D01*
X43537171Y-97477400D01*
X43610083Y-97462897D01*
X43678766Y-97434447D01*
X43740578Y-97393146D01*
X43793146Y-97340578D01*
X43834447Y-97278766D01*
X43862897Y-97210083D01*
X43877400Y-97137171D01*
X43877400Y-97062829D01*
X43862897Y-96989917D01*
X43834447Y-96921234D01*
X43793146Y-96859422D01*
X43740578Y-96806854D01*
X43678766Y-96765553D01*
X43610083Y-96737103D01*
X43537171Y-96722600D01*
X43462829Y-96722600D01*
X43389917Y-96737103D01*
X43321234Y-96765553D01*
X43259422Y-96806854D01*
X43206854Y-96859422D01*
X43165553Y-96921234D01*
X43137103Y-96989917D01*
X43122600Y-97062829D01*
X39877400Y-97062829D01*
X39862897Y-96989917D01*
X39834447Y-96921234D01*
X39793146Y-96859422D01*
X39740578Y-96806854D01*
X39678766Y-96765553D01*
X39610083Y-96737103D01*
X39537171Y-96722600D01*
X39462829Y-96722600D01*
X39389917Y-96737103D01*
X39321234Y-96765553D01*
X39259422Y-96806854D01*
X39206854Y-96859422D01*
X39165553Y-96921234D01*
X39137103Y-96989917D01*
X39122600Y-97062829D01*
X31177400Y-97062829D01*
X31177400Y-96262829D01*
X39122600Y-96262829D01*
X39122600Y-96337171D01*
X39137103Y-96410083D01*
X39165553Y-96478766D01*
X39206854Y-96540578D01*
X39259422Y-96593146D01*
X39321234Y-96634447D01*
X39389917Y-96662897D01*
X39462829Y-96677400D01*
X39537171Y-96677400D01*
X39610083Y-96662897D01*
X39678766Y-96634447D01*
X39740578Y-96593146D01*
X39793146Y-96540578D01*
X39834447Y-96478766D01*
X39862897Y-96410083D01*
X39877400Y-96337171D01*
X39877400Y-96262829D01*
X43122600Y-96262829D01*
X43122600Y-96337171D01*
X43137103Y-96410083D01*
X43165553Y-96478766D01*
X43206854Y-96540578D01*
X43259422Y-96593146D01*
X43321234Y-96634447D01*
X43389917Y-96662897D01*
X43462829Y-96677400D01*
X43537171Y-96677400D01*
X43610083Y-96662897D01*
X43678766Y-96634447D01*
X43740578Y-96593146D01*
X43793146Y-96540578D01*
X43834447Y-96478766D01*
X43862897Y-96410083D01*
X43877400Y-96337171D01*
X43877400Y-96262829D01*
X43862897Y-96189917D01*
X43834447Y-96121234D01*
X43793146Y-96059422D01*
X43740578Y-96006854D01*
X43678766Y-95965553D01*
X43610083Y-95937103D01*
X43537171Y-95922600D01*
X43462829Y-95922600D01*
X43389917Y-95937103D01*
X43321234Y-95965553D01*
X43259422Y-96006854D01*
X43206854Y-96059422D01*
X43165553Y-96121234D01*
X43137103Y-96189917D01*
X43122600Y-96262829D01*
X39877400Y-96262829D01*
X39862897Y-96189917D01*
X39834447Y-96121234D01*
X39793146Y-96059422D01*
X39740578Y-96006854D01*
X39678766Y-95965553D01*
X39610083Y-95937103D01*
X39537171Y-95922600D01*
X39462829Y-95922600D01*
X39389917Y-95937103D01*
X39321234Y-95965553D01*
X39259422Y-96006854D01*
X39206854Y-96059422D01*
X39165553Y-96121234D01*
X39137103Y-96189917D01*
X39122600Y-96262829D01*
X31177400Y-96262829D01*
X31177400Y-95462829D01*
X41522600Y-95462829D01*
X41522600Y-95537171D01*
X41537103Y-95610083D01*
X41565553Y-95678766D01*
X41606854Y-95740578D01*
X41659422Y-95793146D01*
X41721234Y-95834447D01*
X41789917Y-95862897D01*
X41862829Y-95877400D01*
X41937171Y-95877400D01*
X42010083Y-95862897D01*
X42078766Y-95834447D01*
X42140578Y-95793146D01*
X42193146Y-95740578D01*
X42234447Y-95678766D01*
X42262897Y-95610083D01*
X42277400Y-95537171D01*
X42277400Y-95462829D01*
X42262897Y-95389917D01*
X42234447Y-95321234D01*
X42193146Y-95259422D01*
X42140578Y-95206854D01*
X42078766Y-95165553D01*
X42010083Y-95137103D01*
X41937171Y-95122600D01*
X41862829Y-95122600D01*
X41789917Y-95137103D01*
X41721234Y-95165553D01*
X41659422Y-95206854D01*
X41606854Y-95259422D01*
X41565553Y-95321234D01*
X41537103Y-95389917D01*
X41522600Y-95462829D01*
X31177400Y-95462829D01*
X31177400Y-94662829D01*
X39922600Y-94662829D01*
X39922600Y-94737171D01*
X39937103Y-94810083D01*
X39965553Y-94878766D01*
X40006854Y-94940578D01*
X40059422Y-94993146D01*
X40121234Y-95034447D01*
X40189917Y-95062897D01*
X40262829Y-95077400D01*
X40337171Y-95077400D01*
X40410083Y-95062897D01*
X40478766Y-95034447D01*
X40540578Y-94993146D01*
X40593146Y-94940578D01*
X40634447Y-94878766D01*
X40662897Y-94810083D01*
X40677400Y-94737171D01*
X40677400Y-94662829D01*
X40722600Y-94662829D01*
X40722600Y-94737171D01*
X40737103Y-94810083D01*
X40765553Y-94878766D01*
X40806854Y-94940578D01*
X40859422Y-94993146D01*
X40921234Y-95034447D01*
X40989917Y-95062897D01*
X41062829Y-95077400D01*
X41137171Y-95077400D01*
X41210083Y-95062897D01*
X41278766Y-95034447D01*
X41340578Y-94993146D01*
X41393146Y-94940578D01*
X41434447Y-94878766D01*
X41462897Y-94810083D01*
X41477400Y-94737171D01*
X41477400Y-94662829D01*
X43922600Y-94662829D01*
X43922600Y-94737171D01*
X43937103Y-94810083D01*
X43965553Y-94878766D01*
X44006854Y-94940578D01*
X44059422Y-94993146D01*
X44121234Y-95034447D01*
X44189917Y-95062897D01*
X44262829Y-95077400D01*
X44337171Y-95077400D01*
X44410083Y-95062897D01*
X44478766Y-95034447D01*
X44540578Y-94993146D01*
X44593146Y-94940578D01*
X44634447Y-94878766D01*
X44641048Y-94862829D01*
X45622600Y-94862829D01*
X45622600Y-94937171D01*
X45637103Y-95010083D01*
X45665553Y-95078766D01*
X45706854Y-95140578D01*
X45759422Y-95193146D01*
X45821234Y-95234447D01*
X45889917Y-95262897D01*
X45962829Y-95277400D01*
X46037171Y-95277400D01*
X46110083Y-95262897D01*
X46178766Y-95234447D01*
X46240578Y-95193146D01*
X46293146Y-95140578D01*
X46334447Y-95078766D01*
X46362897Y-95010083D01*
X46377400Y-94937171D01*
X46377400Y-94862829D01*
X46362897Y-94789917D01*
X46334447Y-94721234D01*
X46293146Y-94659422D01*
X46240578Y-94606854D01*
X46178766Y-94565553D01*
X46110083Y-94537103D01*
X46037171Y-94522600D01*
X45962829Y-94522600D01*
X45889917Y-94537103D01*
X45821234Y-94565553D01*
X45759422Y-94606854D01*
X45706854Y-94659422D01*
X45665553Y-94721234D01*
X45637103Y-94789917D01*
X45622600Y-94862829D01*
X44641048Y-94862829D01*
X44662897Y-94810083D01*
X44677400Y-94737171D01*
X44677400Y-94662829D01*
X44662897Y-94589917D01*
X44634447Y-94521234D01*
X44593146Y-94459422D01*
X44540578Y-94406854D01*
X44478766Y-94365553D01*
X44410083Y-94337103D01*
X44337171Y-94322600D01*
X44262829Y-94322600D01*
X44189917Y-94337103D01*
X44121234Y-94365553D01*
X44059422Y-94406854D01*
X44006854Y-94459422D01*
X43965553Y-94521234D01*
X43937103Y-94589917D01*
X43922600Y-94662829D01*
X41477400Y-94662829D01*
X41462897Y-94589917D01*
X41434447Y-94521234D01*
X41393146Y-94459422D01*
X41340578Y-94406854D01*
X41278766Y-94365553D01*
X41210083Y-94337103D01*
X41137171Y-94322600D01*
X41062829Y-94322600D01*
X40989917Y-94337103D01*
X40921234Y-94365553D01*
X40859422Y-94406854D01*
X40806854Y-94459422D01*
X40765553Y-94521234D01*
X40737103Y-94589917D01*
X40722600Y-94662829D01*
X40677400Y-94662829D01*
X40662897Y-94589917D01*
X40634447Y-94521234D01*
X40593146Y-94459422D01*
X40540578Y-94406854D01*
X40478766Y-94365553D01*
X40410083Y-94337103D01*
X40337171Y-94322600D01*
X40262829Y-94322600D01*
X40189917Y-94337103D01*
X40121234Y-94365553D01*
X40059422Y-94406854D01*
X40006854Y-94459422D01*
X39965553Y-94521234D01*
X39937103Y-94589917D01*
X39922600Y-94662829D01*
X31177400Y-94662829D01*
X31177400Y-91360367D01*
X44097600Y-91360367D01*
X44097600Y-91439633D01*
X44113064Y-91517376D01*
X44143398Y-91590608D01*
X44187436Y-91656515D01*
X44243485Y-91712564D01*
X44309392Y-91756602D01*
X44382624Y-91786936D01*
X44460367Y-91802400D01*
X44539633Y-91802400D01*
X44617376Y-91786936D01*
X44690608Y-91756602D01*
X44756515Y-91712564D01*
X44812564Y-91656515D01*
X44856602Y-91590608D01*
X44886936Y-91517376D01*
X44902400Y-91439633D01*
X44902400Y-91360367D01*
X44886936Y-91282624D01*
X44856602Y-91209392D01*
X44812564Y-91143485D01*
X44756515Y-91087436D01*
X44690608Y-91043398D01*
X44617376Y-91013064D01*
X44539633Y-90997600D01*
X44460367Y-90997600D01*
X44382624Y-91013064D01*
X44309392Y-91043398D01*
X44243485Y-91087436D01*
X44187436Y-91143485D01*
X44143398Y-91209392D01*
X44113064Y-91282624D01*
X44097600Y-91360367D01*
X31177400Y-91360367D01*
X31177400Y-87160367D01*
X41597600Y-87160367D01*
X41597600Y-87239633D01*
X41613064Y-87317376D01*
X41643398Y-87390608D01*
X41687436Y-87456515D01*
X41743485Y-87512564D01*
X41799511Y-87550000D01*
X41743485Y-87587436D01*
X41687436Y-87643485D01*
X41643398Y-87709392D01*
X41613064Y-87782624D01*
X41597600Y-87860367D01*
X41597600Y-87939633D01*
X41613064Y-88017376D01*
X41643398Y-88090608D01*
X41687436Y-88156515D01*
X41743485Y-88212564D01*
X41799511Y-88250000D01*
X41743485Y-88287436D01*
X41687436Y-88343485D01*
X41643398Y-88409392D01*
X41613064Y-88482624D01*
X41597600Y-88560367D01*
X41597600Y-88639633D01*
X41613064Y-88717376D01*
X41643398Y-88790608D01*
X41687436Y-88856515D01*
X41743485Y-88912564D01*
X41809392Y-88956602D01*
X41882624Y-88986936D01*
X41960367Y-89002400D01*
X42039633Y-89002400D01*
X42117376Y-88986936D01*
X42190608Y-88956602D01*
X42256515Y-88912564D01*
X42312564Y-88856515D01*
X42350000Y-88800489D01*
X42387436Y-88856515D01*
X42443485Y-88912564D01*
X42509392Y-88956602D01*
X42582624Y-88986936D01*
X42660367Y-89002400D01*
X42739633Y-89002400D01*
X42817376Y-88986936D01*
X42890608Y-88956602D01*
X42956515Y-88912564D01*
X43012564Y-88856515D01*
X43050000Y-88800489D01*
X43087436Y-88856515D01*
X43143485Y-88912564D01*
X43209392Y-88956602D01*
X43282624Y-88986936D01*
X43360367Y-89002400D01*
X43439633Y-89002400D01*
X43517376Y-88986936D01*
X43590608Y-88956602D01*
X43656515Y-88912564D01*
X43712564Y-88856515D01*
X43756602Y-88790608D01*
X43786936Y-88717376D01*
X43802400Y-88639633D01*
X43802400Y-88560367D01*
X43786936Y-88482624D01*
X43756602Y-88409392D01*
X43712564Y-88343485D01*
X43656515Y-88287436D01*
X43600489Y-88250000D01*
X43656515Y-88212564D01*
X43712564Y-88156515D01*
X43756602Y-88090608D01*
X43786936Y-88017376D01*
X43802400Y-87939633D01*
X43802400Y-87860367D01*
X43786936Y-87782624D01*
X43756602Y-87709392D01*
X43712564Y-87643485D01*
X43656515Y-87587436D01*
X43600489Y-87550000D01*
X43656515Y-87512564D01*
X43712564Y-87456515D01*
X43756602Y-87390608D01*
X43786936Y-87317376D01*
X43802400Y-87239633D01*
X43802400Y-87160367D01*
X43786936Y-87082624D01*
X43756602Y-87009392D01*
X43712564Y-86943485D01*
X43656515Y-86887436D01*
X43590608Y-86843398D01*
X43517376Y-86813064D01*
X43439633Y-86797600D01*
X43360367Y-86797600D01*
X43282624Y-86813064D01*
X43209392Y-86843398D01*
X43143485Y-86887436D01*
X43087436Y-86943485D01*
X43050000Y-86999511D01*
X43012564Y-86943485D01*
X42956515Y-86887436D01*
X42890608Y-86843398D01*
X42817376Y-86813064D01*
X42739633Y-86797600D01*
X42660367Y-86797600D01*
X42582624Y-86813064D01*
X42509392Y-86843398D01*
X42443485Y-86887436D01*
X42387436Y-86943485D01*
X42350000Y-86999511D01*
X42312564Y-86943485D01*
X42256515Y-86887436D01*
X42190608Y-86843398D01*
X42117376Y-86813064D01*
X42039633Y-86797600D01*
X41960367Y-86797600D01*
X41882624Y-86813064D01*
X41809392Y-86843398D01*
X41743485Y-86887436D01*
X41687436Y-86943485D01*
X41643398Y-87009392D01*
X41613064Y-87082624D01*
X41597600Y-87160367D01*
X31177400Y-87160367D01*
X31177400Y-85460367D01*
X47497600Y-85460367D01*
X47497600Y-85539633D01*
X47513064Y-85617376D01*
X47543398Y-85690608D01*
X47587436Y-85756515D01*
X47643485Y-85812564D01*
X47709392Y-85856602D01*
X47782624Y-85886936D01*
X47860367Y-85902400D01*
X47939633Y-85902400D01*
X48017376Y-85886936D01*
X48090608Y-85856602D01*
X48156515Y-85812564D01*
X48212564Y-85756515D01*
X48250000Y-85700489D01*
X48287436Y-85756515D01*
X48343485Y-85812564D01*
X48409392Y-85856602D01*
X48482624Y-85886936D01*
X48560367Y-85902400D01*
X48639633Y-85902400D01*
X48717376Y-85886936D01*
X48790608Y-85856602D01*
X48856515Y-85812564D01*
X48912564Y-85756515D01*
X48950000Y-85700489D01*
X48987436Y-85756515D01*
X49043485Y-85812564D01*
X49109392Y-85856602D01*
X49182624Y-85886936D01*
X49260367Y-85902400D01*
X49339633Y-85902400D01*
X49417376Y-85886936D01*
X49490608Y-85856602D01*
X49556515Y-85812564D01*
X49612564Y-85756515D01*
X49656602Y-85690608D01*
X49686936Y-85617376D01*
X49702400Y-85539633D01*
X49702400Y-85460367D01*
X49686936Y-85382624D01*
X49656602Y-85309392D01*
X49612564Y-85243485D01*
X49556515Y-85187436D01*
X49490608Y-85143398D01*
X49417376Y-85113064D01*
X49339633Y-85097600D01*
X49260367Y-85097600D01*
X49182624Y-85113064D01*
X49109392Y-85143398D01*
X49043485Y-85187436D01*
X48987436Y-85243485D01*
X48950000Y-85299511D01*
X48912564Y-85243485D01*
X48856515Y-85187436D01*
X48790608Y-85143398D01*
X48717376Y-85113064D01*
X48639633Y-85097600D01*
X48560367Y-85097600D01*
X48482624Y-85113064D01*
X48409392Y-85143398D01*
X48343485Y-85187436D01*
X48287436Y-85243485D01*
X48250000Y-85299511D01*
X48212564Y-85243485D01*
X48156515Y-85187436D01*
X48090608Y-85143398D01*
X48017376Y-85113064D01*
X47939633Y-85097600D01*
X47860367Y-85097600D01*
X47782624Y-85113064D01*
X47709392Y-85143398D01*
X47643485Y-85187436D01*
X47587436Y-85243485D01*
X47543398Y-85309392D01*
X47513064Y-85382624D01*
X47497600Y-85460367D01*
X31177400Y-85460367D01*
X31177400Y-83960367D01*
X44197600Y-83960367D01*
X44197600Y-84039633D01*
X44213064Y-84117376D01*
X44243398Y-84190608D01*
X44287436Y-84256515D01*
X44343485Y-84312564D01*
X44409392Y-84356602D01*
X44482624Y-84386936D01*
X44560367Y-84402400D01*
X44639633Y-84402400D01*
X44717376Y-84386936D01*
X44790608Y-84356602D01*
X44856515Y-84312564D01*
X44912564Y-84256515D01*
X44956602Y-84190608D01*
X44986936Y-84117376D01*
X45002400Y-84039633D01*
X45002400Y-83960367D01*
X44986936Y-83882624D01*
X44956602Y-83809392D01*
X44912564Y-83743485D01*
X44856515Y-83687436D01*
X44790608Y-83643398D01*
X44717376Y-83613064D01*
X44639633Y-83597600D01*
X44560367Y-83597600D01*
X44482624Y-83613064D01*
X44409392Y-83643398D01*
X44343485Y-83687436D01*
X44287436Y-83743485D01*
X44243398Y-83809392D01*
X44213064Y-83882624D01*
X44197600Y-83960367D01*
X31177400Y-83960367D01*
X31177400Y-83008673D01*
X31193900Y-82840392D01*
X31240256Y-82686854D01*
X31315548Y-82545250D01*
X31416910Y-82420968D01*
X31540484Y-82318739D01*
X31681561Y-82242459D01*
X31834762Y-82195035D01*
X32002544Y-82177400D01*
X50991327Y-82177400D01*
X51159608Y-82193900D01*
G04 #@! TA.AperFunction,Conductor*
D16*
G36*
X51159608Y-82193900D02*
G01*
X51313146Y-82240256D01*
X51454750Y-82315548D01*
X51579032Y-82416910D01*
X51681261Y-82540484D01*
X51757541Y-82681561D01*
X51804965Y-82834762D01*
X51822600Y-83002544D01*
X51822601Y-112991317D01*
X51806099Y-113159612D01*
X51759744Y-113313146D01*
X51684452Y-113454750D01*
X51583092Y-113579030D01*
X51459518Y-113681260D01*
X51318440Y-113757541D01*
X51165238Y-113804965D01*
X50997456Y-113822600D01*
X32008673Y-113822600D01*
X31840388Y-113806099D01*
X31686854Y-113759744D01*
X31545250Y-113684452D01*
X31420970Y-113583092D01*
X31318740Y-113459518D01*
X31242459Y-113318440D01*
X31195035Y-113165238D01*
X31177400Y-112997456D01*
X31177400Y-111441272D01*
X31747600Y-111441272D01*
X31747600Y-111638728D01*
X31786122Y-111832389D01*
X31861685Y-112014814D01*
X31971385Y-112178993D01*
X32111007Y-112318615D01*
X32275186Y-112428315D01*
X32457611Y-112503878D01*
X32651272Y-112542400D01*
X32848728Y-112542400D01*
X33042389Y-112503878D01*
X33224814Y-112428315D01*
X33388993Y-112318615D01*
X33528615Y-112178993D01*
X33638315Y-112014814D01*
X33713878Y-111832389D01*
X33752400Y-111638728D01*
X33752400Y-111441272D01*
X34287600Y-111441272D01*
X34287600Y-111638728D01*
X34326122Y-111832389D01*
X34401685Y-112014814D01*
X34511385Y-112178993D01*
X34651007Y-112318615D01*
X34815186Y-112428315D01*
X34997611Y-112503878D01*
X35191272Y-112542400D01*
X35388728Y-112542400D01*
X35582389Y-112503878D01*
X35764814Y-112428315D01*
X35928993Y-112318615D01*
X36068615Y-112178993D01*
X36178315Y-112014814D01*
X36253878Y-111832389D01*
X36292400Y-111638728D01*
X36292400Y-111441272D01*
X36827600Y-111441272D01*
X36827600Y-111638728D01*
X36866122Y-111832389D01*
X36941685Y-112014814D01*
X37051385Y-112178993D01*
X37191007Y-112318615D01*
X37355186Y-112428315D01*
X37537611Y-112503878D01*
X37731272Y-112542400D01*
X37928728Y-112542400D01*
X38122389Y-112503878D01*
X38304814Y-112428315D01*
X38468993Y-112318615D01*
X38608615Y-112178993D01*
X38718315Y-112014814D01*
X38793878Y-111832389D01*
X38832400Y-111638728D01*
X38832400Y-111441272D01*
X39367600Y-111441272D01*
X39367600Y-111638728D01*
X39406122Y-111832389D01*
X39481685Y-112014814D01*
X39591385Y-112178993D01*
X39731007Y-112318615D01*
X39895186Y-112428315D01*
X40077611Y-112503878D01*
X40271272Y-112542400D01*
X40468728Y-112542400D01*
X40662389Y-112503878D01*
X40844814Y-112428315D01*
X41008993Y-112318615D01*
X41148615Y-112178993D01*
X41258315Y-112014814D01*
X41333878Y-111832389D01*
X41372400Y-111638728D01*
X41372400Y-111441272D01*
X41907600Y-111441272D01*
X41907600Y-111638728D01*
X41946122Y-111832389D01*
X42021685Y-112014814D01*
X42131385Y-112178993D01*
X42271007Y-112318615D01*
X42435186Y-112428315D01*
X42617611Y-112503878D01*
X42811272Y-112542400D01*
X43008728Y-112542400D01*
X43202389Y-112503878D01*
X43384814Y-112428315D01*
X43548993Y-112318615D01*
X43688615Y-112178993D01*
X43798315Y-112014814D01*
X43873878Y-111832389D01*
X43912400Y-111638728D01*
X43912400Y-111441272D01*
X44447600Y-111441272D01*
X44447600Y-111638728D01*
X44486122Y-111832389D01*
X44561685Y-112014814D01*
X44671385Y-112178993D01*
X44811007Y-112318615D01*
X44975186Y-112428315D01*
X45157611Y-112503878D01*
X45351272Y-112542400D01*
X45548728Y-112542400D01*
X45742389Y-112503878D01*
X45924814Y-112428315D01*
X46088993Y-112318615D01*
X46228615Y-112178993D01*
X46338315Y-112014814D01*
X46413878Y-111832389D01*
X46425966Y-111771619D01*
X47014722Y-111771619D01*
X47078648Y-111957436D01*
X47177597Y-112127211D01*
X47307766Y-112274420D01*
X47464153Y-112393406D01*
X47640748Y-112479596D01*
X47758382Y-112515274D01*
X47913800Y-112501285D01*
X47913800Y-111616200D01*
X48066200Y-111616200D01*
X48066200Y-112501285D01*
X48221618Y-112515274D01*
X48339252Y-112479596D01*
X48515847Y-112393406D01*
X48672234Y-112274420D01*
X48802403Y-112127211D01*
X48901352Y-111957436D01*
X48965278Y-111771619D01*
X48951404Y-111616200D01*
X48066200Y-111616200D01*
X47913800Y-111616200D01*
X47028596Y-111616200D01*
X47014722Y-111771619D01*
X46425966Y-111771619D01*
X46452400Y-111638728D01*
X46452400Y-111441272D01*
X46425967Y-111308381D01*
X47014722Y-111308381D01*
X47028596Y-111463800D01*
X47913800Y-111463800D01*
X47913800Y-110578715D01*
X48066200Y-110578715D01*
X48066200Y-111463800D01*
X48951404Y-111463800D01*
X48953415Y-111441272D01*
X49527600Y-111441272D01*
X49527600Y-111638728D01*
X49566122Y-111832389D01*
X49641685Y-112014814D01*
X49751385Y-112178993D01*
X49891007Y-112318615D01*
X50055186Y-112428315D01*
X50237611Y-112503878D01*
X50431272Y-112542400D01*
X50628728Y-112542400D01*
X50822389Y-112503878D01*
X51004814Y-112428315D01*
X51168993Y-112318615D01*
X51308615Y-112178993D01*
X51418315Y-112014814D01*
X51493878Y-111832389D01*
X51532400Y-111638728D01*
X51532400Y-111441272D01*
X51493878Y-111247611D01*
X51418315Y-111065186D01*
X51308615Y-110901007D01*
X51168993Y-110761385D01*
X51004814Y-110651685D01*
X50822389Y-110576122D01*
X50628728Y-110537600D01*
X50431272Y-110537600D01*
X50237611Y-110576122D01*
X50055186Y-110651685D01*
X49891007Y-110761385D01*
X49751385Y-110901007D01*
X49641685Y-111065186D01*
X49566122Y-111247611D01*
X49527600Y-111441272D01*
X48953415Y-111441272D01*
X48965278Y-111308381D01*
X48901352Y-111122564D01*
X48802403Y-110952789D01*
X48672234Y-110805580D01*
X48515847Y-110686594D01*
X48339252Y-110600404D01*
X48221618Y-110564726D01*
X48066200Y-110578715D01*
X47913800Y-110578715D01*
X47758382Y-110564726D01*
X47640748Y-110600404D01*
X47464153Y-110686594D01*
X47307766Y-110805580D01*
X47177597Y-110952789D01*
X47078648Y-111122564D01*
X47014722Y-111308381D01*
X46425967Y-111308381D01*
X46413878Y-111247611D01*
X46338315Y-111065186D01*
X46228615Y-110901007D01*
X46088993Y-110761385D01*
X45924814Y-110651685D01*
X45742389Y-110576122D01*
X45548728Y-110537600D01*
X45351272Y-110537600D01*
X45157611Y-110576122D01*
X44975186Y-110651685D01*
X44811007Y-110761385D01*
X44671385Y-110901007D01*
X44561685Y-111065186D01*
X44486122Y-111247611D01*
X44447600Y-111441272D01*
X43912400Y-111441272D01*
X43873878Y-111247611D01*
X43798315Y-111065186D01*
X43688615Y-110901007D01*
X43548993Y-110761385D01*
X43384814Y-110651685D01*
X43202389Y-110576122D01*
X43008728Y-110537600D01*
X42811272Y-110537600D01*
X42617611Y-110576122D01*
X42435186Y-110651685D01*
X42271007Y-110761385D01*
X42131385Y-110901007D01*
X42021685Y-111065186D01*
X41946122Y-111247611D01*
X41907600Y-111441272D01*
X41372400Y-111441272D01*
X41333878Y-111247611D01*
X41258315Y-111065186D01*
X41148615Y-110901007D01*
X41008993Y-110761385D01*
X40844814Y-110651685D01*
X40662389Y-110576122D01*
X40468728Y-110537600D01*
X40271272Y-110537600D01*
X40077611Y-110576122D01*
X39895186Y-110651685D01*
X39731007Y-110761385D01*
X39591385Y-110901007D01*
X39481685Y-111065186D01*
X39406122Y-111247611D01*
X39367600Y-111441272D01*
X38832400Y-111441272D01*
X38793878Y-111247611D01*
X38718315Y-111065186D01*
X38608615Y-110901007D01*
X38468993Y-110761385D01*
X38304814Y-110651685D01*
X38122389Y-110576122D01*
X37928728Y-110537600D01*
X37731272Y-110537600D01*
X37537611Y-110576122D01*
X37355186Y-110651685D01*
X37191007Y-110761385D01*
X37051385Y-110901007D01*
X36941685Y-111065186D01*
X36866122Y-111247611D01*
X36827600Y-111441272D01*
X36292400Y-111441272D01*
X36253878Y-111247611D01*
X36178315Y-111065186D01*
X36068615Y-110901007D01*
X35928993Y-110761385D01*
X35764814Y-110651685D01*
X35582389Y-110576122D01*
X35388728Y-110537600D01*
X35191272Y-110537600D01*
X34997611Y-110576122D01*
X34815186Y-110651685D01*
X34651007Y-110761385D01*
X34511385Y-110901007D01*
X34401685Y-111065186D01*
X34326122Y-111247611D01*
X34287600Y-111441272D01*
X33752400Y-111441272D01*
X33713878Y-111247611D01*
X33638315Y-111065186D01*
X33528615Y-110901007D01*
X33388993Y-110761385D01*
X33224814Y-110651685D01*
X33042389Y-110576122D01*
X32848728Y-110537600D01*
X32651272Y-110537600D01*
X32457611Y-110576122D01*
X32275186Y-110651685D01*
X32111007Y-110761385D01*
X31971385Y-110901007D01*
X31861685Y-111065186D01*
X31786122Y-111247611D01*
X31747600Y-111441272D01*
X31177400Y-111441272D01*
X31177400Y-108150000D01*
X31746863Y-108150000D01*
X31746863Y-109850000D01*
X31749805Y-109879876D01*
X31758520Y-109908603D01*
X31772671Y-109935078D01*
X31791716Y-109958284D01*
X31814922Y-109977329D01*
X31841397Y-109991480D01*
X31870124Y-110000195D01*
X31900000Y-110003137D01*
X33600000Y-110003137D01*
X33629876Y-110000195D01*
X33658603Y-109991480D01*
X33685078Y-109977329D01*
X33708284Y-109958284D01*
X33727329Y-109935078D01*
X33741480Y-109908603D01*
X33750195Y-109879876D01*
X33753137Y-109850000D01*
X33753137Y-108901272D01*
X34287600Y-108901272D01*
X34287600Y-109098728D01*
X34326122Y-109292389D01*
X34401685Y-109474814D01*
X34511385Y-109638993D01*
X34651007Y-109778615D01*
X34815186Y-109888315D01*
X34997611Y-109963878D01*
X35191272Y-110002400D01*
X35388728Y-110002400D01*
X35582389Y-109963878D01*
X35764814Y-109888315D01*
X35928993Y-109778615D01*
X36068615Y-109638993D01*
X36178315Y-109474814D01*
X36253878Y-109292389D01*
X36292400Y-109098728D01*
X36292400Y-108901272D01*
X36827600Y-108901272D01*
X36827600Y-109098728D01*
X36866122Y-109292389D01*
X36941685Y-109474814D01*
X37051385Y-109638993D01*
X37191007Y-109778615D01*
X37355186Y-109888315D01*
X37537611Y-109963878D01*
X37731272Y-110002400D01*
X37928728Y-110002400D01*
X38122389Y-109963878D01*
X38304814Y-109888315D01*
X38468993Y-109778615D01*
X38608615Y-109638993D01*
X38718315Y-109474814D01*
X38793878Y-109292389D01*
X38832400Y-109098728D01*
X38832400Y-108901272D01*
X39367600Y-108901272D01*
X39367600Y-109098728D01*
X39406122Y-109292389D01*
X39481685Y-109474814D01*
X39591385Y-109638993D01*
X39731007Y-109778615D01*
X39895186Y-109888315D01*
X40077611Y-109963878D01*
X40271272Y-110002400D01*
X40468728Y-110002400D01*
X40662389Y-109963878D01*
X40844814Y-109888315D01*
X41008993Y-109778615D01*
X41148615Y-109638993D01*
X41258315Y-109474814D01*
X41333878Y-109292389D01*
X41372400Y-109098728D01*
X41372400Y-108901272D01*
X41907600Y-108901272D01*
X41907600Y-109098728D01*
X41946122Y-109292389D01*
X42021685Y-109474814D01*
X42131385Y-109638993D01*
X42271007Y-109778615D01*
X42435186Y-109888315D01*
X42617611Y-109963878D01*
X42811272Y-110002400D01*
X43008728Y-110002400D01*
X43202389Y-109963878D01*
X43384814Y-109888315D01*
X43548993Y-109778615D01*
X43688615Y-109638993D01*
X43798315Y-109474814D01*
X43873878Y-109292389D01*
X43912400Y-109098728D01*
X43912400Y-108901272D01*
X44447600Y-108901272D01*
X44447600Y-109098728D01*
X44486122Y-109292389D01*
X44561685Y-109474814D01*
X44671385Y-109638993D01*
X44811007Y-109778615D01*
X44975186Y-109888315D01*
X45157611Y-109963878D01*
X45351272Y-110002400D01*
X45548728Y-110002400D01*
X45742389Y-109963878D01*
X45924814Y-109888315D01*
X46088993Y-109778615D01*
X46228615Y-109638993D01*
X46338315Y-109474814D01*
X46413878Y-109292389D01*
X46425966Y-109231619D01*
X47014722Y-109231619D01*
X47078648Y-109417436D01*
X47177597Y-109587211D01*
X47307766Y-109734420D01*
X47464153Y-109853406D01*
X47640748Y-109939596D01*
X47758382Y-109975274D01*
X47913800Y-109961285D01*
X47913800Y-109076200D01*
X48066200Y-109076200D01*
X48066200Y-109961285D01*
X48221618Y-109975274D01*
X48339252Y-109939596D01*
X48515847Y-109853406D01*
X48672234Y-109734420D01*
X48802403Y-109587211D01*
X48901352Y-109417436D01*
X48965278Y-109231619D01*
X48951404Y-109076200D01*
X48066200Y-109076200D01*
X47913800Y-109076200D01*
X47028596Y-109076200D01*
X47014722Y-109231619D01*
X46425966Y-109231619D01*
X46452400Y-109098728D01*
X46452400Y-108901272D01*
X46425967Y-108768381D01*
X47014722Y-108768381D01*
X47028596Y-108923800D01*
X47913800Y-108923800D01*
X47913800Y-108038715D01*
X48066200Y-108038715D01*
X48066200Y-108923800D01*
X48951404Y-108923800D01*
X48953415Y-108901272D01*
X49527600Y-108901272D01*
X49527600Y-109098728D01*
X49566122Y-109292389D01*
X49641685Y-109474814D01*
X49751385Y-109638993D01*
X49891007Y-109778615D01*
X50055186Y-109888315D01*
X50237611Y-109963878D01*
X50431272Y-110002400D01*
X50628728Y-110002400D01*
X50822389Y-109963878D01*
X51004814Y-109888315D01*
X51168993Y-109778615D01*
X51308615Y-109638993D01*
X51418315Y-109474814D01*
X51493878Y-109292389D01*
X51532400Y-109098728D01*
X51532400Y-108901272D01*
X51493878Y-108707611D01*
X51418315Y-108525186D01*
X51308615Y-108361007D01*
X51168993Y-108221385D01*
X51004814Y-108111685D01*
X50822389Y-108036122D01*
X50628728Y-107997600D01*
X50431272Y-107997600D01*
X50237611Y-108036122D01*
X50055186Y-108111685D01*
X49891007Y-108221385D01*
X49751385Y-108361007D01*
X49641685Y-108525186D01*
X49566122Y-108707611D01*
X49527600Y-108901272D01*
X48953415Y-108901272D01*
X48965278Y-108768381D01*
X48901352Y-108582564D01*
X48802403Y-108412789D01*
X48672234Y-108265580D01*
X48515847Y-108146594D01*
X48339252Y-108060404D01*
X48221618Y-108024726D01*
X48066200Y-108038715D01*
X47913800Y-108038715D01*
X47758382Y-108024726D01*
X47640748Y-108060404D01*
X47464153Y-108146594D01*
X47307766Y-108265580D01*
X47177597Y-108412789D01*
X47078648Y-108582564D01*
X47014722Y-108768381D01*
X46425967Y-108768381D01*
X46413878Y-108707611D01*
X46338315Y-108525186D01*
X46228615Y-108361007D01*
X46088993Y-108221385D01*
X45924814Y-108111685D01*
X45742389Y-108036122D01*
X45548728Y-107997600D01*
X45351272Y-107997600D01*
X45157611Y-108036122D01*
X44975186Y-108111685D01*
X44811007Y-108221385D01*
X44671385Y-108361007D01*
X44561685Y-108525186D01*
X44486122Y-108707611D01*
X44447600Y-108901272D01*
X43912400Y-108901272D01*
X43873878Y-108707611D01*
X43798315Y-108525186D01*
X43688615Y-108361007D01*
X43548993Y-108221385D01*
X43384814Y-108111685D01*
X43202389Y-108036122D01*
X43008728Y-107997600D01*
X42811272Y-107997600D01*
X42617611Y-108036122D01*
X42435186Y-108111685D01*
X42271007Y-108221385D01*
X42131385Y-108361007D01*
X42021685Y-108525186D01*
X41946122Y-108707611D01*
X41907600Y-108901272D01*
X41372400Y-108901272D01*
X41333878Y-108707611D01*
X41258315Y-108525186D01*
X41148615Y-108361007D01*
X41008993Y-108221385D01*
X40844814Y-108111685D01*
X40662389Y-108036122D01*
X40468728Y-107997600D01*
X40271272Y-107997600D01*
X40077611Y-108036122D01*
X39895186Y-108111685D01*
X39731007Y-108221385D01*
X39591385Y-108361007D01*
X39481685Y-108525186D01*
X39406122Y-108707611D01*
X39367600Y-108901272D01*
X38832400Y-108901272D01*
X38793878Y-108707611D01*
X38718315Y-108525186D01*
X38608615Y-108361007D01*
X38468993Y-108221385D01*
X38304814Y-108111685D01*
X38122389Y-108036122D01*
X37928728Y-107997600D01*
X37731272Y-107997600D01*
X37537611Y-108036122D01*
X37355186Y-108111685D01*
X37191007Y-108221385D01*
X37051385Y-108361007D01*
X36941685Y-108525186D01*
X36866122Y-108707611D01*
X36827600Y-108901272D01*
X36292400Y-108901272D01*
X36253878Y-108707611D01*
X36178315Y-108525186D01*
X36068615Y-108361007D01*
X35928993Y-108221385D01*
X35764814Y-108111685D01*
X35582389Y-108036122D01*
X35388728Y-107997600D01*
X35191272Y-107997600D01*
X34997611Y-108036122D01*
X34815186Y-108111685D01*
X34651007Y-108221385D01*
X34511385Y-108361007D01*
X34401685Y-108525186D01*
X34326122Y-108707611D01*
X34287600Y-108901272D01*
X33753137Y-108901272D01*
X33753137Y-108150000D01*
X33750195Y-108120124D01*
X33741480Y-108091397D01*
X33727329Y-108064922D01*
X33708284Y-108041716D01*
X33685078Y-108022671D01*
X33658603Y-108008520D01*
X33629876Y-107999805D01*
X33600000Y-107996863D01*
X31900000Y-107996863D01*
X31870124Y-107999805D01*
X31841397Y-108008520D01*
X31814922Y-108022671D01*
X31791716Y-108041716D01*
X31772671Y-108064922D01*
X31758520Y-108091397D01*
X31749805Y-108120124D01*
X31746863Y-108150000D01*
X31177400Y-108150000D01*
X31177400Y-107224567D01*
X36173600Y-107224567D01*
X36173600Y-107303833D01*
X36189064Y-107381576D01*
X36219398Y-107454808D01*
X36263436Y-107520715D01*
X36319485Y-107576764D01*
X36385392Y-107620802D01*
X36458624Y-107651136D01*
X36536367Y-107666600D01*
X36615633Y-107666600D01*
X36693376Y-107651136D01*
X36766608Y-107620802D01*
X36832515Y-107576764D01*
X36888564Y-107520715D01*
X36932602Y-107454808D01*
X36962936Y-107381576D01*
X36978400Y-107303833D01*
X36978400Y-107224567D01*
X36962936Y-107146824D01*
X36932602Y-107073592D01*
X36923766Y-107060367D01*
X41797600Y-107060367D01*
X41797600Y-107139633D01*
X41813064Y-107217376D01*
X41843398Y-107290608D01*
X41887436Y-107356515D01*
X41943485Y-107412564D01*
X42009392Y-107456602D01*
X42082624Y-107486936D01*
X42160367Y-107502400D01*
X42239633Y-107502400D01*
X42317376Y-107486936D01*
X42390608Y-107456602D01*
X42456515Y-107412564D01*
X42512564Y-107356515D01*
X42556602Y-107290608D01*
X42586936Y-107217376D01*
X42602400Y-107139633D01*
X42602400Y-107060367D01*
X42586936Y-106982624D01*
X42556602Y-106909392D01*
X42512564Y-106843485D01*
X42456515Y-106787436D01*
X42390608Y-106743398D01*
X42317376Y-106713064D01*
X42239633Y-106697600D01*
X42160367Y-106697600D01*
X42082624Y-106713064D01*
X42009392Y-106743398D01*
X41943485Y-106787436D01*
X41887436Y-106843485D01*
X41843398Y-106909392D01*
X41813064Y-106982624D01*
X41797600Y-107060367D01*
X36923766Y-107060367D01*
X36888564Y-107007685D01*
X36832515Y-106951636D01*
X36766608Y-106907598D01*
X36693376Y-106877264D01*
X36615633Y-106861800D01*
X36536367Y-106861800D01*
X36458624Y-106877264D01*
X36385392Y-106907598D01*
X36319485Y-106951636D01*
X36263436Y-107007685D01*
X36219398Y-107073592D01*
X36189064Y-107146824D01*
X36173600Y-107224567D01*
X31177400Y-107224567D01*
X31177400Y-106360367D01*
X38197600Y-106360367D01*
X38197600Y-106439633D01*
X38213064Y-106517376D01*
X38243398Y-106590608D01*
X38287436Y-106656515D01*
X38343485Y-106712564D01*
X38409392Y-106756602D01*
X38482624Y-106786936D01*
X38560367Y-106802400D01*
X38639633Y-106802400D01*
X38717376Y-106786936D01*
X38790608Y-106756602D01*
X38856515Y-106712564D01*
X38912564Y-106656515D01*
X38956602Y-106590608D01*
X38986936Y-106517376D01*
X39002400Y-106439633D01*
X39002400Y-106360367D01*
X39097600Y-106360367D01*
X39097600Y-106439633D01*
X39113064Y-106517376D01*
X39143398Y-106590608D01*
X39187436Y-106656515D01*
X39243485Y-106712564D01*
X39309392Y-106756602D01*
X39382624Y-106786936D01*
X39460367Y-106802400D01*
X39539633Y-106802400D01*
X39617376Y-106786936D01*
X39690608Y-106756602D01*
X39756515Y-106712564D01*
X39812564Y-106656515D01*
X39856602Y-106590608D01*
X39886936Y-106517376D01*
X39902400Y-106439633D01*
X39902400Y-106360367D01*
X39886936Y-106282624D01*
X39877717Y-106260367D01*
X42797600Y-106260367D01*
X42797600Y-106339633D01*
X42813064Y-106417376D01*
X42843398Y-106490608D01*
X42887436Y-106556515D01*
X42943485Y-106612564D01*
X43009392Y-106656602D01*
X43082624Y-106686936D01*
X43160367Y-106702400D01*
X43239633Y-106702400D01*
X43317376Y-106686936D01*
X43390608Y-106656602D01*
X43456515Y-106612564D01*
X43512564Y-106556515D01*
X43556602Y-106490608D01*
X43586936Y-106417376D01*
X43602400Y-106339633D01*
X43602400Y-106260367D01*
X43586936Y-106182624D01*
X43556602Y-106109392D01*
X43512564Y-106043485D01*
X43456515Y-105987436D01*
X43390608Y-105943398D01*
X43317376Y-105913064D01*
X43239633Y-105897600D01*
X43160367Y-105897600D01*
X43082624Y-105913064D01*
X43009392Y-105943398D01*
X42943485Y-105987436D01*
X42887436Y-106043485D01*
X42843398Y-106109392D01*
X42813064Y-106182624D01*
X42797600Y-106260367D01*
X39877717Y-106260367D01*
X39856602Y-106209392D01*
X39812564Y-106143485D01*
X39756515Y-106087436D01*
X39690608Y-106043398D01*
X39617376Y-106013064D01*
X39539633Y-105997600D01*
X39460367Y-105997600D01*
X39382624Y-106013064D01*
X39309392Y-106043398D01*
X39243485Y-106087436D01*
X39187436Y-106143485D01*
X39143398Y-106209392D01*
X39113064Y-106282624D01*
X39097600Y-106360367D01*
X39002400Y-106360367D01*
X38986936Y-106282624D01*
X38956602Y-106209392D01*
X38912564Y-106143485D01*
X38856515Y-106087436D01*
X38790608Y-106043398D01*
X38717376Y-106013064D01*
X38639633Y-105997600D01*
X38560367Y-105997600D01*
X38482624Y-106013064D01*
X38409392Y-106043398D01*
X38343485Y-106087436D01*
X38287436Y-106143485D01*
X38243398Y-106209392D01*
X38213064Y-106282624D01*
X38197600Y-106360367D01*
X31177400Y-106360367D01*
X31177400Y-105156365D01*
X43793600Y-105156365D01*
X43793600Y-105235631D01*
X43809064Y-105313374D01*
X43839398Y-105386606D01*
X43883436Y-105452513D01*
X43939485Y-105508562D01*
X44005392Y-105552600D01*
X44078624Y-105582934D01*
X44156367Y-105598398D01*
X44235633Y-105598398D01*
X44313376Y-105582934D01*
X44386608Y-105552600D01*
X44452515Y-105508562D01*
X44508564Y-105452513D01*
X44552602Y-105386606D01*
X44582936Y-105313374D01*
X44598400Y-105235631D01*
X44598400Y-105156365D01*
X44582936Y-105078622D01*
X44552602Y-105005390D01*
X44508564Y-104939483D01*
X44452515Y-104883434D01*
X44386608Y-104839396D01*
X44313376Y-104809062D01*
X44235633Y-104793598D01*
X44156367Y-104793598D01*
X44078624Y-104809062D01*
X44005392Y-104839396D01*
X43939485Y-104883434D01*
X43883436Y-104939483D01*
X43839398Y-105005390D01*
X43809064Y-105078622D01*
X43793600Y-105156365D01*
X31177400Y-105156365D01*
X31177400Y-104460367D01*
X34897600Y-104460367D01*
X34897600Y-104539633D01*
X34913064Y-104617376D01*
X34943398Y-104690608D01*
X34987436Y-104756515D01*
X35043485Y-104812564D01*
X35109392Y-104856602D01*
X35182624Y-104886936D01*
X35260367Y-104902400D01*
X35339633Y-104902400D01*
X35417376Y-104886936D01*
X35490608Y-104856602D01*
X35556515Y-104812564D01*
X35612564Y-104756515D01*
X35656602Y-104690608D01*
X35686936Y-104617376D01*
X35702400Y-104539633D01*
X35702400Y-104460367D01*
X35686936Y-104382624D01*
X35656602Y-104309392D01*
X35612564Y-104243485D01*
X35556515Y-104187436D01*
X35516004Y-104160367D01*
X37997600Y-104160367D01*
X37997600Y-104239633D01*
X38013064Y-104317376D01*
X38043398Y-104390608D01*
X38087436Y-104456515D01*
X38143485Y-104512564D01*
X38209392Y-104556602D01*
X38282624Y-104586936D01*
X38360367Y-104602400D01*
X38439633Y-104602400D01*
X38517376Y-104586936D01*
X38590608Y-104556602D01*
X38656515Y-104512564D01*
X38712564Y-104456515D01*
X38756602Y-104390608D01*
X38786936Y-104317376D01*
X38802400Y-104239633D01*
X38802400Y-104160367D01*
X38786936Y-104082624D01*
X38756602Y-104009392D01*
X38712564Y-103943485D01*
X38656515Y-103887436D01*
X38590608Y-103843398D01*
X38517376Y-103813064D01*
X38439633Y-103797600D01*
X38360367Y-103797600D01*
X38282624Y-103813064D01*
X38209392Y-103843398D01*
X38143485Y-103887436D01*
X38087436Y-103943485D01*
X38043398Y-104009392D01*
X38013064Y-104082624D01*
X37997600Y-104160367D01*
X35516004Y-104160367D01*
X35490608Y-104143398D01*
X35417376Y-104113064D01*
X35339633Y-104097600D01*
X35260367Y-104097600D01*
X35182624Y-104113064D01*
X35109392Y-104143398D01*
X35043485Y-104187436D01*
X34987436Y-104243485D01*
X34943398Y-104309392D01*
X34913064Y-104382624D01*
X34897600Y-104460367D01*
X31177400Y-104460367D01*
X31177400Y-103760367D01*
X42597600Y-103760367D01*
X42597600Y-103839633D01*
X42613064Y-103917376D01*
X42643398Y-103990608D01*
X42687436Y-104056515D01*
X42743485Y-104112564D01*
X42809392Y-104156602D01*
X42882624Y-104186936D01*
X42960367Y-104202400D01*
X43039633Y-104202400D01*
X43117376Y-104186936D01*
X43190608Y-104156602D01*
X43256515Y-104112564D01*
X43312564Y-104056515D01*
X43356602Y-103990608D01*
X43386936Y-103917376D01*
X43402400Y-103839633D01*
X43402400Y-103760367D01*
X43386936Y-103682624D01*
X43356602Y-103609392D01*
X43312564Y-103543485D01*
X43256515Y-103487436D01*
X43190608Y-103443398D01*
X43117376Y-103413064D01*
X43039633Y-103397600D01*
X42960367Y-103397600D01*
X42882624Y-103413064D01*
X42809392Y-103443398D01*
X42743485Y-103487436D01*
X42687436Y-103543485D01*
X42643398Y-103609392D01*
X42613064Y-103682624D01*
X42597600Y-103760367D01*
X31177400Y-103760367D01*
X31177400Y-102460367D01*
X34597600Y-102460367D01*
X34597600Y-102539633D01*
X34613064Y-102617376D01*
X34643398Y-102690608D01*
X34687436Y-102756515D01*
X34743485Y-102812564D01*
X34809392Y-102856602D01*
X34882624Y-102886936D01*
X34960367Y-102902400D01*
X35039633Y-102902400D01*
X35117376Y-102886936D01*
X35190608Y-102856602D01*
X35256515Y-102812564D01*
X35312564Y-102756515D01*
X35356602Y-102690608D01*
X35386936Y-102617376D01*
X35398275Y-102560367D01*
X36497600Y-102560367D01*
X36497600Y-102639633D01*
X36513064Y-102717376D01*
X36543398Y-102790608D01*
X36587436Y-102856515D01*
X36643485Y-102912564D01*
X36709392Y-102956602D01*
X36782624Y-102986936D01*
X36860367Y-103002400D01*
X36939633Y-103002400D01*
X37017376Y-102986936D01*
X37090608Y-102956602D01*
X37156515Y-102912564D01*
X37200002Y-102869077D01*
X37243489Y-102912564D01*
X37309396Y-102956602D01*
X37382628Y-102986936D01*
X37460371Y-103002400D01*
X37539637Y-103002400D01*
X37617380Y-102986936D01*
X37681522Y-102960367D01*
X41797600Y-102960367D01*
X41797600Y-103039633D01*
X41813064Y-103117376D01*
X41843398Y-103190608D01*
X41887436Y-103256515D01*
X41943485Y-103312564D01*
X42009392Y-103356602D01*
X42082624Y-103386936D01*
X42160367Y-103402400D01*
X42239633Y-103402400D01*
X42317376Y-103386936D01*
X42390608Y-103356602D01*
X42456515Y-103312564D01*
X42512564Y-103256515D01*
X42556602Y-103190608D01*
X42586936Y-103117376D01*
X42602400Y-103039633D01*
X42602400Y-102960367D01*
X42586936Y-102882624D01*
X42556602Y-102809392D01*
X42512564Y-102743485D01*
X42456515Y-102687436D01*
X42390608Y-102643398D01*
X42317376Y-102613064D01*
X42239633Y-102597600D01*
X42160367Y-102597600D01*
X42082624Y-102613064D01*
X42009392Y-102643398D01*
X41943485Y-102687436D01*
X41887436Y-102743485D01*
X41843398Y-102809392D01*
X41813064Y-102882624D01*
X41797600Y-102960367D01*
X37681522Y-102960367D01*
X37690612Y-102956602D01*
X37756519Y-102912564D01*
X37812568Y-102856515D01*
X37856606Y-102790608D01*
X37886940Y-102717376D01*
X37902404Y-102639633D01*
X37902404Y-102560367D01*
X37886940Y-102482624D01*
X37856606Y-102409392D01*
X37812568Y-102343485D01*
X37809463Y-102340380D01*
X42397600Y-102340380D01*
X42397600Y-102419646D01*
X42413064Y-102497389D01*
X42443398Y-102570621D01*
X42487436Y-102636528D01*
X42543485Y-102692577D01*
X42609392Y-102736615D01*
X42682624Y-102766949D01*
X42760367Y-102782413D01*
X42839633Y-102782413D01*
X42917376Y-102766949D01*
X42990608Y-102736615D01*
X43056515Y-102692577D01*
X43112564Y-102636528D01*
X43156602Y-102570621D01*
X43186936Y-102497389D01*
X43202400Y-102419646D01*
X43202400Y-102340380D01*
X43186936Y-102262637D01*
X43156602Y-102189405D01*
X43112564Y-102123498D01*
X43056515Y-102067449D01*
X42990608Y-102023411D01*
X42917376Y-101993077D01*
X42839633Y-101977613D01*
X42760367Y-101977613D01*
X42682624Y-101993077D01*
X42609392Y-102023411D01*
X42543485Y-102067449D01*
X42487436Y-102123498D01*
X42443398Y-102189405D01*
X42413064Y-102262637D01*
X42397600Y-102340380D01*
X37809463Y-102340380D01*
X37756519Y-102287436D01*
X37690612Y-102243398D01*
X37617380Y-102213064D01*
X37539637Y-102197600D01*
X37460371Y-102197600D01*
X37382628Y-102213064D01*
X37309396Y-102243398D01*
X37243489Y-102287436D01*
X37200002Y-102330923D01*
X37156515Y-102287436D01*
X37090608Y-102243398D01*
X37017376Y-102213064D01*
X36939633Y-102197600D01*
X36860367Y-102197600D01*
X36782624Y-102213064D01*
X36709392Y-102243398D01*
X36643485Y-102287436D01*
X36587436Y-102343485D01*
X36543398Y-102409392D01*
X36513064Y-102482624D01*
X36497600Y-102560367D01*
X35398275Y-102560367D01*
X35402400Y-102539633D01*
X35402400Y-102460367D01*
X35386936Y-102382624D01*
X35356602Y-102309392D01*
X35312564Y-102243485D01*
X35256515Y-102187436D01*
X35190608Y-102143398D01*
X35117376Y-102113064D01*
X35039633Y-102097600D01*
X34960367Y-102097600D01*
X34882624Y-102113064D01*
X34809392Y-102143398D01*
X34743485Y-102187436D01*
X34687436Y-102243485D01*
X34643398Y-102309392D01*
X34613064Y-102382624D01*
X34597600Y-102460367D01*
X31177400Y-102460367D01*
X31177400Y-101562829D01*
X45822600Y-101562829D01*
X45822600Y-101637171D01*
X45837103Y-101710083D01*
X45865553Y-101778766D01*
X45906854Y-101840578D01*
X45959422Y-101893146D01*
X46021234Y-101934447D01*
X46089917Y-101962897D01*
X46162829Y-101977400D01*
X46237171Y-101977400D01*
X46310083Y-101962897D01*
X46378766Y-101934447D01*
X46440578Y-101893146D01*
X46493146Y-101840578D01*
X46534447Y-101778766D01*
X46562897Y-101710083D01*
X46577400Y-101637171D01*
X46577400Y-101562829D01*
X46562897Y-101489917D01*
X46534447Y-101421234D01*
X46493146Y-101359422D01*
X46440578Y-101306854D01*
X46378766Y-101265553D01*
X46310083Y-101237103D01*
X46237171Y-101222600D01*
X46162829Y-101222600D01*
X46089917Y-101237103D01*
X46021234Y-101265553D01*
X45959422Y-101306854D01*
X45906854Y-101359422D01*
X45865553Y-101421234D01*
X45837103Y-101489917D01*
X45822600Y-101562829D01*
X31177400Y-101562829D01*
X31177400Y-101062829D01*
X40722600Y-101062829D01*
X40722600Y-101137171D01*
X40737103Y-101210083D01*
X40765553Y-101278766D01*
X40806854Y-101340578D01*
X40859422Y-101393146D01*
X40921234Y-101434447D01*
X40989917Y-101462897D01*
X41062829Y-101477400D01*
X41137171Y-101477400D01*
X41210083Y-101462897D01*
X41278766Y-101434447D01*
X41340578Y-101393146D01*
X41393146Y-101340578D01*
X41434447Y-101278766D01*
X41462897Y-101210083D01*
X41477400Y-101137171D01*
X41477400Y-101062829D01*
X41462897Y-100989917D01*
X41434447Y-100921234D01*
X41393146Y-100859422D01*
X41340578Y-100806854D01*
X41278766Y-100765553D01*
X41210083Y-100737103D01*
X41137171Y-100722600D01*
X41062829Y-100722600D01*
X40989917Y-100737103D01*
X40921234Y-100765553D01*
X40859422Y-100806854D01*
X40806854Y-100859422D01*
X40765553Y-100921234D01*
X40737103Y-100989917D01*
X40722600Y-101062829D01*
X31177400Y-101062829D01*
X31177400Y-100460367D01*
X34597600Y-100460367D01*
X34597600Y-100539633D01*
X34613064Y-100617376D01*
X34643398Y-100690608D01*
X34687436Y-100756515D01*
X34743485Y-100812564D01*
X34809392Y-100856602D01*
X34882624Y-100886936D01*
X34960367Y-100902400D01*
X35039633Y-100902400D01*
X35117376Y-100886936D01*
X35190608Y-100856602D01*
X35256515Y-100812564D01*
X35312564Y-100756515D01*
X35356602Y-100690608D01*
X35386936Y-100617376D01*
X35402400Y-100539633D01*
X35402400Y-100460367D01*
X35386936Y-100382624D01*
X35356602Y-100309392D01*
X35312564Y-100243485D01*
X35256515Y-100187436D01*
X35190608Y-100143398D01*
X35117376Y-100113064D01*
X35039633Y-100097600D01*
X34960367Y-100097600D01*
X34882624Y-100113064D01*
X34809392Y-100143398D01*
X34743485Y-100187436D01*
X34687436Y-100243485D01*
X34643398Y-100309392D01*
X34613064Y-100382624D01*
X34597600Y-100460367D01*
X31177400Y-100460367D01*
X31177400Y-99060367D01*
X35997598Y-99060367D01*
X35997598Y-99139633D01*
X36013062Y-99217376D01*
X36043396Y-99290608D01*
X36087434Y-99356515D01*
X36143483Y-99412564D01*
X36209390Y-99456602D01*
X36282622Y-99486936D01*
X36348300Y-99500000D01*
X36282624Y-99513064D01*
X36209392Y-99543398D01*
X36143485Y-99587436D01*
X36087436Y-99643485D01*
X36043398Y-99709392D01*
X36013064Y-99782624D01*
X35997600Y-99860367D01*
X35997600Y-99939633D01*
X36013064Y-100017376D01*
X36043398Y-100090608D01*
X36087436Y-100156515D01*
X36143485Y-100212564D01*
X36209392Y-100256602D01*
X36282624Y-100286936D01*
X36360367Y-100302400D01*
X36439633Y-100302400D01*
X36517376Y-100286936D01*
X36575574Y-100262829D01*
X40722600Y-100262829D01*
X40722600Y-100337171D01*
X40737103Y-100410083D01*
X40765553Y-100478766D01*
X40806854Y-100540578D01*
X40859422Y-100593146D01*
X40921234Y-100634447D01*
X40989917Y-100662897D01*
X41062829Y-100677400D01*
X41137171Y-100677400D01*
X41210083Y-100662897D01*
X41278766Y-100634447D01*
X41340578Y-100593146D01*
X41393146Y-100540578D01*
X41434447Y-100478766D01*
X41462897Y-100410083D01*
X41477400Y-100337171D01*
X41477400Y-100262829D01*
X41462897Y-100189917D01*
X41434447Y-100121234D01*
X41393146Y-100059422D01*
X41340578Y-100006854D01*
X41278766Y-99965553D01*
X41210083Y-99937103D01*
X41137171Y-99922600D01*
X41062829Y-99922600D01*
X40989917Y-99937103D01*
X40921234Y-99965553D01*
X40859422Y-100006854D01*
X40806854Y-100059422D01*
X40765553Y-100121234D01*
X40737103Y-100189917D01*
X40722600Y-100262829D01*
X36575574Y-100262829D01*
X36590608Y-100256602D01*
X36656515Y-100212564D01*
X36712564Y-100156515D01*
X36756602Y-100090608D01*
X36786936Y-100017376D01*
X36802400Y-99939633D01*
X36802400Y-99860367D01*
X36786936Y-99782624D01*
X36756602Y-99709392D01*
X36712564Y-99643485D01*
X36656515Y-99587436D01*
X36590608Y-99543398D01*
X36517376Y-99513064D01*
X36451698Y-99500000D01*
X36517374Y-99486936D01*
X36575572Y-99462829D01*
X39122600Y-99462829D01*
X39122600Y-99537171D01*
X39137103Y-99610083D01*
X39165553Y-99678766D01*
X39206854Y-99740578D01*
X39259422Y-99793146D01*
X39321234Y-99834447D01*
X39389917Y-99862897D01*
X39462829Y-99877400D01*
X39537171Y-99877400D01*
X39610083Y-99862897D01*
X39678766Y-99834447D01*
X39740578Y-99793146D01*
X39793146Y-99740578D01*
X39834447Y-99678766D01*
X39862897Y-99610083D01*
X39877400Y-99537171D01*
X39877400Y-99462829D01*
X43122600Y-99462829D01*
X43122600Y-99537171D01*
X43137103Y-99610083D01*
X43165553Y-99678766D01*
X43206854Y-99740578D01*
X43259422Y-99793146D01*
X43321234Y-99834447D01*
X43389917Y-99862897D01*
X43462829Y-99877400D01*
X43537171Y-99877400D01*
X43610083Y-99862897D01*
X43678766Y-99834447D01*
X43740578Y-99793146D01*
X43793146Y-99740578D01*
X43834447Y-99678766D01*
X43862897Y-99610083D01*
X43877400Y-99537171D01*
X43877400Y-99462829D01*
X43862897Y-99389917D01*
X43834447Y-99321234D01*
X43793146Y-99259422D01*
X43740578Y-99206854D01*
X43678766Y-99165553D01*
X43610083Y-99137103D01*
X43537171Y-99122600D01*
X43462829Y-99122600D01*
X43389917Y-99137103D01*
X43321234Y-99165553D01*
X43259422Y-99206854D01*
X43206854Y-99259422D01*
X43165553Y-99321234D01*
X43137103Y-99389917D01*
X43122600Y-99462829D01*
X39877400Y-99462829D01*
X39862897Y-99389917D01*
X39834447Y-99321234D01*
X39793146Y-99259422D01*
X39740578Y-99206854D01*
X39678766Y-99165553D01*
X39610083Y-99137103D01*
X39537171Y-99122600D01*
X39462829Y-99122600D01*
X39389917Y-99137103D01*
X39321234Y-99165553D01*
X39259422Y-99206854D01*
X39206854Y-99259422D01*
X39165553Y-99321234D01*
X39137103Y-99389917D01*
X39122600Y-99462829D01*
X36575572Y-99462829D01*
X36590606Y-99456602D01*
X36656513Y-99412564D01*
X36712562Y-99356515D01*
X36756600Y-99290608D01*
X36786934Y-99217376D01*
X36802398Y-99139633D01*
X36802398Y-99060367D01*
X36786934Y-98982624D01*
X36756600Y-98909392D01*
X36712562Y-98843485D01*
X36656513Y-98787436D01*
X36590606Y-98743398D01*
X36517374Y-98713064D01*
X36439631Y-98697600D01*
X36360365Y-98697600D01*
X36282622Y-98713064D01*
X36209390Y-98743398D01*
X36143483Y-98787436D01*
X36087434Y-98843485D01*
X36043396Y-98909392D01*
X36013062Y-98982624D01*
X35997598Y-99060367D01*
X31177400Y-99060367D01*
X31177400Y-98662829D01*
X39122600Y-98662829D01*
X39122600Y-98737171D01*
X39137103Y-98810083D01*
X39165553Y-98878766D01*
X39206854Y-98940578D01*
X39259422Y-98993146D01*
X39321234Y-99034447D01*
X39389917Y-99062897D01*
X39462829Y-99077400D01*
X39537171Y-99077400D01*
X39610083Y-99062897D01*
X39678766Y-99034447D01*
X39740578Y-98993146D01*
X39793146Y-98940578D01*
X39834447Y-98878766D01*
X39862897Y-98810083D01*
X39877400Y-98737171D01*
X39877400Y-98662829D01*
X41522600Y-98662829D01*
X41522600Y-98737171D01*
X41537103Y-98810083D01*
X41565553Y-98878766D01*
X41606854Y-98940578D01*
X41659422Y-98993146D01*
X41721234Y-99034447D01*
X41789917Y-99062897D01*
X41862829Y-99077400D01*
X41937171Y-99077400D01*
X42010083Y-99062897D01*
X42078766Y-99034447D01*
X42140578Y-98993146D01*
X42193146Y-98940578D01*
X42234447Y-98878766D01*
X42262897Y-98810083D01*
X42277400Y-98737171D01*
X42277400Y-98662829D01*
X42262897Y-98589917D01*
X42234447Y-98521234D01*
X42193146Y-98459422D01*
X42140578Y-98406854D01*
X42078766Y-98365553D01*
X42030580Y-98345593D01*
X46947600Y-98345593D01*
X46947600Y-98454407D01*
X46968828Y-98561129D01*
X47010469Y-98661660D01*
X47070923Y-98752135D01*
X47147865Y-98829077D01*
X47238340Y-98889531D01*
X47338871Y-98931172D01*
X47445593Y-98952400D01*
X47554407Y-98952400D01*
X47661129Y-98931172D01*
X47761660Y-98889531D01*
X47852135Y-98829077D01*
X47929077Y-98752135D01*
X47989531Y-98661660D01*
X48031172Y-98561129D01*
X48052400Y-98454407D01*
X48052400Y-98345593D01*
X48031172Y-98238871D01*
X47989531Y-98138340D01*
X47929077Y-98047865D01*
X47852135Y-97970923D01*
X47761660Y-97910469D01*
X47661129Y-97868828D01*
X47554407Y-97847600D01*
X47445593Y-97847600D01*
X47338871Y-97868828D01*
X47238340Y-97910469D01*
X47147865Y-97970923D01*
X47070923Y-98047865D01*
X47010469Y-98138340D01*
X46968828Y-98238871D01*
X46947600Y-98345593D01*
X42030580Y-98345593D01*
X42010083Y-98337103D01*
X41937171Y-98322600D01*
X41862829Y-98322600D01*
X41789917Y-98337103D01*
X41721234Y-98365553D01*
X41659422Y-98406854D01*
X41606854Y-98459422D01*
X41565553Y-98521234D01*
X41537103Y-98589917D01*
X41522600Y-98662829D01*
X39877400Y-98662829D01*
X39862897Y-98589917D01*
X39834447Y-98521234D01*
X39793146Y-98459422D01*
X39740578Y-98406854D01*
X39678766Y-98365553D01*
X39610083Y-98337103D01*
X39537171Y-98322600D01*
X39462829Y-98322600D01*
X39389917Y-98337103D01*
X39321234Y-98365553D01*
X39259422Y-98406854D01*
X39206854Y-98459422D01*
X39165553Y-98521234D01*
X39137103Y-98589917D01*
X39122600Y-98662829D01*
X31177400Y-98662829D01*
X31177400Y-97062829D01*
X39122600Y-97062829D01*
X39122600Y-97137171D01*
X39137103Y-97210083D01*
X39165553Y-97278766D01*
X39206854Y-97340578D01*
X39259422Y-97393146D01*
X39321234Y-97434447D01*
X39389917Y-97462897D01*
X39462829Y-97477400D01*
X39537171Y-97477400D01*
X39610083Y-97462897D01*
X39678766Y-97434447D01*
X39740578Y-97393146D01*
X39793146Y-97340578D01*
X39834447Y-97278766D01*
X39862897Y-97210083D01*
X39877400Y-97137171D01*
X39877400Y-97062829D01*
X43122600Y-97062829D01*
X43122600Y-97137171D01*
X43137103Y-97210083D01*
X43165553Y-97278766D01*
X43206854Y-97340578D01*
X43259422Y-97393146D01*
X43321234Y-97434447D01*
X43389917Y-97462897D01*
X43462829Y-97477400D01*
X43537171Y-97477400D01*
X43610083Y-97462897D01*
X43678766Y-97434447D01*
X43740578Y-97393146D01*
X43793146Y-97340578D01*
X43834447Y-97278766D01*
X43862897Y-97210083D01*
X43877400Y-97137171D01*
X43877400Y-97062829D01*
X43862897Y-96989917D01*
X43834447Y-96921234D01*
X43793146Y-96859422D01*
X43740578Y-96806854D01*
X43678766Y-96765553D01*
X43610083Y-96737103D01*
X43537171Y-96722600D01*
X43462829Y-96722600D01*
X43389917Y-96737103D01*
X43321234Y-96765553D01*
X43259422Y-96806854D01*
X43206854Y-96859422D01*
X43165553Y-96921234D01*
X43137103Y-96989917D01*
X43122600Y-97062829D01*
X39877400Y-97062829D01*
X39862897Y-96989917D01*
X39834447Y-96921234D01*
X39793146Y-96859422D01*
X39740578Y-96806854D01*
X39678766Y-96765553D01*
X39610083Y-96737103D01*
X39537171Y-96722600D01*
X39462829Y-96722600D01*
X39389917Y-96737103D01*
X39321234Y-96765553D01*
X39259422Y-96806854D01*
X39206854Y-96859422D01*
X39165553Y-96921234D01*
X39137103Y-96989917D01*
X39122600Y-97062829D01*
X31177400Y-97062829D01*
X31177400Y-96262829D01*
X39122600Y-96262829D01*
X39122600Y-96337171D01*
X39137103Y-96410083D01*
X39165553Y-96478766D01*
X39206854Y-96540578D01*
X39259422Y-96593146D01*
X39321234Y-96634447D01*
X39389917Y-96662897D01*
X39462829Y-96677400D01*
X39537171Y-96677400D01*
X39610083Y-96662897D01*
X39678766Y-96634447D01*
X39740578Y-96593146D01*
X39793146Y-96540578D01*
X39834447Y-96478766D01*
X39862897Y-96410083D01*
X39877400Y-96337171D01*
X39877400Y-96262829D01*
X43122600Y-96262829D01*
X43122600Y-96337171D01*
X43137103Y-96410083D01*
X43165553Y-96478766D01*
X43206854Y-96540578D01*
X43259422Y-96593146D01*
X43321234Y-96634447D01*
X43389917Y-96662897D01*
X43462829Y-96677400D01*
X43537171Y-96677400D01*
X43610083Y-96662897D01*
X43678766Y-96634447D01*
X43740578Y-96593146D01*
X43793146Y-96540578D01*
X43834447Y-96478766D01*
X43862897Y-96410083D01*
X43877400Y-96337171D01*
X43877400Y-96262829D01*
X43862897Y-96189917D01*
X43834447Y-96121234D01*
X43793146Y-96059422D01*
X43740578Y-96006854D01*
X43678766Y-95965553D01*
X43610083Y-95937103D01*
X43537171Y-95922600D01*
X43462829Y-95922600D01*
X43389917Y-95937103D01*
X43321234Y-95965553D01*
X43259422Y-96006854D01*
X43206854Y-96059422D01*
X43165553Y-96121234D01*
X43137103Y-96189917D01*
X43122600Y-96262829D01*
X39877400Y-96262829D01*
X39862897Y-96189917D01*
X39834447Y-96121234D01*
X39793146Y-96059422D01*
X39740578Y-96006854D01*
X39678766Y-95965553D01*
X39610083Y-95937103D01*
X39537171Y-95922600D01*
X39462829Y-95922600D01*
X39389917Y-95937103D01*
X39321234Y-95965553D01*
X39259422Y-96006854D01*
X39206854Y-96059422D01*
X39165553Y-96121234D01*
X39137103Y-96189917D01*
X39122600Y-96262829D01*
X31177400Y-96262829D01*
X31177400Y-95462829D01*
X41522600Y-95462829D01*
X41522600Y-95537171D01*
X41537103Y-95610083D01*
X41565553Y-95678766D01*
X41606854Y-95740578D01*
X41659422Y-95793146D01*
X41721234Y-95834447D01*
X41789917Y-95862897D01*
X41862829Y-95877400D01*
X41937171Y-95877400D01*
X42010083Y-95862897D01*
X42078766Y-95834447D01*
X42140578Y-95793146D01*
X42193146Y-95740578D01*
X42234447Y-95678766D01*
X42262897Y-95610083D01*
X42277400Y-95537171D01*
X42277400Y-95462829D01*
X42262897Y-95389917D01*
X42234447Y-95321234D01*
X42193146Y-95259422D01*
X42140578Y-95206854D01*
X42078766Y-95165553D01*
X42010083Y-95137103D01*
X41937171Y-95122600D01*
X41862829Y-95122600D01*
X41789917Y-95137103D01*
X41721234Y-95165553D01*
X41659422Y-95206854D01*
X41606854Y-95259422D01*
X41565553Y-95321234D01*
X41537103Y-95389917D01*
X41522600Y-95462829D01*
X31177400Y-95462829D01*
X31177400Y-94662829D01*
X39922600Y-94662829D01*
X39922600Y-94737171D01*
X39937103Y-94810083D01*
X39965553Y-94878766D01*
X40006854Y-94940578D01*
X40059422Y-94993146D01*
X40121234Y-95034447D01*
X40189917Y-95062897D01*
X40262829Y-95077400D01*
X40337171Y-95077400D01*
X40410083Y-95062897D01*
X40478766Y-95034447D01*
X40540578Y-94993146D01*
X40593146Y-94940578D01*
X40634447Y-94878766D01*
X40662897Y-94810083D01*
X40677400Y-94737171D01*
X40677400Y-94662829D01*
X40722600Y-94662829D01*
X40722600Y-94737171D01*
X40737103Y-94810083D01*
X40765553Y-94878766D01*
X40806854Y-94940578D01*
X40859422Y-94993146D01*
X40921234Y-95034447D01*
X40989917Y-95062897D01*
X41062829Y-95077400D01*
X41137171Y-95077400D01*
X41210083Y-95062897D01*
X41278766Y-95034447D01*
X41340578Y-94993146D01*
X41393146Y-94940578D01*
X41434447Y-94878766D01*
X41462897Y-94810083D01*
X41477400Y-94737171D01*
X41477400Y-94662829D01*
X43922600Y-94662829D01*
X43922600Y-94737171D01*
X43937103Y-94810083D01*
X43965553Y-94878766D01*
X44006854Y-94940578D01*
X44059422Y-94993146D01*
X44121234Y-95034447D01*
X44189917Y-95062897D01*
X44262829Y-95077400D01*
X44337171Y-95077400D01*
X44410083Y-95062897D01*
X44478766Y-95034447D01*
X44540578Y-94993146D01*
X44593146Y-94940578D01*
X44634447Y-94878766D01*
X44641048Y-94862829D01*
X45622600Y-94862829D01*
X45622600Y-94937171D01*
X45637103Y-95010083D01*
X45665553Y-95078766D01*
X45706854Y-95140578D01*
X45759422Y-95193146D01*
X45821234Y-95234447D01*
X45889917Y-95262897D01*
X45962829Y-95277400D01*
X46037171Y-95277400D01*
X46110083Y-95262897D01*
X46178766Y-95234447D01*
X46240578Y-95193146D01*
X46293146Y-95140578D01*
X46334447Y-95078766D01*
X46362897Y-95010083D01*
X46377400Y-94937171D01*
X46377400Y-94862829D01*
X46362897Y-94789917D01*
X46334447Y-94721234D01*
X46293146Y-94659422D01*
X46240578Y-94606854D01*
X46178766Y-94565553D01*
X46110083Y-94537103D01*
X46037171Y-94522600D01*
X45962829Y-94522600D01*
X45889917Y-94537103D01*
X45821234Y-94565553D01*
X45759422Y-94606854D01*
X45706854Y-94659422D01*
X45665553Y-94721234D01*
X45637103Y-94789917D01*
X45622600Y-94862829D01*
X44641048Y-94862829D01*
X44662897Y-94810083D01*
X44677400Y-94737171D01*
X44677400Y-94662829D01*
X44662897Y-94589917D01*
X44634447Y-94521234D01*
X44593146Y-94459422D01*
X44540578Y-94406854D01*
X44478766Y-94365553D01*
X44410083Y-94337103D01*
X44337171Y-94322600D01*
X44262829Y-94322600D01*
X44189917Y-94337103D01*
X44121234Y-94365553D01*
X44059422Y-94406854D01*
X44006854Y-94459422D01*
X43965553Y-94521234D01*
X43937103Y-94589917D01*
X43922600Y-94662829D01*
X41477400Y-94662829D01*
X41462897Y-94589917D01*
X41434447Y-94521234D01*
X41393146Y-94459422D01*
X41340578Y-94406854D01*
X41278766Y-94365553D01*
X41210083Y-94337103D01*
X41137171Y-94322600D01*
X41062829Y-94322600D01*
X40989917Y-94337103D01*
X40921234Y-94365553D01*
X40859422Y-94406854D01*
X40806854Y-94459422D01*
X40765553Y-94521234D01*
X40737103Y-94589917D01*
X40722600Y-94662829D01*
X40677400Y-94662829D01*
X40662897Y-94589917D01*
X40634447Y-94521234D01*
X40593146Y-94459422D01*
X40540578Y-94406854D01*
X40478766Y-94365553D01*
X40410083Y-94337103D01*
X40337171Y-94322600D01*
X40262829Y-94322600D01*
X40189917Y-94337103D01*
X40121234Y-94365553D01*
X40059422Y-94406854D01*
X40006854Y-94459422D01*
X39965553Y-94521234D01*
X39937103Y-94589917D01*
X39922600Y-94662829D01*
X31177400Y-94662829D01*
X31177400Y-91360367D01*
X44097600Y-91360367D01*
X44097600Y-91439633D01*
X44113064Y-91517376D01*
X44143398Y-91590608D01*
X44187436Y-91656515D01*
X44243485Y-91712564D01*
X44309392Y-91756602D01*
X44382624Y-91786936D01*
X44460367Y-91802400D01*
X44539633Y-91802400D01*
X44617376Y-91786936D01*
X44690608Y-91756602D01*
X44756515Y-91712564D01*
X44812564Y-91656515D01*
X44856602Y-91590608D01*
X44886936Y-91517376D01*
X44902400Y-91439633D01*
X44902400Y-91360367D01*
X44886936Y-91282624D01*
X44856602Y-91209392D01*
X44812564Y-91143485D01*
X44756515Y-91087436D01*
X44690608Y-91043398D01*
X44617376Y-91013064D01*
X44539633Y-90997600D01*
X44460367Y-90997600D01*
X44382624Y-91013064D01*
X44309392Y-91043398D01*
X44243485Y-91087436D01*
X44187436Y-91143485D01*
X44143398Y-91209392D01*
X44113064Y-91282624D01*
X44097600Y-91360367D01*
X31177400Y-91360367D01*
X31177400Y-87160367D01*
X41597600Y-87160367D01*
X41597600Y-87239633D01*
X41613064Y-87317376D01*
X41643398Y-87390608D01*
X41687436Y-87456515D01*
X41743485Y-87512564D01*
X41799511Y-87550000D01*
X41743485Y-87587436D01*
X41687436Y-87643485D01*
X41643398Y-87709392D01*
X41613064Y-87782624D01*
X41597600Y-87860367D01*
X41597600Y-87939633D01*
X41613064Y-88017376D01*
X41643398Y-88090608D01*
X41687436Y-88156515D01*
X41743485Y-88212564D01*
X41799511Y-88250000D01*
X41743485Y-88287436D01*
X41687436Y-88343485D01*
X41643398Y-88409392D01*
X41613064Y-88482624D01*
X41597600Y-88560367D01*
X41597600Y-88639633D01*
X41613064Y-88717376D01*
X41643398Y-88790608D01*
X41687436Y-88856515D01*
X41743485Y-88912564D01*
X41809392Y-88956602D01*
X41882624Y-88986936D01*
X41960367Y-89002400D01*
X42039633Y-89002400D01*
X42117376Y-88986936D01*
X42190608Y-88956602D01*
X42256515Y-88912564D01*
X42312564Y-88856515D01*
X42350000Y-88800489D01*
X42387436Y-88856515D01*
X42443485Y-88912564D01*
X42509392Y-88956602D01*
X42582624Y-88986936D01*
X42660367Y-89002400D01*
X42739633Y-89002400D01*
X42817376Y-88986936D01*
X42890608Y-88956602D01*
X42956515Y-88912564D01*
X43012564Y-88856515D01*
X43050000Y-88800489D01*
X43087436Y-88856515D01*
X43143485Y-88912564D01*
X43209392Y-88956602D01*
X43282624Y-88986936D01*
X43360367Y-89002400D01*
X43439633Y-89002400D01*
X43517376Y-88986936D01*
X43590608Y-88956602D01*
X43656515Y-88912564D01*
X43712564Y-88856515D01*
X43756602Y-88790608D01*
X43786936Y-88717376D01*
X43802400Y-88639633D01*
X43802400Y-88560367D01*
X43786936Y-88482624D01*
X43756602Y-88409392D01*
X43712564Y-88343485D01*
X43656515Y-88287436D01*
X43600489Y-88250000D01*
X43656515Y-88212564D01*
X43712564Y-88156515D01*
X43756602Y-88090608D01*
X43786936Y-88017376D01*
X43802400Y-87939633D01*
X43802400Y-87860367D01*
X43786936Y-87782624D01*
X43756602Y-87709392D01*
X43712564Y-87643485D01*
X43656515Y-87587436D01*
X43600489Y-87550000D01*
X43656515Y-87512564D01*
X43712564Y-87456515D01*
X43756602Y-87390608D01*
X43786936Y-87317376D01*
X43802400Y-87239633D01*
X43802400Y-87160367D01*
X43786936Y-87082624D01*
X43756602Y-87009392D01*
X43712564Y-86943485D01*
X43656515Y-86887436D01*
X43590608Y-86843398D01*
X43517376Y-86813064D01*
X43439633Y-86797600D01*
X43360367Y-86797600D01*
X43282624Y-86813064D01*
X43209392Y-86843398D01*
X43143485Y-86887436D01*
X43087436Y-86943485D01*
X43050000Y-86999511D01*
X43012564Y-86943485D01*
X42956515Y-86887436D01*
X42890608Y-86843398D01*
X42817376Y-86813064D01*
X42739633Y-86797600D01*
X42660367Y-86797600D01*
X42582624Y-86813064D01*
X42509392Y-86843398D01*
X42443485Y-86887436D01*
X42387436Y-86943485D01*
X42350000Y-86999511D01*
X42312564Y-86943485D01*
X42256515Y-86887436D01*
X42190608Y-86843398D01*
X42117376Y-86813064D01*
X42039633Y-86797600D01*
X41960367Y-86797600D01*
X41882624Y-86813064D01*
X41809392Y-86843398D01*
X41743485Y-86887436D01*
X41687436Y-86943485D01*
X41643398Y-87009392D01*
X41613064Y-87082624D01*
X41597600Y-87160367D01*
X31177400Y-87160367D01*
X31177400Y-85460367D01*
X47497600Y-85460367D01*
X47497600Y-85539633D01*
X47513064Y-85617376D01*
X47543398Y-85690608D01*
X47587436Y-85756515D01*
X47643485Y-85812564D01*
X47709392Y-85856602D01*
X47782624Y-85886936D01*
X47860367Y-85902400D01*
X47939633Y-85902400D01*
X48017376Y-85886936D01*
X48090608Y-85856602D01*
X48156515Y-85812564D01*
X48212564Y-85756515D01*
X48250000Y-85700489D01*
X48287436Y-85756515D01*
X48343485Y-85812564D01*
X48409392Y-85856602D01*
X48482624Y-85886936D01*
X48560367Y-85902400D01*
X48639633Y-85902400D01*
X48717376Y-85886936D01*
X48790608Y-85856602D01*
X48856515Y-85812564D01*
X48912564Y-85756515D01*
X48950000Y-85700489D01*
X48987436Y-85756515D01*
X49043485Y-85812564D01*
X49109392Y-85856602D01*
X49182624Y-85886936D01*
X49260367Y-85902400D01*
X49339633Y-85902400D01*
X49417376Y-85886936D01*
X49490608Y-85856602D01*
X49556515Y-85812564D01*
X49612564Y-85756515D01*
X49656602Y-85690608D01*
X49686936Y-85617376D01*
X49702400Y-85539633D01*
X49702400Y-85460367D01*
X49686936Y-85382624D01*
X49656602Y-85309392D01*
X49612564Y-85243485D01*
X49556515Y-85187436D01*
X49490608Y-85143398D01*
X49417376Y-85113064D01*
X49339633Y-85097600D01*
X49260367Y-85097600D01*
X49182624Y-85113064D01*
X49109392Y-85143398D01*
X49043485Y-85187436D01*
X48987436Y-85243485D01*
X48950000Y-85299511D01*
X48912564Y-85243485D01*
X48856515Y-85187436D01*
X48790608Y-85143398D01*
X48717376Y-85113064D01*
X48639633Y-85097600D01*
X48560367Y-85097600D01*
X48482624Y-85113064D01*
X48409392Y-85143398D01*
X48343485Y-85187436D01*
X48287436Y-85243485D01*
X48250000Y-85299511D01*
X48212564Y-85243485D01*
X48156515Y-85187436D01*
X48090608Y-85143398D01*
X48017376Y-85113064D01*
X47939633Y-85097600D01*
X47860367Y-85097600D01*
X47782624Y-85113064D01*
X47709392Y-85143398D01*
X47643485Y-85187436D01*
X47587436Y-85243485D01*
X47543398Y-85309392D01*
X47513064Y-85382624D01*
X47497600Y-85460367D01*
X31177400Y-85460367D01*
X31177400Y-83960367D01*
X44197600Y-83960367D01*
X44197600Y-84039633D01*
X44213064Y-84117376D01*
X44243398Y-84190608D01*
X44287436Y-84256515D01*
X44343485Y-84312564D01*
X44409392Y-84356602D01*
X44482624Y-84386936D01*
X44560367Y-84402400D01*
X44639633Y-84402400D01*
X44717376Y-84386936D01*
X44790608Y-84356602D01*
X44856515Y-84312564D01*
X44912564Y-84256515D01*
X44956602Y-84190608D01*
X44986936Y-84117376D01*
X45002400Y-84039633D01*
X45002400Y-83960367D01*
X44986936Y-83882624D01*
X44956602Y-83809392D01*
X44912564Y-83743485D01*
X44856515Y-83687436D01*
X44790608Y-83643398D01*
X44717376Y-83613064D01*
X44639633Y-83597600D01*
X44560367Y-83597600D01*
X44482624Y-83613064D01*
X44409392Y-83643398D01*
X44343485Y-83687436D01*
X44287436Y-83743485D01*
X44243398Y-83809392D01*
X44213064Y-83882624D01*
X44197600Y-83960367D01*
X31177400Y-83960367D01*
X31177400Y-83008673D01*
X31193900Y-82840392D01*
X31240256Y-82686854D01*
X31315548Y-82545250D01*
X31416910Y-82420968D01*
X31540484Y-82318739D01*
X31681561Y-82242459D01*
X31834762Y-82195035D01*
X32002544Y-82177400D01*
X50991327Y-82177400D01*
X51159608Y-82193900D01*
G37*
G04 #@! TD.AperFunction*
M02*
