G04 #@! TF.GenerationSoftware,KiCad,Pcbnew,(5.1.9)-1*
G04 #@! TF.CreationDate,2021-06-07T22:02:30-04:00*
G04 #@! TF.ProjectId,icepool-board,69636570-6f6f-46c2-9d62-6f6172642e6b,2020-04*
G04 #@! TF.SameCoordinates,Original*
G04 #@! TF.FileFunction,Paste,Top*
G04 #@! TF.FilePolarity,Positive*
%FSLAX46Y46*%
G04 Gerber Fmt 4.6, Leading zero omitted, Abs format (unit mm)*
G04 Created by KiCad (PCBNEW (5.1.9)-1) date 2021-06-07 22:02:30*
%MOMM*%
%LPD*%
G01*
G04 APERTURE LIST*
%ADD10C,0.280000*%
%ADD11R,0.770000X0.910000*%
G04 APERTURE END LIST*
G36*
G01*
X42096250Y-83819375D02*
X42096250Y-83180625D01*
G75*
G02*
X42266875Y-83010000I170625J0D01*
G01*
X42608125Y-83010000D01*
G75*
G02*
X42778750Y-83180625I0J-170625D01*
G01*
X42778750Y-83819375D01*
G75*
G02*
X42608125Y-83990000I-170625J0D01*
G01*
X42266875Y-83990000D01*
G75*
G02*
X42096250Y-83819375I0J170625D01*
G01*
G37*
G36*
G01*
X40221250Y-83819375D02*
X40221250Y-83180625D01*
G75*
G02*
X40391875Y-83010000I170625J0D01*
G01*
X40733125Y-83010000D01*
G75*
G02*
X40903750Y-83180625I0J-170625D01*
G01*
X40903750Y-83819375D01*
G75*
G02*
X40733125Y-83990000I-170625J0D01*
G01*
X40391875Y-83990000D01*
G75*
G02*
X40221250Y-83819375I0J170625D01*
G01*
G37*
G36*
G01*
X41878500Y-104320750D02*
X41878500Y-104079250D01*
G75*
G02*
X41981750Y-103976000I103250J0D01*
G01*
X42188250Y-103976000D01*
G75*
G02*
X42291500Y-104079250I0J-103250D01*
G01*
X42291500Y-104320750D01*
G75*
G02*
X42188250Y-104424000I-103250J0D01*
G01*
X41981750Y-104424000D01*
G75*
G02*
X41878500Y-104320750I0J103250D01*
G01*
G37*
G36*
G01*
X40908500Y-104320750D02*
X40908500Y-104079250D01*
G75*
G02*
X41011750Y-103976000I103250J0D01*
G01*
X41218250Y-103976000D01*
G75*
G02*
X41321500Y-104079250I0J-103250D01*
G01*
X41321500Y-104320750D01*
G75*
G02*
X41218250Y-104424000I-103250J0D01*
G01*
X41011750Y-104424000D01*
G75*
G02*
X40908500Y-104320750I0J103250D01*
G01*
G37*
G36*
G01*
X39878500Y-103320750D02*
X39878500Y-103079250D01*
G75*
G02*
X39981750Y-102976000I103250J0D01*
G01*
X40188250Y-102976000D01*
G75*
G02*
X40291500Y-103079250I0J-103250D01*
G01*
X40291500Y-103320750D01*
G75*
G02*
X40188250Y-103424000I-103250J0D01*
G01*
X39981750Y-103424000D01*
G75*
G02*
X39878500Y-103320750I0J103250D01*
G01*
G37*
G36*
G01*
X38908500Y-103320750D02*
X38908500Y-103079250D01*
G75*
G02*
X39011750Y-102976000I103250J0D01*
G01*
X39218250Y-102976000D01*
G75*
G02*
X39321500Y-103079250I0J-103250D01*
G01*
X39321500Y-103320750D01*
G75*
G02*
X39218250Y-103424000I-103250J0D01*
G01*
X39011750Y-103424000D01*
G75*
G02*
X38908500Y-103320750I0J103250D01*
G01*
G37*
D10*
X37500000Y-93500000D03*
X37500000Y-94300000D03*
X37500000Y-95100000D03*
X37500000Y-95900000D03*
X37500000Y-96700000D03*
X37500000Y-97500000D03*
X37500000Y-98300000D03*
X37500000Y-99100000D03*
X37500000Y-99900000D03*
X37500000Y-100700000D03*
X37500000Y-101500000D03*
X38300000Y-93500000D03*
X38300000Y-94300000D03*
X38300000Y-95100000D03*
X38300000Y-95900000D03*
X38300000Y-96700000D03*
X38300000Y-97500000D03*
X38300000Y-98300000D03*
X38300000Y-99100000D03*
X38300000Y-99900000D03*
X38300000Y-100700000D03*
X38300000Y-101500000D03*
X39100000Y-93500000D03*
X39100000Y-94300000D03*
X39100000Y-95100000D03*
X39100000Y-95900000D03*
X39100000Y-96700000D03*
X39100000Y-97500000D03*
X39100000Y-98300000D03*
X39100000Y-99100000D03*
X39100000Y-99900000D03*
X39100000Y-100700000D03*
X39100000Y-101500000D03*
X39900000Y-93500000D03*
X39900000Y-94300000D03*
X39900000Y-95100000D03*
X39900000Y-95900000D03*
X39900000Y-96700000D03*
X39900000Y-97500000D03*
X39900000Y-98300000D03*
X39900000Y-99100000D03*
X39900000Y-99900000D03*
X39900000Y-100700000D03*
X39900000Y-101500000D03*
X40700000Y-93500000D03*
X40700000Y-94300000D03*
X40700000Y-95100000D03*
X40700000Y-95900000D03*
X40700000Y-96700000D03*
X40700000Y-97500000D03*
X40700000Y-98300000D03*
X40700000Y-99100000D03*
X40700000Y-99900000D03*
X40700000Y-100700000D03*
X40700000Y-101500000D03*
X41500000Y-93500000D03*
X41500000Y-94300000D03*
X41500000Y-95100000D03*
X41500000Y-95900000D03*
X41500000Y-96700000D03*
X41500000Y-97500000D03*
X41500000Y-98300000D03*
X41500000Y-99100000D03*
X41500000Y-99900000D03*
X41500000Y-100700000D03*
X41500000Y-101500000D03*
X42300000Y-93500000D03*
X42300000Y-94300000D03*
X42300000Y-95100000D03*
X42300000Y-95900000D03*
X42300000Y-96700000D03*
X42300000Y-97500000D03*
X42300000Y-98300000D03*
X42300000Y-99100000D03*
X42300000Y-99900000D03*
X42300000Y-100700000D03*
X42300000Y-101500000D03*
X43100000Y-93500000D03*
X43100000Y-94300000D03*
X43100000Y-95100000D03*
X43100000Y-95900000D03*
X43100000Y-96700000D03*
X43100000Y-97500000D03*
X43100000Y-98300000D03*
X43100000Y-99100000D03*
X43100000Y-99900000D03*
X43100000Y-100700000D03*
X43100000Y-101500000D03*
X43900000Y-93500000D03*
X43900000Y-94300000D03*
X43900000Y-95100000D03*
X43900000Y-95900000D03*
X43900000Y-96700000D03*
X43900000Y-97500000D03*
X43900000Y-98300000D03*
X43900000Y-99100000D03*
X43900000Y-99900000D03*
X43900000Y-100700000D03*
X43900000Y-101500000D03*
X44700000Y-93500000D03*
X44700000Y-94300000D03*
X44700000Y-95100000D03*
X44700000Y-95900000D03*
X44700000Y-96700000D03*
X44700000Y-97500000D03*
X44700000Y-98300000D03*
X44700000Y-99100000D03*
X44700000Y-99900000D03*
X44700000Y-100700000D03*
X44700000Y-101500000D03*
X45500000Y-93500000D03*
X45500000Y-94300000D03*
X45500000Y-95100000D03*
X45500000Y-95900000D03*
X45500000Y-96700000D03*
X45500000Y-97500000D03*
X45500000Y-98300000D03*
X45500000Y-99100000D03*
X45500000Y-99900000D03*
X45500000Y-100700000D03*
X45500000Y-101500000D03*
G36*
G01*
X43679250Y-83778500D02*
X43920750Y-83778500D01*
G75*
G02*
X44024000Y-83881750I0J-103250D01*
G01*
X44024000Y-84088250D01*
G75*
G02*
X43920750Y-84191500I-103250J0D01*
G01*
X43679250Y-84191500D01*
G75*
G02*
X43576000Y-84088250I0J103250D01*
G01*
X43576000Y-83881750D01*
G75*
G02*
X43679250Y-83778500I103250J0D01*
G01*
G37*
G36*
G01*
X43679250Y-82808500D02*
X43920750Y-82808500D01*
G75*
G02*
X44024000Y-82911750I0J-103250D01*
G01*
X44024000Y-83118250D01*
G75*
G02*
X43920750Y-83221500I-103250J0D01*
G01*
X43679250Y-83221500D01*
G75*
G02*
X43576000Y-83118250I0J103250D01*
G01*
X43576000Y-82911750D01*
G75*
G02*
X43679250Y-82808500I103250J0D01*
G01*
G37*
G36*
G01*
X35720750Y-102691500D02*
X35479250Y-102691500D01*
G75*
G02*
X35376000Y-102588250I0J103250D01*
G01*
X35376000Y-102381750D01*
G75*
G02*
X35479250Y-102278500I103250J0D01*
G01*
X35720750Y-102278500D01*
G75*
G02*
X35824000Y-102381750I0J-103250D01*
G01*
X35824000Y-102588250D01*
G75*
G02*
X35720750Y-102691500I-103250J0D01*
G01*
G37*
G36*
G01*
X35720750Y-101721500D02*
X35479250Y-101721500D01*
G75*
G02*
X35376000Y-101618250I0J103250D01*
G01*
X35376000Y-101411750D01*
G75*
G02*
X35479250Y-101308500I103250J0D01*
G01*
X35720750Y-101308500D01*
G75*
G02*
X35824000Y-101411750I0J-103250D01*
G01*
X35824000Y-101618250D01*
G75*
G02*
X35720750Y-101721500I-103250J0D01*
G01*
G37*
G36*
G01*
X39878500Y-104324750D02*
X39878500Y-104083250D01*
G75*
G02*
X39981750Y-103980000I103250J0D01*
G01*
X40188250Y-103980000D01*
G75*
G02*
X40291500Y-104083250I0J-103250D01*
G01*
X40291500Y-104324750D01*
G75*
G02*
X40188250Y-104428000I-103250J0D01*
G01*
X39981750Y-104428000D01*
G75*
G02*
X39878500Y-104324750I0J103250D01*
G01*
G37*
G36*
G01*
X38908500Y-104324750D02*
X38908500Y-104083250D01*
G75*
G02*
X39011750Y-103980000I103250J0D01*
G01*
X39218250Y-103980000D01*
G75*
G02*
X39321500Y-104083250I0J-103250D01*
G01*
X39321500Y-104324750D01*
G75*
G02*
X39218250Y-104428000I-103250J0D01*
G01*
X39011750Y-104428000D01*
G75*
G02*
X38908500Y-104324750I0J103250D01*
G01*
G37*
G36*
G01*
X47721500Y-97379250D02*
X47721500Y-97620750D01*
G75*
G02*
X47618250Y-97724000I-103250J0D01*
G01*
X47411750Y-97724000D01*
G75*
G02*
X47308500Y-97620750I0J103250D01*
G01*
X47308500Y-97379250D01*
G75*
G02*
X47411750Y-97276000I103250J0D01*
G01*
X47618250Y-97276000D01*
G75*
G02*
X47721500Y-97379250I0J-103250D01*
G01*
G37*
G36*
G01*
X48691500Y-97379250D02*
X48691500Y-97620750D01*
G75*
G02*
X48588250Y-97724000I-103250J0D01*
G01*
X48381750Y-97724000D01*
G75*
G02*
X48278500Y-97620750I0J103250D01*
G01*
X48278500Y-97379250D01*
G75*
G02*
X48381750Y-97276000I103250J0D01*
G01*
X48588250Y-97276000D01*
G75*
G02*
X48691500Y-97379250I0J-103250D01*
G01*
G37*
G36*
G01*
X42521500Y-86179250D02*
X42521500Y-86420750D01*
G75*
G02*
X42418250Y-86524000I-103250J0D01*
G01*
X42211750Y-86524000D01*
G75*
G02*
X42108500Y-86420750I0J103250D01*
G01*
X42108500Y-86179250D01*
G75*
G02*
X42211750Y-86076000I103250J0D01*
G01*
X42418250Y-86076000D01*
G75*
G02*
X42521500Y-86179250I0J-103250D01*
G01*
G37*
G36*
G01*
X43491500Y-86179250D02*
X43491500Y-86420750D01*
G75*
G02*
X43388250Y-86524000I-103250J0D01*
G01*
X43181750Y-86524000D01*
G75*
G02*
X43078500Y-86420750I0J103250D01*
G01*
X43078500Y-86179250D01*
G75*
G02*
X43181750Y-86076000I103250J0D01*
G01*
X43388250Y-86076000D01*
G75*
G02*
X43491500Y-86179250I0J-103250D01*
G01*
G37*
G36*
G01*
X48479250Y-87178500D02*
X48720750Y-87178500D01*
G75*
G02*
X48824000Y-87281750I0J-103250D01*
G01*
X48824000Y-87488250D01*
G75*
G02*
X48720750Y-87591500I-103250J0D01*
G01*
X48479250Y-87591500D01*
G75*
G02*
X48376000Y-87488250I0J103250D01*
G01*
X48376000Y-87281750D01*
G75*
G02*
X48479250Y-87178500I103250J0D01*
G01*
G37*
G36*
G01*
X48479250Y-86208500D02*
X48720750Y-86208500D01*
G75*
G02*
X48824000Y-86311750I0J-103250D01*
G01*
X48824000Y-86518250D01*
G75*
G02*
X48720750Y-86621500I-103250J0D01*
G01*
X48479250Y-86621500D01*
G75*
G02*
X48376000Y-86518250I0J103250D01*
G01*
X48376000Y-86311750D01*
G75*
G02*
X48479250Y-86208500I103250J0D01*
G01*
G37*
G36*
G01*
X35720750Y-99721500D02*
X35479250Y-99721500D01*
G75*
G02*
X35376000Y-99618250I0J103250D01*
G01*
X35376000Y-99411750D01*
G75*
G02*
X35479250Y-99308500I103250J0D01*
G01*
X35720750Y-99308500D01*
G75*
G02*
X35824000Y-99411750I0J-103250D01*
G01*
X35824000Y-99618250D01*
G75*
G02*
X35720750Y-99721500I-103250J0D01*
G01*
G37*
G36*
G01*
X35720750Y-100691500D02*
X35479250Y-100691500D01*
G75*
G02*
X35376000Y-100588250I0J103250D01*
G01*
X35376000Y-100381750D01*
G75*
G02*
X35479250Y-100278500I103250J0D01*
G01*
X35720750Y-100278500D01*
G75*
G02*
X35824000Y-100381750I0J-103250D01*
G01*
X35824000Y-100588250D01*
G75*
G02*
X35720750Y-100691500I-103250J0D01*
G01*
G37*
D11*
X49325000Y-96050000D03*
X49325000Y-93950000D03*
X47675000Y-93950000D03*
X47675000Y-96050000D03*
G36*
G01*
X45421000Y-88740500D02*
X45421000Y-87759500D01*
G75*
G02*
X45710500Y-87470000I289500J0D01*
G01*
X46289500Y-87470000D01*
G75*
G02*
X46579000Y-87759500I0J-289500D01*
G01*
X46579000Y-88740500D01*
G75*
G02*
X46289500Y-89030000I-289500J0D01*
G01*
X45710500Y-89030000D01*
G75*
G02*
X45421000Y-88740500I0J289500D01*
G01*
G37*
G36*
G01*
X47228000Y-87194000D02*
X47228000Y-86506000D01*
G75*
G02*
X47364000Y-86370000I136000J0D01*
G01*
X47636000Y-86370000D01*
G75*
G02*
X47772000Y-86506000I0J-136000D01*
G01*
X47772000Y-87194000D01*
G75*
G02*
X47636000Y-87330000I-136000J0D01*
G01*
X47364000Y-87330000D01*
G75*
G02*
X47228000Y-87194000I0J136000D01*
G01*
G37*
G36*
G01*
X44228000Y-87194000D02*
X44228000Y-86506000D01*
G75*
G02*
X44364000Y-86370000I136000J0D01*
G01*
X44636000Y-86370000D01*
G75*
G02*
X44772000Y-86506000I0J-136000D01*
G01*
X44772000Y-87194000D01*
G75*
G02*
X44636000Y-87330000I-136000J0D01*
G01*
X44364000Y-87330000D01*
G75*
G02*
X44228000Y-87194000I0J136000D01*
G01*
G37*
G36*
G01*
X44228000Y-90494000D02*
X44228000Y-89806000D01*
G75*
G02*
X44364000Y-89670000I136000J0D01*
G01*
X44636000Y-89670000D01*
G75*
G02*
X44772000Y-89806000I0J-136000D01*
G01*
X44772000Y-90494000D01*
G75*
G02*
X44636000Y-90630000I-136000J0D01*
G01*
X44364000Y-90630000D01*
G75*
G02*
X44228000Y-90494000I0J136000D01*
G01*
G37*
G36*
G01*
X45728000Y-90454000D02*
X45728000Y-89446000D01*
G75*
G02*
X45864000Y-89310000I136000J0D01*
G01*
X46136000Y-89310000D01*
G75*
G02*
X46272000Y-89446000I0J-136000D01*
G01*
X46272000Y-90454000D01*
G75*
G02*
X46136000Y-90590000I-136000J0D01*
G01*
X45864000Y-90590000D01*
G75*
G02*
X45728000Y-90454000I0J136000D01*
G01*
G37*
G36*
G01*
X47228000Y-90494000D02*
X47228000Y-89806000D01*
G75*
G02*
X47364000Y-89670000I136000J0D01*
G01*
X47636000Y-89670000D01*
G75*
G02*
X47772000Y-89806000I0J-136000D01*
G01*
X47772000Y-90494000D01*
G75*
G02*
X47636000Y-90630000I-136000J0D01*
G01*
X47364000Y-90630000D01*
G75*
G02*
X47228000Y-90494000I0J136000D01*
G01*
G37*
G36*
G01*
X47721500Y-92379250D02*
X47721500Y-92620750D01*
G75*
G02*
X47618250Y-92724000I-103250J0D01*
G01*
X47411750Y-92724000D01*
G75*
G02*
X47308500Y-92620750I0J103250D01*
G01*
X47308500Y-92379250D01*
G75*
G02*
X47411750Y-92276000I103250J0D01*
G01*
X47618250Y-92276000D01*
G75*
G02*
X47721500Y-92379250I0J-103250D01*
G01*
G37*
G36*
G01*
X48691500Y-92379250D02*
X48691500Y-92620750D01*
G75*
G02*
X48588250Y-92724000I-103250J0D01*
G01*
X48381750Y-92724000D01*
G75*
G02*
X48278500Y-92620750I0J103250D01*
G01*
X48278500Y-92379250D01*
G75*
G02*
X48381750Y-92276000I103250J0D01*
G01*
X48588250Y-92276000D01*
G75*
G02*
X48691500Y-92379250I0J-103250D01*
G01*
G37*
M02*
