M48
; DRILL file {KiCad (5.1.9)-1} date 06/07/21 22:02:04
; FORMAT={-:-/ absolute / inch / decimal}
; #@! TF.CreationDate,2021-06-07T22:02:04-04:00
; #@! TF.GenerationSoftware,Kicad,Pcbnew,(5.1.9)-1
FMAT,2
INCH
T1C0.0079
T2C0.0098
T3C0.0100
T4C0.0157
T5C0.0197
T6C0.0236
T7C0.0335
T8C0.0394
T9C0.0709
T10C0.1260
T11C0.1181
%
G90
G05
T1
X6.3823Y-2.0791
X6.3823Y-2.1256
X6.4287Y-2.0791
X6.4287Y-2.1256
T2
X1.4652Y-2.0281
X1.4652Y-2.0669
X1.4764Y-1.8858
X1.4764Y-1.9606
X1.5Y-1.5827
X1.5276Y-1.4016
X1.5276Y-1.4331
X1.5669Y-1.4331
X1.5984Y-1.2992
X1.6063Y-1.4331
X1.6339Y-1.1969
X1.6378Y-1.2992
X1.6378Y-1.4016
X1.6772Y-1.2992
X2.08Y-1.36
X2.08Y-1.41
X2.08Y-1.46
X2.08Y-1.51
X2.08Y-1.56
X2.08Y-1.71
X2.08Y-1.76
T3
X1.2598Y-2.2598
X1.4134Y-2.2047
X1.4646Y-2.3622
X1.4961Y-2.1102
X1.5197Y-2.1654
X1.5276Y-2.3386
X1.6122Y-2.061
X1.6122Y-2.1004
X1.6144Y-1.8642
X1.6181Y-1.6614
X1.6437Y-2.1201
X1.6457Y-1.748
X1.6614Y-1.6614
X1.6929Y-1.563
X1.7126Y-1.6614
X1.7165Y-2.3622
X1.7323Y-2.3031
X1.7815Y-1.6083
X1.7835Y-1.4488
X1.8169Y-2.1989
X1.8189Y-1.6614
X1.8352Y-1.7199
X1.8504Y-1.3622
X1.8701Y-1.6339
X1.9094Y-1.7205
X1.9134Y-1.8228
X1.9134Y-2.3037
X1.9252Y-1.6614
X1.9291Y-1.4488
X1.937Y-2.3622
X1.9528Y-1.3622
X1.9685Y-1.6614
X1.9882Y-1.4252
X1.9921Y-1.7244
X1.9921Y-2.122
X1.998Y-1.8839
X2.0079Y-1.1969
X2.0591Y-1.626
X2.0591Y-1.8071
X2.0945Y-2.1811
X2.0984Y-2.0
X2.1102Y-2.1181
X2.1142Y-2.5118
X2.1378Y-2.0
X2.1571Y-2.7091
X2.1579Y-2.4091
X2.1614Y-1.8898
X2.1614Y-1.937
X2.1614Y-2.0315
X2.3071Y-1.9055
X6.2362Y-2.2205
X6.3071Y-2.0787
X6.4567Y-1.811
X6.4961Y-1.8898
X6.5118Y-2.0472
X6.5118Y-2.0787
T4
X1.3228Y-1.6535
X2.23Y-1.06
X2.23Y-1.16
X2.23Y-2.86
X2.23Y-2.96
X2.295Y-1.06
X2.295Y-1.16
X2.295Y-2.86
X2.295Y-2.96
X2.43Y-1.06
X2.43Y-1.16
X2.43Y-2.86
X2.43Y-2.96
X2.495Y-1.06
X2.495Y-1.16
X2.495Y-2.96
X2.495Y-2.86
X2.6237Y-1.06
X2.6237Y-1.16
X2.6237Y-2.86
X2.6237Y-2.96
X2.6887Y-1.06
X2.6887Y-1.16
X2.6887Y-2.86
X2.6887Y-2.96
X2.8237Y-1.06
X2.8237Y-1.16
X2.8237Y-2.86
X2.8237Y-2.96
X2.8887Y-1.06
X2.8887Y-1.16
X2.8887Y-2.96
X2.8887Y-2.86
X3.0174Y-1.06
X3.0174Y-1.16
X3.0174Y-2.86
X3.0174Y-2.96
X3.0824Y-1.06
X3.0824Y-1.16
X3.0824Y-2.86
X3.0824Y-2.96
X3.2174Y-1.06
X3.2174Y-1.16
X3.2174Y-2.86
X3.2174Y-2.96
X3.2824Y-1.06
X3.2824Y-1.16
X3.2824Y-2.96
X3.2824Y-2.86
X3.4111Y-1.06
X3.4111Y-1.16
X3.4111Y-2.86
X3.4111Y-2.96
X3.4761Y-1.06
X3.4761Y-1.16
X3.4761Y-2.86
X3.4761Y-2.96
X3.6111Y-1.06
X3.6111Y-1.16
X3.6111Y-2.86
X3.6111Y-2.96
X3.6761Y-1.06
X3.6761Y-1.16
X3.6761Y-2.96
X3.6761Y-2.86
X3.8048Y-1.06
X3.8048Y-1.16
X3.8048Y-2.86
X3.8048Y-2.96
X3.8698Y-1.06
X3.8698Y-1.16
X3.8698Y-2.86
X3.8698Y-2.96
X4.0048Y-1.06
X4.0048Y-1.16
X4.0048Y-2.86
X4.0048Y-2.96
X4.0698Y-1.06
X4.0698Y-1.16
X4.0698Y-2.96
X4.0698Y-2.86
X4.1985Y-1.06
X4.1985Y-1.16
X4.1985Y-2.86
X4.1985Y-2.96
X4.2635Y-1.06
X4.2635Y-1.16
X4.2635Y-2.86
X4.2635Y-2.96
X4.3985Y-1.06
X4.3985Y-1.16
X4.3985Y-2.86
X4.3985Y-2.96
X4.4635Y-1.06
X4.4635Y-1.16
X4.4635Y-2.96
X4.4635Y-2.86
X4.5922Y-1.06
X4.5922Y-1.16
X4.5922Y-2.86
X4.5922Y-2.96
X4.6572Y-1.06
X4.6572Y-1.16
X4.6572Y-2.86
X4.6572Y-2.96
X4.7922Y-1.06
X4.7922Y-1.16
X4.7922Y-2.86
X4.7922Y-2.96
X4.8572Y-1.06
X4.8572Y-1.16
X4.8572Y-2.96
X4.8572Y-2.86
X4.9859Y-1.06
X4.9859Y-1.16
X4.9859Y-2.86
X4.9859Y-2.96
X5.0509Y-1.06
X5.0509Y-1.16
X5.0509Y-2.86
X5.0509Y-2.96
X5.1859Y-1.06
X5.1859Y-1.16
X5.1859Y-2.86
X5.1859Y-2.96
X5.2509Y-1.06
X5.2509Y-1.16
X5.2509Y-2.96
X5.2509Y-2.86
X5.7402Y-1.8661
X5.7402Y-1.9449
X5.7402Y-2.0236
X5.7402Y-2.1024
X5.8189Y-1.9449
X5.8189Y-2.0236
X5.8189Y-2.1024
X5.8976Y-1.9449
X5.9606Y-2.2913
X5.9606Y-2.3701
X5.9606Y-2.4488
X5.9606Y-2.5276
X5.9764Y-1.9449
X5.9764Y-2.0236
X5.9764Y-2.1024
X6.0394Y-2.2913
X6.0394Y-2.3701
X6.0394Y-2.4488
X6.0394Y-2.5276
X6.0551Y-1.8661
X6.0551Y-1.9449
X6.0551Y-2.0236
X6.0551Y-2.1024
X6.1181Y-2.2913
X6.1181Y-2.3701
X6.1181Y-2.4488
X6.1181Y-2.5276
X6.1339Y-1.8661
X6.1339Y-1.9449
X6.1339Y-2.0236
X6.1969Y-2.2913
X6.1969Y-2.3701
X6.1969Y-2.4488
X6.1969Y-2.5276
X6.2283Y-1.7402
X6.4173Y-2.4252
X6.5669Y-2.1654
X6.5827Y-1.9291
X6.6063Y-2.2677
X6.6378Y-1.5512
X6.6378Y-1.6063
X6.6378Y-1.6614
T5
X1.2835Y-1.0236
X1.2835Y-2.9921
X1.3111Y-0.9568
X1.3111Y-1.0904
X1.3111Y-2.9253
X1.3111Y-3.0589
X1.378Y-0.9291
X1.378Y-1.1181
X1.378Y-2.8976
X1.378Y-3.0866
X1.4448Y-0.9568
X1.4448Y-1.0904
X1.4448Y-2.9253
X1.4448Y-3.0589
X1.4724Y-1.0236
X1.4724Y-2.9921
X6.4803Y-1.0236
X6.4803Y-2.9921
X6.508Y-0.9568
X6.508Y-1.0904
X6.508Y-2.9253
X6.508Y-3.0589
X6.5748Y-0.9291
X6.5748Y-1.1181
X6.5748Y-2.8976
X6.5748Y-3.0866
X6.6416Y-0.9568
X6.6416Y-1.0904
X6.6416Y-2.9253
X6.6416Y-3.0589
X6.6693Y-1.0236
X6.6693Y-2.9921
T7
X1.3962Y-1.9094
X1.3962Y-2.1063
T8
X1.378Y-1.3961
X1.378Y-1.4961
X2.0433Y-1.1024
X5.6299Y-2.9921
X5.7299Y-2.9921
X5.8299Y-2.9921
X5.9299Y-2.9921
X6.0299Y-2.9921
X6.1299Y-2.9921
T9
X5.9055Y-1.3386
X5.9055Y-1.5551
X6.0709Y-1.3386
X6.0709Y-1.5551
X6.2362Y-1.3386
X6.2362Y-1.5551
T10
X1.378Y-1.0236
X1.378Y-2.9921
X6.5748Y-1.0236
X6.5748Y-2.9921
T11
X5.9055Y-1.0512
X6.2362Y-1.0512
T6
G00X1.2761Y-1.8701
M15
G01X1.3036Y-1.8701
M16
G05
G00X1.3036Y-2.1457
M15
G01X1.2761Y-2.1457
M16
G05
T0
M30
