G04 #@! TF.GenerationSoftware,KiCad,Pcbnew,(5.1.9)-1*
G04 #@! TF.CreationDate,2021-06-07T22:02:01-04:00*
G04 #@! TF.ProjectId,icepool-board,69636570-6f6f-46c2-9d62-6f6172642e6b,2020-04*
G04 #@! TF.SameCoordinates,Original*
G04 #@! TF.FileFunction,Paste,Top*
G04 #@! TF.FilePolarity,Positive*
%FSLAX46Y46*%
G04 Gerber Fmt 4.6, Leading zero omitted, Abs format (unit mm)*
G04 Created by KiCad (PCBNEW (5.1.9)-1) date 2021-06-07 22:02:01*
%MOMM*%
%LPD*%
G01*
G04 APERTURE LIST*
%ADD10R,2.205000X0.700000*%
%ADD11R,0.210000X0.840000*%
%ADD12R,0.840000X0.210000*%
%ADD13R,1.050000X0.840000*%
%ADD14R,1.330000X1.050000*%
%ADD15R,0.945000X0.280000*%
%ADD16R,0.770000X0.910000*%
G04 APERTURE END LIST*
G36*
G01*
X57079000Y-48270500D02*
X57079000Y-48529500D01*
G75*
G02*
X56984500Y-48624000I-94500J0D01*
G01*
X56795500Y-48624000D01*
G75*
G02*
X56701000Y-48529500I0J94500D01*
G01*
X56701000Y-48270500D01*
G75*
G02*
X56795500Y-48176000I94500J0D01*
G01*
X56984500Y-48176000D01*
G75*
G02*
X57079000Y-48270500I0J-94500D01*
G01*
G37*
G36*
G01*
X58099000Y-48270500D02*
X58099000Y-48529500D01*
G75*
G02*
X58004500Y-48624000I-94500J0D01*
G01*
X57815500Y-48624000D01*
G75*
G02*
X57721000Y-48529500I0J94500D01*
G01*
X57721000Y-48270500D01*
G75*
G02*
X57815500Y-48176000I94500J0D01*
G01*
X58004500Y-48176000D01*
G75*
G02*
X58099000Y-48270500I0J-94500D01*
G01*
G37*
D10*
X82525000Y-73890000D03*
X77475000Y-73890000D03*
X82525000Y-71350000D03*
X77475000Y-71350000D03*
X82525000Y-68810000D03*
X77475000Y-68810000D03*
X82525000Y-66270000D03*
X77475000Y-66270000D03*
X82525000Y-63730000D03*
X77475000Y-63730000D03*
X82525000Y-61190000D03*
X77475000Y-61190000D03*
X82525000Y-58650000D03*
X77475000Y-58650000D03*
X82525000Y-56110000D03*
X77475000Y-56110000D03*
G36*
G01*
X43370500Y-43501000D02*
X43629500Y-43501000D01*
G75*
G02*
X43724000Y-43595500I0J-94500D01*
G01*
X43724000Y-43784500D01*
G75*
G02*
X43629500Y-43879000I-94500J0D01*
G01*
X43370500Y-43879000D01*
G75*
G02*
X43276000Y-43784500I0J94500D01*
G01*
X43276000Y-43595500D01*
G75*
G02*
X43370500Y-43501000I94500J0D01*
G01*
G37*
G36*
G01*
X43370500Y-42481000D02*
X43629500Y-42481000D01*
G75*
G02*
X43724000Y-42575500I0J-94500D01*
G01*
X43724000Y-42764500D01*
G75*
G02*
X43629500Y-42859000I-94500J0D01*
G01*
X43370500Y-42859000D01*
G75*
G02*
X43276000Y-42764500I0J94500D01*
G01*
X43276000Y-42575500D01*
G75*
G02*
X43370500Y-42481000I94500J0D01*
G01*
G37*
X127523000Y-28194000D03*
X132573000Y-28194000D03*
X127523000Y-30734000D03*
X132573000Y-30734000D03*
X127523000Y-33274000D03*
X132573000Y-33274000D03*
X127523000Y-35814000D03*
X132573000Y-35814000D03*
X127523000Y-38354000D03*
X132573000Y-38354000D03*
X127523000Y-40894000D03*
X132573000Y-40894000D03*
X127523000Y-43434000D03*
X132573000Y-43434000D03*
X127523000Y-45974000D03*
X132573000Y-45974000D03*
X102525000Y-73890000D03*
X97475000Y-73890000D03*
X102525000Y-71350000D03*
X97475000Y-71350000D03*
X102525000Y-68810000D03*
X97475000Y-68810000D03*
X102525000Y-66270000D03*
X97475000Y-66270000D03*
X102525000Y-63730000D03*
X97475000Y-63730000D03*
X102525000Y-61190000D03*
X97475000Y-61190000D03*
X102525000Y-58650000D03*
X97475000Y-58650000D03*
X102525000Y-56110000D03*
X97475000Y-56110000D03*
G36*
G01*
X50119000Y-42936000D02*
X49881000Y-42936000D01*
G75*
G02*
X49783000Y-42838000I0J98000D01*
G01*
X49783000Y-42642000D01*
G75*
G02*
X49881000Y-42544000I98000J0D01*
G01*
X50119000Y-42544000D01*
G75*
G02*
X50217000Y-42642000I0J-98000D01*
G01*
X50217000Y-42838000D01*
G75*
G02*
X50119000Y-42936000I-98000J0D01*
G01*
G37*
G36*
G01*
X50119000Y-43896000D02*
X49881000Y-43896000D01*
G75*
G02*
X49783000Y-43798000I0J98000D01*
G01*
X49783000Y-43602000D01*
G75*
G02*
X49881000Y-43504000I98000J0D01*
G01*
X50119000Y-43504000D01*
G75*
G02*
X50217000Y-43602000I0J-98000D01*
G01*
X50217000Y-43798000D01*
G75*
G02*
X50119000Y-43896000I-98000J0D01*
G01*
G37*
G36*
G01*
X52981000Y-54584000D02*
X53219000Y-54584000D01*
G75*
G02*
X53317000Y-54682000I0J-98000D01*
G01*
X53317000Y-54878000D01*
G75*
G02*
X53219000Y-54976000I-98000J0D01*
G01*
X52981000Y-54976000D01*
G75*
G02*
X52883000Y-54878000I0J98000D01*
G01*
X52883000Y-54682000D01*
G75*
G02*
X52981000Y-54584000I98000J0D01*
G01*
G37*
G36*
G01*
X52981000Y-53624000D02*
X53219000Y-53624000D01*
G75*
G02*
X53317000Y-53722000I0J-98000D01*
G01*
X53317000Y-53918000D01*
G75*
G02*
X53219000Y-54016000I-98000J0D01*
G01*
X52981000Y-54016000D01*
G75*
G02*
X52883000Y-53918000I0J98000D01*
G01*
X52883000Y-53722000D01*
G75*
G02*
X52981000Y-53624000I98000J0D01*
G01*
G37*
X57419000Y-28194000D03*
X62469000Y-28194000D03*
X57419000Y-30734000D03*
X62469000Y-30734000D03*
X57419000Y-33274000D03*
X62469000Y-33274000D03*
X57419000Y-35814000D03*
X62469000Y-35814000D03*
X57419000Y-38354000D03*
X62469000Y-38354000D03*
X57419000Y-40894000D03*
X62469000Y-40894000D03*
X57419000Y-43434000D03*
X62469000Y-43434000D03*
X57419000Y-45974000D03*
X62469000Y-45974000D03*
G36*
G01*
X47321000Y-30529500D02*
X47321000Y-30270500D01*
G75*
G02*
X47415500Y-30176000I94500J0D01*
G01*
X47604500Y-30176000D01*
G75*
G02*
X47699000Y-30270500I0J-94500D01*
G01*
X47699000Y-30529500D01*
G75*
G02*
X47604500Y-30624000I-94500J0D01*
G01*
X47415500Y-30624000D01*
G75*
G02*
X47321000Y-30529500I0J94500D01*
G01*
G37*
G36*
G01*
X46301000Y-30529500D02*
X46301000Y-30270500D01*
G75*
G02*
X46395500Y-30176000I94500J0D01*
G01*
X46584500Y-30176000D01*
G75*
G02*
X46679000Y-30270500I0J-94500D01*
G01*
X46679000Y-30529500D01*
G75*
G02*
X46584500Y-30624000I-94500J0D01*
G01*
X46395500Y-30624000D01*
G75*
G02*
X46301000Y-30529500I0J94500D01*
G01*
G37*
X122550000Y-73910000D03*
X117500000Y-73910000D03*
X122550000Y-71370000D03*
X117500000Y-71370000D03*
X122550000Y-68830000D03*
X117500000Y-68830000D03*
X122550000Y-66290000D03*
X117500000Y-66290000D03*
X122550000Y-63750000D03*
X117500000Y-63750000D03*
X122550000Y-61210000D03*
X117500000Y-61210000D03*
X122550000Y-58670000D03*
X117500000Y-58670000D03*
X122550000Y-56130000D03*
X117500000Y-56130000D03*
X87475000Y-28194000D03*
X92525000Y-28194000D03*
X87475000Y-30734000D03*
X92525000Y-30734000D03*
X87475000Y-33274000D03*
X92525000Y-33274000D03*
X87475000Y-35814000D03*
X92525000Y-35814000D03*
X87475000Y-38354000D03*
X92525000Y-38354000D03*
X87475000Y-40894000D03*
X92525000Y-40894000D03*
X87475000Y-43434000D03*
X92525000Y-43434000D03*
X87475000Y-45974000D03*
X92525000Y-45974000D03*
G36*
G01*
X49243750Y-38195000D02*
X49243750Y-38055000D01*
G75*
G02*
X49313750Y-37985000I70000J0D01*
G01*
X50311250Y-37985000D01*
G75*
G02*
X50381250Y-38055000I0J-70000D01*
G01*
X50381250Y-38195000D01*
G75*
G02*
X50311250Y-38265000I-70000J0D01*
G01*
X49313750Y-38265000D01*
G75*
G02*
X49243750Y-38195000I0J70000D01*
G01*
G37*
G36*
G01*
X49243750Y-38845000D02*
X49243750Y-38705000D01*
G75*
G02*
X49313750Y-38635000I70000J0D01*
G01*
X50311250Y-38635000D01*
G75*
G02*
X50381250Y-38705000I0J-70000D01*
G01*
X50381250Y-38845000D01*
G75*
G02*
X50311250Y-38915000I-70000J0D01*
G01*
X49313750Y-38915000D01*
G75*
G02*
X49243750Y-38845000I0J70000D01*
G01*
G37*
G36*
G01*
X49243750Y-39495000D02*
X49243750Y-39355000D01*
G75*
G02*
X49313750Y-39285000I70000J0D01*
G01*
X50311250Y-39285000D01*
G75*
G02*
X50381250Y-39355000I0J-70000D01*
G01*
X50381250Y-39495000D01*
G75*
G02*
X50311250Y-39565000I-70000J0D01*
G01*
X49313750Y-39565000D01*
G75*
G02*
X49243750Y-39495000I0J70000D01*
G01*
G37*
G36*
G01*
X49243750Y-40145000D02*
X49243750Y-40005000D01*
G75*
G02*
X49313750Y-39935000I70000J0D01*
G01*
X50311250Y-39935000D01*
G75*
G02*
X50381250Y-40005000I0J-70000D01*
G01*
X50381250Y-40145000D01*
G75*
G02*
X50311250Y-40215000I-70000J0D01*
G01*
X49313750Y-40215000D01*
G75*
G02*
X49243750Y-40145000I0J70000D01*
G01*
G37*
G36*
G01*
X45018750Y-40145000D02*
X45018750Y-40005000D01*
G75*
G02*
X45088750Y-39935000I70000J0D01*
G01*
X46086250Y-39935000D01*
G75*
G02*
X46156250Y-40005000I0J-70000D01*
G01*
X46156250Y-40145000D01*
G75*
G02*
X46086250Y-40215000I-70000J0D01*
G01*
X45088750Y-40215000D01*
G75*
G02*
X45018750Y-40145000I0J70000D01*
G01*
G37*
G36*
G01*
X45018750Y-39495000D02*
X45018750Y-39355000D01*
G75*
G02*
X45088750Y-39285000I70000J0D01*
G01*
X46086250Y-39285000D01*
G75*
G02*
X46156250Y-39355000I0J-70000D01*
G01*
X46156250Y-39495000D01*
G75*
G02*
X46086250Y-39565000I-70000J0D01*
G01*
X45088750Y-39565000D01*
G75*
G02*
X45018750Y-39495000I0J70000D01*
G01*
G37*
G36*
G01*
X45018750Y-38845000D02*
X45018750Y-38705000D01*
G75*
G02*
X45088750Y-38635000I70000J0D01*
G01*
X46086250Y-38635000D01*
G75*
G02*
X46156250Y-38705000I0J-70000D01*
G01*
X46156250Y-38845000D01*
G75*
G02*
X46086250Y-38915000I-70000J0D01*
G01*
X45088750Y-38915000D01*
G75*
G02*
X45018750Y-38845000I0J70000D01*
G01*
G37*
G36*
G01*
X45018750Y-38195000D02*
X45018750Y-38055000D01*
G75*
G02*
X45088750Y-37985000I70000J0D01*
G01*
X46086250Y-37985000D01*
G75*
G02*
X46156250Y-38055000I0J-70000D01*
G01*
X46156250Y-38195000D01*
G75*
G02*
X46086250Y-38265000I-70000J0D01*
G01*
X45088750Y-38265000D01*
G75*
G02*
X45018750Y-38195000I0J70000D01*
G01*
G37*
G36*
G01*
X49279000Y-30270500D02*
X49279000Y-30529500D01*
G75*
G02*
X49184500Y-30624000I-94500J0D01*
G01*
X48995500Y-30624000D01*
G75*
G02*
X48901000Y-30529500I0J94500D01*
G01*
X48901000Y-30270500D01*
G75*
G02*
X48995500Y-30176000I94500J0D01*
G01*
X49184500Y-30176000D01*
G75*
G02*
X49279000Y-30270500I0J-94500D01*
G01*
G37*
G36*
G01*
X50299000Y-30270500D02*
X50299000Y-30529500D01*
G75*
G02*
X50204500Y-30624000I-94500J0D01*
G01*
X50015500Y-30624000D01*
G75*
G02*
X49921000Y-30529500I0J94500D01*
G01*
X49921000Y-30270500D01*
G75*
G02*
X50015500Y-30176000I94500J0D01*
G01*
X50204500Y-30176000D01*
G75*
G02*
X50299000Y-30270500I0J-94500D01*
G01*
G37*
X92525000Y-73890000D03*
X87475000Y-73890000D03*
X92525000Y-71350000D03*
X87475000Y-71350000D03*
X92525000Y-68810000D03*
X87475000Y-68810000D03*
X92525000Y-66270000D03*
X87475000Y-66270000D03*
X92525000Y-63730000D03*
X87475000Y-63730000D03*
X92525000Y-61190000D03*
X87475000Y-61190000D03*
X92525000Y-58650000D03*
X87475000Y-58650000D03*
X92525000Y-56110000D03*
X87475000Y-56110000D03*
X62525000Y-73890000D03*
X57475000Y-73890000D03*
X62525000Y-71350000D03*
X57475000Y-71350000D03*
X62525000Y-68810000D03*
X57475000Y-68810000D03*
X62525000Y-66270000D03*
X57475000Y-66270000D03*
X62525000Y-63730000D03*
X57475000Y-63730000D03*
X62525000Y-61190000D03*
X57475000Y-61190000D03*
X62525000Y-58650000D03*
X57475000Y-58650000D03*
X62525000Y-56110000D03*
X57475000Y-56110000D03*
G36*
G01*
X49919375Y-32203750D02*
X49280625Y-32203750D01*
G75*
G02*
X49110000Y-32033125I0J170625D01*
G01*
X49110000Y-31691875D01*
G75*
G02*
X49280625Y-31521250I170625J0D01*
G01*
X49919375Y-31521250D01*
G75*
G02*
X50090000Y-31691875I0J-170625D01*
G01*
X50090000Y-32033125D01*
G75*
G02*
X49919375Y-32203750I-170625J0D01*
G01*
G37*
G36*
G01*
X49919375Y-34078750D02*
X49280625Y-34078750D01*
G75*
G02*
X49110000Y-33908125I0J170625D01*
G01*
X49110000Y-33566875D01*
G75*
G02*
X49280625Y-33396250I170625J0D01*
G01*
X49919375Y-33396250D01*
G75*
G02*
X50090000Y-33566875I0J-170625D01*
G01*
X50090000Y-33908125D01*
G75*
G02*
X49919375Y-34078750I-170625J0D01*
G01*
G37*
X97475000Y-28194000D03*
X102525000Y-28194000D03*
X97475000Y-30734000D03*
X102525000Y-30734000D03*
X97475000Y-33274000D03*
X102525000Y-33274000D03*
X97475000Y-35814000D03*
X102525000Y-35814000D03*
X97475000Y-38354000D03*
X102525000Y-38354000D03*
X97475000Y-40894000D03*
X102525000Y-40894000D03*
X97475000Y-43434000D03*
X102525000Y-43434000D03*
X97475000Y-45974000D03*
X102525000Y-45974000D03*
X132525000Y-73890000D03*
X127475000Y-73890000D03*
X132525000Y-71350000D03*
X127475000Y-71350000D03*
X132525000Y-68810000D03*
X127475000Y-68810000D03*
X132525000Y-66270000D03*
X127475000Y-66270000D03*
X132525000Y-63730000D03*
X127475000Y-63730000D03*
X132525000Y-61190000D03*
X127475000Y-61190000D03*
X132525000Y-58650000D03*
X127475000Y-58650000D03*
X132525000Y-56110000D03*
X127475000Y-56110000D03*
X117475000Y-28194000D03*
X122525000Y-28194000D03*
X117475000Y-30734000D03*
X122525000Y-30734000D03*
X117475000Y-33274000D03*
X122525000Y-33274000D03*
X117475000Y-35814000D03*
X122525000Y-35814000D03*
X117475000Y-38354000D03*
X122525000Y-38354000D03*
X117475000Y-40894000D03*
X122525000Y-40894000D03*
X117475000Y-43434000D03*
X122525000Y-43434000D03*
X117475000Y-45974000D03*
X122525000Y-45974000D03*
X77475000Y-28194000D03*
X82525000Y-28194000D03*
X77475000Y-30734000D03*
X82525000Y-30734000D03*
X77475000Y-33274000D03*
X82525000Y-33274000D03*
X77475000Y-35814000D03*
X82525000Y-35814000D03*
X77475000Y-38354000D03*
X82525000Y-38354000D03*
X77475000Y-40894000D03*
X82525000Y-40894000D03*
X77475000Y-43434000D03*
X82525000Y-43434000D03*
X77475000Y-45974000D03*
X82525000Y-45974000D03*
X67475000Y-28194000D03*
X72525000Y-28194000D03*
X67475000Y-30734000D03*
X72525000Y-30734000D03*
X67475000Y-33274000D03*
X72525000Y-33274000D03*
X67475000Y-35814000D03*
X72525000Y-35814000D03*
X67475000Y-38354000D03*
X72525000Y-38354000D03*
X67475000Y-40894000D03*
X72525000Y-40894000D03*
X67475000Y-43434000D03*
X72525000Y-43434000D03*
X67475000Y-45974000D03*
X72525000Y-45974000D03*
X107475000Y-28194000D03*
X112525000Y-28194000D03*
X107475000Y-30734000D03*
X112525000Y-30734000D03*
X107475000Y-33274000D03*
X112525000Y-33274000D03*
X107475000Y-35814000D03*
X112525000Y-35814000D03*
X107475000Y-38354000D03*
X112525000Y-38354000D03*
X107475000Y-40894000D03*
X112525000Y-40894000D03*
X107475000Y-43434000D03*
X112525000Y-43434000D03*
X107475000Y-45974000D03*
X112525000Y-45974000D03*
G36*
G01*
X45229500Y-42859000D02*
X44970500Y-42859000D01*
G75*
G02*
X44876000Y-42764500I0J94500D01*
G01*
X44876000Y-42575500D01*
G75*
G02*
X44970500Y-42481000I94500J0D01*
G01*
X45229500Y-42481000D01*
G75*
G02*
X45324000Y-42575500I0J-94500D01*
G01*
X45324000Y-42764500D01*
G75*
G02*
X45229500Y-42859000I-94500J0D01*
G01*
G37*
G36*
G01*
X45229500Y-43879000D02*
X44970500Y-43879000D01*
G75*
G02*
X44876000Y-43784500I0J94500D01*
G01*
X44876000Y-43595500D01*
G75*
G02*
X44970500Y-43501000I94500J0D01*
G01*
X45229500Y-43501000D01*
G75*
G02*
X45324000Y-43595500I0J-94500D01*
G01*
X45324000Y-43784500D01*
G75*
G02*
X45229500Y-43879000I-94500J0D01*
G01*
G37*
G36*
G01*
X47319375Y-32203750D02*
X46680625Y-32203750D01*
G75*
G02*
X46510000Y-32033125I0J170625D01*
G01*
X46510000Y-31691875D01*
G75*
G02*
X46680625Y-31521250I170625J0D01*
G01*
X47319375Y-31521250D01*
G75*
G02*
X47490000Y-31691875I0J-170625D01*
G01*
X47490000Y-32033125D01*
G75*
G02*
X47319375Y-32203750I-170625J0D01*
G01*
G37*
G36*
G01*
X47319375Y-34078750D02*
X46680625Y-34078750D01*
G75*
G02*
X46510000Y-33908125I0J170625D01*
G01*
X46510000Y-33566875D01*
G75*
G02*
X46680625Y-33396250I170625J0D01*
G01*
X47319375Y-33396250D01*
G75*
G02*
X47490000Y-33566875I0J-170625D01*
G01*
X47490000Y-33908125D01*
G75*
G02*
X47319375Y-34078750I-170625J0D01*
G01*
G37*
X72525000Y-73890000D03*
X67475000Y-73890000D03*
X72525000Y-71350000D03*
X67475000Y-71350000D03*
X72525000Y-68810000D03*
X67475000Y-68810000D03*
X72525000Y-66270000D03*
X67475000Y-66270000D03*
X72525000Y-63730000D03*
X67475000Y-63730000D03*
X72525000Y-61190000D03*
X67475000Y-61190000D03*
X72525000Y-58650000D03*
X67475000Y-58650000D03*
X72525000Y-56110000D03*
X67475000Y-56110000D03*
X112525000Y-73890000D03*
X107475000Y-73890000D03*
X112525000Y-71350000D03*
X107475000Y-71350000D03*
X112525000Y-68810000D03*
X107475000Y-68810000D03*
X112525000Y-66270000D03*
X107475000Y-66270000D03*
X112525000Y-63730000D03*
X107475000Y-63730000D03*
X112525000Y-61190000D03*
X107475000Y-61190000D03*
X112525000Y-58650000D03*
X107475000Y-58650000D03*
X112525000Y-56110000D03*
X107475000Y-56110000D03*
G36*
G01*
X46179000Y-41370500D02*
X46179000Y-41629500D01*
G75*
G02*
X46084500Y-41724000I-94500J0D01*
G01*
X45895500Y-41724000D01*
G75*
G02*
X45801000Y-41629500I0J94500D01*
G01*
X45801000Y-41370500D01*
G75*
G02*
X45895500Y-41276000I94500J0D01*
G01*
X46084500Y-41276000D01*
G75*
G02*
X46179000Y-41370500I0J-94500D01*
G01*
G37*
G36*
G01*
X47199000Y-41370500D02*
X47199000Y-41629500D01*
G75*
G02*
X47104500Y-41724000I-94500J0D01*
G01*
X46915500Y-41724000D01*
G75*
G02*
X46821000Y-41629500I0J94500D01*
G01*
X46821000Y-41370500D01*
G75*
G02*
X46915500Y-41276000I94500J0D01*
G01*
X47104500Y-41276000D01*
G75*
G02*
X47199000Y-41370500I0J-94500D01*
G01*
G37*
G36*
G01*
X43979000Y-36670500D02*
X43979000Y-36929500D01*
G75*
G02*
X43884500Y-37024000I-94500J0D01*
G01*
X43695500Y-37024000D01*
G75*
G02*
X43601000Y-36929500I0J94500D01*
G01*
X43601000Y-36670500D01*
G75*
G02*
X43695500Y-36576000I94500J0D01*
G01*
X43884500Y-36576000D01*
G75*
G02*
X43979000Y-36670500I0J-94500D01*
G01*
G37*
G36*
G01*
X44999000Y-36670500D02*
X44999000Y-36929500D01*
G75*
G02*
X44904500Y-37024000I-94500J0D01*
G01*
X44715500Y-37024000D01*
G75*
G02*
X44621000Y-36929500I0J94500D01*
G01*
X44621000Y-36670500D01*
G75*
G02*
X44715500Y-36576000I94500J0D01*
G01*
X44904500Y-36576000D01*
G75*
G02*
X44999000Y-36670500I0J-94500D01*
G01*
G37*
G36*
G01*
X50284000Y-36919000D02*
X50284000Y-36681000D01*
G75*
G02*
X50382000Y-36583000I98000J0D01*
G01*
X50578000Y-36583000D01*
G75*
G02*
X50676000Y-36681000I0J-98000D01*
G01*
X50676000Y-36919000D01*
G75*
G02*
X50578000Y-37017000I-98000J0D01*
G01*
X50382000Y-37017000D01*
G75*
G02*
X50284000Y-36919000I0J98000D01*
G01*
G37*
G36*
G01*
X49324000Y-36919000D02*
X49324000Y-36681000D01*
G75*
G02*
X49422000Y-36583000I98000J0D01*
G01*
X49618000Y-36583000D01*
G75*
G02*
X49716000Y-36681000I0J-98000D01*
G01*
X49716000Y-36919000D01*
G75*
G02*
X49618000Y-37017000I-98000J0D01*
G01*
X49422000Y-37017000D01*
G75*
G02*
X49324000Y-36919000I0J98000D01*
G01*
G37*
G36*
G01*
X49019000Y-42916000D02*
X48781000Y-42916000D01*
G75*
G02*
X48683000Y-42818000I0J98000D01*
G01*
X48683000Y-42622000D01*
G75*
G02*
X48781000Y-42524000I98000J0D01*
G01*
X49019000Y-42524000D01*
G75*
G02*
X49117000Y-42622000I0J-98000D01*
G01*
X49117000Y-42818000D01*
G75*
G02*
X49019000Y-42916000I-98000J0D01*
G01*
G37*
G36*
G01*
X49019000Y-43876000D02*
X48781000Y-43876000D01*
G75*
G02*
X48683000Y-43778000I0J98000D01*
G01*
X48683000Y-43582000D01*
G75*
G02*
X48781000Y-43484000I98000J0D01*
G01*
X49019000Y-43484000D01*
G75*
G02*
X49117000Y-43582000I0J-98000D01*
G01*
X49117000Y-43778000D01*
G75*
G02*
X49019000Y-43876000I-98000J0D01*
G01*
G37*
D11*
X42150000Y-56850000D03*
D12*
X40150000Y-47350000D03*
X40150000Y-47850000D03*
X40150000Y-48350000D03*
X40150000Y-48850000D03*
X40150000Y-49350000D03*
X40150000Y-49850000D03*
X40150000Y-50350000D03*
X40150000Y-50850000D03*
X40150000Y-51350000D03*
X40150000Y-51850000D03*
X40150000Y-52350000D03*
X40150000Y-52850000D03*
X40150000Y-53350000D03*
X40150000Y-53850000D03*
X40150000Y-54350000D03*
X40150000Y-54850000D03*
D11*
X42650000Y-56850000D03*
X43150000Y-56850000D03*
X43650000Y-56850000D03*
X44150000Y-56850000D03*
X44650000Y-56850000D03*
X45150000Y-56850000D03*
X45650000Y-56850000D03*
X46150000Y-56850000D03*
X46650000Y-56850000D03*
X47150000Y-56850000D03*
X47650000Y-56850000D03*
X48150000Y-56850000D03*
X48650000Y-56850000D03*
X49150000Y-56850000D03*
X49650000Y-56850000D03*
D12*
X51650000Y-54850000D03*
X51650000Y-54350000D03*
X51650000Y-53850000D03*
X51650000Y-53350000D03*
X51650000Y-52850000D03*
X51650000Y-52350000D03*
X51650000Y-51850000D03*
X51650000Y-51350000D03*
X51650000Y-50850000D03*
X51650000Y-50350000D03*
X51650000Y-49850000D03*
X51650000Y-49350000D03*
X51650000Y-48850000D03*
X51650000Y-48350000D03*
X51650000Y-47850000D03*
X51650000Y-47350000D03*
D11*
X49650000Y-45350000D03*
X49150000Y-45350000D03*
X48650000Y-45350000D03*
X48150000Y-45350000D03*
X47650000Y-45350000D03*
X47150000Y-45350000D03*
X46650000Y-45350000D03*
X46150000Y-45350000D03*
X45650000Y-45350000D03*
X45150000Y-45350000D03*
X44650000Y-45350000D03*
X44150000Y-45350000D03*
X43650000Y-45350000D03*
X43150000Y-45350000D03*
X42650000Y-45350000D03*
X42150000Y-45350000D03*
G36*
G01*
X42319000Y-42896000D02*
X42081000Y-42896000D01*
G75*
G02*
X41983000Y-42798000I0J98000D01*
G01*
X41983000Y-42602000D01*
G75*
G02*
X42081000Y-42504000I98000J0D01*
G01*
X42319000Y-42504000D01*
G75*
G02*
X42417000Y-42602000I0J-98000D01*
G01*
X42417000Y-42798000D01*
G75*
G02*
X42319000Y-42896000I-98000J0D01*
G01*
G37*
G36*
G01*
X42319000Y-43856000D02*
X42081000Y-43856000D01*
G75*
G02*
X41983000Y-43758000I0J98000D01*
G01*
X41983000Y-43562000D01*
G75*
G02*
X42081000Y-43464000I98000J0D01*
G01*
X42319000Y-43464000D01*
G75*
G02*
X42417000Y-43562000I0J-98000D01*
G01*
X42417000Y-43758000D01*
G75*
G02*
X42319000Y-43856000I-98000J0D01*
G01*
G37*
G36*
G01*
X38481000Y-54284000D02*
X38719000Y-54284000D01*
G75*
G02*
X38817000Y-54382000I0J-98000D01*
G01*
X38817000Y-54578000D01*
G75*
G02*
X38719000Y-54676000I-98000J0D01*
G01*
X38481000Y-54676000D01*
G75*
G02*
X38383000Y-54578000I0J98000D01*
G01*
X38383000Y-54382000D01*
G75*
G02*
X38481000Y-54284000I98000J0D01*
G01*
G37*
G36*
G01*
X38481000Y-53324000D02*
X38719000Y-53324000D01*
G75*
G02*
X38817000Y-53422000I0J-98000D01*
G01*
X38817000Y-53618000D01*
G75*
G02*
X38719000Y-53716000I-98000J0D01*
G01*
X38481000Y-53716000D01*
G75*
G02*
X38383000Y-53618000I0J98000D01*
G01*
X38383000Y-53422000D01*
G75*
G02*
X38481000Y-53324000I98000J0D01*
G01*
G37*
G36*
G01*
X165446250Y-57284999D02*
X165446250Y-57915001D01*
G75*
G02*
X165271251Y-58090000I-174999J0D01*
G01*
X164903749Y-58090000D01*
G75*
G02*
X164728750Y-57915001I0J174999D01*
G01*
X164728750Y-57284999D01*
G75*
G02*
X164903749Y-57110000I174999J0D01*
G01*
X165271251Y-57110000D01*
G75*
G02*
X165446250Y-57284999I0J-174999D01*
G01*
G37*
G36*
G01*
X167271250Y-57284999D02*
X167271250Y-57915001D01*
G75*
G02*
X167096251Y-58090000I-174999J0D01*
G01*
X166728749Y-58090000D01*
G75*
G02*
X166553750Y-57915001I0J174999D01*
G01*
X166553750Y-57284999D01*
G75*
G02*
X166728749Y-57110000I174999J0D01*
G01*
X167096251Y-57110000D01*
G75*
G02*
X167271250Y-57284999I0J-174999D01*
G01*
G37*
G36*
G01*
X161993750Y-55151250D02*
X161906250Y-55151250D01*
G75*
G02*
X161862500Y-55107500I0J43750D01*
G01*
X161862500Y-54617500D01*
G75*
G02*
X161906250Y-54573750I43750J0D01*
G01*
X161993750Y-54573750D01*
G75*
G02*
X162037500Y-54617500I0J-43750D01*
G01*
X162037500Y-55107500D01*
G75*
G02*
X161993750Y-55151250I-43750J0D01*
G01*
G37*
G36*
G01*
X162493750Y-55151250D02*
X162406250Y-55151250D01*
G75*
G02*
X162362500Y-55107500I0J43750D01*
G01*
X162362500Y-54617500D01*
G75*
G02*
X162406250Y-54573750I43750J0D01*
G01*
X162493750Y-54573750D01*
G75*
G02*
X162537500Y-54617500I0J-43750D01*
G01*
X162537500Y-55107500D01*
G75*
G02*
X162493750Y-55151250I-43750J0D01*
G01*
G37*
G36*
G01*
X162993750Y-55151250D02*
X162906250Y-55151250D01*
G75*
G02*
X162862500Y-55107500I0J43750D01*
G01*
X162862500Y-54617500D01*
G75*
G02*
X162906250Y-54573750I43750J0D01*
G01*
X162993750Y-54573750D01*
G75*
G02*
X163037500Y-54617500I0J-43750D01*
G01*
X163037500Y-55107500D01*
G75*
G02*
X162993750Y-55151250I-43750J0D01*
G01*
G37*
G36*
G01*
X163493750Y-55151250D02*
X163406250Y-55151250D01*
G75*
G02*
X163362500Y-55107500I0J43750D01*
G01*
X163362500Y-54617500D01*
G75*
G02*
X163406250Y-54573750I43750J0D01*
G01*
X163493750Y-54573750D01*
G75*
G02*
X163537500Y-54617500I0J-43750D01*
G01*
X163537500Y-55107500D01*
G75*
G02*
X163493750Y-55151250I-43750J0D01*
G01*
G37*
G36*
G01*
X164407500Y-54237500D02*
X163917500Y-54237500D01*
G75*
G02*
X163873750Y-54193750I0J43750D01*
G01*
X163873750Y-54106250D01*
G75*
G02*
X163917500Y-54062500I43750J0D01*
G01*
X164407500Y-54062500D01*
G75*
G02*
X164451250Y-54106250I0J-43750D01*
G01*
X164451250Y-54193750D01*
G75*
G02*
X164407500Y-54237500I-43750J0D01*
G01*
G37*
G36*
G01*
X164407500Y-53737500D02*
X163917500Y-53737500D01*
G75*
G02*
X163873750Y-53693750I0J43750D01*
G01*
X163873750Y-53606250D01*
G75*
G02*
X163917500Y-53562500I43750J0D01*
G01*
X164407500Y-53562500D01*
G75*
G02*
X164451250Y-53606250I0J-43750D01*
G01*
X164451250Y-53693750D01*
G75*
G02*
X164407500Y-53737500I-43750J0D01*
G01*
G37*
G36*
G01*
X164407500Y-53237500D02*
X163917500Y-53237500D01*
G75*
G02*
X163873750Y-53193750I0J43750D01*
G01*
X163873750Y-53106250D01*
G75*
G02*
X163917500Y-53062500I43750J0D01*
G01*
X164407500Y-53062500D01*
G75*
G02*
X164451250Y-53106250I0J-43750D01*
G01*
X164451250Y-53193750D01*
G75*
G02*
X164407500Y-53237500I-43750J0D01*
G01*
G37*
G36*
G01*
X164407500Y-52737500D02*
X163917500Y-52737500D01*
G75*
G02*
X163873750Y-52693750I0J43750D01*
G01*
X163873750Y-52606250D01*
G75*
G02*
X163917500Y-52562500I43750J0D01*
G01*
X164407500Y-52562500D01*
G75*
G02*
X164451250Y-52606250I0J-43750D01*
G01*
X164451250Y-52693750D01*
G75*
G02*
X164407500Y-52737500I-43750J0D01*
G01*
G37*
G36*
G01*
X163493750Y-52226250D02*
X163406250Y-52226250D01*
G75*
G02*
X163362500Y-52182500I0J43750D01*
G01*
X163362500Y-51692500D01*
G75*
G02*
X163406250Y-51648750I43750J0D01*
G01*
X163493750Y-51648750D01*
G75*
G02*
X163537500Y-51692500I0J-43750D01*
G01*
X163537500Y-52182500D01*
G75*
G02*
X163493750Y-52226250I-43750J0D01*
G01*
G37*
G36*
G01*
X162993750Y-52226250D02*
X162906250Y-52226250D01*
G75*
G02*
X162862500Y-52182500I0J43750D01*
G01*
X162862500Y-51692500D01*
G75*
G02*
X162906250Y-51648750I43750J0D01*
G01*
X162993750Y-51648750D01*
G75*
G02*
X163037500Y-51692500I0J-43750D01*
G01*
X163037500Y-52182500D01*
G75*
G02*
X162993750Y-52226250I-43750J0D01*
G01*
G37*
G36*
G01*
X162493750Y-52226250D02*
X162406250Y-52226250D01*
G75*
G02*
X162362500Y-52182500I0J43750D01*
G01*
X162362500Y-51692500D01*
G75*
G02*
X162406250Y-51648750I43750J0D01*
G01*
X162493750Y-51648750D01*
G75*
G02*
X162537500Y-51692500I0J-43750D01*
G01*
X162537500Y-52182500D01*
G75*
G02*
X162493750Y-52226250I-43750J0D01*
G01*
G37*
G36*
G01*
X161993750Y-52226250D02*
X161906250Y-52226250D01*
G75*
G02*
X161862500Y-52182500I0J43750D01*
G01*
X161862500Y-51692500D01*
G75*
G02*
X161906250Y-51648750I43750J0D01*
G01*
X161993750Y-51648750D01*
G75*
G02*
X162037500Y-51692500I0J-43750D01*
G01*
X162037500Y-52182500D01*
G75*
G02*
X161993750Y-52226250I-43750J0D01*
G01*
G37*
G36*
G01*
X161482500Y-52737500D02*
X160992500Y-52737500D01*
G75*
G02*
X160948750Y-52693750I0J43750D01*
G01*
X160948750Y-52606250D01*
G75*
G02*
X160992500Y-52562500I43750J0D01*
G01*
X161482500Y-52562500D01*
G75*
G02*
X161526250Y-52606250I0J-43750D01*
G01*
X161526250Y-52693750D01*
G75*
G02*
X161482500Y-52737500I-43750J0D01*
G01*
G37*
G36*
G01*
X161482500Y-53237500D02*
X160992500Y-53237500D01*
G75*
G02*
X160948750Y-53193750I0J43750D01*
G01*
X160948750Y-53106250D01*
G75*
G02*
X160992500Y-53062500I43750J0D01*
G01*
X161482500Y-53062500D01*
G75*
G02*
X161526250Y-53106250I0J-43750D01*
G01*
X161526250Y-53193750D01*
G75*
G02*
X161482500Y-53237500I-43750J0D01*
G01*
G37*
G36*
G01*
X161482500Y-53737500D02*
X160992500Y-53737500D01*
G75*
G02*
X160948750Y-53693750I0J43750D01*
G01*
X160948750Y-53606250D01*
G75*
G02*
X160992500Y-53562500I43750J0D01*
G01*
X161482500Y-53562500D01*
G75*
G02*
X161526250Y-53606250I0J-43750D01*
G01*
X161526250Y-53693750D01*
G75*
G02*
X161482500Y-53737500I-43750J0D01*
G01*
G37*
G36*
G01*
X161482500Y-54237500D02*
X160992500Y-54237500D01*
G75*
G02*
X160948750Y-54193750I0J43750D01*
G01*
X160948750Y-54106250D01*
G75*
G02*
X160992500Y-54062500I43750J0D01*
G01*
X161482500Y-54062500D01*
G75*
G02*
X161526250Y-54106250I0J-43750D01*
G01*
X161526250Y-54193750D01*
G75*
G02*
X161482500Y-54237500I-43750J0D01*
G01*
G37*
G36*
G01*
X162462500Y-54185000D02*
X162097500Y-54185000D01*
G75*
G02*
X161915000Y-54002500I0J182500D01*
G01*
X161915000Y-53637500D01*
G75*
G02*
X162097500Y-53455000I182500J0D01*
G01*
X162462500Y-53455000D01*
G75*
G02*
X162645000Y-53637500I0J-182500D01*
G01*
X162645000Y-54002500D01*
G75*
G02*
X162462500Y-54185000I-182500J0D01*
G01*
G37*
G36*
G01*
X163302500Y-54185000D02*
X162937500Y-54185000D01*
G75*
G02*
X162755000Y-54002500I0J182500D01*
G01*
X162755000Y-53637500D01*
G75*
G02*
X162937500Y-53455000I182500J0D01*
G01*
X163302500Y-53455000D01*
G75*
G02*
X163485000Y-53637500I0J-182500D01*
G01*
X163485000Y-54002500D01*
G75*
G02*
X163302500Y-54185000I-182500J0D01*
G01*
G37*
G36*
G01*
X162462500Y-53345000D02*
X162097500Y-53345000D01*
G75*
G02*
X161915000Y-53162500I0J182500D01*
G01*
X161915000Y-52797500D01*
G75*
G02*
X162097500Y-52615000I182500J0D01*
G01*
X162462500Y-52615000D01*
G75*
G02*
X162645000Y-52797500I0J-182500D01*
G01*
X162645000Y-53162500D01*
G75*
G02*
X162462500Y-53345000I-182500J0D01*
G01*
G37*
G36*
G01*
X163302500Y-53345000D02*
X162937500Y-53345000D01*
G75*
G02*
X162755000Y-53162500I0J182500D01*
G01*
X162755000Y-52797500D01*
G75*
G02*
X162937500Y-52615000I182500J0D01*
G01*
X163302500Y-52615000D01*
G75*
G02*
X163485000Y-52797500I0J-182500D01*
G01*
X163485000Y-53162500D01*
G75*
G02*
X163302500Y-53345000I-182500J0D01*
G01*
G37*
G36*
G01*
X161553750Y-61915001D02*
X161553750Y-61284999D01*
G75*
G02*
X161728749Y-61110000I174999J0D01*
G01*
X162096251Y-61110000D01*
G75*
G02*
X162271250Y-61284999I0J-174999D01*
G01*
X162271250Y-61915001D01*
G75*
G02*
X162096251Y-62090000I-174999J0D01*
G01*
X161728749Y-62090000D01*
G75*
G02*
X161553750Y-61915001I0J174999D01*
G01*
G37*
G36*
G01*
X159728750Y-61915001D02*
X159728750Y-61284999D01*
G75*
G02*
X159903749Y-61110000I174999J0D01*
G01*
X160271251Y-61110000D01*
G75*
G02*
X160446250Y-61284999I0J-174999D01*
G01*
X160446250Y-61915001D01*
G75*
G02*
X160271251Y-62090000I-174999J0D01*
G01*
X159903749Y-62090000D01*
G75*
G02*
X159728750Y-61915001I0J174999D01*
G01*
G37*
D13*
X159650000Y-58000000D03*
X162350000Y-58000000D03*
G36*
G01*
X157570001Y-53927500D02*
X156029999Y-53927500D01*
G75*
G02*
X155855000Y-53752501I0J174999D01*
G01*
X155855000Y-53297499D01*
G75*
G02*
X156029999Y-53122500I174999J0D01*
G01*
X157570001Y-53122500D01*
G75*
G02*
X157745000Y-53297499I0J-174999D01*
G01*
X157745000Y-53752501D01*
G75*
G02*
X157570001Y-53927500I-174999J0D01*
G01*
G37*
G36*
G01*
X157570001Y-56877500D02*
X156029999Y-56877500D01*
G75*
G02*
X155855000Y-56702501I0J174999D01*
G01*
X155855000Y-56247499D01*
G75*
G02*
X156029999Y-56072500I174999J0D01*
G01*
X157570001Y-56072500D01*
G75*
G02*
X157745000Y-56247499I0J-174999D01*
G01*
X157745000Y-56702501D01*
G75*
G02*
X157570001Y-56877500I-174999J0D01*
G01*
G37*
G36*
G01*
X157927500Y-47729999D02*
X157927500Y-49270001D01*
G75*
G02*
X157752501Y-49445000I-174999J0D01*
G01*
X157297499Y-49445000D01*
G75*
G02*
X157122500Y-49270001I0J174999D01*
G01*
X157122500Y-47729999D01*
G75*
G02*
X157297499Y-47555000I174999J0D01*
G01*
X157752501Y-47555000D01*
G75*
G02*
X157927500Y-47729999I0J-174999D01*
G01*
G37*
G36*
G01*
X160877500Y-47729999D02*
X160877500Y-49270001D01*
G75*
G02*
X160702501Y-49445000I-174999J0D01*
G01*
X160247499Y-49445000D01*
G75*
G02*
X160072500Y-49270001I0J174999D01*
G01*
X160072500Y-47729999D01*
G75*
G02*
X160247499Y-47555000I174999J0D01*
G01*
X160702501Y-47555000D01*
G75*
G02*
X160877500Y-47729999I0J-174999D01*
G01*
G37*
G36*
G01*
X156753750Y-44515001D02*
X156753750Y-43884999D01*
G75*
G02*
X156928749Y-43710000I174999J0D01*
G01*
X157296251Y-43710000D01*
G75*
G02*
X157471250Y-43884999I0J-174999D01*
G01*
X157471250Y-44515001D01*
G75*
G02*
X157296251Y-44690000I-174999J0D01*
G01*
X156928749Y-44690000D01*
G75*
G02*
X156753750Y-44515001I0J174999D01*
G01*
G37*
G36*
G01*
X154928750Y-44515001D02*
X154928750Y-43884999D01*
G75*
G02*
X155103749Y-43710000I174999J0D01*
G01*
X155471251Y-43710000D01*
G75*
G02*
X155646250Y-43884999I0J-174999D01*
G01*
X155646250Y-44515001D01*
G75*
G02*
X155471251Y-44690000I-174999J0D01*
G01*
X155103749Y-44690000D01*
G75*
G02*
X154928750Y-44515001I0J174999D01*
G01*
G37*
G36*
G01*
X149100000Y-50825000D02*
X150500000Y-50825000D01*
G75*
G02*
X150675000Y-51000000I0J-175000D01*
G01*
X150675000Y-53100000D01*
G75*
G02*
X150500000Y-53275000I-175000J0D01*
G01*
X149100000Y-53275000D01*
G75*
G02*
X148925000Y-53100000I0J175000D01*
G01*
X148925000Y-51000000D01*
G75*
G02*
X149100000Y-50825000I175000J0D01*
G01*
G37*
G36*
G01*
X149100000Y-44325000D02*
X150500000Y-44325000D01*
G75*
G02*
X150675000Y-44500000I0J-175000D01*
G01*
X150675000Y-46600000D01*
G75*
G02*
X150500000Y-46775000I-175000J0D01*
G01*
X149100000Y-46775000D01*
G75*
G02*
X148925000Y-46600000I0J175000D01*
G01*
X148925000Y-44500000D01*
G75*
G02*
X149100000Y-44325000I175000J0D01*
G01*
G37*
G36*
G01*
X165650000Y-49832500D02*
X165650000Y-49167500D01*
G75*
G02*
X165825000Y-48992500I175000J0D01*
G01*
X166175000Y-48992500D01*
G75*
G02*
X166350000Y-49167500I0J-175000D01*
G01*
X166350000Y-49832500D01*
G75*
G02*
X166175000Y-50007500I-175000J0D01*
G01*
X165825000Y-50007500D01*
G75*
G02*
X165650000Y-49832500I0J175000D01*
G01*
G37*
G36*
G01*
X163750000Y-49832500D02*
X163750000Y-49167500D01*
G75*
G02*
X163925000Y-48992500I175000J0D01*
G01*
X164275000Y-48992500D01*
G75*
G02*
X164450000Y-49167500I0J-175000D01*
G01*
X164450000Y-49832500D01*
G75*
G02*
X164275000Y-50007500I-175000J0D01*
G01*
X163925000Y-50007500D01*
G75*
G02*
X163750000Y-49832500I0J175000D01*
G01*
G37*
G36*
G01*
X166567500Y-53650000D02*
X167232500Y-53650000D01*
G75*
G02*
X167407500Y-53825000I0J-175000D01*
G01*
X167407500Y-54175000D01*
G75*
G02*
X167232500Y-54350000I-175000J0D01*
G01*
X166567500Y-54350000D01*
G75*
G02*
X166392500Y-54175000I0J175000D01*
G01*
X166392500Y-53825000D01*
G75*
G02*
X166567500Y-53650000I175000J0D01*
G01*
G37*
G36*
G01*
X166567500Y-51750000D02*
X167232500Y-51750000D01*
G75*
G02*
X167407500Y-51925000I0J-175000D01*
G01*
X167407500Y-52275000D01*
G75*
G02*
X167232500Y-52450000I-175000J0D01*
G01*
X166567500Y-52450000D01*
G75*
G02*
X166392500Y-52275000I0J175000D01*
G01*
X166392500Y-51925000D01*
G75*
G02*
X166567500Y-51750000I175000J0D01*
G01*
G37*
D14*
X32762500Y-50000000D03*
D15*
X35462500Y-51000000D03*
X35462500Y-51650000D03*
X35462500Y-52300000D03*
X35462500Y-49700000D03*
X35462500Y-50350000D03*
D14*
X32762500Y-52000000D03*
G36*
G01*
X53156500Y-38474750D02*
X53156500Y-38233250D01*
G75*
G02*
X53259750Y-38130000I103250J0D01*
G01*
X53466250Y-38130000D01*
G75*
G02*
X53569500Y-38233250I0J-103250D01*
G01*
X53569500Y-38474750D01*
G75*
G02*
X53466250Y-38578000I-103250J0D01*
G01*
X53259750Y-38578000D01*
G75*
G02*
X53156500Y-38474750I0J103250D01*
G01*
G37*
G36*
G01*
X54126500Y-38474750D02*
X54126500Y-38233250D01*
G75*
G02*
X54229750Y-38130000I103250J0D01*
G01*
X54436250Y-38130000D01*
G75*
G02*
X54539500Y-38233250I0J-103250D01*
G01*
X54539500Y-38474750D01*
G75*
G02*
X54436250Y-38578000I-103250J0D01*
G01*
X54229750Y-38578000D01*
G75*
G02*
X54126500Y-38474750I0J103250D01*
G01*
G37*
G36*
G01*
X51720750Y-58721500D02*
X51479250Y-58721500D01*
G75*
G02*
X51376000Y-58618250I0J103250D01*
G01*
X51376000Y-58411750D01*
G75*
G02*
X51479250Y-58308500I103250J0D01*
G01*
X51720750Y-58308500D01*
G75*
G02*
X51824000Y-58411750I0J-103250D01*
G01*
X51824000Y-58618250D01*
G75*
G02*
X51720750Y-58721500I-103250J0D01*
G01*
G37*
G36*
G01*
X51720750Y-59691500D02*
X51479250Y-59691500D01*
G75*
G02*
X51376000Y-59588250I0J103250D01*
G01*
X51376000Y-59381750D01*
G75*
G02*
X51479250Y-59278500I103250J0D01*
G01*
X51720750Y-59278500D01*
G75*
G02*
X51824000Y-59381750I0J-103250D01*
G01*
X51824000Y-59588250D01*
G75*
G02*
X51720750Y-59691500I-103250J0D01*
G01*
G37*
G36*
G01*
X53521500Y-49079250D02*
X53521500Y-49320750D01*
G75*
G02*
X53418250Y-49424000I-103250J0D01*
G01*
X53211750Y-49424000D01*
G75*
G02*
X53108500Y-49320750I0J103250D01*
G01*
X53108500Y-49079250D01*
G75*
G02*
X53211750Y-48976000I103250J0D01*
G01*
X53418250Y-48976000D01*
G75*
G02*
X53521500Y-49079250I0J-103250D01*
G01*
G37*
G36*
G01*
X54491500Y-49079250D02*
X54491500Y-49320750D01*
G75*
G02*
X54388250Y-49424000I-103250J0D01*
G01*
X54181750Y-49424000D01*
G75*
G02*
X54078500Y-49320750I0J103250D01*
G01*
X54078500Y-49079250D01*
G75*
G02*
X54181750Y-48976000I103250J0D01*
G01*
X54388250Y-48976000D01*
G75*
G02*
X54491500Y-49079250I0J-103250D01*
G01*
G37*
G36*
G01*
X54126500Y-39744750D02*
X54126500Y-39503250D01*
G75*
G02*
X54229750Y-39400000I103250J0D01*
G01*
X54436250Y-39400000D01*
G75*
G02*
X54539500Y-39503250I0J-103250D01*
G01*
X54539500Y-39744750D01*
G75*
G02*
X54436250Y-39848000I-103250J0D01*
G01*
X54229750Y-39848000D01*
G75*
G02*
X54126500Y-39744750I0J103250D01*
G01*
G37*
G36*
G01*
X53156500Y-39744750D02*
X53156500Y-39503250D01*
G75*
G02*
X53259750Y-39400000I103250J0D01*
G01*
X53466250Y-39400000D01*
G75*
G02*
X53569500Y-39503250I0J-103250D01*
G01*
X53569500Y-39744750D01*
G75*
G02*
X53466250Y-39848000I-103250J0D01*
G01*
X53259750Y-39848000D01*
G75*
G02*
X53156500Y-39744750I0J103250D01*
G01*
G37*
G36*
G01*
X54126500Y-44824750D02*
X54126500Y-44583250D01*
G75*
G02*
X54229750Y-44480000I103250J0D01*
G01*
X54436250Y-44480000D01*
G75*
G02*
X54539500Y-44583250I0J-103250D01*
G01*
X54539500Y-44824750D01*
G75*
G02*
X54436250Y-44928000I-103250J0D01*
G01*
X54229750Y-44928000D01*
G75*
G02*
X54126500Y-44824750I0J103250D01*
G01*
G37*
G36*
G01*
X53156500Y-44824750D02*
X53156500Y-44583250D01*
G75*
G02*
X53259750Y-44480000I103250J0D01*
G01*
X53466250Y-44480000D01*
G75*
G02*
X53569500Y-44583250I0J-103250D01*
G01*
X53569500Y-44824750D01*
G75*
G02*
X53466250Y-44928000I-103250J0D01*
G01*
X53259750Y-44928000D01*
G75*
G02*
X53156500Y-44824750I0J103250D01*
G01*
G37*
G36*
G01*
X49079250Y-59278500D02*
X49320750Y-59278500D01*
G75*
G02*
X49424000Y-59381750I0J-103250D01*
G01*
X49424000Y-59588250D01*
G75*
G02*
X49320750Y-59691500I-103250J0D01*
G01*
X49079250Y-59691500D01*
G75*
G02*
X48976000Y-59588250I0J103250D01*
G01*
X48976000Y-59381750D01*
G75*
G02*
X49079250Y-59278500I103250J0D01*
G01*
G37*
G36*
G01*
X49079250Y-58308500D02*
X49320750Y-58308500D01*
G75*
G02*
X49424000Y-58411750I0J-103250D01*
G01*
X49424000Y-58618250D01*
G75*
G02*
X49320750Y-58721500I-103250J0D01*
G01*
X49079250Y-58721500D01*
G75*
G02*
X48976000Y-58618250I0J103250D01*
G01*
X48976000Y-58411750D01*
G75*
G02*
X49079250Y-58308500I103250J0D01*
G01*
G37*
G36*
G01*
X54126500Y-43554750D02*
X54126500Y-43313250D01*
G75*
G02*
X54229750Y-43210000I103250J0D01*
G01*
X54436250Y-43210000D01*
G75*
G02*
X54539500Y-43313250I0J-103250D01*
G01*
X54539500Y-43554750D01*
G75*
G02*
X54436250Y-43658000I-103250J0D01*
G01*
X54229750Y-43658000D01*
G75*
G02*
X54126500Y-43554750I0J103250D01*
G01*
G37*
G36*
G01*
X53156500Y-43554750D02*
X53156500Y-43313250D01*
G75*
G02*
X53259750Y-43210000I103250J0D01*
G01*
X53466250Y-43210000D01*
G75*
G02*
X53569500Y-43313250I0J-103250D01*
G01*
X53569500Y-43554750D01*
G75*
G02*
X53466250Y-43658000I-103250J0D01*
G01*
X53259750Y-43658000D01*
G75*
G02*
X53156500Y-43554750I0J103250D01*
G01*
G37*
G36*
G01*
X53521500Y-51479250D02*
X53521500Y-51720750D01*
G75*
G02*
X53418250Y-51824000I-103250J0D01*
G01*
X53211750Y-51824000D01*
G75*
G02*
X53108500Y-51720750I0J103250D01*
G01*
X53108500Y-51479250D01*
G75*
G02*
X53211750Y-51376000I103250J0D01*
G01*
X53418250Y-51376000D01*
G75*
G02*
X53521500Y-51479250I0J-103250D01*
G01*
G37*
G36*
G01*
X54491500Y-51479250D02*
X54491500Y-51720750D01*
G75*
G02*
X54388250Y-51824000I-103250J0D01*
G01*
X54181750Y-51824000D01*
G75*
G02*
X54078500Y-51720750I0J103250D01*
G01*
X54078500Y-51479250D01*
G75*
G02*
X54181750Y-51376000I103250J0D01*
G01*
X54388250Y-51376000D01*
G75*
G02*
X54491500Y-51479250I0J-103250D01*
G01*
G37*
G36*
G01*
X54078500Y-50520750D02*
X54078500Y-50279250D01*
G75*
G02*
X54181750Y-50176000I103250J0D01*
G01*
X54388250Y-50176000D01*
G75*
G02*
X54491500Y-50279250I0J-103250D01*
G01*
X54491500Y-50520750D01*
G75*
G02*
X54388250Y-50624000I-103250J0D01*
G01*
X54181750Y-50624000D01*
G75*
G02*
X54078500Y-50520750I0J103250D01*
G01*
G37*
G36*
G01*
X53108500Y-50520750D02*
X53108500Y-50279250D01*
G75*
G02*
X53211750Y-50176000I103250J0D01*
G01*
X53418250Y-50176000D01*
G75*
G02*
X53521500Y-50279250I0J-103250D01*
G01*
X53521500Y-50520750D01*
G75*
G02*
X53418250Y-50624000I-103250J0D01*
G01*
X53211750Y-50624000D01*
G75*
G02*
X53108500Y-50520750I0J103250D01*
G01*
G37*
G36*
G01*
X43844000Y-31772000D02*
X43156000Y-31772000D01*
G75*
G02*
X43020000Y-31636000I0J136000D01*
G01*
X43020000Y-31364000D01*
G75*
G02*
X43156000Y-31228000I136000J0D01*
G01*
X43844000Y-31228000D01*
G75*
G02*
X43980000Y-31364000I0J-136000D01*
G01*
X43980000Y-31636000D01*
G75*
G02*
X43844000Y-31772000I-136000J0D01*
G01*
G37*
G36*
G01*
X43804000Y-33272000D02*
X42796000Y-33272000D01*
G75*
G02*
X42660000Y-33136000I0J136000D01*
G01*
X42660000Y-32864000D01*
G75*
G02*
X42796000Y-32728000I136000J0D01*
G01*
X43804000Y-32728000D01*
G75*
G02*
X43940000Y-32864000I0J-136000D01*
G01*
X43940000Y-33136000D01*
G75*
G02*
X43804000Y-33272000I-136000J0D01*
G01*
G37*
G36*
G01*
X43844000Y-34772000D02*
X43156000Y-34772000D01*
G75*
G02*
X43020000Y-34636000I0J136000D01*
G01*
X43020000Y-34364000D01*
G75*
G02*
X43156000Y-34228000I136000J0D01*
G01*
X43844000Y-34228000D01*
G75*
G02*
X43980000Y-34364000I0J-136000D01*
G01*
X43980000Y-34636000D01*
G75*
G02*
X43844000Y-34772000I-136000J0D01*
G01*
G37*
G36*
G01*
X40544000Y-34772000D02*
X39856000Y-34772000D01*
G75*
G02*
X39720000Y-34636000I0J136000D01*
G01*
X39720000Y-34364000D01*
G75*
G02*
X39856000Y-34228000I136000J0D01*
G01*
X40544000Y-34228000D01*
G75*
G02*
X40680000Y-34364000I0J-136000D01*
G01*
X40680000Y-34636000D01*
G75*
G02*
X40544000Y-34772000I-136000J0D01*
G01*
G37*
G36*
G01*
X40544000Y-31772000D02*
X39856000Y-31772000D01*
G75*
G02*
X39720000Y-31636000I0J136000D01*
G01*
X39720000Y-31364000D01*
G75*
G02*
X39856000Y-31228000I136000J0D01*
G01*
X40544000Y-31228000D01*
G75*
G02*
X40680000Y-31364000I0J-136000D01*
G01*
X40680000Y-31636000D01*
G75*
G02*
X40544000Y-31772000I-136000J0D01*
G01*
G37*
G36*
G01*
X42090500Y-33579000D02*
X41109500Y-33579000D01*
G75*
G02*
X40820000Y-33289500I0J289500D01*
G01*
X40820000Y-32710500D01*
G75*
G02*
X41109500Y-32421000I289500J0D01*
G01*
X42090500Y-32421000D01*
G75*
G02*
X42380000Y-32710500I0J-289500D01*
G01*
X42380000Y-33289500D01*
G75*
G02*
X42090500Y-33579000I-289500J0D01*
G01*
G37*
G36*
G01*
X40578500Y-35720750D02*
X40578500Y-35479250D01*
G75*
G02*
X40681750Y-35376000I103250J0D01*
G01*
X40888250Y-35376000D01*
G75*
G02*
X40991500Y-35479250I0J-103250D01*
G01*
X40991500Y-35720750D01*
G75*
G02*
X40888250Y-35824000I-103250J0D01*
G01*
X40681750Y-35824000D01*
G75*
G02*
X40578500Y-35720750I0J103250D01*
G01*
G37*
G36*
G01*
X39608500Y-35720750D02*
X39608500Y-35479250D01*
G75*
G02*
X39711750Y-35376000I103250J0D01*
G01*
X39918250Y-35376000D01*
G75*
G02*
X40021500Y-35479250I0J-103250D01*
G01*
X40021500Y-35720750D01*
G75*
G02*
X39918250Y-35824000I-103250J0D01*
G01*
X39711750Y-35824000D01*
G75*
G02*
X39608500Y-35720750I0J103250D01*
G01*
G37*
G36*
G01*
X54126500Y-34664750D02*
X54126500Y-34423250D01*
G75*
G02*
X54229750Y-34320000I103250J0D01*
G01*
X54436250Y-34320000D01*
G75*
G02*
X54539500Y-34423250I0J-103250D01*
G01*
X54539500Y-34664750D01*
G75*
G02*
X54436250Y-34768000I-103250J0D01*
G01*
X54229750Y-34768000D01*
G75*
G02*
X54126500Y-34664750I0J103250D01*
G01*
G37*
G36*
G01*
X53156500Y-34664750D02*
X53156500Y-34423250D01*
G75*
G02*
X53259750Y-34320000I103250J0D01*
G01*
X53466250Y-34320000D01*
G75*
G02*
X53569500Y-34423250I0J-103250D01*
G01*
X53569500Y-34664750D01*
G75*
G02*
X53466250Y-34768000I-103250J0D01*
G01*
X53259750Y-34768000D01*
G75*
G02*
X53156500Y-34664750I0J103250D01*
G01*
G37*
G36*
G01*
X52920750Y-58721500D02*
X52679250Y-58721500D01*
G75*
G02*
X52576000Y-58618250I0J103250D01*
G01*
X52576000Y-58411750D01*
G75*
G02*
X52679250Y-58308500I103250J0D01*
G01*
X52920750Y-58308500D01*
G75*
G02*
X53024000Y-58411750I0J-103250D01*
G01*
X53024000Y-58618250D01*
G75*
G02*
X52920750Y-58721500I-103250J0D01*
G01*
G37*
G36*
G01*
X52920750Y-59691500D02*
X52679250Y-59691500D01*
G75*
G02*
X52576000Y-59588250I0J103250D01*
G01*
X52576000Y-59381750D01*
G75*
G02*
X52679250Y-59278500I103250J0D01*
G01*
X52920750Y-59278500D01*
G75*
G02*
X53024000Y-59381750I0J-103250D01*
G01*
X53024000Y-59588250D01*
G75*
G02*
X52920750Y-59691500I-103250J0D01*
G01*
G37*
G36*
G01*
X54126500Y-37204750D02*
X54126500Y-36963250D01*
G75*
G02*
X54229750Y-36860000I103250J0D01*
G01*
X54436250Y-36860000D01*
G75*
G02*
X54539500Y-36963250I0J-103250D01*
G01*
X54539500Y-37204750D01*
G75*
G02*
X54436250Y-37308000I-103250J0D01*
G01*
X54229750Y-37308000D01*
G75*
G02*
X54126500Y-37204750I0J103250D01*
G01*
G37*
G36*
G01*
X53156500Y-37204750D02*
X53156500Y-36963250D01*
G75*
G02*
X53259750Y-36860000I103250J0D01*
G01*
X53466250Y-36860000D01*
G75*
G02*
X53569500Y-36963250I0J-103250D01*
G01*
X53569500Y-37204750D01*
G75*
G02*
X53466250Y-37308000I-103250J0D01*
G01*
X53259750Y-37308000D01*
G75*
G02*
X53156500Y-37204750I0J103250D01*
G01*
G37*
G36*
G01*
X43479250Y-59278500D02*
X43720750Y-59278500D01*
G75*
G02*
X43824000Y-59381750I0J-103250D01*
G01*
X43824000Y-59588250D01*
G75*
G02*
X43720750Y-59691500I-103250J0D01*
G01*
X43479250Y-59691500D01*
G75*
G02*
X43376000Y-59588250I0J103250D01*
G01*
X43376000Y-59381750D01*
G75*
G02*
X43479250Y-59278500I103250J0D01*
G01*
G37*
G36*
G01*
X43479250Y-58308500D02*
X43720750Y-58308500D01*
G75*
G02*
X43824000Y-58411750I0J-103250D01*
G01*
X43824000Y-58618250D01*
G75*
G02*
X43720750Y-58721500I-103250J0D01*
G01*
X43479250Y-58721500D01*
G75*
G02*
X43376000Y-58618250I0J103250D01*
G01*
X43376000Y-58411750D01*
G75*
G02*
X43479250Y-58308500I103250J0D01*
G01*
G37*
G36*
G01*
X34480625Y-43221250D02*
X35119375Y-43221250D01*
G75*
G02*
X35290000Y-43391875I0J-170625D01*
G01*
X35290000Y-43733125D01*
G75*
G02*
X35119375Y-43903750I-170625J0D01*
G01*
X34480625Y-43903750D01*
G75*
G02*
X34310000Y-43733125I0J170625D01*
G01*
X34310000Y-43391875D01*
G75*
G02*
X34480625Y-43221250I170625J0D01*
G01*
G37*
G36*
G01*
X34480625Y-45096250D02*
X35119375Y-45096250D01*
G75*
G02*
X35290000Y-45266875I0J-170625D01*
G01*
X35290000Y-45608125D01*
G75*
G02*
X35119375Y-45778750I-170625J0D01*
G01*
X34480625Y-45778750D01*
G75*
G02*
X34310000Y-45608125I0J170625D01*
G01*
X34310000Y-45266875D01*
G75*
G02*
X34480625Y-45096250I170625J0D01*
G01*
G37*
G36*
G01*
X50520750Y-58721500D02*
X50279250Y-58721500D01*
G75*
G02*
X50176000Y-58618250I0J103250D01*
G01*
X50176000Y-58411750D01*
G75*
G02*
X50279250Y-58308500I103250J0D01*
G01*
X50520750Y-58308500D01*
G75*
G02*
X50624000Y-58411750I0J-103250D01*
G01*
X50624000Y-58618250D01*
G75*
G02*
X50520750Y-58721500I-103250J0D01*
G01*
G37*
G36*
G01*
X50520750Y-59691500D02*
X50279250Y-59691500D01*
G75*
G02*
X50176000Y-59588250I0J103250D01*
G01*
X50176000Y-59381750D01*
G75*
G02*
X50279250Y-59278500I103250J0D01*
G01*
X50520750Y-59278500D01*
G75*
G02*
X50624000Y-59381750I0J-103250D01*
G01*
X50624000Y-59588250D01*
G75*
G02*
X50520750Y-59691500I-103250J0D01*
G01*
G37*
G36*
G01*
X42279250Y-40478500D02*
X42520750Y-40478500D01*
G75*
G02*
X42624000Y-40581750I0J-103250D01*
G01*
X42624000Y-40788250D01*
G75*
G02*
X42520750Y-40891500I-103250J0D01*
G01*
X42279250Y-40891500D01*
G75*
G02*
X42176000Y-40788250I0J103250D01*
G01*
X42176000Y-40581750D01*
G75*
G02*
X42279250Y-40478500I103250J0D01*
G01*
G37*
G36*
G01*
X42279250Y-39508500D02*
X42520750Y-39508500D01*
G75*
G02*
X42624000Y-39611750I0J-103250D01*
G01*
X42624000Y-39818250D01*
G75*
G02*
X42520750Y-39921500I-103250J0D01*
G01*
X42279250Y-39921500D01*
G75*
G02*
X42176000Y-39818250I0J103250D01*
G01*
X42176000Y-39611750D01*
G75*
G02*
X42279250Y-39508500I103250J0D01*
G01*
G37*
G36*
G01*
X33596250Y-56819375D02*
X33596250Y-56180625D01*
G75*
G02*
X33766875Y-56010000I170625J0D01*
G01*
X34108125Y-56010000D01*
G75*
G02*
X34278750Y-56180625I0J-170625D01*
G01*
X34278750Y-56819375D01*
G75*
G02*
X34108125Y-56990000I-170625J0D01*
G01*
X33766875Y-56990000D01*
G75*
G02*
X33596250Y-56819375I0J170625D01*
G01*
G37*
G36*
G01*
X31721250Y-56819375D02*
X31721250Y-56180625D01*
G75*
G02*
X31891875Y-56010000I170625J0D01*
G01*
X32233125Y-56010000D01*
G75*
G02*
X32403750Y-56180625I0J-170625D01*
G01*
X32403750Y-56819375D01*
G75*
G02*
X32233125Y-56990000I-170625J0D01*
G01*
X31891875Y-56990000D01*
G75*
G02*
X31721250Y-56819375I0J170625D01*
G01*
G37*
G36*
G01*
X54126500Y-35934750D02*
X54126500Y-35693250D01*
G75*
G02*
X54229750Y-35590000I103250J0D01*
G01*
X54436250Y-35590000D01*
G75*
G02*
X54539500Y-35693250I0J-103250D01*
G01*
X54539500Y-35934750D01*
G75*
G02*
X54436250Y-36038000I-103250J0D01*
G01*
X54229750Y-36038000D01*
G75*
G02*
X54126500Y-35934750I0J103250D01*
G01*
G37*
G36*
G01*
X53156500Y-35934750D02*
X53156500Y-35693250D01*
G75*
G02*
X53259750Y-35590000I103250J0D01*
G01*
X53466250Y-35590000D01*
G75*
G02*
X53569500Y-35693250I0J-103250D01*
G01*
X53569500Y-35934750D01*
G75*
G02*
X53466250Y-36038000I-103250J0D01*
G01*
X53259750Y-36038000D01*
G75*
G02*
X53156500Y-35934750I0J103250D01*
G01*
G37*
G36*
G01*
X54491500Y-47879250D02*
X54491500Y-48120750D01*
G75*
G02*
X54388250Y-48224000I-103250J0D01*
G01*
X54181750Y-48224000D01*
G75*
G02*
X54078500Y-48120750I0J103250D01*
G01*
X54078500Y-47879250D01*
G75*
G02*
X54181750Y-47776000I103250J0D01*
G01*
X54388250Y-47776000D01*
G75*
G02*
X54491500Y-47879250I0J-103250D01*
G01*
G37*
G36*
G01*
X53521500Y-47879250D02*
X53521500Y-48120750D01*
G75*
G02*
X53418250Y-48224000I-103250J0D01*
G01*
X53211750Y-48224000D01*
G75*
G02*
X53108500Y-48120750I0J103250D01*
G01*
X53108500Y-47879250D01*
G75*
G02*
X53211750Y-47776000I103250J0D01*
G01*
X53418250Y-47776000D01*
G75*
G02*
X53521500Y-47879250I0J-103250D01*
G01*
G37*
G36*
G01*
X37978500Y-59520750D02*
X37978500Y-59279250D01*
G75*
G02*
X38081750Y-59176000I103250J0D01*
G01*
X38288250Y-59176000D01*
G75*
G02*
X38391500Y-59279250I0J-103250D01*
G01*
X38391500Y-59520750D01*
G75*
G02*
X38288250Y-59624000I-103250J0D01*
G01*
X38081750Y-59624000D01*
G75*
G02*
X37978500Y-59520750I0J103250D01*
G01*
G37*
G36*
G01*
X37008500Y-59520750D02*
X37008500Y-59279250D01*
G75*
G02*
X37111750Y-59176000I103250J0D01*
G01*
X37318250Y-59176000D01*
G75*
G02*
X37421500Y-59279250I0J-103250D01*
G01*
X37421500Y-59520750D01*
G75*
G02*
X37318250Y-59624000I-103250J0D01*
G01*
X37111750Y-59624000D01*
G75*
G02*
X37008500Y-59520750I0J103250D01*
G01*
G37*
G36*
G01*
X46320750Y-42921500D02*
X46079250Y-42921500D01*
G75*
G02*
X45976000Y-42818250I0J103250D01*
G01*
X45976000Y-42611750D01*
G75*
G02*
X46079250Y-42508500I103250J0D01*
G01*
X46320750Y-42508500D01*
G75*
G02*
X46424000Y-42611750I0J-103250D01*
G01*
X46424000Y-42818250D01*
G75*
G02*
X46320750Y-42921500I-103250J0D01*
G01*
G37*
G36*
G01*
X46320750Y-43891500D02*
X46079250Y-43891500D01*
G75*
G02*
X45976000Y-43788250I0J103250D01*
G01*
X45976000Y-43581750D01*
G75*
G02*
X46079250Y-43478500I103250J0D01*
G01*
X46320750Y-43478500D01*
G75*
G02*
X46424000Y-43581750I0J-103250D01*
G01*
X46424000Y-43788250D01*
G75*
G02*
X46320750Y-43891500I-103250J0D01*
G01*
G37*
G36*
G01*
X41220750Y-42921500D02*
X40979250Y-42921500D01*
G75*
G02*
X40876000Y-42818250I0J103250D01*
G01*
X40876000Y-42611750D01*
G75*
G02*
X40979250Y-42508500I103250J0D01*
G01*
X41220750Y-42508500D01*
G75*
G02*
X41324000Y-42611750I0J-103250D01*
G01*
X41324000Y-42818250D01*
G75*
G02*
X41220750Y-42921500I-103250J0D01*
G01*
G37*
G36*
G01*
X41220750Y-43891500D02*
X40979250Y-43891500D01*
G75*
G02*
X40876000Y-43788250I0J103250D01*
G01*
X40876000Y-43581750D01*
G75*
G02*
X40979250Y-43478500I103250J0D01*
G01*
X41220750Y-43478500D01*
G75*
G02*
X41324000Y-43581750I0J-103250D01*
G01*
X41324000Y-43788250D01*
G75*
G02*
X41220750Y-43891500I-103250J0D01*
G01*
G37*
D16*
X40825000Y-38050000D03*
X40825000Y-40150000D03*
X39175000Y-40150000D03*
X39175000Y-38050000D03*
G36*
G01*
X53521500Y-52679250D02*
X53521500Y-52920750D01*
G75*
G02*
X53418250Y-53024000I-103250J0D01*
G01*
X53211750Y-53024000D01*
G75*
G02*
X53108500Y-52920750I0J103250D01*
G01*
X53108500Y-52679250D01*
G75*
G02*
X53211750Y-52576000I103250J0D01*
G01*
X53418250Y-52576000D01*
G75*
G02*
X53521500Y-52679250I0J-103250D01*
G01*
G37*
G36*
G01*
X54491500Y-52679250D02*
X54491500Y-52920750D01*
G75*
G02*
X54388250Y-53024000I-103250J0D01*
G01*
X54181750Y-53024000D01*
G75*
G02*
X54078500Y-52920750I0J103250D01*
G01*
X54078500Y-52679250D01*
G75*
G02*
X54181750Y-52576000I103250J0D01*
G01*
X54388250Y-52576000D01*
G75*
G02*
X54491500Y-52679250I0J-103250D01*
G01*
G37*
G36*
G01*
X45920750Y-58721500D02*
X45679250Y-58721500D01*
G75*
G02*
X45576000Y-58618250I0J103250D01*
G01*
X45576000Y-58411750D01*
G75*
G02*
X45679250Y-58308500I103250J0D01*
G01*
X45920750Y-58308500D01*
G75*
G02*
X46024000Y-58411750I0J-103250D01*
G01*
X46024000Y-58618250D01*
G75*
G02*
X45920750Y-58721500I-103250J0D01*
G01*
G37*
G36*
G01*
X45920750Y-59691500D02*
X45679250Y-59691500D01*
G75*
G02*
X45576000Y-59588250I0J103250D01*
G01*
X45576000Y-59381750D01*
G75*
G02*
X45679250Y-59278500I103250J0D01*
G01*
X45920750Y-59278500D01*
G75*
G02*
X46024000Y-59381750I0J-103250D01*
G01*
X46024000Y-59588250D01*
G75*
G02*
X45920750Y-59691500I-103250J0D01*
G01*
G37*
G36*
G01*
X38479250Y-52278500D02*
X38720750Y-52278500D01*
G75*
G02*
X38824000Y-52381750I0J-103250D01*
G01*
X38824000Y-52588250D01*
G75*
G02*
X38720750Y-52691500I-103250J0D01*
G01*
X38479250Y-52691500D01*
G75*
G02*
X38376000Y-52588250I0J103250D01*
G01*
X38376000Y-52381750D01*
G75*
G02*
X38479250Y-52278500I103250J0D01*
G01*
G37*
G36*
G01*
X38479250Y-51308500D02*
X38720750Y-51308500D01*
G75*
G02*
X38824000Y-51411750I0J-103250D01*
G01*
X38824000Y-51618250D01*
G75*
G02*
X38720750Y-51721500I-103250J0D01*
G01*
X38479250Y-51721500D01*
G75*
G02*
X38376000Y-51618250I0J103250D01*
G01*
X38376000Y-51411750D01*
G75*
G02*
X38479250Y-51308500I103250J0D01*
G01*
G37*
G36*
G01*
X37379250Y-49078500D02*
X37620750Y-49078500D01*
G75*
G02*
X37724000Y-49181750I0J-103250D01*
G01*
X37724000Y-49388250D01*
G75*
G02*
X37620750Y-49491500I-103250J0D01*
G01*
X37379250Y-49491500D01*
G75*
G02*
X37276000Y-49388250I0J103250D01*
G01*
X37276000Y-49181750D01*
G75*
G02*
X37379250Y-49078500I103250J0D01*
G01*
G37*
G36*
G01*
X37379250Y-48108500D02*
X37620750Y-48108500D01*
G75*
G02*
X37724000Y-48211750I0J-103250D01*
G01*
X37724000Y-48418250D01*
G75*
G02*
X37620750Y-48521500I-103250J0D01*
G01*
X37379250Y-48521500D01*
G75*
G02*
X37276000Y-48418250I0J103250D01*
G01*
X37276000Y-48211750D01*
G75*
G02*
X37379250Y-48108500I103250J0D01*
G01*
G37*
G36*
G01*
X38379250Y-49078500D02*
X38620750Y-49078500D01*
G75*
G02*
X38724000Y-49181750I0J-103250D01*
G01*
X38724000Y-49388250D01*
G75*
G02*
X38620750Y-49491500I-103250J0D01*
G01*
X38379250Y-49491500D01*
G75*
G02*
X38276000Y-49388250I0J103250D01*
G01*
X38276000Y-49181750D01*
G75*
G02*
X38379250Y-49078500I103250J0D01*
G01*
G37*
G36*
G01*
X38379250Y-48108500D02*
X38620750Y-48108500D01*
G75*
G02*
X38724000Y-48211750I0J-103250D01*
G01*
X38724000Y-48418250D01*
G75*
G02*
X38620750Y-48521500I-103250J0D01*
G01*
X38379250Y-48521500D01*
G75*
G02*
X38276000Y-48418250I0J103250D01*
G01*
X38276000Y-48211750D01*
G75*
G02*
X38379250Y-48108500I103250J0D01*
G01*
G37*
G36*
G01*
X42520750Y-37821500D02*
X42279250Y-37821500D01*
G75*
G02*
X42176000Y-37718250I0J103250D01*
G01*
X42176000Y-37511750D01*
G75*
G02*
X42279250Y-37408500I103250J0D01*
G01*
X42520750Y-37408500D01*
G75*
G02*
X42624000Y-37511750I0J-103250D01*
G01*
X42624000Y-37718250D01*
G75*
G02*
X42520750Y-37821500I-103250J0D01*
G01*
G37*
G36*
G01*
X42520750Y-38791500D02*
X42279250Y-38791500D01*
G75*
G02*
X42176000Y-38688250I0J103250D01*
G01*
X42176000Y-38481750D01*
G75*
G02*
X42279250Y-38378500I103250J0D01*
G01*
X42520750Y-38378500D01*
G75*
G02*
X42624000Y-38481750I0J-103250D01*
G01*
X42624000Y-38688250D01*
G75*
G02*
X42520750Y-38791500I-103250J0D01*
G01*
G37*
G36*
G01*
X35420750Y-57191500D02*
X35179250Y-57191500D01*
G75*
G02*
X35076000Y-57088250I0J103250D01*
G01*
X35076000Y-56881750D01*
G75*
G02*
X35179250Y-56778500I103250J0D01*
G01*
X35420750Y-56778500D01*
G75*
G02*
X35524000Y-56881750I0J-103250D01*
G01*
X35524000Y-57088250D01*
G75*
G02*
X35420750Y-57191500I-103250J0D01*
G01*
G37*
G36*
G01*
X35420750Y-56221500D02*
X35179250Y-56221500D01*
G75*
G02*
X35076000Y-56118250I0J103250D01*
G01*
X35076000Y-55911750D01*
G75*
G02*
X35179250Y-55808500I103250J0D01*
G01*
X35420750Y-55808500D01*
G75*
G02*
X35524000Y-55911750I0J-103250D01*
G01*
X35524000Y-56118250D01*
G75*
G02*
X35420750Y-56221500I-103250J0D01*
G01*
G37*
G36*
G01*
X37479250Y-52278500D02*
X37720750Y-52278500D01*
G75*
G02*
X37824000Y-52381750I0J-103250D01*
G01*
X37824000Y-52588250D01*
G75*
G02*
X37720750Y-52691500I-103250J0D01*
G01*
X37479250Y-52691500D01*
G75*
G02*
X37376000Y-52588250I0J103250D01*
G01*
X37376000Y-52381750D01*
G75*
G02*
X37479250Y-52278500I103250J0D01*
G01*
G37*
G36*
G01*
X37479250Y-51308500D02*
X37720750Y-51308500D01*
G75*
G02*
X37824000Y-51411750I0J-103250D01*
G01*
X37824000Y-51618250D01*
G75*
G02*
X37720750Y-51721500I-103250J0D01*
G01*
X37479250Y-51721500D01*
G75*
G02*
X37376000Y-51618250I0J103250D01*
G01*
X37376000Y-51411750D01*
G75*
G02*
X37479250Y-51308500I103250J0D01*
G01*
G37*
G36*
G01*
X40578500Y-30520750D02*
X40578500Y-30279250D01*
G75*
G02*
X40681750Y-30176000I103250J0D01*
G01*
X40888250Y-30176000D01*
G75*
G02*
X40991500Y-30279250I0J-103250D01*
G01*
X40991500Y-30520750D01*
G75*
G02*
X40888250Y-30624000I-103250J0D01*
G01*
X40681750Y-30624000D01*
G75*
G02*
X40578500Y-30520750I0J103250D01*
G01*
G37*
G36*
G01*
X39608500Y-30520750D02*
X39608500Y-30279250D01*
G75*
G02*
X39711750Y-30176000I103250J0D01*
G01*
X39918250Y-30176000D01*
G75*
G02*
X40021500Y-30279250I0J-103250D01*
G01*
X40021500Y-30520750D01*
G75*
G02*
X39918250Y-30624000I-103250J0D01*
G01*
X39711750Y-30624000D01*
G75*
G02*
X39608500Y-30520750I0J103250D01*
G01*
G37*
G36*
G01*
X34521500Y-41879250D02*
X34521500Y-42120750D01*
G75*
G02*
X34418250Y-42224000I-103250J0D01*
G01*
X34211750Y-42224000D01*
G75*
G02*
X34108500Y-42120750I0J103250D01*
G01*
X34108500Y-41879250D01*
G75*
G02*
X34211750Y-41776000I103250J0D01*
G01*
X34418250Y-41776000D01*
G75*
G02*
X34521500Y-41879250I0J-103250D01*
G01*
G37*
G36*
G01*
X35491500Y-41879250D02*
X35491500Y-42120750D01*
G75*
G02*
X35388250Y-42224000I-103250J0D01*
G01*
X35181750Y-42224000D01*
G75*
G02*
X35078500Y-42120750I0J103250D01*
G01*
X35078500Y-41879250D01*
G75*
G02*
X35181750Y-41776000I103250J0D01*
G01*
X35388250Y-41776000D01*
G75*
G02*
X35491500Y-41879250I0J-103250D01*
G01*
G37*
M02*
