G04 #@! TF.GenerationSoftware,KiCad,Pcbnew,(5.1.4)-1*
G04 #@! TF.CreationDate,2020-11-09T21:30:18-05:00*
G04 #@! TF.ProjectId,icepool-board,69636570-6f6f-46c2-9d62-6f6172642e6b,2020-04*
G04 #@! TF.SameCoordinates,Original*
G04 #@! TF.FileFunction,Soldermask,Bot*
G04 #@! TF.FilePolarity,Negative*
%FSLAX46Y46*%
G04 Gerber Fmt 4.6, Leading zero omitted, Abs format (unit mm)*
G04 Created by KiCad (PCBNEW (5.1.4)-1) date 2020-11-09 21:30:18*
%MOMM*%
%LPD*%
G04 APERTURE LIST*
%ADD10C,0.100000*%
G04 APERTURE END LIST*
D10*
X45344523Y-54311904D02*
X45344523Y-53778571D01*
X45344523Y-53511904D02*
X45382619Y-53550000D01*
X45344523Y-53588095D01*
X45306428Y-53550000D01*
X45344523Y-53511904D01*
X45344523Y-53588095D01*
X44620714Y-54273809D02*
X44696904Y-54311904D01*
X44849285Y-54311904D01*
X44925476Y-54273809D01*
X44963571Y-54235714D01*
X45001666Y-54159523D01*
X45001666Y-53930952D01*
X44963571Y-53854761D01*
X44925476Y-53816666D01*
X44849285Y-53778571D01*
X44696904Y-53778571D01*
X44620714Y-53816666D01*
X43973095Y-54273809D02*
X44049285Y-54311904D01*
X44201666Y-54311904D01*
X44277857Y-54273809D01*
X44315952Y-54197619D01*
X44315952Y-53892857D01*
X44277857Y-53816666D01*
X44201666Y-53778571D01*
X44049285Y-53778571D01*
X43973095Y-53816666D01*
X43935000Y-53892857D01*
X43935000Y-53969047D01*
X44315952Y-54045238D01*
X43592142Y-53778571D02*
X43592142Y-54578571D01*
X43592142Y-53816666D02*
X43515952Y-53778571D01*
X43363571Y-53778571D01*
X43287380Y-53816666D01*
X43249285Y-53854761D01*
X43211190Y-53930952D01*
X43211190Y-54159523D01*
X43249285Y-54235714D01*
X43287380Y-54273809D01*
X43363571Y-54311904D01*
X43515952Y-54311904D01*
X43592142Y-54273809D01*
X42754047Y-54311904D02*
X42830238Y-54273809D01*
X42868333Y-54235714D01*
X42906428Y-54159523D01*
X42906428Y-53930952D01*
X42868333Y-53854761D01*
X42830238Y-53816666D01*
X42754047Y-53778571D01*
X42639761Y-53778571D01*
X42563571Y-53816666D01*
X42525476Y-53854761D01*
X42487380Y-53930952D01*
X42487380Y-54159523D01*
X42525476Y-54235714D01*
X42563571Y-54273809D01*
X42639761Y-54311904D01*
X42754047Y-54311904D01*
X42030238Y-54311904D02*
X42106428Y-54273809D01*
X42144523Y-54235714D01*
X42182619Y-54159523D01*
X42182619Y-53930952D01*
X42144523Y-53854761D01*
X42106428Y-53816666D01*
X42030238Y-53778571D01*
X41915952Y-53778571D01*
X41839761Y-53816666D01*
X41801666Y-53854761D01*
X41763571Y-53930952D01*
X41763571Y-54159523D01*
X41801666Y-54235714D01*
X41839761Y-54273809D01*
X41915952Y-54311904D01*
X42030238Y-54311904D01*
X41306428Y-54311904D02*
X41382619Y-54273809D01*
X41420714Y-54197619D01*
X41420714Y-53511904D01*
X41001666Y-54007142D02*
X40392142Y-54007142D01*
X40011190Y-54311904D02*
X40011190Y-53511904D01*
X40011190Y-53816666D02*
X39935000Y-53778571D01*
X39782619Y-53778571D01*
X39706428Y-53816666D01*
X39668333Y-53854761D01*
X39630238Y-53930952D01*
X39630238Y-54159523D01*
X39668333Y-54235714D01*
X39706428Y-54273809D01*
X39782619Y-54311904D01*
X39935000Y-54311904D01*
X40011190Y-54273809D01*
X39173095Y-54311904D02*
X39249285Y-54273809D01*
X39287380Y-54235714D01*
X39325476Y-54159523D01*
X39325476Y-53930952D01*
X39287380Y-53854761D01*
X39249285Y-53816666D01*
X39173095Y-53778571D01*
X39058809Y-53778571D01*
X38982619Y-53816666D01*
X38944523Y-53854761D01*
X38906428Y-53930952D01*
X38906428Y-54159523D01*
X38944523Y-54235714D01*
X38982619Y-54273809D01*
X39058809Y-54311904D01*
X39173095Y-54311904D01*
X38220714Y-54311904D02*
X38220714Y-53892857D01*
X38258809Y-53816666D01*
X38335000Y-53778571D01*
X38487380Y-53778571D01*
X38563571Y-53816666D01*
X38220714Y-54273809D02*
X38296904Y-54311904D01*
X38487380Y-54311904D01*
X38563571Y-54273809D01*
X38601666Y-54197619D01*
X38601666Y-54121428D01*
X38563571Y-54045238D01*
X38487380Y-54007142D01*
X38296904Y-54007142D01*
X38220714Y-53969047D01*
X37839761Y-54311904D02*
X37839761Y-53778571D01*
X37839761Y-53930952D02*
X37801666Y-53854761D01*
X37763571Y-53816666D01*
X37687380Y-53778571D01*
X37611190Y-53778571D01*
X37001666Y-54311904D02*
X37001666Y-53511904D01*
X37001666Y-54273809D02*
X37077857Y-54311904D01*
X37230238Y-54311904D01*
X37306428Y-54273809D01*
X37344523Y-54235714D01*
X37382619Y-54159523D01*
X37382619Y-53930952D01*
X37344523Y-53854761D01*
X37306428Y-53816666D01*
X37230238Y-53778571D01*
X37077857Y-53778571D01*
X37001666Y-53816666D01*
X36049285Y-53588095D02*
X36011190Y-53550000D01*
X35935000Y-53511904D01*
X35744523Y-53511904D01*
X35668333Y-53550000D01*
X35630238Y-53588095D01*
X35592142Y-53664285D01*
X35592142Y-53740476D01*
X35630238Y-53854761D01*
X36087380Y-54311904D01*
X35592142Y-54311904D01*
X35096904Y-53511904D02*
X35020714Y-53511904D01*
X34944523Y-53550000D01*
X34906428Y-53588095D01*
X34868333Y-53664285D01*
X34830238Y-53816666D01*
X34830238Y-54007142D01*
X34868333Y-54159523D01*
X34906428Y-54235714D01*
X34944523Y-54273809D01*
X35020714Y-54311904D01*
X35096904Y-54311904D01*
X35173095Y-54273809D01*
X35211190Y-54235714D01*
X35249285Y-54159523D01*
X35287380Y-54007142D01*
X35287380Y-53816666D01*
X35249285Y-53664285D01*
X35211190Y-53588095D01*
X35173095Y-53550000D01*
X35096904Y-53511904D01*
X34525476Y-53588095D02*
X34487380Y-53550000D01*
X34411190Y-53511904D01*
X34220714Y-53511904D01*
X34144523Y-53550000D01*
X34106428Y-53588095D01*
X34068333Y-53664285D01*
X34068333Y-53740476D01*
X34106428Y-53854761D01*
X34563571Y-54311904D01*
X34068333Y-54311904D01*
X33573095Y-53511904D02*
X33496904Y-53511904D01*
X33420714Y-53550000D01*
X33382619Y-53588095D01*
X33344523Y-53664285D01*
X33306428Y-53816666D01*
X33306428Y-54007142D01*
X33344523Y-54159523D01*
X33382619Y-54235714D01*
X33420714Y-54273809D01*
X33496904Y-54311904D01*
X33573095Y-54311904D01*
X33649285Y-54273809D01*
X33687380Y-54235714D01*
X33725476Y-54159523D01*
X33763571Y-54007142D01*
X33763571Y-53816666D01*
X33725476Y-53664285D01*
X33687380Y-53588095D01*
X33649285Y-53550000D01*
X33573095Y-53511904D01*
X32963571Y-54007142D02*
X32354047Y-54007142D01*
X31820714Y-53511904D02*
X31744523Y-53511904D01*
X31668333Y-53550000D01*
X31630238Y-53588095D01*
X31592142Y-53664285D01*
X31554047Y-53816666D01*
X31554047Y-54007142D01*
X31592142Y-54159523D01*
X31630238Y-54235714D01*
X31668333Y-54273809D01*
X31744523Y-54311904D01*
X31820714Y-54311904D01*
X31896904Y-54273809D01*
X31935000Y-54235714D01*
X31973095Y-54159523D01*
X32011190Y-54007142D01*
X32011190Y-53816666D01*
X31973095Y-53664285D01*
X31935000Y-53588095D01*
X31896904Y-53550000D01*
X31820714Y-53511904D01*
X30868333Y-53778571D02*
X30868333Y-54311904D01*
X31058809Y-53473809D02*
X31249285Y-54045238D01*
X30754047Y-54045238D01*
X45458809Y-55078571D02*
X45154047Y-55078571D01*
X45344523Y-55611904D02*
X45344523Y-54926190D01*
X45306428Y-54850000D01*
X45230238Y-54811904D01*
X45154047Y-54811904D01*
X44773095Y-55611904D02*
X44849285Y-55573809D01*
X44887380Y-55535714D01*
X44925476Y-55459523D01*
X44925476Y-55230952D01*
X44887380Y-55154761D01*
X44849285Y-55116666D01*
X44773095Y-55078571D01*
X44658809Y-55078571D01*
X44582619Y-55116666D01*
X44544523Y-55154761D01*
X44506428Y-55230952D01*
X44506428Y-55459523D01*
X44544523Y-55535714D01*
X44582619Y-55573809D01*
X44658809Y-55611904D01*
X44773095Y-55611904D01*
X43820714Y-55078571D02*
X43820714Y-55611904D01*
X44163571Y-55078571D02*
X44163571Y-55497619D01*
X44125476Y-55573809D01*
X44049285Y-55611904D01*
X43935000Y-55611904D01*
X43858809Y-55573809D01*
X43820714Y-55535714D01*
X43439761Y-55611904D02*
X43439761Y-55078571D01*
X43439761Y-55230952D02*
X43401666Y-55154761D01*
X43363571Y-55116666D01*
X43287380Y-55078571D01*
X43211190Y-55078571D01*
X42982619Y-55573809D02*
X42906428Y-55611904D01*
X42754047Y-55611904D01*
X42677857Y-55573809D01*
X42639761Y-55497619D01*
X42639761Y-55459523D01*
X42677857Y-55383333D01*
X42754047Y-55345238D01*
X42868333Y-55345238D01*
X42944523Y-55307142D01*
X42982619Y-55230952D01*
X42982619Y-55192857D01*
X42944523Y-55116666D01*
X42868333Y-55078571D01*
X42754047Y-55078571D01*
X42677857Y-55116666D01*
X42296904Y-55611904D02*
X42296904Y-55078571D01*
X42296904Y-54811904D02*
X42335000Y-54850000D01*
X42296904Y-54888095D01*
X42258809Y-54850000D01*
X42296904Y-54811904D01*
X42296904Y-54888095D01*
X41573095Y-55611904D02*
X41573095Y-54811904D01*
X41573095Y-55573809D02*
X41649285Y-55611904D01*
X41801666Y-55611904D01*
X41877857Y-55573809D01*
X41915952Y-55535714D01*
X41954047Y-55459523D01*
X41954047Y-55230952D01*
X41915952Y-55154761D01*
X41877857Y-55116666D01*
X41801666Y-55078571D01*
X41649285Y-55078571D01*
X41573095Y-55116666D01*
X40887380Y-55573809D02*
X40963571Y-55611904D01*
X41115952Y-55611904D01*
X41192142Y-55573809D01*
X41230238Y-55497619D01*
X41230238Y-55192857D01*
X41192142Y-55116666D01*
X41115952Y-55078571D01*
X40963571Y-55078571D01*
X40887380Y-55116666D01*
X40849285Y-55192857D01*
X40849285Y-55269047D01*
X41230238Y-55345238D01*
X40506428Y-55535714D02*
X40468333Y-55573809D01*
X40506428Y-55611904D01*
X40544523Y-55573809D01*
X40506428Y-55535714D01*
X40506428Y-55611904D01*
X40125476Y-55611904D02*
X40125476Y-55078571D01*
X40125476Y-54811904D02*
X40163571Y-54850000D01*
X40125476Y-54888095D01*
X40087380Y-54850000D01*
X40125476Y-54811904D01*
X40125476Y-54888095D01*
X39630238Y-55611904D02*
X39706428Y-55573809D01*
X39744523Y-55535714D01*
X39782619Y-55459523D01*
X39782619Y-55230952D01*
X39744523Y-55154761D01*
X39706428Y-55116666D01*
X39630238Y-55078571D01*
X39515952Y-55078571D01*
X39439761Y-55116666D01*
X39401666Y-55154761D01*
X39363571Y-55230952D01*
X39363571Y-55459523D01*
X39401666Y-55535714D01*
X39439761Y-55573809D01*
X39515952Y-55611904D01*
X39630238Y-55611904D01*
G36*
X72744041Y-84547226D02*
G01*
X73208257Y-84739510D01*
X73626042Y-85018665D01*
X73981335Y-85373958D01*
X74260490Y-85791743D01*
X74452774Y-86255959D01*
X74550800Y-86748768D01*
X74550800Y-87251232D01*
X74452774Y-87744041D01*
X74260490Y-88208257D01*
X73981335Y-88626042D01*
X73626042Y-88981335D01*
X73208257Y-89260490D01*
X72744041Y-89452774D01*
X72251232Y-89550800D01*
X71748768Y-89550800D01*
X71255959Y-89452774D01*
X70791743Y-89260490D01*
X70373958Y-88981335D01*
X70018665Y-88626042D01*
X69739510Y-88208257D01*
X69547226Y-87744041D01*
X69449200Y-87251232D01*
X69449200Y-86748768D01*
X69547226Y-86255959D01*
X69739510Y-85791743D01*
X70018665Y-85373958D01*
X70373958Y-85018665D01*
X70791743Y-84739510D01*
X71255959Y-84547226D01*
X71748768Y-84449200D01*
X72251232Y-84449200D01*
X72744041Y-84547226D01*
X72744041Y-84547226D01*
G37*
G36*
X27744041Y-84547226D02*
G01*
X28208257Y-84739510D01*
X28626042Y-85018665D01*
X28981335Y-85373958D01*
X29260490Y-85791743D01*
X29452774Y-86255959D01*
X29550800Y-86748768D01*
X29550800Y-87251232D01*
X29452774Y-87744041D01*
X29260490Y-88208257D01*
X28981335Y-88626042D01*
X28626042Y-88981335D01*
X28208257Y-89260490D01*
X27744041Y-89452774D01*
X27251232Y-89550800D01*
X26748768Y-89550800D01*
X26255959Y-89452774D01*
X25791743Y-89260490D01*
X25373958Y-88981335D01*
X25018665Y-88626042D01*
X24739510Y-88208257D01*
X24547226Y-87744041D01*
X24449200Y-87251232D01*
X24449200Y-86748768D01*
X24547226Y-86255959D01*
X24739510Y-85791743D01*
X25018665Y-85373958D01*
X25373958Y-85018665D01*
X25791743Y-84739510D01*
X26255959Y-84547226D01*
X26748768Y-84449200D01*
X27251232Y-84449200D01*
X27744041Y-84547226D01*
X27744041Y-84547226D01*
G37*
G36*
X33400800Y-87400800D02*
G01*
X31599200Y-87400800D01*
X31599200Y-85599200D01*
X33400800Y-85599200D01*
X33400800Y-87400800D01*
X33400800Y-87400800D01*
G37*
G36*
X35216584Y-85612233D02*
G01*
X35216587Y-85612234D01*
X35216588Y-85612234D01*
X35386389Y-85663743D01*
X35433861Y-85689117D01*
X35542881Y-85747389D01*
X35680044Y-85859956D01*
X35792611Y-85997119D01*
X35833527Y-86073669D01*
X35876257Y-86153611D01*
X35907304Y-86255959D01*
X35927767Y-86323416D01*
X35945159Y-86500000D01*
X35927767Y-86676584D01*
X35927766Y-86676587D01*
X35927766Y-86676588D01*
X35876257Y-86846389D01*
X35850883Y-86893861D01*
X35792611Y-87002881D01*
X35680044Y-87140044D01*
X35542881Y-87252611D01*
X35477854Y-87287368D01*
X35386389Y-87336257D01*
X35216588Y-87387766D01*
X35216587Y-87387766D01*
X35216584Y-87387767D01*
X35084255Y-87400800D01*
X34995745Y-87400800D01*
X34863416Y-87387767D01*
X34863413Y-87387766D01*
X34863412Y-87387766D01*
X34693611Y-87336257D01*
X34602146Y-87287368D01*
X34537119Y-87252611D01*
X34399956Y-87140044D01*
X34287389Y-87002881D01*
X34229117Y-86893861D01*
X34203743Y-86846389D01*
X34152234Y-86676588D01*
X34152234Y-86676587D01*
X34152233Y-86676584D01*
X34134841Y-86500000D01*
X34152233Y-86323416D01*
X34172696Y-86255959D01*
X34203743Y-86153611D01*
X34246473Y-86073669D01*
X34287389Y-85997119D01*
X34399956Y-85859956D01*
X34537119Y-85747389D01*
X34646139Y-85689117D01*
X34693611Y-85663743D01*
X34863412Y-85612234D01*
X34863413Y-85612234D01*
X34863416Y-85612233D01*
X34995745Y-85599200D01*
X35084255Y-85599200D01*
X35216584Y-85612233D01*
X35216584Y-85612233D01*
G37*
G36*
X49900800Y-87400800D02*
G01*
X48099200Y-87400800D01*
X48099200Y-85599200D01*
X49900800Y-85599200D01*
X49900800Y-87400800D01*
X49900800Y-87400800D01*
G37*
G36*
X46636584Y-85612233D02*
G01*
X46636587Y-85612234D01*
X46636588Y-85612234D01*
X46806389Y-85663743D01*
X46853861Y-85689117D01*
X46962881Y-85747389D01*
X47100044Y-85859956D01*
X47212611Y-85997119D01*
X47253527Y-86073669D01*
X47296257Y-86153611D01*
X47327304Y-86255959D01*
X47347767Y-86323416D01*
X47365159Y-86500000D01*
X47347767Y-86676584D01*
X47347766Y-86676587D01*
X47347766Y-86676588D01*
X47296257Y-86846389D01*
X47270883Y-86893861D01*
X47212611Y-87002881D01*
X47100044Y-87140044D01*
X46962881Y-87252611D01*
X46897854Y-87287368D01*
X46806389Y-87336257D01*
X46636588Y-87387766D01*
X46636587Y-87387766D01*
X46636584Y-87387767D01*
X46504255Y-87400800D01*
X46415745Y-87400800D01*
X46283416Y-87387767D01*
X46283413Y-87387766D01*
X46283412Y-87387766D01*
X46113611Y-87336257D01*
X46022146Y-87287368D01*
X45957119Y-87252611D01*
X45819956Y-87140044D01*
X45707389Y-87002881D01*
X45649117Y-86893861D01*
X45623743Y-86846389D01*
X45572234Y-86676588D01*
X45572234Y-86676587D01*
X45572233Y-86676584D01*
X45554841Y-86500000D01*
X45572233Y-86323416D01*
X45592696Y-86255959D01*
X45623743Y-86153611D01*
X45666473Y-86073669D01*
X45707389Y-85997119D01*
X45819956Y-85859956D01*
X45957119Y-85747389D01*
X46066139Y-85689117D01*
X46113611Y-85663743D01*
X46283412Y-85612234D01*
X46283413Y-85612234D01*
X46283416Y-85612233D01*
X46415745Y-85599200D01*
X46504255Y-85599200D01*
X46636584Y-85612233D01*
X46636584Y-85612233D01*
G37*
G36*
X44096584Y-85612233D02*
G01*
X44096587Y-85612234D01*
X44096588Y-85612234D01*
X44266389Y-85663743D01*
X44313861Y-85689117D01*
X44422881Y-85747389D01*
X44560044Y-85859956D01*
X44672611Y-85997119D01*
X44713527Y-86073669D01*
X44756257Y-86153611D01*
X44787304Y-86255959D01*
X44807767Y-86323416D01*
X44825159Y-86500000D01*
X44807767Y-86676584D01*
X44807766Y-86676587D01*
X44807766Y-86676588D01*
X44756257Y-86846389D01*
X44730883Y-86893861D01*
X44672611Y-87002881D01*
X44560044Y-87140044D01*
X44422881Y-87252611D01*
X44357854Y-87287368D01*
X44266389Y-87336257D01*
X44096588Y-87387766D01*
X44096587Y-87387766D01*
X44096584Y-87387767D01*
X43964255Y-87400800D01*
X43875745Y-87400800D01*
X43743416Y-87387767D01*
X43743413Y-87387766D01*
X43743412Y-87387766D01*
X43573611Y-87336257D01*
X43482146Y-87287368D01*
X43417119Y-87252611D01*
X43279956Y-87140044D01*
X43167389Y-87002881D01*
X43109117Y-86893861D01*
X43083743Y-86846389D01*
X43032234Y-86676588D01*
X43032234Y-86676587D01*
X43032233Y-86676584D01*
X43014841Y-86500000D01*
X43032233Y-86323416D01*
X43052696Y-86255959D01*
X43083743Y-86153611D01*
X43126473Y-86073669D01*
X43167389Y-85997119D01*
X43279956Y-85859956D01*
X43417119Y-85747389D01*
X43526139Y-85689117D01*
X43573611Y-85663743D01*
X43743412Y-85612234D01*
X43743413Y-85612234D01*
X43743416Y-85612233D01*
X43875745Y-85599200D01*
X43964255Y-85599200D01*
X44096584Y-85612233D01*
X44096584Y-85612233D01*
G37*
G36*
X39016584Y-85612233D02*
G01*
X39016587Y-85612234D01*
X39016588Y-85612234D01*
X39186389Y-85663743D01*
X39233861Y-85689117D01*
X39342881Y-85747389D01*
X39480044Y-85859956D01*
X39592611Y-85997119D01*
X39633527Y-86073669D01*
X39676257Y-86153611D01*
X39707304Y-86255959D01*
X39727767Y-86323416D01*
X39745159Y-86500000D01*
X39727767Y-86676584D01*
X39727766Y-86676587D01*
X39727766Y-86676588D01*
X39676257Y-86846389D01*
X39650883Y-86893861D01*
X39592611Y-87002881D01*
X39480044Y-87140044D01*
X39342881Y-87252611D01*
X39277854Y-87287368D01*
X39186389Y-87336257D01*
X39016588Y-87387766D01*
X39016587Y-87387766D01*
X39016584Y-87387767D01*
X38884255Y-87400800D01*
X38795745Y-87400800D01*
X38663416Y-87387767D01*
X38663413Y-87387766D01*
X38663412Y-87387766D01*
X38493611Y-87336257D01*
X38402146Y-87287368D01*
X38337119Y-87252611D01*
X38199956Y-87140044D01*
X38087389Y-87002881D01*
X38029117Y-86893861D01*
X38003743Y-86846389D01*
X37952234Y-86676588D01*
X37952234Y-86676587D01*
X37952233Y-86676584D01*
X37934841Y-86500000D01*
X37952233Y-86323416D01*
X37972696Y-86255959D01*
X38003743Y-86153611D01*
X38046473Y-86073669D01*
X38087389Y-85997119D01*
X38199956Y-85859956D01*
X38337119Y-85747389D01*
X38446139Y-85689117D01*
X38493611Y-85663743D01*
X38663412Y-85612234D01*
X38663413Y-85612234D01*
X38663416Y-85612233D01*
X38795745Y-85599200D01*
X38884255Y-85599200D01*
X39016584Y-85612233D01*
X39016584Y-85612233D01*
G37*
G36*
X41556584Y-85612233D02*
G01*
X41556587Y-85612234D01*
X41556588Y-85612234D01*
X41726389Y-85663743D01*
X41773861Y-85689117D01*
X41882881Y-85747389D01*
X42020044Y-85859956D01*
X42132611Y-85997119D01*
X42173527Y-86073669D01*
X42216257Y-86153611D01*
X42247304Y-86255959D01*
X42267767Y-86323416D01*
X42285159Y-86500000D01*
X42267767Y-86676584D01*
X42267766Y-86676587D01*
X42267766Y-86676588D01*
X42216257Y-86846389D01*
X42190883Y-86893861D01*
X42132611Y-87002881D01*
X42020044Y-87140044D01*
X41882881Y-87252611D01*
X41817854Y-87287368D01*
X41726389Y-87336257D01*
X41556588Y-87387766D01*
X41556587Y-87387766D01*
X41556584Y-87387767D01*
X41424255Y-87400800D01*
X41335745Y-87400800D01*
X41203416Y-87387767D01*
X41203413Y-87387766D01*
X41203412Y-87387766D01*
X41033611Y-87336257D01*
X40942146Y-87287368D01*
X40877119Y-87252611D01*
X40739956Y-87140044D01*
X40627389Y-87002881D01*
X40569117Y-86893861D01*
X40543743Y-86846389D01*
X40492234Y-86676588D01*
X40492234Y-86676587D01*
X40492233Y-86676584D01*
X40474841Y-86500000D01*
X40492233Y-86323416D01*
X40512696Y-86255959D01*
X40543743Y-86153611D01*
X40586473Y-86073669D01*
X40627389Y-85997119D01*
X40739956Y-85859956D01*
X40877119Y-85747389D01*
X40986139Y-85689117D01*
X41033611Y-85663743D01*
X41203412Y-85612234D01*
X41203413Y-85612234D01*
X41203416Y-85612233D01*
X41335745Y-85599200D01*
X41424255Y-85599200D01*
X41556584Y-85612233D01*
X41556584Y-85612233D01*
G37*
G36*
X59542027Y-83432275D02*
G01*
X59569650Y-83440654D01*
X59595113Y-83454264D01*
X59617425Y-83472575D01*
X59635736Y-83494887D01*
X59649346Y-83520350D01*
X59657725Y-83547973D01*
X59660800Y-83579191D01*
X59660800Y-84020809D01*
X59657725Y-84052027D01*
X59649346Y-84079650D01*
X59635736Y-84105113D01*
X59617425Y-84127425D01*
X59595113Y-84145736D01*
X59569650Y-84159346D01*
X59542027Y-84167725D01*
X59510809Y-84170800D01*
X59119191Y-84170800D01*
X59087973Y-84167725D01*
X59060350Y-84159346D01*
X59034887Y-84145736D01*
X59012575Y-84127425D01*
X58994264Y-84105113D01*
X58980654Y-84079650D01*
X58972275Y-84052027D01*
X58969200Y-84020809D01*
X58969200Y-83579191D01*
X58972275Y-83547973D01*
X58980654Y-83520350D01*
X58994264Y-83494887D01*
X59012575Y-83472575D01*
X59034887Y-83454264D01*
X59060350Y-83440654D01*
X59087973Y-83432275D01*
X59119191Y-83429200D01*
X59510809Y-83429200D01*
X59542027Y-83432275D01*
X59542027Y-83432275D01*
G37*
G36*
X60512027Y-83432275D02*
G01*
X60539650Y-83440654D01*
X60565113Y-83454264D01*
X60587425Y-83472575D01*
X60605736Y-83494887D01*
X60619346Y-83520350D01*
X60627725Y-83547973D01*
X60630800Y-83579191D01*
X60630800Y-84020809D01*
X60627725Y-84052027D01*
X60619346Y-84079650D01*
X60605736Y-84105113D01*
X60587425Y-84127425D01*
X60565113Y-84145736D01*
X60539650Y-84159346D01*
X60512027Y-84167725D01*
X60480809Y-84170800D01*
X60089191Y-84170800D01*
X60057973Y-84167725D01*
X60030350Y-84159346D01*
X60004887Y-84145736D01*
X59982575Y-84127425D01*
X59964264Y-84105113D01*
X59950654Y-84079650D01*
X59942275Y-84052027D01*
X59939200Y-84020809D01*
X59939200Y-83579191D01*
X59942275Y-83547973D01*
X59950654Y-83520350D01*
X59964264Y-83494887D01*
X59982575Y-83472575D01*
X60004887Y-83454264D01*
X60030350Y-83440654D01*
X60057973Y-83432275D01*
X60089191Y-83429200D01*
X60480809Y-83429200D01*
X60512027Y-83432275D01*
X60512027Y-83432275D01*
G37*
G36*
X55600800Y-84000800D02*
G01*
X53999200Y-84000800D01*
X53999200Y-82899200D01*
X55600800Y-82899200D01*
X55600800Y-84000800D01*
X55600800Y-84000800D01*
G37*
G36*
X58504552Y-81554124D02*
G01*
X58550237Y-81567982D01*
X58592333Y-81590483D01*
X58629234Y-81620766D01*
X58659517Y-81657667D01*
X58682018Y-81699763D01*
X58695876Y-81745448D01*
X58700800Y-81795442D01*
X58700800Y-82804558D01*
X58695876Y-82854552D01*
X58682018Y-82900237D01*
X58659517Y-82942333D01*
X58629234Y-82979234D01*
X58592333Y-83009517D01*
X58550237Y-83032018D01*
X58504552Y-83045876D01*
X58454558Y-83050800D01*
X57870442Y-83050800D01*
X57820448Y-83045876D01*
X57774763Y-83032018D01*
X57732667Y-83009517D01*
X57695766Y-82979234D01*
X57665483Y-82942333D01*
X57642982Y-82900237D01*
X57629124Y-82854552D01*
X57624200Y-82804558D01*
X57624200Y-81795442D01*
X57629124Y-81745448D01*
X57642982Y-81699763D01*
X57665483Y-81657667D01*
X57695766Y-81620766D01*
X57732667Y-81590483D01*
X57774763Y-81567982D01*
X57820448Y-81554124D01*
X57870442Y-81549200D01*
X58454558Y-81549200D01*
X58504552Y-81554124D01*
X58504552Y-81554124D01*
G37*
G36*
X60379552Y-81554124D02*
G01*
X60425237Y-81567982D01*
X60467333Y-81590483D01*
X60504234Y-81620766D01*
X60534517Y-81657667D01*
X60557018Y-81699763D01*
X60570876Y-81745448D01*
X60575800Y-81795442D01*
X60575800Y-82804558D01*
X60570876Y-82854552D01*
X60557018Y-82900237D01*
X60534517Y-82942333D01*
X60504234Y-82979234D01*
X60467333Y-83009517D01*
X60425237Y-83032018D01*
X60379552Y-83045876D01*
X60329558Y-83050800D01*
X59745442Y-83050800D01*
X59695448Y-83045876D01*
X59649763Y-83032018D01*
X59607667Y-83009517D01*
X59570766Y-82979234D01*
X59540483Y-82942333D01*
X59517982Y-82900237D01*
X59504124Y-82854552D01*
X59499200Y-82804558D01*
X59499200Y-81795442D01*
X59504124Y-81745448D01*
X59517982Y-81699763D01*
X59540483Y-81657667D01*
X59570766Y-81620766D01*
X59607667Y-81590483D01*
X59649763Y-81567982D01*
X59695448Y-81554124D01*
X59745442Y-81549200D01*
X60329558Y-81549200D01*
X60379552Y-81554124D01*
X60379552Y-81554124D01*
G37*
G36*
X55600800Y-82700800D02*
G01*
X53999200Y-82700800D01*
X53999200Y-81599200D01*
X55600800Y-81599200D01*
X55600800Y-82700800D01*
X55600800Y-82700800D01*
G37*
G36*
X59542027Y-80432275D02*
G01*
X59569650Y-80440654D01*
X59595113Y-80454264D01*
X59617425Y-80472575D01*
X59635736Y-80494887D01*
X59649346Y-80520350D01*
X59657725Y-80547973D01*
X59660800Y-80579191D01*
X59660800Y-81020809D01*
X59657725Y-81052027D01*
X59649346Y-81079650D01*
X59635736Y-81105113D01*
X59617425Y-81127425D01*
X59595113Y-81145736D01*
X59569650Y-81159346D01*
X59542027Y-81167725D01*
X59510809Y-81170800D01*
X59119191Y-81170800D01*
X59087973Y-81167725D01*
X59060350Y-81159346D01*
X59034887Y-81145736D01*
X59012575Y-81127425D01*
X58994264Y-81105113D01*
X58980654Y-81079650D01*
X58972275Y-81052027D01*
X58969200Y-81020809D01*
X58969200Y-80579191D01*
X58972275Y-80547973D01*
X58980654Y-80520350D01*
X58994264Y-80494887D01*
X59012575Y-80472575D01*
X59034887Y-80454264D01*
X59060350Y-80440654D01*
X59087973Y-80432275D01*
X59119191Y-80429200D01*
X59510809Y-80429200D01*
X59542027Y-80432275D01*
X59542027Y-80432275D01*
G37*
G36*
X60512027Y-80432275D02*
G01*
X60539650Y-80440654D01*
X60565113Y-80454264D01*
X60587425Y-80472575D01*
X60605736Y-80494887D01*
X60619346Y-80520350D01*
X60627725Y-80547973D01*
X60630800Y-80579191D01*
X60630800Y-81020809D01*
X60627725Y-81052027D01*
X60619346Y-81079650D01*
X60605736Y-81105113D01*
X60587425Y-81127425D01*
X60565113Y-81145736D01*
X60539650Y-81159346D01*
X60512027Y-81167725D01*
X60480809Y-81170800D01*
X60089191Y-81170800D01*
X60057973Y-81167725D01*
X60030350Y-81159346D01*
X60004887Y-81145736D01*
X59982575Y-81127425D01*
X59964264Y-81105113D01*
X59950654Y-81079650D01*
X59942275Y-81052027D01*
X59939200Y-81020809D01*
X59939200Y-80579191D01*
X59942275Y-80547973D01*
X59950654Y-80520350D01*
X59964264Y-80494887D01*
X59982575Y-80472575D01*
X60004887Y-80454264D01*
X60030350Y-80440654D01*
X60057973Y-80432275D01*
X60089191Y-80429200D01*
X60480809Y-80429200D01*
X60512027Y-80432275D01*
X60512027Y-80432275D01*
G37*
G36*
X55512027Y-80232275D02*
G01*
X55539650Y-80240654D01*
X55565113Y-80254264D01*
X55587425Y-80272575D01*
X55605736Y-80294887D01*
X55619346Y-80320350D01*
X55627725Y-80347973D01*
X55630800Y-80379191D01*
X55630800Y-80820809D01*
X55627725Y-80852027D01*
X55619346Y-80879650D01*
X55605736Y-80905113D01*
X55587425Y-80927425D01*
X55565113Y-80945736D01*
X55539650Y-80959346D01*
X55512027Y-80967725D01*
X55480809Y-80970800D01*
X55089191Y-80970800D01*
X55057973Y-80967725D01*
X55030350Y-80959346D01*
X55004887Y-80945736D01*
X54982575Y-80927425D01*
X54964264Y-80905113D01*
X54950654Y-80879650D01*
X54942275Y-80852027D01*
X54939200Y-80820809D01*
X54939200Y-80379191D01*
X54942275Y-80347973D01*
X54950654Y-80320350D01*
X54964264Y-80294887D01*
X54982575Y-80272575D01*
X55004887Y-80254264D01*
X55030350Y-80240654D01*
X55057973Y-80232275D01*
X55089191Y-80229200D01*
X55480809Y-80229200D01*
X55512027Y-80232275D01*
X55512027Y-80232275D01*
G37*
G36*
X54542027Y-80232275D02*
G01*
X54569650Y-80240654D01*
X54595113Y-80254264D01*
X54617425Y-80272575D01*
X54635736Y-80294887D01*
X54649346Y-80320350D01*
X54657725Y-80347973D01*
X54660800Y-80379191D01*
X54660800Y-80820809D01*
X54657725Y-80852027D01*
X54649346Y-80879650D01*
X54635736Y-80905113D01*
X54617425Y-80927425D01*
X54595113Y-80945736D01*
X54569650Y-80959346D01*
X54542027Y-80967725D01*
X54510809Y-80970800D01*
X54119191Y-80970800D01*
X54087973Y-80967725D01*
X54060350Y-80959346D01*
X54034887Y-80945736D01*
X54012575Y-80927425D01*
X53994264Y-80905113D01*
X53980654Y-80879650D01*
X53972275Y-80852027D01*
X53969200Y-80820809D01*
X53969200Y-80379191D01*
X53972275Y-80347973D01*
X53980654Y-80320350D01*
X53994264Y-80294887D01*
X54012575Y-80272575D01*
X54034887Y-80254264D01*
X54060350Y-80240654D01*
X54087973Y-80232275D01*
X54119191Y-80229200D01*
X54510809Y-80229200D01*
X54542027Y-80232275D01*
X54542027Y-80232275D01*
G37*
G36*
X34631494Y-79566524D02*
G01*
X34672513Y-79583515D01*
X34713534Y-79600506D01*
X34743919Y-79620809D01*
X34787370Y-79649842D01*
X34850158Y-79712630D01*
X34860044Y-79727425D01*
X34899494Y-79786466D01*
X34933476Y-79868507D01*
X34950800Y-79955600D01*
X34950800Y-80044400D01*
X34933476Y-80131493D01*
X34899494Y-80213534D01*
X34880232Y-80242361D01*
X34850158Y-80287370D01*
X34787370Y-80350158D01*
X34762646Y-80366678D01*
X34713534Y-80399494D01*
X34707242Y-80402100D01*
X34631494Y-80433476D01*
X34544400Y-80450800D01*
X34455600Y-80450800D01*
X34368506Y-80433476D01*
X34292758Y-80402100D01*
X34286466Y-80399494D01*
X34237354Y-80366678D01*
X34212630Y-80350158D01*
X34149842Y-80287370D01*
X34119768Y-80242361D01*
X34100506Y-80213534D01*
X34066524Y-80131493D01*
X34049200Y-80044400D01*
X34049200Y-79955600D01*
X34066524Y-79868507D01*
X34100506Y-79786466D01*
X34139956Y-79727425D01*
X34149842Y-79712630D01*
X34212630Y-79649842D01*
X34256081Y-79620809D01*
X34286466Y-79600506D01*
X34327487Y-79583515D01*
X34368506Y-79566524D01*
X34455600Y-79549200D01*
X34544400Y-79549200D01*
X34631494Y-79566524D01*
X34631494Y-79566524D01*
G37*
G36*
X55942027Y-79032275D02*
G01*
X55969650Y-79040654D01*
X55995113Y-79054264D01*
X56017425Y-79072575D01*
X56035736Y-79094887D01*
X56049346Y-79120350D01*
X56057725Y-79147973D01*
X56060800Y-79179191D01*
X56060800Y-79620809D01*
X56057725Y-79652027D01*
X56049346Y-79679650D01*
X56035736Y-79705113D01*
X56017425Y-79727425D01*
X55995113Y-79745736D01*
X55969650Y-79759346D01*
X55942027Y-79767725D01*
X55910809Y-79770800D01*
X55519191Y-79770800D01*
X55487973Y-79767725D01*
X55460350Y-79759346D01*
X55434887Y-79745736D01*
X55412575Y-79727425D01*
X55394264Y-79705113D01*
X55380654Y-79679650D01*
X55372275Y-79652027D01*
X55369200Y-79620809D01*
X55369200Y-79179191D01*
X55372275Y-79147973D01*
X55380654Y-79120350D01*
X55394264Y-79094887D01*
X55412575Y-79072575D01*
X55434887Y-79054264D01*
X55460350Y-79040654D01*
X55487973Y-79032275D01*
X55519191Y-79029200D01*
X55910809Y-79029200D01*
X55942027Y-79032275D01*
X55942027Y-79032275D01*
G37*
G36*
X59312027Y-79032275D02*
G01*
X59339650Y-79040654D01*
X59365113Y-79054264D01*
X59387425Y-79072575D01*
X59405736Y-79094887D01*
X59419346Y-79120350D01*
X59427725Y-79147973D01*
X59430800Y-79179191D01*
X59430800Y-79620809D01*
X59427725Y-79652027D01*
X59419346Y-79679650D01*
X59405736Y-79705113D01*
X59387425Y-79727425D01*
X59365113Y-79745736D01*
X59339650Y-79759346D01*
X59312027Y-79767725D01*
X59280809Y-79770800D01*
X58889191Y-79770800D01*
X58857973Y-79767725D01*
X58830350Y-79759346D01*
X58804887Y-79745736D01*
X58782575Y-79727425D01*
X58764264Y-79705113D01*
X58750654Y-79679650D01*
X58742275Y-79652027D01*
X58739200Y-79620809D01*
X58739200Y-79179191D01*
X58742275Y-79147973D01*
X58750654Y-79120350D01*
X58764264Y-79094887D01*
X58782575Y-79072575D01*
X58804887Y-79054264D01*
X58830350Y-79040654D01*
X58857973Y-79032275D01*
X58889191Y-79029200D01*
X59280809Y-79029200D01*
X59312027Y-79032275D01*
X59312027Y-79032275D01*
G37*
G36*
X56912027Y-79032275D02*
G01*
X56939650Y-79040654D01*
X56965113Y-79054264D01*
X56987425Y-79072575D01*
X57005736Y-79094887D01*
X57019346Y-79120350D01*
X57027725Y-79147973D01*
X57030800Y-79179191D01*
X57030800Y-79620809D01*
X57027725Y-79652027D01*
X57019346Y-79679650D01*
X57005736Y-79705113D01*
X56987425Y-79727425D01*
X56965113Y-79745736D01*
X56939650Y-79759346D01*
X56912027Y-79767725D01*
X56880809Y-79770800D01*
X56489191Y-79770800D01*
X56457973Y-79767725D01*
X56430350Y-79759346D01*
X56404887Y-79745736D01*
X56382575Y-79727425D01*
X56364264Y-79705113D01*
X56350654Y-79679650D01*
X56342275Y-79652027D01*
X56339200Y-79620809D01*
X56339200Y-79179191D01*
X56342275Y-79147973D01*
X56350654Y-79120350D01*
X56364264Y-79094887D01*
X56382575Y-79072575D01*
X56404887Y-79054264D01*
X56430350Y-79040654D01*
X56457973Y-79032275D01*
X56489191Y-79029200D01*
X56880809Y-79029200D01*
X56912027Y-79032275D01*
X56912027Y-79032275D01*
G37*
G36*
X62142027Y-79032275D02*
G01*
X62169650Y-79040654D01*
X62195113Y-79054264D01*
X62217425Y-79072575D01*
X62235736Y-79094887D01*
X62249346Y-79120350D01*
X62257725Y-79147973D01*
X62260800Y-79179191D01*
X62260800Y-79620809D01*
X62257725Y-79652027D01*
X62249346Y-79679650D01*
X62235736Y-79705113D01*
X62217425Y-79727425D01*
X62195113Y-79745736D01*
X62169650Y-79759346D01*
X62142027Y-79767725D01*
X62110809Y-79770800D01*
X61719191Y-79770800D01*
X61687973Y-79767725D01*
X61660350Y-79759346D01*
X61634887Y-79745736D01*
X61612575Y-79727425D01*
X61594264Y-79705113D01*
X61580654Y-79679650D01*
X61572275Y-79652027D01*
X61569200Y-79620809D01*
X61569200Y-79179191D01*
X61572275Y-79147973D01*
X61580654Y-79120350D01*
X61594264Y-79094887D01*
X61612575Y-79072575D01*
X61634887Y-79054264D01*
X61660350Y-79040654D01*
X61687973Y-79032275D01*
X61719191Y-79029200D01*
X62110809Y-79029200D01*
X62142027Y-79032275D01*
X62142027Y-79032275D01*
G37*
G36*
X58342027Y-79032275D02*
G01*
X58369650Y-79040654D01*
X58395113Y-79054264D01*
X58417425Y-79072575D01*
X58435736Y-79094887D01*
X58449346Y-79120350D01*
X58457725Y-79147973D01*
X58460800Y-79179191D01*
X58460800Y-79620809D01*
X58457725Y-79652027D01*
X58449346Y-79679650D01*
X58435736Y-79705113D01*
X58417425Y-79727425D01*
X58395113Y-79745736D01*
X58369650Y-79759346D01*
X58342027Y-79767725D01*
X58310809Y-79770800D01*
X57919191Y-79770800D01*
X57887973Y-79767725D01*
X57860350Y-79759346D01*
X57834887Y-79745736D01*
X57812575Y-79727425D01*
X57794264Y-79705113D01*
X57780654Y-79679650D01*
X57772275Y-79652027D01*
X57769200Y-79620809D01*
X57769200Y-79179191D01*
X57772275Y-79147973D01*
X57780654Y-79120350D01*
X57794264Y-79094887D01*
X57812575Y-79072575D01*
X57834887Y-79054264D01*
X57860350Y-79040654D01*
X57887973Y-79032275D01*
X57919191Y-79029200D01*
X58310809Y-79029200D01*
X58342027Y-79032275D01*
X58342027Y-79032275D01*
G37*
G36*
X63112027Y-79032275D02*
G01*
X63139650Y-79040654D01*
X63165113Y-79054264D01*
X63187425Y-79072575D01*
X63205736Y-79094887D01*
X63219346Y-79120350D01*
X63227725Y-79147973D01*
X63230800Y-79179191D01*
X63230800Y-79620809D01*
X63227725Y-79652027D01*
X63219346Y-79679650D01*
X63205736Y-79705113D01*
X63187425Y-79727425D01*
X63165113Y-79745736D01*
X63139650Y-79759346D01*
X63112027Y-79767725D01*
X63080809Y-79770800D01*
X62689191Y-79770800D01*
X62657973Y-79767725D01*
X62630350Y-79759346D01*
X62604887Y-79745736D01*
X62582575Y-79727425D01*
X62564264Y-79705113D01*
X62550654Y-79679650D01*
X62542275Y-79652027D01*
X62539200Y-79620809D01*
X62539200Y-79179191D01*
X62542275Y-79147973D01*
X62550654Y-79120350D01*
X62564264Y-79094887D01*
X62582575Y-79072575D01*
X62604887Y-79054264D01*
X62630350Y-79040654D01*
X62657973Y-79032275D01*
X62689191Y-79029200D01*
X63080809Y-79029200D01*
X63112027Y-79032275D01*
X63112027Y-79032275D01*
G37*
G36*
X52450800Y-78950800D02*
G01*
X51349200Y-78950800D01*
X51349200Y-77849200D01*
X52450800Y-77849200D01*
X52450800Y-78950800D01*
X52450800Y-78950800D01*
G37*
G36*
X62142027Y-77432275D02*
G01*
X62169650Y-77440654D01*
X62195113Y-77454264D01*
X62217425Y-77472575D01*
X62235736Y-77494887D01*
X62249346Y-77520350D01*
X62257725Y-77547973D01*
X62260800Y-77579191D01*
X62260800Y-78020809D01*
X62257725Y-78052027D01*
X62249346Y-78079650D01*
X62235736Y-78105113D01*
X62217425Y-78127425D01*
X62195113Y-78145736D01*
X62169650Y-78159346D01*
X62142027Y-78167725D01*
X62110809Y-78170800D01*
X61719191Y-78170800D01*
X61687973Y-78167725D01*
X61660350Y-78159346D01*
X61634887Y-78145736D01*
X61612575Y-78127425D01*
X61594264Y-78105113D01*
X61580654Y-78079650D01*
X61572275Y-78052027D01*
X61569200Y-78020809D01*
X61569200Y-77579191D01*
X61572275Y-77547973D01*
X61580654Y-77520350D01*
X61594264Y-77494887D01*
X61612575Y-77472575D01*
X61634887Y-77454264D01*
X61660350Y-77440654D01*
X61687973Y-77432275D01*
X61719191Y-77429200D01*
X62110809Y-77429200D01*
X62142027Y-77432275D01*
X62142027Y-77432275D01*
G37*
G36*
X63112027Y-77432275D02*
G01*
X63139650Y-77440654D01*
X63165113Y-77454264D01*
X63187425Y-77472575D01*
X63205736Y-77494887D01*
X63219346Y-77520350D01*
X63227725Y-77547973D01*
X63230800Y-77579191D01*
X63230800Y-78020809D01*
X63227725Y-78052027D01*
X63219346Y-78079650D01*
X63205736Y-78105113D01*
X63187425Y-78127425D01*
X63165113Y-78145736D01*
X63139650Y-78159346D01*
X63112027Y-78167725D01*
X63080809Y-78170800D01*
X62689191Y-78170800D01*
X62657973Y-78167725D01*
X62630350Y-78159346D01*
X62604887Y-78145736D01*
X62582575Y-78127425D01*
X62564264Y-78105113D01*
X62550654Y-78079650D01*
X62542275Y-78052027D01*
X62539200Y-78020809D01*
X62539200Y-77579191D01*
X62542275Y-77547973D01*
X62550654Y-77520350D01*
X62564264Y-77494887D01*
X62582575Y-77472575D01*
X62604887Y-77454264D01*
X62630350Y-77440654D01*
X62657973Y-77432275D01*
X62689191Y-77429200D01*
X63080809Y-77429200D01*
X63112027Y-77432275D01*
X63112027Y-77432275D01*
G37*
G36*
X56912027Y-77432275D02*
G01*
X56939650Y-77440654D01*
X56965113Y-77454264D01*
X56987425Y-77472575D01*
X57005736Y-77494887D01*
X57019346Y-77520350D01*
X57027725Y-77547973D01*
X57030800Y-77579191D01*
X57030800Y-78020809D01*
X57027725Y-78052027D01*
X57019346Y-78079650D01*
X57005736Y-78105113D01*
X56987425Y-78127425D01*
X56965113Y-78145736D01*
X56939650Y-78159346D01*
X56912027Y-78167725D01*
X56880809Y-78170800D01*
X56489191Y-78170800D01*
X56457973Y-78167725D01*
X56430350Y-78159346D01*
X56404887Y-78145736D01*
X56382575Y-78127425D01*
X56364264Y-78105113D01*
X56350654Y-78079650D01*
X56342275Y-78052027D01*
X56339200Y-78020809D01*
X56339200Y-77579191D01*
X56342275Y-77547973D01*
X56350654Y-77520350D01*
X56364264Y-77494887D01*
X56382575Y-77472575D01*
X56404887Y-77454264D01*
X56430350Y-77440654D01*
X56457973Y-77432275D01*
X56489191Y-77429200D01*
X56880809Y-77429200D01*
X56912027Y-77432275D01*
X56912027Y-77432275D01*
G37*
G36*
X55942027Y-77432275D02*
G01*
X55969650Y-77440654D01*
X55995113Y-77454264D01*
X56017425Y-77472575D01*
X56035736Y-77494887D01*
X56049346Y-77520350D01*
X56057725Y-77547973D01*
X56060800Y-77579191D01*
X56060800Y-78020809D01*
X56057725Y-78052027D01*
X56049346Y-78079650D01*
X56035736Y-78105113D01*
X56017425Y-78127425D01*
X55995113Y-78145736D01*
X55969650Y-78159346D01*
X55942027Y-78167725D01*
X55910809Y-78170800D01*
X55519191Y-78170800D01*
X55487973Y-78167725D01*
X55460350Y-78159346D01*
X55434887Y-78145736D01*
X55412575Y-78127425D01*
X55394264Y-78105113D01*
X55380654Y-78079650D01*
X55372275Y-78052027D01*
X55369200Y-78020809D01*
X55369200Y-77579191D01*
X55372275Y-77547973D01*
X55380654Y-77520350D01*
X55394264Y-77494887D01*
X55412575Y-77472575D01*
X55434887Y-77454264D01*
X55460350Y-77440654D01*
X55487973Y-77432275D01*
X55519191Y-77429200D01*
X55910809Y-77429200D01*
X55942027Y-77432275D01*
X55942027Y-77432275D01*
G37*
G36*
X52450800Y-76950800D02*
G01*
X51349200Y-76950800D01*
X51349200Y-75849200D01*
X52450800Y-75849200D01*
X52450800Y-76950800D01*
X52450800Y-76950800D01*
G37*
G36*
X63112027Y-75832275D02*
G01*
X63139650Y-75840654D01*
X63165113Y-75854264D01*
X63187425Y-75872575D01*
X63205736Y-75894887D01*
X63219346Y-75920350D01*
X63227725Y-75947973D01*
X63230800Y-75979191D01*
X63230800Y-76420809D01*
X63227725Y-76452027D01*
X63219346Y-76479650D01*
X63205736Y-76505113D01*
X63187425Y-76527425D01*
X63165113Y-76545736D01*
X63139650Y-76559346D01*
X63112027Y-76567725D01*
X63080809Y-76570800D01*
X62689191Y-76570800D01*
X62657973Y-76567725D01*
X62630350Y-76559346D01*
X62604887Y-76545736D01*
X62582575Y-76527425D01*
X62564264Y-76505113D01*
X62550654Y-76479650D01*
X62542275Y-76452027D01*
X62539200Y-76420809D01*
X62539200Y-75979191D01*
X62542275Y-75947973D01*
X62550654Y-75920350D01*
X62564264Y-75894887D01*
X62582575Y-75872575D01*
X62604887Y-75854264D01*
X62630350Y-75840654D01*
X62657973Y-75832275D01*
X62689191Y-75829200D01*
X63080809Y-75829200D01*
X63112027Y-75832275D01*
X63112027Y-75832275D01*
G37*
G36*
X62142027Y-75832275D02*
G01*
X62169650Y-75840654D01*
X62195113Y-75854264D01*
X62217425Y-75872575D01*
X62235736Y-75894887D01*
X62249346Y-75920350D01*
X62257725Y-75947973D01*
X62260800Y-75979191D01*
X62260800Y-76420809D01*
X62257725Y-76452027D01*
X62249346Y-76479650D01*
X62235736Y-76505113D01*
X62217425Y-76527425D01*
X62195113Y-76545736D01*
X62169650Y-76559346D01*
X62142027Y-76567725D01*
X62110809Y-76570800D01*
X61719191Y-76570800D01*
X61687973Y-76567725D01*
X61660350Y-76559346D01*
X61634887Y-76545736D01*
X61612575Y-76527425D01*
X61594264Y-76505113D01*
X61580654Y-76479650D01*
X61572275Y-76452027D01*
X61569200Y-76420809D01*
X61569200Y-75979191D01*
X61572275Y-75947973D01*
X61580654Y-75920350D01*
X61594264Y-75894887D01*
X61612575Y-75872575D01*
X61634887Y-75854264D01*
X61660350Y-75840654D01*
X61687973Y-75832275D01*
X61719191Y-75829200D01*
X62110809Y-75829200D01*
X62142027Y-75832275D01*
X62142027Y-75832275D01*
G37*
G36*
X55942027Y-75832275D02*
G01*
X55969650Y-75840654D01*
X55995113Y-75854264D01*
X56017425Y-75872575D01*
X56035736Y-75894887D01*
X56049346Y-75920350D01*
X56057725Y-75947973D01*
X56060800Y-75979191D01*
X56060800Y-76420809D01*
X56057725Y-76452027D01*
X56049346Y-76479650D01*
X56035736Y-76505113D01*
X56017425Y-76527425D01*
X55995113Y-76545736D01*
X55969650Y-76559346D01*
X55942027Y-76567725D01*
X55910809Y-76570800D01*
X55519191Y-76570800D01*
X55487973Y-76567725D01*
X55460350Y-76559346D01*
X55434887Y-76545736D01*
X55412575Y-76527425D01*
X55394264Y-76505113D01*
X55380654Y-76479650D01*
X55372275Y-76452027D01*
X55369200Y-76420809D01*
X55369200Y-75979191D01*
X55372275Y-75947973D01*
X55380654Y-75920350D01*
X55394264Y-75894887D01*
X55412575Y-75872575D01*
X55434887Y-75854264D01*
X55460350Y-75840654D01*
X55487973Y-75832275D01*
X55519191Y-75829200D01*
X55910809Y-75829200D01*
X55942027Y-75832275D01*
X55942027Y-75832275D01*
G37*
G36*
X56912027Y-75832275D02*
G01*
X56939650Y-75840654D01*
X56965113Y-75854264D01*
X56987425Y-75872575D01*
X57005736Y-75894887D01*
X57019346Y-75920350D01*
X57027725Y-75947973D01*
X57030800Y-75979191D01*
X57030800Y-76420809D01*
X57027725Y-76452027D01*
X57019346Y-76479650D01*
X57005736Y-76505113D01*
X56987425Y-76527425D01*
X56965113Y-76545736D01*
X56939650Y-76559346D01*
X56912027Y-76567725D01*
X56880809Y-76570800D01*
X56489191Y-76570800D01*
X56457973Y-76567725D01*
X56430350Y-76559346D01*
X56404887Y-76545736D01*
X56382575Y-76527425D01*
X56364264Y-76505113D01*
X56350654Y-76479650D01*
X56342275Y-76452027D01*
X56339200Y-76420809D01*
X56339200Y-75979191D01*
X56342275Y-75947973D01*
X56350654Y-75920350D01*
X56364264Y-75894887D01*
X56382575Y-75872575D01*
X56404887Y-75854264D01*
X56430350Y-75840654D01*
X56457973Y-75832275D01*
X56489191Y-75829200D01*
X56880809Y-75829200D01*
X56912027Y-75832275D01*
X56912027Y-75832275D01*
G37*
G36*
X54452027Y-74742275D02*
G01*
X54479650Y-74750654D01*
X54505113Y-74764264D01*
X54527425Y-74782575D01*
X54545736Y-74804887D01*
X54559346Y-74830350D01*
X54567725Y-74857973D01*
X54570800Y-74889191D01*
X54570800Y-75280809D01*
X54567725Y-75312027D01*
X54559346Y-75339650D01*
X54545736Y-75365113D01*
X54527425Y-75387425D01*
X54505113Y-75405736D01*
X54479650Y-75419346D01*
X54452027Y-75427725D01*
X54420809Y-75430800D01*
X53979191Y-75430800D01*
X53947973Y-75427725D01*
X53920350Y-75419346D01*
X53894887Y-75405736D01*
X53872575Y-75387425D01*
X53854264Y-75365113D01*
X53840654Y-75339650D01*
X53832275Y-75312027D01*
X53829200Y-75280809D01*
X53829200Y-74889191D01*
X53832275Y-74857973D01*
X53840654Y-74830350D01*
X53854264Y-74804887D01*
X53872575Y-74782575D01*
X53894887Y-74764264D01*
X53920350Y-74750654D01*
X53947973Y-74742275D01*
X53979191Y-74739200D01*
X54420809Y-74739200D01*
X54452027Y-74742275D01*
X54452027Y-74742275D01*
G37*
G36*
X55452028Y-74742275D02*
G01*
X55479651Y-74750654D01*
X55505114Y-74764264D01*
X55527426Y-74782575D01*
X55545737Y-74804887D01*
X55559347Y-74830350D01*
X55567726Y-74857973D01*
X55570801Y-74889191D01*
X55570801Y-75280809D01*
X55567726Y-75312027D01*
X55559347Y-75339650D01*
X55545737Y-75365113D01*
X55527426Y-75387425D01*
X55505114Y-75405736D01*
X55479651Y-75419346D01*
X55452028Y-75427725D01*
X55420810Y-75430800D01*
X54979192Y-75430800D01*
X54947974Y-75427725D01*
X54920351Y-75419346D01*
X54894888Y-75405736D01*
X54872576Y-75387425D01*
X54854265Y-75365113D01*
X54840655Y-75339650D01*
X54832276Y-75312027D01*
X54829201Y-75280809D01*
X54829201Y-74889191D01*
X54832276Y-74857973D01*
X54840655Y-74830350D01*
X54854265Y-74804887D01*
X54872576Y-74782575D01*
X54894888Y-74764264D01*
X54920351Y-74750654D01*
X54947974Y-74742275D01*
X54979192Y-74739200D01*
X55420810Y-74739200D01*
X55452028Y-74742275D01*
X55452028Y-74742275D01*
G37*
G36*
X57254552Y-74004124D02*
G01*
X57300237Y-74017982D01*
X57342333Y-74040483D01*
X57379234Y-74070766D01*
X57409517Y-74107667D01*
X57432018Y-74149763D01*
X57445876Y-74195448D01*
X57450800Y-74245442D01*
X57450800Y-74829558D01*
X57445876Y-74879552D01*
X57432018Y-74925237D01*
X57409517Y-74967333D01*
X57379234Y-75004234D01*
X57342333Y-75034517D01*
X57300237Y-75057018D01*
X57254552Y-75070876D01*
X57204558Y-75075800D01*
X56195442Y-75075800D01*
X56145448Y-75070876D01*
X56099763Y-75057018D01*
X56057667Y-75034517D01*
X56020766Y-75004234D01*
X55990483Y-74967333D01*
X55967982Y-74925237D01*
X55954124Y-74879552D01*
X55949200Y-74829558D01*
X55949200Y-74245442D01*
X55954124Y-74195448D01*
X55967982Y-74149763D01*
X55990483Y-74107667D01*
X56020766Y-74070766D01*
X56057667Y-74040483D01*
X56099763Y-74017982D01*
X56145448Y-74004124D01*
X56195442Y-73999200D01*
X57204558Y-73999200D01*
X57254552Y-74004124D01*
X57254552Y-74004124D01*
G37*
G36*
X62142027Y-74232275D02*
G01*
X62169650Y-74240654D01*
X62195113Y-74254264D01*
X62217425Y-74272575D01*
X62235736Y-74294887D01*
X62249346Y-74320350D01*
X62257725Y-74347973D01*
X62260800Y-74379191D01*
X62260800Y-74820809D01*
X62257725Y-74852027D01*
X62249346Y-74879650D01*
X62235736Y-74905113D01*
X62217425Y-74927425D01*
X62195113Y-74945736D01*
X62169650Y-74959346D01*
X62142027Y-74967725D01*
X62110809Y-74970800D01*
X61719191Y-74970800D01*
X61687973Y-74967725D01*
X61660350Y-74959346D01*
X61634887Y-74945736D01*
X61612575Y-74927425D01*
X61594264Y-74905113D01*
X61580654Y-74879650D01*
X61572275Y-74852027D01*
X61569200Y-74820809D01*
X61569200Y-74379191D01*
X61572275Y-74347973D01*
X61580654Y-74320350D01*
X61594264Y-74294887D01*
X61612575Y-74272575D01*
X61634887Y-74254264D01*
X61660350Y-74240654D01*
X61687973Y-74232275D01*
X61719191Y-74229200D01*
X62110809Y-74229200D01*
X62142027Y-74232275D01*
X62142027Y-74232275D01*
G37*
G36*
X63112027Y-74232275D02*
G01*
X63139650Y-74240654D01*
X63165113Y-74254264D01*
X63187425Y-74272575D01*
X63205736Y-74294887D01*
X63219346Y-74320350D01*
X63227725Y-74347973D01*
X63230800Y-74379191D01*
X63230800Y-74820809D01*
X63227725Y-74852027D01*
X63219346Y-74879650D01*
X63205736Y-74905113D01*
X63187425Y-74927425D01*
X63165113Y-74945736D01*
X63139650Y-74959346D01*
X63112027Y-74967725D01*
X63080809Y-74970800D01*
X62689191Y-74970800D01*
X62657973Y-74967725D01*
X62630350Y-74959346D01*
X62604887Y-74945736D01*
X62582575Y-74927425D01*
X62564264Y-74905113D01*
X62550654Y-74879650D01*
X62542275Y-74852027D01*
X62539200Y-74820809D01*
X62539200Y-74379191D01*
X62542275Y-74347973D01*
X62550654Y-74320350D01*
X62564264Y-74294887D01*
X62582575Y-74272575D01*
X62604887Y-74254264D01*
X62630350Y-74240654D01*
X62657973Y-74232275D01*
X62689191Y-74229200D01*
X63080809Y-74229200D01*
X63112027Y-74232275D01*
X63112027Y-74232275D01*
G37*
G36*
X55452028Y-73772275D02*
G01*
X55479651Y-73780654D01*
X55505114Y-73794264D01*
X55527426Y-73812575D01*
X55545737Y-73834887D01*
X55559347Y-73860350D01*
X55567726Y-73887973D01*
X55570801Y-73919191D01*
X55570801Y-74310809D01*
X55567726Y-74342027D01*
X55559347Y-74369650D01*
X55545737Y-74395113D01*
X55527426Y-74417425D01*
X55505114Y-74435736D01*
X55479651Y-74449346D01*
X55452028Y-74457725D01*
X55420810Y-74460800D01*
X54979192Y-74460800D01*
X54947974Y-74457725D01*
X54920351Y-74449346D01*
X54894888Y-74435736D01*
X54872576Y-74417425D01*
X54854265Y-74395113D01*
X54840655Y-74369650D01*
X54832276Y-74342027D01*
X54829201Y-74310809D01*
X54829201Y-73919191D01*
X54832276Y-73887973D01*
X54840655Y-73860350D01*
X54854265Y-73834887D01*
X54872576Y-73812575D01*
X54894888Y-73794264D01*
X54920351Y-73780654D01*
X54947974Y-73772275D01*
X54979192Y-73769200D01*
X55420810Y-73769200D01*
X55452028Y-73772275D01*
X55452028Y-73772275D01*
G37*
G36*
X54452027Y-73772275D02*
G01*
X54479650Y-73780654D01*
X54505113Y-73794264D01*
X54527425Y-73812575D01*
X54545736Y-73834887D01*
X54559346Y-73860350D01*
X54567725Y-73887973D01*
X54570800Y-73919191D01*
X54570800Y-74310809D01*
X54567725Y-74342027D01*
X54559346Y-74369650D01*
X54545736Y-74395113D01*
X54527425Y-74417425D01*
X54505113Y-74435736D01*
X54479650Y-74449346D01*
X54452027Y-74457725D01*
X54420809Y-74460800D01*
X53979191Y-74460800D01*
X53947973Y-74457725D01*
X53920350Y-74449346D01*
X53894887Y-74435736D01*
X53872575Y-74417425D01*
X53854264Y-74395113D01*
X53840654Y-74369650D01*
X53832275Y-74342027D01*
X53829200Y-74310809D01*
X53829200Y-73919191D01*
X53832275Y-73887973D01*
X53840654Y-73860350D01*
X53854264Y-73834887D01*
X53872575Y-73812575D01*
X53894887Y-73794264D01*
X53920350Y-73780654D01*
X53947973Y-73772275D01*
X53979191Y-73769200D01*
X54420809Y-73769200D01*
X54452027Y-73772275D01*
X54452027Y-73772275D01*
G37*
G36*
X58452027Y-73742275D02*
G01*
X58479650Y-73750654D01*
X58505113Y-73764264D01*
X58527425Y-73782575D01*
X58545736Y-73804887D01*
X58559346Y-73830350D01*
X58567725Y-73857973D01*
X58570800Y-73889191D01*
X58570800Y-74280809D01*
X58567725Y-74312027D01*
X58559346Y-74339650D01*
X58545736Y-74365113D01*
X58527425Y-74387425D01*
X58505113Y-74405736D01*
X58479650Y-74419346D01*
X58452027Y-74427725D01*
X58420809Y-74430800D01*
X57979191Y-74430800D01*
X57947973Y-74427725D01*
X57920350Y-74419346D01*
X57894887Y-74405736D01*
X57872575Y-74387425D01*
X57854264Y-74365113D01*
X57840654Y-74339650D01*
X57832275Y-74312027D01*
X57829200Y-74280809D01*
X57829200Y-73889191D01*
X57832275Y-73857973D01*
X57840654Y-73830350D01*
X57854264Y-73804887D01*
X57872575Y-73782575D01*
X57894887Y-73764264D01*
X57920350Y-73750654D01*
X57947973Y-73742275D01*
X57979191Y-73739200D01*
X58420809Y-73739200D01*
X58452027Y-73742275D01*
X58452027Y-73742275D01*
G37*
G36*
X27440075Y-72858616D02*
G01*
X27440078Y-72858617D01*
X27440079Y-72858617D01*
X27468843Y-72867343D01*
X27562754Y-72895830D01*
X27606459Y-72919191D01*
X27675814Y-72956262D01*
X27722461Y-72994544D01*
X27774911Y-73037589D01*
X27856237Y-73136685D01*
X27916670Y-73249746D01*
X27953884Y-73372425D01*
X27966449Y-73500000D01*
X27953884Y-73627575D01*
X27916670Y-73750254D01*
X27899508Y-73782361D01*
X27856238Y-73863314D01*
X27774911Y-73962411D01*
X27675814Y-74043738D01*
X27625248Y-74070766D01*
X27562754Y-74104170D01*
X27468843Y-74132657D01*
X27440079Y-74141383D01*
X27440078Y-74141383D01*
X27440075Y-74141384D01*
X27344469Y-74150800D01*
X26580531Y-74150800D01*
X26484925Y-74141384D01*
X26484922Y-74141383D01*
X26484921Y-74141383D01*
X26456157Y-74132657D01*
X26362246Y-74104170D01*
X26299752Y-74070766D01*
X26249186Y-74043738D01*
X26150089Y-73962411D01*
X26068762Y-73863314D01*
X26025492Y-73782361D01*
X26008330Y-73750254D01*
X25971116Y-73627575D01*
X25958551Y-73500000D01*
X25971116Y-73372425D01*
X26008330Y-73249746D01*
X26068763Y-73136685D01*
X26150089Y-73037589D01*
X26202539Y-72994544D01*
X26249186Y-72956262D01*
X26318541Y-72919191D01*
X26362246Y-72895830D01*
X26456157Y-72867343D01*
X26484921Y-72858617D01*
X26484922Y-72858617D01*
X26484925Y-72858616D01*
X26580531Y-72849200D01*
X27344469Y-72849200D01*
X27440075Y-72858616D01*
X27440075Y-72858616D01*
G37*
G36*
X58452027Y-72772275D02*
G01*
X58479650Y-72780654D01*
X58505113Y-72794264D01*
X58527425Y-72812575D01*
X58545736Y-72834887D01*
X58559346Y-72860350D01*
X58567725Y-72887973D01*
X58570800Y-72919191D01*
X58570800Y-73310809D01*
X58567725Y-73342027D01*
X58559346Y-73369650D01*
X58545736Y-73395113D01*
X58527425Y-73417425D01*
X58505113Y-73435736D01*
X58479650Y-73449346D01*
X58452027Y-73457725D01*
X58420809Y-73460800D01*
X57979191Y-73460800D01*
X57947973Y-73457725D01*
X57920350Y-73449346D01*
X57894887Y-73435736D01*
X57872575Y-73417425D01*
X57854264Y-73395113D01*
X57840654Y-73369650D01*
X57832275Y-73342027D01*
X57829200Y-73310809D01*
X57829200Y-72919191D01*
X57832275Y-72887973D01*
X57840654Y-72860350D01*
X57854264Y-72834887D01*
X57872575Y-72812575D01*
X57894887Y-72794264D01*
X57920350Y-72780654D01*
X57947973Y-72772275D01*
X57979191Y-72769200D01*
X58420809Y-72769200D01*
X58452027Y-72772275D01*
X58452027Y-72772275D01*
G37*
G36*
X29888793Y-71754013D02*
G01*
X30029979Y-71812494D01*
X30157045Y-71897397D01*
X30265103Y-72005455D01*
X30350006Y-72132521D01*
X30408487Y-72273707D01*
X30438300Y-72423590D01*
X30438300Y-72576410D01*
X30408487Y-72726293D01*
X30350006Y-72867479D01*
X30265103Y-72994545D01*
X30157045Y-73102603D01*
X30029979Y-73187506D01*
X29888793Y-73245987D01*
X29738910Y-73275800D01*
X29586090Y-73275800D01*
X29436207Y-73245987D01*
X29295021Y-73187506D01*
X29167955Y-73102603D01*
X29059897Y-72994545D01*
X28974994Y-72867479D01*
X28916513Y-72726293D01*
X28886700Y-72576410D01*
X28886700Y-72423590D01*
X28916513Y-72273707D01*
X28974994Y-72132521D01*
X29059897Y-72005455D01*
X29167955Y-71897397D01*
X29295021Y-71812494D01*
X29436207Y-71754013D01*
X29586090Y-71724200D01*
X29738910Y-71724200D01*
X29888793Y-71754013D01*
X29888793Y-71754013D01*
G37*
G36*
X57254552Y-72129124D02*
G01*
X57300237Y-72142982D01*
X57342333Y-72165483D01*
X57379234Y-72195766D01*
X57409517Y-72232667D01*
X57432018Y-72274763D01*
X57445876Y-72320448D01*
X57450800Y-72370442D01*
X57450800Y-72954558D01*
X57445876Y-73004552D01*
X57432018Y-73050237D01*
X57409517Y-73092333D01*
X57379234Y-73129234D01*
X57342333Y-73159517D01*
X57300237Y-73182018D01*
X57254552Y-73195876D01*
X57204558Y-73200800D01*
X56195442Y-73200800D01*
X56145448Y-73195876D01*
X56099763Y-73182018D01*
X56057667Y-73159517D01*
X56020766Y-73129234D01*
X55990483Y-73092333D01*
X55967982Y-73050237D01*
X55954124Y-73004552D01*
X55949200Y-72954558D01*
X55949200Y-72370442D01*
X55954124Y-72320448D01*
X55967982Y-72274763D01*
X55990483Y-72232667D01*
X56020766Y-72195766D01*
X56057667Y-72165483D01*
X56099763Y-72142982D01*
X56145448Y-72129124D01*
X56195442Y-72124200D01*
X57204558Y-72124200D01*
X57254552Y-72129124D01*
X57254552Y-72129124D01*
G37*
G36*
X29888793Y-66754013D02*
G01*
X30029979Y-66812494D01*
X30157045Y-66897397D01*
X30265103Y-67005455D01*
X30350006Y-67132521D01*
X30408487Y-67273707D01*
X30438300Y-67423590D01*
X30438300Y-67576410D01*
X30408487Y-67726293D01*
X30350006Y-67867479D01*
X30265103Y-67994545D01*
X30157045Y-68102603D01*
X30029979Y-68187506D01*
X29888793Y-68245987D01*
X29738910Y-68275800D01*
X29586090Y-68275800D01*
X29436207Y-68245987D01*
X29295021Y-68187506D01*
X29167955Y-68102603D01*
X29059897Y-67994545D01*
X28974994Y-67867479D01*
X28916513Y-67726293D01*
X28886700Y-67576410D01*
X28886700Y-67423590D01*
X28916513Y-67273707D01*
X28974994Y-67132521D01*
X29059897Y-67005455D01*
X29167955Y-66897397D01*
X29295021Y-66812494D01*
X29436207Y-66754013D01*
X29586090Y-66724200D01*
X29738910Y-66724200D01*
X29888793Y-66754013D01*
X29888793Y-66754013D01*
G37*
G36*
X62654552Y-66804124D02*
G01*
X62700237Y-66817982D01*
X62742333Y-66840483D01*
X62779234Y-66870766D01*
X62809517Y-66907667D01*
X62832018Y-66949763D01*
X62845876Y-66995448D01*
X62850800Y-67045442D01*
X62850800Y-67629558D01*
X62845876Y-67679552D01*
X62832018Y-67725237D01*
X62809517Y-67767333D01*
X62779234Y-67804234D01*
X62742333Y-67834517D01*
X62700237Y-67857018D01*
X62654552Y-67870876D01*
X62604558Y-67875800D01*
X61595442Y-67875800D01*
X61545448Y-67870876D01*
X61499763Y-67857018D01*
X61457667Y-67834517D01*
X61420766Y-67804234D01*
X61390483Y-67767333D01*
X61367982Y-67725237D01*
X61354124Y-67679552D01*
X61349200Y-67629558D01*
X61349200Y-67045442D01*
X61354124Y-66995448D01*
X61367982Y-66949763D01*
X61390483Y-66907667D01*
X61420766Y-66870766D01*
X61457667Y-66840483D01*
X61499763Y-66817982D01*
X61545448Y-66804124D01*
X61595442Y-66799200D01*
X62604558Y-66799200D01*
X62654552Y-66804124D01*
X62654552Y-66804124D01*
G37*
G36*
X60852027Y-66542275D02*
G01*
X60879650Y-66550654D01*
X60905113Y-66564264D01*
X60927425Y-66582575D01*
X60945736Y-66604887D01*
X60959346Y-66630350D01*
X60967725Y-66657973D01*
X60970800Y-66689191D01*
X60970800Y-67080809D01*
X60967725Y-67112027D01*
X60959346Y-67139650D01*
X60945736Y-67165113D01*
X60927425Y-67187425D01*
X60905113Y-67205736D01*
X60879650Y-67219346D01*
X60852027Y-67227725D01*
X60820809Y-67230800D01*
X60379191Y-67230800D01*
X60347973Y-67227725D01*
X60320350Y-67219346D01*
X60294887Y-67205736D01*
X60272575Y-67187425D01*
X60254264Y-67165113D01*
X60240654Y-67139650D01*
X60232275Y-67112027D01*
X60229200Y-67080809D01*
X60229200Y-66689191D01*
X60232275Y-66657973D01*
X60240654Y-66630350D01*
X60254264Y-66604887D01*
X60272575Y-66582575D01*
X60294887Y-66564264D01*
X60320350Y-66550654D01*
X60347973Y-66542275D01*
X60379191Y-66539200D01*
X60820809Y-66539200D01*
X60852027Y-66542275D01*
X60852027Y-66542275D01*
G37*
G36*
X27440075Y-65858616D02*
G01*
X27440078Y-65858617D01*
X27440079Y-65858617D01*
X27468843Y-65867343D01*
X27562754Y-65895830D01*
X27611654Y-65921968D01*
X27675814Y-65956262D01*
X27774911Y-66037589D01*
X27856238Y-66136686D01*
X27879475Y-66180159D01*
X27916670Y-66249746D01*
X27953884Y-66372425D01*
X27966449Y-66500000D01*
X27953884Y-66627575D01*
X27916670Y-66750254D01*
X27887876Y-66804124D01*
X27856238Y-66863314D01*
X27774911Y-66962411D01*
X27675814Y-67043738D01*
X27629768Y-67068350D01*
X27562754Y-67104170D01*
X27497165Y-67124066D01*
X27440079Y-67141383D01*
X27440078Y-67141383D01*
X27440075Y-67141384D01*
X27344469Y-67150800D01*
X26580531Y-67150800D01*
X26484925Y-67141384D01*
X26484922Y-67141383D01*
X26484921Y-67141383D01*
X26427835Y-67124066D01*
X26362246Y-67104170D01*
X26295232Y-67068350D01*
X26249186Y-67043738D01*
X26150089Y-66962411D01*
X26068762Y-66863314D01*
X26037124Y-66804124D01*
X26008330Y-66750254D01*
X25971116Y-66627575D01*
X25958551Y-66500000D01*
X25971116Y-66372425D01*
X26008330Y-66249746D01*
X26045525Y-66180159D01*
X26068762Y-66136686D01*
X26150089Y-66037589D01*
X26249186Y-65956262D01*
X26313346Y-65921968D01*
X26362246Y-65895830D01*
X26456157Y-65867343D01*
X26484921Y-65858617D01*
X26484922Y-65858617D01*
X26484925Y-65858616D01*
X26580531Y-65849200D01*
X27344469Y-65849200D01*
X27440075Y-65858616D01*
X27440075Y-65858616D01*
G37*
G36*
X60852027Y-65572275D02*
G01*
X60879650Y-65580654D01*
X60905113Y-65594264D01*
X60927425Y-65612575D01*
X60945736Y-65634887D01*
X60959346Y-65660350D01*
X60967725Y-65687973D01*
X60970800Y-65719191D01*
X60970800Y-66110809D01*
X60967725Y-66142027D01*
X60959346Y-66169650D01*
X60945736Y-66195113D01*
X60927425Y-66217425D01*
X60905113Y-66235736D01*
X60879650Y-66249346D01*
X60852027Y-66257725D01*
X60820809Y-66260800D01*
X60379191Y-66260800D01*
X60347973Y-66257725D01*
X60320350Y-66249346D01*
X60294887Y-66235736D01*
X60272575Y-66217425D01*
X60254264Y-66195113D01*
X60240654Y-66169650D01*
X60232275Y-66142027D01*
X60229200Y-66110809D01*
X60229200Y-65719191D01*
X60232275Y-65687973D01*
X60240654Y-65660350D01*
X60254264Y-65634887D01*
X60272575Y-65612575D01*
X60294887Y-65594264D01*
X60320350Y-65580654D01*
X60347973Y-65572275D01*
X60379191Y-65569200D01*
X60820809Y-65569200D01*
X60852027Y-65572275D01*
X60852027Y-65572275D01*
G37*
G36*
X64852027Y-65542275D02*
G01*
X64879650Y-65550654D01*
X64905113Y-65564264D01*
X64927425Y-65582575D01*
X64945736Y-65604887D01*
X64959346Y-65630350D01*
X64967725Y-65657973D01*
X64970800Y-65689191D01*
X64970800Y-66080809D01*
X64967725Y-66112027D01*
X64959346Y-66139650D01*
X64945736Y-66165113D01*
X64927425Y-66187425D01*
X64905113Y-66205736D01*
X64879650Y-66219346D01*
X64852027Y-66227725D01*
X64820809Y-66230800D01*
X64379191Y-66230800D01*
X64347973Y-66227725D01*
X64320350Y-66219346D01*
X64294887Y-66205736D01*
X64272575Y-66187425D01*
X64254264Y-66165113D01*
X64240654Y-66139650D01*
X64232275Y-66112027D01*
X64229200Y-66080809D01*
X64229200Y-65689191D01*
X64232275Y-65657973D01*
X64240654Y-65630350D01*
X64254264Y-65604887D01*
X64272575Y-65582575D01*
X64294887Y-65564264D01*
X64320350Y-65550654D01*
X64347973Y-65542275D01*
X64379191Y-65539200D01*
X64820809Y-65539200D01*
X64852027Y-65542275D01*
X64852027Y-65542275D01*
G37*
G36*
X63852027Y-65542275D02*
G01*
X63879650Y-65550654D01*
X63905113Y-65564264D01*
X63927425Y-65582575D01*
X63945736Y-65604887D01*
X63959346Y-65630350D01*
X63967725Y-65657973D01*
X63970800Y-65689191D01*
X63970800Y-66080809D01*
X63967725Y-66112027D01*
X63959346Y-66139650D01*
X63945736Y-66165113D01*
X63927425Y-66187425D01*
X63905113Y-66205736D01*
X63879650Y-66219346D01*
X63852027Y-66227725D01*
X63820809Y-66230800D01*
X63379191Y-66230800D01*
X63347973Y-66227725D01*
X63320350Y-66219346D01*
X63294887Y-66205736D01*
X63272575Y-66187425D01*
X63254264Y-66165113D01*
X63240654Y-66139650D01*
X63232275Y-66112027D01*
X63229200Y-66080809D01*
X63229200Y-65689191D01*
X63232275Y-65657973D01*
X63240654Y-65630350D01*
X63254264Y-65604887D01*
X63272575Y-65582575D01*
X63294887Y-65564264D01*
X63320350Y-65550654D01*
X63347973Y-65542275D01*
X63379191Y-65539200D01*
X63820809Y-65539200D01*
X63852027Y-65542275D01*
X63852027Y-65542275D01*
G37*
G36*
X62654552Y-64929124D02*
G01*
X62700237Y-64942982D01*
X62742333Y-64965483D01*
X62779234Y-64995766D01*
X62809517Y-65032667D01*
X62832018Y-65074763D01*
X62845876Y-65120448D01*
X62850800Y-65170442D01*
X62850800Y-65754558D01*
X62845876Y-65804552D01*
X62832018Y-65850237D01*
X62809517Y-65892333D01*
X62779234Y-65929234D01*
X62742333Y-65959517D01*
X62700237Y-65982018D01*
X62654552Y-65995876D01*
X62604558Y-66000800D01*
X61595442Y-66000800D01*
X61545448Y-65995876D01*
X61499763Y-65982018D01*
X61457667Y-65959517D01*
X61420766Y-65929234D01*
X61390483Y-65892333D01*
X61367982Y-65850237D01*
X61354124Y-65804552D01*
X61349200Y-65754558D01*
X61349200Y-65170442D01*
X61354124Y-65120448D01*
X61367982Y-65074763D01*
X61390483Y-65032667D01*
X61420766Y-64995766D01*
X61457667Y-64965483D01*
X61499763Y-64942982D01*
X61545448Y-64929124D01*
X61595442Y-64924200D01*
X62604558Y-64924200D01*
X62654552Y-64929124D01*
X62654552Y-64929124D01*
G37*
G36*
X57112027Y-65032275D02*
G01*
X57139650Y-65040654D01*
X57165113Y-65054264D01*
X57187425Y-65072575D01*
X57205736Y-65094887D01*
X57219346Y-65120350D01*
X57227725Y-65147973D01*
X57230800Y-65179191D01*
X57230800Y-65620809D01*
X57227725Y-65652027D01*
X57219346Y-65679650D01*
X57205736Y-65705113D01*
X57187425Y-65727425D01*
X57165113Y-65745736D01*
X57139650Y-65759346D01*
X57112027Y-65767725D01*
X57080809Y-65770800D01*
X56689191Y-65770800D01*
X56657973Y-65767725D01*
X56630350Y-65759346D01*
X56604887Y-65745736D01*
X56582575Y-65727425D01*
X56564264Y-65705113D01*
X56550654Y-65679650D01*
X56542275Y-65652027D01*
X56539200Y-65620809D01*
X56539200Y-65179191D01*
X56542275Y-65147973D01*
X56550654Y-65120350D01*
X56564264Y-65094887D01*
X56582575Y-65072575D01*
X56604887Y-65054264D01*
X56630350Y-65040654D01*
X56657973Y-65032275D01*
X56689191Y-65029200D01*
X57080809Y-65029200D01*
X57112027Y-65032275D01*
X57112027Y-65032275D01*
G37*
G36*
X56142027Y-65032275D02*
G01*
X56169650Y-65040654D01*
X56195113Y-65054264D01*
X56217425Y-65072575D01*
X56235736Y-65094887D01*
X56249346Y-65120350D01*
X56257725Y-65147973D01*
X56260800Y-65179191D01*
X56260800Y-65620809D01*
X56257725Y-65652027D01*
X56249346Y-65679650D01*
X56235736Y-65705113D01*
X56217425Y-65727425D01*
X56195113Y-65745736D01*
X56169650Y-65759346D01*
X56142027Y-65767725D01*
X56110809Y-65770800D01*
X55719191Y-65770800D01*
X55687973Y-65767725D01*
X55660350Y-65759346D01*
X55634887Y-65745736D01*
X55612575Y-65727425D01*
X55594264Y-65705113D01*
X55580654Y-65679650D01*
X55572275Y-65652027D01*
X55569200Y-65620809D01*
X55569200Y-65179191D01*
X55572275Y-65147973D01*
X55580654Y-65120350D01*
X55594264Y-65094887D01*
X55612575Y-65072575D01*
X55634887Y-65054264D01*
X55660350Y-65040654D01*
X55687973Y-65032275D01*
X55719191Y-65029200D01*
X56110809Y-65029200D01*
X56142027Y-65032275D01*
X56142027Y-65032275D01*
G37*
G36*
X63852027Y-64572275D02*
G01*
X63879650Y-64580654D01*
X63905113Y-64594264D01*
X63927425Y-64612575D01*
X63945736Y-64634887D01*
X63959346Y-64660350D01*
X63967725Y-64687973D01*
X63970800Y-64719191D01*
X63970800Y-65110809D01*
X63967725Y-65142027D01*
X63959346Y-65169650D01*
X63945736Y-65195113D01*
X63927425Y-65217425D01*
X63905113Y-65235736D01*
X63879650Y-65249346D01*
X63852027Y-65257725D01*
X63820809Y-65260800D01*
X63379191Y-65260800D01*
X63347973Y-65257725D01*
X63320350Y-65249346D01*
X63294887Y-65235736D01*
X63272575Y-65217425D01*
X63254264Y-65195113D01*
X63240654Y-65169650D01*
X63232275Y-65142027D01*
X63229200Y-65110809D01*
X63229200Y-64719191D01*
X63232275Y-64687973D01*
X63240654Y-64660350D01*
X63254264Y-64634887D01*
X63272575Y-64612575D01*
X63294887Y-64594264D01*
X63320350Y-64580654D01*
X63347973Y-64572275D01*
X63379191Y-64569200D01*
X63820809Y-64569200D01*
X63852027Y-64572275D01*
X63852027Y-64572275D01*
G37*
G36*
X64852027Y-64572275D02*
G01*
X64879650Y-64580654D01*
X64905113Y-64594264D01*
X64927425Y-64612575D01*
X64945736Y-64634887D01*
X64959346Y-64660350D01*
X64967725Y-64687973D01*
X64970800Y-64719191D01*
X64970800Y-65110809D01*
X64967725Y-65142027D01*
X64959346Y-65169650D01*
X64945736Y-65195113D01*
X64927425Y-65217425D01*
X64905113Y-65235736D01*
X64879650Y-65249346D01*
X64852027Y-65257725D01*
X64820809Y-65260800D01*
X64379191Y-65260800D01*
X64347973Y-65257725D01*
X64320350Y-65249346D01*
X64294887Y-65235736D01*
X64272575Y-65217425D01*
X64254264Y-65195113D01*
X64240654Y-65169650D01*
X64232275Y-65142027D01*
X64229200Y-65110809D01*
X64229200Y-64719191D01*
X64232275Y-64687973D01*
X64240654Y-64660350D01*
X64254264Y-64634887D01*
X64272575Y-64612575D01*
X64294887Y-64594264D01*
X64320350Y-64580654D01*
X64347973Y-64572275D01*
X64379191Y-64569200D01*
X64820809Y-64569200D01*
X64852027Y-64572275D01*
X64852027Y-64572275D01*
G37*
G36*
X62342027Y-63432275D02*
G01*
X62369650Y-63440654D01*
X62395113Y-63454264D01*
X62417425Y-63472575D01*
X62435736Y-63494887D01*
X62449346Y-63520350D01*
X62457725Y-63547973D01*
X62460800Y-63579191D01*
X62460800Y-64020809D01*
X62457725Y-64052027D01*
X62449346Y-64079650D01*
X62435736Y-64105113D01*
X62417425Y-64127425D01*
X62395113Y-64145736D01*
X62369650Y-64159346D01*
X62342027Y-64167725D01*
X62310809Y-64170800D01*
X61919191Y-64170800D01*
X61887973Y-64167725D01*
X61860350Y-64159346D01*
X61834887Y-64145736D01*
X61812575Y-64127425D01*
X61794264Y-64105113D01*
X61780654Y-64079650D01*
X61772275Y-64052027D01*
X61769200Y-64020809D01*
X61769200Y-63579191D01*
X61772275Y-63547973D01*
X61780654Y-63520350D01*
X61794264Y-63494887D01*
X61812575Y-63472575D01*
X61834887Y-63454264D01*
X61860350Y-63440654D01*
X61887973Y-63432275D01*
X61919191Y-63429200D01*
X62310809Y-63429200D01*
X62342027Y-63432275D01*
X62342027Y-63432275D01*
G37*
G36*
X56142027Y-63432275D02*
G01*
X56169650Y-63440654D01*
X56195113Y-63454264D01*
X56217425Y-63472575D01*
X56235736Y-63494887D01*
X56249346Y-63520350D01*
X56257725Y-63547973D01*
X56260800Y-63579191D01*
X56260800Y-64020809D01*
X56257725Y-64052027D01*
X56249346Y-64079650D01*
X56235736Y-64105113D01*
X56217425Y-64127425D01*
X56195113Y-64145736D01*
X56169650Y-64159346D01*
X56142027Y-64167725D01*
X56110809Y-64170800D01*
X55719191Y-64170800D01*
X55687973Y-64167725D01*
X55660350Y-64159346D01*
X55634887Y-64145736D01*
X55612575Y-64127425D01*
X55594264Y-64105113D01*
X55580654Y-64079650D01*
X55572275Y-64052027D01*
X55569200Y-64020809D01*
X55569200Y-63579191D01*
X55572275Y-63547973D01*
X55580654Y-63520350D01*
X55594264Y-63494887D01*
X55612575Y-63472575D01*
X55634887Y-63454264D01*
X55660350Y-63440654D01*
X55687973Y-63432275D01*
X55719191Y-63429200D01*
X56110809Y-63429200D01*
X56142027Y-63432275D01*
X56142027Y-63432275D01*
G37*
G36*
X57112027Y-63432275D02*
G01*
X57139650Y-63440654D01*
X57165113Y-63454264D01*
X57187425Y-63472575D01*
X57205736Y-63494887D01*
X57219346Y-63520350D01*
X57227725Y-63547973D01*
X57230800Y-63579191D01*
X57230800Y-64020809D01*
X57227725Y-64052027D01*
X57219346Y-64079650D01*
X57205736Y-64105113D01*
X57187425Y-64127425D01*
X57165113Y-64145736D01*
X57139650Y-64159346D01*
X57112027Y-64167725D01*
X57080809Y-64170800D01*
X56689191Y-64170800D01*
X56657973Y-64167725D01*
X56630350Y-64159346D01*
X56604887Y-64145736D01*
X56582575Y-64127425D01*
X56564264Y-64105113D01*
X56550654Y-64079650D01*
X56542275Y-64052027D01*
X56539200Y-64020809D01*
X56539200Y-63579191D01*
X56542275Y-63547973D01*
X56550654Y-63520350D01*
X56564264Y-63494887D01*
X56582575Y-63472575D01*
X56604887Y-63454264D01*
X56630350Y-63440654D01*
X56657973Y-63432275D01*
X56689191Y-63429200D01*
X57080809Y-63429200D01*
X57112027Y-63432275D01*
X57112027Y-63432275D01*
G37*
G36*
X63312027Y-63432275D02*
G01*
X63339650Y-63440654D01*
X63365113Y-63454264D01*
X63387425Y-63472575D01*
X63405736Y-63494887D01*
X63419346Y-63520350D01*
X63427725Y-63547973D01*
X63430800Y-63579191D01*
X63430800Y-64020809D01*
X63427725Y-64052027D01*
X63419346Y-64079650D01*
X63405736Y-64105113D01*
X63387425Y-64127425D01*
X63365113Y-64145736D01*
X63339650Y-64159346D01*
X63312027Y-64167725D01*
X63280809Y-64170800D01*
X62889191Y-64170800D01*
X62857973Y-64167725D01*
X62830350Y-64159346D01*
X62804887Y-64145736D01*
X62782575Y-64127425D01*
X62764264Y-64105113D01*
X62750654Y-64079650D01*
X62742275Y-64052027D01*
X62739200Y-64020809D01*
X62739200Y-63579191D01*
X62742275Y-63547973D01*
X62750654Y-63520350D01*
X62764264Y-63494887D01*
X62782575Y-63472575D01*
X62804887Y-63454264D01*
X62830350Y-63440654D01*
X62857973Y-63432275D01*
X62889191Y-63429200D01*
X63280809Y-63429200D01*
X63312027Y-63432275D01*
X63312027Y-63432275D01*
G37*
G36*
X67450800Y-64150800D02*
G01*
X66349200Y-64150800D01*
X66349200Y-63049200D01*
X67450800Y-63049200D01*
X67450800Y-64150800D01*
X67450800Y-64150800D01*
G37*
G36*
X52450800Y-64150800D02*
G01*
X51349200Y-64150800D01*
X51349200Y-63049200D01*
X52450800Y-63049200D01*
X52450800Y-64150800D01*
X52450800Y-64150800D01*
G37*
G36*
X27676584Y-62112233D02*
G01*
X27676587Y-62112234D01*
X27676588Y-62112234D01*
X27846389Y-62163743D01*
X27893861Y-62189117D01*
X28002881Y-62247389D01*
X28140044Y-62359956D01*
X28252611Y-62497119D01*
X28310883Y-62606139D01*
X28336257Y-62653611D01*
X28387766Y-62823412D01*
X28387767Y-62823416D01*
X28405159Y-63000000D01*
X28387767Y-63176584D01*
X28387766Y-63176587D01*
X28387766Y-63176588D01*
X28336257Y-63346389D01*
X28336256Y-63346390D01*
X28252611Y-63502881D01*
X28140044Y-63640044D01*
X28002881Y-63752611D01*
X27893861Y-63810883D01*
X27846389Y-63836257D01*
X27676588Y-63887766D01*
X27676587Y-63887766D01*
X27676584Y-63887767D01*
X27544255Y-63900800D01*
X27455745Y-63900800D01*
X27323416Y-63887767D01*
X27323413Y-63887766D01*
X27323412Y-63887766D01*
X27153611Y-63836257D01*
X27106139Y-63810883D01*
X26997119Y-63752611D01*
X26859956Y-63640044D01*
X26747389Y-63502881D01*
X26663744Y-63346390D01*
X26663743Y-63346389D01*
X26612234Y-63176588D01*
X26612234Y-63176587D01*
X26612233Y-63176584D01*
X26594841Y-63000000D01*
X26612233Y-62823416D01*
X26612234Y-62823412D01*
X26663743Y-62653611D01*
X26689117Y-62606139D01*
X26747389Y-62497119D01*
X26859956Y-62359956D01*
X26997119Y-62247389D01*
X27106139Y-62189117D01*
X27153611Y-62163743D01*
X27323412Y-62112234D01*
X27323413Y-62112234D01*
X27323416Y-62112233D01*
X27455745Y-62099200D01*
X27544255Y-62099200D01*
X27676584Y-62112233D01*
X27676584Y-62112233D01*
G37*
G36*
X56142027Y-61832275D02*
G01*
X56169650Y-61840654D01*
X56195113Y-61854264D01*
X56217425Y-61872575D01*
X56235736Y-61894887D01*
X56249346Y-61920350D01*
X56257725Y-61947973D01*
X56260800Y-61979191D01*
X56260800Y-62420809D01*
X56257725Y-62452027D01*
X56249346Y-62479650D01*
X56235736Y-62505113D01*
X56217425Y-62527425D01*
X56195113Y-62545736D01*
X56169650Y-62559346D01*
X56142027Y-62567725D01*
X56110809Y-62570800D01*
X55719191Y-62570800D01*
X55687973Y-62567725D01*
X55660350Y-62559346D01*
X55634887Y-62545736D01*
X55612575Y-62527425D01*
X55594264Y-62505113D01*
X55580654Y-62479650D01*
X55572275Y-62452027D01*
X55569200Y-62420809D01*
X55569200Y-61979191D01*
X55572275Y-61947973D01*
X55580654Y-61920350D01*
X55594264Y-61894887D01*
X55612575Y-61872575D01*
X55634887Y-61854264D01*
X55660350Y-61840654D01*
X55687973Y-61832275D01*
X55719191Y-61829200D01*
X56110809Y-61829200D01*
X56142027Y-61832275D01*
X56142027Y-61832275D01*
G37*
G36*
X62342027Y-61832275D02*
G01*
X62369650Y-61840654D01*
X62395113Y-61854264D01*
X62417425Y-61872575D01*
X62435736Y-61894887D01*
X62449346Y-61920350D01*
X62457725Y-61947973D01*
X62460800Y-61979191D01*
X62460800Y-62420809D01*
X62457725Y-62452027D01*
X62449346Y-62479650D01*
X62435736Y-62505113D01*
X62417425Y-62527425D01*
X62395113Y-62545736D01*
X62369650Y-62559346D01*
X62342027Y-62567725D01*
X62310809Y-62570800D01*
X61919191Y-62570800D01*
X61887973Y-62567725D01*
X61860350Y-62559346D01*
X61834887Y-62545736D01*
X61812575Y-62527425D01*
X61794264Y-62505113D01*
X61780654Y-62479650D01*
X61772275Y-62452027D01*
X61769200Y-62420809D01*
X61769200Y-61979191D01*
X61772275Y-61947973D01*
X61780654Y-61920350D01*
X61794264Y-61894887D01*
X61812575Y-61872575D01*
X61834887Y-61854264D01*
X61860350Y-61840654D01*
X61887973Y-61832275D01*
X61919191Y-61829200D01*
X62310809Y-61829200D01*
X62342027Y-61832275D01*
X62342027Y-61832275D01*
G37*
G36*
X57112027Y-61832275D02*
G01*
X57139650Y-61840654D01*
X57165113Y-61854264D01*
X57187425Y-61872575D01*
X57205736Y-61894887D01*
X57219346Y-61920350D01*
X57227725Y-61947973D01*
X57230800Y-61979191D01*
X57230800Y-62420809D01*
X57227725Y-62452027D01*
X57219346Y-62479650D01*
X57205736Y-62505113D01*
X57187425Y-62527425D01*
X57165113Y-62545736D01*
X57139650Y-62559346D01*
X57112027Y-62567725D01*
X57080809Y-62570800D01*
X56689191Y-62570800D01*
X56657973Y-62567725D01*
X56630350Y-62559346D01*
X56604887Y-62545736D01*
X56582575Y-62527425D01*
X56564264Y-62505113D01*
X56550654Y-62479650D01*
X56542275Y-62452027D01*
X56539200Y-62420809D01*
X56539200Y-61979191D01*
X56542275Y-61947973D01*
X56550654Y-61920350D01*
X56564264Y-61894887D01*
X56582575Y-61872575D01*
X56604887Y-61854264D01*
X56630350Y-61840654D01*
X56657973Y-61832275D01*
X56689191Y-61829200D01*
X57080809Y-61829200D01*
X57112027Y-61832275D01*
X57112027Y-61832275D01*
G37*
G36*
X63312027Y-61832275D02*
G01*
X63339650Y-61840654D01*
X63365113Y-61854264D01*
X63387425Y-61872575D01*
X63405736Y-61894887D01*
X63419346Y-61920350D01*
X63427725Y-61947973D01*
X63430800Y-61979191D01*
X63430800Y-62420809D01*
X63427725Y-62452027D01*
X63419346Y-62479650D01*
X63405736Y-62505113D01*
X63387425Y-62527425D01*
X63365113Y-62545736D01*
X63339650Y-62559346D01*
X63312027Y-62567725D01*
X63280809Y-62570800D01*
X62889191Y-62570800D01*
X62857973Y-62567725D01*
X62830350Y-62559346D01*
X62804887Y-62545736D01*
X62782575Y-62527425D01*
X62764264Y-62505113D01*
X62750654Y-62479650D01*
X62742275Y-62452027D01*
X62739200Y-62420809D01*
X62739200Y-61979191D01*
X62742275Y-61947973D01*
X62750654Y-61920350D01*
X62764264Y-61894887D01*
X62782575Y-61872575D01*
X62804887Y-61854264D01*
X62830350Y-61840654D01*
X62857973Y-61832275D01*
X62889191Y-61829200D01*
X63280809Y-61829200D01*
X63312027Y-61832275D01*
X63312027Y-61832275D01*
G37*
G36*
X52450800Y-62150800D02*
G01*
X51349200Y-62150800D01*
X51349200Y-61049200D01*
X52450800Y-61049200D01*
X52450800Y-62150800D01*
X52450800Y-62150800D01*
G37*
G36*
X67450800Y-62150800D02*
G01*
X66349200Y-62150800D01*
X66349200Y-61049200D01*
X67450800Y-61049200D01*
X67450800Y-62150800D01*
X67450800Y-62150800D01*
G37*
G36*
X28400800Y-61360800D02*
G01*
X26599200Y-61360800D01*
X26599200Y-59559200D01*
X28400800Y-59559200D01*
X28400800Y-61360800D01*
X28400800Y-61360800D01*
G37*
G36*
X63312027Y-60232275D02*
G01*
X63339650Y-60240654D01*
X63365113Y-60254264D01*
X63387425Y-60272575D01*
X63405736Y-60294887D01*
X63419346Y-60320350D01*
X63427725Y-60347973D01*
X63430800Y-60379191D01*
X63430800Y-60820809D01*
X63427725Y-60852027D01*
X63419346Y-60879650D01*
X63405736Y-60905113D01*
X63387425Y-60927425D01*
X63365113Y-60945736D01*
X63339650Y-60959346D01*
X63312027Y-60967725D01*
X63280809Y-60970800D01*
X62889191Y-60970800D01*
X62857973Y-60967725D01*
X62830350Y-60959346D01*
X62804887Y-60945736D01*
X62782575Y-60927425D01*
X62764264Y-60905113D01*
X62750654Y-60879650D01*
X62742275Y-60852027D01*
X62739200Y-60820809D01*
X62739200Y-60379191D01*
X62742275Y-60347973D01*
X62750654Y-60320350D01*
X62764264Y-60294887D01*
X62782575Y-60272575D01*
X62804887Y-60254264D01*
X62830350Y-60240654D01*
X62857973Y-60232275D01*
X62889191Y-60229200D01*
X63280809Y-60229200D01*
X63312027Y-60232275D01*
X63312027Y-60232275D01*
G37*
G36*
X59942027Y-60232275D02*
G01*
X59969650Y-60240654D01*
X59995113Y-60254264D01*
X60017425Y-60272575D01*
X60035736Y-60294887D01*
X60049346Y-60320350D01*
X60057725Y-60347973D01*
X60060800Y-60379191D01*
X60060800Y-60820809D01*
X60057725Y-60852027D01*
X60049346Y-60879650D01*
X60035736Y-60905113D01*
X60017425Y-60927425D01*
X59995113Y-60945736D01*
X59969650Y-60959346D01*
X59942027Y-60967725D01*
X59910809Y-60970800D01*
X59519191Y-60970800D01*
X59487973Y-60967725D01*
X59460350Y-60959346D01*
X59434887Y-60945736D01*
X59412575Y-60927425D01*
X59394264Y-60905113D01*
X59380654Y-60879650D01*
X59372275Y-60852027D01*
X59369200Y-60820809D01*
X59369200Y-60379191D01*
X59372275Y-60347973D01*
X59380654Y-60320350D01*
X59394264Y-60294887D01*
X59412575Y-60272575D01*
X59434887Y-60254264D01*
X59460350Y-60240654D01*
X59487973Y-60232275D01*
X59519191Y-60229200D01*
X59910809Y-60229200D01*
X59942027Y-60232275D01*
X59942027Y-60232275D01*
G37*
G36*
X60912027Y-60232275D02*
G01*
X60939650Y-60240654D01*
X60965113Y-60254264D01*
X60987425Y-60272575D01*
X61005736Y-60294887D01*
X61019346Y-60320350D01*
X61027725Y-60347973D01*
X61030800Y-60379191D01*
X61030800Y-60820809D01*
X61027725Y-60852027D01*
X61019346Y-60879650D01*
X61005736Y-60905113D01*
X60987425Y-60927425D01*
X60965113Y-60945736D01*
X60939650Y-60959346D01*
X60912027Y-60967725D01*
X60880809Y-60970800D01*
X60489191Y-60970800D01*
X60457973Y-60967725D01*
X60430350Y-60959346D01*
X60404887Y-60945736D01*
X60382575Y-60927425D01*
X60364264Y-60905113D01*
X60350654Y-60879650D01*
X60342275Y-60852027D01*
X60339200Y-60820809D01*
X60339200Y-60379191D01*
X60342275Y-60347973D01*
X60350654Y-60320350D01*
X60364264Y-60294887D01*
X60382575Y-60272575D01*
X60404887Y-60254264D01*
X60430350Y-60240654D01*
X60457973Y-60232275D01*
X60489191Y-60229200D01*
X60880809Y-60229200D01*
X60912027Y-60232275D01*
X60912027Y-60232275D01*
G37*
G36*
X57112027Y-60232275D02*
G01*
X57139650Y-60240654D01*
X57165113Y-60254264D01*
X57187425Y-60272575D01*
X57205736Y-60294887D01*
X57219346Y-60320350D01*
X57227725Y-60347973D01*
X57230800Y-60379191D01*
X57230800Y-60820809D01*
X57227725Y-60852027D01*
X57219346Y-60879650D01*
X57205736Y-60905113D01*
X57187425Y-60927425D01*
X57165113Y-60945736D01*
X57139650Y-60959346D01*
X57112027Y-60967725D01*
X57080809Y-60970800D01*
X56689191Y-60970800D01*
X56657973Y-60967725D01*
X56630350Y-60959346D01*
X56604887Y-60945736D01*
X56582575Y-60927425D01*
X56564264Y-60905113D01*
X56550654Y-60879650D01*
X56542275Y-60852027D01*
X56539200Y-60820809D01*
X56539200Y-60379191D01*
X56542275Y-60347973D01*
X56550654Y-60320350D01*
X56564264Y-60294887D01*
X56582575Y-60272575D01*
X56604887Y-60254264D01*
X56630350Y-60240654D01*
X56657973Y-60232275D01*
X56689191Y-60229200D01*
X57080809Y-60229200D01*
X57112027Y-60232275D01*
X57112027Y-60232275D01*
G37*
G36*
X56142027Y-60232275D02*
G01*
X56169650Y-60240654D01*
X56195113Y-60254264D01*
X56217425Y-60272575D01*
X56235736Y-60294887D01*
X56249346Y-60320350D01*
X56257725Y-60347973D01*
X56260800Y-60379191D01*
X56260800Y-60820809D01*
X56257725Y-60852027D01*
X56249346Y-60879650D01*
X56235736Y-60905113D01*
X56217425Y-60927425D01*
X56195113Y-60945736D01*
X56169650Y-60959346D01*
X56142027Y-60967725D01*
X56110809Y-60970800D01*
X55719191Y-60970800D01*
X55687973Y-60967725D01*
X55660350Y-60959346D01*
X55634887Y-60945736D01*
X55612575Y-60927425D01*
X55594264Y-60905113D01*
X55580654Y-60879650D01*
X55572275Y-60852027D01*
X55569200Y-60820809D01*
X55569200Y-60379191D01*
X55572275Y-60347973D01*
X55580654Y-60320350D01*
X55594264Y-60294887D01*
X55612575Y-60272575D01*
X55634887Y-60254264D01*
X55660350Y-60240654D01*
X55687973Y-60232275D01*
X55719191Y-60229200D01*
X56110809Y-60229200D01*
X56142027Y-60232275D01*
X56142027Y-60232275D01*
G37*
G36*
X62342027Y-60232275D02*
G01*
X62369650Y-60240654D01*
X62395113Y-60254264D01*
X62417425Y-60272575D01*
X62435736Y-60294887D01*
X62449346Y-60320350D01*
X62457725Y-60347973D01*
X62460800Y-60379191D01*
X62460800Y-60820809D01*
X62457725Y-60852027D01*
X62449346Y-60879650D01*
X62435736Y-60905113D01*
X62417425Y-60927425D01*
X62395113Y-60945736D01*
X62369650Y-60959346D01*
X62342027Y-60967725D01*
X62310809Y-60970800D01*
X61919191Y-60970800D01*
X61887973Y-60967725D01*
X61860350Y-60959346D01*
X61834887Y-60945736D01*
X61812575Y-60927425D01*
X61794264Y-60905113D01*
X61780654Y-60879650D01*
X61772275Y-60852027D01*
X61769200Y-60820809D01*
X61769200Y-60379191D01*
X61772275Y-60347973D01*
X61780654Y-60320350D01*
X61794264Y-60294887D01*
X61812575Y-60272575D01*
X61834887Y-60254264D01*
X61860350Y-60240654D01*
X61887973Y-60232275D01*
X61919191Y-60229200D01*
X62310809Y-60229200D01*
X62342027Y-60232275D01*
X62342027Y-60232275D01*
G37*
G36*
X64712027Y-59032275D02*
G01*
X64739650Y-59040654D01*
X64765113Y-59054264D01*
X64787425Y-59072575D01*
X64805736Y-59094887D01*
X64819346Y-59120350D01*
X64827725Y-59147973D01*
X64830800Y-59179191D01*
X64830800Y-59620809D01*
X64827725Y-59652027D01*
X64819346Y-59679650D01*
X64805736Y-59705113D01*
X64787425Y-59727425D01*
X64765113Y-59745736D01*
X64739650Y-59759346D01*
X64712027Y-59767725D01*
X64680809Y-59770800D01*
X64289191Y-59770800D01*
X64257973Y-59767725D01*
X64230350Y-59759346D01*
X64204887Y-59745736D01*
X64182575Y-59727425D01*
X64164264Y-59705113D01*
X64150654Y-59679650D01*
X64142275Y-59652027D01*
X64139200Y-59620809D01*
X64139200Y-59179191D01*
X64142275Y-59147973D01*
X64150654Y-59120350D01*
X64164264Y-59094887D01*
X64182575Y-59072575D01*
X64204887Y-59054264D01*
X64230350Y-59040654D01*
X64257973Y-59032275D01*
X64289191Y-59029200D01*
X64680809Y-59029200D01*
X64712027Y-59032275D01*
X64712027Y-59032275D01*
G37*
G36*
X63742027Y-59032275D02*
G01*
X63769650Y-59040654D01*
X63795113Y-59054264D01*
X63817425Y-59072575D01*
X63835736Y-59094887D01*
X63849346Y-59120350D01*
X63857725Y-59147973D01*
X63860800Y-59179191D01*
X63860800Y-59620809D01*
X63857725Y-59652027D01*
X63849346Y-59679650D01*
X63835736Y-59705113D01*
X63817425Y-59727425D01*
X63795113Y-59745736D01*
X63769650Y-59759346D01*
X63742027Y-59767725D01*
X63710809Y-59770800D01*
X63319191Y-59770800D01*
X63287973Y-59767725D01*
X63260350Y-59759346D01*
X63234887Y-59745736D01*
X63212575Y-59727425D01*
X63194264Y-59705113D01*
X63180654Y-59679650D01*
X63172275Y-59652027D01*
X63169200Y-59620809D01*
X63169200Y-59179191D01*
X63172275Y-59147973D01*
X63180654Y-59120350D01*
X63194264Y-59094887D01*
X63212575Y-59072575D01*
X63234887Y-59054264D01*
X63260350Y-59040654D01*
X63287973Y-59032275D01*
X63319191Y-59029200D01*
X63710809Y-59029200D01*
X63742027Y-59032275D01*
X63742027Y-59032275D01*
G37*
G36*
X59712027Y-58832275D02*
G01*
X59739650Y-58840654D01*
X59765113Y-58854264D01*
X59787425Y-58872575D01*
X59805736Y-58894887D01*
X59819346Y-58920350D01*
X59827725Y-58947973D01*
X59830800Y-58979191D01*
X59830800Y-59420809D01*
X59827725Y-59452027D01*
X59819346Y-59479650D01*
X59805736Y-59505113D01*
X59787425Y-59527425D01*
X59765113Y-59545736D01*
X59739650Y-59559346D01*
X59712027Y-59567725D01*
X59680809Y-59570800D01*
X59289191Y-59570800D01*
X59257973Y-59567725D01*
X59230350Y-59559346D01*
X59204887Y-59545736D01*
X59182575Y-59527425D01*
X59164264Y-59505113D01*
X59150654Y-59479650D01*
X59142275Y-59452027D01*
X59139200Y-59420809D01*
X59139200Y-58979191D01*
X59142275Y-58947973D01*
X59150654Y-58920350D01*
X59164264Y-58894887D01*
X59182575Y-58872575D01*
X59204887Y-58854264D01*
X59230350Y-58840654D01*
X59257973Y-58832275D01*
X59289191Y-58829200D01*
X59680809Y-58829200D01*
X59712027Y-58832275D01*
X59712027Y-58832275D01*
G37*
G36*
X58742027Y-58832275D02*
G01*
X58769650Y-58840654D01*
X58795113Y-58854264D01*
X58817425Y-58872575D01*
X58835736Y-58894887D01*
X58849346Y-58920350D01*
X58857725Y-58947973D01*
X58860800Y-58979191D01*
X58860800Y-59420809D01*
X58857725Y-59452027D01*
X58849346Y-59479650D01*
X58835736Y-59505113D01*
X58817425Y-59527425D01*
X58795113Y-59545736D01*
X58769650Y-59559346D01*
X58742027Y-59567725D01*
X58710809Y-59570800D01*
X58319191Y-59570800D01*
X58287973Y-59567725D01*
X58260350Y-59559346D01*
X58234887Y-59545736D01*
X58212575Y-59527425D01*
X58194264Y-59505113D01*
X58180654Y-59479650D01*
X58172275Y-59452027D01*
X58169200Y-59420809D01*
X58169200Y-58979191D01*
X58172275Y-58947973D01*
X58180654Y-58920350D01*
X58194264Y-58894887D01*
X58212575Y-58872575D01*
X58234887Y-58854264D01*
X58260350Y-58840654D01*
X58287973Y-58832275D01*
X58319191Y-58829200D01*
X58710809Y-58829200D01*
X58742027Y-58832275D01*
X58742027Y-58832275D01*
G37*
G36*
X60979552Y-56954124D02*
G01*
X61025237Y-56967982D01*
X61067333Y-56990483D01*
X61104234Y-57020766D01*
X61134517Y-57057667D01*
X61157018Y-57099763D01*
X61170876Y-57145448D01*
X61175800Y-57195442D01*
X61175800Y-58204558D01*
X61170876Y-58254552D01*
X61157018Y-58300237D01*
X61134517Y-58342333D01*
X61104234Y-58379234D01*
X61067333Y-58409517D01*
X61025237Y-58432018D01*
X60979552Y-58445876D01*
X60929558Y-58450800D01*
X60345442Y-58450800D01*
X60295448Y-58445876D01*
X60249763Y-58432018D01*
X60207667Y-58409517D01*
X60170766Y-58379234D01*
X60140483Y-58342333D01*
X60117982Y-58300237D01*
X60104124Y-58254552D01*
X60099200Y-58204558D01*
X60099200Y-57195442D01*
X60104124Y-57145448D01*
X60117982Y-57099763D01*
X60140483Y-57057667D01*
X60170766Y-57020766D01*
X60207667Y-56990483D01*
X60249763Y-56967982D01*
X60295448Y-56954124D01*
X60345442Y-56949200D01*
X60929558Y-56949200D01*
X60979552Y-56954124D01*
X60979552Y-56954124D01*
G37*
G36*
X59104552Y-56954124D02*
G01*
X59150237Y-56967982D01*
X59192333Y-56990483D01*
X59229234Y-57020766D01*
X59259517Y-57057667D01*
X59282018Y-57099763D01*
X59295876Y-57145448D01*
X59300800Y-57195442D01*
X59300800Y-58204558D01*
X59295876Y-58254552D01*
X59282018Y-58300237D01*
X59259517Y-58342333D01*
X59229234Y-58379234D01*
X59192333Y-58409517D01*
X59150237Y-58432018D01*
X59104552Y-58445876D01*
X59054558Y-58450800D01*
X58470442Y-58450800D01*
X58420448Y-58445876D01*
X58374763Y-58432018D01*
X58332667Y-58409517D01*
X58295766Y-58379234D01*
X58265483Y-58342333D01*
X58242982Y-58300237D01*
X58229124Y-58254552D01*
X58224200Y-58204558D01*
X58224200Y-57195442D01*
X58229124Y-57145448D01*
X58242982Y-57099763D01*
X58265483Y-57057667D01*
X58295766Y-57020766D01*
X58332667Y-56990483D01*
X58374763Y-56967982D01*
X58420448Y-56954124D01*
X58470442Y-56949200D01*
X59054558Y-56949200D01*
X59104552Y-56954124D01*
X59104552Y-56954124D01*
G37*
G36*
X64800800Y-58400800D02*
G01*
X63199200Y-58400800D01*
X63199200Y-57299200D01*
X64800800Y-57299200D01*
X64800800Y-58400800D01*
X64800800Y-58400800D01*
G37*
G36*
X64800800Y-57100800D02*
G01*
X63199200Y-57100800D01*
X63199200Y-55999200D01*
X64800800Y-55999200D01*
X64800800Y-57100800D01*
X64800800Y-57100800D01*
G37*
G36*
X59612027Y-55832275D02*
G01*
X59639650Y-55840654D01*
X59665113Y-55854264D01*
X59687425Y-55872575D01*
X59705736Y-55894887D01*
X59719346Y-55920350D01*
X59727725Y-55947973D01*
X59730800Y-55979191D01*
X59730800Y-56420809D01*
X59727725Y-56452027D01*
X59719346Y-56479650D01*
X59705736Y-56505113D01*
X59687425Y-56527425D01*
X59665113Y-56545736D01*
X59639650Y-56559346D01*
X59612027Y-56567725D01*
X59580809Y-56570800D01*
X59189191Y-56570800D01*
X59157973Y-56567725D01*
X59130350Y-56559346D01*
X59104887Y-56545736D01*
X59082575Y-56527425D01*
X59064264Y-56505113D01*
X59050654Y-56479650D01*
X59042275Y-56452027D01*
X59039200Y-56420809D01*
X59039200Y-55979191D01*
X59042275Y-55947973D01*
X59050654Y-55920350D01*
X59064264Y-55894887D01*
X59082575Y-55872575D01*
X59104887Y-55854264D01*
X59130350Y-55840654D01*
X59157973Y-55832275D01*
X59189191Y-55829200D01*
X59580809Y-55829200D01*
X59612027Y-55832275D01*
X59612027Y-55832275D01*
G37*
G36*
X58642027Y-55832275D02*
G01*
X58669650Y-55840654D01*
X58695113Y-55854264D01*
X58717425Y-55872575D01*
X58735736Y-55894887D01*
X58749346Y-55920350D01*
X58757725Y-55947973D01*
X58760800Y-55979191D01*
X58760800Y-56420809D01*
X58757725Y-56452027D01*
X58749346Y-56479650D01*
X58735736Y-56505113D01*
X58717425Y-56527425D01*
X58695113Y-56545736D01*
X58669650Y-56559346D01*
X58642027Y-56567725D01*
X58610809Y-56570800D01*
X58219191Y-56570800D01*
X58187973Y-56567725D01*
X58160350Y-56559346D01*
X58134887Y-56545736D01*
X58112575Y-56527425D01*
X58094264Y-56505113D01*
X58080654Y-56479650D01*
X58072275Y-56452027D01*
X58069200Y-56420809D01*
X58069200Y-55979191D01*
X58072275Y-55947973D01*
X58080654Y-55920350D01*
X58094264Y-55894887D01*
X58112575Y-55872575D01*
X58134887Y-55854264D01*
X58160350Y-55840654D01*
X58187973Y-55832275D01*
X58219191Y-55829200D01*
X58610809Y-55829200D01*
X58642027Y-55832275D01*
X58642027Y-55832275D01*
G37*
G36*
X27744041Y-50547226D02*
G01*
X28208257Y-50739510D01*
X28626042Y-51018665D01*
X28981335Y-51373958D01*
X29260490Y-51791743D01*
X29452774Y-52255959D01*
X29550800Y-52748768D01*
X29550800Y-53251232D01*
X29452774Y-53744041D01*
X29260490Y-54208257D01*
X28981335Y-54626042D01*
X28626042Y-54981335D01*
X28208257Y-55260490D01*
X27744041Y-55452774D01*
X27251232Y-55550800D01*
X26748768Y-55550800D01*
X26255959Y-55452774D01*
X25791743Y-55260490D01*
X25373958Y-54981335D01*
X25018665Y-54626042D01*
X24739510Y-54208257D01*
X24547226Y-53744041D01*
X24449200Y-53251232D01*
X24449200Y-52748768D01*
X24547226Y-52255959D01*
X24739510Y-51791743D01*
X25018665Y-51373958D01*
X25373958Y-51018665D01*
X25791743Y-50739510D01*
X26255959Y-50547226D01*
X26748768Y-50449200D01*
X27251232Y-50449200D01*
X27744041Y-50547226D01*
X27744041Y-50547226D01*
G37*
G36*
X72744041Y-50547226D02*
G01*
X73208257Y-50739510D01*
X73626042Y-51018665D01*
X73981335Y-51373958D01*
X74260490Y-51791743D01*
X74452774Y-52255959D01*
X74550800Y-52748768D01*
X74550800Y-53251232D01*
X74452774Y-53744041D01*
X74260490Y-54208257D01*
X73981335Y-54626042D01*
X73626042Y-54981335D01*
X73208257Y-55260490D01*
X72744041Y-55452774D01*
X72251232Y-55550800D01*
X71748768Y-55550800D01*
X71255959Y-55452774D01*
X70791743Y-55260490D01*
X70373958Y-54981335D01*
X70018665Y-54626042D01*
X69739510Y-54208257D01*
X69547226Y-53744041D01*
X69449200Y-53251232D01*
X69449200Y-52748768D01*
X69547226Y-52255959D01*
X69739510Y-51791743D01*
X70018665Y-51373958D01*
X70373958Y-51018665D01*
X70791743Y-50739510D01*
X71255959Y-50547226D01*
X71748768Y-50449200D01*
X72251232Y-50449200D01*
X72744041Y-50547226D01*
X72744041Y-50547226D01*
G37*
M02*
